<svg id="Layer_1" data-name="Layer 1" xmlns="http://www.w3.org/2000/svg" viewBox="0 0 2841.46 774.31"><defs><style>.cls-1{fill:#d4e6ff;}.cls-1,.cls-10,.cls-11,.cls-12,.cls-17,.cls-2,.cls-4,.cls-5,.cls-6,.cls-7,.cls-8,.cls-9{stroke:#000;}.cls-1,.cls-10,.cls-11,.cls-12,.cls-15,.cls-17,.cls-2,.cls-4,.cls-5,.cls-6,.cls-7,.cls-8,.cls-9{stroke-miterlimit:10;}.cls-1,.cls-10,.cls-11,.cls-12,.cls-2,.cls-4,.cls-5,.cls-6,.cls-7,.cls-8,.cls-9{stroke-width:3px;}.cls-2{fill:#85b8ff;}.cls-3{font-size:60px;font-family:Consolas, Consolas;}.cls-4{fill:#f6ffd4;}.cls-5{fill:#e8ff8f;}.cls-6{fill:#d4ffd4;}.cls-7{fill:#8cff8c;}.cls-8{fill:#fcd9ff;}.cls-9{fill:#f68fff;}.cls-10{fill:#f2f2f2;}.cls-11,.cls-16{fill:#e6e6e6;}.cls-13{fill:#fff;}.cls-14{fill:#b3b3b3;}.cls-15,.cls-17{fill:none;}.cls-15{stroke:#e6e6e6;stroke-width:90px;}.cls-17{stroke-width:20px;}</style></defs><title>enoki_dynamic_struct</title><rect class="cls-1" x="593.14" y="10.53" width="105.57" height="104.74"/><rect class="cls-2" x="698.71" y="10.53" width="105.57" height="104.74"/><rect class="cls-2" x="804.29" y="10.53" width="105.57" height="104.74"/><rect class="cls-1" x="909.86" y="10.53" width="105.57" height="104.74"/><rect class="cls-1" x="1015.11" y="10.53" width="105.57" height="104.74"/><rect class="cls-2" x="1120.69" y="10.53" width="105.57" height="104.74"/><rect class="cls-1" x="1226.26" y="10.53" width="105.57" height="104.74"/><rect class="cls-1" x="1331.83" y="10.53" width="105.57" height="104.74"/><text class="cls-3" transform="translate(17.63 79.4)">coord.time</text><rect class="cls-4" x="593.14" y="138.03" width="105.57" height="104.74"/><rect class="cls-5" x="698.71" y="138.03" width="105.57" height="104.74"/><rect class="cls-5" x="804.29" y="138.03" width="105.57" height="104.74"/><rect class="cls-4" x="909.86" y="138.03" width="105.57" height="104.74"/><rect class="cls-4" x="1015.11" y="138.03" width="105.57" height="104.74"/><rect class="cls-5" x="1120.69" y="138.03" width="105.57" height="104.74"/><rect class="cls-4" x="1226.26" y="138.03" width="105.57" height="104.74"/><rect class="cls-4" x="1331.83" y="138.03" width="105.57" height="104.74"/><text class="cls-3" transform="translate(17.63 206.9)">coord.pos.x()</text><rect class="cls-6" x="593.14" y="265.52" width="105.57" height="104.74"/><rect class="cls-7" x="698.71" y="265.52" width="105.57" height="104.74"/><rect class="cls-7" x="804.29" y="265.52" width="105.57" height="104.74"/><rect class="cls-6" x="909.86" y="265.52" width="105.57" height="104.74"/><rect class="cls-6" x="1015.11" y="265.52" width="105.57" height="104.74"/><rect class="cls-7" x="1120.69" y="265.52" width="105.57" height="104.74"/><rect class="cls-6" x="1226.26" y="265.52" width="105.57" height="104.74"/><rect class="cls-6" x="1331.83" y="265.52" width="105.57" height="104.74"/><text class="cls-3" transform="translate(17.63 334.39)">coord.pos.y()</text><rect class="cls-8" x="593.14" y="393.02" width="105.57" height="104.74"/><rect class="cls-9" x="698.71" y="393.02" width="105.57" height="104.74"/><rect class="cls-9" x="804.29" y="393.02" width="105.57" height="104.74"/><rect class="cls-8" x="909.86" y="393.02" width="105.57" height="104.74"/><rect class="cls-8" x="1015.11" y="393.02" width="105.57" height="104.74"/><rect class="cls-9" x="1120.69" y="393.02" width="105.57" height="104.74"/><rect class="cls-8" x="1226.26" y="393.02" width="105.57" height="104.74"/><rect class="cls-8" x="1331.83" y="393.02" width="105.57" height="104.74"/><rect class="cls-10" x="2231.55" y="10.53" width="105.57" height="104.74"/><rect class="cls-10" x="2231.55" y="138.03" width="105.57" height="104.74"/><rect class="cls-10" x="2231.55" y="265.52" width="105.57" height="104.74"/><rect class="cls-10" x="2231.55" y="393.02" width="105.57" height="104.74"/><rect class="cls-10" x="2337.12" y="10.53" width="105.57" height="104.74"/><rect class="cls-10" x="2337.12" y="138.03" width="105.57" height="104.74"/><rect class="cls-10" x="2337.12" y="265.52" width="105.57" height="104.74"/><rect class="cls-10" x="2337.12" y="393.02" width="105.57" height="104.74"/><rect class="cls-10" x="2442.69" y="10.53" width="105.57" height="104.74"/><rect class="cls-10" x="2442.69" y="138.03" width="105.57" height="104.74"/><rect class="cls-10" x="2442.69" y="265.52" width="105.57" height="104.74"/><rect class="cls-10" x="2442.69" y="393.02" width="105.57" height="104.74"/><rect class="cls-10" x="2548.27" y="10.53" width="105.57" height="104.74"/><rect class="cls-10" x="2548.27" y="138.03" width="105.57" height="104.74"/><rect class="cls-10" x="2548.27" y="265.52" width="105.57" height="104.74"/><rect class="cls-10" x="2548.27" y="393.02" width="105.57" height="104.74"/><rect class="cls-10" x="2653.84" y="10.53" width="105.57" height="104.74"/><rect class="cls-10" x="2653.84" y="138.03" width="105.57" height="104.74"/><rect class="cls-10" x="2653.84" y="265.52" width="105.57" height="104.74"/><rect class="cls-10" x="2653.84" y="393.02" width="105.57" height="104.74"/><rect class="cls-11" x="593.14" y="525.96" width="105.57" height="104.74"/><rect class="cls-12" x="698.71" y="525.96" width="105.57" height="104.74"/><rect class="cls-12" x="804.29" y="525.96" width="105.57" height="104.74"/><rect class="cls-11" x="909.86" y="525.96" width="105.57" height="104.74"/><rect class="cls-11" x="1015.11" y="525.96" width="105.57" height="104.74"/><rect class="cls-12" x="1120.69" y="525.96" width="105.57" height="104.74"/><rect class="cls-11" x="1226.26" y="525.96" width="105.57" height="104.74"/><rect class="cls-11" x="1331.83" y="525.96" width="105.57" height="104.74"/><text class="cls-3" transform="translate(17.63 461.88)">coord.valid</text><text class="cls-3" transform="translate(2231.55 737.4)">ptr</text><text class="cls-3" transform="translate(17.63 595.88)">mask</text><path class="cls-13" d="M727,567c5.82.7,7,4.34,7.37,8.51,1.33,14.46,7.11,9.13,13.22,3,8.83-8.79,17.61-17.62,26.69-26.14,2.62-2.46,6.08-6.73,10-2.89,3.13,3.1,1.7,7.81-1,10.88-14.15,16.2-28.76,32-45,46.13-3.75,3.26-7.92,4.06-12.53,1.69-9.25-4.75-12.13-31.57-4-38.36C723.42,568.47,725.63,567.74,727,567Z"/><rect class="cls-2" x="1914.83" y="10.53" width="105.57" height="104.74"/><rect class="cls-5" x="1914.83" y="138.03" width="105.57" height="104.74"/><rect class="cls-7" x="1914.83" y="265.52" width="105.57" height="104.74"/><rect class="cls-9" x="1914.83" y="393.02" width="105.57" height="104.74"/><rect class="cls-2" x="2020.4" y="10.53" width="105.57" height="104.74"/><rect class="cls-5" x="2020.4" y="138.03" width="105.57" height="104.74"/><rect class="cls-7" x="2020.4" y="265.52" width="105.57" height="104.74"/><rect class="cls-9" x="2020.4" y="393.02" width="105.57" height="104.74"/><rect class="cls-2" x="2125.97" y="10.53" width="105.57" height="104.74"/><rect class="cls-5" x="2125.97" y="138.03" width="105.57" height="104.74"/><rect class="cls-7" x="2125.97" y="265.52" width="105.57" height="104.74"/><rect class="cls-9" x="2125.97" y="393.02" width="105.57" height="104.74"/><path class="cls-13" d="M832.53,567c5.82.7,7,4.34,7.37,8.51,1.33,14.46,7.11,9.13,13.22,3,8.83-8.79,17.61-17.62,26.69-26.14,2.62-2.46,6.08-6.73,10-2.89,3.13,3.1,1.7,7.81-1,10.88-14.15,16.2-28.76,32-45,46.13-3.75,3.26-7.92,4.06-12.53,1.69-9.25-4.75-12.13-31.57-4-38.36C828.92,568.47,831.13,567.74,832.53,567Z"/><path class="cls-13" d="M1150.43,567c5.82.7,7,4.34,7.37,8.51,1.33,14.46,7.11,9.13,13.22,3,8.83-8.79,17.61-17.62,26.69-26.14,2.62-2.46,6.08-6.73,10-2.89,3.13,3.1,1.7,7.81-1,10.88-14.15,16.2-28.76,32-45,46.13-3.75,3.26-7.92,4.06-12.53,1.69-9.25-4.75-12.13-31.57-4-38.36C1146.83,568.47,1149,567.74,1150.43,567Z"/><path class="cls-14" d="M619.92,542.91c9.34-6.81,10.64,23.56,23.72,23.56,11.77,0,26-38.27,34.79-26.83s-28.11,31.38-28.11,40.2,32.74,17.29,17.08,30c-11.14,9-16.45-15-24.27-15.59-8.83-.65-18,31.05-27.13,23.86-15-11.76,17.65-23.88,17.32-37.26C633,569.66,607.82,551.73,619.92,542.91Z"/><path class="cls-14" d="M937.32,542.91c9.34-6.81,10.64,23.56,23.72,23.56,11.77,0,26-38.27,34.79-26.83s-28.11,31.38-28.11,40.2,32.74,17.29,17.08,30c-11.14,9-16.45-15-24.27-15.59-8.83-.65-18,31.05-27.13,23.86-15-11.76,17.65-23.88,17.32-37.26C950.45,569.66,925.22,551.73,937.32,542.91Z"/><path class="cls-14" d="M1041.89,542.91c9.34-6.81,10.64,23.56,23.72,23.56,11.77,0,26-38.27,34.79-26.83s-28.11,31.38-28.11,40.2,32.74,17.29,17.08,30c-11.14,9-16.45-15-24.27-15.59-8.83-.65-18,31.05-27.13,23.86-15-11.76,17.65-23.88,17.32-37.26C1055,569.66,1029.8,551.73,1041.89,542.91Z"/><path class="cls-14" d="M1253,542.91c9.34-6.81,10.64,23.56,23.72,23.56,11.77,0,26-38.27,34.79-26.83s-28.11,31.38-28.11,40.2,32.74,17.29,17.08,30c-11.14,9-16.45-15-24.27-15.59-8.83-.65-18,31.05-27.13,23.86-15-11.76,17.65-23.88,17.32-37.26C1266.17,569.66,1240.95,551.73,1253,542.91Z"/><path class="cls-14" d="M1358.61,542.91c9.34-6.81,10.64,23.56,23.72,23.56,11.77,0,26-38.27,34.79-26.83S1389,571,1389,579.84s32.74,17.29,17.08,30c-11.14,9-16.45-15-24.27-15.59-8.83-.65-18,31.05-27.13,23.86-15-11.76,17.65-23.88,17.32-37.26C1371.74,569.66,1346.52,551.73,1358.61,542.91Z"/><line class="cls-15" x1="1482.92" y1="254.7" x2="1668.77" y2="254.7"/><polygon class="cls-16" points="1622.82 411.76 1894.83 254.7 1622.82 97.63 1622.82 411.76"/><line class="cls-17" x1="2284.33" y1="640.36" x2="2284.33" y2="590.3"/><polygon points="2334.2 604.89 2284.33 518.53 2234.47 604.89 2334.2 604.89"/></svg>