<?xml version="1.0" encoding="utf-8"?>
<!-- Generator: Adobe Illustrator 23.0.6, SVG Export Plug-In . SVG Version: 6.00 Build 0)  -->
<svg version="1.1" id="Layer_1" xmlns="http://www.w3.org/2000/svg" xmlns:xlink="http://www.w3.org/1999/xlink" x="0px" y="0px"
	 viewBox="0 0 2841.46 774.31" style="enable-background:new 0 0 2841.46 774.31;" xml:space="preserve">
<style type="text/css">
	.st0{fill:#D4E6FF;stroke:#000000;stroke-width:3;stroke-miterlimit:10;}
	.st1{fill:#85B8FF;stroke:#000000;stroke-width:3;stroke-miterlimit:10;}
	.st2{enable-background:new    ;}
	.st3{fill:#F6FFD4;stroke:#000000;stroke-width:3;stroke-miterlimit:10;}
	.st4{fill:#E8FF8F;stroke:#000000;stroke-width:3;stroke-miterlimit:10;}
	.st5{fill:#D4FFD4;stroke:#000000;stroke-width:3;stroke-miterlimit:10;}
	.st6{fill:#8CFF8C;stroke:#000000;stroke-width:3;stroke-miterlimit:10;}
	.st7{fill:#FCD9FF;stroke:#000000;stroke-width:3;stroke-miterlimit:10;}
	.st8{fill:#F68FFF;stroke:#000000;stroke-width:3;stroke-miterlimit:10;}
	.st9{fill:#F2F2F2;stroke:#000000;stroke-width:3;stroke-miterlimit:10;}
	.st10{fill:#E6E6E6;stroke:#000000;stroke-width:3;stroke-miterlimit:10;}
	.st11{stroke:#000000;stroke-width:3;stroke-miterlimit:10;}
	.st12{fill:#FFFFFF;}
	.st13{fill:#B3B3B3;}
	.st14{fill:none;stroke:#E6E6E6;stroke-width:90;stroke-miterlimit:10;}
	.st15{fill:#E6E6E6;}
	.st16{fill:none;stroke:#000000;stroke-width:20;stroke-miterlimit:10;}
</style>
<title>enoki_dynamic_struct</title>
<rect x="593.14" y="10.53" class="st0" width="105.57" height="104.74"/>
<rect x="698.71" y="10.53" class="st1" width="105.57" height="104.74"/>
<rect x="804.29" y="10.53" class="st1" width="105.57" height="104.74"/>
<rect x="909.86" y="10.53" class="st0" width="105.57" height="104.74"/>
<rect x="1015.11" y="10.53" class="st0" width="105.57" height="104.74"/>
<rect x="1120.69" y="10.53" class="st1" width="105.57" height="104.74"/>
<rect x="1226.26" y="10.53" class="st0" width="105.57" height="104.74"/>
<rect x="1331.83" y="10.53" class="st0" width="105.57" height="104.74"/>
<g class="st2">
	<path d="M45.17,78.32c-1.33,0.51-2.69,0.88-4.09,1.13c-1.4,0.24-2.84,0.37-4.32,0.37c-4.65,0-8.23-1.26-10.74-3.78
		c-2.51-2.52-3.76-6.2-3.76-11.04c0-2.32,0.36-4.43,1.08-6.33c0.72-1.89,1.74-3.52,3.05-4.86c1.31-1.35,2.87-2.39,4.69-3.12
		s3.82-1.1,6.01-1.1c1.52,0,2.95,0.11,4.28,0.32c1.33,0.21,2.6,0.57,3.81,1.05v4.86c-1.27-0.66-2.56-1.15-3.88-1.45
		s-2.68-0.45-4.09-0.45c-1.31,0-2.54,0.25-3.71,0.75c-1.16,0.5-2.18,1.22-3.06,2.15s-1.57,2.08-2.08,3.43
		c-0.51,1.35-0.76,2.87-0.76,4.57c0,3.55,0.86,6.22,2.59,7.98s4.13,2.65,7.19,2.65c1.39,0,2.73-0.16,4.03-0.47
		c1.3-0.31,2.55-0.78,3.76-1.41V78.32z"/>
	<path d="M80.91,64.46c0,2.29-0.32,4.38-0.97,6.28s-1.57,3.54-2.78,4.89c-1.21,1.36-2.69,2.41-4.42,3.16
		c-1.74,0.75-3.71,1.13-5.92,1.13c-2.11,0-4-0.33-5.67-0.98s-3.09-1.62-4.25-2.89c-1.16-1.27-2.05-2.84-2.67-4.72
		s-0.92-4.03-0.92-6.47c0-2.29,0.32-4.37,0.97-6.25s1.57-3.51,2.78-4.86c1.21-1.36,2.69-2.41,4.42-3.16
		c1.74-0.75,3.71-1.13,5.92-1.13c2.11,0,4,0.33,5.67,0.98s3.09,1.61,4.25,2.87c1.16,1.26,2.05,2.83,2.67,4.7
		S80.91,62.04,80.91,64.46z M75.7,64.69c0-1.82-0.2-3.4-0.6-4.76c-0.4-1.36-0.97-2.49-1.71-3.4c-0.74-0.91-1.65-1.59-2.71-2.05
		c-1.06-0.46-2.25-0.69-3.56-0.69c-1.52,0-2.83,0.3-3.91,0.89s-1.97,1.39-2.67,2.39c-0.69,1-1.2,2.15-1.52,3.47s-0.48,2.7-0.48,4.15
		c0,1.82,0.2,3.41,0.6,4.78c0.4,1.37,0.97,2.5,1.71,3.41c0.74,0.91,1.64,1.59,2.7,2.05s2.25,0.69,3.57,0.69
		c1.52,0,2.83-0.3,3.91-0.89s1.97-1.39,2.67-2.39c0.69-1,1.2-2.15,1.52-3.47S75.7,66.16,75.7,64.69z"/>
	<path d="M113.9,64.46c0,2.29-0.32,4.38-0.97,6.28s-1.57,3.54-2.78,4.89c-1.21,1.36-2.69,2.41-4.42,3.16
		c-1.74,0.75-3.71,1.13-5.92,1.13c-2.11,0-4-0.33-5.67-0.98s-3.09-1.62-4.25-2.89c-1.16-1.27-2.05-2.84-2.67-4.72
		s-0.92-4.03-0.92-6.47c0-2.29,0.32-4.37,0.97-6.25s1.57-3.51,2.78-4.86c1.21-1.36,2.69-2.41,4.42-3.16
		c1.74-0.75,3.71-1.13,5.92-1.13c2.11,0,4,0.33,5.67,0.98s3.09,1.61,4.25,2.87c1.16,1.26,2.05,2.83,2.67,4.7
		S113.9,62.04,113.9,64.46z M108.68,64.69c0-1.82-0.2-3.4-0.6-4.76c-0.4-1.36-0.97-2.49-1.71-3.4c-0.74-0.91-1.65-1.59-2.71-2.05
		c-1.06-0.46-2.25-0.69-3.56-0.69c-1.52,0-2.83,0.3-3.91,0.89s-1.97,1.39-2.67,2.39c-0.69,1-1.2,2.15-1.52,3.47s-0.48,2.7-0.48,4.15
		c0,1.82,0.2,3.41,0.6,4.78c0.4,1.37,0.97,2.5,1.71,3.41c0.74,0.91,1.64,1.59,2.7,2.05s2.25,0.69,3.57,0.69
		c1.52,0,2.83-0.3,3.91-0.89s1.97-1.39,2.67-2.39c0.69-1,1.2-2.15,1.52-3.47S108.68,66.16,108.68,64.69z"/>
	<path d="M122.48,49.99h4.66l0.15,5.42c1.74-2.09,3.45-3.6,5.14-4.54c1.69-0.94,3.39-1.41,5.11-1.41c3.05,0,5.36,0.99,6.93,2.96
		c1.57,1.97,2.3,4.9,2.18,8.79h-5.16c0.06-2.58-0.32-4.45-1.13-5.61c-0.81-1.16-2-1.74-3.56-1.74c-0.68,0-1.37,0.12-2.07,0.37
		c-0.69,0.24-1.41,0.63-2.14,1.17s-1.51,1.23-2.33,2.07s-1.7,1.86-2.64,3.05v18.9h-5.16V49.99z"/>
	<path d="M152.78,65.31c0-2.5,0.34-4.72,1.03-6.67c0.68-1.94,1.66-3.58,2.92-4.92s2.77-2.35,4.54-3.05c1.77-0.69,3.74-1.04,5.9-1.04
		c0.94,0,1.86,0.06,2.77,0.18s1.8,0.3,2.68,0.56V38h5.13v41.4h-4.57l-0.18-5.57c-1.43,2.07-2.97,3.6-4.63,4.6
		c-1.66,1-3.46,1.49-5.39,1.49c-1.68,0-3.16-0.35-4.44-1.05c-1.28-0.7-2.34-1.69-3.19-2.97s-1.49-2.82-1.92-4.61
		C152.99,69.49,152.78,67.5,152.78,65.31z M157.99,64.99c0,3.55,0.52,6.21,1.57,7.95c1.04,1.75,2.52,2.62,4.44,2.62
		c1.29,0,2.65-0.58,4.09-1.73s2.94-2.86,4.53-5.13V55.05c-0.84-0.39-1.77-0.69-2.78-0.89c-1.02-0.21-2.02-0.31-3.02-0.31
		c-2.77,0-4.94,0.9-6.49,2.7S157.99,61.16,157.99,64.99z"/>
	<path d="M198.83,70.17c0.66,0,1.29,0.13,1.89,0.38c0.6,0.25,1.11,0.61,1.55,1.05s0.79,0.97,1.04,1.57c0.25,0.6,0.38,1.24,0.38,1.92
		c0,0.66-0.13,1.29-0.38,1.88c-0.25,0.59-0.6,1.1-1.04,1.54s-0.96,0.79-1.55,1.04c-0.6,0.25-1.23,0.38-1.89,0.38
		c-0.68,0-1.32-0.13-1.9-0.38s-1.1-0.6-1.54-1.04s-0.79-0.95-1.04-1.54c-0.25-0.59-0.38-1.21-0.38-1.88c0-0.68,0.13-1.32,0.38-1.92
		c0.25-0.6,0.6-1.12,1.04-1.57s0.95-0.8,1.54-1.05S198.15,70.17,198.83,70.17z"/>
	<path d="M243.95,78.99c-1.15,0.29-2.34,0.5-3.57,0.63s-2.48,0.19-3.75,0.19c-3.69,0-6.45-0.83-8.26-2.5s-2.72-4.23-2.72-7.69V54.26
		h-8.23v-4.28h8.23V41.9l5.1-1.32v9.4h13.21v4.28h-13.21V69.2c0,2.11,0.56,3.69,1.68,4.73c1.12,1.04,2.78,1.57,4.97,1.57
		c0.94,0,1.96-0.07,3.08-0.22s2.27-0.38,3.49-0.69V78.99z"/>
	<path d="M263.25,54.2h-8.7v-4.22h13.86v25.17h8.76v4.25h-23.58v-4.25h9.67V54.2z M265.04,37.65c0.57,0,1.09,0.1,1.58,0.31
		c0.49,0.21,0.91,0.49,1.27,0.86c0.36,0.37,0.64,0.8,0.85,1.27s0.31,1,0.31,1.57c0,0.55-0.1,1.06-0.31,1.55s-0.49,0.92-0.85,1.29
		c-0.36,0.37-0.79,0.66-1.27,0.86c-0.49,0.21-1.02,0.31-1.58,0.31c-0.57,0-1.09-0.1-1.58-0.31c-0.49-0.21-0.91-0.49-1.27-0.86
		c-0.36-0.37-0.64-0.8-0.85-1.29s-0.31-1.01-0.31-1.55c0-0.57,0.1-1.09,0.31-1.57s0.49-0.9,0.85-1.27c0.36-0.37,0.79-0.66,1.27-0.86
		C263.95,37.75,264.48,37.65,265.04,37.65z"/>
	<path d="M307.2,79.4V58.28c0-0.92-0.03-1.67-0.1-2.26c-0.07-0.59-0.18-1.05-0.32-1.39s-0.33-0.58-0.56-0.72
		c-0.22-0.14-0.5-0.21-0.83-0.21c-0.39,0-0.75,0.12-1.08,0.35c-0.33,0.23-0.69,0.62-1.07,1.14s-0.8,1.23-1.26,2.09
		c-0.46,0.87-1,1.94-1.63,3.21v18.9h-4.66V58.83c0-1.07-0.03-1.94-0.1-2.61c-0.07-0.66-0.18-1.18-0.32-1.55s-0.34-0.62-0.57-0.76
		s-0.52-0.21-0.85-0.21c-0.35,0-0.68,0.1-1,0.29c-0.31,0.2-0.66,0.55-1.04,1.05s-0.81,1.2-1.27,2.08s-1.03,2-1.67,3.37v18.9h-4.69
		V49.99h3.9l0.23,5.6c0.51-1.11,1-2.06,1.48-2.84c0.48-0.78,0.97-1.41,1.48-1.89c0.51-0.48,1.05-0.83,1.63-1.05
		c0.58-0.22,1.22-0.34,1.92-0.34c1.58,0,2.78,0.52,3.6,1.55s1.23,2.64,1.23,4.8c0.47-1.02,0.93-1.92,1.38-2.71
		c0.45-0.79,0.93-1.46,1.45-1.99c0.52-0.54,1.09-0.95,1.71-1.23c0.62-0.28,1.35-0.42,2.17-0.42c3.69,0,5.54,2.84,5.54,8.53V79.4
		H307.2z"/>
	<path d="M344.06,63.14c0,0.72-0.01,1.33-0.03,1.82c-0.02,0.49-0.05,0.95-0.09,1.38h-20.65c0,3.01,0.84,5.32,2.52,6.93
		c1.68,1.61,4.1,2.42,7.27,2.42c0.86,0,1.72-0.03,2.58-0.1c0.86-0.07,1.69-0.16,2.49-0.28c0.8-0.12,1.57-0.25,2.3-0.4
		s1.41-0.31,2.04-0.48v4.19c-1.39,0.39-2.95,0.71-4.7,0.95c-1.75,0.24-3.56,0.37-5.43,0.37c-2.52,0-4.69-0.34-6.5-1.03
		s-3.31-1.67-4.47-2.97c-1.16-1.3-2.02-2.89-2.58-4.78s-0.83-4.02-0.83-6.4c0-2.07,0.3-4.03,0.89-5.87c0.6-1.85,1.46-3.47,2.61-4.86
		s2.54-2.5,4.2-3.33c1.66-0.82,3.54-1.23,5.65-1.23c2.05,0,3.87,0.32,5.45,0.97s2.92,1.56,4,2.74s1.9,2.62,2.46,4.31
		S344.06,61.05,344.06,63.14z M338.75,62.41c0.06-1.31-0.07-2.5-0.38-3.59c-0.31-1.08-0.8-2.02-1.45-2.8
		c-0.65-0.78-1.47-1.39-2.45-1.83c-0.98-0.44-2.11-0.66-3.4-0.66c-1.11,0-2.13,0.21-3.05,0.64c-0.92,0.43-1.71,1.04-2.37,1.82
		c-0.66,0.78-1.2,1.72-1.61,2.81s-0.66,2.29-0.76,3.6H338.75z"/>
</g>
<rect x="593.14" y="138.03" class="st3" width="105.57" height="104.74"/>
<rect x="698.71" y="138.03" class="st4" width="105.57" height="104.74"/>
<rect x="804.29" y="138.03" class="st4" width="105.57" height="104.74"/>
<rect x="909.86" y="138.03" class="st3" width="105.57" height="104.74"/>
<rect x="1015.11" y="138.03" class="st3" width="105.57" height="104.74"/>
<rect x="1120.69" y="138.03" class="st4" width="105.57" height="104.74"/>
<rect x="1226.26" y="138.03" class="st3" width="105.57" height="104.74"/>
<rect x="1331.83" y="138.03" class="st3" width="105.57" height="104.74"/>
<g class="st2">
	<path d="M45.17,205.82c-1.33,0.51-2.69,0.88-4.09,1.13c-1.4,0.24-2.84,0.37-4.32,0.37c-4.65,0-8.23-1.26-10.74-3.78
		c-2.51-2.52-3.76-6.2-3.76-11.04c0-2.32,0.36-4.43,1.08-6.33c0.72-1.89,1.74-3.52,3.05-4.86c1.31-1.35,2.87-2.39,4.69-3.12
		s3.82-1.1,6.01-1.1c1.52,0,2.95,0.11,4.28,0.32c1.33,0.21,2.6,0.57,3.81,1.05v4.86c-1.27-0.66-2.56-1.15-3.88-1.45
		s-2.68-0.45-4.09-0.45c-1.31,0-2.54,0.25-3.71,0.75c-1.16,0.5-2.18,1.22-3.06,2.15s-1.57,2.08-2.08,3.43
		c-0.51,1.35-0.76,2.87-0.76,4.57c0,3.55,0.86,6.22,2.59,7.98s4.13,2.65,7.19,2.65c1.39,0,2.73-0.16,4.03-0.47
		c1.3-0.31,2.55-0.78,3.76-1.41V205.82z"/>
	<path d="M80.91,191.96c0,2.29-0.32,4.38-0.97,6.28s-1.57,3.54-2.78,4.89c-1.21,1.36-2.69,2.41-4.42,3.16
		c-1.74,0.75-3.71,1.13-5.92,1.13c-2.11,0-4-0.33-5.67-0.98s-3.09-1.62-4.25-2.89c-1.16-1.27-2.05-2.84-2.67-4.72
		s-0.92-4.03-0.92-6.47c0-2.29,0.32-4.37,0.97-6.25s1.57-3.51,2.78-4.86c1.21-1.36,2.69-2.41,4.42-3.16
		c1.74-0.75,3.71-1.13,5.92-1.13c2.11,0,4,0.33,5.67,0.98s3.09,1.61,4.25,2.87c1.16,1.26,2.05,2.83,2.67,4.7
		S80.91,189.54,80.91,191.96z M75.7,192.19c0-1.82-0.2-3.4-0.6-4.76c-0.4-1.36-0.97-2.49-1.71-3.4c-0.74-0.91-1.65-1.59-2.71-2.05
		c-1.06-0.46-2.25-0.69-3.56-0.69c-1.52,0-2.83,0.3-3.91,0.89s-1.97,1.39-2.67,2.39c-0.69,1-1.2,2.15-1.52,3.47s-0.48,2.7-0.48,4.15
		c0,1.82,0.2,3.41,0.6,4.78c0.4,1.37,0.97,2.5,1.71,3.41c0.74,0.91,1.64,1.59,2.7,2.05s2.25,0.69,3.57,0.69
		c1.52,0,2.83-0.3,3.91-0.89s1.97-1.39,2.67-2.39c0.69-1,1.2-2.15,1.52-3.47S75.7,193.66,75.7,192.19z"/>
	<path d="M113.9,191.96c0,2.29-0.32,4.38-0.97,6.28s-1.57,3.54-2.78,4.89c-1.21,1.36-2.69,2.41-4.42,3.16
		c-1.74,0.75-3.71,1.13-5.92,1.13c-2.11,0-4-0.33-5.67-0.98s-3.09-1.62-4.25-2.89c-1.16-1.27-2.05-2.84-2.67-4.72
		s-0.92-4.03-0.92-6.47c0-2.29,0.32-4.37,0.97-6.25s1.57-3.51,2.78-4.86c1.21-1.36,2.69-2.41,4.42-3.16
		c1.74-0.75,3.71-1.13,5.92-1.13c2.11,0,4,0.33,5.67,0.98s3.09,1.61,4.25,2.87c1.16,1.26,2.05,2.83,2.67,4.7
		S113.9,189.54,113.9,191.96z M108.68,192.19c0-1.82-0.2-3.4-0.6-4.76c-0.4-1.36-0.97-2.49-1.71-3.4c-0.74-0.91-1.65-1.59-2.71-2.05
		c-1.06-0.46-2.25-0.69-3.56-0.69c-1.52,0-2.83,0.3-3.91,0.89s-1.97,1.39-2.67,2.39c-0.69,1-1.2,2.15-1.52,3.47s-0.48,2.7-0.48,4.15
		c0,1.82,0.2,3.41,0.6,4.78c0.4,1.37,0.97,2.5,1.71,3.41c0.74,0.91,1.64,1.59,2.7,2.05s2.25,0.69,3.57,0.69
		c1.52,0,2.83-0.3,3.91-0.89s1.97-1.39,2.67-2.39c0.69-1,1.2-2.15,1.52-3.47S108.68,193.66,108.68,192.19z"/>
	<path d="M122.48,177.49h4.66l0.15,5.42c1.74-2.09,3.45-3.6,5.14-4.54c1.69-0.94,3.39-1.41,5.11-1.41c3.05,0,5.36,0.99,6.93,2.96
		c1.57,1.97,2.3,4.9,2.18,8.79h-5.16c0.06-2.58-0.32-4.45-1.13-5.61c-0.81-1.16-2-1.74-3.56-1.74c-0.68,0-1.37,0.12-2.07,0.37
		c-0.69,0.24-1.41,0.63-2.14,1.17s-1.51,1.23-2.33,2.07s-1.7,1.86-2.64,3.05v18.9h-5.16V177.49z"/>
	<path d="M152.78,192.81c0-2.5,0.34-4.72,1.03-6.67c0.68-1.94,1.66-3.58,2.92-4.92s2.77-2.35,4.54-3.05
		c1.77-0.69,3.74-1.04,5.9-1.04c0.94,0,1.86,0.06,2.77,0.18s1.8,0.3,2.68,0.56V165.5h5.13v41.4h-4.57l-0.18-5.57
		c-1.43,2.07-2.97,3.6-4.63,4.6c-1.66,1-3.46,1.49-5.39,1.49c-1.68,0-3.16-0.35-4.44-1.05c-1.28-0.7-2.34-1.69-3.19-2.97
		s-1.49-2.82-1.92-4.61C152.99,196.99,152.78,195,152.78,192.81z M157.99,192.49c0,3.55,0.52,6.21,1.57,7.95
		c1.04,1.75,2.52,2.62,4.44,2.62c1.29,0,2.65-0.58,4.09-1.73s2.94-2.86,4.53-5.13v-13.65c-0.84-0.39-1.77-0.69-2.78-0.89
		c-1.02-0.21-2.02-0.31-3.02-0.31c-2.77,0-4.94,0.9-6.49,2.7S157.99,188.66,157.99,192.49z"/>
	<path d="M198.83,197.67c0.66,0,1.29,0.13,1.89,0.38c0.6,0.25,1.11,0.61,1.55,1.05s0.79,0.97,1.04,1.57
		c0.25,0.6,0.38,1.24,0.38,1.92c0,0.66-0.13,1.29-0.38,1.88c-0.25,0.59-0.6,1.1-1.04,1.54s-0.96,0.79-1.55,1.04
		c-0.6,0.25-1.23,0.38-1.89,0.38c-0.68,0-1.32-0.13-1.9-0.38s-1.1-0.6-1.54-1.04s-0.79-0.95-1.04-1.54
		c-0.25-0.59-0.38-1.21-0.38-1.88c0-0.68,0.13-1.32,0.38-1.92c0.25-0.6,0.6-1.12,1.04-1.57s0.95-0.8,1.54-1.05
		S198.15,197.67,198.83,197.67z"/>
	<path d="M245.38,191.67c0,2.62-0.37,4.9-1.1,6.86s-1.74,3.57-3.03,4.86s-2.81,2.26-4.57,2.9s-3.66,0.97-5.71,0.97
		c-0.94,0-1.87-0.05-2.8-0.15c-0.93-0.1-1.87-0.26-2.83-0.5v12.3h-5.1v-41.43h4.54l0.32,4.92c1.46-2.01,3.03-3.42,4.69-4.23
		c1.66-0.81,3.46-1.22,5.39-1.22c1.68,0,3.15,0.35,4.42,1.05c1.27,0.7,2.33,1.69,3.19,2.97c0.86,1.28,1.5,2.82,1.93,4.63
		C245.17,187.42,245.38,189.44,245.38,191.67z M240.17,191.9c0-1.54-0.11-2.96-0.34-4.25c-0.22-1.29-0.58-2.39-1.07-3.31
		c-0.49-0.92-1.11-1.64-1.88-2.15s-1.67-0.78-2.72-0.78c-0.64,0-1.3,0.1-1.96,0.31c-0.66,0.21-1.35,0.55-2.07,1.03
		c-0.71,0.48-1.46,1.11-2.26,1.9s-1.64,1.77-2.53,2.94v14.27c0.94,0.39,1.92,0.7,2.96,0.92c1.04,0.22,2.05,0.34,3.05,0.34
		c2.75,0,4.91-0.93,6.47-2.8C239.39,198.46,240.17,195.65,240.17,191.9z"/>
	<path d="M278.84,191.96c0,2.29-0.32,4.38-0.97,6.28s-1.57,3.54-2.78,4.89c-1.21,1.36-2.69,2.41-4.42,3.16
		c-1.74,0.75-3.71,1.13-5.92,1.13c-2.11,0-4-0.33-5.67-0.98s-3.09-1.62-4.25-2.89c-1.16-1.27-2.05-2.84-2.67-4.72
		s-0.92-4.03-0.92-6.47c0-2.29,0.32-4.37,0.97-6.25s1.57-3.51,2.78-4.86c1.21-1.36,2.69-2.41,4.42-3.16
		c1.74-0.75,3.71-1.13,5.92-1.13c2.11,0,4,0.33,5.67,0.98s3.09,1.61,4.25,2.87c1.16,1.26,2.05,2.83,2.67,4.7
		S278.84,189.54,278.84,191.96z M273.63,192.19c0-1.82-0.2-3.4-0.6-4.76c-0.4-1.36-0.97-2.49-1.71-3.4
		c-0.74-0.91-1.65-1.59-2.71-2.05c-1.06-0.46-2.25-0.69-3.56-0.69c-1.52,0-2.83,0.3-3.91,0.89s-1.97,1.39-2.67,2.39
		c-0.69,1-1.2,2.15-1.52,3.47s-0.48,2.7-0.48,4.15c0,1.82,0.2,3.41,0.6,4.78c0.4,1.37,0.97,2.5,1.71,3.41
		c0.74,0.91,1.64,1.59,2.7,2.05s2.25,0.69,3.57,0.69c1.52,0,2.83-0.3,3.91-0.89s1.97-1.39,2.67-2.39c0.69-1,1.2-2.15,1.52-3.47
		S273.63,193.66,273.63,192.19z"/>
	<path d="M309.51,198.87c0,1.04-0.18,1.96-0.53,2.78s-0.83,1.55-1.44,2.18c-0.61,0.63-1.31,1.18-2.11,1.63
		c-0.8,0.45-1.66,0.82-2.56,1.11s-1.84,0.51-2.8,0.64c-0.96,0.14-1.89,0.21-2.81,0.21c-1.99,0-3.82-0.09-5.49-0.26
		s-3.31-0.46-4.91-0.85v-4.69c1.72,0.49,3.43,0.86,5.13,1.11s3.39,0.38,5.07,0.38c2.44,0,4.25-0.33,5.42-1s1.76-1.61,1.76-2.84
		c0-0.53-0.09-1-0.28-1.42c-0.19-0.42-0.52-0.82-1.01-1.2c-0.49-0.38-1.25-0.78-2.27-1.19s-2.43-0.88-4.2-1.41
		c-1.33-0.39-2.55-0.83-3.68-1.33c-1.12-0.5-2.09-1.09-2.92-1.77s-1.46-1.48-1.93-2.4s-0.7-2-0.7-3.25c0-0.82,0.19-1.72,0.57-2.7
		s1.03-1.88,1.95-2.72c0.92-0.84,2.16-1.54,3.72-2.09c1.56-0.56,3.52-0.83,5.86-0.83c1.15,0,2.43,0.06,3.84,0.19
		s2.87,0.35,4.39,0.66v4.54c-1.6-0.39-3.12-0.68-4.56-0.86s-2.68-0.28-3.74-0.28c-1.27,0-2.34,0.1-3.21,0.29
		c-0.87,0.2-1.57,0.46-2.11,0.81c-0.54,0.34-0.92,0.74-1.16,1.2s-0.35,0.95-0.35,1.48s0.1,1.01,0.31,1.44s0.59,0.84,1.14,1.25
		s1.33,0.8,2.33,1.2s2.29,0.83,3.9,1.3c1.74,0.51,3.2,1.04,4.39,1.6c1.19,0.56,2.16,1.18,2.9,1.86c0.74,0.68,1.27,1.46,1.6,2.31
		S309.51,197.78,309.51,198.87z"/>
	<path d="M330.78,197.67c0.66,0,1.29,0.13,1.89,0.38c0.6,0.25,1.11,0.61,1.55,1.05s0.79,0.97,1.04,1.57
		c0.25,0.6,0.38,1.24,0.38,1.92c0,0.66-0.13,1.29-0.38,1.88c-0.25,0.59-0.6,1.1-1.04,1.54s-0.96,0.79-1.55,1.04
		c-0.6,0.25-1.23,0.38-1.89,0.38c-0.68,0-1.32-0.13-1.9-0.38s-1.1-0.6-1.54-1.04s-0.79-0.95-1.04-1.54
		c-0.25-0.59-0.38-1.21-0.38-1.88c0-0.68,0.13-1.32,0.38-1.92c0.25-0.6,0.6-1.12,1.04-1.57s0.95-0.8,1.54-1.05
		S330.1,197.67,330.78,197.67z"/>
	<path d="M378.71,206.9h-6.77l-7.94-11.22l-7.85,11.22h-6.59l11.4-14.77l-10.87-14.65h6.53l7.73,11.31l7.59-11.31h6.3l-11.04,14.77
		L378.71,206.9z"/>
	<path d="M402.8,219.2c-9-8.34-13.51-17.56-13.51-27.66c0-2.36,0.24-4.72,0.72-7.08c0.48-2.35,1.25-4.71,2.31-7.08
		c1.06-2.36,2.47-4.73,4.22-7.09c1.75-2.36,3.87-4.71,6.37-7.03l2.96,3.02c-7.58,7.48-11.37,15.77-11.37,24.87
		c0,4.53,0.96,8.89,2.87,13.07c1.91,4.18,4.75,8.12,8.5,11.84L402.8,219.2z"/>
	<path d="M424.18,163.28c9,8.34,13.51,17.62,13.51,27.83c0,2.11-0.22,4.3-0.64,6.56c-0.43,2.27-1.16,4.58-2.2,6.96
		c-1.04,2.37-2.43,4.78-4.17,7.22c-1.75,2.44-3.95,4.89-6.61,7.35l-2.96-3.02c3.81-3.77,6.65-7.71,8.53-11.81s2.81-8.4,2.81-12.89
		c0-9.3-3.78-17.66-11.34-25.08L424.18,163.28z"/>
</g>
<rect x="593.14" y="265.52" class="st5" width="105.57" height="104.74"/>
<rect x="698.71" y="265.52" class="st6" width="105.57" height="104.74"/>
<rect x="804.29" y="265.52" class="st6" width="105.57" height="104.74"/>
<rect x="909.86" y="265.52" class="st5" width="105.57" height="104.74"/>
<rect x="1015.11" y="265.52" class="st5" width="105.57" height="104.74"/>
<rect x="1120.69" y="265.52" class="st6" width="105.57" height="104.74"/>
<rect x="1226.26" y="265.52" class="st5" width="105.57" height="104.74"/>
<rect x="1331.83" y="265.52" class="st5" width="105.57" height="104.74"/>
<g class="st2">
	<path d="M45.17,333.31c-1.33,0.51-2.69,0.88-4.09,1.13c-1.4,0.24-2.84,0.37-4.32,0.37c-4.65,0-8.23-1.26-10.74-3.78
		c-2.51-2.52-3.76-6.2-3.76-11.04c0-2.32,0.36-4.43,1.08-6.33c0.72-1.89,1.74-3.52,3.05-4.86c1.31-1.35,2.87-2.39,4.69-3.12
		s3.82-1.1,6.01-1.1c1.52,0,2.95,0.11,4.28,0.32c1.33,0.21,2.6,0.57,3.81,1.05v4.86c-1.27-0.66-2.56-1.15-3.88-1.45
		s-2.68-0.45-4.09-0.45c-1.31,0-2.54,0.25-3.71,0.75c-1.16,0.5-2.18,1.22-3.06,2.15s-1.57,2.08-2.08,3.43
		c-0.51,1.35-0.76,2.87-0.76,4.57c0,3.55,0.86,6.22,2.59,7.98s4.13,2.65,7.19,2.65c1.39,0,2.73-0.16,4.03-0.47
		c1.3-0.31,2.55-0.78,3.76-1.41V333.31z"/>
	<path d="M80.91,319.45c0,2.29-0.32,4.38-0.97,6.28s-1.57,3.54-2.78,4.89c-1.21,1.36-2.69,2.41-4.42,3.16
		c-1.74,0.75-3.71,1.13-5.92,1.13c-2.11,0-4-0.33-5.67-0.98s-3.09-1.62-4.25-2.89c-1.16-1.27-2.05-2.84-2.67-4.72
		s-0.92-4.03-0.92-6.47c0-2.29,0.32-4.37,0.97-6.25s1.57-3.51,2.78-4.86c1.21-1.36,2.69-2.41,4.42-3.16
		c1.74-0.75,3.71-1.13,5.92-1.13c2.11,0,4,0.33,5.67,0.98s3.09,1.61,4.25,2.87c1.16,1.26,2.05,2.83,2.67,4.7
		S80.91,317.03,80.91,319.45z M75.7,319.68c0-1.82-0.2-3.4-0.6-4.76c-0.4-1.36-0.97-2.49-1.71-3.4c-0.74-0.91-1.65-1.59-2.71-2.05
		c-1.06-0.46-2.25-0.69-3.56-0.69c-1.52,0-2.83,0.3-3.91,0.89s-1.97,1.39-2.67,2.39c-0.69,1-1.2,2.15-1.52,3.47s-0.48,2.7-0.48,4.15
		c0,1.82,0.2,3.41,0.6,4.78c0.4,1.37,0.97,2.5,1.71,3.41c0.74,0.91,1.64,1.59,2.7,2.05s2.25,0.69,3.57,0.69
		c1.52,0,2.83-0.3,3.91-0.89s1.97-1.39,2.67-2.39c0.69-1,1.2-2.15,1.52-3.47S75.7,321.15,75.7,319.68z"/>
	<path d="M113.9,319.45c0,2.29-0.32,4.38-0.97,6.28s-1.57,3.54-2.78,4.89c-1.21,1.36-2.69,2.41-4.42,3.16
		c-1.74,0.75-3.71,1.13-5.92,1.13c-2.11,0-4-0.33-5.67-0.98s-3.09-1.62-4.25-2.89c-1.16-1.27-2.05-2.84-2.67-4.72
		s-0.92-4.03-0.92-6.47c0-2.29,0.32-4.37,0.97-6.25s1.57-3.51,2.78-4.86c1.21-1.36,2.69-2.41,4.42-3.16
		c1.74-0.75,3.71-1.13,5.92-1.13c2.11,0,4,0.33,5.67,0.98s3.09,1.61,4.25,2.87c1.16,1.26,2.05,2.83,2.67,4.7
		S113.9,317.03,113.9,319.45z M108.68,319.68c0-1.82-0.2-3.4-0.6-4.76c-0.4-1.36-0.97-2.49-1.71-3.4c-0.74-0.91-1.65-1.59-2.71-2.05
		c-1.06-0.46-2.25-0.69-3.56-0.69c-1.52,0-2.83,0.3-3.91,0.89s-1.97,1.39-2.67,2.39c-0.69,1-1.2,2.15-1.52,3.47s-0.48,2.7-0.48,4.15
		c0,1.82,0.2,3.41,0.6,4.78c0.4,1.37,0.97,2.5,1.71,3.41c0.74,0.91,1.64,1.59,2.7,2.05s2.25,0.69,3.57,0.69
		c1.52,0,2.83-0.3,3.91-0.89s1.97-1.39,2.67-2.39c0.69-1,1.2-2.15,1.52-3.47S108.68,321.15,108.68,319.68z"/>
	<path d="M122.48,304.98h4.66l0.15,5.42c1.74-2.09,3.45-3.6,5.14-4.54c1.69-0.94,3.39-1.41,5.11-1.41c3.05,0,5.36,0.99,6.93,2.96
		c1.57,1.97,2.3,4.9,2.18,8.79h-5.16c0.06-2.58-0.32-4.45-1.13-5.61c-0.81-1.16-2-1.74-3.56-1.74c-0.68,0-1.37,0.12-2.07,0.37
		c-0.69,0.24-1.41,0.63-2.14,1.17s-1.51,1.23-2.33,2.07s-1.7,1.86-2.64,3.05v18.9h-5.16V304.98z"/>
	<path d="M152.78,320.3c0-2.5,0.34-4.72,1.03-6.67c0.68-1.94,1.66-3.58,2.92-4.92s2.77-2.35,4.54-3.05c1.77-0.69,3.74-1.04,5.9-1.04
		c0.94,0,1.86,0.06,2.77,0.18s1.8,0.3,2.68,0.56v-12.36h5.13v41.4h-4.57l-0.18-5.57c-1.43,2.07-2.97,3.6-4.63,4.6
		c-1.66,1-3.46,1.49-5.39,1.49c-1.68,0-3.16-0.35-4.44-1.05c-1.28-0.7-2.34-1.69-3.19-2.97s-1.49-2.82-1.92-4.61
		C152.99,324.48,152.78,322.49,152.78,320.3z M157.99,319.98c0,3.55,0.52,6.21,1.57,7.95c1.04,1.75,2.52,2.62,4.44,2.62
		c1.29,0,2.65-0.58,4.09-1.73s2.94-2.86,4.53-5.13v-13.65c-0.84-0.39-1.77-0.69-2.78-0.89c-1.02-0.21-2.02-0.31-3.02-0.31
		c-2.77,0-4.94,0.9-6.49,2.7S157.99,316.15,157.99,319.98z"/>
	<path d="M198.83,325.16c0.66,0,1.29,0.13,1.89,0.38c0.6,0.25,1.11,0.61,1.55,1.05s0.79,0.97,1.04,1.57
		c0.25,0.6,0.38,1.24,0.38,1.92c0,0.66-0.13,1.29-0.38,1.88c-0.25,0.59-0.6,1.1-1.04,1.54s-0.96,0.79-1.55,1.04
		c-0.6,0.25-1.23,0.38-1.89,0.38c-0.68,0-1.32-0.13-1.9-0.38s-1.1-0.6-1.54-1.04s-0.79-0.95-1.04-1.54
		c-0.25-0.59-0.38-1.21-0.38-1.88c0-0.68,0.13-1.32,0.38-1.92c0.25-0.6,0.6-1.12,1.04-1.57s0.95-0.8,1.54-1.05
		S198.15,325.16,198.83,325.16z"/>
	<path d="M245.38,319.16c0,2.62-0.37,4.9-1.1,6.86s-1.74,3.57-3.03,4.86s-2.81,2.26-4.57,2.9s-3.66,0.97-5.71,0.97
		c-0.94,0-1.87-0.05-2.8-0.15c-0.93-0.1-1.87-0.26-2.83-0.5v12.3h-5.1v-41.43h4.54l0.32,4.92c1.46-2.01,3.03-3.42,4.69-4.23
		c1.66-0.81,3.46-1.22,5.39-1.22c1.68,0,3.15,0.35,4.42,1.05c1.27,0.7,2.33,1.69,3.19,2.97c0.86,1.28,1.5,2.82,1.93,4.63
		C245.17,314.91,245.38,316.93,245.38,319.16z M240.17,319.39c0-1.54-0.11-2.96-0.34-4.25c-0.22-1.29-0.58-2.39-1.07-3.31
		c-0.49-0.92-1.11-1.64-1.88-2.15s-1.67-0.78-2.72-0.78c-0.64,0-1.3,0.1-1.96,0.31c-0.66,0.21-1.35,0.55-2.07,1.03
		c-0.71,0.48-1.46,1.11-2.26,1.9s-1.64,1.77-2.53,2.94v14.27c0.94,0.39,1.92,0.7,2.96,0.92c1.04,0.22,2.05,0.34,3.05,0.34
		c2.75,0,4.91-0.93,6.47-2.8C239.39,325.95,240.17,323.14,240.17,319.39z"/>
	<path d="M278.84,319.45c0,2.29-0.32,4.38-0.97,6.28s-1.57,3.54-2.78,4.89c-1.21,1.36-2.69,2.41-4.42,3.16
		c-1.74,0.75-3.71,1.13-5.92,1.13c-2.11,0-4-0.33-5.67-0.98s-3.09-1.62-4.25-2.89c-1.16-1.27-2.05-2.84-2.67-4.72
		s-0.92-4.03-0.92-6.47c0-2.29,0.32-4.37,0.97-6.25s1.57-3.51,2.78-4.86c1.21-1.36,2.69-2.41,4.42-3.16
		c1.74-0.75,3.71-1.13,5.92-1.13c2.11,0,4,0.33,5.67,0.98s3.09,1.61,4.25,2.87c1.16,1.26,2.05,2.83,2.67,4.7
		S278.84,317.03,278.84,319.45z M273.63,319.68c0-1.82-0.2-3.4-0.6-4.76c-0.4-1.36-0.97-2.49-1.71-3.4
		c-0.74-0.91-1.65-1.59-2.71-2.05c-1.06-0.46-2.25-0.69-3.56-0.69c-1.52,0-2.83,0.3-3.91,0.89s-1.97,1.39-2.67,2.39
		c-0.69,1-1.2,2.15-1.52,3.47s-0.48,2.7-0.48,4.15c0,1.82,0.2,3.41,0.6,4.78c0.4,1.37,0.97,2.5,1.71,3.41
		c0.74,0.91,1.64,1.59,2.7,2.05s2.25,0.69,3.57,0.69c1.52,0,2.83-0.3,3.91-0.89s1.97-1.39,2.67-2.39c0.69-1,1.2-2.15,1.52-3.47
		S273.63,321.15,273.63,319.68z"/>
	<path d="M309.51,326.36c0,1.04-0.18,1.96-0.53,2.78s-0.83,1.55-1.44,2.18c-0.61,0.63-1.31,1.18-2.11,1.63
		c-0.8,0.45-1.66,0.82-2.56,1.11s-1.84,0.51-2.8,0.64c-0.96,0.14-1.89,0.21-2.81,0.21c-1.99,0-3.82-0.09-5.49-0.26
		s-3.31-0.46-4.91-0.85v-4.69c1.72,0.49,3.43,0.86,5.13,1.11s3.39,0.38,5.07,0.38c2.44,0,4.25-0.33,5.42-1s1.76-1.61,1.76-2.84
		c0-0.53-0.09-1-0.28-1.42c-0.19-0.42-0.52-0.82-1.01-1.2c-0.49-0.38-1.25-0.78-2.27-1.19s-2.43-0.88-4.2-1.41
		c-1.33-0.39-2.55-0.83-3.68-1.33c-1.12-0.5-2.09-1.09-2.92-1.77s-1.46-1.48-1.93-2.4s-0.7-2-0.7-3.25c0-0.82,0.19-1.72,0.57-2.7
		s1.03-1.88,1.95-2.72c0.92-0.84,2.16-1.54,3.72-2.09c1.56-0.56,3.52-0.83,5.86-0.83c1.15,0,2.43,0.06,3.84,0.19
		s2.87,0.35,4.39,0.66v4.54c-1.6-0.39-3.12-0.68-4.56-0.86s-2.68-0.28-3.74-0.28c-1.27,0-2.34,0.1-3.21,0.29
		c-0.87,0.2-1.57,0.46-2.11,0.81c-0.54,0.34-0.92,0.74-1.16,1.2s-0.35,0.95-0.35,1.48s0.1,1.01,0.31,1.44s0.59,0.84,1.14,1.25
		s1.33,0.8,2.33,1.2s2.29,0.83,3.9,1.3c1.74,0.51,3.2,1.04,4.39,1.6c1.19,0.56,2.16,1.18,2.9,1.86c0.74,0.68,1.27,1.46,1.6,2.31
		S309.51,325.27,309.51,326.36z"/>
	<path d="M330.78,325.16c0.66,0,1.29,0.13,1.89,0.38c0.6,0.25,1.11,0.61,1.55,1.05s0.79,0.97,1.04,1.57
		c0.25,0.6,0.38,1.24,0.38,1.92c0,0.66-0.13,1.29-0.38,1.88c-0.25,0.59-0.6,1.1-1.04,1.54s-0.96,0.79-1.55,1.04
		c-0.6,0.25-1.23,0.38-1.89,0.38c-0.68,0-1.32-0.13-1.9-0.38s-1.1-0.6-1.54-1.04s-0.79-0.95-1.04-1.54
		c-0.25-0.59-0.38-1.21-0.38-1.88c0-0.68,0.13-1.32,0.38-1.92c0.25-0.6,0.6-1.12,1.04-1.57s0.95-0.8,1.54-1.05
		S330.1,325.16,330.78,325.16z"/>
	<path d="M378.36,304.98l-10.02,26.31c-1.04,2.68-2.1,4.98-3.21,6.91c-1.1,1.93-2.31,3.52-3.62,4.76c-1.31,1.24-2.74,2.15-4.31,2.74
		c-1.56,0.59-3.31,0.88-5.24,0.88c-0.51,0-0.97-0.01-1.38-0.03s-0.86-0.05-1.35-0.09v-4.63c0.43,0.06,0.9,0.11,1.41,0.16
		c0.51,0.05,1.04,0.07,1.61,0.07c0.94,0,1.81-0.14,2.62-0.41c0.81-0.27,1.58-0.72,2.3-1.33c0.72-0.62,1.42-1.41,2.08-2.39
		c0.66-0.98,1.31-2.16,1.93-3.54l-11.75-29.41h5.8l7.44,19.45l1.49,4.57l1.7-4.69l6.88-19.34H378.36z"/>
	<path d="M402.8,346.69c-9-8.34-13.51-17.56-13.51-27.66c0-2.36,0.24-4.72,0.72-7.08c0.48-2.35,1.25-4.71,2.31-7.08
		c1.06-2.36,2.47-4.73,4.22-7.09c1.75-2.36,3.87-4.71,6.37-7.03l2.96,3.02c-7.58,7.48-11.37,15.77-11.37,24.87
		c0,4.53,0.96,8.89,2.87,13.07c1.91,4.18,4.75,8.12,8.5,11.84L402.8,346.69z"/>
	<path d="M424.18,290.77c9,8.34,13.51,17.62,13.51,27.83c0,2.11-0.22,4.3-0.64,6.56c-0.43,2.27-1.16,4.58-2.2,6.96
		c-1.04,2.37-2.43,4.78-4.17,7.22c-1.75,2.44-3.95,4.89-6.61,7.35l-2.96-3.02c3.81-3.77,6.65-7.71,8.53-11.81s2.81-8.4,2.81-12.89
		c0-9.3-3.78-17.66-11.34-25.08L424.18,290.77z"/>
</g>
<rect x="593.14" y="393.02" class="st7" width="105.57" height="104.74"/>
<rect x="698.71" y="393.02" class="st8" width="105.57" height="104.74"/>
<rect x="804.29" y="393.02" class="st8" width="105.57" height="104.74"/>
<rect x="909.86" y="393.02" class="st7" width="105.57" height="104.74"/>
<rect x="1015.11" y="393.02" class="st7" width="105.57" height="104.74"/>
<rect x="1120.69" y="393.02" class="st8" width="105.57" height="104.74"/>
<rect x="1226.26" y="393.02" class="st7" width="105.57" height="104.74"/>
<rect x="1331.83" y="393.02" class="st7" width="105.57" height="104.74"/>
<rect x="2231.55" y="10.53" class="st9" width="105.57" height="104.74"/>
<rect x="2231.55" y="138.03" class="st9" width="105.57" height="104.74"/>
<rect x="2231.55" y="265.52" class="st9" width="105.57" height="104.74"/>
<rect x="2231.55" y="393.02" class="st9" width="105.57" height="104.74"/>
<rect x="2337.12" y="10.53" class="st9" width="105.57" height="104.74"/>
<rect x="2337.12" y="138.03" class="st9" width="105.57" height="104.74"/>
<rect x="2337.12" y="265.52" class="st9" width="105.57" height="104.74"/>
<rect x="2337.12" y="393.02" class="st9" width="105.57" height="104.74"/>
<rect x="2442.69" y="10.53" class="st9" width="105.57" height="104.74"/>
<rect x="2442.69" y="138.03" class="st9" width="105.57" height="104.74"/>
<rect x="2442.69" y="265.52" class="st9" width="105.57" height="104.74"/>
<rect x="2442.69" y="393.02" class="st9" width="105.57" height="104.74"/>
<rect x="2548.27" y="10.53" class="st9" width="105.57" height="104.74"/>
<rect x="2548.27" y="138.03" class="st9" width="105.57" height="104.74"/>
<rect x="2548.27" y="265.52" class="st9" width="105.57" height="104.74"/>
<rect x="2548.27" y="393.02" class="st9" width="105.57" height="104.74"/>
<rect x="2653.84" y="10.53" class="st9" width="105.57" height="104.74"/>
<rect x="2653.84" y="138.03" class="st9" width="105.57" height="104.74"/>
<rect x="2653.84" y="265.52" class="st9" width="105.57" height="104.74"/>
<rect x="2653.84" y="393.02" class="st9" width="105.57" height="104.74"/>
<rect x="593.14" y="525.96" class="st10" width="105.57" height="104.74"/>
<rect x="698.71" y="525.96" class="st11" width="105.57" height="104.74"/>
<rect x="804.29" y="525.96" class="st11" width="105.57" height="104.74"/>
<rect x="909.86" y="525.96" class="st10" width="105.57" height="104.74"/>
<rect x="1015.11" y="525.96" class="st10" width="105.57" height="104.74"/>
<rect x="1120.69" y="525.96" class="st11" width="105.57" height="104.74"/>
<rect x="1226.26" y="525.96" class="st10" width="105.57" height="104.74"/>
<rect x="1331.83" y="525.96" class="st10" width="105.57" height="104.74"/>
<g class="st2">
	<path d="M45.17,460.8c-1.33,0.51-2.69,0.88-4.09,1.13c-1.4,0.24-2.84,0.37-4.32,0.37c-4.65,0-8.23-1.26-10.74-3.78
		c-2.51-2.52-3.76-6.2-3.76-11.04c0-2.32,0.36-4.43,1.08-6.33c0.72-1.89,1.74-3.52,3.05-4.86c1.31-1.35,2.87-2.39,4.69-3.12
		s3.82-1.1,6.01-1.1c1.52,0,2.95,0.11,4.28,0.32c1.33,0.21,2.6,0.57,3.81,1.05v4.86c-1.27-0.66-2.56-1.15-3.88-1.45
		s-2.68-0.45-4.09-0.45c-1.31,0-2.54,0.25-3.71,0.75c-1.16,0.5-2.18,1.22-3.06,2.15s-1.57,2.08-2.08,3.43
		c-0.51,1.35-0.76,2.87-0.76,4.57c0,3.55,0.86,6.22,2.59,7.98s4.13,2.65,7.19,2.65c1.39,0,2.73-0.16,4.03-0.47
		c1.3-0.31,2.55-0.78,3.76-1.41V460.8z"/>
	<path d="M80.91,446.94c0,2.29-0.32,4.38-0.97,6.28s-1.57,3.54-2.78,4.89c-1.21,1.36-2.69,2.41-4.42,3.16
		c-1.74,0.75-3.71,1.13-5.92,1.13c-2.11,0-4-0.33-5.67-0.98s-3.09-1.62-4.25-2.89c-1.16-1.27-2.05-2.84-2.67-4.72
		s-0.92-4.03-0.92-6.47c0-2.29,0.32-4.37,0.97-6.25s1.57-3.51,2.78-4.86c1.21-1.36,2.69-2.41,4.42-3.16
		c1.74-0.75,3.71-1.13,5.92-1.13c2.11,0,4,0.33,5.67,0.98s3.09,1.61,4.25,2.87c1.16,1.26,2.05,2.83,2.67,4.7
		S80.91,444.52,80.91,446.94z M75.7,447.17c0-1.82-0.2-3.4-0.6-4.76c-0.4-1.36-0.97-2.49-1.71-3.4c-0.74-0.91-1.65-1.59-2.71-2.05
		c-1.06-0.46-2.25-0.69-3.56-0.69c-1.52,0-2.83,0.3-3.91,0.89s-1.97,1.39-2.67,2.39c-0.69,1-1.2,2.15-1.52,3.47s-0.48,2.7-0.48,4.15
		c0,1.82,0.2,3.41,0.6,4.78c0.4,1.37,0.97,2.5,1.71,3.41c0.74,0.91,1.64,1.59,2.7,2.05s2.25,0.69,3.57,0.69
		c1.52,0,2.83-0.3,3.91-0.89s1.97-1.39,2.67-2.39c0.69-1,1.2-2.15,1.52-3.47S75.7,448.64,75.7,447.17z"/>
	<path d="M113.9,446.94c0,2.29-0.32,4.38-0.97,6.28s-1.57,3.54-2.78,4.89c-1.21,1.36-2.69,2.41-4.42,3.16
		c-1.74,0.75-3.71,1.13-5.92,1.13c-2.11,0-4-0.33-5.67-0.98s-3.09-1.62-4.25-2.89c-1.16-1.27-2.05-2.84-2.67-4.72
		s-0.92-4.03-0.92-6.47c0-2.29,0.32-4.37,0.97-6.25s1.57-3.51,2.78-4.86c1.21-1.36,2.69-2.41,4.42-3.16
		c1.74-0.75,3.71-1.13,5.92-1.13c2.11,0,4,0.33,5.67,0.98s3.09,1.61,4.25,2.87c1.16,1.26,2.05,2.83,2.67,4.7
		S113.9,444.52,113.9,446.94z M108.68,447.17c0-1.82-0.2-3.4-0.6-4.76c-0.4-1.36-0.97-2.49-1.71-3.4c-0.74-0.91-1.65-1.59-2.71-2.05
		c-1.06-0.46-2.25-0.69-3.56-0.69c-1.52,0-2.83,0.3-3.91,0.89s-1.97,1.39-2.67,2.39c-0.69,1-1.2,2.15-1.52,3.47s-0.48,2.7-0.48,4.15
		c0,1.82,0.2,3.41,0.6,4.78c0.4,1.37,0.97,2.5,1.71,3.41c0.74,0.91,1.64,1.59,2.7,2.05s2.25,0.69,3.57,0.69
		c1.52,0,2.83-0.3,3.91-0.89s1.97-1.39,2.67-2.39c0.69-1,1.2-2.15,1.52-3.47S108.68,448.64,108.68,447.17z"/>
	<path d="M122.48,432.47h4.66l0.15,5.42c1.74-2.09,3.45-3.6,5.14-4.54c1.69-0.94,3.39-1.41,5.11-1.41c3.05,0,5.36,0.99,6.93,2.96
		c1.57,1.97,2.3,4.9,2.18,8.79h-5.16c0.06-2.58-0.32-4.45-1.13-5.61c-0.81-1.16-2-1.74-3.56-1.74c-0.68,0-1.37,0.12-2.07,0.37
		c-0.69,0.24-1.41,0.63-2.14,1.17s-1.51,1.23-2.33,2.07s-1.7,1.86-2.64,3.05v18.9h-5.16V432.47z"/>
	<path d="M152.78,447.79c0-2.5,0.34-4.72,1.03-6.67c0.68-1.94,1.66-3.58,2.92-4.92s2.77-2.35,4.54-3.05
		c1.77-0.69,3.74-1.04,5.9-1.04c0.94,0,1.86,0.06,2.77,0.18s1.8,0.3,2.68,0.56v-12.36h5.13v41.4h-4.57l-0.18-5.57
		c-1.43,2.07-2.97,3.6-4.63,4.6c-1.66,1-3.46,1.49-5.39,1.49c-1.68,0-3.16-0.35-4.44-1.05c-1.28-0.7-2.34-1.69-3.19-2.97
		s-1.49-2.82-1.92-4.61C152.99,451.97,152.78,449.98,152.78,447.79z M157.99,447.47c0,3.55,0.52,6.21,1.57,7.95
		c1.04,1.75,2.52,2.62,4.44,2.62c1.29,0,2.65-0.58,4.09-1.73s2.94-2.86,4.53-5.13v-13.65c-0.84-0.39-1.77-0.69-2.78-0.89
		c-1.02-0.21-2.02-0.31-3.02-0.31c-2.77,0-4.94,0.9-6.49,2.7S157.99,443.64,157.99,447.47z"/>
	<path d="M198.83,452.65c0.66,0,1.29,0.13,1.89,0.38c0.6,0.25,1.11,0.61,1.55,1.05s0.79,0.97,1.04,1.57
		c0.25,0.6,0.38,1.24,0.38,1.92c0,0.66-0.13,1.29-0.38,1.88c-0.25,0.59-0.6,1.1-1.04,1.54s-0.96,0.79-1.55,1.04
		c-0.6,0.25-1.23,0.38-1.89,0.38c-0.68,0-1.32-0.13-1.9-0.38s-1.1-0.6-1.54-1.04s-0.79-0.95-1.04-1.54
		c-0.25-0.59-0.38-1.21-0.38-1.88c0-0.68,0.13-1.32,0.38-1.92c0.25-0.6,0.6-1.12,1.04-1.57s0.95-0.8,1.54-1.05
		S198.15,452.65,198.83,452.65z"/>
	<path d="M217.49,432.47h5.8l7.21,19.45l1.55,4.75l1.61-4.86l7.15-19.34h5.6l-11.54,29.41h-5.86L217.49,432.47z"/>
	<path d="M272.13,461.88l-0.12-3.96c-1.6,1.58-3.23,2.72-4.88,3.43c-1.65,0.7-3.38,1.05-5.2,1.05c-1.68,0-3.12-0.21-4.31-0.64
		c-1.19-0.43-2.17-1.02-2.94-1.77c-0.77-0.75-1.34-1.64-1.7-2.65c-0.36-1.02-0.54-2.12-0.54-3.31c0-2.95,1.1-5.26,3.3-6.93
		s5.44-2.5,9.74-2.5h6.09v-2.58c0-1.74-0.56-3.13-1.67-4.17s-2.81-1.57-5.1-1.57c-1.66,0-3.3,0.19-4.91,0.56s-3.28,0.9-5,1.58v-4.6
		c0.64-0.23,1.36-0.46,2.15-0.69s1.63-0.42,2.5-0.6s1.8-0.32,2.75-0.42c0.96-0.11,1.92-0.16,2.9-0.16c1.78,0,3.38,0.2,4.8,0.59
		c1.43,0.39,2.63,0.99,3.62,1.79c0.99,0.8,1.74,1.81,2.27,3.02s0.79,2.64,0.79,4.28v20.27H272.13z M271.58,448.49h-6.47
		c-1.27,0-2.36,0.13-3.28,0.38c-0.92,0.25-1.67,0.62-2.26,1.08s-1.02,1.03-1.3,1.68c-0.28,0.65-0.42,1.39-0.42,2.21
		c0,0.57,0.09,1.11,0.26,1.63s0.46,0.98,0.85,1.38c0.39,0.4,0.9,0.72,1.52,0.95c0.62,0.23,1.39,0.35,2.29,0.35
		c1.17,0,2.51-0.36,4.03-1.07c1.51-0.71,3.11-1.84,4.79-3.38V448.49z"/>
	<path d="M296.24,424.67h-8.7v-4.19h13.86v37.15h8.76v4.25h-23.58v-4.25h9.67V424.67z"/>
	<path d="M329.23,436.68h-8.7v-4.22h13.86v25.17h8.76v4.25h-23.58v-4.25h9.67V436.68z M331.02,420.13c0.57,0,1.09,0.1,1.58,0.31
		c0.49,0.21,0.91,0.49,1.27,0.86c0.36,0.37,0.64,0.8,0.85,1.27s0.31,1,0.31,1.57c0,0.55-0.1,1.06-0.31,1.55s-0.49,0.92-0.85,1.29
		c-0.36,0.37-0.79,0.66-1.27,0.86c-0.49,0.21-1.02,0.31-1.58,0.31c-0.57,0-1.09-0.1-1.58-0.31c-0.49-0.21-0.91-0.49-1.27-0.86
		c-0.36-0.37-0.64-0.8-0.85-1.29s-0.31-1.01-0.31-1.55c0-0.57,0.1-1.09,0.31-1.57s0.49-0.9,0.85-1.27c0.36-0.37,0.79-0.66,1.27-0.86
		C329.92,420.23,330.45,420.13,331.02,420.13z"/>
	<path d="M350.71,447.79c0-2.5,0.34-4.72,1.03-6.67c0.68-1.94,1.66-3.58,2.92-4.92s2.77-2.35,4.54-3.05
		c1.77-0.69,3.74-1.04,5.9-1.04c0.94,0,1.86,0.06,2.77,0.18s1.8,0.3,2.68,0.56v-12.36h5.13v41.4h-4.57l-0.18-5.57
		c-1.43,2.07-2.97,3.6-4.63,4.6c-1.66,1-3.46,1.49-5.39,1.49c-1.68,0-3.16-0.35-4.44-1.05c-1.28-0.7-2.34-1.69-3.19-2.97
		s-1.49-2.82-1.92-4.61C350.92,451.97,350.71,449.98,350.71,447.79z M355.92,447.47c0,3.55,0.52,6.21,1.57,7.95
		c1.04,1.75,2.52,2.62,4.44,2.62c1.29,0,2.65-0.58,4.09-1.73s2.94-2.86,4.53-5.13v-13.65c-0.84-0.39-1.77-0.69-2.78-0.89
		c-1.02-0.21-2.02-0.31-3.02-0.31c-2.77,0-4.94,0.9-6.49,2.7S355.92,443.64,355.92,447.47z"/>
</g>
<g class="st2">
	<path d="M2261.37,722.17c0,2.62-0.37,4.9-1.1,6.86s-1.74,3.57-3.03,4.86s-2.81,2.26-4.57,2.9s-3.66,0.97-5.71,0.97
		c-0.94,0-1.87-0.05-2.8-0.15s-1.87-0.26-2.83-0.5v12.3h-5.1v-41.43h4.54l0.32,4.92c1.46-2.01,3.03-3.42,4.69-4.23
		s3.46-1.22,5.39-1.22c1.68,0,3.15,0.35,4.42,1.05s2.33,1.69,3.19,2.97s1.5,2.82,1.93,4.63S2261.37,719.94,2261.37,722.17z
		 M2256.16,722.4c0-1.54-0.11-2.96-0.34-4.25s-0.58-2.39-1.07-3.31s-1.11-1.64-1.88-2.15s-1.67-0.78-2.72-0.78
		c-0.64,0-1.3,0.1-1.96,0.31s-1.35,0.55-2.07,1.03s-1.46,1.11-2.26,1.9s-1.64,1.77-2.53,2.94v14.27c0.94,0.39,1.92,0.7,2.96,0.92
		s2.05,0.34,3.05,0.34c2.75,0,4.91-0.93,6.47-2.8S2256.16,726.15,2256.16,722.4z"/>
	<path d="M2292.93,736.99c-1.15,0.29-2.34,0.5-3.57,0.63s-2.48,0.19-3.75,0.19c-3.69,0-6.45-0.83-8.26-2.5s-2.72-4.23-2.72-7.69
		v-15.35h-8.23v-4.28h8.23v-8.09l5.1-1.32v9.4h13.21v4.28h-13.21v14.94c0,2.11,0.56,3.69,1.68,4.73s2.78,1.57,4.97,1.57
		c0.94,0,1.96-0.07,3.08-0.22s2.28-0.38,3.49-0.69V736.99z"/>
	<path d="M2303.42,707.99h4.66l0.15,5.42c1.74-2.09,3.45-3.6,5.14-4.54s3.39-1.41,5.11-1.41c3.05,0,5.36,0.99,6.93,2.96
		s2.3,4.9,2.18,8.79h-5.16c0.06-2.58-0.32-4.45-1.13-5.61s-2-1.74-3.56-1.74c-0.68,0-1.37,0.12-2.07,0.37s-1.41,0.63-2.14,1.17
		s-1.51,1.23-2.33,2.07s-1.7,1.86-2.64,3.05v18.9h-5.16V707.99z"/>
</g>
<g class="st2">
	<path d="M43.29,595.88v-21.12c0-0.92-0.03-1.67-0.1-2.26c-0.07-0.59-0.18-1.05-0.32-1.39s-0.33-0.58-0.56-0.72
		c-0.22-0.14-0.5-0.21-0.83-0.21c-0.39,0-0.75,0.12-1.08,0.35c-0.33,0.23-0.69,0.62-1.07,1.14s-0.8,1.23-1.26,2.09
		c-0.46,0.87-1,1.94-1.63,3.21v18.9h-4.66v-20.57c0-1.07-0.03-1.94-0.1-2.61c-0.07-0.66-0.18-1.18-0.32-1.55s-0.34-0.62-0.57-0.76
		s-0.52-0.21-0.85-0.21c-0.35,0-0.68,0.1-1,0.29c-0.31,0.2-0.66,0.55-1.04,1.05s-0.81,1.2-1.27,2.08s-1.03,2-1.67,3.37v18.9h-4.69
		v-29.41h3.9l0.23,5.6c0.51-1.11,1-2.06,1.48-2.84c0.48-0.78,0.97-1.41,1.48-1.89c0.51-0.48,1.05-0.83,1.63-1.05
		c0.58-0.22,1.22-0.34,1.92-0.34c1.58,0,2.78,0.52,3.6,1.55s1.23,2.64,1.23,4.8c0.47-1.02,0.93-1.92,1.38-2.71
		c0.45-0.79,0.93-1.46,1.45-1.99c0.52-0.54,1.09-0.95,1.71-1.23c0.62-0.28,1.35-0.42,2.17-0.42c3.69,0,5.54,2.84,5.54,8.53v21.42
		H43.29z"/>
	<path d="M74.2,595.88l-0.12-3.96c-1.6,1.58-3.23,2.72-4.88,3.43c-1.65,0.7-3.38,1.05-5.2,1.05c-1.68,0-3.12-0.21-4.31-0.64
		c-1.19-0.43-2.17-1.02-2.94-1.77c-0.77-0.75-1.34-1.64-1.7-2.65c-0.36-1.02-0.54-2.12-0.54-3.31c0-2.95,1.1-5.26,3.3-6.93
		s5.44-2.5,9.74-2.5h6.09v-2.58c0-1.74-0.56-3.13-1.67-4.17s-2.81-1.57-5.1-1.57c-1.66,0-3.3,0.19-4.91,0.56s-3.28,0.9-5,1.58v-4.6
		c0.64-0.23,1.36-0.46,2.15-0.69s1.63-0.42,2.5-0.6s1.8-0.32,2.75-0.42c0.96-0.11,1.92-0.16,2.9-0.16c1.78,0,3.38,0.2,4.8,0.59
		c1.43,0.39,2.63,0.99,3.62,1.79c0.99,0.8,1.74,1.81,2.27,3.02s0.79,2.64,0.79,4.28v20.27H74.2z M73.65,582.49h-6.47
		c-1.27,0-2.36,0.13-3.28,0.38c-0.92,0.25-1.67,0.62-2.26,1.08s-1.02,1.03-1.3,1.68c-0.28,0.65-0.42,1.39-0.42,2.21
		c0,0.57,0.09,1.11,0.26,1.63s0.46,0.98,0.85,1.38c0.39,0.4,0.9,0.72,1.52,0.95c0.62,0.23,1.39,0.35,2.29,0.35
		c1.17,0,2.51-0.36,4.03-1.07c1.51-0.71,3.11-1.84,4.79-3.38V582.49z"/>
	<path d="M111.58,587.85c0,1.04-0.18,1.96-0.53,2.78s-0.83,1.55-1.44,2.18c-0.61,0.63-1.31,1.18-2.11,1.63
		c-0.8,0.45-1.66,0.82-2.56,1.11s-1.84,0.51-2.8,0.64c-0.96,0.14-1.89,0.21-2.81,0.21c-1.99,0-3.82-0.09-5.49-0.26
		s-3.31-0.46-4.91-0.85v-4.69c1.72,0.49,3.43,0.86,5.13,1.11s3.39,0.38,5.07,0.38c2.44,0,4.25-0.33,5.42-1s1.76-1.61,1.76-2.84
		c0-0.53-0.09-1-0.28-1.42c-0.19-0.42-0.52-0.82-1.01-1.2c-0.49-0.38-1.25-0.78-2.27-1.19s-2.43-0.88-4.2-1.41
		c-1.33-0.39-2.55-0.83-3.68-1.33c-1.12-0.5-2.09-1.09-2.92-1.77s-1.46-1.48-1.93-2.4s-0.7-2-0.7-3.25c0-0.82,0.19-1.72,0.57-2.7
		s1.03-1.88,1.95-2.72c0.92-0.84,2.16-1.54,3.72-2.09c1.56-0.56,3.52-0.83,5.86-0.83c1.15,0,2.43,0.06,3.84,0.19
		s2.87,0.35,4.39,0.66v4.54c-1.6-0.39-3.12-0.68-4.56-0.86s-2.68-0.28-3.74-0.28c-1.27,0-2.34,0.1-3.21,0.29
		c-0.87,0.2-1.57,0.46-2.11,0.81c-0.54,0.34-0.92,0.74-1.16,1.2s-0.35,0.95-0.35,1.48s0.1,1.01,0.31,1.44s0.59,0.84,1.14,1.25
		s1.33,0.8,2.33,1.2s2.29,0.83,3.9,1.3c1.74,0.51,3.2,1.04,4.39,1.6c1.19,0.56,2.16,1.18,2.9,1.86c0.74,0.68,1.27,1.46,1.6,2.31
		S111.58,586.76,111.58,587.85z"/>
	<path d="M147.74,595.88h-7l-13.71-15.76v15.76h-5.1v-41.4h5.1v25.43l13.21-13.45h6.74l-13.8,13.56L147.74,595.88z"/>
</g>
<path class="st12" d="M727,567c5.82,0.7,7,4.34,7.37,8.51c1.33,14.46,7.11,9.13,13.22,3c8.83-8.79,17.61-17.62,26.69-26.14
	c2.62-2.46,6.08-6.73,10-2.89c3.13,3.1,1.7,7.81-1,10.88c-14.15,16.2-28.76,32-45,46.13c-3.75,3.26-7.92,4.06-12.53,1.69
	c-9.25-4.75-12.13-31.57-4-38.36C723.42,568.47,725.63,567.74,727,567z"/>
<rect x="1914.83" y="10.53" class="st1" width="105.57" height="104.74"/>
<rect x="1914.83" y="138.03" class="st4" width="105.57" height="104.74"/>
<rect x="1914.83" y="265.52" class="st6" width="105.57" height="104.74"/>
<rect x="1914.83" y="393.02" class="st8" width="105.57" height="104.74"/>
<rect x="2020.4" y="10.53" class="st1" width="105.57" height="104.74"/>
<rect x="2020.4" y="138.03" class="st4" width="105.57" height="104.74"/>
<rect x="2020.4" y="265.52" class="st6" width="105.57" height="104.74"/>
<rect x="2020.4" y="393.02" class="st8" width="105.57" height="104.74"/>
<rect x="2125.97" y="10.53" class="st1" width="105.57" height="104.74"/>
<rect x="2125.97" y="138.03" class="st4" width="105.57" height="104.74"/>
<rect x="2125.97" y="265.52" class="st6" width="105.57" height="104.74"/>
<rect x="2125.97" y="393.02" class="st8" width="105.57" height="104.74"/>
<path class="st12" d="M832.53,567c5.82,0.7,7,4.34,7.37,8.51c1.33,14.46,7.11,9.13,13.22,3c8.83-8.79,17.61-17.62,26.69-26.14
	c2.62-2.46,6.08-6.73,10-2.89c3.13,3.1,1.7,7.81-1,10.88c-14.15,16.2-28.76,32-45,46.13c-3.75,3.26-7.92,4.06-12.53,1.69
	c-9.25-4.75-12.13-31.57-4-38.36C828.92,568.47,831.13,567.74,832.53,567z"/>
<path class="st12" d="M1150.43,567c5.82,0.7,7,4.34,7.37,8.51c1.33,14.46,7.11,9.13,13.22,3c8.83-8.79,17.61-17.62,26.69-26.14
	c2.62-2.46,6.08-6.73,10-2.89c3.13,3.1,1.7,7.81-1,10.88c-14.15,16.2-28.76,32-45,46.13c-3.75,3.26-7.92,4.06-12.53,1.69
	c-9.25-4.75-12.13-31.57-4-38.36C1146.83,568.47,1149,567.74,1150.43,567z"/>
<path class="st13" d="M619.92,542.91c9.34-6.81,10.64,23.56,23.72,23.56c11.77,0,26-38.27,34.79-26.83s-28.11,31.38-28.11,40.2
	s32.74,17.29,17.08,30c-11.14,9-16.45-15-24.27-15.59c-8.83-0.65-18,31.05-27.13,23.86c-15-11.76,17.65-23.88,17.32-37.26
	C633,569.66,607.82,551.73,619.92,542.91z"/>
<path class="st13" d="M937.32,542.91c9.34-6.81,10.64,23.56,23.72,23.56c11.77,0,26-38.27,34.79-26.83s-28.11,31.38-28.11,40.2
	s32.74,17.29,17.08,30c-11.14,9-16.45-15-24.27-15.59c-8.83-0.65-18,31.05-27.13,23.86c-15-11.76,17.65-23.88,17.32-37.26
	C950.45,569.66,925.22,551.73,937.32,542.91z"/>
<path class="st13" d="M1041.89,542.91c9.34-6.81,10.64,23.56,23.72,23.56c11.77,0,26-38.27,34.79-26.83s-28.11,31.38-28.11,40.2
	s32.74,17.29,17.08,30c-11.14,9-16.45-15-24.27-15.59c-8.83-0.65-18,31.05-27.13,23.86c-15-11.76,17.65-23.88,17.32-37.26
	C1055,569.66,1029.8,551.73,1041.89,542.91z"/>
<path class="st13" d="M1253,542.91c9.34-6.81,10.64,23.56,23.72,23.56c11.77,0,26-38.27,34.79-26.83s-28.11,31.38-28.11,40.2
	s32.74,17.29,17.08,30c-11.14,9-16.45-15-24.27-15.59c-8.83-0.65-18,31.05-27.13,23.86c-15-11.76,17.65-23.88,17.32-37.26
	C1266.17,569.66,1240.95,551.73,1253,542.91z"/>
<path class="st13" d="M1358.61,542.91c9.34-6.81,10.64,23.56,23.72,23.56c11.77,0,26-38.27,34.79-26.83S1389,571,1389,579.84
	s32.74,17.29,17.08,30c-11.14,9-16.45-15-24.27-15.59c-8.83-0.65-18,31.05-27.13,23.86c-15-11.76,17.65-23.88,17.32-37.26
	C1371.74,569.66,1346.52,551.73,1358.61,542.91z"/>
<line class="st14" x1="1482.92" y1="254.7" x2="1668.77" y2="254.7"/>
<polygon class="st15" points="1622.82,411.76 1894.83,254.7 1622.82,97.63 "/>
<line class="st16" x1="2284.33" y1="640.36" x2="2284.33" y2="590.3"/>
<polygon points="2334.2,604.89 2284.33,518.53 2234.47,604.89 "/>
</svg>
