<?xml version="1.0" encoding="utf-8"?>
<!-- Generator: Adobe Illustrator 23.0.6, SVG Export Plug-In . SVG Version: 6.00 Build 0)  -->
<svg version="1.1" id="Layer_1" xmlns="http://www.w3.org/2000/svg" xmlns:xlink="http://www.w3.org/1999/xlink" x="0px" y="0px"
	 viewBox="0 0 284 50" style="enable-background:new 0 0 284 50;" xml:space="preserve">
<style type="text/css">
	.st0{fill:#FFFFFF;}
	.st1{fill:#FA8072;stroke:#000000;}
	.st2{enable-background:new    ;}
	.st3{fill:#6495ED;stroke:#000000;}
	.st4{fill:none;stroke:#000000;}
	.st5{stroke:#000000;}
</style>
<g id="graph0" transform="scale(1 1) rotate(0) translate(4 45.7852)">
	<title>%3</title>
	<polygon class="st0" points="-4,4.12 -4,-45.7 280,-45.7 280,4.12 	"/>
	<g id="node1">
		<title>1</title>
		<polygon class="st1" points="0,-0.38 0,-41.19 116.14,-41.19 116.14,-0.38 		"/>
		<g class="st2">
			<path d="M35.75-35.65l-0.2,3.21h-1.18l-0.19-3.21H35.75z"/>
			<path d="M44.32-25.98l-0.03-0.92c-0.37,0.37-0.75,0.64-1.14,0.8s-0.79,0.25-1.21,0.25c-0.39,0-0.73-0.05-1.01-0.15
				c-0.28-0.1-0.51-0.24-0.69-0.41c-0.18-0.18-0.31-0.38-0.4-0.62c-0.08-0.24-0.13-0.5-0.13-0.77c0-0.69,0.26-1.23,0.77-1.62
				c0.51-0.39,1.27-0.58,2.27-0.58h1.42v-0.6c0-0.41-0.13-0.73-0.39-0.97c-0.26-0.24-0.66-0.37-1.19-0.37
				c-0.39,0-0.77,0.04-1.15,0.13c-0.38,0.09-0.77,0.21-1.17,0.37v-1.07c0.15-0.05,0.32-0.11,0.5-0.16c0.19-0.05,0.38-0.1,0.58-0.14
				s0.42-0.07,0.64-0.1c0.22-0.02,0.45-0.04,0.68-0.04c0.41,0,0.79,0.05,1.12,0.14s0.61,0.23,0.84,0.42s0.41,0.42,0.53,0.7
				s0.18,0.62,0.18,1v4.73H44.32z M44.19-29.11h-1.51c-0.3,0-0.55,0.03-0.77,0.09c-0.21,0.06-0.39,0.14-0.53,0.25
				c-0.14,0.11-0.24,0.24-0.3,0.39c-0.07,0.15-0.1,0.32-0.1,0.52c0,0.13,0.02,0.26,0.06,0.38c0.04,0.12,0.11,0.23,0.2,0.32
				c0.09,0.09,0.21,0.17,0.36,0.22s0.32,0.08,0.53,0.08c0.27,0,0.59-0.08,0.94-0.25s0.73-0.43,1.12-0.79V-29.11z"/>
			<path d="M51.15-35.65l-0.2,3.21h-1.18l-0.19-3.21H51.15z"/>
			<path d="M67.65-23.18h-3.37v-12.71h3.37v0.96h-2.24v10.79h2.24V-23.18z"/>
			<path d="M76.15-27.86c0,0.24-0.04,0.46-0.12,0.65c-0.08,0.19-0.19,0.36-0.34,0.51c-0.14,0.15-0.31,0.27-0.49,0.38
				s-0.39,0.19-0.6,0.26s-0.43,0.12-0.65,0.15c-0.22,0.03-0.44,0.05-0.66,0.05c-0.47,0-0.89-0.02-1.28-0.06
				c-0.39-0.04-0.77-0.11-1.15-0.2v-1.09c0.4,0.11,0.8,0.2,1.2,0.26s0.79,0.09,1.18,0.09c0.57,0,0.99-0.08,1.27-0.23
				c0.27-0.16,0.41-0.38,0.41-0.66c0-0.12-0.02-0.23-0.06-0.33c-0.04-0.1-0.12-0.19-0.24-0.28s-0.29-0.18-0.53-0.28
				c-0.24-0.1-0.57-0.21-0.98-0.33c-0.31-0.09-0.6-0.19-0.86-0.31s-0.49-0.25-0.68-0.41c-0.19-0.16-0.34-0.35-0.45-0.56
				s-0.16-0.47-0.16-0.76c0-0.19,0.04-0.4,0.13-0.63s0.24-0.44,0.45-0.64c0.21-0.2,0.5-0.36,0.87-0.49s0.82-0.2,1.37-0.2
				c0.27,0,0.57,0.02,0.9,0.04c0.33,0.03,0.67,0.08,1.03,0.15v1.06c-0.37-0.09-0.73-0.16-1.06-0.2c-0.33-0.04-0.63-0.06-0.87-0.06
				c-0.3,0-0.55,0.02-0.75,0.07c-0.2,0.05-0.37,0.11-0.49,0.19c-0.13,0.08-0.22,0.17-0.27,0.28c-0.05,0.11-0.08,0.22-0.08,0.35
				s0.02,0.23,0.07,0.33c0.05,0.1,0.14,0.2,0.27,0.29c0.13,0.09,0.31,0.19,0.54,0.28s0.54,0.19,0.91,0.3
				c0.41,0.12,0.75,0.24,1.03,0.37c0.28,0.13,0.5,0.27,0.68,0.43s0.3,0.34,0.37,0.54S76.15-28.11,76.15-27.86z"/>
			<path d="M82.67-23.18h-3.37v-0.96h2.22v-10.79h-2.22v-0.96h3.37V-23.18z"/>
		</g>
		<g class="st2">
			<path d="M15.05-12.09h-1.53l-0.25,2.51h-1.01l0.25-2.51h-1.74l-0.25,2.51H9.5l0.25-2.51H8.3v-0.89h1.55l0.25-2.39H8.65v-0.89
				h1.53l0.23-2.26h1l-0.23,2.26h1.75l0.23-2.26h1.01l-0.24,2.26h1.47v0.89h-1.56l-0.24,2.39h1.44V-12.09z M12.61-12.98l0.24-2.39
				H11.1l-0.24,2.39H12.61z"/>
			<path d="M22.53-9.58h-5.62v-1.11h2.3v-6.53l-2.14,1.16l-0.44-1.01l2.85-1.5h1.05v7.87h2V-9.58z"/>
			<path d="M36.84-6.78h-3.37v-12.71h3.37v0.96h-2.24v10.79h2.24V-6.78z"/>
			<path d="M45.27-9.58h-5.08v-8.94h5.08v1.03h-3.86v2.77h3.71v1.03h-3.71v3.08h3.86V-9.58z"/>
			<path d="M53.13-19.25L48.44-8.11H47.3L52-19.25H53.13z"/>
			<path d="M57.45-17.5h-2.06v-1.03h5.35v1.03h-2.06v6.87h2.06v1.04h-5.35v-1.04h2.06V-17.5z"/>
			<path d="M65.77-16.57c0.14,0,0.28,0.03,0.4,0.09c0.13,0.06,0.24,0.13,0.34,0.23s0.17,0.21,0.23,0.33
				c0.06,0.13,0.09,0.26,0.09,0.4c0,0.15-0.03,0.28-0.09,0.41s-0.13,0.24-0.23,0.33s-0.21,0.17-0.34,0.23
				c-0.13,0.05-0.26,0.08-0.4,0.08c-0.15,0-0.28-0.03-0.41-0.08s-0.24-0.13-0.33-0.23s-0.17-0.21-0.23-0.33
				c-0.06-0.12-0.08-0.26-0.08-0.41c0-0.14,0.03-0.28,0.08-0.4c0.05-0.13,0.13-0.24,0.23-0.33s0.21-0.17,0.33-0.23
				S65.62-16.57,65.77-16.57z M65.77-11.56c0.14,0,0.28,0.03,0.4,0.08c0.13,0.06,0.24,0.13,0.34,0.23s0.17,0.21,0.23,0.33
				c0.06,0.13,0.09,0.26,0.09,0.4c0,0.15-0.03,0.28-0.09,0.41s-0.13,0.24-0.23,0.33s-0.21,0.17-0.34,0.23
				c-0.13,0.05-0.26,0.08-0.4,0.08c-0.15,0-0.28-0.03-0.41-0.08s-0.24-0.13-0.33-0.23s-0.17-0.21-0.23-0.33
				c-0.06-0.12-0.08-0.26-0.08-0.41c0-0.14,0.03-0.28,0.08-0.4c0.05-0.13,0.13-0.24,0.23-0.33s0.21-0.17,0.33-0.23
				C65.49-11.53,65.62-11.56,65.77-11.56z"/>
			<path d="M84.14-9.58h-5.62v-1.11h2.3v-6.53l-2.14,1.16l-0.44-1.01l2.85-1.5h1.05v7.87h2V-9.58z"/>
			<path d="M91.64-19.25L86.95-8.11h-1.14l4.69-11.14H91.64z"/>
			<path d="M99.55-9.58h-5.62v-1.11h2.3v-6.53l-2.14,1.16l-0.44-1.01l2.85-1.5h1.05v7.87h2V-9.58z"/>
			<path d="M105.77-6.78h-3.37v-0.96h2.22v-10.79h-2.22v-0.96h3.37V-6.78z"/>
		</g>
	</g>
	<g id="node2">
		<title>46</title>
		<polygon class="st3" points="152.16,-0.38 152.16,-41.19 275.99,-41.19 275.99,-0.38 		"/>
		<g class="st2">
			<path d="M191.76-35.65l-0.2,3.21h-1.18l-0.19-3.21H191.76z"/>
			<path d="M201.78-29.54c0,0.57-0.08,1.08-0.24,1.53c-0.16,0.45-0.38,0.83-0.67,1.14c-0.29,0.31-0.64,0.55-1.06,0.72
				c-0.41,0.17-0.88,0.25-1.4,0.25c-0.41,0-0.82-0.04-1.24-0.12s-0.84-0.2-1.26-0.37v-9.26h1.19v2.66l-0.05,1.27
				c0.34-0.46,0.71-0.79,1.1-0.97c0.39-0.19,0.81-0.28,1.26-0.28c0.39,0,0.74,0.08,1.03,0.25s0.54,0.4,0.75,0.69
				c0.2,0.3,0.35,0.66,0.45,1.08C201.73-30.53,201.78-30.06,201.78-29.54z M200.57-29.49c0-0.36-0.03-0.69-0.08-0.99
				c-0.05-0.3-0.14-0.56-0.25-0.77c-0.11-0.21-0.26-0.38-0.44-0.5s-0.39-0.18-0.64-0.18c-0.15,0-0.3,0.02-0.46,0.07
				s-0.32,0.13-0.48,0.24s-0.34,0.26-0.53,0.44c-0.19,0.18-0.38,0.41-0.59,0.69v3.33c0.23,0.09,0.47,0.16,0.71,0.22
				c0.24,0.05,0.47,0.08,0.69,0.08c0.27,0,0.53-0.04,0.78-0.13c0.25-0.09,0.47-0.23,0.66-0.43c0.19-0.2,0.34-0.47,0.45-0.81
				C200.51-28.57,200.57-28.99,200.57-29.49z"/>
			<path d="M207.16-35.65l-0.2,3.21h-1.18l-0.19-3.21H207.16z"/>
			<path d="M223.66-23.18h-3.37v-12.71h3.37v0.96h-2.24v10.79h2.24V-23.18z"/>
			<path d="M232.16-27.86c0,0.24-0.04,0.46-0.12,0.65c-0.08,0.19-0.19,0.36-0.33,0.51c-0.14,0.15-0.31,0.27-0.49,0.38
				s-0.39,0.19-0.6,0.26s-0.43,0.12-0.65,0.15s-0.44,0.05-0.66,0.05c-0.47,0-0.89-0.02-1.28-0.06c-0.39-0.04-0.77-0.11-1.15-0.2
				v-1.09c0.4,0.11,0.8,0.2,1.2,0.26s0.79,0.09,1.18,0.09c0.57,0,0.99-0.08,1.27-0.23c0.27-0.16,0.41-0.38,0.41-0.66
				c0-0.12-0.02-0.23-0.07-0.33c-0.04-0.1-0.12-0.19-0.24-0.28c-0.11-0.09-0.29-0.18-0.53-0.28c-0.24-0.1-0.57-0.21-0.98-0.33
				c-0.31-0.09-0.6-0.19-0.86-0.31c-0.26-0.12-0.49-0.25-0.68-0.41c-0.19-0.16-0.34-0.35-0.45-0.56s-0.16-0.47-0.16-0.76
				c0-0.19,0.04-0.4,0.13-0.63s0.24-0.44,0.46-0.64c0.21-0.2,0.5-0.36,0.87-0.49s0.82-0.2,1.37-0.2c0.27,0,0.57,0.02,0.9,0.04
				c0.33,0.03,0.67,0.08,1.03,0.15v1.06c-0.37-0.09-0.73-0.16-1.06-0.2s-0.63-0.06-0.87-0.06c-0.3,0-0.55,0.02-0.75,0.07
				c-0.2,0.05-0.37,0.11-0.49,0.19c-0.13,0.08-0.22,0.17-0.27,0.28c-0.05,0.11-0.08,0.22-0.08,0.35s0.02,0.23,0.07,0.33
				c0.05,0.1,0.14,0.2,0.27,0.29c0.13,0.09,0.31,0.19,0.54,0.28s0.54,0.19,0.91,0.3c0.41,0.12,0.75,0.24,1.03,0.37
				c0.28,0.13,0.5,0.27,0.68,0.43s0.3,0.34,0.37,0.54S232.16-28.11,232.16-27.86z"/>
			<path d="M238.67-23.18h-3.37v-0.96h2.22v-10.79h-2.22v-0.96h3.37V-23.18z"/>
		</g>
		<g class="st2">
			<path d="M167.21-12.09h-1.53l-0.25,2.51h-1.01l0.25-2.51h-1.74l-0.25,2.51h-1.01l0.25-2.51h-1.46v-0.89H162l0.25-2.39h-1.44
				v-0.89h1.53l0.23-2.26h1l-0.22,2.26h1.75l0.23-2.26h1.01l-0.24,2.26h1.47v0.89h-1.56l-0.24,2.39h1.44V-12.09z M164.77-12.98
				l0.24-2.39h-1.75l-0.24,2.39H164.77z"/>
			<path d="M175.2-11.56h-1.53v1.98h-1.22v-1.98h-4.3v-1.05l3.81-5.92h1.71v5.92h1.53V-11.56z M172.46-17.37l-3.11,4.77h3.11V-17.37
				z"/>
			<path d="M182.57-12.41c0,0.41-0.07,0.79-0.22,1.16c-0.15,0.36-0.36,0.67-0.63,0.94c-0.27,0.27-0.6,0.48-0.99,0.63
				c-0.38,0.15-0.81,0.23-1.28,0.23c-0.49,0-0.93-0.08-1.31-0.24c-0.38-0.16-0.7-0.4-0.95-0.73s-0.45-0.74-0.58-1.24
				c-0.13-0.5-0.2-1.08-0.2-1.76c0-0.46,0.03-0.9,0.09-1.33c0.06-0.43,0.16-0.83,0.29-1.21s0.32-0.73,0.55-1.04s0.51-0.58,0.85-0.81
				c0.34-0.22,0.74-0.4,1.2-0.53c0.46-0.12,0.99-0.19,1.6-0.19h0.88v1.04h-0.96c-0.53,0-1,0.06-1.39,0.19
				c-0.39,0.13-0.72,0.31-0.99,0.54s-0.47,0.51-0.61,0.84c-0.14,0.33-0.23,0.7-0.27,1.1l-0.03,0.28c0.29-0.17,0.62-0.3,1-0.41
				c0.38-0.1,0.78-0.15,1.22-0.15c0.45,0,0.85,0.07,1.19,0.2c0.34,0.13,0.62,0.32,0.85,0.55c0.22,0.23,0.39,0.52,0.51,0.84
				C182.51-13.17,182.57-12.8,182.57-12.41z M181.33-12.34c0-0.27-0.03-0.52-0.1-0.74c-0.07-0.22-0.17-0.41-0.31-0.56
				c-0.14-0.15-0.32-0.27-0.54-0.36c-0.22-0.08-0.48-0.13-0.78-0.13c-0.17,0-0.35,0.02-0.53,0.05c-0.18,0.03-0.35,0.08-0.52,0.13
				c-0.17,0.06-0.33,0.12-0.49,0.2c-0.15,0.07-0.3,0.15-0.42,0.23c0,0.59,0.04,1.08,0.12,1.47s0.21,0.71,0.37,0.95
				c0.16,0.24,0.36,0.41,0.6,0.51c0.24,0.1,0.51,0.15,0.82,0.15c0.26,0,0.5-0.04,0.71-0.13s0.4-0.21,0.56-0.37
				c0.16-0.16,0.28-0.36,0.37-0.6C181.28-11.77,181.33-12.04,181.33-12.34z"/>
			<path d="M196.7-6.78h-3.37v-12.71h3.37v0.96h-2.24v10.79h2.24V-6.78z"/>
			<path d="M205.13-9.58h-5.08v-8.94h5.08v1.03h-3.87v2.77h3.71v1.03h-3.71v3.08h3.87V-9.58z"/>
			<path d="M212.99-19.25L208.3-8.11h-1.14l4.69-11.14H212.99z"/>
			<path d="M217.31-17.5h-2.06v-1.03h5.35v1.03h-2.06v6.87h2.06v1.04h-5.35v-1.04h2.06V-17.5z"/>
			<path d="M225.63-16.57c0.14,0,0.28,0.03,0.4,0.09c0.13,0.06,0.24,0.13,0.34,0.23s0.17,0.21,0.23,0.33
				c0.06,0.13,0.09,0.26,0.09,0.4c0,0.15-0.03,0.28-0.09,0.41c-0.06,0.12-0.13,0.24-0.23,0.33s-0.21,0.17-0.34,0.23
				c-0.13,0.05-0.26,0.08-0.4,0.08c-0.15,0-0.28-0.03-0.41-0.08c-0.12-0.05-0.24-0.13-0.33-0.23s-0.17-0.21-0.23-0.33
				s-0.08-0.26-0.08-0.41c0-0.14,0.03-0.28,0.08-0.4c0.05-0.13,0.13-0.24,0.23-0.33s0.21-0.17,0.33-0.23
				C225.35-16.54,225.48-16.57,225.63-16.57z M225.63-11.56c0.14,0,0.28,0.03,0.4,0.08c0.13,0.06,0.24,0.13,0.34,0.23
				s0.17,0.21,0.23,0.33c0.06,0.13,0.09,0.26,0.09,0.4c0,0.15-0.03,0.28-0.09,0.41c-0.06,0.12-0.13,0.24-0.23,0.33
				s-0.21,0.17-0.34,0.23c-0.13,0.05-0.26,0.08-0.4,0.08c-0.15,0-0.28-0.03-0.41-0.08c-0.12-0.05-0.24-0.13-0.33-0.23
				s-0.17-0.21-0.23-0.33s-0.08-0.26-0.08-0.41c0-0.14,0.03-0.28,0.08-0.4c0.05-0.13,0.13-0.24,0.23-0.33s0.21-0.17,0.33-0.23
				C225.35-11.53,225.48-11.56,225.63-11.56z"/>
			<path d="M244-9.58h-5.62v-1.11h2.3v-6.53l-2.14,1.16l-0.44-1.01l2.85-1.5H242v7.87h2V-9.58z"/>
			<path d="M251.5-19.25L246.8-8.11h-1.13l4.69-11.14H251.5z"/>
			<path d="M259.69-14.05c0,0.68-0.07,1.31-0.21,1.87c-0.14,0.56-0.34,1.05-0.62,1.45c-0.28,0.4-0.62,0.72-1.04,0.94
				c-0.41,0.22-0.9,0.33-1.45,0.33c-0.48,0-0.91-0.09-1.31-0.27c-0.39-0.18-0.73-0.46-1-0.83c-0.28-0.38-0.49-0.85-0.64-1.43
				c-0.15-0.58-0.22-1.27-0.22-2.06c0-0.68,0.07-1.31,0.21-1.88s0.35-1.05,0.62-1.45c0.28-0.4,0.62-0.72,1.04-0.94
				c0.41-0.22,0.9-0.33,1.45-0.33c0.48,0,0.91,0.09,1.31,0.27s0.73,0.46,1.01,0.83c0.28,0.38,0.49,0.85,0.64,1.43
				S259.69-14.84,259.69-14.05z M254.39-14.09c0,0.14,0,0.28,0,0.42c0,0.14,0.01,0.28,0.02,0.41l3.78-2.8
				c-0.07-0.23-0.16-0.44-0.26-0.64c-0.11-0.19-0.23-0.36-0.38-0.5s-0.31-0.25-0.5-0.33c-0.19-0.08-0.4-0.12-0.63-0.12
				c-0.31,0-0.59,0.08-0.84,0.23c-0.25,0.15-0.47,0.38-0.65,0.67c-0.18,0.3-0.31,0.67-0.41,1.11
				C254.44-15.18,254.39-14.67,254.39-14.09z M258.48-14.01c0-0.16-0.01-0.31-0.02-0.46c-0.01-0.15-0.02-0.3-0.04-0.45l-3.78,2.81
				c0.07,0.24,0.15,0.46,0.26,0.66c0.1,0.2,0.23,0.37,0.38,0.52c0.15,0.14,0.32,0.25,0.51,0.33c0.19,0.08,0.41,0.12,0.65,0.12
				c0.31,0,0.59-0.08,0.85-0.23c0.25-0.15,0.47-0.37,0.65-0.67c0.18-0.3,0.31-0.66,0.41-1.11
				C258.43-12.92,258.48-13.43,258.48-14.01z"/>
			<path d="M265.63-6.78h-3.37v-0.96h2.22v-10.79h-2.22v-0.96h3.37V-6.78z"/>
		</g>
	</g>
	<g id="edge1">
		<title>46-&gt;1</title>
		<path class="st4" d="M151.97-20.79c-8.4,0-17.05,0-25.55,0"/>
		<polygon class="st5" points="126.17,-17.29 116.16,-20.79 126.17,-24.29 		"/>
	</g>
</g>
</svg>
