<?xml version="1.0" encoding="utf-8"?>
<!-- Generator: Adobe Illustrator 23.0.6, SVG Export Plug-In . SVG Version: 6.00 Build 0)  -->
<svg version="1.1" id="Layer_1" xmlns="http://www.w3.org/2000/svg" xmlns:xlink="http://www.w3.org/1999/xlink" x="0px" y="0px"
	 viewBox="0 0 399.05 95.33" style="enable-background:new 0 0 399.05 95.33;" xml:space="preserve">
<style type="text/css">
	.st0{fill:#E6E7E8;stroke:#010101;}
	.st1{enable-background:new    ;}
	.st2{fill:#010101;}
	.st3{fill:none;}
	.st4{fill:none;stroke:#010101;stroke-width:1.5;stroke-miterlimit:10;}
	.st5{clip-path:url(#SVGID_2_);}
	.st6{clip-path:url(#SVGID_4_);}
	.st7{clip-path:url(#SVGID_6_);}
	.st8{clip-path:url(#SVGID_8_);}
	.st9{clip-path:url(#SVGID_10_);}
	.st10{clip-path:url(#SVGID_12_);}
</style>
<g id="node11_2_">
	<title>11</title>
	<polygon class="st0" points="219.72,50.31 219.72,23.72 254.92,23.72 254.92,50.31 	"/>
	<g class="st1">
		<path class="st2" d="M238.4,39.39l-0.02-0.6c-0.24,0.24-0.49,0.41-0.74,0.52c-0.25,0.11-0.51,0.16-0.79,0.16
			c-0.25,0-0.47-0.03-0.65-0.1c-0.18-0.07-0.33-0.16-0.45-0.27s-0.2-0.25-0.26-0.4c-0.05-0.15-0.08-0.32-0.08-0.5
			c0-0.45,0.17-0.8,0.5-1.05s0.83-0.38,1.48-0.38h0.93v-0.39c0-0.26-0.08-0.48-0.25-0.63c-0.17-0.16-0.43-0.24-0.78-0.24
			c-0.25,0-0.5,0.03-0.75,0.08c-0.25,0.06-0.5,0.14-0.76,0.24v-0.7c0.1-0.04,0.21-0.07,0.33-0.11c0.12-0.03,0.25-0.06,0.38-0.09
			c0.13-0.03,0.27-0.05,0.42-0.06c0.15-0.02,0.29-0.03,0.44-0.03c0.27,0,0.51,0.03,0.73,0.09s0.4,0.15,0.55,0.27
			c0.15,0.12,0.27,0.28,0.35,0.46c0.08,0.18,0.12,0.4,0.12,0.65v3.08H238.4z M238.32,37.35h-0.99c-0.19,0-0.36,0.02-0.5,0.06
			s-0.25,0.09-0.34,0.17c-0.09,0.07-0.16,0.16-0.2,0.26s-0.06,0.21-0.06,0.34c0,0.09,0.01,0.17,0.04,0.25
			c0.03,0.08,0.07,0.15,0.13,0.21c0.06,0.06,0.14,0.11,0.23,0.15c0.1,0.04,0.21,0.05,0.35,0.05c0.18,0,0.38-0.05,0.61-0.16
			c0.23-0.11,0.47-0.28,0.73-0.51V37.35z"/>
	</g>
</g>
<g id="node11_1_">
	<title>11</title>
	<polygon class="st0" points="219.72,83.06 219.72,56.48 254.92,56.48 254.92,83.06 	"/>
	<g class="st1">
		<path class="st2" d="M239.35,69.83c0,0.37-0.05,0.7-0.15,1s-0.25,0.54-0.44,0.74c-0.19,0.2-0.42,0.36-0.69,0.47
			c-0.27,0.11-0.58,0.16-0.91,0.16c-0.26,0-0.53-0.03-0.81-0.08s-0.55-0.13-0.82-0.24v-6.03h0.78v1.73l-0.04,0.83
			c0.22-0.3,0.46-0.51,0.71-0.63s0.53-0.19,0.82-0.19c0.26,0,0.48,0.05,0.67,0.16c0.19,0.11,0.36,0.26,0.49,0.45s0.23,0.43,0.29,0.7
			S239.35,69.49,239.35,69.83z M238.56,69.87c0-0.24-0.02-0.45-0.05-0.65c-0.03-0.2-0.09-0.36-0.16-0.5s-0.17-0.25-0.29-0.33
			s-0.25-0.12-0.41-0.12c-0.1,0-0.2,0.02-0.3,0.05c-0.1,0.03-0.21,0.08-0.31,0.16c-0.11,0.07-0.22,0.17-0.34,0.29
			c-0.12,0.12-0.25,0.27-0.39,0.45v2.17c0.15,0.06,0.31,0.11,0.46,0.14c0.16,0.03,0.31,0.05,0.45,0.05c0.18,0,0.35-0.03,0.51-0.08
			c0.16-0.06,0.3-0.15,0.43-0.28s0.22-0.31,0.29-0.53C238.52,70.46,238.56,70.19,238.56,69.87z"/>
	</g>
</g>
<path class="st3" d="M287.46,61.23"/>
<path class="st3" d="M254.92,69.77"/>
<g>
	<line class="st4" x1="355.2" y1="69.77" x2="265.13" y2="44.84"/>
	<g>
		<polygon class="st2" points="254.92,42.01 270.93,40.12 265.89,45.05 267.68,51.87 		"/>
	</g>
</g>
<path class="st3" d="M209.72,27.07"/>
<g id="node11_5_">
	<title>11</title>
	<polygon class="st0" points="354.74,50.31 354.74,23.72 389.94,23.72 389.94,50.31 	"/>
	<g class="st1">
		<path class="st2" d="M370.32,37.25c0-0.38,0.05-0.72,0.16-1.01c0.1-0.3,0.25-0.54,0.44-0.75c0.19-0.2,0.42-0.36,0.69-0.46
			c0.27-0.11,0.57-0.16,0.9-0.16c0.14,0,0.28,0.01,0.42,0.03c0.14,0.02,0.27,0.05,0.41,0.08v-1.88h0.78v6.3h-0.7l-0.03-0.85
			c-0.22,0.31-0.45,0.55-0.7,0.7c-0.25,0.15-0.53,0.23-0.82,0.23c-0.25,0-0.48-0.05-0.67-0.16c-0.19-0.11-0.36-0.26-0.49-0.45
			c-0.13-0.2-0.23-0.43-0.29-0.7S370.32,37.58,370.32,37.25z M371.11,37.2c0,0.54,0.08,0.94,0.24,1.21c0.16,0.27,0.38,0.4,0.67,0.4
			c0.2,0,0.4-0.09,0.62-0.26c0.22-0.17,0.45-0.44,0.69-0.78v-2.08c-0.13-0.06-0.27-0.1-0.42-0.14s-0.31-0.05-0.46-0.05
			c-0.42,0-0.75,0.14-0.99,0.41C371.23,36.19,371.11,36.62,371.11,37.2z"/>
	</g>
</g>
<g id="node11_4_">
	<title>11</title>
	<polygon class="st0" points="354.74,83.06 354.74,56.48 389.94,56.48 389.94,83.06 	"/>
	<g class="st1">
		<path class="st2" d="M374.32,69.68c0,0.11,0,0.2,0,0.28s-0.01,0.14-0.01,0.21h-3.14c0,0.46,0.13,0.81,0.38,1.05
			c0.25,0.25,0.62,0.37,1.1,0.37c0.13,0,0.26,0,0.39-0.01c0.13-0.01,0.26-0.03,0.38-0.04s0.24-0.04,0.35-0.06
			c0.11-0.02,0.21-0.05,0.31-0.07v0.64c-0.21,0.06-0.45,0.11-0.71,0.14s-0.54,0.06-0.83,0.06c-0.38,0-0.71-0.05-0.99-0.16
			c-0.28-0.1-0.5-0.25-0.68-0.45c-0.18-0.2-0.31-0.44-0.39-0.73c-0.08-0.29-0.13-0.61-0.13-0.97c0-0.31,0.04-0.61,0.14-0.89
			c0.09-0.28,0.22-0.53,0.4-0.74c0.17-0.21,0.39-0.38,0.64-0.51s0.54-0.19,0.86-0.19c0.31,0,0.59,0.05,0.83,0.15
			c0.24,0.1,0.44,0.24,0.61,0.42s0.29,0.4,0.38,0.65C374.28,69.07,374.32,69.36,374.32,69.68z M373.52,69.56
			c0.01-0.2-0.01-0.38-0.06-0.55c-0.05-0.16-0.12-0.31-0.22-0.42c-0.1-0.12-0.22-0.21-0.37-0.28c-0.15-0.07-0.32-0.1-0.52-0.1
			c-0.17,0-0.32,0.03-0.46,0.1s-0.26,0.16-0.36,0.28s-0.18,0.26-0.25,0.43c-0.06,0.17-0.1,0.35-0.12,0.55H373.52z"/>
	</g>
</g>
<path class="st3" d="M355.2,69.77"/>
<path class="st3" d="M322.66,61.93"/>
<path class="st3" d="M352.74,27.07"/>
<g id="node11_10_">
	<title>11</title>
	<polygon class="st0" points="11.15,50.31 11.15,23.72 46.35,23.72 46.35,50.31 	"/>
	<g class="st1">
		<path class="st2" d="M29.83,39.39l-0.02-0.6c-0.24,0.24-0.49,0.41-0.74,0.52c-0.25,0.11-0.51,0.16-0.79,0.16
			c-0.25,0-0.47-0.03-0.65-0.1c-0.18-0.07-0.33-0.16-0.45-0.27s-0.2-0.25-0.26-0.4c-0.05-0.15-0.08-0.32-0.08-0.5
			c0-0.45,0.17-0.8,0.5-1.05s0.83-0.38,1.48-0.38h0.93v-0.39c0-0.26-0.08-0.48-0.25-0.63c-0.17-0.16-0.43-0.24-0.78-0.24
			c-0.25,0-0.5,0.03-0.75,0.08c-0.25,0.06-0.5,0.14-0.76,0.24v-0.7c0.1-0.04,0.21-0.07,0.33-0.11c0.12-0.03,0.25-0.06,0.38-0.09
			c0.13-0.03,0.27-0.05,0.42-0.06c0.15-0.02,0.29-0.03,0.44-0.03c0.27,0,0.51,0.03,0.73,0.09s0.4,0.15,0.55,0.27
			c0.15,0.12,0.27,0.28,0.35,0.46c0.08,0.18,0.12,0.4,0.12,0.65v3.08H29.83z M29.74,37.35h-0.99c-0.19,0-0.36,0.02-0.5,0.06
			s-0.25,0.09-0.34,0.17c-0.09,0.07-0.16,0.16-0.2,0.26s-0.06,0.21-0.06,0.34c0,0.09,0.01,0.17,0.04,0.25
			c0.03,0.08,0.07,0.15,0.13,0.21c0.06,0.06,0.14,0.11,0.23,0.15c0.1,0.04,0.21,0.05,0.35,0.05c0.18,0,0.38-0.05,0.61-0.16
			c0.23-0.11,0.47-0.28,0.73-0.51V37.35z"/>
	</g>
</g>
<g id="node11_9_">
	<title>11</title>
	<polygon class="st0" points="11.15,83.06 11.15,56.48 46.35,56.48 46.35,83.06 	"/>
	<g class="st1">
		<path class="st2" d="M30.78,69.83c0,0.37-0.05,0.7-0.15,1s-0.25,0.54-0.44,0.74c-0.19,0.2-0.42,0.36-0.69,0.47
			c-0.27,0.11-0.58,0.16-0.91,0.16c-0.26,0-0.53-0.03-0.81-0.08s-0.55-0.13-0.82-0.24v-6.03h0.78v1.73l-0.04,0.83
			c0.22-0.3,0.46-0.51,0.71-0.63s0.53-0.19,0.82-0.19c0.26,0,0.48,0.05,0.67,0.16c0.19,0.11,0.36,0.26,0.49,0.45s0.23,0.43,0.29,0.7
			S30.78,69.49,30.78,69.83z M29.98,69.87c0-0.24-0.02-0.45-0.05-0.65c-0.03-0.2-0.09-0.36-0.16-0.5s-0.17-0.25-0.29-0.33
			s-0.25-0.12-0.41-0.12c-0.1,0-0.2,0.02-0.3,0.05c-0.1,0.03-0.21,0.08-0.31,0.16c-0.11,0.07-0.22,0.17-0.34,0.29
			c-0.12,0.12-0.25,0.27-0.39,0.45v2.17c0.15,0.06,0.31,0.11,0.46,0.14c0.16,0.03,0.31,0.05,0.45,0.05c0.18,0,0.35-0.03,0.51-0.08
			c0.16-0.06,0.3-0.15,0.43-0.28s0.22-0.31,0.29-0.53C29.95,70.46,29.98,70.19,29.98,69.87z"/>
	</g>
</g>
<g id="node11_8_">
	<title>11</title>
	<polygon class="st0" points="78.89,65.98 78.89,39.39 114.09,39.39 114.09,65.98 	"/>
	<g class="st1">
		<path class="st2" d="M98.17,54.9c-0.2,0.08-0.41,0.13-0.62,0.17c-0.21,0.04-0.43,0.06-0.66,0.06c-0.71,0-1.25-0.19-1.63-0.58
			c-0.38-0.38-0.57-0.94-0.57-1.68c0-0.35,0.05-0.67,0.17-0.96c0.11-0.29,0.26-0.53,0.46-0.74c0.2-0.21,0.44-0.36,0.71-0.47
			c0.28-0.11,0.58-0.17,0.91-0.17c0.23,0,0.45,0.02,0.65,0.05c0.2,0.03,0.4,0.09,0.58,0.16v0.74c-0.19-0.1-0.39-0.17-0.59-0.22
			c-0.2-0.05-0.41-0.07-0.62-0.07c-0.2,0-0.39,0.04-0.56,0.11c-0.18,0.08-0.33,0.19-0.47,0.33s-0.24,0.32-0.32,0.52
			s-0.12,0.44-0.12,0.7c0,0.54,0.13,0.95,0.39,1.21c0.26,0.27,0.63,0.4,1.09,0.4c0.21,0,0.42-0.02,0.61-0.07s0.39-0.12,0.57-0.21
			V54.9z"/>
	</g>
</g>
<g>
	<line class="st4" x1="56.59" y1="67.08" x2="78.89" y2="61.23"/>
	<g>
		<polygon class="st2" points="46.35,69.77 62.33,71.88 57.36,66.88 59.24,60.08 		"/>
	</g>
</g>
<g>
	<line class="st4" x1="78.89" y1="44.85" x2="56.65" y2="39.49"/>
	<g>
		<polygon class="st2" points="46.35,37.01 62.29,34.58 57.42,39.68 59.43,46.43 		"/>
	</g>
</g>
<g>
	<path class="st4" d="M146.16,25.55c0,0-5.17-5.34-49.68-5.99c-20.78-0.3-33.03,0.93-40.21,2.36"/>
	<g>
		<polygon class="st2" points="46.35,25.63 58.45,14.98 57.1,21.9 62.45,26.5 		"/>
	</g>
</g>
<g>
	<path class="st4" d="M146.16,77.85c0,0-5.17,5.34-49.68,5.99c-20.78,0.3-33.03-0.93-40.21-2.36"/>
	<g>
		<polygon class="st2" points="46.35,77.76 62.45,76.89 57.1,81.49 58.45,88.41 		"/>
	</g>
</g>
<path class="st3" d="M31.15,27.07"/>
<g id="node11_7_">
	<title>11</title>
	<polygon class="st0" points="146.16,50.31 146.16,23.72 181.36,23.72 181.36,50.31 	"/>
	<g class="st1">
		<path class="st2" d="M161.74,37.25c0-0.38,0.05-0.72,0.16-1.01c0.1-0.3,0.25-0.54,0.44-0.75c0.19-0.2,0.42-0.36,0.69-0.46
			c0.27-0.11,0.57-0.16,0.9-0.16c0.14,0,0.28,0.01,0.42,0.03c0.14,0.02,0.27,0.05,0.41,0.08v-1.88h0.78v6.3h-0.7l-0.03-0.85
			c-0.22,0.31-0.45,0.55-0.7,0.7c-0.25,0.15-0.53,0.23-0.82,0.23c-0.25,0-0.48-0.05-0.67-0.16c-0.19-0.11-0.36-0.26-0.49-0.45
			c-0.13-0.2-0.23-0.43-0.29-0.7S161.74,37.58,161.74,37.25z M162.53,37.2c0,0.54,0.08,0.94,0.24,1.21c0.16,0.27,0.38,0.4,0.67,0.4
			c0.2,0,0.4-0.09,0.62-0.26c0.22-0.17,0.45-0.44,0.69-0.78v-2.08c-0.13-0.06-0.27-0.1-0.42-0.14s-0.31-0.05-0.46-0.05
			c-0.42,0-0.75,0.14-0.99,0.41C162.65,36.19,162.53,36.62,162.53,37.2z"/>
	</g>
</g>
<g id="node11_6_">
	<title>11</title>
	<polygon class="st0" points="146.16,83.06 146.16,56.48 181.36,56.48 181.36,83.06 	"/>
	<g class="st1">
		<path class="st2" d="M165.75,69.68c0,0.11,0,0.2,0,0.28s-0.01,0.14-0.01,0.21h-3.14c0,0.46,0.13,0.81,0.38,1.05
			c0.25,0.25,0.62,0.37,1.1,0.37c0.13,0,0.26,0,0.39-0.01c0.13-0.01,0.26-0.03,0.38-0.04s0.24-0.04,0.35-0.06
			c0.11-0.02,0.21-0.05,0.31-0.07v0.64c-0.21,0.06-0.45,0.11-0.71,0.14s-0.54,0.06-0.83,0.06c-0.38,0-0.71-0.05-0.99-0.16
			c-0.28-0.1-0.5-0.25-0.68-0.45c-0.18-0.2-0.31-0.44-0.39-0.73c-0.08-0.29-0.13-0.61-0.13-0.97c0-0.31,0.04-0.61,0.14-0.89
			c0.09-0.28,0.22-0.53,0.4-0.74c0.17-0.21,0.39-0.38,0.64-0.51s0.54-0.19,0.86-0.19c0.31,0,0.59,0.05,0.83,0.15
			c0.24,0.1,0.44,0.24,0.61,0.42s0.29,0.4,0.38,0.65C165.7,69.07,165.75,69.36,165.75,69.68z M164.94,69.56
			c0.01-0.2-0.01-0.38-0.06-0.55c-0.05-0.16-0.12-0.31-0.22-0.42c-0.1-0.12-0.22-0.21-0.37-0.28c-0.15-0.07-0.32-0.1-0.52-0.1
			c-0.17,0-0.32,0.03-0.46,0.1s-0.26,0.16-0.36,0.28s-0.18,0.26-0.25,0.43c-0.06,0.17-0.1,0.35-0.12,0.55H164.94z"/>
	</g>
</g>
<g>
	<line class="st4" x1="146.63" y1="37.01" x2="124.33" y2="42.87"/>
	<g>
		<polygon class="st2" points="114.09,45.56 126.97,35.87 125.1,42.66 130.07,47.66 		"/>
	</g>
</g>
<g>
	<line class="st4" x1="124.38" y1="64.41" x2="146.63" y2="69.77"/>
	<g>
		<polygon class="st2" points="114.09,61.93 127.17,71.36 125.15,64.6 130.02,59.5 		"/>
	</g>
</g>
<path class="st3" d="M144.16,27.07"/>
<g>
	<line class="st4" x1="355.2" y1="37.01" x2="265.5" y2="32.54"/>
	<g>
		<polygon class="st2" points="254.92,32.01 270.13,26.66 266.29,32.58 269.53,38.84 		"/>
	</g>
</g>
<path class="st3" d="M322.66,61.93"/>
<path class="st3" d="M287.46,45.56"/>
<g>
	<line class="st4" x1="355.2" y1="37.01" x2="265.13" y2="61.94"/>
	<g>
		<polygon class="st2" points="254.92,64.77 267.68,54.91 265.89,61.73 270.93,66.66 		"/>
	</g>
</g>
<g>
	<line class="st4" x1="355.2" y1="69.77" x2="265.5" y2="74.24"/>
	<g>
		<polygon class="st2" points="254.92,74.77 269.53,67.94 266.29,74.2 270.13,80.12 		"/>
	</g>
</g>
<g>
	<path d="M49.52,2.25c2.23,0,2.58,1.04,2.58,1.85c0,0.65-0.54,1.27-1.14,1.57v0.02C52,5.99,52.8,6.65,52.8,7.8
		c0,1.03-0.64,2.23-3.02,2.23c-1.01,0-1.32-0.02-1.75-0.02c-0.44,0-1.09,0.01-1.56,0.02c-0.07-0.07-0.07-0.32,0-0.4
		c0.84-0.04,1.04-0.1,1.04-1.09V3.74c0-1-0.2-1.06-1.04-1.09c-0.07-0.07-0.07-0.32,0-0.4c0.47,0.01,1.12,0.02,1.55,0.02
		C48.45,2.27,49.1,2.25,49.52,2.25z M48.53,5.62h0.89c1,0,1.7-0.36,1.7-1.38c0-1.22-0.88-1.58-1.55-1.58
		c-1.04,0-1.04,0.12-1.04,0.75V5.62z M48.53,8.59c0,0.73,0.16,1.04,1,1.04c1.82,0,2.16-0.73,2.16-1.61c0-1.08-0.68-2-2.33-2h-0.83
		V8.59z"/>
	<path d="M58.18,9.09c-0.48,0.62-1.13,1.04-2.04,1.04c-0.86,0-1.43-0.29-1.83-0.77c-0.4-0.46-0.56-1.1-0.56-1.78
		c0-1.82,1.35-2.82,2.4-2.82c1.67,0,2.03,1.08,2.03,2.09c0,0.13-0.08,0.2-0.23,0.2l-3.19-0.02c0,0.7,0.14,1.25,0.38,1.64
		c0.37,0.61,0.88,0.86,1.31,0.86c0.7,0,1.04-0.19,1.49-0.65C58.07,8.91,58.14,8.97,58.18,9.09z M56.96,6.59
		c0.13,0,0.18-0.06,0.18-0.17c0-1.01-0.54-1.26-1-1.26c-0.29,0-1.13,0.11-1.35,1.46L56.96,6.59z"/>
	<path d="M61.77,9.64c0.07,0.07,0.07,0.32,0,0.4c-0.42-0.01-1-0.02-1.48-0.02c-0.48,0-0.9,0.01-1.32,0.02
		c-0.07-0.07-0.07-0.32,0-0.4c0.65-0.05,0.84-0.1,0.84-1.09V5.33h-0.83c-0.05,0-0.06-0.01-0.06-0.07V5.1c0-0.1,0.06-0.24,0.28-0.24
		h0.61V4.38c0-1.87,1.12-2.75,2.12-2.75c0.46,0,0.77,0.04,1.08,0.25C63.27,2.08,63.4,2.3,63.4,2.5c0,0.24-0.29,0.49-0.49,0.49
		c-0.25,0-0.38-0.17-0.48-0.38c-0.17-0.42-0.36-0.56-0.72-0.56c-0.4,0-0.95,0.29-0.95,2.13v0.68h1.3c0.06,0,0.1,0.02,0.1,0.07v0.24
		c0,0.11-0.17,0.16-0.28,0.16h-1.12v3.21C60.76,9.54,60.83,9.59,61.77,9.64z"/>
	<path d="M63.54,5.58c0.44-0.52,1.09-0.84,1.88-0.84c1.83,0,2.52,1.45,2.52,2.7c0,0.74-0.24,1.49-0.78,2.01
		c-0.41,0.4-0.99,0.67-1.76,0.67c-1.7,0-2.52-1.36-2.52-2.58C62.87,6.79,63.1,6.09,63.54,5.58z M63.9,7.27
		c0,0.92,0.41,2.43,1.66,2.43c0.56,0,1.34-0.37,1.34-1.88c0-1.73-0.64-2.66-1.67-2.66C64.16,5.16,63.9,6.23,63.9,7.27z"/>
	<path d="M70.67,5.74c0.28-0.47,0.77-1,1.33-1c0.5,0,0.72,0.35,0.72,0.58c0,0.3-0.28,0.6-0.56,0.6c-0.21,0-0.34-0.16-0.43-0.28
		c-0.09-0.12-0.2-0.15-0.31-0.15c-0.14,0-0.42,0.4-0.55,0.59c-0.14,0.22-0.29,0.49-0.29,0.8v1.67c0,1,0.14,1.03,0.98,1.09
		c0.07,0.07,0.07,0.32,0,0.4c-0.42-0.01-0.97-0.02-1.45-0.02c-0.48,0-0.95,0.01-1.37,0.02c-0.07-0.07-0.07-0.32,0-0.4
		c0.74-0.05,0.89-0.1,0.89-1.09V6.21c0-0.7-0.13-0.76-0.78-0.82c-0.02-0.07-0.05-0.26-0.02-0.34c0.83-0.11,1.14-0.22,1.48-0.35
		c0.1,0,0.12,0.04,0.14,0.1c0.06,0.12,0.08,0.43,0.1,0.91C70.54,5.78,70.6,5.87,70.67,5.74z"/>
	<path d="M77.68,9.09c-0.48,0.62-1.13,1.04-2.04,1.04c-0.86,0-1.43-0.29-1.83-0.77c-0.4-0.46-0.56-1.1-0.56-1.78
		c0-1.82,1.35-2.82,2.4-2.82c1.67,0,2.03,1.08,2.03,2.09c0,0.13-0.08,0.2-0.23,0.2l-3.19-0.02c0,0.7,0.14,1.25,0.38,1.64
		c0.37,0.61,0.88,0.86,1.31,0.86c0.7,0,1.04-0.19,1.49-0.65C77.57,8.91,77.64,8.97,77.68,9.09z M76.46,6.59
		c0.13,0,0.18-0.06,0.18-0.17c0-1.01-0.54-1.26-1-1.26c-0.29,0-1.13,0.11-1.35,1.46L76.46,6.59z"/>
	<path d="M82.11,8.34c0.07,0.3,0.2,0.83,0.47,1.1c0.12,0.13,0.38,0.29,0.85,0.29c0.44,0,1.02-0.25,1.02-0.84
		c0-0.52-0.23-0.77-1.22-1.18C82.3,7.33,81.9,6.96,81.9,6.09c0-0.77,0.8-1.34,1.69-1.34c0.62,0,1.2,0.17,1.57,0.23
		c-0.01,0.4-0.04,0.84-0.07,1.27c-0.07,0.07-0.31,0.08-0.38,0.01c-0.16-1.02-0.85-1.12-1.12-1.12c-0.41,0-0.84,0.28-0.84,0.77
		c0,0.66,0.48,0.85,1.2,1.11c0.82,0.3,1.4,0.78,1.4,1.6c0,1.19-1.24,1.51-1.91,1.51c-0.44,0-0.77-0.05-1.09-0.13
		c-0.08-0.02-0.16-0.02-0.24-0.02c-0.06,0-0.18,0.01-0.3,0.04c0-0.5-0.04-1.07-0.08-1.66C81.81,8.28,82.04,8.27,82.11,8.34z"/>
	<path d="M88.88,9.64c0.07,0.07,0.07,0.32,0,0.4c-0.4-0.01-0.85-0.02-1.33-0.02c-0.48,0-0.95,0.01-1.34,0.02
		c-0.07-0.07-0.07-0.32,0-0.4c0.73-0.06,0.86-0.1,0.86-1.09V6.21c0-0.68-0.13-0.75-0.78-0.82c-0.02-0.07-0.05-0.26-0.02-0.34
		c0.83-0.11,1.3-0.22,1.64-0.35c0.1,0,0.16,0.04,0.16,0.08c0,0-0.05,0.77-0.05,1.36v2.39C88.01,9.54,88.14,9.59,88.88,9.64z
		 M87.55,2.25c0.32,0,0.58,0.34,0.58,0.62c0,0.25-0.29,0.58-0.62,0.58c-0.29,0-0.58-0.31-0.58-0.62
		C86.92,2.54,87.26,2.25,87.55,2.25z"/>
	<path d="M91.28,5.71c0.5-0.56,1.13-0.97,1.82-0.97c0.62,0,1.09,0.39,1.2,0.88c0.02,0.1,0.1,0.04,0.13,0
		c0.62-0.66,1.37-0.88,1.98-0.88c1.06,0,1.24,0.84,1.24,1.91v1.9c0,0.98,0.11,1.04,0.77,1.09c0.06,0.07,0.06,0.32,0,0.4
		c-0.34-0.01-0.76-0.02-1.24-0.02c-0.48,0-0.92,0.01-1.22,0.02c-0.06-0.07-0.06-0.32,0-0.4c0.62-0.05,0.74-0.11,0.74-1.09V6.43
		c0-0.8-0.26-1.07-0.72-1.07c-0.47,0-1.01,0.16-1.58,0.79c0.01,0.14,0.01,0.31,0.01,0.48v1.91c0,0.98,0.11,1.04,0.71,1.09
		c0.06,0.07,0.06,0.32,0,0.4c-0.3-0.01-0.7-0.02-1.18-0.02c-0.48,0-0.92,0.01-1.22,0.02c-0.06-0.07-0.06-0.32,0-0.4
		c0.65-0.05,0.74-0.11,0.74-1.09V6.46c0-0.8-0.34-1.09-0.79-1.09c-0.37,0-0.82,0.24-1.3,0.71c-0.1,0.1-0.2,0.25-0.2,0.5v1.97
		c0,0.98,0.13,1.03,0.74,1.09c0.07,0.07,0.07,0.32,0,0.4c-0.36-0.01-0.73-0.02-1.21-0.02c-0.48,0-0.94,0.01-1.29,0.02
		c-0.07-0.07-0.07-0.32,0-0.4c0.66-0.05,0.82-0.11,0.82-1.09V6.21c0-0.7-0.13-0.76-0.78-0.82c-0.02-0.07-0.05-0.26-0.02-0.34
		c0.83-0.11,1.14-0.22,1.48-0.35c0.1,0,0.12,0.04,0.14,0.1c0.06,0.12,0.08,0.56,0.1,0.91C91.14,5.86,91.22,5.78,91.28,5.71z"/>
	<path d="M100.58,5.64c0.47-0.53,1.09-0.9,1.64-0.9c1.22,0,2.12,1.17,2.12,2.45c0,0.97-0.32,1.71-0.89,2.27
		c-0.49,0.47-1.09,0.67-1.76,0.67c-0.38,0-0.75-0.07-1.04-0.19c-0.12-0.05-0.17-0.07-0.17,0.09v1.29c0,1,0.13,1.04,0.98,1.09
		c0.07,0.07,0.07,0.32,0,0.4c-0.4-0.01-0.97-0.02-1.45-0.02c-0.48,0-0.92,0.01-1.34,0.02c-0.07-0.07-0.07-0.32,0-0.4
		c0.73-0.04,0.86-0.1,0.86-1.09V6.21c0-0.7-0.13-0.76-0.78-0.82c-0.02-0.07-0.05-0.26-0.02-0.34c0.83-0.11,1.14-0.22,1.48-0.35
		c0.1,0,0.12,0.04,0.14,0.1c0.06,0.12,0.08,0.43,0.1,0.79C100.45,5.71,100.51,5.72,100.58,5.64z M100.48,6.57v2.18
		c0,0.43,0.05,0.5,0.29,0.72c0.22,0.19,0.64,0.25,0.85,0.25c1.34,0,1.69-1.22,1.69-2.21c0-1.36-0.66-2.22-1.43-2.22
		c-0.35,0-0.9,0.36-1.21,0.74C100.53,6.21,100.48,6.31,100.48,6.57z"/>
	<path d="M105.94,3.3c0-0.9-0.07-0.94-0.77-0.98c-0.07-0.07-0.1-0.26-0.07-0.36c0.48-0.04,1.38-0.2,1.68-0.32
		c0.11,0,0.16,0.04,0.16,0.12c0,0-0.05,0.48-0.05,1.26v5.53c0,1,0.13,1.05,0.86,1.09c0.07,0.07,0.07,0.32,0,0.4
		c-0.4-0.01-0.85-0.02-1.33-0.02c-0.48,0-0.92,0.01-1.34,0.02c-0.07-0.07-0.07-0.32,0-0.4c0.73-0.04,0.86-0.1,0.86-1.09V3.3z"/>
	<path d="M111,9.64c0.07,0.07,0.07,0.32,0,0.4c-0.4-0.01-0.85-0.02-1.33-0.02c-0.48,0-0.95,0.01-1.34,0.02
		c-0.07-0.07-0.07-0.32,0-0.4c0.73-0.06,0.86-0.1,0.86-1.09V6.21c0-0.68-0.13-0.75-0.78-0.82c-0.02-0.07-0.05-0.26-0.02-0.34
		c0.83-0.11,1.3-0.22,1.64-0.35c0.1,0,0.16,0.04,0.16,0.08c0,0-0.05,0.77-0.05,1.36v2.39C110.14,9.54,110.27,9.59,111,9.64z
		 M109.67,2.25c0.32,0,0.58,0.34,0.58,0.62c0,0.25-0.29,0.58-0.62,0.58c-0.29,0-0.58-0.31-0.58-0.62
		C109.05,2.54,109.38,2.25,109.67,2.25z"/>
	<path d="M117.72,9.64c0.07,0.07,0.07,0.32,0,0.4c-0.44-0.01-0.91-0.02-1.33-0.02c-0.43,0-0.86,0.01-1.28,0.02
		c-0.07-0.07-0.07-0.32,0-0.4c0.66-0.05,0.8-0.1,0.8-1.09V6.18c0-0.61-0.1-0.85-0.47-0.85h-2.15v3.21c0,1,0.12,1.04,0.89,1.09
		c0.07,0.07,0.07,0.32,0,0.4c-0.4-0.01-0.94-0.02-1.36-0.02c-0.42,0-0.85,0.01-1.26,0.02c-0.07-0.07-0.07-0.32,0-0.4
		c0.65-0.05,0.78-0.1,0.78-1.09V5.33h-0.8c-0.05,0-0.06-0.01-0.06-0.07V5.1c0-0.1,0.06-0.24,0.28-0.24h0.59V4.68
		c0-0.94,0.11-1.67,0.61-2.25c0.49-0.57,1.15-0.79,1.7-0.79c1.12,0,2.14,0.57,2.14,1.32c0,0.25-0.25,0.49-0.52,0.49
		c-0.37,0-0.63-0.18-0.74-0.78c-0.1-0.49-0.51-0.62-1.02-0.62c-0.82,0-1.22,1-1.22,2.13v0.68h2.36c0.42,0,0.77-0.01,1.13-0.16
		c0.05,0,0.12,0.02,0.12,0.07c0,0-0.05,0.77-0.05,1.24v2.53C116.86,9.54,116.99,9.59,117.72,9.64z"/>
	<path d="M120.76,10.13c-1.51,0-2.37-1.07-2.37-2.61c0-1.7,1.27-2.77,2.46-2.77c1.15,0,1.83,0.48,1.83,1.14
		c0,0.37-0.34,0.53-0.59,0.53c-0.25,0-0.42-0.11-0.46-0.43c-0.05-0.42-0.14-0.84-0.85-0.84c-0.79,0-1.37,0.79-1.37,2.11
		c0,1.4,0.73,2.29,1.61,2.29c0.52,0,1.03-0.26,1.44-0.79c0.11,0.01,0.2,0.06,0.25,0.17C122.12,9.9,121.48,10.13,120.76,10.13z"/>
	<path d="M126.57,9.43l-0.24,0.19c-0.53,0.41-0.89,0.5-1.31,0.5c-0.84,0-1.51-0.31-1.51-1.3c0-0.82,0.83-1.45,1.98-1.74l1.03-0.25
		c0.04-0.01,0.07-0.06,0.07-0.14c0-1.35-0.56-1.56-0.97-1.56c-0.46,0-0.96,0.13-0.96,0.5c0,0.13,0.01,0.2,0.02,0.24
		c0.02,0.05,0.04,0.13,0.04,0.22c0,0.16-0.22,0.41-0.56,0.41c-0.28,0-0.42-0.14-0.42-0.43c0-0.68,1-1.33,1.98-1.33
		c0.88,0,1.81,0.32,1.81,2.03v1.76c0,0.55,0.01,1.02,0.36,1.02c0.15,0,0.35-0.12,0.44-0.19c0.14,0.08,0.18,0.18,0.2,0.32
		c-0.25,0.24-0.68,0.44-1.14,0.44c-0.6,0-0.73-0.32-0.8-0.7H126.57z M125.64,7.47c-0.89,0.23-1.14,0.78-1.14,1.32
		c0,0.37,0.26,0.85,0.86,0.85c0.34,0,0.74-0.28,1.06-0.53c0.1-0.07,0.17-0.16,0.17-0.31V7.21L125.64,7.47z"/>
	<path d="M129.63,4.86c0-1.33-0.04-1.25-0.04-1.39c0-0.08,0.12-0.12,0.26-0.17c0.15-0.04,0.27-0.09,0.41-0.17
		c0.11-0.06,0.21-0.11,0.27-0.11c0.06,0,0.09,0.03,0.09,0.11c0,0-0.05,0.48-0.05,1.26v0.47h1.44c0.06,0,0.1,0.02,0.1,0.07v0.24
		c0,0.11-0.17,0.16-0.29,0.16h-1.25v3.03c0,0.74,0.07,1.1,0.4,1.1c0.31,0,0.67-0.1,0.98-0.34c0.12,0.01,0.19,0.08,0.22,0.2
		c-0.47,0.53-1.07,0.79-1.62,0.79c-0.55,0-0.92-0.34-0.92-1.19V5.33h-0.71c-0.05,0-0.06-0.01-0.06-0.07V5.1
		c0-0.1,0.05-0.24,0.22-0.24L129.63,4.86z"/>
	<path d="M135.39,9.64c0.07,0.07,0.07,0.32,0,0.4c-0.4-0.01-0.85-0.02-1.33-0.02c-0.48,0-0.95,0.01-1.34,0.02
		c-0.07-0.07-0.07-0.32,0-0.4c0.73-0.06,0.86-0.1,0.86-1.09V6.21c0-0.68-0.13-0.75-0.78-0.82c-0.02-0.07-0.05-0.26-0.02-0.34
		c0.83-0.11,1.3-0.22,1.64-0.35c0.1,0,0.16,0.04,0.16,0.08c0,0-0.05,0.77-0.05,1.36v2.39C134.52,9.54,134.66,9.59,135.39,9.64z
		 M134.06,2.25c0.32,0,0.58,0.34,0.58,0.62c0,0.25-0.29,0.58-0.62,0.58c-0.29,0-0.58-0.31-0.58-0.62
		C133.43,2.54,133.77,2.25,134.06,2.25z"/>
	<path d="M136.76,5.58c0.44-0.52,1.09-0.84,1.88-0.84c1.83,0,2.52,1.45,2.52,2.7c0,0.74-0.24,1.49-0.78,2.01
		c-0.41,0.4-0.99,0.67-1.76,0.67c-1.7,0-2.52-1.36-2.52-2.58C136.1,6.79,136.32,6.09,136.76,5.58z M137.13,7.27
		c0,0.92,0.41,2.43,1.66,2.43c0.56,0,1.34-0.37,1.34-1.88c0-1.73-0.64-2.66-1.67-2.66C137.38,5.16,137.13,6.23,137.13,7.27z"/>
	<path d="M145.83,4.74c0.42,0,0.79,0.14,1,0.41c0.28,0.37,0.32,0.95,0.32,1.61v1.79c0,0.98,0.13,1.03,0.8,1.09
		c0.06,0.07,0.06,0.32,0,0.4c-0.36-0.01-0.79-0.02-1.27-0.02c-0.48,0-0.86,0.01-1.22,0.02c-0.06-0.07-0.06-0.32,0-0.4
		c0.62-0.06,0.74-0.11,0.74-1.09V6.72c0-0.36-0.02-0.68-0.14-0.92c-0.14-0.28-0.4-0.43-0.64-0.43c-0.47,0-1.01,0.26-1.46,0.71
		c-0.1,0.11-0.2,0.25-0.2,0.5v1.97c0,0.98,0.12,1.03,0.73,1.09c0.07,0.07,0.07,0.32,0,0.4c-0.36-0.01-0.72-0.02-1.2-0.02
		c-0.48,0-0.96,0.01-1.32,0.02c-0.07-0.07-0.07-0.32,0-0.4c0.72-0.06,0.84-0.11,0.84-1.09V6.21c0-0.7-0.13-0.76-0.78-0.82
		C142,5.32,141.98,5.13,142,5.06c0.83-0.11,1.14-0.22,1.48-0.35c0.1,0,0.12,0.04,0.14,0.1c0.06,0.12,0.08,0.59,0.1,0.91
		c0,0.11,0.07,0.08,0.14,0C144.57,4.9,145.24,4.74,145.83,4.74z"/>
</g>
<g>
	<path d="M257.1,9.64c0.07,0.07,0.07,0.32,0,0.4c-0.44-0.01-1.04-0.02-1.54-0.02c-0.36,0-0.76,0.01-1.07,0.02
		c-0.07-0.07-0.07-0.32,0-0.4c0.52-0.04,0.89-0.11,1.2-0.85l2.72-6.43c0.16,0,0.48-0.13,0.66-0.24l2.47,6.86
		c0.21,0.58,0.61,0.62,1.08,0.66c0.07,0.07,0.07,0.32,0,0.4c-0.42-0.01-0.88-0.02-1.37-0.02c-0.47,0-1.13,0.01-1.57,0.02
		c-0.07-0.07-0.07-0.32,0-0.4c0.57-0.04,1.03-0.08,0.89-0.49l-0.7-2.03h-2.53c-0.29,0-0.36,0.05-0.42,0.2l-0.66,1.74
		C256.08,9.55,256.65,9.61,257.1,9.64z M259.69,6.61l-1.13-3.26h-0.07l-1.23,3.1c-0.04,0.12,0.04,0.16,0.3,0.16H259.69z"/>
	<path d="M264.85,8.55c0,1,0.13,1.04,0.95,1.09c0.07,0.07,0.07,0.32,0,0.4c-0.48-0.01-1-0.02-1.42-0.02s-0.85,0.01-1.26,0.02
		c-0.07-0.07-0.07-0.32,0-0.4c0.65-0.05,0.78-0.1,0.78-1.09V5.33h-0.83c-0.05,0-0.06-0.01-0.06-0.07V5.1c0-0.1,0.06-0.24,0.28-0.24
		h0.61V4.38c0-1.06,0.1-1.69,0.46-2.17c0.29-0.38,0.84-0.58,1.19-0.58c0.46,0,0.82,0.11,1.06,0.29c0.24,0.18,0.35,0.38,0.35,0.58
		c0,0.25-0.17,0.43-0.4,0.43c-0.24,0-0.38-0.13-0.47-0.34c-0.14-0.35-0.31-0.55-0.65-0.55c-0.19,0-0.44,0.17-0.54,0.46
		c-0.09,0.27-0.05,0.88-0.05,1.68v0.68l2.33,0c0-0.99,0-1.1-0.02-1.38c-0.01-0.08,0.1-0.11,0.17-0.15l0.7-0.32
		c0.11,0,0.16,0.04,0.16,0.12c0,0-0.05,0.48-0.05,1.26v0.47h1.44c0.06,0,0.1,0.02,0.1,0.07v0.24c0,0.11-0.17,0.16-0.29,0.16h-1.25
		v3.03c0,0.74,0.07,1.1,0.4,1.1c0.31,0,0.67-0.1,0.98-0.34c0.12,0.01,0.19,0.08,0.22,0.2c-0.47,0.53-1.07,0.79-1.62,0.79
		s-0.92-0.34-0.92-1.19V5.33h-2.33V8.55z"/>
	<path d="M274.79,9.08c-0.48,0.62-1.13,1.04-2.04,1.04c-0.86,0-1.43-0.29-1.83-0.77c-0.4-0.46-0.56-1.1-0.56-1.78
		c0-1.82,1.35-2.82,2.4-2.82c1.67,0,2.03,1.08,2.03,2.09c0,0.13-0.08,0.2-0.23,0.2l-3.19-0.02c0,0.7,0.14,1.25,0.38,1.64
		c0.37,0.61,0.88,0.86,1.31,0.86c0.7,0,1.04-0.19,1.49-0.65C274.68,8.9,274.75,8.97,274.79,9.08z M273.56,6.59
		c0.13,0,0.18-0.06,0.18-0.17c0-1.01-0.54-1.26-1-1.26c-0.29,0-1.13,0.11-1.36,1.46L273.56,6.59z"/>
	<path d="M277.51,5.74c0.28-0.47,0.77-1,1.33-1c0.5,0,0.72,0.35,0.72,0.58c0,0.3-0.28,0.6-0.56,0.6c-0.21,0-0.34-0.16-0.43-0.28
		c-0.09-0.12-0.2-0.15-0.31-0.15c-0.14,0-0.42,0.4-0.55,0.59c-0.14,0.22-0.29,0.49-0.29,0.8v1.67c0,1,0.14,1.03,0.98,1.09
		c0.07,0.07,0.07,0.32,0,0.4c-0.42-0.01-0.97-0.02-1.45-0.02s-0.95,0.01-1.37,0.02c-0.07-0.07-0.07-0.32,0-0.4
		c0.74-0.05,0.89-0.1,0.89-1.09V6.21c0-0.7-0.13-0.76-0.78-0.82c-0.02-0.07-0.05-0.26-0.02-0.34c0.83-0.11,1.14-0.22,1.48-0.35
		c0.1,0,0.12,0.04,0.14,0.1c0.06,0.12,0.08,0.43,0.1,0.91C277.38,5.77,277.44,5.87,277.51,5.74z"/>
	<path d="M283.68,8.34c0.07,0.3,0.2,0.83,0.47,1.1c0.12,0.13,0.38,0.29,0.85,0.29c0.44,0,1.02-0.25,1.02-0.84
		c0-0.52-0.23-0.77-1.22-1.18c-0.92-0.38-1.32-0.75-1.32-1.63c0-0.77,0.8-1.34,1.69-1.34c0.62,0,1.2,0.17,1.57,0.23
		c-0.01,0.4-0.04,0.84-0.07,1.27c-0.07,0.07-0.31,0.08-0.38,0.01c-0.16-1.02-0.85-1.12-1.12-1.12c-0.41,0-0.84,0.28-0.84,0.77
		c0,0.66,0.48,0.85,1.2,1.11c0.82,0.3,1.4,0.78,1.4,1.6c0,1.19-1.24,1.51-1.91,1.51c-0.44,0-0.77-0.05-1.09-0.13
		c-0.08-0.02-0.16-0.02-0.24-0.02c-0.06,0-0.18,0.01-0.3,0.04c0-0.5-0.04-1.07-0.08-1.66C283.38,8.28,283.61,8.27,283.68,8.34z"/>
	<path d="M290.45,9.64c0.07,0.07,0.07,0.32,0,0.4c-0.4-0.01-0.85-0.02-1.33-0.02s-0.95,0.01-1.34,0.02c-0.07-0.07-0.07-0.32,0-0.4
		c0.73-0.06,0.86-0.1,0.86-1.09V6.21c0-0.68-0.13-0.75-0.78-0.82c-0.02-0.07-0.05-0.26-0.02-0.34c0.83-0.11,1.3-0.22,1.64-0.35
		c0.1,0,0.16,0.04,0.16,0.08c0,0-0.05,0.77-0.05,1.36v2.39C289.58,9.54,289.71,9.59,290.45,9.64z M289.11,2.25
		c0.32,0,0.58,0.34,0.58,0.62c0,0.25-0.29,0.58-0.62,0.58c-0.29,0-0.58-0.31-0.58-0.62C288.49,2.54,288.83,2.25,289.11,2.25z"/>
	<path d="M292.85,5.71c0.5-0.56,1.13-0.97,1.82-0.97c0.62,0,1.09,0.39,1.2,0.88c0.02,0.1,0.1,0.04,0.13,0
		c0.62-0.66,1.37-0.88,1.98-0.88c1.06,0,1.24,0.84,1.24,1.91v1.9c0,0.98,0.11,1.04,0.77,1.09c0.06,0.07,0.06,0.32,0,0.4
		c-0.34-0.01-0.76-0.02-1.24-0.02s-0.92,0.01-1.22,0.02c-0.06-0.07-0.06-0.32,0-0.4c0.62-0.05,0.74-0.11,0.74-1.09V6.43
		c0-0.8-0.26-1.07-0.72-1.07c-0.47,0-1.01,0.16-1.58,0.79c0.01,0.14,0.01,0.31,0.01,0.48v1.91c0,0.98,0.11,1.04,0.71,1.09
		c0.06,0.07,0.06,0.32,0,0.4c-0.3-0.01-0.7-0.02-1.17-0.02s-0.92,0.01-1.22,0.02c-0.06-0.07-0.06-0.32,0-0.4
		c0.65-0.05,0.74-0.11,0.74-1.09V6.46c0-0.8-0.34-1.09-0.79-1.09c-0.37,0-0.82,0.24-1.29,0.71c-0.1,0.1-0.2,0.25-0.2,0.5v1.97
		c0,0.98,0.13,1.03,0.74,1.09c0.07,0.07,0.07,0.32,0,0.4c-0.36-0.01-0.73-0.02-1.21-0.02s-0.94,0.01-1.29,0.02
		c-0.07-0.07-0.07-0.32,0-0.4c0.66-0.05,0.82-0.11,0.82-1.09V6.21c0-0.7-0.13-0.76-0.78-0.82c-0.02-0.07-0.05-0.26-0.02-0.34
		c0.83-0.11,1.14-0.22,1.47-0.35c0.1,0,0.12,0.04,0.14,0.1c0.06,0.12,0.08,0.56,0.1,0.91C292.71,5.86,292.79,5.78,292.85,5.71z"/>
	<path d="M302.15,5.64c0.47-0.53,1.08-0.9,1.64-0.9c1.22,0,2.12,1.17,2.12,2.45c0,0.97-0.32,1.71-0.89,2.27
		c-0.49,0.47-1.09,0.67-1.76,0.67c-0.38,0-0.75-0.07-1.04-0.19c-0.12-0.05-0.17-0.07-0.17,0.09v1.29c0,1,0.13,1.04,0.98,1.09
		c0.07,0.07,0.07,0.32,0,0.4c-0.4-0.01-0.97-0.02-1.45-0.02c-0.48,0-0.92,0.01-1.34,0.02c-0.07-0.07-0.07-0.32,0-0.4
		c0.73-0.04,0.86-0.1,0.86-1.09V6.21c0-0.7-0.13-0.76-0.78-0.82c-0.02-0.07-0.05-0.26-0.02-0.34c0.83-0.11,1.14-0.22,1.48-0.35
		c0.1,0,0.12,0.04,0.14,0.1c0.06,0.12,0.08,0.43,0.1,0.79C302.02,5.71,302.08,5.72,302.15,5.64z M302.05,6.57v2.18
		c0,0.43,0.05,0.5,0.29,0.72c0.22,0.19,0.64,0.25,0.85,0.25c1.34,0,1.69-1.22,1.69-2.21c0-1.36-0.66-2.22-1.43-2.22
		c-0.35,0-0.9,0.36-1.21,0.74C302.1,6.21,302.05,6.31,302.05,6.57z"/>
	<path d="M307.51,3.3c0-0.9-0.07-0.94-0.77-0.98c-0.07-0.07-0.1-0.26-0.07-0.36c0.48-0.04,1.38-0.2,1.68-0.32
		c0.11,0,0.16,0.04,0.16,0.12c0,0-0.05,0.48-0.05,1.26v5.53c0,1,0.13,1.05,0.86,1.09c0.07,0.07,0.07,0.32,0,0.4
		c-0.4-0.01-0.85-0.02-1.33-0.02s-0.92,0.01-1.34,0.02c-0.07-0.07-0.07-0.32,0-0.4c0.73-0.04,0.86-0.1,0.86-1.09V3.3z"/>
	<path d="M312.57,9.64c0.07,0.07,0.07,0.32,0,0.4c-0.4-0.01-0.85-0.02-1.33-0.02s-0.95,0.01-1.34,0.02c-0.07-0.07-0.07-0.32,0-0.4
		c0.73-0.06,0.86-0.1,0.86-1.09V6.21c0-0.68-0.13-0.75-0.78-0.82c-0.02-0.07-0.05-0.26-0.02-0.34c0.83-0.11,1.3-0.22,1.64-0.35
		c0.1,0,0.16,0.04,0.16,0.08c0,0-0.05,0.77-0.05,1.36v2.39C311.71,9.54,311.84,9.59,312.57,9.64z M311.24,2.25
		c0.32,0,0.58,0.34,0.58,0.62c0,0.25-0.29,0.58-0.62,0.58c-0.29,0-0.58-0.31-0.58-0.62C310.62,2.54,310.95,2.25,311.24,2.25z"/>
	<path d="M319.29,9.64c0.07,0.07,0.07,0.32,0,0.4c-0.44-0.01-0.91-0.02-1.33-0.02c-0.43,0-0.86,0.01-1.28,0.02
		c-0.07-0.07-0.07-0.32,0-0.4c0.66-0.05,0.8-0.1,0.8-1.09V6.18c0-0.61-0.1-0.85-0.47-0.85h-2.15v3.21c0,1,0.12,1.04,0.89,1.09
		c0.07,0.07,0.07,0.32,0,0.4c-0.4-0.01-0.94-0.02-1.36-0.02c-0.42,0-0.85,0.01-1.26,0.02c-0.07-0.07-0.07-0.32,0-0.4
		c0.65-0.05,0.78-0.1,0.78-1.09V5.33h-0.8c-0.05,0-0.06-0.01-0.06-0.07V5.1c0-0.1,0.06-0.24,0.28-0.24h0.59V4.68
		c0-0.94,0.11-1.67,0.61-2.25c0.49-0.57,1.15-0.79,1.7-0.79c1.12,0,2.13,0.57,2.13,1.32c0,0.25-0.25,0.49-0.52,0.49
		c-0.37,0-0.63-0.18-0.74-0.78c-0.1-0.49-0.51-0.62-1.02-0.62c-0.82,0-1.22,1-1.22,2.13v0.68h2.36c0.42,0,0.77-0.01,1.13-0.16
		c0.05,0,0.12,0.02,0.12,0.07c0,0-0.05,0.77-0.05,1.24v2.53C318.43,9.54,318.56,9.59,319.29,9.64z"/>
	<path d="M322.33,10.13c-1.51,0-2.37-1.07-2.37-2.61c0-1.7,1.27-2.77,2.46-2.77c1.15,0,1.83,0.48,1.83,1.14
		c0,0.37-0.34,0.53-0.59,0.53c-0.25,0-0.42-0.11-0.46-0.43c-0.05-0.42-0.14-0.84-0.85-0.84c-0.79,0-1.37,0.79-1.37,2.11
		c0,1.4,0.73,2.29,1.61,2.29c0.52,0,1.03-0.26,1.44-0.79c0.11,0.01,0.2,0.06,0.25,0.17C323.69,9.9,323.05,10.13,322.33,10.13z"/>
	<path d="M328.14,9.43l-0.24,0.19c-0.53,0.41-0.89,0.5-1.31,0.5c-0.84,0-1.51-0.31-1.51-1.3c0-0.82,0.83-1.45,1.98-1.74l1.03-0.25
		c0.04-0.01,0.07-0.06,0.07-0.14c0-1.35-0.56-1.56-0.97-1.56c-0.46,0-0.96,0.13-0.96,0.5c0,0.13,0.01,0.2,0.02,0.24
		c0.02,0.05,0.04,0.13,0.04,0.22c0,0.16-0.22,0.41-0.56,0.41c-0.28,0-0.42-0.14-0.42-0.43c0-0.68,1-1.33,1.98-1.33
		c0.88,0,1.81,0.32,1.81,2.03v1.76c0,0.55,0.01,1.02,0.36,1.02c0.15,0,0.35-0.12,0.44-0.19c0.14,0.08,0.18,0.18,0.2,0.32
		c-0.25,0.24-0.68,0.44-1.14,0.44c-0.6,0-0.73-0.32-0.8-0.7H328.14z M327.21,7.47c-0.89,0.23-1.14,0.78-1.14,1.32
		c0,0.37,0.26,0.85,0.86,0.85c0.34,0,0.74-0.28,1.06-0.53c0.1-0.07,0.17-0.16,0.17-0.31V7.21L327.21,7.47z"/>
	<path d="M331.2,4.86c0-1.33-0.04-1.25-0.04-1.39c0-0.08,0.12-0.12,0.26-0.17c0.15-0.04,0.27-0.09,0.41-0.17
		c0.11-0.06,0.21-0.11,0.27-0.11c0.06,0,0.09,0.03,0.09,0.11c0,0-0.05,0.48-0.05,1.26v0.47h1.44c0.06,0,0.1,0.02,0.1,0.07v0.24
		c0,0.11-0.17,0.16-0.29,0.16h-1.25v3.03c0,0.74,0.07,1.1,0.4,1.1c0.31,0,0.67-0.1,0.98-0.34c0.12,0.01,0.19,0.08,0.22,0.2
		c-0.47,0.53-1.07,0.79-1.62,0.79s-0.92-0.34-0.92-1.19V5.33h-0.71c-0.05,0-0.06-0.01-0.06-0.07V5.1c0-0.1,0.05-0.24,0.22-0.24
		L331.2,4.86z"/>
	<path d="M336.96,9.64c0.07,0.07,0.07,0.32,0,0.4c-0.4-0.01-0.85-0.02-1.33-0.02c-0.48,0-0.95,0.01-1.34,0.02
		c-0.07-0.07-0.07-0.32,0-0.4c0.73-0.06,0.86-0.1,0.86-1.09V6.21c0-0.68-0.13-0.75-0.78-0.82c-0.02-0.07-0.05-0.26-0.02-0.34
		c0.83-0.11,1.3-0.22,1.64-0.35c0.1,0,0.16,0.04,0.16,0.08c0,0-0.05,0.77-0.05,1.36v2.39C336.09,9.54,336.23,9.59,336.96,9.64z
		 M335.63,2.25c0.32,0,0.58,0.34,0.58,0.62c0,0.25-0.29,0.58-0.62,0.58c-0.29,0-0.58-0.31-0.58-0.62
		C335,2.54,335.34,2.25,335.63,2.25z"/>
	<path d="M338.33,5.58c0.44-0.52,1.09-0.84,1.88-0.84c1.83,0,2.52,1.45,2.52,2.7c0,0.74-0.24,1.49-0.78,2.01
		c-0.41,0.4-0.99,0.67-1.76,0.67c-1.7,0-2.52-1.36-2.52-2.58C337.67,6.79,337.9,6.09,338.33,5.58z M338.7,7.27
		c0,0.92,0.41,2.43,1.66,2.43c0.56,0,1.34-0.37,1.34-1.88c0-1.73-0.64-2.66-1.67-2.66C338.95,5.16,338.7,6.23,338.7,7.27z"/>
	<path d="M347.4,4.74c0.42,0,0.79,0.14,1,0.41c0.28,0.37,0.32,0.95,0.32,1.61v1.79c0,0.98,0.13,1.03,0.8,1.09
		c0.06,0.07,0.06,0.32,0,0.4c-0.36-0.01-0.79-0.02-1.27-0.02c-0.48,0-0.86,0.01-1.22,0.02c-0.06-0.07-0.06-0.32,0-0.4
		c0.62-0.06,0.74-0.11,0.74-1.09V6.72c0-0.36-0.02-0.68-0.14-0.92c-0.14-0.28-0.4-0.43-0.64-0.43c-0.47,0-1.01,0.26-1.46,0.71
		c-0.1,0.11-0.2,0.25-0.2,0.5v1.97c0,0.98,0.12,1.03,0.73,1.09c0.07,0.07,0.07,0.32,0,0.4c-0.36-0.01-0.72-0.02-1.2-0.02
		s-0.96,0.01-1.32,0.02c-0.07-0.07-0.07-0.32,0-0.4c0.72-0.06,0.84-0.11,0.84-1.09V6.21c0-0.7-0.13-0.76-0.78-0.82
		c-0.02-0.07-0.05-0.26-0.02-0.34c0.83-0.11,1.14-0.22,1.47-0.35c0.1,0,0.12,0.04,0.14,0.1c0.06,0.12,0.08,0.59,0.1,0.91
		c0,0.11,0.07,0.08,0.14,0C346.14,4.9,346.81,4.74,347.4,4.74z"/>
</g>
<g>
	<defs>
		<rect id="SVGID_1_" x="65.78" y="30.73" width="10.04" height="10.2"/>
	</defs>
	<clipPath id="SVGID_2_">
		<use xlink:href="#SVGID_1_"  style="overflow:visible;"/>
	</clipPath>
	<g class="st5">
		<path class="st2" d="M69.72,34.6c0.08,0.11,0.15,0.24,0.19,0.39c0.05,0.15,0.07,0.31,0.07,0.48c0,0.25-0.04,0.47-0.13,0.68
			c-0.08,0.2-0.2,0.38-0.36,0.52s-0.34,0.26-0.55,0.34c-0.22,0.08-0.45,0.12-0.71,0.12c-0.19,0-0.36-0.02-0.53-0.06
			c-0.16-0.04-0.29-0.1-0.39-0.16c-0.06,0.09-0.1,0.17-0.14,0.25s-0.06,0.17-0.06,0.27c0,0.12,0.05,0.22,0.16,0.3
			s0.25,0.12,0.43,0.13l1.18,0.05c0.22,0.01,0.43,0.04,0.62,0.09c0.19,0.05,0.35,0.13,0.49,0.23c0.13,0.1,0.24,0.23,0.32,0.38
			c0.08,0.15,0.11,0.32,0.11,0.52c0,0.21-0.04,0.41-0.13,0.6c-0.09,0.19-0.22,0.36-0.4,0.5s-0.41,0.26-0.68,0.34
			s-0.6,0.13-0.98,0.13c-0.36,0-0.67-0.03-0.92-0.09c-0.25-0.06-0.46-0.15-0.63-0.26c-0.16-0.11-0.28-0.24-0.36-0.39
			s-0.11-0.32-0.11-0.5c0-0.23,0.05-0.43,0.15-0.61c0.1-0.17,0.26-0.34,0.47-0.5c-0.08-0.04-0.14-0.09-0.2-0.14
			c-0.06-0.06-0.1-0.12-0.14-0.19c-0.04-0.07-0.06-0.14-0.08-0.22c-0.02-0.08-0.03-0.15-0.03-0.22c0-0.21,0.04-0.39,0.14-0.56
			s0.2-0.33,0.32-0.48c-0.06-0.07-0.11-0.14-0.15-0.21c-0.04-0.07-0.08-0.15-0.11-0.23s-0.06-0.17-0.07-0.26
			c-0.02-0.09-0.02-0.2-0.02-0.32c0-0.25,0.04-0.47,0.13-0.68c0.08-0.2,0.2-0.38,0.36-0.52c0.15-0.15,0.34-0.26,0.55-0.34
			c0.22-0.08,0.45-0.12,0.71-0.12c0.11,0,0.22,0.01,0.32,0.02c0.1,0.02,0.19,0.04,0.27,0.06h1.62v0.67H69.72z M67.02,39.38
			c0,0.22,0.11,0.39,0.33,0.49c0.22,0.1,0.53,0.15,0.92,0.15c0.25,0,0.45-0.02,0.62-0.07c0.17-0.05,0.3-0.11,0.41-0.19
			s0.18-0.17,0.22-0.27s0.07-0.2,0.07-0.31c0-0.19-0.07-0.34-0.22-0.43c-0.15-0.09-0.38-0.15-0.68-0.16l-1.17-0.04
			c-0.1,0.07-0.18,0.14-0.24,0.2c-0.06,0.07-0.11,0.13-0.15,0.2c-0.04,0.07-0.06,0.14-0.08,0.2C67.03,39.24,67.02,39.31,67.02,39.38
			z M67.26,35.48c0,0.15,0.02,0.29,0.07,0.42c0.05,0.13,0.11,0.23,0.2,0.32c0.09,0.09,0.19,0.16,0.31,0.21
			c0.12,0.05,0.25,0.07,0.39,0.07c0.15,0,0.29-0.03,0.41-0.08c0.12-0.06,0.22-0.13,0.3-0.23c0.08-0.09,0.14-0.2,0.19-0.33
			c0.04-0.12,0.06-0.25,0.06-0.38c0-0.15-0.02-0.29-0.07-0.42c-0.05-0.13-0.11-0.23-0.2-0.32c-0.09-0.09-0.19-0.16-0.31-0.21
			c-0.12-0.05-0.25-0.07-0.39-0.07c-0.15,0-0.29,0.03-0.41,0.09c-0.12,0.06-0.22,0.13-0.3,0.23c-0.08,0.09-0.14,0.2-0.19,0.33
			S67.26,35.35,67.26,35.48z"/>
		<path class="st2" d="M75.24,38.69h-3.66v-0.77h1.5V33.4l-1.4,0.81l-0.29-0.7l1.85-1.04h0.69v5.46h1.3V38.69z"/>
	</g>
</g>
<g>
	<defs>
		<rect id="SVGID_3_" x="295.95" y="55.06" width="26.71" height="15.74"/>
	</defs>
	<clipPath id="SVGID_4_">
		<use xlink:href="#SVGID_3_"  style="overflow:visible;"/>
	</clipPath>
	<g class="st6">
		<path class="st2" d="M301.28,59.64c0.05,0.12,0.08,0.26,0.09,0.4c0.01,0.14-0.01,0.29-0.05,0.45c-0.06,0.22-0.16,0.42-0.29,0.58
			c-0.13,0.16-0.29,0.29-0.47,0.38c-0.18,0.09-0.39,0.15-0.62,0.17c-0.23,0.02-0.47-0.01-0.72-0.08c-0.18-0.05-0.34-0.11-0.49-0.19
			c-0.15-0.08-0.26-0.16-0.34-0.25c-0.08,0.07-0.14,0.13-0.2,0.19c-0.06,0.06-0.1,0.14-0.12,0.23c-0.03,0.11,0,0.21,0.08,0.31
			s0.21,0.18,0.38,0.23l1.12,0.35c0.21,0.06,0.41,0.14,0.57,0.24c0.17,0.1,0.31,0.21,0.41,0.34c0.11,0.13,0.18,0.27,0.21,0.42
			c0.04,0.15,0.03,0.32-0.01,0.5c-0.05,0.19-0.14,0.36-0.27,0.51c-0.13,0.15-0.3,0.27-0.51,0.35c-0.21,0.08-0.46,0.13-0.75,0.14
			c-0.29,0.01-0.62-0.04-0.98-0.14c-0.35-0.09-0.64-0.2-0.87-0.32c-0.23-0.12-0.41-0.25-0.54-0.4c-0.13-0.14-0.21-0.29-0.25-0.44
			c-0.03-0.16-0.03-0.32,0.01-0.48c0.06-0.21,0.16-0.38,0.29-0.51c0.14-0.13,0.33-0.24,0.57-0.33c-0.07-0.05-0.12-0.12-0.16-0.18
			c-0.04-0.07-0.07-0.13-0.09-0.21c-0.02-0.07-0.03-0.14-0.03-0.22c0-0.07,0.01-0.14,0.03-0.21c0.05-0.19,0.14-0.35,0.27-0.48
			c0.13-0.13,0.27-0.25,0.43-0.36c-0.04-0.08-0.07-0.16-0.09-0.23c-0.02-0.08-0.04-0.15-0.05-0.23s-0.01-0.17-0.01-0.26
			c0.01-0.09,0.03-0.19,0.05-0.3c0.06-0.22,0.16-0.42,0.29-0.58c0.13-0.16,0.29-0.29,0.47-0.38c0.18-0.09,0.39-0.15,0.62-0.17
			c0.23-0.02,0.47,0.01,0.72,0.08c0.11,0.03,0.21,0.06,0.3,0.1c0.09,0.04,0.17,0.08,0.24,0.12l1.57,0.42l-0.16,0.61L301.28,59.64z
			 M297.52,63.28c-0.05,0.2,0.01,0.38,0.2,0.53c0.19,0.15,0.47,0.28,0.85,0.38c0.24,0.06,0.44,0.09,0.62,0.1
			c0.17,0,0.32-0.02,0.44-0.06s0.21-0.11,0.28-0.18c0.07-0.08,0.11-0.17,0.14-0.26c0.05-0.18,0.01-0.32-0.11-0.45
			s-0.33-0.23-0.62-0.32l-1.12-0.34c-0.11,0.04-0.21,0.08-0.29,0.12c-0.08,0.04-0.14,0.09-0.19,0.14c-0.05,0.05-0.09,0.11-0.12,0.17
			C297.56,63.16,297.53,63.22,297.52,63.28z M298.69,59.81c-0.04,0.14-0.05,0.27-0.03,0.4s0.05,0.24,0.11,0.34
			c0.06,0.1,0.14,0.19,0.25,0.27c0.1,0.08,0.22,0.13,0.36,0.17c0.15,0.04,0.29,0.05,0.42,0.03c0.13-0.02,0.25-0.06,0.35-0.12
			c0.1-0.07,0.19-0.15,0.26-0.25c0.07-0.1,0.12-0.21,0.16-0.33c0.04-0.14,0.05-0.27,0.03-0.4c-0.01-0.13-0.05-0.24-0.11-0.34
			s-0.14-0.19-0.25-0.27c-0.1-0.07-0.22-0.13-0.36-0.17c-0.15-0.04-0.29-0.05-0.42-0.03s-0.25,0.06-0.35,0.13
			c-0.1,0.06-0.19,0.15-0.26,0.25C298.78,59.58,298.72,59.69,298.69,59.81z"/>
		<path class="st2" d="M305.62,64.78l-3.53-0.95l0.19-0.7l1.45,0.39l1.1-4.11l-1.54,0.37l-0.11-0.71l2.04-0.46l0.66,0.18l-1.33,4.95
			l1.26,0.34L305.62,64.78z"/>
		<path class="st2" d="M311.28,62.42l-0.43,0.43l-1-1.12l-0.3,1.5l-0.62-0.17l0.49-1.45l-1.45,0.47l-0.14-0.58l1.5-0.3l-1.14-1.02
			l0.43-0.42l1,1.14l0.29-1.5l0.62,0.17l-0.5,1.44l1.44-0.5l0.16,0.61l-1.5,0.3L311.28,62.42z"/>
		<path class="st2" d="M315.82,63.54c0.05,0.12,0.08,0.25,0.09,0.4c0.01,0.15-0.01,0.29-0.05,0.45c-0.06,0.22-0.16,0.42-0.29,0.58
			c-0.13,0.16-0.29,0.29-0.47,0.38s-0.39,0.15-0.62,0.16c-0.23,0.02-0.47-0.01-0.72-0.07c-0.18-0.05-0.34-0.11-0.49-0.19
			c-0.15-0.08-0.26-0.16-0.34-0.25c-0.08,0.07-0.14,0.13-0.2,0.19c-0.06,0.06-0.1,0.14-0.12,0.23c-0.03,0.11,0,0.21,0.08,0.31
			c0.09,0.1,0.21,0.17,0.38,0.23l1.12,0.35c0.21,0.06,0.41,0.14,0.57,0.24c0.17,0.1,0.31,0.21,0.41,0.34
			c0.11,0.13,0.18,0.27,0.21,0.42c0.04,0.16,0.03,0.32-0.02,0.5c-0.05,0.19-0.14,0.36-0.27,0.51c-0.13,0.15-0.3,0.27-0.51,0.35
			c-0.21,0.09-0.46,0.13-0.75,0.14c-0.29,0.01-0.62-0.04-0.98-0.14c-0.35-0.09-0.64-0.2-0.87-0.32c-0.23-0.12-0.41-0.25-0.54-0.4
			c-0.13-0.14-0.21-0.29-0.25-0.44c-0.04-0.16-0.03-0.32,0.01-0.48c0.06-0.21,0.15-0.38,0.29-0.51s0.33-0.24,0.57-0.33
			c-0.07-0.05-0.12-0.12-0.16-0.18s-0.07-0.13-0.09-0.21c-0.02-0.07-0.03-0.14-0.03-0.22c0-0.07,0.01-0.14,0.03-0.21
			c0.05-0.19,0.14-0.35,0.27-0.48c0.13-0.13,0.27-0.25,0.43-0.36c-0.04-0.08-0.07-0.16-0.09-0.23c-0.03-0.08-0.04-0.15-0.05-0.23
			c-0.01-0.08-0.01-0.17-0.01-0.25s0.02-0.19,0.05-0.3c0.06-0.22,0.16-0.42,0.29-0.58c0.13-0.16,0.29-0.29,0.47-0.38
			c0.18-0.09,0.39-0.15,0.62-0.17s0.47,0.01,0.72,0.08c0.11,0.03,0.21,0.06,0.3,0.1c0.09,0.04,0.18,0.08,0.24,0.12l1.57,0.42
			l-0.16,0.61L315.82,63.54z M312.06,67.18c-0.05,0.2,0.01,0.38,0.2,0.53c0.19,0.15,0.47,0.28,0.85,0.38
			c0.24,0.06,0.44,0.1,0.62,0.1c0.17,0,0.32-0.02,0.44-0.06c0.12-0.04,0.21-0.11,0.28-0.19c0.07-0.08,0.11-0.17,0.14-0.26
			c0.05-0.17,0.01-0.32-0.11-0.45c-0.12-0.12-0.33-0.23-0.62-0.32l-1.12-0.34c-0.11,0.04-0.21,0.08-0.28,0.12s-0.14,0.09-0.19,0.14
			c-0.05,0.05-0.09,0.11-0.12,0.17C312.1,67.05,312.07,67.11,312.06,67.18z M313.23,63.7c-0.04,0.14-0.05,0.27-0.03,0.4
			c0.01,0.13,0.05,0.24,0.11,0.34c0.06,0.1,0.14,0.19,0.25,0.27c0.1,0.08,0.22,0.13,0.36,0.17c0.15,0.04,0.29,0.05,0.42,0.03
			c0.13-0.02,0.25-0.06,0.35-0.12c0.1-0.07,0.19-0.15,0.26-0.25s0.12-0.21,0.16-0.33c0.04-0.14,0.05-0.27,0.03-0.4
			c-0.01-0.13-0.05-0.24-0.12-0.34c-0.06-0.1-0.14-0.19-0.25-0.27c-0.1-0.08-0.22-0.13-0.36-0.17c-0.15-0.04-0.29-0.05-0.42-0.03
			c-0.13,0.02-0.25,0.06-0.35,0.12c-0.1,0.06-0.19,0.15-0.26,0.25S313.26,63.58,313.23,63.7z"/>
		<path class="st2" d="M320.82,67.52l-0.96-0.26l-0.33,1.24l-0.77-0.21l0.33-1.24l-2.71-0.73l0.18-0.66l3.39-3.08l1.08,0.29l-1,3.72
			l0.96,0.26L320.82,67.52z M320.07,63.4l-2.76,2.48l1.96,0.52L320.07,63.4z"/>
	</g>
</g>
<g>
	<defs>
		<rect id="SVGID_5_" x="65.78" y="65.22" width="10.04" height="9.57"/>
	</defs>
	<clipPath id="SVGID_6_">
		<use xlink:href="#SVGID_5_"  style="overflow:visible;"/>
	</clipPath>
	<g class="st7">
		<path class="st2" d="M69.72,68.85c0.08,0.1,0.15,0.22,0.19,0.36c0.05,0.14,0.07,0.29,0.07,0.45c0,0.23-0.04,0.44-0.13,0.64
			c-0.08,0.19-0.2,0.36-0.36,0.49s-0.34,0.24-0.55,0.32s-0.45,0.11-0.71,0.11c-0.19,0-0.36-0.02-0.53-0.06
			c-0.16-0.04-0.29-0.09-0.39-0.15c-0.06,0.08-0.1,0.16-0.14,0.24s-0.06,0.16-0.06,0.25c0,0.11,0.05,0.21,0.16,0.28
			s0.25,0.11,0.43,0.12l1.18,0.04c0.22,0.01,0.43,0.03,0.62,0.08c0.19,0.05,0.35,0.12,0.49,0.22c0.13,0.09,0.24,0.21,0.32,0.35
			c0.08,0.14,0.11,0.3,0.11,0.49c0,0.2-0.04,0.39-0.13,0.57c-0.09,0.18-0.22,0.33-0.4,0.47c-0.18,0.14-0.41,0.24-0.68,0.32
			s-0.6,0.12-0.98,0.12c-0.36,0-0.67-0.03-0.92-0.09c-0.25-0.06-0.46-0.14-0.63-0.24s-0.28-0.22-0.36-0.37
			c-0.07-0.14-0.11-0.3-0.11-0.47c0-0.22,0.05-0.41,0.15-0.57c0.1-0.16,0.26-0.32,0.47-0.47c-0.08-0.04-0.14-0.08-0.2-0.13
			c-0.06-0.05-0.1-0.11-0.14-0.18c-0.04-0.06-0.06-0.13-0.08-0.2c-0.02-0.07-0.03-0.14-0.03-0.21c0-0.19,0.04-0.37,0.14-0.53
			c0.09-0.16,0.2-0.31,0.32-0.45c-0.06-0.07-0.11-0.14-0.15-0.2c-0.04-0.07-0.08-0.14-0.11-0.21c-0.03-0.08-0.06-0.16-0.07-0.25
			c-0.02-0.09-0.02-0.19-0.02-0.3c0-0.23,0.04-0.44,0.13-0.63c0.08-0.19,0.2-0.36,0.36-0.49c0.15-0.14,0.34-0.24,0.55-0.32
			c0.22-0.08,0.45-0.11,0.71-0.11c0.11,0,0.22,0.01,0.32,0.02c0.1,0.01,0.19,0.03,0.27,0.06h1.62v0.63H69.72z M67.02,73.34
			c0,0.21,0.11,0.36,0.33,0.46c0.22,0.1,0.53,0.14,0.92,0.14c0.25,0,0.45-0.02,0.62-0.07c0.17-0.04,0.3-0.1,0.41-0.18
			c0.1-0.07,0.18-0.16,0.22-0.25s0.07-0.19,0.07-0.29c0-0.18-0.07-0.32-0.22-0.4c-0.15-0.09-0.38-0.14-0.68-0.15l-1.17-0.04
			c-0.1,0.07-0.18,0.13-0.24,0.19s-0.11,0.13-0.15,0.19c-0.04,0.06-0.06,0.13-0.08,0.19C67.03,73.21,67.02,73.27,67.02,73.34z
			 M67.26,69.68c0,0.14,0.02,0.27,0.07,0.39s0.11,0.22,0.2,0.3c0.09,0.08,0.19,0.15,0.31,0.19c0.12,0.05,0.25,0.07,0.39,0.07
			c0.15,0,0.29-0.03,0.41-0.08c0.12-0.05,0.22-0.12,0.3-0.21s0.14-0.19,0.19-0.31c0.04-0.12,0.06-0.24,0.06-0.36
			c0-0.14-0.02-0.27-0.07-0.39c-0.05-0.12-0.11-0.22-0.2-0.3s-0.19-0.15-0.31-0.19c-0.12-0.05-0.25-0.07-0.39-0.07
			c-0.15,0-0.29,0.03-0.41,0.08c-0.12,0.05-0.22,0.12-0.3,0.21c-0.08,0.09-0.14,0.19-0.19,0.31S67.26,69.55,67.26,69.68z"/>
		<path class="st2" d="M75.18,70.92c0,0.25-0.05,0.5-0.16,0.72c-0.1,0.22-0.26,0.42-0.47,0.59c-0.21,0.17-0.47,0.3-0.78,0.4
			s-0.68,0.14-1.1,0.14c-0.23,0-0.44-0.01-0.62-0.02c-0.18-0.02-0.36-0.03-0.52-0.06V72c0.18,0.03,0.38,0.06,0.58,0.08
			s0.41,0.03,0.63,0.03c0.29,0,0.54-0.03,0.75-0.08c0.21-0.05,0.38-0.13,0.51-0.22c0.13-0.1,0.23-0.22,0.29-0.36
			c0.06-0.14,0.09-0.3,0.09-0.47c0-0.16-0.04-0.3-0.11-0.42c-0.07-0.12-0.17-0.22-0.3-0.3s-0.28-0.14-0.46-0.18
			s-0.38-0.06-0.59-0.06h-0.66v-0.64h0.67c0.18,0,0.33-0.02,0.48-0.07s0.27-0.11,0.37-0.2c0.1-0.09,0.18-0.19,0.24-0.32
			c0.06-0.13,0.08-0.27,0.08-0.43c0-0.31-0.1-0.54-0.29-0.68s-0.47-0.21-0.84-0.21c-0.2,0-0.4,0.02-0.61,0.06
			c-0.21,0.04-0.43,0.1-0.67,0.17v-0.68c0.1-0.04,0.21-0.07,0.32-0.1s0.23-0.05,0.34-0.07c0.11-0.02,0.23-0.03,0.34-0.04
			c0.11-0.01,0.22-0.02,0.33-0.02c0.31,0,0.58,0.03,0.82,0.1c0.23,0.07,0.43,0.16,0.59,0.29c0.16,0.12,0.28,0.28,0.36,0.46
			c0.08,0.18,0.12,0.38,0.12,0.6c0,0.33-0.09,0.61-0.26,0.84c-0.17,0.23-0.4,0.41-0.7,0.54c0.15,0.02,0.3,0.07,0.45,0.14
			s0.28,0.16,0.4,0.27c0.12,0.11,0.21,0.24,0.29,0.39C75.14,70.57,75.18,70.74,75.18,70.92z"/>
	</g>
</g>
<g>
	<defs>
		<rect id="SVGID_7_" x="130.36" y="27.55" width="10.04" height="9.57"/>
	</defs>
	<clipPath id="SVGID_8_">
		<use xlink:href="#SVGID_7_"  style="overflow:visible;"/>
	</clipPath>
	<g class="st8">
		<path class="st2" d="M134.29,31.18c0.08,0.1,0.15,0.23,0.19,0.36c0.05,0.14,0.07,0.29,0.07,0.45c0,0.23-0.04,0.44-0.13,0.64
			c-0.08,0.19-0.2,0.36-0.36,0.49s-0.34,0.24-0.55,0.32c-0.22,0.08-0.45,0.11-0.71,0.11c-0.19,0-0.36-0.02-0.53-0.06
			c-0.16-0.04-0.29-0.09-0.39-0.15c-0.06,0.08-0.1,0.16-0.14,0.24s-0.06,0.16-0.06,0.25c0,0.11,0.05,0.21,0.16,0.28
			s0.25,0.11,0.43,0.12l1.18,0.04c0.22,0.01,0.43,0.03,0.62,0.08c0.19,0.05,0.35,0.12,0.49,0.22c0.13,0.1,0.24,0.21,0.32,0.35
			c0.08,0.14,0.11,0.3,0.11,0.49c0,0.2-0.04,0.39-0.13,0.57c-0.09,0.18-0.22,0.33-0.4,0.47s-0.41,0.24-0.68,0.32
			c-0.28,0.08-0.6,0.12-0.98,0.12c-0.36,0-0.67-0.03-0.92-0.09c-0.25-0.06-0.46-0.14-0.63-0.24s-0.28-0.22-0.36-0.37
			s-0.11-0.3-0.11-0.47c0-0.22,0.05-0.41,0.15-0.57c0.1-0.16,0.26-0.32,0.47-0.47c-0.08-0.04-0.14-0.08-0.2-0.13
			c-0.06-0.05-0.1-0.11-0.14-0.18c-0.04-0.06-0.06-0.13-0.08-0.2c-0.02-0.07-0.03-0.14-0.03-0.21c0-0.19,0.04-0.37,0.14-0.53
			c0.09-0.16,0.2-0.31,0.32-0.45c-0.06-0.07-0.11-0.14-0.15-0.2c-0.04-0.07-0.08-0.14-0.11-0.21s-0.06-0.16-0.07-0.25
			c-0.02-0.09-0.02-0.19-0.02-0.3c0-0.23,0.04-0.44,0.13-0.63c0.08-0.19,0.2-0.36,0.36-0.49c0.15-0.14,0.34-0.24,0.55-0.32
			c0.22-0.08,0.45-0.11,0.71-0.11c0.11,0,0.22,0.01,0.32,0.02c0.1,0.01,0.19,0.03,0.27,0.06h1.62v0.63H134.29z M131.6,35.67
			c0,0.21,0.11,0.36,0.33,0.46c0.22,0.1,0.53,0.14,0.92,0.14c0.25,0,0.45-0.02,0.62-0.07c0.17-0.04,0.3-0.1,0.41-0.18
			s0.18-0.16,0.22-0.25s0.07-0.19,0.07-0.29c0-0.18-0.07-0.31-0.22-0.4c-0.15-0.09-0.38-0.14-0.68-0.15l-1.17-0.04
			c-0.1,0.06-0.18,0.13-0.24,0.19s-0.11,0.13-0.15,0.19s-0.06,0.13-0.08,0.19C131.61,35.54,131.6,35.61,131.6,35.67z M131.84,32.01
			c0,0.14,0.02,0.27,0.07,0.39c0.05,0.12,0.11,0.22,0.2,0.3c0.09,0.08,0.19,0.15,0.31,0.19c0.12,0.05,0.25,0.07,0.39,0.07
			c0.15,0,0.29-0.03,0.41-0.08c0.12-0.05,0.22-0.12,0.3-0.21c0.08-0.09,0.14-0.19,0.19-0.31c0.04-0.12,0.06-0.24,0.06-0.36
			c0-0.14-0.02-0.27-0.07-0.39c-0.05-0.12-0.11-0.22-0.2-0.3s-0.19-0.15-0.31-0.19c-0.12-0.05-0.25-0.07-0.39-0.07
			c-0.15,0-0.29,0.03-0.41,0.08c-0.12,0.05-0.22,0.12-0.3,0.21c-0.08,0.09-0.14,0.19-0.19,0.31
			C131.86,31.77,131.84,31.89,131.84,32.01z"/>
		<path class="st2" d="M139.87,35.03h-3.84v-0.7l1.51-1.5c0.25-0.24,0.45-0.45,0.6-0.63c0.15-0.18,0.27-0.34,0.36-0.49
			c0.09-0.15,0.14-0.29,0.17-0.42c0.03-0.13,0.04-0.27,0.04-0.42c0-0.14-0.02-0.28-0.06-0.41c-0.04-0.13-0.1-0.24-0.18-0.34
			s-0.18-0.18-0.31-0.23c-0.13-0.06-0.28-0.08-0.46-0.08c-0.25,0-0.47,0.06-0.67,0.17s-0.39,0.25-0.56,0.43l-0.43-0.51
			c0.22-0.23,0.47-0.42,0.76-0.56s0.62-0.21,1-0.21c0.26,0,0.49,0.04,0.71,0.12s0.4,0.19,0.55,0.33c0.15,0.15,0.27,0.32,0.36,0.54
			c0.08,0.21,0.13,0.45,0.13,0.71c0,0.22-0.03,0.43-0.09,0.62c-0.06,0.19-0.15,0.38-0.27,0.57c-0.12,0.19-0.27,0.38-0.45,0.59
			s-0.4,0.42-0.65,0.66l-1.06,1.03h2.83V35.03z"/>
	</g>
</g>
<g>
	<defs>
		<rect id="SVGID_9_" x="94.78" y="19.49" width="10.04" height="9.57"/>
	</defs>
	<clipPath id="SVGID_10_">
		<use xlink:href="#SVGID_9_"  style="overflow:visible;"/>
	</clipPath>
	<g class="st9">
		<path class="st2" d="M98.72,23.12c0.08,0.1,0.15,0.23,0.19,0.36c0.05,0.14,0.07,0.29,0.07,0.45c0,0.23-0.04,0.44-0.13,0.64
			c-0.08,0.19-0.2,0.36-0.36,0.49s-0.34,0.24-0.55,0.32c-0.22,0.08-0.45,0.11-0.71,0.11c-0.19,0-0.36-0.02-0.53-0.06
			c-0.16-0.04-0.29-0.09-0.39-0.15c-0.06,0.08-0.1,0.16-0.14,0.24s-0.06,0.16-0.06,0.25c0,0.11,0.05,0.21,0.16,0.28
			s0.25,0.11,0.43,0.12l1.18,0.04c0.22,0.01,0.43,0.03,0.62,0.08c0.19,0.05,0.35,0.12,0.49,0.22c0.13,0.1,0.24,0.21,0.32,0.35
			c0.08,0.14,0.11,0.3,0.11,0.49c0,0.2-0.04,0.39-0.13,0.57c-0.09,0.18-0.22,0.33-0.4,0.47s-0.41,0.24-0.68,0.32
			c-0.28,0.08-0.6,0.12-0.98,0.12c-0.36,0-0.67-0.03-0.92-0.09c-0.25-0.06-0.46-0.14-0.63-0.24s-0.28-0.22-0.36-0.37
			s-0.11-0.3-0.11-0.47c0-0.22,0.05-0.41,0.15-0.57c0.1-0.16,0.26-0.32,0.47-0.47c-0.08-0.04-0.14-0.08-0.2-0.13
			c-0.06-0.05-0.1-0.11-0.14-0.18c-0.04-0.06-0.06-0.13-0.08-0.2c-0.02-0.07-0.03-0.14-0.03-0.21c0-0.19,0.04-0.37,0.14-0.53
			c0.09-0.16,0.2-0.31,0.32-0.45c-0.06-0.07-0.11-0.14-0.15-0.2c-0.04-0.07-0.08-0.14-0.11-0.21s-0.06-0.16-0.07-0.25
			c-0.02-0.09-0.02-0.19-0.02-0.3c0-0.23,0.04-0.44,0.13-0.63c0.08-0.19,0.2-0.36,0.36-0.49c0.15-0.14,0.34-0.24,0.55-0.32
			c0.22-0.08,0.45-0.11,0.71-0.11c0.11,0,0.22,0.01,0.32,0.02c0.1,0.01,0.19,0.03,0.27,0.06h1.62v0.63H98.72z M96.02,27.61
			c0,0.21,0.11,0.36,0.33,0.46c0.22,0.1,0.53,0.14,0.92,0.14c0.25,0,0.45-0.02,0.62-0.07c0.17-0.04,0.3-0.1,0.41-0.18
			s0.18-0.16,0.22-0.25s0.07-0.19,0.07-0.29c0-0.18-0.07-0.31-0.22-0.4c-0.15-0.09-0.38-0.14-0.68-0.15l-1.17-0.04
			c-0.1,0.06-0.18,0.13-0.24,0.19s-0.11,0.13-0.15,0.19s-0.06,0.13-0.08,0.19C96.03,27.48,96.02,27.55,96.02,27.61z M96.26,23.95
			c0,0.14,0.02,0.27,0.07,0.39c0.05,0.12,0.11,0.22,0.2,0.3c0.09,0.08,0.19,0.15,0.31,0.19c0.12,0.05,0.25,0.07,0.39,0.07
			c0.15,0,0.29-0.03,0.41-0.08c0.12-0.05,0.22-0.12,0.3-0.21c0.08-0.09,0.14-0.19,0.19-0.31c0.04-0.12,0.06-0.24,0.06-0.36
			c0-0.14-0.02-0.27-0.07-0.39c-0.05-0.12-0.11-0.22-0.2-0.3s-0.19-0.15-0.31-0.19C97.5,23.02,97.37,23,97.23,23
			c-0.15,0-0.29,0.03-0.41,0.08c-0.12,0.05-0.22,0.12-0.3,0.21c-0.08,0.09-0.14,0.19-0.19,0.31C96.28,23.71,96.26,23.83,96.26,23.95
			z"/>
		<path class="st2" d="M104.42,24.06c0,0.45-0.04,0.85-0.13,1.22c-0.09,0.37-0.22,0.68-0.41,0.94c-0.18,0.26-0.41,0.47-0.68,0.61
			s-0.58,0.22-0.95,0.22c-0.31,0-0.6-0.06-0.85-0.18c-0.26-0.12-0.47-0.3-0.66-0.54s-0.32-0.55-0.42-0.93
			c-0.1-0.38-0.15-0.82-0.15-1.34c0-0.45,0.05-0.85,0.14-1.22c0.09-0.37,0.23-0.68,0.41-0.95c0.18-0.26,0.4-0.47,0.68-0.61
			c0.27-0.14,0.58-0.22,0.94-0.22c0.31,0,0.6,0.06,0.85,0.18c0.26,0.12,0.47,0.3,0.66,0.54c0.18,0.24,0.32,0.56,0.42,0.93
			C104.37,23.09,104.42,23.54,104.42,24.06z M100.97,24.03c0,0.09,0,0.18,0,0.28c0,0.09,0.01,0.18,0.02,0.27l2.46-1.82
			c-0.04-0.15-0.1-0.29-0.17-0.41c-0.07-0.12-0.15-0.23-0.25-0.32c-0.1-0.09-0.2-0.16-0.33-0.21c-0.12-0.05-0.26-0.08-0.41-0.08
			c-0.2,0-0.39,0.05-0.55,0.15c-0.17,0.1-0.31,0.24-0.42,0.44c-0.12,0.19-0.21,0.44-0.27,0.72S100.97,23.65,100.97,24.03z
			 M103.64,24.08c0-0.1,0-0.2-0.01-0.3s-0.02-0.2-0.02-0.29l-2.46,1.83c0.04,0.15,0.1,0.3,0.17,0.43c0.07,0.13,0.15,0.24,0.25,0.34
			c0.1,0.09,0.21,0.17,0.33,0.22c0.12,0.05,0.26,0.08,0.42,0.08c0.2,0,0.39-0.05,0.55-0.15c0.17-0.1,0.31-0.24,0.42-0.44
			c0.12-0.19,0.2-0.43,0.27-0.72S103.64,24.46,103.64,24.08z"/>
	</g>
</g>
<g>
	<defs>
		<rect id="SVGID_11_" x="128.36" y="68.25" width="10.04" height="9.57"/>
	</defs>
	<clipPath id="SVGID_12_">
		<use xlink:href="#SVGID_11_"  style="overflow:visible;"/>
	</clipPath>
	<g class="st10">
		<path class="st2" d="M132.29,71.88c0.08,0.1,0.15,0.23,0.19,0.36c0.05,0.14,0.07,0.29,0.07,0.45c0,0.23-0.04,0.44-0.13,0.64
			c-0.08,0.19-0.2,0.36-0.36,0.49c-0.15,0.14-0.34,0.24-0.55,0.32c-0.22,0.08-0.45,0.11-0.71,0.11c-0.19,0-0.36-0.02-0.53-0.06
			c-0.16-0.04-0.29-0.09-0.39-0.15c-0.06,0.08-0.1,0.16-0.14,0.24s-0.06,0.16-0.06,0.25c0,0.11,0.05,0.21,0.16,0.28
			s0.25,0.11,0.43,0.12l1.18,0.04c0.22,0.01,0.43,0.03,0.62,0.08c0.19,0.05,0.35,0.12,0.49,0.22c0.13,0.09,0.24,0.21,0.32,0.35
			c0.08,0.14,0.11,0.3,0.11,0.49c0,0.2-0.04,0.39-0.13,0.57c-0.09,0.18-0.22,0.33-0.4,0.47c-0.18,0.14-0.41,0.24-0.68,0.32
			s-0.6,0.12-0.98,0.12c-0.36,0-0.67-0.03-0.92-0.09c-0.25-0.06-0.46-0.14-0.63-0.24s-0.28-0.22-0.36-0.37
			c-0.07-0.14-0.11-0.3-0.11-0.47c0-0.22,0.05-0.41,0.15-0.57s0.26-0.32,0.47-0.47c-0.08-0.04-0.14-0.08-0.2-0.13
			c-0.06-0.05-0.1-0.11-0.14-0.18c-0.04-0.06-0.06-0.13-0.08-0.2c-0.02-0.07-0.03-0.14-0.03-0.21c0-0.19,0.04-0.37,0.14-0.53
			s0.2-0.31,0.32-0.46c-0.06-0.07-0.11-0.13-0.15-0.2c-0.04-0.07-0.08-0.14-0.11-0.21c-0.03-0.08-0.06-0.16-0.07-0.24
			c-0.02-0.09-0.02-0.19-0.02-0.3c0-0.23,0.04-0.44,0.13-0.63c0.08-0.19,0.2-0.36,0.36-0.49c0.15-0.14,0.34-0.24,0.55-0.32
			c0.22-0.08,0.45-0.11,0.71-0.11c0.11,0,0.22,0.01,0.32,0.02s0.19,0.03,0.27,0.06h1.62v0.63H132.29z M129.6,76.37
			c0,0.21,0.11,0.36,0.33,0.46c0.22,0.1,0.53,0.14,0.92,0.14c0.25,0,0.45-0.02,0.62-0.07c0.17-0.04,0.3-0.1,0.41-0.18
			c0.1-0.07,0.18-0.16,0.22-0.25s0.07-0.19,0.07-0.29c0-0.18-0.07-0.32-0.22-0.4c-0.15-0.09-0.38-0.14-0.68-0.15l-1.17-0.04
			c-0.1,0.07-0.18,0.13-0.24,0.19s-0.11,0.12-0.15,0.19c-0.04,0.06-0.06,0.13-0.08,0.19C129.61,76.24,129.6,76.3,129.6,76.37z
			 M129.84,72.71c0,0.14,0.02,0.27,0.07,0.39c0.05,0.12,0.11,0.22,0.2,0.3c0.09,0.08,0.19,0.15,0.31,0.19
			c0.12,0.05,0.25,0.07,0.39,0.07c0.15,0,0.29-0.03,0.41-0.08c0.12-0.05,0.22-0.12,0.3-0.21c0.08-0.09,0.14-0.19,0.19-0.31
			c0.04-0.12,0.06-0.24,0.06-0.36c0-0.14-0.02-0.27-0.07-0.39c-0.05-0.12-0.11-0.22-0.2-0.3s-0.19-0.15-0.31-0.19
			c-0.12-0.05-0.25-0.07-0.39-0.07c-0.15,0-0.29,0.03-0.41,0.08c-0.12,0.05-0.22,0.12-0.3,0.21c-0.08,0.09-0.14,0.19-0.19,0.3
			C129.86,72.46,129.84,72.58,129.84,72.71z"/>
		<path class="st2" d="M138.15,74.43h-0.99v1.29h-0.79v-1.29h-2.8v-0.68l2.48-3.85h1.11v3.85h0.99V74.43z M136.37,70.65l-2.03,3.11
			h2.03V70.65z"/>
	</g>
</g>
<g>
	<path class="st2" d="M284.6,26.89c0.08,0.1,0.15,0.23,0.19,0.36s0.07,0.29,0.07,0.45c0,0.23-0.04,0.44-0.13,0.64
		c-0.08,0.19-0.2,0.36-0.36,0.49s-0.34,0.24-0.55,0.32c-0.22,0.08-0.45,0.11-0.71,0.11c-0.19,0-0.36-0.02-0.53-0.06
		c-0.16-0.04-0.29-0.09-0.39-0.15c-0.06,0.08-0.1,0.16-0.14,0.24c-0.04,0.07-0.06,0.16-0.06,0.25c0,0.11,0.05,0.21,0.16,0.28
		s0.25,0.11,0.43,0.12l1.18,0.04c0.22,0.01,0.43,0.03,0.62,0.08c0.19,0.05,0.35,0.12,0.49,0.22c0.14,0.1,0.24,0.21,0.32,0.35
		c0.08,0.14,0.11,0.3,0.11,0.49c0,0.2-0.04,0.39-0.13,0.57c-0.09,0.18-0.22,0.33-0.4,0.47s-0.41,0.24-0.68,0.32
		c-0.28,0.08-0.6,0.12-0.98,0.12c-0.36,0-0.67-0.03-0.92-0.09s-0.46-0.14-0.63-0.24s-0.28-0.22-0.36-0.37
		c-0.07-0.14-0.11-0.3-0.11-0.47c0-0.22,0.05-0.41,0.15-0.57c0.1-0.16,0.26-0.32,0.47-0.47c-0.08-0.04-0.14-0.08-0.2-0.13
		c-0.06-0.05-0.1-0.11-0.14-0.18c-0.04-0.06-0.06-0.13-0.08-0.2c-0.02-0.07-0.03-0.14-0.03-0.21c0-0.19,0.04-0.37,0.14-0.53
		c0.09-0.16,0.2-0.31,0.32-0.45c-0.06-0.07-0.11-0.14-0.15-0.2c-0.04-0.07-0.08-0.14-0.11-0.21s-0.05-0.16-0.07-0.25
		c-0.02-0.09-0.02-0.19-0.02-0.3c0-0.23,0.04-0.44,0.13-0.63c0.08-0.19,0.2-0.36,0.36-0.49s0.34-0.24,0.55-0.32
		c0.21-0.08,0.45-0.11,0.71-0.11c0.11,0,0.22,0.01,0.32,0.02c0.1,0.01,0.19,0.03,0.27,0.06h1.62v0.63H284.6z M281.91,31.38
		c0,0.21,0.11,0.36,0.33,0.46s0.53,0.14,0.92,0.14c0.25,0,0.45-0.02,0.62-0.07c0.17-0.04,0.3-0.1,0.41-0.18s0.18-0.16,0.22-0.25
		c0.04-0.09,0.07-0.19,0.07-0.29c0-0.18-0.07-0.31-0.22-0.4s-0.38-0.14-0.68-0.15l-1.17-0.04c-0.1,0.06-0.18,0.13-0.24,0.19
		c-0.06,0.06-0.11,0.13-0.15,0.19c-0.04,0.06-0.06,0.13-0.08,0.19S281.91,31.31,281.91,31.38z M282.14,27.72
		c0,0.14,0.02,0.27,0.07,0.39c0.05,0.12,0.11,0.22,0.2,0.3c0.09,0.08,0.19,0.15,0.31,0.19c0.12,0.05,0.25,0.07,0.39,0.07
		c0.15,0,0.29-0.03,0.41-0.08c0.12-0.05,0.22-0.12,0.3-0.21c0.08-0.09,0.14-0.19,0.19-0.31s0.06-0.24,0.06-0.36
		c0-0.14-0.02-0.27-0.07-0.39c-0.05-0.12-0.11-0.22-0.2-0.3s-0.19-0.15-0.31-0.19c-0.12-0.05-0.25-0.07-0.39-0.07
		c-0.15,0-0.29,0.03-0.41,0.08c-0.12,0.05-0.22,0.12-0.3,0.21c-0.08,0.09-0.14,0.19-0.19,0.31
		C282.17,27.47,282.14,27.59,282.14,27.72z"/>
	<path class="st2" d="M290.31,27.82c0,0.45-0.04,0.85-0.13,1.22c-0.09,0.37-0.22,0.68-0.41,0.94c-0.18,0.26-0.41,0.47-0.67,0.61
		s-0.58,0.22-0.95,0.22c-0.31,0-0.6-0.06-0.85-0.18c-0.26-0.12-0.47-0.3-0.66-0.54s-0.32-0.55-0.42-0.93
		c-0.1-0.38-0.15-0.82-0.15-1.34c0-0.45,0.04-0.85,0.14-1.22c0.09-0.37,0.23-0.68,0.41-0.95c0.18-0.26,0.4-0.47,0.67-0.61
		s0.59-0.22,0.95-0.22c0.31,0,0.6,0.06,0.85,0.18c0.26,0.12,0.47,0.3,0.66,0.54c0.18,0.24,0.32,0.56,0.42,0.93
		C290.26,26.86,290.31,27.3,290.31,27.82z M286.86,27.79c0,0.09,0,0.18,0,0.28c0,0.09,0.01,0.18,0.02,0.27l2.46-1.82
		c-0.04-0.15-0.1-0.29-0.17-0.41c-0.07-0.12-0.15-0.23-0.25-0.32c-0.09-0.09-0.2-0.16-0.33-0.21c-0.12-0.05-0.26-0.08-0.41-0.08
		c-0.2,0-0.39,0.05-0.55,0.15c-0.17,0.1-0.31,0.24-0.42,0.44c-0.12,0.19-0.21,0.44-0.27,0.72
		C286.89,27.08,286.86,27.42,286.86,27.79z M289.52,27.85c0-0.1,0-0.2-0.01-0.3s-0.02-0.2-0.02-0.29l-2.46,1.83
		c0.04,0.15,0.1,0.3,0.17,0.43c0.07,0.13,0.15,0.24,0.25,0.34c0.1,0.09,0.21,0.17,0.33,0.22c0.12,0.05,0.26,0.08,0.42,0.08
		c0.2,0,0.39-0.05,0.55-0.15c0.16-0.1,0.3-0.24,0.42-0.44c0.12-0.19,0.21-0.43,0.27-0.72C289.49,28.56,289.52,28.22,289.52,27.85z"
		/>
	<path class="st2" d="M300.36,28.64h-1.75v1.82h-0.77v-1.82h-1.75v-0.68h1.75v-1.81h0.77v1.81h1.75V28.64z"/>
	<path class="st2" d="M309.69,26.89c0.08,0.1,0.15,0.23,0.19,0.36s0.07,0.29,0.07,0.45c0,0.23-0.04,0.44-0.13,0.64
		c-0.08,0.19-0.2,0.36-0.36,0.49s-0.34,0.24-0.55,0.32c-0.22,0.08-0.45,0.11-0.71,0.11c-0.19,0-0.36-0.02-0.53-0.06
		c-0.16-0.04-0.29-0.09-0.39-0.15c-0.06,0.08-0.1,0.16-0.14,0.24c-0.04,0.07-0.06,0.16-0.06,0.25c0,0.11,0.05,0.21,0.16,0.28
		s0.25,0.11,0.43,0.12l1.18,0.04c0.22,0.01,0.43,0.03,0.62,0.08c0.19,0.05,0.35,0.12,0.49,0.22c0.14,0.1,0.24,0.21,0.32,0.35
		c0.08,0.14,0.11,0.3,0.11,0.49c0,0.2-0.04,0.39-0.13,0.57c-0.09,0.18-0.22,0.33-0.4,0.47s-0.41,0.24-0.68,0.32
		c-0.28,0.08-0.6,0.12-0.98,0.12c-0.36,0-0.67-0.03-0.92-0.09s-0.46-0.14-0.63-0.24s-0.28-0.22-0.36-0.37
		c-0.07-0.14-0.11-0.3-0.11-0.47c0-0.22,0.05-0.41,0.15-0.57c0.1-0.16,0.26-0.32,0.47-0.47c-0.08-0.04-0.14-0.08-0.2-0.13
		c-0.06-0.05-0.1-0.11-0.14-0.18c-0.04-0.06-0.06-0.13-0.08-0.2c-0.02-0.07-0.03-0.14-0.03-0.21c0-0.19,0.04-0.37,0.14-0.53
		c0.09-0.16,0.2-0.31,0.32-0.45c-0.06-0.07-0.11-0.14-0.15-0.2c-0.04-0.07-0.08-0.14-0.11-0.21s-0.05-0.16-0.07-0.25
		c-0.02-0.09-0.02-0.19-0.02-0.3c0-0.23,0.04-0.44,0.13-0.63c0.08-0.19,0.2-0.36,0.36-0.49s0.34-0.24,0.55-0.32
		c0.21-0.08,0.45-0.11,0.71-0.11c0.11,0,0.22,0.01,0.32,0.02c0.1,0.01,0.19,0.03,0.27,0.06h1.62v0.63H309.69z M307,31.38
		c0,0.21,0.11,0.36,0.33,0.46s0.53,0.14,0.92,0.14c0.25,0,0.45-0.02,0.62-0.07c0.17-0.04,0.3-0.1,0.41-0.18s0.18-0.16,0.22-0.25
		c0.04-0.09,0.07-0.19,0.07-0.29c0-0.18-0.07-0.31-0.22-0.4s-0.38-0.14-0.68-0.15l-1.17-0.04c-0.1,0.06-0.18,0.13-0.24,0.19
		c-0.06,0.06-0.11,0.13-0.15,0.19c-0.04,0.06-0.06,0.13-0.08,0.19S307,31.31,307,31.38z M307.23,27.72c0,0.14,0.02,0.27,0.07,0.39
		c0.05,0.12,0.11,0.22,0.2,0.3c0.09,0.08,0.19,0.15,0.31,0.19c0.12,0.05,0.25,0.07,0.39,0.07c0.15,0,0.29-0.03,0.41-0.08
		c0.12-0.05,0.22-0.12,0.3-0.21c0.08-0.09,0.14-0.19,0.19-0.31s0.06-0.24,0.06-0.36c0-0.14-0.02-0.27-0.07-0.39
		c-0.05-0.12-0.11-0.22-0.2-0.3s-0.19-0.15-0.31-0.19c-0.12-0.05-0.25-0.07-0.39-0.07c-0.15,0-0.29,0.03-0.41,0.08
		c-0.12,0.05-0.22,0.12-0.3,0.21c-0.08,0.09-0.14,0.19-0.19,0.31C307.25,27.47,307.23,27.59,307.23,27.72z"/>
	<path class="st2" d="M315.21,30.73h-3.66v-0.72h1.5v-4.25l-1.39,0.76l-0.29-0.66l1.85-0.98h0.69v5.13h1.3V30.73z"/>
	<path class="st2" d="M320.07,26.99l-0.3,0.53l-1.25-0.83l0.1,1.52h-0.64l0.1-1.52l-1.28,0.83L316.52,27l1.37-0.67l-1.37-0.69
		l0.31-0.52l1.26,0.84l-0.11-1.52h0.64l-0.11,1.52l1.26-0.85l0.31,0.55l-1.37,0.68L320.07,26.99z"/>
	<path class="st2" d="M324.74,26.89c0.08,0.1,0.15,0.23,0.19,0.36S325,27.54,325,27.7c0,0.23-0.04,0.44-0.13,0.64
		c-0.08,0.19-0.2,0.36-0.36,0.49s-0.34,0.24-0.55,0.32c-0.22,0.08-0.45,0.11-0.71,0.11c-0.19,0-0.36-0.02-0.53-0.06
		c-0.16-0.04-0.29-0.09-0.39-0.15c-0.06,0.08-0.1,0.16-0.14,0.24c-0.04,0.07-0.06,0.16-0.06,0.25c0,0.11,0.05,0.21,0.16,0.28
		s0.25,0.11,0.43,0.12l1.18,0.04c0.22,0.01,0.43,0.03,0.62,0.08c0.19,0.05,0.35,0.12,0.49,0.22c0.14,0.1,0.24,0.21,0.32,0.35
		c0.08,0.14,0.11,0.3,0.11,0.49c0,0.2-0.04,0.39-0.13,0.57c-0.09,0.18-0.22,0.33-0.4,0.47s-0.41,0.24-0.68,0.32
		c-0.28,0.08-0.6,0.12-0.98,0.12c-0.36,0-0.67-0.03-0.92-0.09s-0.46-0.14-0.63-0.24s-0.28-0.22-0.36-0.37
		c-0.07-0.14-0.11-0.3-0.11-0.47c0-0.22,0.05-0.41,0.15-0.57c0.1-0.16,0.26-0.32,0.47-0.47c-0.08-0.04-0.14-0.08-0.2-0.13
		c-0.06-0.05-0.1-0.11-0.14-0.18c-0.04-0.06-0.06-0.13-0.08-0.2c-0.02-0.07-0.03-0.14-0.03-0.21c0-0.19,0.04-0.37,0.14-0.53
		c0.09-0.16,0.2-0.31,0.32-0.45c-0.06-0.07-0.11-0.14-0.15-0.2c-0.04-0.07-0.08-0.14-0.11-0.21s-0.05-0.16-0.07-0.25
		c-0.02-0.09-0.02-0.19-0.02-0.3c0-0.23,0.04-0.44,0.13-0.63c0.08-0.19,0.2-0.36,0.36-0.49s0.34-0.24,0.55-0.32
		c0.21-0.08,0.45-0.11,0.71-0.11c0.11,0,0.22,0.01,0.32,0.02c0.1,0.01,0.19,0.03,0.27,0.06h1.62v0.63H324.74z M322.05,31.38
		c0,0.21,0.11,0.36,0.33,0.46s0.53,0.14,0.92,0.14c0.25,0,0.45-0.02,0.62-0.07c0.17-0.04,0.3-0.1,0.41-0.18s0.18-0.16,0.22-0.25
		c0.04-0.09,0.07-0.19,0.07-0.29c0-0.18-0.07-0.31-0.22-0.4s-0.38-0.14-0.68-0.15l-1.17-0.04c-0.1,0.06-0.18,0.13-0.24,0.19
		c-0.06,0.06-0.11,0.13-0.15,0.19c-0.04,0.06-0.06,0.13-0.08,0.19S322.05,31.31,322.05,31.38z M322.29,27.72
		c0,0.14,0.02,0.27,0.07,0.39c0.05,0.12,0.11,0.22,0.2,0.3c0.09,0.08,0.19,0.15,0.31,0.19c0.12,0.05,0.25,0.07,0.39,0.07
		c0.15,0,0.29-0.03,0.41-0.08c0.12-0.05,0.22-0.12,0.3-0.21c0.08-0.09,0.14-0.19,0.19-0.31s0.06-0.24,0.06-0.36
		c0-0.14-0.02-0.27-0.07-0.39c-0.05-0.12-0.11-0.22-0.2-0.3s-0.19-0.15-0.31-0.19c-0.12-0.05-0.25-0.07-0.39-0.07
		c-0.15,0-0.29,0.03-0.41,0.08c-0.12,0.05-0.22,0.12-0.3,0.21c-0.08,0.09-0.14,0.19-0.19,0.31
		C322.31,27.47,322.29,27.59,322.29,27.72z"/>
	<path class="st2" d="M330.32,30.73h-3.84v-0.7l1.51-1.5c0.25-0.24,0.45-0.45,0.6-0.63s0.27-0.34,0.36-0.49
		c0.09-0.15,0.14-0.29,0.17-0.42c0.03-0.13,0.04-0.27,0.04-0.42c0-0.14-0.02-0.28-0.06-0.41c-0.04-0.13-0.1-0.24-0.18-0.34
		c-0.08-0.1-0.18-0.18-0.31-0.23c-0.13-0.06-0.28-0.08-0.46-0.08c-0.25,0-0.47,0.06-0.67,0.17s-0.39,0.25-0.56,0.43l-0.43-0.51
		c0.22-0.23,0.47-0.42,0.76-0.56c0.29-0.14,0.62-0.21,1-0.21c0.26,0,0.49,0.04,0.71,0.12c0.21,0.08,0.4,0.19,0.55,0.33
		c0.15,0.15,0.27,0.32,0.36,0.54s0.13,0.45,0.13,0.71c0,0.22-0.03,0.43-0.09,0.62c-0.06,0.19-0.15,0.38-0.27,0.57
		s-0.27,0.38-0.46,0.59c-0.18,0.2-0.4,0.42-0.65,0.66l-1.06,1.03h2.83V30.73z"/>
</g>
<g>
	<path class="st2" d="M327.93,49.05c0.11,0.08,0.2,0.18,0.28,0.31s0.14,0.26,0.17,0.42c0.06,0.23,0.07,0.44,0.03,0.65
		c-0.04,0.21-0.11,0.39-0.23,0.56c-0.12,0.17-0.27,0.32-0.46,0.44s-0.41,0.22-0.66,0.28c-0.18,0.04-0.36,0.07-0.53,0.07
		s-0.3-0.02-0.41-0.05c-0.04,0.09-0.06,0.18-0.08,0.26c-0.02,0.08-0.02,0.17,0,0.26c0.03,0.11,0.1,0.19,0.23,0.23
		c0.12,0.05,0.27,0.05,0.45,0.01l1.15-0.24c0.22-0.05,0.43-0.07,0.62-0.07s0.37,0.04,0.52,0.09c0.15,0.06,0.29,0.15,0.39,0.27
		c0.11,0.12,0.18,0.27,0.23,0.44c0.05,0.19,0.05,0.39,0.01,0.58s-0.13,0.38-0.27,0.55c-0.14,0.17-0.34,0.33-0.59,0.48
		s-0.56,0.26-0.93,0.35c-0.35,0.09-0.66,0.13-0.92,0.14c-0.26,0-0.48-0.02-0.67-0.08c-0.18-0.06-0.33-0.15-0.44-0.27
		c-0.11-0.12-0.18-0.26-0.22-0.43c-0.05-0.21-0.05-0.41,0.01-0.59s0.17-0.37,0.34-0.57c-0.08-0.02-0.16-0.04-0.23-0.08
		s-0.13-0.08-0.18-0.14c-0.05-0.05-0.09-0.11-0.13-0.18c-0.03-0.06-0.06-0.13-0.07-0.2c-0.05-0.19-0.05-0.37,0-0.55
		c0.05-0.18,0.12-0.35,0.2-0.52c-0.07-0.05-0.14-0.1-0.19-0.16s-0.11-0.11-0.16-0.18c-0.05-0.07-0.09-0.14-0.13-0.22
		c-0.04-0.08-0.07-0.18-0.1-0.29c-0.06-0.22-0.07-0.44-0.03-0.65c0.04-0.21,0.11-0.4,0.23-0.56s0.27-0.32,0.46-0.44
		c0.19-0.13,0.41-0.22,0.67-0.28c0.11-0.03,0.21-0.04,0.31-0.05c0.1-0.01,0.19-0.01,0.27-0.01l1.57-0.39l0.15,0.61L327.93,49.05z
		 M325.75,50.45c0.04,0.14,0.09,0.26,0.16,0.36c0.07,0.1,0.16,0.19,0.27,0.25c0.1,0.06,0.22,0.1,0.34,0.11
		c0.12,0.02,0.26,0.01,0.39-0.03c0.15-0.04,0.28-0.1,0.38-0.17s0.19-0.17,0.24-0.28c0.06-0.11,0.09-0.22,0.11-0.34
		c0.02-0.12,0.01-0.24-0.02-0.37c-0.03-0.14-0.09-0.26-0.16-0.36c-0.07-0.1-0.16-0.19-0.27-0.25c-0.1-0.06-0.22-0.1-0.34-0.11
		c-0.12-0.02-0.26-0.01-0.39,0.03c-0.15,0.04-0.28,0.1-0.38,0.18c-0.11,0.08-0.19,0.17-0.24,0.28s-0.09,0.22-0.11,0.34
		C325.71,50.21,325.72,50.33,325.75,50.45z M326.4,54.06c0.05,0.21,0.2,0.33,0.43,0.37s0.54,0.01,0.93-0.08
		c0.24-0.06,0.44-0.13,0.59-0.21s0.27-0.17,0.35-0.27c0.08-0.1,0.13-0.19,0.15-0.3c0.02-0.1,0.02-0.2,0-0.29
		c-0.04-0.18-0.15-0.29-0.31-0.34c-0.17-0.05-0.4-0.04-0.7,0.02l-1.14,0.24c-0.08,0.09-0.14,0.17-0.19,0.24
		c-0.05,0.08-0.08,0.15-0.1,0.22c-0.02,0.07-0.03,0.14-0.03,0.2C326.38,53.93,326.39,53.99,326.4,54.06z"/>
	<path class="st2" d="M333.74,49.75c0.06,0.25,0.07,0.49,0.02,0.74c-0.05,0.24-0.15,0.47-0.31,0.68c-0.16,0.21-0.38,0.41-0.67,0.57
		c-0.28,0.17-0.63,0.31-1.03,0.41c-0.22,0.06-0.43,0.1-0.61,0.13c-0.18,0.03-0.35,0.05-0.52,0.07l-0.17-0.67
		c0.19-0.01,0.38-0.03,0.59-0.07c0.2-0.03,0.41-0.07,0.62-0.13c0.28-0.07,0.52-0.15,0.71-0.26c0.19-0.1,0.33-0.21,0.44-0.34
		c0.1-0.13,0.17-0.27,0.19-0.42c0.02-0.15,0.01-0.31-0.03-0.48c-0.04-0.16-0.11-0.28-0.21-0.38s-0.22-0.17-0.36-0.22
		c-0.14-0.05-0.31-0.07-0.49-0.06c-0.18,0-0.38,0.03-0.59,0.08l-0.64,0.16l-0.15-0.62l0.65-0.16c0.17-0.04,0.32-0.1,0.45-0.18
		s0.23-0.17,0.31-0.28s0.13-0.23,0.15-0.37c0.02-0.14,0.02-0.28-0.02-0.44c-0.08-0.3-0.22-0.5-0.44-0.59
		c-0.22-0.09-0.51-0.09-0.87-0.01c-0.19,0.05-0.38,0.11-0.57,0.2c-0.19,0.09-0.4,0.2-0.61,0.33l-0.16-0.66
		c0.09-0.06,0.19-0.12,0.29-0.17c0.1-0.05,0.21-0.11,0.31-0.15c0.11-0.05,0.21-0.09,0.32-0.13c0.11-0.04,0.21-0.07,0.31-0.09
		c0.3-0.07,0.57-0.11,0.82-0.1s0.46,0.05,0.64,0.14c0.18,0.08,0.33,0.2,0.46,0.36c0.12,0.15,0.21,0.34,0.26,0.55
		c0.08,0.32,0.06,0.61-0.05,0.87c-0.11,0.26-0.29,0.49-0.55,0.69c0.15-0.01,0.31,0,0.47,0.03c0.16,0.03,0.31,0.09,0.45,0.17
		c0.14,0.08,0.26,0.19,0.37,0.31C333.61,49.41,333.69,49.57,333.74,49.75z"/>
	<path class="st2" d="M338.03,46.65l-0.17,0.59l-1.41-0.5l0.47,1.45l-0.62,0.15l-0.27-1.5l-1.04,1.11l-0.4-0.44l1.17-0.98
		l-1.49-0.34l0.17-0.58l1.43,0.51l-0.47-1.45l0.62-0.15l0.26,1.51l1.02-1.13l0.43,0.46l-1.17,0.99L338.03,46.65z"/>
	<path class="st2" d="M342.54,45.43c0.11,0.08,0.2,0.18,0.28,0.31s0.14,0.26,0.17,0.42c0.06,0.23,0.07,0.44,0.03,0.65
		c-0.04,0.21-0.11,0.39-0.23,0.56c-0.12,0.17-0.27,0.32-0.46,0.44c-0.19,0.13-0.41,0.22-0.66,0.28c-0.18,0.04-0.36,0.07-0.53,0.07
		c-0.17,0-0.3-0.02-0.41-0.05c-0.04,0.09-0.06,0.18-0.08,0.26c-0.02,0.08-0.02,0.17,0,0.26c0.03,0.11,0.1,0.19,0.23,0.23
		c0.12,0.05,0.27,0.05,0.45,0.01l1.15-0.24c0.22-0.05,0.43-0.07,0.62-0.07c0.19,0,0.37,0.04,0.52,0.09
		c0.15,0.06,0.29,0.15,0.39,0.27c0.11,0.12,0.18,0.27,0.23,0.44c0.05,0.19,0.05,0.39,0.01,0.58c-0.04,0.19-0.13,0.38-0.27,0.55
		c-0.14,0.17-0.34,0.33-0.59,0.48c-0.25,0.14-0.56,0.26-0.93,0.35c-0.35,0.09-0.66,0.13-0.92,0.14c-0.26,0-0.48-0.02-0.67-0.08
		c-0.18-0.06-0.33-0.15-0.44-0.27c-0.11-0.12-0.18-0.26-0.22-0.43c-0.05-0.21-0.05-0.41,0.01-0.59c0.06-0.18,0.17-0.37,0.34-0.57
		c-0.08-0.02-0.16-0.04-0.23-0.08c-0.07-0.04-0.13-0.08-0.18-0.14c-0.05-0.05-0.09-0.11-0.13-0.18c-0.03-0.06-0.06-0.13-0.08-0.2
		c-0.05-0.19-0.04-0.37,0-0.55c0.05-0.18,0.12-0.35,0.21-0.52c-0.07-0.05-0.14-0.11-0.19-0.16c-0.06-0.05-0.11-0.11-0.16-0.18
		c-0.05-0.07-0.09-0.14-0.13-0.22s-0.07-0.18-0.1-0.29c-0.06-0.22-0.07-0.44-0.03-0.65c0.04-0.21,0.11-0.39,0.23-0.56
		c0.12-0.17,0.27-0.32,0.46-0.44c0.19-0.13,0.41-0.22,0.67-0.28c0.11-0.03,0.21-0.04,0.31-0.05c0.1-0.01,0.19-0.01,0.27-0.01
		l1.57-0.39l0.15,0.61L342.54,45.43z M340.36,46.82c0.04,0.14,0.09,0.26,0.16,0.36c0.07,0.1,0.16,0.19,0.27,0.25
		c0.1,0.06,0.22,0.1,0.34,0.12c0.12,0.02,0.26,0.01,0.39-0.03c0.15-0.04,0.28-0.1,0.38-0.17c0.1-0.08,0.19-0.17,0.24-0.28
		c0.06-0.11,0.09-0.22,0.11-0.34c0.01-0.12,0.01-0.25-0.02-0.37c-0.04-0.14-0.09-0.26-0.16-0.36s-0.16-0.19-0.27-0.25
		s-0.22-0.1-0.34-0.11c-0.12-0.02-0.26-0.01-0.39,0.03c-0.15,0.04-0.28,0.1-0.38,0.18s-0.18,0.17-0.24,0.28
		c-0.06,0.1-0.1,0.22-0.11,0.34C340.32,46.58,340.33,46.7,340.36,46.82z M341.01,50.43c0.05,0.21,0.2,0.33,0.43,0.37
		s0.54,0.01,0.93-0.08c0.24-0.06,0.43-0.13,0.59-0.21c0.15-0.08,0.27-0.17,0.35-0.27c0.08-0.1,0.13-0.19,0.15-0.29
		c0.02-0.1,0.02-0.2,0-0.3c-0.04-0.18-0.15-0.29-0.31-0.34c-0.17-0.05-0.4-0.04-0.7,0.02l-1.14,0.24c-0.08,0.09-0.14,0.17-0.19,0.24
		s-0.08,0.15-0.1,0.22c-0.02,0.07-0.03,0.14-0.03,0.2C340.99,50.3,341,50.37,341.01,50.43z"/>
	<path class="st2" d="M348.88,47.81l-3.72,0.92l-0.17-0.67l1.1-1.82c0.18-0.3,0.32-0.55,0.43-0.76s0.18-0.4,0.23-0.56
		c0.05-0.16,0.07-0.31,0.07-0.45c0-0.13-0.02-0.27-0.06-0.42c-0.04-0.14-0.09-0.27-0.15-0.38c-0.07-0.12-0.15-0.21-0.25-0.29
		c-0.1-0.08-0.22-0.13-0.36-0.15c-0.14-0.02-0.29-0.01-0.47,0.03c-0.24,0.06-0.44,0.17-0.61,0.32c-0.17,0.16-0.31,0.34-0.44,0.55
		l-0.54-0.39c0.16-0.28,0.36-0.52,0.6-0.72c0.24-0.2,0.55-0.35,0.92-0.44c0.25-0.06,0.49-0.08,0.71-0.06
		c0.22,0.02,0.43,0.09,0.61,0.19c0.19,0.1,0.34,0.25,0.48,0.43c0.13,0.18,0.23,0.4,0.29,0.66c0.05,0.22,0.07,0.42,0.06,0.62
		c-0.01,0.2-0.05,0.4-0.12,0.62c-0.07,0.21-0.17,0.44-0.3,0.68c-0.13,0.24-0.28,0.51-0.47,0.8l-0.78,1.25l2.75-0.68L348.88,47.81z"
		/>
</g>
<g>
	<path class="st2" d="M286.6,77.87c0.09,0.1,0.16,0.22,0.21,0.35s0.08,0.28,0.09,0.44c0.01,0.23-0.02,0.45-0.1,0.64
		c-0.07,0.2-0.19,0.37-0.33,0.51s-0.33,0.26-0.54,0.35c-0.21,0.09-0.45,0.14-0.7,0.15c-0.19,0.01-0.36,0-0.53-0.03
		c-0.17-0.03-0.3-0.08-0.39-0.13c-0.05,0.09-0.1,0.17-0.13,0.24c-0.04,0.08-0.05,0.16-0.05,0.25c0.01,0.11,0.07,0.2,0.18,0.27
		c0.11,0.07,0.26,0.1,0.44,0.1l1.18-0.01c0.22-0.01,0.43,0.01,0.62,0.05c0.19,0.04,0.36,0.11,0.5,0.19c0.14,0.09,0.25,0.2,0.33,0.34
		c0.08,0.14,0.13,0.3,0.14,0.48c0.01,0.2-0.02,0.39-0.1,0.57c-0.08,0.18-0.2,0.35-0.37,0.49c-0.17,0.14-0.4,0.26-0.67,0.36
		s-0.6,0.15-0.98,0.17c-0.36,0.02-0.67,0-0.93-0.04c-0.26-0.04-0.47-0.11-0.64-0.21c-0.17-0.09-0.29-0.21-0.38-0.35
		c-0.08-0.14-0.13-0.29-0.13-0.46c-0.01-0.22,0.03-0.41,0.12-0.58c0.09-0.17,0.24-0.33,0.44-0.5c-0.08-0.03-0.15-0.07-0.21-0.12
		c-0.06-0.05-0.11-0.11-0.15-0.17c-0.04-0.06-0.07-0.13-0.09-0.2c-0.02-0.07-0.03-0.14-0.04-0.21c-0.01-0.19,0.03-0.37,0.11-0.54
		c0.08-0.17,0.18-0.32,0.3-0.47c-0.06-0.07-0.11-0.13-0.16-0.19c-0.05-0.06-0.09-0.13-0.12-0.21c-0.03-0.07-0.06-0.15-0.08-0.24
		c-0.02-0.09-0.03-0.19-0.04-0.3c-0.01-0.23,0.02-0.44,0.09-0.64c0.08-0.2,0.19-0.37,0.33-0.51c0.15-0.14,0.33-0.26,0.54-0.34
		c0.21-0.09,0.45-0.14,0.71-0.15c0.11-0.01,0.22,0,0.32,0.01c0.1,0.01,0.19,0.02,0.27,0.04l1.62-0.08l0.03,0.63L286.6,77.87z
		 M284.14,82.49c0.01,0.21,0.13,0.36,0.35,0.45c0.22,0.08,0.53,0.12,0.92,0.1c0.25-0.01,0.45-0.04,0.62-0.1
		c0.17-0.05,0.3-0.12,0.4-0.2c0.1-0.08,0.17-0.16,0.21-0.26c0.04-0.1,0.06-0.19,0.05-0.29c-0.01-0.18-0.09-0.31-0.24-0.39
		c-0.15-0.08-0.38-0.12-0.69-0.12l-1.17,0.02c-0.09,0.07-0.17,0.14-0.23,0.2c-0.06,0.07-0.11,0.13-0.14,0.2
		c-0.03,0.07-0.05,0.13-0.07,0.2S284.14,82.42,284.14,82.49z M284.19,78.82c0.01,0.14,0.04,0.27,0.09,0.39s0.12,0.21,0.21,0.29
		c0.09,0.08,0.2,0.14,0.31,0.18c0.12,0.04,0.25,0.06,0.39,0.05c0.15-0.01,0.29-0.04,0.41-0.1c0.12-0.06,0.21-0.13,0.29-0.23
		c0.08-0.09,0.13-0.2,0.17-0.32s0.05-0.24,0.05-0.36c-0.01-0.14-0.04-0.27-0.09-0.39c-0.05-0.12-0.12-0.21-0.22-0.29
		c-0.09-0.08-0.19-0.14-0.32-0.18c-0.12-0.04-0.25-0.06-0.39-0.05c-0.15,0.01-0.29,0.04-0.41,0.1c-0.12,0.06-0.21,0.13-0.29,0.23
		c-0.08,0.09-0.14,0.2-0.17,0.31C284.2,78.58,284.19,78.7,284.19,78.82z"/>
	<path class="st2" d="M292.12,79.58c0.01,0.29-0.04,0.55-0.15,0.8c-0.11,0.24-0.27,0.46-0.48,0.64c-0.21,0.18-0.46,0.33-0.75,0.44
		c-0.29,0.11-0.61,0.17-0.96,0.19c-0.09,0-0.18,0.01-0.28,0.01c-0.1,0-0.2,0-0.3,0c-0.1,0-0.19-0.01-0.29-0.01
		c-0.09,0-0.18-0.01-0.25-0.02l-0.04-0.7c0.16,0.03,0.35,0.05,0.55,0.06c0.21,0.01,0.42,0.01,0.63,0c0.24-0.01,0.45-0.05,0.64-0.12
		c0.19-0.07,0.34-0.16,0.47-0.27c0.13-0.11,0.22-0.24,0.29-0.4c0.06-0.15,0.09-0.32,0.08-0.51c-0.02-0.36-0.16-0.62-0.43-0.77
		c-0.27-0.15-0.65-0.21-1.13-0.19l-1.1,0.06l-0.15-2.97l3.13-0.16l0.03,0.68l-2.4,0.12l0.08,1.63l0.51-0.02
		c0.28-0.01,0.55,0,0.82,0.04c0.27,0.04,0.51,0.11,0.72,0.23c0.21,0.12,0.39,0.28,0.52,0.48C292.03,79,292.11,79.26,292.12,79.58z"
		/>
	<path class="st2" d="M302.43,78.84l-1.75,0.09l0.09,1.82l-0.76,0.04l-0.09-1.82l-1.75,0.09l-0.03-0.68l1.75-0.09l-0.09-1.8
		l0.76-0.04l0.09,1.8l1.75-0.09L302.43,78.84z"/>
	<path class="st2" d="M311.66,76.63c0.09,0.1,0.16,0.22,0.21,0.35c0.05,0.13,0.08,0.28,0.09,0.44c0.01,0.23-0.02,0.44-0.1,0.64
		c-0.07,0.2-0.19,0.37-0.33,0.51c-0.15,0.14-0.33,0.26-0.54,0.35c-0.21,0.09-0.45,0.14-0.7,0.15c-0.19,0.01-0.36,0-0.53-0.03
		c-0.17-0.03-0.3-0.08-0.39-0.13c-0.05,0.09-0.1,0.17-0.13,0.24c-0.04,0.08-0.05,0.16-0.05,0.25c0.01,0.11,0.07,0.2,0.18,0.27
		c0.11,0.07,0.26,0.1,0.44,0.1l1.18-0.01c0.22,0,0.43,0.01,0.62,0.05c0.19,0.04,0.36,0.11,0.5,0.19c0.14,0.09,0.25,0.2,0.33,0.34
		c0.08,0.14,0.13,0.29,0.14,0.48c0.01,0.2-0.02,0.39-0.1,0.57c-0.08,0.18-0.2,0.35-0.37,0.49c-0.17,0.14-0.4,0.26-0.67,0.36
		s-0.6,0.15-0.98,0.17c-0.36,0.02-0.67,0-0.93-0.04c-0.26-0.05-0.47-0.12-0.64-0.21c-0.17-0.09-0.29-0.21-0.38-0.35
		c-0.08-0.14-0.12-0.29-0.13-0.46c-0.01-0.22,0.03-0.41,0.12-0.58c0.09-0.17,0.24-0.33,0.44-0.49c-0.08-0.03-0.15-0.07-0.21-0.12
		c-0.06-0.05-0.11-0.11-0.15-0.17s-0.07-0.13-0.09-0.2c-0.02-0.07-0.03-0.14-0.04-0.21c-0.01-0.19,0.03-0.37,0.11-0.54
		c0.08-0.17,0.18-0.32,0.3-0.47c-0.06-0.07-0.11-0.13-0.16-0.19c-0.05-0.06-0.09-0.13-0.12-0.21c-0.03-0.07-0.06-0.15-0.08-0.24
		c-0.02-0.09-0.03-0.19-0.04-0.3c-0.01-0.23,0.02-0.44,0.09-0.64c0.08-0.2,0.19-0.37,0.33-0.51c0.15-0.14,0.32-0.26,0.54-0.35
		c0.21-0.09,0.45-0.14,0.71-0.15c0.11,0,0.22,0,0.32,0.01c0.1,0.01,0.19,0.03,0.27,0.04l1.62-0.08l0.03,0.63L311.66,76.63z
		 M309.2,81.24c0.01,0.21,0.13,0.36,0.35,0.44c0.22,0.09,0.53,0.12,0.92,0.1c0.25-0.01,0.45-0.04,0.62-0.1
		c0.17-0.05,0.3-0.12,0.4-0.2c0.1-0.08,0.17-0.16,0.21-0.26c0.04-0.1,0.06-0.19,0.05-0.29c-0.01-0.18-0.09-0.31-0.24-0.39
		c-0.15-0.08-0.38-0.12-0.69-0.12l-1.17,0.02c-0.09,0.07-0.17,0.14-0.23,0.2c-0.06,0.07-0.11,0.13-0.14,0.2s-0.05,0.13-0.07,0.2
		C309.2,81.11,309.19,81.17,309.2,81.24z M309.25,77.58c0.01,0.14,0.04,0.27,0.09,0.39s0.12,0.21,0.21,0.29
		c0.09,0.08,0.2,0.14,0.32,0.18c0.12,0.04,0.25,0.06,0.39,0.05c0.15-0.01,0.29-0.04,0.41-0.1c0.12-0.06,0.21-0.13,0.29-0.23
		c0.08-0.09,0.13-0.2,0.17-0.32c0.04-0.12,0.05-0.24,0.05-0.36c-0.01-0.14-0.04-0.27-0.09-0.39c-0.05-0.12-0.12-0.21-0.22-0.29
		c-0.09-0.08-0.19-0.14-0.31-0.18c-0.12-0.04-0.25-0.06-0.39-0.05c-0.15,0.01-0.29,0.04-0.41,0.1c-0.12,0.06-0.22,0.13-0.29,0.23
		c-0.08,0.09-0.14,0.2-0.17,0.31C309.26,77.33,309.24,77.45,309.25,77.58z"/>
	<path class="st2" d="M317.22,78.42c0.01,0.25-0.03,0.5-0.12,0.73c-0.09,0.23-0.24,0.43-0.44,0.61c-0.2,0.18-0.45,0.32-0.76,0.44
		c-0.31,0.11-0.67,0.18-1.09,0.2c-0.23,0.01-0.44,0.01-0.62,0.01c-0.19-0.01-0.36-0.02-0.52-0.03l-0.03-0.69
		c0.19,0.02,0.38,0.04,0.59,0.05c0.21,0.01,0.42,0.01,0.63,0c0.29-0.01,0.54-0.05,0.74-0.12c0.2-0.06,0.37-0.15,0.5-0.25
		c0.13-0.1,0.21-0.23,0.27-0.37c0.05-0.14,0.07-0.3,0.07-0.48c-0.01-0.16-0.05-0.3-0.13-0.41s-0.18-0.21-0.31-0.28
		c-0.13-0.07-0.29-0.13-0.47-0.16c-0.18-0.03-0.38-0.04-0.59-0.03l-0.66,0.03l-0.03-0.64l0.67-0.03c0.18-0.01,0.33-0.04,0.48-0.09
		c0.14-0.05,0.26-0.12,0.36-0.22c0.1-0.09,0.17-0.2,0.22-0.33c0.05-0.13,0.07-0.27,0.06-0.43c-0.02-0.31-0.12-0.53-0.32-0.67
		c-0.2-0.13-0.48-0.19-0.85-0.17c-0.2,0.01-0.4,0.04-0.6,0.09c-0.21,0.05-0.43,0.12-0.66,0.21l-0.03-0.68
		c0.1-0.04,0.21-0.08,0.32-0.11c0.11-0.03,0.23-0.06,0.34-0.09s0.23-0.04,0.34-0.06c0.11-0.02,0.22-0.03,0.32-0.03
		c0.31-0.02,0.58,0,0.82,0.06c0.24,0.05,0.44,0.14,0.6,0.26c0.16,0.12,0.29,0.26,0.38,0.44c0.09,0.17,0.14,0.37,0.15,0.59
		c0.02,0.33-0.05,0.62-0.21,0.85c-0.16,0.23-0.39,0.43-0.67,0.57c0.15,0.02,0.3,0.06,0.45,0.12c0.15,0.06,0.29,0.15,0.41,0.25
		c0.12,0.1,0.22,0.23,0.3,0.38C317.17,78.07,317.21,78.24,317.22,78.42z"/>
	<path class="st2" d="M322.04,76.21l-0.28,0.54l-1.29-0.77l0.18,1.52l-0.64,0.03l0.02-1.53l-1.23,0.89l-0.31-0.51l1.33-0.74
		l-1.4-0.62l0.28-0.54l1.3,0.78l-0.18-1.52l0.64-0.03l-0.04,1.53l1.22-0.91l0.34,0.53l-1.34,0.75L322.04,76.21z"/>
	<path class="st2" d="M326.7,75.88c0.09,0.1,0.16,0.22,0.21,0.35s0.08,0.28,0.09,0.44c0.01,0.23-0.02,0.45-0.1,0.64
		c-0.07,0.19-0.19,0.37-0.33,0.51c-0.15,0.14-0.33,0.26-0.54,0.35c-0.21,0.09-0.45,0.14-0.7,0.15c-0.19,0.01-0.36,0-0.53-0.03
		c-0.17-0.03-0.3-0.08-0.39-0.13c-0.05,0.09-0.1,0.17-0.13,0.24c-0.04,0.08-0.05,0.16-0.05,0.25c0.01,0.11,0.07,0.2,0.18,0.27
		c0.11,0.07,0.26,0.1,0.44,0.1l1.18-0.01c0.22,0,0.43,0.01,0.62,0.05c0.19,0.04,0.36,0.11,0.5,0.19c0.14,0.09,0.25,0.2,0.33,0.34
		c0.08,0.14,0.13,0.3,0.14,0.48c0.01,0.2-0.02,0.39-0.1,0.57c-0.08,0.18-0.2,0.35-0.37,0.49c-0.17,0.14-0.4,0.26-0.67,0.36
		s-0.6,0.15-0.98,0.17c-0.36,0.02-0.67,0-0.93-0.04c-0.26-0.04-0.47-0.11-0.64-0.21c-0.17-0.09-0.29-0.21-0.38-0.35
		c-0.08-0.14-0.13-0.29-0.13-0.46c-0.01-0.22,0.03-0.41,0.12-0.58c0.09-0.17,0.24-0.33,0.44-0.49c-0.08-0.03-0.15-0.07-0.21-0.12
		c-0.06-0.05-0.11-0.11-0.15-0.17c-0.04-0.06-0.07-0.13-0.09-0.2c-0.02-0.07-0.03-0.14-0.04-0.21c-0.01-0.19,0.03-0.37,0.11-0.54
		c0.08-0.16,0.18-0.32,0.3-0.47c-0.06-0.07-0.11-0.13-0.16-0.19c-0.05-0.06-0.09-0.13-0.12-0.21c-0.03-0.07-0.06-0.16-0.08-0.24
		c-0.02-0.09-0.03-0.19-0.04-0.3c-0.01-0.23,0.02-0.44,0.09-0.64c0.08-0.2,0.19-0.37,0.33-0.51c0.15-0.14,0.32-0.26,0.54-0.34
		c0.21-0.09,0.45-0.14,0.71-0.15c0.11-0.01,0.22,0,0.32,0.01c0.1,0.01,0.19,0.02,0.27,0.04l1.62-0.08l0.03,0.63L326.7,75.88z
		 M324.23,80.49c0.01,0.21,0.13,0.36,0.35,0.44c0.22,0.09,0.53,0.12,0.92,0.1c0.25-0.01,0.45-0.04,0.62-0.1
		c0.17-0.05,0.3-0.12,0.4-0.2c0.1-0.08,0.17-0.16,0.21-0.26c0.04-0.1,0.06-0.19,0.05-0.29c-0.01-0.18-0.09-0.31-0.24-0.39
		s-0.38-0.12-0.69-0.12l-1.17,0.02c-0.09,0.07-0.17,0.14-0.23,0.2c-0.06,0.06-0.11,0.13-0.14,0.2c-0.03,0.07-0.05,0.13-0.07,0.2
		C324.23,80.36,324.23,80.43,324.23,80.49z M324.28,76.83c0.01,0.14,0.04,0.27,0.09,0.39c0.05,0.12,0.12,0.21,0.21,0.29
		c0.09,0.08,0.2,0.14,0.31,0.18c0.12,0.04,0.25,0.06,0.39,0.05c0.15-0.01,0.29-0.04,0.41-0.1c0.12-0.06,0.21-0.13,0.29-0.23
		c0.08-0.09,0.13-0.2,0.17-0.32c0.04-0.12,0.05-0.24,0.05-0.36c-0.01-0.14-0.04-0.27-0.09-0.39c-0.05-0.12-0.12-0.21-0.22-0.29
		c-0.09-0.08-0.19-0.14-0.32-0.18c-0.12-0.04-0.25-0.06-0.39-0.05c-0.15,0.01-0.29,0.04-0.41,0.1c-0.12,0.06-0.21,0.13-0.29,0.23
		c-0.08,0.09-0.14,0.2-0.17,0.31C324.29,76.58,324.28,76.7,324.28,76.83z"/>
	<path class="st2" d="M332.68,78.13l-0.99,0.05l0.06,1.29l-0.79,0.04l-0.06-1.29l-2.8,0.14l-0.03-0.68l2.29-3.97l1.11-0.05
		l0.19,3.85l0.99-0.05L332.68,78.13z M330.71,74.44l-1.87,3.2l2.03-0.1L330.71,74.44z"/>
</g>
<g>
	<path class="st2" d="M98.72,89.16c0.08,0.1,0.15,0.22,0.19,0.36c0.05,0.14,0.07,0.29,0.07,0.45c0,0.23-0.04,0.44-0.13,0.64
		c-0.08,0.19-0.2,0.36-0.36,0.49s-0.34,0.24-0.55,0.32s-0.45,0.11-0.71,0.11c-0.19,0-0.36-0.02-0.53-0.06
		c-0.16-0.04-0.29-0.09-0.39-0.15c-0.06,0.08-0.1,0.16-0.14,0.24c-0.04,0.07-0.06,0.16-0.06,0.25c0,0.11,0.05,0.21,0.16,0.28
		s0.25,0.11,0.43,0.12l1.18,0.04c0.22,0.01,0.43,0.03,0.62,0.08c0.19,0.05,0.35,0.12,0.49,0.22c0.14,0.09,0.24,0.21,0.32,0.35
		c0.08,0.14,0.11,0.3,0.11,0.49c0,0.2-0.04,0.39-0.13,0.57c-0.09,0.18-0.22,0.33-0.4,0.47c-0.18,0.13-0.41,0.24-0.68,0.32
		c-0.28,0.08-0.6,0.12-0.98,0.12c-0.36,0-0.67-0.03-0.92-0.09c-0.25-0.06-0.46-0.14-0.63-0.24s-0.28-0.22-0.36-0.37
		c-0.07-0.14-0.11-0.3-0.11-0.47c0-0.22,0.05-0.41,0.15-0.57c0.1-0.16,0.26-0.32,0.47-0.47c-0.08-0.04-0.14-0.08-0.2-0.13
		c-0.06-0.05-0.1-0.11-0.14-0.18c-0.04-0.06-0.06-0.13-0.08-0.2c-0.02-0.07-0.03-0.14-0.03-0.21c0-0.19,0.04-0.37,0.14-0.53
		c0.09-0.16,0.2-0.31,0.32-0.45c-0.06-0.07-0.11-0.14-0.15-0.2c-0.04-0.07-0.08-0.14-0.11-0.21c-0.03-0.08-0.05-0.16-0.07-0.25
		s-0.02-0.19-0.02-0.3c0-0.23,0.04-0.44,0.13-0.63c0.08-0.19,0.2-0.36,0.36-0.49s0.34-0.24,0.55-0.32c0.21-0.08,0.45-0.11,0.71-0.11
		c0.11,0,0.22,0.01,0.32,0.02c0.1,0.01,0.19,0.03,0.27,0.06h1.62v0.63H98.72z M96.02,93.64c0,0.21,0.11,0.36,0.33,0.46
		s0.53,0.14,0.92,0.14c0.25,0,0.45-0.02,0.62-0.07s0.3-0.1,0.41-0.18c0.1-0.07,0.18-0.16,0.22-0.25c0.04-0.09,0.07-0.19,0.07-0.29
		c0-0.18-0.07-0.32-0.22-0.4s-0.38-0.14-0.68-0.15l-1.17-0.04c-0.1,0.07-0.18,0.13-0.24,0.19c-0.06,0.06-0.11,0.13-0.15,0.19
		c-0.04,0.06-0.06,0.13-0.08,0.19C96.03,93.51,96.02,93.58,96.02,93.64z M96.26,89.99c0,0.14,0.02,0.27,0.07,0.39s0.11,0.22,0.2,0.3
		c0.09,0.08,0.19,0.15,0.31,0.19s0.25,0.07,0.39,0.07c0.15,0,0.29-0.03,0.41-0.08s0.22-0.12,0.3-0.21c0.08-0.09,0.14-0.19,0.19-0.31
		c0.04-0.12,0.06-0.24,0.06-0.36c0-0.14-0.02-0.27-0.07-0.39c-0.05-0.12-0.11-0.22-0.2-0.3s-0.19-0.15-0.31-0.19
		c-0.12-0.05-0.25-0.07-0.39-0.07c-0.15,0-0.29,0.03-0.41,0.08c-0.12,0.05-0.22,0.12-0.3,0.21c-0.08,0.09-0.14,0.19-0.19,0.31
		S96.26,89.86,96.26,89.99z"/>
	<path class="st2" d="M104.14,91.14c0,0.29-0.06,0.55-0.19,0.79c-0.12,0.24-0.3,0.44-0.51,0.61c-0.22,0.17-0.48,0.3-0.77,0.4
		c-0.3,0.1-0.62,0.14-0.96,0.14c-0.09,0-0.18,0-0.28-0.01c-0.1,0-0.2-0.01-0.3-0.02c-0.1-0.01-0.19-0.02-0.29-0.02
		s-0.18-0.02-0.25-0.03v-0.7c0.16,0.04,0.34,0.07,0.55,0.08c0.21,0.02,0.42,0.03,0.63,0.03c0.24,0,0.45-0.03,0.64-0.08
		c0.19-0.06,0.35-0.14,0.49-0.24s0.24-0.23,0.31-0.38c0.07-0.15,0.11-0.32,0.11-0.51c0-0.36-0.13-0.63-0.39-0.79
		c-0.26-0.17-0.63-0.25-1.12-0.25h-1.11v-2.98h3.14v0.68h-2.41v1.63h0.51c0.28,0,0.55,0.03,0.82,0.08s0.5,0.14,0.71,0.27
		c0.21,0.13,0.37,0.29,0.5,0.51C104.08,90.55,104.14,90.81,104.14,91.14z"/>
</g>
</svg>
