<?xml version="1.0" encoding="utf-8"?>
<!-- Generator: Adobe Illustrator 23.0.6, SVG Export Plug-In . SVG Version: 6.00 Build 0)  -->
<svg version="1.1" id="Layer_1" xmlns="http://www.w3.org/2000/svg" xmlns:xlink="http://www.w3.org/1999/xlink" x="0px" y="0px"
	 viewBox="0 0 860.8 108" style="enable-background:new 0 0 860.8 108;" xml:space="preserve">
<style type="text/css">
	.st0{fill:#D4FFD4;}
	.st1{fill:none;stroke:#000000;stroke-width:3.2736;stroke-miterlimit:10;}
	.st2{enable-background:new    ;}
	.st3{fill:#FFDEDE;}
	.st4{fill:#FF0000;}
	.st5{fill:#E2DEFF;}
	.st6{font-family:'InconsolataForPowerline-g';}
	.st7{font-size:78.2392px;}
</style>
<title>basic01</title>
<rect x="1.6" y="1.6" class="st0" width="105.6" height="104.7"/>
<rect x="1.6" y="1.6" class="st1" width="105.6" height="104.7"/>
<g class="st2">
	<path d="M34.2,51.4L29.1,59l5.8,8h-2.8l-4.3-6l-4.1,6h-2.8l5.5-7.9L21,51.4h2.7l4.1,5.8l3.9-5.8H34.2z"/>
	<path d="M51.3,44.2v2h-7.6l0,23.7h7.6v1.9h-9.8l0-27.7H51.3z"/>
	<path d="M70.9,56.7c0,7.3-4,10.6-7.4,10.6c-3.7,0-7.7-4-7.7-10.8c0-6.8,3.9-10.9,7.6-10.9C67,45.6,70.9,49.5,70.9,56.7z M63.5,65.3
		c3.5-0.3,5-3.6,5-8.8c0.1-5.2-1.8-8.4-5.2-8.7c-3.9,0-5.6,5-5.6,8.7C57.5,61,60.3,65.2,63.5,65.3z M63.5,58.1
		c-0.7,0-1.2-0.8-1.2-1.7s0.5-1.7,1.2-1.7c0.7,0,1.2,0.8,1.2,1.7S64.2,58.1,63.5,58.1z"/>
	<path d="M85.2,44.2l-0.1,27.4h-9.8v-1.9h7.6L83,46.2h-7.6v-2H85.2z"/>
</g>
<rect x="107.2" y="1.6" class="st0" width="105.6" height="104.7"/>
<rect x="107.2" y="1.6" class="st1" width="105.6" height="104.7"/>
<g class="st2">
	<path d="M139.8,51.4l-5.1,7.6l5.8,8h-2.8l-4.3-6l-4.1,6h-2.8l5.5-7.9l-5.4-7.7h2.7l4.1,5.8l3.9-5.8H139.8z"/>
	<path d="M156.9,44.2v2h-7.6l0,23.7h7.6v1.9h-9.8l0-27.7H156.9z"/>
	<path d="M171.7,67h-2.6V48.7l-4.7,1.3l-0.6-1.3l6.2-2.9h1.8V67z"/>
	<path d="M190.8,44.2l-0.1,27.4h-9.8v-1.9h7.6l0.1-23.5H181v-2H190.8z"/>
</g>
<rect x="307.4" y="1.6" class="st3" width="105.6" height="104.7"/>
<rect x="307.4" y="1.6" class="st1" width="105.6" height="104.7"/>
<rect x="413" y="1.6" class="st3" width="105.6" height="104.7"/>
<rect x="413" y="1.6" class="st1" width="105.6" height="104.7"/>
<g class="st2">
	<path class="st4" d="M266.1,35.2v15.1h15.7v5.4h-15.7v16.5h-5.8V55.7h-16.2v-5.4h16.2V35.2H266.1z"/>
</g>
<rect x="648.1" y="1.6" class="st5" width="105.6" height="104.7"/>
<rect x="648.1" y="1.6" class="st1" width="105.6" height="104.7"/>
<rect x="753.6" y="1.6" class="st5" width="105.6" height="104.7"/>
<rect x="753.6" y="1.6" class="st1" width="105.6" height="104.7"/>
<text transform="matrix(1.01 0 0 1 559.75 80.9102)" class="st6 st7">=</text>
<g class="st2">
	<path d="M680.7,24.4l-5.1,7.6l5.8,8h-2.8l-4.3-6l-4.1,6h-2.8l5.5-7.9l-5.4-7.7h2.7l4.1,5.8l3.9-5.8H680.7z"/>
	<path d="M697.8,17.2v2h-7.6l0,23.7h7.6v1.9H688l0-27.7H697.8z"/>
	<path d="M717.4,29.7c0,7.3-4,10.6-7.4,10.6c-3.7,0-7.7-4-7.7-10.8c0-6.8,3.9-10.9,7.6-10.9C713.5,18.7,717.4,22.5,717.4,29.7z
		 M709.9,38.3c3.5-0.3,5-3.6,5-8.8c0.1-5.2-1.8-8.4-5.2-8.7c-3.9,0-5.6,5-5.6,8.7C704,34.1,706.7,38.2,709.9,38.3z M709.9,31.1
		c-0.7,0-1.2-0.8-1.2-1.7s0.5-1.7,1.2-1.7c0.7,0,1.2,0.8,1.2,1.7S710.6,31.1,709.9,31.1z"/>
	<path d="M731.6,17.2l-0.1,27.4h-9.8v-1.9h7.6l0.1-23.5h-7.6v-2H731.6z"/>
</g>
<g class="st2">
	<path d="M786.3,24.4l-5.1,7.6l5.8,8h-2.8l-4.3-6l-4.1,6h-2.8l5.5-7.9l-5.4-7.7h2.7l4.1,5.8l3.9-5.8H786.3z"/>
	<path d="M803.3,17.2v2h-7.6l0,23.7h7.6v1.9h-9.8l0-27.7H803.3z"/>
	<path d="M818.1,40h-2.6V21.7l-4.7,1.3l-0.6-1.3l6.2-2.9h1.8V40z"/>
	<path d="M837.2,17.2l-0.1,27.4h-9.8v-1.9h7.6l0.1-23.5h-7.6v-2H837.2z"/>
</g>
<g class="st2">
	<path d="M329.8,51.4c0,0.3-0.1,0.5-0.1,0.7c0,0.1,0,0.2,0.1,0.3l4.6,11.4l3-8.3c0.5-1.3,0.9-2.7,1.2-4.1h2.6c-0.5,1.5-1,3-1.6,4.5
		l-4.9,12.8c-0.3,0.9-0.7,1.7-1.4,2.5c-1,1.2-2.5,1.7-3.9,1.7c-1.3,0-2.5-0.4-3.4-1.3l1.3-2.2c0.2,0.1,0.2,0.4,0.3,0.6
		c0.1,0.2,0.7,0.9,1.8,0.9c0.7,0,1.6-0.3,2.2-1c0.5-0.5,0.8-1.2,1.1-1.8l0.5-1.1l-6.4-15.5H329.8z"/>
	<path d="M357.2,44.2v2h-7.6l0,23.7h7.6v1.9h-9.8l0-27.7H357.2z"/>
	<path d="M376.8,56.7c0,7.3-4,10.6-7.4,10.6c-3.7,0-7.7-4-7.7-10.8c0-6.8,3.9-10.9,7.6-10.9C372.9,45.6,376.8,49.5,376.8,56.7z
		 M369.4,65.3c3.5-0.3,5-3.6,5-8.8c0.1-5.2-1.8-8.4-5.2-8.7c-3.9,0-5.6,5-5.6,8.7C363.4,61,366.2,65.2,369.4,65.3z M369.4,58.1
		c-0.7,0-1.2-0.8-1.2-1.7s0.5-1.7,1.2-1.7c0.7,0,1.2,0.8,1.2,1.7S370,58.1,369.4,58.1z"/>
	<path d="M391,44.2L391,71.6h-9.8v-1.9h7.6l0.1-23.5h-7.6v-2H391z"/>
</g>
<g class="st2">
	<path d="M435.3,51.4c0,0.3-0.1,0.5-0.1,0.7c0,0.1,0,0.2,0.1,0.3l4.6,11.4l3-8.3c0.5-1.3,0.9-2.7,1.2-4.1h2.6c-0.5,1.5-1,3-1.6,4.5
		l-4.9,12.8c-0.3,0.9-0.7,1.7-1.4,2.5c-1,1.2-2.5,1.7-3.9,1.7c-1.3,0-2.5-0.4-3.4-1.3l1.3-2.2c0.2,0.1,0.2,0.4,0.3,0.6
		c0.1,0.2,0.7,0.9,1.8,0.9c0.7,0,1.6-0.3,2.2-1c0.5-0.5,0.8-1.2,1.1-1.8l0.5-1.1l-6.4-15.5H435.3z"/>
	<path d="M462.7,44.2v2h-7.6l0,23.7h7.6v1.9H453l0-27.7H462.7z"/>
	<path d="M477.5,67h-2.6V48.7l-4.7,1.3l-0.6-1.3l6.2-2.9h1.8V67z"/>
	<path d="M496.6,44.2l-0.1,27.4h-9.8v-1.9h7.6l0.1-23.5h-7.6v-2H496.6z"/>
</g>
<g class="st2">
	<path d="M670.4,74.7c0,0.3-0.1,0.5-0.1,0.7c0,0.1,0,0.2,0.1,0.3l4.6,11.4l3-8.3c0.5-1.3,0.9-2.7,1.2-4.1h2.6c-0.5,1.5-1,3-1.6,4.5
		l-4.9,12.8c-0.3,0.9-0.7,1.7-1.4,2.5c-1,1.2-2.5,1.7-3.9,1.7c-1.3,0-2.5-0.4-3.4-1.3l1.3-2.2c0.2,0.1,0.2,0.4,0.3,0.6
		c0.1,0.2,0.7,0.9,1.8,0.9c0.7,0,1.6-0.3,2.2-1c0.5-0.5,0.8-1.2,1.1-1.8l0.5-1.1l-6.4-15.5H670.4z"/>
	<path d="M697.8,67.4v2h-7.6l0,23.7h7.6v1.9H688l0-27.7H697.8z"/>
	<path d="M717.4,79.9c0,7.3-4,10.6-7.4,10.6c-3.7,0-7.7-4-7.7-10.8c0-6.8,3.9-10.9,7.6-10.9C713.5,68.8,717.4,72.7,717.4,79.9z
		 M710,88.5c3.5-0.3,5-3.6,5-8.8c0.1-5.2-1.8-8.4-5.2-8.7c-3.9,0-5.6,5-5.6,8.7C704,84.3,706.8,88.4,710,88.5z M710,81.3
		c-0.7,0-1.2-0.8-1.2-1.7s0.5-1.7,1.2-1.7c0.7,0,1.2,0.8,1.2,1.7S710.7,81.3,710,81.3z"/>
	<path d="M731.7,67.4l-0.1,27.4h-9.8v-1.9h7.6l0.1-23.5h-7.6v-2H731.7z"/>
</g>
<g class="st2">
	<path d="M776,74.7c0,0.3-0.1,0.5-0.1,0.7c0,0.1,0,0.2,0.1,0.3l4.6,11.4l3-8.3c0.5-1.3,0.9-2.7,1.2-4.1h2.6c-0.5,1.5-1,3-1.6,4.5
		l-4.9,12.8c-0.3,0.9-0.7,1.7-1.4,2.5c-1,1.2-2.5,1.7-3.9,1.7c-1.3,0-2.5-0.4-3.4-1.3l1.3-2.2c0.2,0.1,0.2,0.4,0.3,0.6
		c0.1,0.2,0.7,0.9,1.8,0.9c0.7,0,1.6-0.3,2.2-1c0.5-0.5,0.8-1.2,1.1-1.8l0.5-1.1l-6.4-15.5H776z"/>
	<path d="M803.4,67.4v2h-7.6l0,23.7h7.6v1.9h-9.8l0-27.7H803.4z"/>
	<path d="M818.2,90.2h-2.6V71.9l-4.7,1.3l-0.6-1.3l6.2-2.9h1.8V90.2z"/>
	<path d="M837.3,67.4l-0.1,27.4h-9.8v-1.9h7.6l0.1-23.5h-7.6v-2H837.3z"/>
</g>
<g class="st2">
	<path class="st4" d="M700.8,48.3v6.3h6.3v2.2h-6.3v6.9h-2.3v-6.9h-6.6v-2.2h6.6v-6.3H700.8z"/>
</g>
<g class="st2">
	<path class="st4" d="M807,48.3v6.3h6.3v2.2H807v6.9h-2.3v-6.9h-6.6v-2.2h6.6v-6.3H807z"/>
</g>
</svg>
