<?xml version="1.0" encoding="utf-8"?>
<!-- Generator: Adobe Illustrator 23.0.6, SVG Export Plug-In . SVG Version: 6.00 Build 0)  -->
<svg version="1.1" id="Layer_1" xmlns="http://www.w3.org/2000/svg" xmlns:xlink="http://www.w3.org/1999/xlink" x="0px" y="0px"
	 viewBox="0 0 794.6 253.6" style="enable-background:new 0 0 794.6 253.6;" xml:space="preserve">
<style type="text/css">
	.st0{fill:#E5ECFF;}
	.st1{fill:none;}
	.st2{fill:#E5FFE6;}
	.st3{fill:#FFE9E5;}
	.st4{fill:#F5D328;}
	.st5{fill:#DCDEE0;}
	.st6{enable-background:new    ;}
	.st7{fill:none;stroke:#000000;stroke-width:5;}
</style>
<title>basic-03</title>
<rect x="570.9" y="14.9" class="st0" width="80.3" height="100"/>
<rect x="569.9" y="13.9" class="st1" width="82.3" height="102"/>
<rect x="401.7" y="14.9" class="st2" width="175.3" height="100"/>
<rect x="400.7" y="13.9" class="st1" width="177.3" height="102"/>
<rect x="17.1" y="15.4" class="st3" width="394.7" height="100"/>
<rect x="16.1" y="14.4" class="st1" width="396.7" height="102"/>
<rect x="646.1" y="14.9" class="st4" width="15.9" height="100"/>
<rect x="645.1" y="13.9" class="st1" width="17.9" height="102"/>
<path class="st5" d="M663,9.5h-5.4v5.4h5.4V9.5z M652.2,9.5h-5.4v5.4h5.4V9.5z M641.3,9.5h-5.4v5.4h5.4V9.5z M630.5,9.5h-5.4v5.4
	h5.4V9.5z M619.7,9.5h-5.4v5.4h5.4V9.5z M608.8,9.5h-5.4v5.4h5.4V9.5z M598,9.5h-5.4v5.4h5.4V9.5z M587.2,9.5h-5.4v5.4h5.4V9.5z
	 M576.3,9.5h-5.4v5.4h5.4V9.5z M565.5,9.5h-5.4v5.4h5.4V9.5z M554.7,9.5h-5.4v5.4h5.4V9.5z M543.8,9.5h-5.4v5.4h5.4V9.5z M533,9.5
	h-5.4v5.4h5.4V9.5z M522.2,9.5h-5.4v5.4h5.4V9.5z M511.3,9.5h-5.4v5.4h5.4V9.5z M500.5,9.5h-5.4v5.4h5.4L500.5,9.5L500.5,9.5z
	 M489.7,9.5h-5.4v5.4h5.4V9.5z M478.9,9.5h-5.4v5.4h5.4V9.5z M468,9.5h-5.4v5.4h5.4V9.5z M457.2,9.5h-5.4v5.4h5.4V9.5z M446.3,9.5
	h-5.4v5.4h5.4V9.5z M435.5,9.5h-5.4v5.4h5.4V9.5z M424.7,9.5h-5.4v5.4h5.4V9.5z M413.9,9.5h-5.4v5.4h5.4V9.5z M403,9.5h-5.4v5.4h5.4
	V9.5z M392.2,9.5h-5.4v5.4h5.4V9.5z M381.3,9.5H376v5.4h5.4L381.3,9.5L381.3,9.5z M370.5,9.5h-5.4v5.4h5.4V9.5z M359.7,9.5h-5.4v5.4
	h5.4L359.7,9.5L359.7,9.5z M348.9,9.5h-5.4v5.4h5.4V9.5z M338,9.5h-5.4v5.4h5.4V9.5z M327.2,9.5h-5.4v5.4h5.4L327.2,9.5L327.2,9.5z
	 M316.3,9.5H311v5.4h5.4L316.3,9.5L316.3,9.5z M305.5,9.5h-5.4v5.4h5.4V9.5z M294.7,9.5h-5.4v5.4h5.4V9.5z M283.9,9.5h-5.4v5.4h5.4
	V9.5z M273,9.5h-5.4v5.4h5.4V9.5z M262.2,9.5h-5.4v5.4h5.4V9.5z M251.4,9.5H246v5.4h5.4L251.4,9.5L251.4,9.5z M240.5,9.5h-5.4v5.4
	h5.4V9.5z M229.7,9.5h-5.4v5.4h5.4V9.5z M218.9,9.5h-5.4v5.4h5.4V9.5z M208,9.5h-5.4v5.4h5.4V9.5z M197.2,9.5h-5.4v5.4h5.4V9.5z
	 M186.4,9.5H181v5.4h5.4L186.4,9.5L186.4,9.5z M175.6,9.5h-5.4v5.4h5.4V9.5z M164.7,9.5h-5.4v5.4h5.4V9.5z M153.9,9.5h-5.4v5.4h5.4
	L153.9,9.5L153.9,9.5z M143.1,9.5h-5.4v5.4h5.4V9.5z M132.2,9.5h-5.4v5.4h5.4V9.5z M121.4,9.5H116v5.4h5.4L121.4,9.5L121.4,9.5z
	 M110.6,9.5h-5.4v5.4h5.4V9.5z M99.7,9.5h-5.4v5.4h5.4L99.7,9.5L99.7,9.5z M88.9,9.5h-5.4v5.4h5.4L88.9,9.5L88.9,9.5z M78.1,9.5
	h-5.4v5.4h5.4V9.5z M67.3,9.5h-5.4v5.4h5.4V9.5z M56.4,9.5H51v5.4h5.4L56.4,9.5L56.4,9.5z M45.6,9.5h-5.4v5.4h5.4
	C45.6,14.9,45.6,9.5,45.6,9.5z M34.8,9.5h-5.4v5.4h5.4C34.8,14.9,34.8,9.5,34.8,9.5z M23.9,9.5h-5.4v5.4H24C24,14.9,24,9.5,23.9,9.5
	z M17.1,18.9h-5.4v5.4h5.4L17.1,18.9L17.1,18.9z M17.1,29.7h-5.4v5.4h5.4L17.1,29.7L17.1,29.7z M17.1,40.5h-5.4v5.4h5.4L17.1,40.5
	L17.1,40.5z M17.1,51.3h-5.4v5.4h5.4L17.1,51.3L17.1,51.3z M17.1,62.2h-5.4v5.4h5.4L17.1,62.2L17.1,62.2z M17.1,73h-5.4v5.4h5.4
	L17.1,73L17.1,73z M17.1,83.8h-5.4v5.4h5.4L17.1,83.8L17.1,83.8z M17.1,94.7h-5.4v5.4h5.4L17.1,94.7L17.1,94.7z M17.1,105.5h-5.4
	v5.4h5.4L17.1,105.5L17.1,105.5z M23.9,114.9h-5.4v5.4h5.4L23.9,114.9L23.9,114.9z M34.7,114.9h-5.4v5.4h5.4
	C34.7,120.3,34.7,114.9,34.7,114.9z M45.6,114.9h-5.4v5.4h5.4C45.6,120.3,45.6,114.9,45.6,114.9z M56.4,114.9H51v5.4h5.4
	C56.4,120.3,56.4,114.9,56.4,114.9z M67.2,114.9h-5.4v5.4h5.4C67.2,120.3,67.2,114.9,67.2,114.9z M78.1,114.9h-5.4v5.4h5.4V114.9z
	 M88.9,114.9h-5.4v5.4h5.4L88.9,114.9L88.9,114.9z M99.7,114.9h-5.4v5.4h5.4L99.7,114.9L99.7,114.9z M110.6,114.9h-5.4v5.4h5.4
	V114.9z M121.4,114.9H116v5.4h5.4L121.4,114.9L121.4,114.9z M132.2,114.9h-5.4v5.4h5.4L132.2,114.9L132.2,114.9z M143,114.9h-5.4
	v5.4h5.4L143,114.9L143,114.9z M153.9,114.9h-5.4v5.4h5.4V114.9z M164.7,114.9h-5.4v5.4h5.4V114.9z M175.5,114.9h-5.4v5.4h5.4V114.9
	z M186.4,114.9H181v5.4h5.4L186.4,114.9L186.4,114.9z M197.2,114.9h-5.4v5.4h5.4V114.9z M208,114.9h-5.4v5.4h5.4L208,114.9
	L208,114.9z M218.9,114.9h-5.4v5.4h5.4V114.9z M229.7,114.9h-5.4v5.4h5.4V114.9z M240.5,114.9h-5.4v5.4h5.4V114.9z M251.3,114.9
	h-5.4v5.4h5.4V114.9z M262.2,114.9h-5.4v5.4h5.4V114.9z M273,114.9h-5.4v5.4h5.4V114.9z M283.8,114.9h-5.4v5.4h5.4V114.9z
	 M294.7,114.9h-5.4v5.4h5.4V114.9z M305.5,114.9h-5.4v5.4h5.4L305.5,114.9L305.5,114.9z M316.3,114.9h-5.4v5.4h5.4V114.9z
	 M327.1,114.9h-5.4v5.4h5.4V114.9z M338,114.9h-5.4v5.4h5.4L338,114.9L338,114.9z M348.8,114.9h-5.4v5.4h5.4V114.9z M359.6,114.9
	h-5.4v5.4h5.4V114.9z M370.5,114.9H365v5.4h5.4V114.9z M381.3,114.9h-5.4v5.4h5.4V114.9z M392.1,114.9h-5.4v5.4h5.4V114.9z
	 M403,114.9h-5.4v5.4h5.5L403,114.9L403,114.9z M413.8,114.9h-5.4v5.4h5.4V114.9z M424.6,114.9h-5.4v5.4h5.4V114.9z M435.4,114.9
	H430v5.4h5.4V114.9z M446.3,114.9h-5.4v5.4h5.4V114.9z M457.1,114.9h-5.4v5.4h5.4V114.9z M467.9,114.9h-5.4v5.4h5.5L467.9,114.9
	L467.9,114.9z M478.8,114.9h-5.4v5.4h5.4L478.8,114.9L478.8,114.9z M489.6,114.9h-5.4v5.4h5.4V114.9z M500.4,114.9H495v5.4h5.4
	V114.9z M511.3,114.9h-5.4v5.4h5.4V114.9z M522.1,114.9h-5.4v5.4h5.4V114.9z M532.9,114.9h-5.4v5.4h5.5L532.9,114.9L532.9,114.9z
	 M543.7,114.9h-5.4v5.4h5.4V114.9z M554.6,114.9h-5.4v5.4h5.4V114.9z M565.4,114.9H560v5.4h5.4V114.9z M576.2,114.9h-5.4v5.4h5.4
	V114.9z M587.1,114.9h-5.4v5.4h5.4V114.9z M597.9,114.9h-5.4v5.4h5.5v-5.4H597.9z M608.7,114.9h-5.4v5.4h5.4V114.9z M619.6,114.9
	h-5.4v5.4h5.4V114.9z M630.4,114.9H625v5.4h5.4L630.4,114.9L630.4,114.9z M641.2,114.9h-5.4v5.4h5.4V114.9z M652,114.9h-5.3v5.4h5.4
	L652,114.9L652,114.9z M662.9,114.9h-5.4v5.4h5.4V114.9z M668.3,104.1H663v5.4h5.4L668.3,104.1L668.3,104.1z M668.3,93.3H663v5.4
	h5.4L668.3,93.3L668.3,93.3z M668.3,82.5H663v5.4h5.4L668.3,82.5L668.3,82.5z M668.3,71.6H663V77h5.4L668.3,71.6L668.3,71.6z
	 M668.3,60.8H663v5.4h5.4L668.3,60.8L668.3,60.8z M668.3,50H663v5.4h5.4L668.3,50L668.3,50z M668.3,39.1H663v5.4h5.4L668.3,39.1
	L668.3,39.1z M668.3,28.3H663v5.4h5.4L668.3,28.3L668.3,28.3z M668.3,17.5H663v5.4h5.4L668.3,17.5L668.3,17.5z"/>
<g class="st6">
	<path d="M607.6,178.2c-0.7-0.9-1.6-1.6-2.8-2.1s-2.2-0.8-3.3-0.8c-0.5,0-1.1,0-1.7,0.1c-0.6,0.1-1.1,0.3-1.5,0.6
		c-0.4,0.3-0.8,0.6-1.1,1.1s-0.5,1-0.5,1.7c0,0.6,0.1,1.1,0.4,1.4c0.2,0.4,0.6,0.7,1.1,1s1,0.6,1.7,0.8c0.6,0.2,1.4,0.5,2.2,0.7
		c1.2,0.4,2.4,0.8,3.6,1.3c1.2,0.5,2.4,1.1,3.4,1.8c1,0.8,1.9,1.7,2.5,2.9s1,2.6,1,4.2c0,2-0.4,3.6-1.1,5.1
		c-0.7,1.4-1.7,2.6-2.9,3.5c-1.2,0.9-2.6,1.6-4.2,2.1c-1.6,0.4-3.2,0.7-4.8,0.7c-2.4,0-4.8-0.4-7.1-1.3c-2.3-0.8-4.2-2.1-5.7-3.6
		l5.4-5.5c0.8,1,1.9,1.9,3.3,2.6c1.4,0.7,2.7,1,4.1,1c0.6,0,1.2-0.1,1.8-0.2s1.1-0.3,1.5-0.6c0.4-0.3,0.8-0.7,1-1.2
		c0.3-0.5,0.4-1.1,0.4-1.7c0-0.6-0.2-1.2-0.5-1.6c-0.3-0.4-0.8-0.9-1.4-1.2c-0.6-0.4-1.3-0.7-2.2-1c-0.9-0.3-1.9-0.6-3-1
		c-1.1-0.4-2.2-0.8-3.2-1.2c-1-0.5-2-1.1-2.8-1.8c-0.8-0.8-1.5-1.7-2-2.7c-0.5-1.1-0.7-2.4-0.7-3.9c0-1.9,0.4-3.5,1.2-4.8
		s1.8-2.4,3-3.3c1.2-0.9,2.7-1.5,4.2-1.9c1.6-0.4,3.2-0.6,4.8-0.6c1.9,0,3.9,0.4,5.9,1.1c2,0.7,3.8,1.7,5.3,3.1L607.6,178.2z"/>
	<path d="M635.9,178.2c-0.7-0.9-1.6-1.6-2.8-2.1s-2.2-0.8-3.3-0.8c-0.5,0-1.1,0-1.7,0.1c-0.6,0.1-1.1,0.3-1.5,0.6
		c-0.4,0.3-0.8,0.6-1.1,1.1s-0.5,1-0.5,1.7c0,0.6,0.1,1.1,0.4,1.4c0.2,0.4,0.6,0.7,1.1,1s1,0.6,1.7,0.8c0.6,0.2,1.4,0.5,2.2,0.7
		c1.2,0.4,2.4,0.8,3.6,1.3c1.2,0.5,2.4,1.1,3.4,1.8c1,0.8,1.9,1.7,2.5,2.9s1,2.6,1,4.2c0,2-0.4,3.6-1.1,5.1
		c-0.7,1.4-1.7,2.6-2.9,3.5c-1.2,0.9-2.6,1.6-4.2,2.1c-1.6,0.4-3.2,0.7-4.8,0.7c-2.4,0-4.8-0.4-7.1-1.3c-2.3-0.8-4.2-2.1-5.7-3.6
		l5.4-5.5c0.8,1,1.9,1.9,3.3,2.6c1.4,0.7,2.7,1,4.1,1c0.6,0,1.2-0.1,1.8-0.2s1.1-0.3,1.5-0.6c0.4-0.3,0.8-0.7,1-1.2
		c0.3-0.5,0.4-1.1,0.4-1.7c0-0.6-0.2-1.2-0.5-1.6c-0.3-0.4-0.8-0.9-1.4-1.2c-0.6-0.4-1.3-0.7-2.2-1c-0.9-0.3-1.9-0.6-3-1
		c-1.1-0.4-2.2-0.8-3.2-1.2c-1-0.5-2-1.1-2.8-1.8c-0.8-0.8-1.5-1.7-2-2.7c-0.5-1.1-0.7-2.4-0.7-3.9c0-1.9,0.4-3.5,1.2-4.8
		s1.8-2.4,3-3.3c1.2-0.9,2.7-1.5,4.2-1.9c1.6-0.4,3.2-0.6,4.8-0.6c1.9,0,3.9,0.4,5.9,1.1c2,0.7,3.8,1.7,5.3,3.1L635.9,178.2z"/>
	<path d="M646.3,203.4v-34h22.8v6.9h-14.9v6.4h14.1v6.6h-14.1v7.1h15.8v7H646.3z"/>
	<path d="M708.7,196.8v6.6h-7.5v-6.6h-16V190l13.8-20.6h9.6v20.8h4.7v6.5H708.7z M701.2,177.7h-0.1l-8.1,12.6h8.2V177.7z"/>
	<path d="M727,199.2c0,1.3-0.5,2.5-1.4,3.4c-0.9,0.9-2.1,1.3-3.4,1.3c-0.7,0-1.3-0.1-1.9-0.4c-0.6-0.2-1.1-0.6-1.6-1
		c-0.4-0.4-0.8-0.9-1.1-1.5c-0.3-0.6-0.4-1.2-0.4-1.8c0-0.6,0.1-1.2,0.4-1.8c0.3-0.6,0.6-1.1,1.1-1.5c0.4-0.4,1-0.8,1.6-1
		c0.6-0.3,1.2-0.4,1.9-0.4c1.3,0,2.4,0.4,3.4,1.3C726.6,196.7,727,197.8,727,199.2z"/>
	<path d="M732.7,203.4v-6.7l13.2-12c0.8-0.8,1.5-1.6,2-2.4c0.5-0.8,0.8-1.8,0.8-2.8c0-1.2-0.4-2.2-1.2-2.9c-0.8-0.8-1.8-1.1-3.1-1.1
		c-1.3,0-2.4,0.5-3.3,1.4c-0.8,0.9-1.4,2.2-1.5,3.7l-7.7-1.1c0.2-1.7,0.7-3.3,1.4-4.6c0.8-1.3,1.7-2.5,2.9-3.5c1.2-1,2.5-1.7,4-2.2
		c1.5-0.5,3.1-0.8,4.7-0.8c1.6,0,3.1,0.2,4.6,0.6c1.5,0.4,2.8,1.1,3.9,1.9c1.2,0.9,2.1,2,2.8,3.3c0.7,1.3,1,2.8,1,4.6
		c0,1.2-0.2,2.3-0.5,3.3c-0.3,1-0.8,1.9-1.3,2.7c-0.6,0.8-1.2,1.6-1.9,2.3c-0.7,0.7-1.5,1.4-2.2,2.1l-7.9,7h13.9v7H732.7z"/>
</g>
<g class="st6">
	<path d="M758.4,210.1h-2.7l3.2-11.3h3.4L758.4,210.1z"/>
</g>
<g class="st6">
	<path d="M573.3,225.3c0,1.8,0.3,3.5,0.8,5.1c0.6,1.7,1.3,3.2,2.3,4.5l-1.6,1.1c-1.1-1.4-1.9-3.1-2.5-4.9s-1-3.8-1-5.8
		s0.3-3.9,1-5.8s1.5-3.5,2.5-4.9l1.6,1.1c-0.9,1.3-1.7,2.8-2.3,4.5C573.6,221.8,573.3,223.5,573.3,225.3z"/>
	<path d="M587.1,232.2h-2.3V218l-3.2,2.7l-1.4-1.6l4.8-3.9h2.1V232.2z"/>
	<path d="M601.1,220.8l2.6,8.7h0l2.7-8.7h2.4l2.8,8.7h0l2.6-8.7h2.4l-3.8,11.4h-2.4l-2.8-8.5h0l-2.8,8.5h-2.4l-3.8-11.4H601.1z"/>
	<path d="M625.9,224.8c0-0.8-0.3-1.5-0.8-1.9c-0.5-0.4-1.2-0.6-2-0.6c-0.6,0-1.2,0.1-1.8,0.4c-0.6,0.2-1,0.6-1.4,0.9l-1.2-1.4
		c0.6-0.5,1.2-0.9,2.1-1.2c0.8-0.3,1.7-0.5,2.6-0.5c0.8,0,1.5,0.1,2.1,0.3c0.6,0.2,1.1,0.5,1.5,0.9c0.4,0.4,0.7,0.9,0.9,1.4
		c0.2,0.5,0.3,1.1,0.3,1.8v5c0,0.4,0,0.8,0,1.2c0,0.4,0.1,0.8,0.1,1h-2c-0.1-0.5-0.2-1.1-0.2-1.6h-0.1c-0.4,0.6-0.9,1.1-1.6,1.4
		c-0.6,0.3-1.4,0.5-2.2,0.5c-0.4,0-0.9-0.1-1.4-0.2c-0.5-0.1-0.9-0.3-1.3-0.6c-0.4-0.3-0.7-0.6-1-1.1c-0.3-0.4-0.4-1-0.4-1.7
		c0-0.9,0.2-1.5,0.7-2.1s1.1-0.9,1.8-1.2s1.6-0.4,2.5-0.5s1.9-0.1,2.9-0.1V224.8z M625.4,226.8c-0.6,0-1.1,0-1.7,0.1
		c-0.6,0-1.1,0.1-1.6,0.3c-0.5,0.1-0.9,0.4-1.2,0.6c-0.3,0.3-0.5,0.7-0.5,1.2c0,0.3,0.1,0.6,0.2,0.8c0.1,0.2,0.3,0.4,0.5,0.6
		c0.2,0.1,0.5,0.2,0.7,0.3c0.3,0.1,0.6,0.1,0.8,0.1c1.1,0,1.9-0.3,2.4-0.9c0.6-0.6,0.9-1.4,0.9-2.4v-0.6H625.4z"/>
	<path d="M638,223.7c-0.3-0.4-0.6-0.8-1.1-1s-1-0.4-1.6-0.4c-0.3,0-0.5,0-0.8,0.1c-0.3,0.1-0.5,0.1-0.7,0.3
		c-0.2,0.1-0.4,0.3-0.5,0.5s-0.2,0.4-0.2,0.7c0,0.5,0.2,0.8,0.6,1.1c0.4,0.2,1.1,0.4,1.9,0.6c0.5,0.1,1,0.3,1.5,0.5
		c0.5,0.2,0.9,0.4,1.2,0.7c0.3,0.3,0.6,0.6,0.8,0.9c0.2,0.4,0.3,0.8,0.3,1.3c0,0.7-0.1,1.2-0.4,1.7c-0.3,0.5-0.6,0.8-1,1.1
		c-0.4,0.3-0.9,0.5-1.5,0.6c-0.5,0.1-1.1,0.2-1.7,0.2c-0.9,0-1.7-0.2-2.5-0.5s-1.5-0.8-2.1-1.5l1.6-1.4c0.3,0.4,0.7,0.8,1.3,1.1
		c0.5,0.3,1.1,0.5,1.8,0.5c0.3,0,0.6,0,0.8-0.1c0.3-0.1,0.5-0.1,0.7-0.3c0.2-0.1,0.4-0.3,0.5-0.5c0.1-0.2,0.2-0.5,0.2-0.8
		c0-0.5-0.3-0.9-0.8-1.2s-1.2-0.5-2.2-0.7c-0.4-0.1-0.8-0.2-1.2-0.3c-0.4-0.1-0.7-0.3-1.1-0.6c-0.3-0.2-0.6-0.5-0.8-0.9
		c-0.2-0.4-0.3-0.8-0.3-1.3c0-0.6,0.1-1.1,0.4-1.6c0.2-0.4,0.6-0.8,1-1.1c0.4-0.3,0.9-0.5,1.4-0.6c0.5-0.1,1-0.2,1.6-0.2
		c0.8,0,1.6,0.2,2.4,0.5s1.3,0.8,1.8,1.4L638,223.7z"/>
	<path d="M648.1,222.7h-3v5.9c0,0.7,0.1,1.2,0.4,1.5c0.3,0.3,0.7,0.4,1.2,0.4c0.2,0,0.4,0,0.7-0.1c0.2,0,0.5-0.1,0.6-0.2l0.1,1.8
		c-0.3,0.1-0.6,0.2-0.9,0.2c-0.3,0.1-0.7,0.1-1,0.1c-1.1,0-1.9-0.3-2.5-0.9c-0.6-0.6-0.9-1.5-0.9-2.7v-6.2h-2.2v-1.8h2.2v-3.3h2.2
		v3.3h3V222.7z"/>
	<path d="M661,226.4c0,0.1,0,0.3,0,0.4c0,0.1,0,0.3,0,0.4h-9c0,0.5,0.1,0.9,0.3,1.3c0.2,0.4,0.5,0.8,0.8,1.1s0.7,0.6,1.2,0.7
		c0.4,0.2,0.9,0.3,1.4,0.3c0.8,0,1.4-0.2,2-0.5c0.6-0.3,1-0.7,1.3-1.2l1.6,1.3c-0.6,0.8-1.3,1.4-2.1,1.8c-0.8,0.4-1.7,0.6-2.7,0.6
		c-0.9,0-1.7-0.1-2.4-0.4c-0.7-0.3-1.4-0.7-1.9-1.2c-0.5-0.5-0.9-1.1-1.2-1.9s-0.5-1.6-0.5-2.4c0-0.9,0.1-1.7,0.4-2.4
		c0.3-0.7,0.7-1.4,1.2-1.9s1.2-0.9,1.9-1.2c0.7-0.3,1.5-0.4,2.3-0.4c0.8,0,1.6,0.1,2.3,0.4s1.3,0.7,1.7,1.2c0.5,0.5,0.8,1.1,1.1,1.9
		C660.9,224.7,661,225.5,661,226.4z M658.7,225.5c0-0.4-0.1-0.9-0.2-1.3s-0.3-0.7-0.6-1c-0.3-0.3-0.6-0.5-1-0.7
		c-0.4-0.2-0.9-0.3-1.4-0.3c-0.5,0-0.9,0.1-1.4,0.3c-0.4,0.2-0.8,0.4-1.1,0.7c-0.3,0.3-0.6,0.6-0.8,1c-0.2,0.4-0.3,0.8-0.3,1.3
		H658.7z"/>
	<path d="M673.2,230.4c-0.4,0.7-1,1.2-1.8,1.6c-0.7,0.4-1.5,0.5-2.3,0.5c-0.9,0-1.7-0.2-2.4-0.5c-0.7-0.3-1.3-0.7-1.8-1.3
		c-0.5-0.5-0.9-1.2-1.2-1.9s-0.4-1.5-0.4-2.4s0.1-1.6,0.4-2.3c0.3-0.7,0.7-1.4,1.2-1.9c0.5-0.5,1.1-1,1.8-1.3
		c0.7-0.3,1.5-0.5,2.3-0.5c0.9,0,1.7,0.2,2.4,0.6c0.7,0.4,1.2,0.9,1.6,1.4h0V214h2.3v18.1h-2.2L673.2,230.4L673.2,230.4z
		 M665.7,226.5c0,0.5,0.1,1,0.2,1.5c0.2,0.5,0.4,0.9,0.7,1.3s0.7,0.7,1.2,0.9c0.5,0.2,1,0.3,1.6,0.3c0.6,0,1.1-0.1,1.6-0.3
		c0.5-0.2,0.9-0.5,1.2-0.9s0.6-0.8,0.8-1.3c0.2-0.5,0.3-1,0.3-1.6c0-0.5-0.1-1.1-0.3-1.6c-0.2-0.5-0.4-0.9-0.8-1.3s-0.7-0.7-1.2-0.9
		c-0.5-0.2-1-0.3-1.6-0.3c-0.6,0-1.2,0.1-1.6,0.3c-0.5,0.2-0.9,0.5-1.2,0.9s-0.6,0.8-0.7,1.3C665.8,225.5,665.7,226,665.7,226.5z"/>
	<path d="M696,226.4c0,0.1,0,0.3,0,0.4c0,0.1,0,0.3,0,0.4h-9c0,0.5,0.1,0.9,0.3,1.3c0.2,0.4,0.5,0.8,0.8,1.1s0.7,0.6,1.2,0.7
		c0.4,0.2,0.9,0.3,1.4,0.3c0.8,0,1.4-0.2,2-0.5c0.6-0.3,1-0.7,1.3-1.2l1.6,1.3c-0.6,0.8-1.3,1.4-2.1,1.8c-0.8,0.4-1.7,0.6-2.7,0.6
		c-0.9,0-1.7-0.1-2.4-0.4c-0.7-0.3-1.4-0.7-1.9-1.2c-0.5-0.5-0.9-1.1-1.2-1.9c-0.3-0.7-0.5-1.6-0.5-2.4c0-0.9,0.1-1.7,0.4-2.4
		s0.7-1.4,1.2-1.9c0.5-0.5,1.2-0.9,1.9-1.2c0.7-0.3,1.5-0.4,2.3-0.4s1.6,0.1,2.3,0.4c0.7,0.3,1.3,0.7,1.7,1.2
		c0.5,0.5,0.8,1.1,1.1,1.9C695.9,224.7,696,225.5,696,226.4z M693.7,225.5c0-0.4-0.1-0.9-0.2-1.3c-0.1-0.4-0.3-0.7-0.6-1
		c-0.3-0.3-0.6-0.5-1-0.7c-0.4-0.2-0.9-0.3-1.4-0.3c-0.5,0-0.9,0.1-1.4,0.3s-0.8,0.4-1.1,0.7c-0.3,0.3-0.6,0.6-0.8,1
		s-0.3,0.8-0.3,1.3H693.7z"/>
	<path d="M701.4,232.2h-2.3V214h2.3V232.2z"/>
	<path d="M716,226.4c0,0.1,0,0.3,0,0.4c0,0.1,0,0.3,0,0.4h-9c0,0.5,0.1,0.9,0.3,1.3c0.2,0.4,0.5,0.8,0.8,1.1s0.7,0.6,1.2,0.7
		c0.4,0.2,0.9,0.3,1.4,0.3c0.8,0,1.4-0.2,2-0.5c0.6-0.3,1-0.7,1.3-1.2l1.6,1.3c-0.6,0.8-1.3,1.4-2.1,1.8c-0.8,0.4-1.7,0.6-2.7,0.6
		c-0.9,0-1.7-0.1-2.4-0.4c-0.7-0.3-1.4-0.7-1.9-1.2c-0.5-0.5-0.9-1.1-1.2-1.9s-0.5-1.6-0.5-2.4c0-0.9,0.1-1.7,0.4-2.4
		c0.3-0.7,0.7-1.4,1.2-1.9s1.2-0.9,1.9-1.2c0.7-0.3,1.5-0.4,2.3-0.4c0.8,0,1.6,0.1,2.3,0.4s1.3,0.7,1.7,1.2c0.5,0.5,0.8,1.1,1.1,1.9
		C715.9,224.7,716,225.5,716,226.4z M713.7,225.5c0-0.4-0.1-0.9-0.2-1.3s-0.3-0.7-0.6-1c-0.3-0.3-0.6-0.5-1-0.7
		c-0.4-0.2-0.9-0.3-1.4-0.3c-0.5,0-0.9,0.1-1.4,0.3c-0.4,0.2-0.8,0.4-1.1,0.7c-0.3,0.3-0.6,0.6-0.8,1c-0.2,0.4-0.3,0.8-0.3,1.3
		H713.7z"/>
	<path d="M722.7,221.1c0.6-0.4,1.4-0.6,2.2-0.6c0.8,0,1.5,0.2,2.1,0.5c0.6,0.4,1.1,0.9,1.5,1.8c0.4-0.7,0.9-1.3,1.6-1.7
		c0.7-0.4,1.4-0.6,2.3-0.6c0.7,0,1.4,0.1,1.9,0.4c0.5,0.2,1,0.6,1.3,1c0.4,0.4,0.6,0.9,0.8,1.5s0.3,1.2,0.3,1.8v7.1h-2.3v-6.3
		c0-0.5,0-0.9-0.1-1.3s-0.2-0.8-0.4-1.1c-0.2-0.3-0.4-0.6-0.8-0.8c-0.3-0.2-0.7-0.3-1.2-0.3c-0.5,0-1,0.1-1.3,0.3
		c-0.4,0.2-0.7,0.5-0.9,0.8c-0.2,0.3-0.4,0.7-0.5,1.2c-0.1,0.4-0.2,0.9-0.2,1.3v6.1h-2.3v-6.8c0-0.4,0-0.9-0.1-1.2
		c-0.1-0.4-0.2-0.7-0.4-0.9c-0.2-0.3-0.4-0.5-0.7-0.6c-0.3-0.2-0.7-0.2-1.1-0.2c-0.8,0-1.5,0.3-2.1,1s-0.8,1.6-0.8,2.7v6h-2.3v-8.9
		c0-0.3,0-0.7,0-1.2s0-0.9-0.1-1.3h2.1c0,0.3,0.1,0.6,0.1,1c0,0.4,0,0.7,0,0.9h0.1C721.6,222.1,722.1,221.6,722.7,221.1z"/>
	<path d="M751,226.4c0,0.1,0,0.3,0,0.4c0,0.1,0,0.3,0,0.4h-9c0,0.5,0.1,0.9,0.3,1.3c0.2,0.4,0.5,0.8,0.8,1.1s0.7,0.6,1.2,0.7
		c0.4,0.2,0.9,0.3,1.4,0.3c0.8,0,1.4-0.2,2-0.5c0.6-0.3,1-0.7,1.3-1.2l1.6,1.3c-0.6,0.8-1.3,1.4-2.1,1.8c-0.8,0.4-1.7,0.6-2.7,0.6
		c-0.9,0-1.7-0.1-2.4-0.4c-0.7-0.3-1.4-0.7-1.9-1.2c-0.5-0.5-0.9-1.1-1.2-1.9s-0.5-1.6-0.5-2.4c0-0.9,0.1-1.7,0.4-2.4
		c0.3-0.7,0.7-1.4,1.2-1.9s1.2-0.9,1.9-1.2c0.7-0.3,1.5-0.4,2.3-0.4c0.8,0,1.6,0.1,2.3,0.4s1.3,0.7,1.7,1.2c0.5,0.5,0.8,1.1,1.1,1.9
		C750.9,224.7,751,225.5,751,226.4z M748.7,225.5c0-0.4-0.1-0.9-0.2-1.3s-0.3-0.7-0.6-1c-0.3-0.3-0.6-0.5-1-0.7
		c-0.4-0.2-0.9-0.3-1.4-0.3c-0.5,0-0.9,0.1-1.4,0.3c-0.4,0.2-0.8,0.4-1.1,0.7c-0.3,0.3-0.6,0.6-0.8,1c-0.2,0.4-0.3,0.8-0.3,1.3
		H748.7z"/>
	<path d="M756.2,220.8c0,0.3,0.1,0.6,0.1,1c0,0.4,0,0.7,0,0.9h0.1c0.1-0.3,0.3-0.6,0.6-0.9s0.5-0.5,0.9-0.7c0.3-0.2,0.7-0.4,1.1-0.5
		s0.8-0.2,1.2-0.2c0.7,0,1.4,0.1,1.9,0.4c0.5,0.2,1,0.6,1.3,1c0.4,0.4,0.6,0.9,0.8,1.5c0.2,0.6,0.3,1.2,0.3,1.8v7.1h-2.3v-6.3
		c0-0.5,0-0.9-0.1-1.3s-0.2-0.8-0.4-1.1c-0.2-0.3-0.5-0.6-0.8-0.8c-0.3-0.2-0.8-0.3-1.3-0.3c-0.9,0-1.6,0.3-2.2,1
		c-0.6,0.7-0.9,1.6-0.9,2.7v6h-2.3v-8.9c0-0.3,0-0.7,0-1.2s0-0.9-0.1-1.3H756.2z"/>
	<path d="M773.7,222.7h-3v5.9c0,0.7,0.1,1.2,0.4,1.5c0.3,0.3,0.7,0.4,1.2,0.4c0.2,0,0.4,0,0.7-0.1c0.2,0,0.5-0.1,0.6-0.2l0.1,1.8
		c-0.3,0.1-0.6,0.2-0.9,0.2c-0.3,0.1-0.7,0.1-1,0.1c-1.1,0-1.9-0.3-2.5-0.9c-0.6-0.6-0.9-1.5-0.9-2.7v-6.2h-2.2v-1.8h2.2v-3.3h2.2
		v3.3h3V222.7z"/>
	<path d="M778.8,225.3c0-1.8-0.3-3.5-0.8-5.1c-0.6-1.7-1.3-3.2-2.3-4.5l1.6-1.1c1.1,1.4,1.9,3.1,2.5,4.9s1,3.8,1,5.8s-0.3,3.9-1,5.8
		s-1.5,3.5-2.5,4.9l-1.6-1.1c0.9-1.3,1.7-2.8,2.3-4.5C778.5,228.8,778.8,227,778.8,225.3z"/>
</g>
<g class="st6">
	<path d="M102.7,203.4l-2.6-6.7H86.9l-2.5,6.7h-8.9l14.3-34h8l14.1,34H102.7z M93.6,178.5l-4.3,11.7h8.5L93.6,178.5z"/>
	<path d="M130,203.4h-8.2l-12.9-34h9.2l7.9,24.1h0.2l7.8-24.1h9.1L130,203.4z"/>
	<path d="M166.4,203.4l-7.4-12l-7.2,12H142l11.9-18l-10.9-16h9.9l6.3,10.6l6.2-10.6h9.6l-10.8,16l12.3,18H166.4z"/>
	<path d="M204.1,192.2c0,2.1-0.4,3.9-1.1,5.4c-0.7,1.5-1.7,2.8-3,3.8c-1.2,1-2.6,1.7-4.2,2.2c-1.6,0.5-3.2,0.7-4.8,0.7
		c-1.5,0-3-0.2-4.4-0.6c-1.4-0.4-2.7-1-3.8-1.7c-1.1-0.7-2.1-1.6-2.9-2.7c-0.8-1.1-1.4-2.3-1.8-3.6l7.3-2.3c0.4,1.2,1,2.2,2,2.9
		c1,0.8,2.1,1.2,3.5,1.2c1.4,0,2.6-0.4,3.6-1.2c1-0.8,1.5-2.1,1.5-3.7c0-1-0.2-1.8-0.6-2.5c-0.4-0.7-1-1.2-1.6-1.6
		c-0.7-0.4-1.4-0.7-2.2-0.8c-0.8-0.2-1.7-0.2-2.5-0.2c-1.2,0-2.6,0.1-4.2,0.4c-1.6,0.3-2.9,0.6-4.2,1.1l0.8-19.4h20.8v6.9h-13.7
		l-0.3,5.4c0.5-0.1,1.1-0.2,1.7-0.3s1.2-0.1,1.7-0.1c1.7,0,3.3,0.2,4.8,0.7c1.5,0.4,2.8,1.1,3.9,2s2,2,2.6,3.4
		C203.8,188.8,204.1,190.4,204.1,192.2z"/>
	<path d="M220.8,203.4v-25l-6.3,4.9l-4.2-5.7l11.2-8.2h7.3v34H220.8z"/>
	<path d="M241.4,203.4v-6.7l13.2-12c0.8-0.8,1.5-1.6,2-2.4c0.5-0.8,0.8-1.8,0.8-2.8c0-1.2-0.4-2.2-1.2-2.9s-1.8-1.1-3.1-1.1
		c-1.3,0-2.4,0.5-3.3,1.4c-0.8,0.9-1.4,2.2-1.5,3.7l-7.7-1.1c0.2-1.7,0.7-3.3,1.4-4.6c0.8-1.3,1.7-2.5,2.9-3.5c1.2-1,2.5-1.7,4-2.2
		c1.5-0.5,3.1-0.8,4.7-0.8c1.6,0,3.1,0.2,4.6,0.6c1.5,0.4,2.8,1.1,3.9,1.9c1.2,0.9,2.1,2,2.8,3.3c0.7,1.3,1,2.8,1,4.6
		c0,1.2-0.2,2.3-0.5,3.3c-0.3,1-0.8,1.9-1.3,2.7c-0.6,0.8-1.2,1.6-1.9,2.3c-0.7,0.7-1.5,1.4-2.2,2.1l-7.9,7H266v7H241.4z"/>
</g>
<g class="st6">
	<path d="M450.2,203.4l-2.6-6.7h-13.2l-2.5,6.7H423l14.3-34h8l14.1,34H450.2z M441.1,178.5l-4.3,11.7h8.5L441.1,178.5z"/>
	<path d="M477.5,203.4h-8.2l-12.9-34h9.2l7.9,24.1h0.2l7.8-24.1h9.1L477.5,203.4z"/>
	<path d="M513.9,203.4l-7.4-12l-7.2,12h-9.8l11.9-18l-10.9-16h9.9l6.3,10.6l6.2-10.6h9.6l-10.8,16l12.3,18H513.9z"/>
</g>
<g class="st6">
	<path d="M84.1,77.9h-5.7l-2.7-8.3H59.9l-2.7,8.3h-5.4l12.7-38.3h7.1L84.1,77.9z M74.3,64.9l-6.5-20.5l-6.5,20.5H74.3z"/>
	<path d="M90.3,48.5H95l0.1,5.4c1.7-2.1,3.5-3.6,5.1-4.5c1.7-0.9,3.4-1.4,5.1-1.4c3,0,5.4,1,6.9,3c1.6,2,2.3,4.9,2.2,8.8h-5.2
		c0.1-2.6-0.3-4.4-1.1-5.6c-0.8-1.2-2-1.7-3.6-1.7c-0.7,0-1.4,0.1-2.1,0.4c-0.7,0.2-1.4,0.6-2.1,1.2s-1.5,1.2-2.3,2.1
		s-1.7,1.9-2.6,3v18.9h-5.2V48.5z"/>
	<path d="M123.3,48.5h4.7l0.1,5.4c1.7-2.1,3.5-3.6,5.1-4.5c1.7-0.9,3.4-1.4,5.1-1.4c3,0,5.4,1,6.9,3c1.6,2,2.3,4.9,2.2,8.8h-5.2
		c0.1-2.6-0.3-4.4-1.1-5.6c-0.8-1.2-2-1.7-3.6-1.7c-0.7,0-1.4,0.1-2.1,0.4c-0.7,0.2-1.4,0.6-2.1,1.2s-1.5,1.2-2.3,2.1
		s-1.7,1.9-2.6,3v18.9h-5.2V48.5z"/>
	<path d="M174,77.9l-0.1-4c-1.6,1.6-3.2,2.7-4.9,3.4c-1.7,0.7-3.4,1.1-5.2,1.1c-1.7,0-3.1-0.2-4.3-0.6c-1.2-0.4-2.2-1-2.9-1.8
		c-0.8-0.8-1.3-1.6-1.7-2.7c-0.4-1-0.5-2.1-0.5-3.3c0-2.9,1.1-5.3,3.3-6.9s5.4-2.5,9.7-2.5h6.1v-2.6c0-1.7-0.6-3.1-1.7-4.2
		s-2.8-1.6-5.1-1.6c-1.7,0-3.3,0.2-4.9,0.6s-3.3,0.9-5,1.6v-4.6c0.6-0.2,1.4-0.5,2.2-0.7s1.6-0.4,2.5-0.6s1.8-0.3,2.8-0.4
		c1-0.1,1.9-0.2,2.9-0.2c1.8,0,3.4,0.2,4.8,0.6c1.4,0.4,2.6,1,3.6,1.8c1,0.8,1.7,1.8,2.3,3s0.8,2.6,0.8,4.3v20.3H174z M173.4,64.5
		H167c-1.3,0-2.4,0.1-3.3,0.4c-0.9,0.3-1.7,0.6-2.3,1.1s-1,1-1.3,1.7c-0.3,0.7-0.4,1.4-0.4,2.2c0,0.6,0.1,1.1,0.3,1.6s0.5,1,0.8,1.4
		c0.4,0.4,0.9,0.7,1.5,1c0.6,0.2,1.4,0.4,2.3,0.4c1.2,0,2.5-0.4,4-1.1c1.5-0.7,3.1-1.8,4.8-3.4V64.5z"/>
	<path d="M214.3,48.5l-10,26.3c-1,2.7-2.1,5-3.2,6.9c-1.1,1.9-2.3,3.5-3.6,4.8c-1.3,1.2-2.7,2.2-4.3,2.7c-1.6,0.6-3.3,0.9-5.2,0.9
		c-0.5,0-1,0-1.4,0s-0.9,0-1.3-0.1v-4.6c0.4,0.1,0.9,0.1,1.4,0.2c0.5,0,1,0.1,1.6,0.1c0.9,0,1.8-0.1,2.6-0.4
		c0.8-0.3,1.6-0.7,2.3-1.3c0.7-0.6,1.4-1.4,2.1-2.4c0.7-1,1.3-2.2,1.9-3.5l-11.7-29.4h5.8l7.4,19.5l1.5,4.6l1.7-4.7l6.9-19.3H214.3z
		"/>
	<path d="M243.3,75.2l-3.2,3.2L220.4,62l19.7-16.4l3.2,3.3l-16,13.1L243.3,75.2z"/>
</g>
<g class="st6">
	<path d="M280.2,42.6c-0.9-0.3-1.9-0.5-3.1-0.7c-1.2-0.2-2.4-0.3-3.6-0.3c-0.8,0-1.6,0.1-2.3,0.3c-0.7,0.2-1.3,0.6-1.9,1.1
		s-0.9,1.1-1.2,1.9c-0.3,0.8-0.5,1.7-0.5,2.7v4.8h11.7V58h-11.7v19.9h-7.2V58h-8.6v-5.6h8.6v-4.5c0-2.1,0.3-3.9,0.9-5.4
		s1.5-2.8,2.6-3.7c1.1-1,2.5-1.7,4.1-2.1s3.3-0.7,5.3-0.7c1.3,0,2.5,0.1,3.7,0.2c1.2,0.2,2.2,0.4,3.2,0.6V42.6z"/>
	<path d="M296,42.1h-8.4v-5.6h15.7v35.8h8.6v5.6h-25.3v-5.6h9.4V42.1z"/>
	<path d="M346.2,62.8c0,2.3-0.3,4.5-1,6.4c-0.7,1.9-1.6,3.6-2.9,5c-1.2,1.4-2.8,2.5-4.6,3.2s-3.9,1.1-6.2,1.1c-2.2,0-4.2-0.3-5.9-1
		c-1.7-0.6-3.2-1.6-4.4-2.9c-1.2-1.3-2.1-2.9-2.8-4.8s-1-4.2-1-6.7c0-2.4,0.3-4.5,1-6.4s1.6-3.6,2.9-5s2.8-2.4,4.6-3.2
		s3.9-1.1,6.2-1.1c2.2,0,4.2,0.3,5.9,1c1.7,0.7,3.2,1.6,4.4,2.9c1.2,1.3,2.1,2.9,2.8,4.8C345.9,58.1,346.2,60.3,346.2,62.8z
		 M338.8,63c0-3.1-0.6-5.4-1.7-7c-1.2-1.6-2.9-2.3-5.1-2.3c-1.2,0-2.3,0.2-3.2,0.7s-1.6,1.2-2.2,2c-0.6,0.8-1,1.8-1.2,3
		s-0.4,2.3-0.4,3.6c0,3.1,0.6,5.4,1.9,7c1.2,1.6,3,2.4,5.1,2.4c1.2,0,2.2-0.2,3.1-0.7s1.6-1.1,2.1-2c0.5-0.8,1-1.9,1.2-3
		C338.7,65.5,338.8,64.3,338.8,63z"/>
	<path d="M371.1,77.9l-0.2-3.9c-0.6,0.7-1.3,1.3-2,1.8c-0.7,0.6-1.4,1-2.3,1.5s-1.7,0.7-2.7,1s-2,0.3-3.2,0.3c-1.5,0-2.9-0.2-4-0.7
		c-1.2-0.4-2.1-1.1-2.9-1.9c-0.8-0.8-1.4-1.8-1.8-2.9c-0.4-1.1-0.6-2.4-0.6-3.8c0-1.4,0.3-2.7,0.9-3.9c0.6-1.2,1.5-2.2,2.7-3.1
		c1.2-0.9,2.7-1.5,4.6-2c1.8-0.5,4-0.7,6.4-0.7h3.9v-1.8c0-0.8-0.1-1.5-0.3-2.1c-0.2-0.6-0.6-1.1-1-1.6c-0.5-0.4-1.1-0.8-1.9-1
		s-1.7-0.4-2.8-0.4c-1.8,0-3.5,0.2-5.2,0.6c-1.7,0.4-3.4,1-5,1.7v-5.7c1.4-0.6,3.1-1,4.9-1.4c1.9-0.4,3.8-0.6,5.8-0.6
		c2.2,0,4.1,0.2,5.7,0.6s2.9,1,3.9,1.9s1.8,1.9,2.3,3.1c0.5,1.3,0.7,2.7,0.7,4.4v20.3H371.1z M370.1,64.8h-4.4
		c-1.2,0-2.2,0.1-3.1,0.4c-0.8,0.2-1.5,0.6-2.1,1s-0.9,0.9-1.2,1.4c-0.2,0.5-0.4,1.1-0.4,1.7c0,1.2,0.4,2.1,1.2,2.8
		c0.8,0.6,1.8,1,3.2,1c1,0,2-0.4,3.1-1.1c1.1-0.7,2.3-1.8,3.5-3.1V64.8z"/>
	<path d="M410,77.6c-1.3,0.3-2.6,0.5-3.9,0.7s-2.5,0.3-3.7,0.3c-2,0-3.6-0.2-5.1-0.6c-1.4-0.4-2.6-1-3.5-1.9
		c-0.9-0.8-1.6-1.9-2.1-3.2s-0.7-2.8-0.7-4.6V53.7h-8v-5.6h8v-7.6l7.3-1.9v9.5H410v5.6h-11.6v14c0,1.7,0.4,3,1.2,3.9
		s2.1,1.3,3.9,1.3c1.2,0,2.3-0.1,3.4-0.3s2.1-0.4,3-0.7V77.6z"/>
</g>
<g class="st6">
	<path d="M421.3,83.9c1,0,2,0,2.9-0.3s1.8-0.5,2.5-1c0.7-0.4,1.3-0.9,1.7-1.6c0.4-0.6,0.6-1.3,0.6-2.1c0-0.8-0.1-1.5-0.4-2
		c-0.3-0.5-0.6-1-1-1.4s-0.7-0.9-1-1.4c-0.3-0.5-0.4-1.1-0.4-2c0-0.4,0.1-0.8,0.2-1.3c0.2-0.4,0.4-0.9,0.7-1.2s0.7-0.7,1.2-0.9
		s1.1-0.4,1.8-0.4c0.7,0,1.3,0.1,2,0.4c0.6,0.3,1.2,0.7,1.7,1.3c0.5,0.6,0.9,1.3,1.1,2.2c0.3,0.9,0.4,1.9,0.4,3.1
		c0,1.6-0.3,3.2-0.9,4.7c-0.6,1.5-1.5,2.8-2.7,4c-1.2,1.2-2.7,2.1-4.4,2.8c-1.8,0.7-3.8,1-6.2,1V83.9z"/>
	<path d="M509.8,77.9h-25.2v-4.6l9.9-9.8c1.6-1.6,2.9-3,4-4.2c1-1.2,1.8-2.2,2.4-3.2c0.6-1,0.9-1.9,1.1-2.7c0.2-0.9,0.3-1.8,0.3-2.8
		c0-0.9-0.1-1.8-0.4-2.7c-0.3-0.8-0.6-1.6-1.2-2.2s-1.2-1.2-2.1-1.5c-0.8-0.4-1.8-0.6-3-0.6c-1.6,0-3.1,0.4-4.4,1.1
		c-1.3,0.7-2.5,1.7-3.7,2.8l-2.8-3.4c1.4-1.5,3.1-2.7,5-3.7c1.9-0.9,4.1-1.4,6.6-1.4c1.7,0,3.2,0.3,4.6,0.8c1.4,0.5,2.6,1.2,3.6,2.2
		c1,1,1.8,2.1,2.4,3.5s0.8,2.9,0.8,4.7c0,1.5-0.2,2.8-0.6,4.1c-0.4,1.2-1,2.5-1.8,3.7s-1.8,2.5-3,3.9s-2.6,2.8-4.3,4.4l-6.9,6.8
		h18.6V77.9z"/>
	<path d="M542.6,44.4l-16.1,33.5h-5.8l16.7-33.5h-20.7v-4.7h25.9V44.4z"/>
	<path d="M552.4,48.8l3.2-3.3L575.2,62l-19.7,16.4l-3.2-3.2l16-13.2L552.4,48.8z"/>
</g>
<line class="st7" x1="158.3" y1="128.7" x2="158.3" y2="161.3"/>
<line class="st7" x1="472" y1="128.7" x2="472" y2="161.3"/>
<line class="st7" x1="610.1" y1="128.7" x2="610.1" y2="161.3"/>
</svg>
