<?xml version="1.0" encoding="utf-8"?>
<!-- Generator: Adobe Illustrator 23.0.6, SVG Export Plug-In . SVG Version: 6.00 Build 0)  -->
<svg version="1.1" id="Layer_1" xmlns="http://www.w3.org/2000/svg" xmlns:xlink="http://www.w3.org/1999/xlink" x="0px" y="0px"
	 viewBox="0 0 1830 576" style="enable-background:new 0 0 1830 576;" xml:space="preserve">
<style type="text/css">
	.st0{fill:#A6A6A6;}
	.st1{fill:none;stroke:#E8E8E8;stroke-width:40;stroke-miterlimit:10;}
	.st2{fill:#E8E8E8;}
	.st3{fill:none;stroke:#E8E8E8;stroke-width:20;stroke-miterlimit:10;}
	.st4{fill:#D4FFD4;}
	.st5{fill:none;stroke:#000000;stroke-width:3.2736;stroke-miterlimit:10;}
	.st6{fill:#FFDEDE;}
	.st7{fill:#E2DEFF;}
	.st8{fill:#FF0000;}
	.st9{fill:#EEFCEE;}
	.st10{fill:#FFC2B4;}
	.st11{fill:#FFA691;stroke:#000000;stroke-width:3.2736;stroke-miterlimit:10;}
	.st12{fill:#FFDED6;stroke:#000000;stroke-width:3.2736;stroke-miterlimit:10;}
	.st13{fill:#7A7A7A;}
	.st14{fill:#D00023;}
	.st15{fill:#007F2F;}
	.st16{fill:#002F7F;}
	.st17{fill:#009E30;}
	.st18{fill:none;stroke:#000000;stroke-width:6;stroke-miterlimit:10;}
	.st19{fill:none;stroke:#000000;stroke-width:3;stroke-miterlimit:10;}
</style>
<rect x="863.64" y="20.63" class="st4" width="105.57" height="104.74"/>
<rect x="863.64" y="20.63" class="st5" width="105.57" height="104.74"/>
<g>
	<path d="M899.77,82.96h-3.64l-4.27-5.99l-4.22,5.99h-3.54l6.13-7.88l-5.84-7.82h3.51l4.16,6.03l4.08-6.03h3.39l-5.94,7.88
		L899.77,82.96z"/>
	<path d="M913.93,89.37h-7.77V60.33h7.77v2.19h-5.15v24.66h5.15V89.37z"/>
	<path d="M934.82,72.75c0,1.56-0.16,2.99-0.47,4.27c-0.32,1.29-0.79,2.39-1.43,3.31c-0.64,0.92-1.44,1.64-2.39,2.14
		c-0.95,0.5-2.07,0.76-3.35,0.76c-1.1,0-2.11-0.21-3.01-0.62c-0.9-0.41-1.68-1.04-2.32-1.9c-0.64-0.85-1.13-1.94-1.48-3.27
		s-0.52-2.89-0.52-4.7c0-1.56,0.16-2.99,0.48-4.28c0.32-1.29,0.8-2.4,1.43-3.32c0.64-0.92,1.43-1.64,2.39-2.14
		c0.96-0.51,2.07-0.76,3.34-0.76c1.1,0,2.11,0.21,3.01,0.62c0.9,0.41,1.68,1.05,2.32,1.91c0.64,0.86,1.13,1.95,1.48,3.27
		S934.82,70.94,934.82,72.75z M922.63,72.66c0,0.32,0,0.65,0.01,0.97s0.02,0.64,0.06,0.94l8.71-6.39c-0.16-0.53-0.36-1.02-0.6-1.45
		s-0.53-0.82-0.87-1.13c-0.34-0.32-0.72-0.56-1.15-0.74c-0.43-0.18-0.91-0.27-1.45-0.27c-0.71,0-1.36,0.17-1.95,0.52
		c-0.58,0.34-1.08,0.86-1.49,1.54s-0.72,1.53-0.95,2.53C922.74,70.17,922.63,71.33,922.63,72.66z M932.05,72.84
		c0-0.35-0.01-0.71-0.04-1.06c-0.03-0.35-0.05-0.69-0.09-1.02l-8.71,6.42c0.16,0.54,0.36,1.04,0.6,1.5
		c0.24,0.46,0.53,0.85,0.87,1.18s0.73,0.58,1.17,0.77c0.44,0.18,0.93,0.27,1.49,0.27c0.71,0,1.36-0.17,1.95-0.52
		c0.58-0.34,1.08-0.85,1.49-1.53c0.41-0.68,0.72-1.52,0.95-2.52C931.94,75.33,932.05,74.17,932.05,72.84z"/>
	<path d="M948.51,89.37h-7.77v-2.19h5.12V62.51h-5.12v-2.19h7.77V89.37z"/>
</g>
<rect x="969.22" y="20.63" class="st4" width="105.57" height="104.74"/>
<rect x="969.22" y="20.63" class="st5" width="105.57" height="104.74"/>
<g>
	<path d="M1005.34,82.96h-3.64l-4.27-5.99l-4.22,5.99h-3.54l6.13-7.88l-5.84-7.82h3.51l4.16,6.03l4.08-6.03h3.39l-5.94,7.88
		L1005.34,82.96z"/>
	<path d="M1019.51,89.37h-7.77V60.33h7.77v2.19h-5.15v24.66h5.15V89.37z"/>
	<path d="M1039.75,82.96h-12.93v-2.53h5.29V65.51l-4.93,2.66l-1.01-2.31l6.55-3.42h2.43v17.99h4.6V82.96z"/>
	<path d="M1054.09,89.37h-7.77v-2.19h5.12V62.51h-5.12v-2.19h7.77V89.37z"/>
</g>
<rect x="1074.79" y="20.63" class="st4" width="105.57" height="104.74"/>
<rect x="1074.79" y="20.63" class="st5" width="105.57" height="104.74"/>
<g>
	<path d="M1110.92,82.96h-3.64l-4.27-5.99l-4.22,5.99h-3.54l6.13-7.88l-5.84-7.82h3.51l4.16,6.03l4.08-6.03h3.39l-5.94,7.88
		L1110.92,82.96z"/>
	<path d="M1125.08,89.37h-7.77V60.33h7.77v2.19h-5.15v24.66h5.15V89.37z"/>
	<path d="M1145.5,82.96h-13.56v-2.44l5.32-5.25c0.87-0.85,1.58-1.59,2.13-2.22c0.55-0.62,0.97-1.2,1.28-1.71
		c0.3-0.52,0.51-1,0.61-1.46c0.1-0.46,0.16-0.95,0.16-1.49c0-0.5-0.07-0.98-0.2-1.43c-0.14-0.45-0.35-0.85-0.63-1.2
		c-0.28-0.34-0.65-0.62-1.1-0.81c-0.45-0.2-0.99-0.3-1.62-0.3c-0.87,0-1.67,0.19-2.38,0.58c-0.71,0.39-1.37,0.89-1.97,1.5l-1.51-1.8
		c0.78-0.81,1.67-1.46,2.69-1.95c1.01-0.49,2.19-0.74,3.54-0.74c0.91,0,1.75,0.14,2.5,0.41c0.75,0.27,1.4,0.66,1.95,1.17
		c0.55,0.51,0.97,1.14,1.27,1.88c0.3,0.74,0.45,1.57,0.45,2.5c0,0.78-0.1,1.51-0.31,2.17c-0.21,0.67-0.53,1.33-0.95,1.99
		c-0.43,0.66-0.96,1.35-1.61,2.05c-0.65,0.71-1.41,1.49-2.29,2.33l-3.73,3.61h10V82.96z"/>
	<path d="M1159.66,89.37h-7.77v-2.19h5.12V62.51h-5.12v-2.19h7.77V89.37z"/>
</g>
<rect x="1180.36" y="20.63" class="st4" width="105.57" height="104.74"/>
<rect x="1180.36" y="20.63" class="st5" width="105.57" height="104.74"/>
<g>
	<path d="M1216.49,82.96h-3.64l-4.27-5.99l-4.22,5.99h-3.54l6.13-7.88l-5.84-7.82h3.51l4.16,6.03l4.08-6.03h3.39l-5.94,7.88
		L1216.49,82.96z"/>
	<path d="M1230.65,89.37h-7.77V60.33h7.77v2.19h-5.15v24.66h5.15V89.37z"/>
	<path d="M1250.68,76.75c0,0.9-0.18,1.74-0.55,2.52s-0.92,1.47-1.65,2.06c-0.74,0.59-1.66,1.05-2.77,1.39
		c-1.11,0.34-2.41,0.51-3.89,0.51c-0.82,0-1.55-0.03-2.21-0.08s-1.26-0.12-1.83-0.2v-2.44c0.65,0.12,1.34,0.2,2.06,0.27
		s1.47,0.09,2.22,0.09c1.03,0,1.91-0.09,2.64-0.27c0.73-0.18,1.33-0.45,1.79-0.79c0.46-0.34,0.8-0.76,1.01-1.25
		c0.21-0.49,0.31-1.04,0.31-1.66c0-0.56-0.13-1.05-0.38-1.47c-0.25-0.42-0.61-0.77-1.06-1.05c-0.46-0.28-1-0.49-1.64-0.63
		s-1.33-0.21-2.09-0.21h-2.35v-2.24h2.38c0.62,0,1.18-0.08,1.69-0.24c0.51-0.16,0.95-0.39,1.31-0.7c0.36-0.3,0.64-0.67,0.83-1.12
		c0.19-0.44,0.29-0.95,0.29-1.51c0-1.09-0.34-1.89-1.01-2.39c-0.67-0.5-1.66-0.75-2.96-0.75c-0.69,0-1.41,0.07-2.14,0.2
		c-0.73,0.14-1.52,0.34-2.36,0.61v-2.38c0.36-0.12,0.74-0.24,1.14-0.34c0.4-0.1,0.81-0.18,1.21-0.25c0.4-0.07,0.81-0.12,1.21-0.16
		c0.4-0.04,0.78-0.05,1.15-0.05c1.09,0,2.05,0.12,2.88,0.35c0.83,0.23,1.52,0.57,2.08,1.01s0.98,0.97,1.26,1.59
		c0.28,0.63,0.43,1.33,0.43,2.11c0,1.17-0.3,2.15-0.91,2.94s-1.43,1.42-2.48,1.89c0.54,0.08,1.06,0.25,1.58,0.5s0.99,0.57,1.4,0.96
		c0.41,0.39,0.75,0.85,1.01,1.38C1250.55,75.52,1250.68,76.11,1250.68,76.75z"/>
	<path d="M1265.23,89.37h-7.77v-2.19h5.12V62.51h-5.12v-2.19h7.77V89.37z"/>
</g>
<line class="st5" x1="1285.94" y1="20.63" x2="1285.94" y2="125.37"/>
<rect x="863.68" y="125.37" class="st6" width="105.57" height="104.74"/>
<rect x="863.68" y="125.37" class="st5" width="105.57" height="104.74"/>
<rect x="969.25" y="125.37" class="st6" width="105.57" height="104.74"/>
<rect x="969.25" y="125.37" class="st5" width="105.57" height="104.74"/>
<rect x="1074.82" y="125.37" class="st6" width="105.57" height="104.74"/>
<rect x="1074.82" y="125.37" class="st5" width="105.57" height="104.74"/>
<rect x="1180.4" y="125.37" class="st6" width="105.57" height="104.74"/>
<rect x="1180.4" y="125.37" class="st5" width="105.57" height="104.74"/>
<line class="st5" x1="1285.97" y1="125.37" x2="1285.97" y2="230.11"/>
<rect x="1373.07" y="75" class="st7" width="105.57" height="104.74"/>
<rect x="1373.07" y="75" class="st5" width="105.57" height="104.74"/>
<rect x="1478.64" y="75" class="st7" width="105.57" height="104.74"/>
<rect x="1478.64" y="75" class="st5" width="105.57" height="104.74"/>
<rect x="1584.21" y="75" class="st7" width="105.57" height="104.74"/>
<rect x="1584.21" y="75" class="st5" width="105.57" height="104.74"/>
<rect x="1689.79" y="75" class="st7" width="105.57" height="104.74"/>
<rect x="1689.79" y="75" class="st5" width="105.57" height="104.74"/>
<line class="st5" x1="1795.36" y1="75" x2="1795.36" y2="179.74"/>
<g>
	<path d="M1348.42,114.88v5.56h-37.55v-5.56H1348.42z M1348.42,133.67v5.56h-37.55v-5.56H1348.42z"/>
</g>
<g>
	<path d="M899.64,178.01l-5.39,14.04c-0.56,1.43-1.13,2.66-1.73,3.69c-0.59,1.03-1.24,1.88-1.95,2.54c-0.7,0.66-1.48,1.15-2.32,1.46
		c-0.84,0.31-1.78,0.47-2.82,0.47c-0.27,0-0.52,0-0.74-0.02c-0.22-0.01-0.46-0.03-0.72-0.05v-2.47c0.23,0.03,0.48,0.06,0.76,0.09
		c0.27,0.03,0.56,0.04,0.87,0.04c0.5,0,0.97-0.07,1.41-0.22c0.44-0.15,0.85-0.38,1.24-0.71s0.76-0.75,1.12-1.27
		c0.36-0.52,0.7-1.15,1.04-1.89l-6.32-15.69h3.12l4,10.38l0.8,2.44l0.91-2.5l3.7-10.32H899.64z"/>
	<path d="M913.99,200.11h-7.77v-29.04h7.77v2.19h-5.15v24.66h5.15V200.11z"/>
	<path d="M934.88,183.49c0,1.56-0.16,2.99-0.47,4.27c-0.32,1.29-0.79,2.39-1.43,3.31c-0.64,0.92-1.44,1.64-2.39,2.14
		c-0.95,0.5-2.07,0.76-3.35,0.76c-1.1,0-2.11-0.21-3.01-0.62c-0.9-0.41-1.68-1.04-2.32-1.9c-0.64-0.85-1.13-1.94-1.48-3.27
		s-0.52-2.89-0.52-4.7c0-1.56,0.16-2.99,0.48-4.28c0.32-1.29,0.8-2.4,1.43-3.32c0.64-0.92,1.43-1.64,2.39-2.14
		c0.96-0.51,2.07-0.76,3.34-0.76c1.1,0,2.11,0.21,3.01,0.62c0.9,0.41,1.68,1.05,2.32,1.91c0.64,0.86,1.13,1.95,1.48,3.27
		S934.88,181.68,934.88,183.49z M922.69,183.4c0,0.32,0,0.65,0.01,0.97s0.02,0.64,0.06,0.94l8.71-6.39
		c-0.16-0.53-0.36-1.02-0.6-1.45s-0.53-0.82-0.87-1.13c-0.34-0.32-0.72-0.56-1.15-0.74c-0.43-0.18-0.91-0.27-1.45-0.27
		c-0.71,0-1.36,0.17-1.95,0.52c-0.58,0.34-1.08,0.86-1.49,1.54s-0.72,1.53-0.95,2.53C922.8,180.91,922.69,182.08,922.69,183.4z
		 M932.11,183.59c0-0.35-0.01-0.71-0.04-1.06c-0.03-0.35-0.05-0.69-0.09-1.02l-8.71,6.42c0.16,0.54,0.36,1.04,0.6,1.5
		c0.24,0.46,0.53,0.85,0.87,1.18s0.73,0.58,1.17,0.77c0.44,0.18,0.93,0.27,1.49,0.27c0.71,0,1.36-0.17,1.95-0.52
		c0.58-0.34,1.08-0.85,1.49-1.53c0.41-0.68,0.72-1.52,0.95-2.52C932,186.07,932.11,184.91,932.11,183.59z"/>
	<path d="M948.57,200.11h-7.77v-2.19h5.12v-24.66h-5.12v-2.19h7.77V200.11z"/>
</g>
<g>
	<path d="M1005.22,177.01l-5.39,14.04c-0.56,1.43-1.13,2.66-1.73,3.69c-0.59,1.03-1.24,1.88-1.95,2.54
		c-0.7,0.66-1.48,1.15-2.32,1.46c-0.84,0.31-1.78,0.47-2.82,0.47c-0.27,0-0.52,0-0.74-0.02c-0.22-0.01-0.46-0.03-0.72-0.05v-2.47
		c0.23,0.03,0.48,0.06,0.76,0.09c0.27,0.03,0.56,0.04,0.87,0.04c0.5,0,0.97-0.07,1.41-0.22c0.44-0.15,0.85-0.38,1.24-0.71
		s0.76-0.75,1.12-1.27c0.36-0.52,0.7-1.15,1.04-1.89l-6.32-15.69h3.12l4,10.38l0.8,2.44l0.91-2.5l3.7-10.32H1005.22z"/>
	<path d="M1019.57,199.11h-7.77v-29.04h7.77v2.19h-5.15v24.66h5.15V199.11z"/>
	<path d="M1039.82,192.7h-12.93v-2.53h5.29v-14.91l-4.93,2.66l-1.01-2.31l6.55-3.42h2.43v17.99h4.6V192.7z"/>
	<path d="M1054.15,199.11h-7.77v-2.19h5.12v-24.66h-5.12v-2.19h7.77V199.11z"/>
</g>
<g>
	<path d="M1110.8,177.01l-5.39,14.04c-0.56,1.43-1.13,2.66-1.72,3.69c-0.59,1.03-1.24,1.88-1.95,2.54c-0.7,0.66-1.48,1.15-2.32,1.46
		c-0.84,0.31-1.78,0.47-2.82,0.47c-0.27,0-0.52,0-0.74-0.02s-0.46-0.03-0.72-0.05v-2.47c0.23,0.03,0.48,0.06,0.76,0.09
		c0.27,0.03,0.56,0.04,0.87,0.04c0.5,0,0.97-0.07,1.41-0.22c0.44-0.15,0.85-0.38,1.24-0.71c0.39-0.33,0.76-0.75,1.12-1.27
		c0.36-0.52,0.7-1.15,1.04-1.89l-6.32-15.69h3.12l4,10.38l0.8,2.44l0.91-2.5l3.7-10.32H1110.8z"/>
	<path d="M1125.15,199.11h-7.77v-29.04h7.77v2.19H1120v24.66h5.15V199.11z"/>
	<path d="M1145.57,192.7h-13.56v-2.44l5.33-5.25c0.87-0.85,1.58-1.59,2.13-2.22s0.97-1.2,1.28-1.71s0.51-1,0.61-1.46
		c0.1-0.46,0.16-0.95,0.16-1.49c0-0.5-0.07-0.98-0.2-1.43c-0.14-0.45-0.35-0.85-0.63-1.2c-0.28-0.34-0.65-0.62-1.1-0.81
		c-0.45-0.2-0.99-0.3-1.62-0.3c-0.87,0-1.66,0.19-2.38,0.58c-0.71,0.39-1.37,0.89-1.97,1.5l-1.51-1.8c0.78-0.81,1.67-1.46,2.69-1.95
		c1.01-0.49,2.19-0.74,3.54-0.74c0.91,0,1.75,0.14,2.5,0.41c0.75,0.27,1.4,0.66,1.95,1.17c0.55,0.51,0.97,1.14,1.27,1.88
		c0.3,0.74,0.45,1.57,0.45,2.5c0,0.78-0.11,1.51-0.32,2.17s-0.53,1.33-0.95,1.99c-0.42,0.66-0.96,1.35-1.61,2.05
		c-0.65,0.71-1.41,1.49-2.29,2.33l-3.73,3.61h10V192.7z"/>
	<path d="M1159.73,199.11h-7.77v-2.19h5.12v-24.66h-5.12v-2.19h7.77V199.11z"/>
</g>
<g>
	<path d="M1216.38,177.01l-5.39,14.04c-0.56,1.43-1.13,2.66-1.72,3.69c-0.59,1.03-1.24,1.88-1.95,2.54
		c-0.7,0.66-1.48,1.15-2.32,1.46c-0.84,0.31-1.78,0.47-2.82,0.47c-0.27,0-0.52,0-0.74-0.02s-0.46-0.03-0.72-0.05v-2.47
		c0.23,0.03,0.48,0.06,0.76,0.09c0.27,0.03,0.56,0.04,0.87,0.04c0.5,0,0.97-0.07,1.41-0.22c0.44-0.15,0.85-0.38,1.24-0.71
		c0.39-0.33,0.76-0.75,1.12-1.27c0.36-0.52,0.7-1.15,1.04-1.89l-6.32-15.69h3.12l4,10.38l0.8,2.44l0.91-2.5l3.7-10.32H1216.38z"/>
	<path d="M1230.73,199.11h-7.77v-29.04h7.77v2.19h-5.15v24.66h5.15V199.11z"/>
	<path d="M1250.76,186.49c0,0.9-0.18,1.74-0.55,2.52c-0.37,0.79-0.92,1.47-1.65,2.06c-0.74,0.59-1.66,1.05-2.77,1.39
		s-2.41,0.51-3.89,0.51c-0.82,0-1.55-0.03-2.21-0.08s-1.26-0.12-1.83-0.2v-2.44c0.65,0.12,1.34,0.2,2.06,0.27s1.46,0.09,2.22,0.09
		c1.03,0,1.91-0.09,2.64-0.27c0.73-0.18,1.33-0.45,1.79-0.79c0.46-0.34,0.8-0.76,1.01-1.25c0.21-0.49,0.32-1.04,0.32-1.66
		c0-0.56-0.13-1.05-0.38-1.47c-0.25-0.42-0.61-0.77-1.06-1.05s-1-0.49-1.64-0.63s-1.33-0.21-2.09-0.21h-2.35v-2.24h2.38
		c0.62,0,1.18-0.08,1.69-0.24c0.51-0.16,0.95-0.39,1.31-0.7c0.36-0.3,0.64-0.67,0.83-1.12c0.19-0.44,0.29-0.95,0.29-1.51
		c0-1.09-0.34-1.89-1.01-2.39c-0.67-0.5-1.66-0.75-2.96-0.75c-0.69,0-1.41,0.07-2.14,0.2c-0.74,0.14-1.52,0.34-2.36,0.61v-2.38
		c0.36-0.12,0.74-0.24,1.14-0.34c0.4-0.1,0.81-0.18,1.21-0.25c0.4-0.07,0.81-0.12,1.21-0.16c0.4-0.04,0.78-0.05,1.15-0.05
		c1.09,0,2.05,0.12,2.88,0.35c0.83,0.23,1.52,0.57,2.08,1.01c0.56,0.44,0.98,0.97,1.26,1.59c0.28,0.63,0.43,1.33,0.43,2.11
		c0,1.17-0.3,2.15-0.91,2.94s-1.43,1.42-2.48,1.89c0.54,0.08,1.06,0.25,1.58,0.5c0.52,0.25,0.99,0.57,1.4,0.96s0.75,0.85,1.01,1.38
		C1250.63,185.26,1250.76,185.85,1250.76,186.49z"/>
	<path d="M1265.31,199.11h-7.77v-2.19h5.12v-24.66h-5.12v-2.19h7.77V199.11z"/>
</g>
<g>
	<path d="M1404.38,136.03h-12.75v-1.95l8.93-11.46h-8.71v-2.28h12v2.13l-8.78,11.27h9.29V136.03z"/>
	<path d="M1419.99,142.44h-7.77V113.4h7.77v2.19h-5.15v24.66h5.15V142.44z"/>
	<path d="M1440.88,125.83c0,1.56-0.16,2.99-0.47,4.27c-0.32,1.29-0.79,2.39-1.43,3.31c-0.64,0.92-1.44,1.64-2.39,2.14
		c-0.95,0.5-2.07,0.76-3.35,0.76c-1.1,0-2.11-0.21-3.01-0.62c-0.9-0.41-1.68-1.04-2.32-1.9c-0.64-0.85-1.13-1.94-1.48-3.27
		s-0.52-2.89-0.52-4.7c0-1.56,0.16-2.99,0.48-4.28c0.32-1.29,0.8-2.4,1.43-3.32c0.64-0.92,1.43-1.64,2.39-2.14
		c0.96-0.51,2.07-0.76,3.34-0.76c1.1,0,2.11,0.21,3.01,0.62c0.9,0.41,1.68,1.05,2.32,1.91c0.64,0.86,1.13,1.95,1.48,3.27
		S1440.88,124.01,1440.88,125.83z M1428.69,125.73c0,0.32,0,0.65,0.01,0.97s0.02,0.64,0.06,0.94l8.71-6.39
		c-0.16-0.53-0.36-1.02-0.6-1.45s-0.53-0.82-0.87-1.13c-0.34-0.32-0.72-0.56-1.15-0.74c-0.43-0.18-0.91-0.27-1.45-0.27
		c-0.71,0-1.36,0.17-1.95,0.52c-0.58,0.34-1.08,0.86-1.49,1.54s-0.72,1.53-0.95,2.53C1428.8,123.24,1428.69,124.41,1428.69,125.73z
		 M1438.11,125.92c0-0.35-0.01-0.71-0.04-1.06c-0.03-0.35-0.05-0.69-0.09-1.02l-8.71,6.42c0.16,0.54,0.36,1.04,0.6,1.5
		c0.24,0.46,0.53,0.85,0.87,1.18s0.73,0.58,1.17,0.77c0.44,0.18,0.93,0.27,1.49,0.27c0.71,0,1.36-0.17,1.95-0.52
		c0.58-0.34,1.08-0.85,1.49-1.53c0.41-0.68,0.72-1.52,0.95-2.52C1438,128.41,1438.11,127.24,1438.11,125.92z"/>
	<path d="M1454.57,142.44h-7.77v-2.19h5.12v-24.66h-5.12v-2.19h7.77V142.44z"/>
</g>
<g>
	<path d="M1509.96,136.03h-12.75v-1.95l8.93-11.46h-8.71v-2.28h12v2.13l-8.78,11.27h9.29V136.03z"/>
	<path d="M1525.57,142.44h-7.77V113.4h7.77v2.19h-5.15v24.66h5.15V142.44z"/>
	<path d="M1545.82,136.03h-12.93v-2.53h5.29v-14.91l-4.93,2.66l-1.01-2.31l6.55-3.42h2.43v17.99h4.6V136.03z"/>
	<path d="M1560.15,142.44h-7.77v-2.19h5.12v-24.66h-5.12v-2.19h7.77V142.44z"/>
</g>
<g>
	<path d="M1615.54,136.03h-12.75v-1.95l8.93-11.46h-8.71v-2.28h12v2.13l-8.77,11.27h9.29V136.03z"/>
	<path d="M1631.15,142.44h-7.77V113.4h7.77v2.19H1626v24.66h5.15V142.44z"/>
	<path d="M1651.57,136.03h-13.56v-2.44l5.33-5.25c0.87-0.85,1.58-1.59,2.13-2.22s0.97-1.2,1.28-1.71s0.51-1,0.61-1.46
		c0.1-0.46,0.16-0.95,0.16-1.49c0-0.5-0.07-0.98-0.2-1.43c-0.14-0.45-0.35-0.85-0.63-1.2c-0.28-0.34-0.65-0.62-1.1-0.81
		c-0.45-0.2-0.99-0.3-1.62-0.3c-0.87,0-1.66,0.19-2.38,0.58c-0.71,0.39-1.37,0.89-1.97,1.5l-1.51-1.8c0.78-0.81,1.67-1.46,2.69-1.95
		c1.01-0.49,2.19-0.74,3.54-0.74c0.91,0,1.75,0.14,2.5,0.41c0.75,0.27,1.4,0.66,1.95,1.17c0.55,0.51,0.97,1.14,1.27,1.88
		c0.3,0.74,0.45,1.57,0.45,2.5c0,0.78-0.11,1.51-0.32,2.17s-0.53,1.33-0.95,1.99c-0.42,0.66-0.96,1.35-1.61,2.05
		c-0.65,0.71-1.41,1.49-2.29,2.33l-3.73,3.61h10V136.03z"/>
	<path d="M1665.73,142.44h-7.77v-2.19h5.12v-24.66h-5.12v-2.19h7.77V142.44z"/>
</g>
<g>
	<path d="M1721.12,136.03h-12.75v-1.95l8.93-11.46h-8.71v-2.28h12v2.13l-8.77,11.27h9.29V136.03z"/>
	<path d="M1736.73,142.44h-7.77V113.4h7.77v2.19h-5.15v24.66h5.15V142.44z"/>
	<path d="M1756.76,129.83c0,0.9-0.18,1.74-0.55,2.52c-0.37,0.79-0.92,1.47-1.65,2.06c-0.74,0.59-1.66,1.05-2.77,1.39
		s-2.41,0.51-3.89,0.51c-0.82,0-1.55-0.03-2.21-0.08s-1.26-0.12-1.83-0.2v-2.44c0.65,0.12,1.34,0.2,2.06,0.27s1.46,0.09,2.22,0.09
		c1.03,0,1.91-0.09,2.64-0.27c0.73-0.18,1.33-0.45,1.79-0.79c0.46-0.34,0.8-0.76,1.01-1.25c0.21-0.49,0.32-1.04,0.32-1.66
		c0-0.56-0.13-1.05-0.38-1.47c-0.25-0.42-0.61-0.77-1.06-1.05s-1-0.49-1.64-0.63s-1.33-0.21-2.09-0.21h-2.35v-2.24h2.38
		c0.62,0,1.18-0.08,1.69-0.24c0.51-0.16,0.95-0.39,1.31-0.7c0.36-0.3,0.64-0.67,0.83-1.12c0.19-0.44,0.29-0.95,0.29-1.51
		c0-1.09-0.34-1.89-1.01-2.39c-0.67-0.5-1.66-0.75-2.96-0.75c-0.69,0-1.41,0.07-2.14,0.2c-0.74,0.14-1.52,0.34-2.36,0.61v-2.38
		c0.36-0.12,0.74-0.24,1.14-0.34c0.4-0.1,0.81-0.18,1.21-0.25c0.4-0.07,0.81-0.12,1.21-0.16c0.4-0.04,0.78-0.05,1.15-0.05
		c1.09,0,2.05,0.12,2.88,0.35c0.83,0.23,1.52,0.57,2.08,1.01c0.56,0.44,0.98,0.97,1.26,1.59c0.28,0.63,0.43,1.33,0.43,2.11
		c0,1.17-0.3,2.15-0.91,2.94s-1.43,1.42-2.48,1.89c0.54,0.08,1.06,0.25,1.58,0.5c0.52,0.25,0.99,0.57,1.4,0.96s0.75,0.85,1.01,1.38
		C1756.63,128.59,1756.76,129.18,1756.76,129.83z"/>
	<path d="M1771.31,142.44h-7.77v-2.19h5.12v-24.66h-5.12v-2.19h7.77V142.44z"/>
</g>
<rect x="863.64" y="323" class="st4" width="105.57" height="104.74"/>
<rect x="863.64" y="323" class="st5" width="105.57" height="104.74"/>
<g>
	<path d="M899.77,385.33h-3.64l-4.27-5.99l-4.22,5.99h-3.54l6.13-7.88l-5.84-7.82h3.51l4.16,6.03l4.08-6.03h3.39l-5.94,7.88
		L899.77,385.33z"/>
	<path d="M913.93,391.73h-7.77v-29.04h7.77v2.19h-5.15v24.66h5.15V391.73z"/>
	<path d="M934.82,375.12c0,1.56-0.16,2.99-0.47,4.27c-0.32,1.29-0.79,2.39-1.43,3.31c-0.64,0.92-1.44,1.64-2.39,2.14
		c-0.95,0.5-2.07,0.76-3.35,0.76c-1.1,0-2.11-0.21-3.01-0.62c-0.9-0.41-1.68-1.04-2.32-1.9c-0.64-0.85-1.13-1.94-1.48-3.27
		s-0.52-2.89-0.52-4.7c0-1.56,0.16-2.99,0.48-4.28c0.32-1.29,0.8-2.4,1.43-3.32c0.64-0.92,1.43-1.64,2.39-2.14
		c0.96-0.51,2.07-0.76,3.34-0.76c1.1,0,2.11,0.21,3.01,0.62c0.9,0.41,1.68,1.05,2.32,1.91c0.64,0.86,1.13,1.95,1.48,3.27
		S934.82,373.31,934.82,375.12z M922.63,375.03c0,0.32,0,0.65,0.01,0.97s0.02,0.64,0.06,0.94l8.71-6.39
		c-0.16-0.53-0.36-1.02-0.6-1.45s-0.53-0.82-0.87-1.13c-0.34-0.32-0.72-0.56-1.15-0.74c-0.43-0.18-0.91-0.27-1.45-0.27
		c-0.71,0-1.36,0.17-1.95,0.52c-0.58,0.34-1.08,0.86-1.49,1.54s-0.72,1.53-0.95,2.53C922.74,372.54,922.63,373.7,922.63,375.03z
		 M932.05,375.21c0-0.35-0.01-0.71-0.04-1.06c-0.03-0.35-0.05-0.69-0.09-1.02l-8.71,6.42c0.16,0.54,0.36,1.04,0.6,1.5
		c0.24,0.46,0.53,0.85,0.87,1.18s0.73,0.58,1.17,0.77c0.44,0.18,0.93,0.27,1.49,0.27c0.71,0,1.36-0.17,1.95-0.52
		c0.58-0.34,1.08-0.85,1.49-1.53c0.41-0.68,0.72-1.52,0.95-2.52C931.94,377.7,932.05,376.54,932.05,375.21z"/>
	<path d="M948.51,391.73h-7.77v-2.19h5.12v-24.66h-5.12v-2.19h7.77V391.73z"/>
</g>
<rect x="969.22" y="323" class="st4" width="105.57" height="104.74"/>
<rect x="969.22" y="323" class="st5" width="105.57" height="104.74"/>
<g>
	<path d="M1005.34,385.33h-3.64l-4.27-5.99l-4.22,5.99h-3.54l6.13-7.88l-5.84-7.82h3.51l4.16,6.03l4.08-6.03h3.39l-5.94,7.88
		L1005.34,385.33z"/>
	<path d="M1019.51,391.73h-7.77v-29.04h7.77v2.19h-5.15v24.66h5.15V391.73z"/>
	<path d="M1039.75,385.33h-12.93v-2.53h5.29v-14.91l-4.93,2.66l-1.01-2.31l6.55-3.42h2.43v17.99h4.6V385.33z"/>
	<path d="M1054.09,391.73h-7.77v-2.19h5.12v-24.66h-5.12v-2.19h7.77V391.73z"/>
</g>
<rect x="1074.79" y="323" class="st4" width="105.57" height="104.74"/>
<rect x="1074.79" y="323" class="st5" width="105.57" height="104.74"/>
<g>
	<path d="M1110.92,385.33h-3.64l-4.27-5.99l-4.22,5.99h-3.54l6.13-7.88l-5.84-7.82h3.51l4.16,6.03l4.08-6.03h3.39l-5.94,7.88
		L1110.92,385.33z"/>
	<path d="M1125.08,391.73h-7.77v-29.04h7.77v2.19h-5.15v24.66h5.15V391.73z"/>
	<path d="M1145.5,385.33h-13.56v-2.44l5.32-5.25c0.87-0.85,1.58-1.59,2.13-2.22c0.55-0.62,0.97-1.2,1.28-1.71
		c0.3-0.52,0.51-1,0.61-1.46c0.1-0.46,0.16-0.95,0.16-1.49c0-0.5-0.07-0.98-0.2-1.43c-0.14-0.45-0.35-0.85-0.63-1.2
		c-0.28-0.34-0.65-0.62-1.1-0.81c-0.45-0.2-0.99-0.3-1.62-0.3c-0.87,0-1.67,0.19-2.38,0.58c-0.71,0.39-1.37,0.89-1.97,1.5l-1.51-1.8
		c0.78-0.81,1.67-1.46,2.69-1.95c1.01-0.49,2.19-0.74,3.54-0.74c0.91,0,1.75,0.14,2.5,0.41c0.75,0.27,1.4,0.66,1.95,1.17
		c0.55,0.51,0.97,1.14,1.27,1.88c0.3,0.74,0.45,1.57,0.45,2.5c0,0.78-0.1,1.51-0.31,2.17c-0.21,0.67-0.53,1.33-0.95,1.99
		c-0.43,0.66-0.96,1.35-1.61,2.05c-0.65,0.71-1.41,1.49-2.29,2.33l-3.73,3.61h10V385.33z"/>
	<path d="M1159.66,391.73h-7.77v-2.19h5.12v-24.66h-5.12v-2.19h7.77V391.73z"/>
</g>
<rect x="1180.36" y="323" class="st4" width="105.57" height="104.74"/>
<rect x="1180.36" y="323" class="st5" width="105.57" height="104.74"/>
<g>
	<path d="M1216.49,385.33h-3.64l-4.27-5.99l-4.22,5.99h-3.54l6.13-7.88l-5.84-7.82h3.51l4.16,6.03l4.08-6.03h3.39l-5.94,7.88
		L1216.49,385.33z"/>
	<path d="M1230.65,391.73h-7.77v-29.04h7.77v2.19h-5.15v24.66h5.15V391.73z"/>
	<path d="M1250.68,379.12c0,0.9-0.18,1.74-0.55,2.52s-0.92,1.47-1.65,2.06c-0.74,0.59-1.66,1.05-2.77,1.39
		c-1.11,0.34-2.41,0.51-3.89,0.51c-0.82,0-1.55-0.03-2.21-0.08s-1.26-0.12-1.83-0.2v-2.44c0.65,0.12,1.34,0.2,2.06,0.27
		s1.47,0.09,2.22,0.09c1.03,0,1.91-0.09,2.64-0.27c0.73-0.18,1.33-0.45,1.79-0.79c0.46-0.34,0.8-0.76,1.01-1.25
		c0.21-0.49,0.31-1.04,0.31-1.66c0-0.56-0.13-1.05-0.38-1.47c-0.25-0.42-0.61-0.77-1.06-1.05c-0.46-0.28-1-0.49-1.64-0.63
		s-1.33-0.21-2.09-0.21h-2.35v-2.24h2.38c0.62,0,1.18-0.08,1.69-0.24c0.51-0.16,0.95-0.39,1.31-0.7c0.36-0.3,0.64-0.67,0.83-1.12
		c0.19-0.44,0.29-0.95,0.29-1.51c0-1.09-0.34-1.89-1.01-2.39c-0.67-0.5-1.66-0.75-2.96-0.75c-0.69,0-1.41,0.07-2.14,0.2
		c-0.73,0.14-1.52,0.34-2.36,0.61v-2.38c0.36-0.12,0.74-0.24,1.14-0.34c0.4-0.1,0.81-0.18,1.21-0.25c0.4-0.07,0.81-0.12,1.21-0.16
		c0.4-0.04,0.78-0.05,1.15-0.05c1.09,0,2.05,0.12,2.88,0.35c0.83,0.23,1.52,0.57,2.08,1.01s0.98,0.97,1.26,1.59
		c0.28,0.63,0.43,1.33,0.43,2.11c0,1.17-0.3,2.15-0.91,2.94s-1.43,1.42-2.48,1.89c0.54,0.08,1.06,0.25,1.58,0.5s0.99,0.57,1.4,0.96
		c0.41,0.39,0.75,0.85,1.01,1.38C1250.55,377.89,1250.68,378.48,1250.68,379.12z"/>
	<path d="M1265.23,391.73h-7.77v-2.19h5.12v-24.66h-5.12v-2.19h7.77V391.73z"/>
</g>
<line class="st5" x1="1285.94" y1="323" x2="1285.94" y2="427.74"/>
<g>
	<polygon points="965.37,393.17 965.37,379.37 951.87,379.37 951.87,371.51 965.37,371.51 965.37,358.91 973.52,358.91 
		973.52,371.51 986.56,371.51 986.56,379.37 973.52,379.37 973.52,393.17 	"/>
	<path class="st8" d="M971.85,360.58v12.6h13.04v4.52h-13.04v13.81h-4.81V377.7h-13.5v-4.52h13.5v-12.6H971.85z"/>
</g>
<g>
	<polygon points="912.59,142.5 912.59,128.69 899.08,128.69 899.08,120.84 912.59,120.84 912.59,108.24 920.73,108.24 
		920.73,120.84 933.78,120.84 933.78,128.69 920.73,128.69 920.73,142.5 	"/>
	<path class="st8" d="M919.06,109.91v12.6h13.04v4.52h-13.04v13.81h-4.81v-13.81h-13.5v-4.52h13.5v-12.6H919.06z"/>
</g>
<g>
	<polygon points="1018.16,142.5 1018.16,128.69 1004.66,128.69 1004.66,120.84 1018.16,120.84 1018.16,108.24 1026.31,108.24 
		1026.31,120.84 1039.35,120.84 1039.35,128.69 1026.31,128.69 1026.31,142.5 	"/>
	<path class="st8" d="M1024.64,109.91v12.6h13.04v4.52h-13.04v13.81h-4.81v-13.81h-13.5v-4.52h13.5v-12.6H1024.64z"/>
</g>
<g>
	<polygon points="1123.73,142.5 1123.73,128.69 1110.23,128.69 1110.23,120.84 1123.73,120.84 1123.73,108.24 1131.88,108.24 
		1131.88,120.84 1144.92,120.84 1144.92,128.69 1131.88,128.69 1131.88,142.5 	"/>
	<path class="st8" d="M1130.21,109.91v12.6h13.04v4.52h-13.04v13.81h-4.81v-13.81h-13.5v-4.52h13.5v-12.6H1130.21z"/>
</g>
<g>
	<polygon points="1229.31,142.5 1229.31,128.69 1215.8,128.69 1215.8,120.84 1229.31,120.84 1229.31,108.24 1237.45,108.24 
		1237.45,120.84 1250.5,120.84 1250.5,128.69 1237.45,128.69 1237.45,142.5 	"/>
	<path class="st8" d="M1235.78,109.91v12.6h13.04v4.52h-13.04v13.81h-4.81v-13.81h-13.5v-4.52h13.5v-12.6H1235.78z"/>
</g>
<g>
	<polygon points="1070.95,393.17 1070.95,379.37 1057.44,379.37 1057.44,371.51 1070.95,371.51 1070.95,358.91 1079.1,358.91 
		1079.1,371.51 1092.14,371.51 1092.14,379.37 1079.1,379.37 1079.1,393.17 	"/>
	<path class="st8" d="M1077.43,360.58v12.6h13.04v4.52h-13.04v13.81h-4.81V377.7h-13.5v-4.52h13.5v-12.6H1077.43z"/>
</g>
<g>
	<polygon points="1176.52,393.17 1176.52,379.37 1163.02,379.37 1163.02,371.51 1176.52,371.51 1176.52,358.91 1184.67,358.91 
		1184.67,371.51 1197.71,371.51 1197.71,379.37 1184.67,379.37 1184.67,393.17 	"/>
	<path class="st8" d="M1183,360.58v12.6h13.04v4.52H1183v13.81h-4.81V377.7h-13.5v-4.52h13.5v-12.6H1183z"/>
</g>
<g>
	<path d="M1348.42,114.88v5.56h-37.55v-5.56H1348.42z M1348.42,133.67v5.56h-37.55v-5.56H1348.42z"/>
</g>
<rect x="1373.07" y="323" class="st7" width="105.57" height="104.74"/>
<rect x="1373.07" y="323" class="st5" width="105.57" height="104.74"/>
<g>
	<path d="M1348.42,362.51v5.56h-37.55v-5.56H1348.42z M1348.42,381.29v5.56h-37.55v-5.56H1348.42z"/>
</g>
<g>
	<path d="M1348.42,362.51v5.56h-37.55v-5.56H1348.42z M1348.42,381.29v5.56h-37.55v-5.56H1348.42z"/>
</g>
<g>
	<path d="M1434.38,385.33h-12.75v-1.95l8.93-11.46h-8.71v-2.28h12v2.13l-8.78,11.27h9.29V385.33z"/>
</g>
<g>
	<path d="M34.31,52.59h8.53l11.8,32.71h0.24L66.8,52.59h8.23L57.85,95.09h-6.59L34.31,52.59z"/>
	<path d="M103.95,81.04c0,0.32,0,0.64,0,0.96c0,0.32-0.02,0.64-0.06,0.96H81.8c0.08,1.04,0.35,1.99,0.82,2.85
		c0.46,0.86,1.08,1.6,1.84,2.22c0.77,0.62,1.63,1.11,2.6,1.47c0.97,0.36,1.98,0.54,3.02,0.54c1.81,0,3.35-0.33,4.6-0.99
		c1.25-0.66,2.28-1.57,3.09-2.73l4.84,3.84c-2.86,3.84-7.02,5.76-12.46,5.76c-2.26,0-4.34-0.35-6.23-1.05
		c-1.9-0.7-3.54-1.69-4.93-2.97c-1.39-1.28-2.48-2.85-3.27-4.71c-0.79-1.86-1.18-3.97-1.18-6.33c0-2.32,0.39-4.43,1.18-6.33
		c0.79-1.9,1.87-3.52,3.24-4.86c1.37-1.34,2.99-2.38,4.87-3.12c1.88-0.74,3.9-1.11,6.08-1.11c2.02,0,3.88,0.33,5.6,0.99
		c1.71,0.66,3.2,1.64,4.45,2.94c1.25,1.3,2.23,2.92,2.93,4.86C103.59,76.17,103.95,78.44,103.95,81.04z M96.69,77.8
		c0-0.92-0.13-1.8-0.39-2.64c-0.26-0.84-0.68-1.58-1.24-2.22c-0.56-0.64-1.28-1.15-2.15-1.53c-0.87-0.38-1.89-0.57-3.06-0.57
		c-2.18,0-4.02,0.65-5.54,1.95c-1.51,1.3-2.35,2.97-2.51,5.01H96.69z"/>
	<path d="M110.96,66.28h6.96v4.8h0.12c0.81-1.68,1.94-3.04,3.39-4.08c1.45-1.04,3.15-1.56,5.08-1.56c0.28,0,0.58,0.01,0.91,0.03
		c0.32,0.02,0.6,0.07,0.85,0.15v6.6c-0.48-0.12-0.9-0.2-1.24-0.24c-0.34-0.04-0.68-0.06-1-0.06c-1.65,0-2.99,0.3-3.99,0.9
		c-1.01,0.6-1.8,1.32-2.36,2.16c-0.57,0.84-0.95,1.7-1.15,2.58c-0.2,0.88-0.3,1.58-0.3,2.1v15.42h-7.26V66.28z"/>
	<path d="M128.08,72.04v-5.76h5.08v-8.34h7.14v8.34h7.26v5.76h-7.26v13.38c0,1.28,0.23,2.34,0.7,3.18c0.46,0.84,1.5,1.26,3.12,1.26
		c0.48,0,1.01-0.05,1.57-0.15c0.56-0.1,1.07-0.25,1.51-0.45l0.24,5.64c-0.65,0.24-1.41,0.43-2.3,0.57
		c-0.89,0.14-1.73,0.21-2.54,0.21c-1.94,0-3.51-0.27-4.72-0.81s-2.17-1.28-2.87-2.22c-0.71-0.94-1.19-2.02-1.45-3.24
		c-0.26-1.22-0.39-2.53-0.39-3.93V72.04H128.08z"/>
	<path d="M151.92,56.49c0-1.16,0.43-2.17,1.3-3.03c0.87-0.86,1.97-1.29,3.3-1.29s2.45,0.41,3.36,1.23c0.91,0.82,1.36,1.85,1.36,3.09
		c0,1.24-0.45,2.27-1.36,3.09c-0.91,0.82-2.03,1.23-3.36,1.23s-2.43-0.43-3.3-1.29C152.35,58.67,151.92,57.65,151.92,56.49z
		 M152.95,66.28h7.26v28.81h-7.26V66.28z"/>
	<path d="M188.88,74.26c-0.56-0.8-1.41-1.47-2.54-2.01c-1.13-0.54-2.28-0.81-3.45-0.81c-1.33,0-2.5,0.27-3.51,0.81
		c-1.01,0.54-1.85,1.25-2.51,2.13c-0.67,0.88-1.16,1.87-1.48,2.97c-0.32,1.1-0.48,2.21-0.48,3.33c0,1.12,0.17,2.23,0.51,3.33
		c0.34,1.1,0.86,2.09,1.54,2.97c0.69,0.88,1.54,1.59,2.57,2.13c1.03,0.54,2.23,0.81,3.6,0.81c1.13,0,2.26-0.22,3.39-0.66
		c1.13-0.44,2.04-1.08,2.72-1.92l4.54,4.56c-1.21,1.28-2.75,2.27-4.63,2.97s-3.9,1.05-6.08,1.05c-2.14,0-4.16-0.34-6.08-1.02
		c-1.92-0.68-3.59-1.68-5.02-3c-1.43-1.32-2.56-2.92-3.39-4.8c-0.83-1.88-1.24-4.02-1.24-6.42c0-2.32,0.41-4.42,1.24-6.3
		c0.83-1.88,1.95-3.48,3.36-4.8c1.41-1.32,3.05-2.34,4.93-3.06s3.88-1.08,6.02-1.08c2.14,0,4.2,0.4,6.2,1.2c2,0.8,3.58,1.9,4.75,3.3
		L188.88,74.26z"/>
	<path d="M216.59,91.42h-0.18c-0.73,1.28-1.9,2.33-3.51,3.15c-1.61,0.82-3.45,1.23-5.51,1.23c-1.17,0-2.39-0.15-3.66-0.45
		c-1.27-0.3-2.44-0.8-3.51-1.5c-1.07-0.7-1.96-1.62-2.66-2.76c-0.71-1.14-1.06-2.55-1.06-4.23c0-2.16,0.61-3.88,1.85-5.16
		c1.23-1.28,2.81-2.26,4.75-2.94c1.94-0.68,4.08-1.13,6.44-1.35c2.36-0.22,4.67-0.33,6.93-0.33v-0.72c0-1.8-0.66-3.13-1.97-3.99
		c-1.31-0.86-2.87-1.29-4.69-1.29c-1.53,0-3,0.32-4.42,0.96c-1.41,0.64-2.58,1.42-3.51,2.34L198.14,70
		c1.65-1.52,3.56-2.66,5.72-3.42c2.16-0.76,4.35-1.14,6.56-1.14c2.58,0,4.71,0.36,6.38,1.08c1.67,0.72,2.99,1.66,3.96,2.82
		c0.97,1.16,1.64,2.46,2.03,3.9c0.38,1.44,0.57,2.88,0.57,4.32v17.53h-6.78V91.42z M216.47,81.94h-1.63c-1.17,0-2.4,0.05-3.69,0.15
		c-1.29,0.1-2.48,0.32-3.57,0.66c-1.09,0.34-2,0.82-2.72,1.44c-0.73,0.62-1.09,1.47-1.09,2.55c0,0.68,0.15,1.25,0.45,1.71
		c0.3,0.46,0.7,0.83,1.18,1.11c0.48,0.28,1.03,0.48,1.63,0.6s1.21,0.18,1.81,0.18c2.5,0,4.4-0.66,5.69-1.98
		c1.29-1.32,1.94-3.12,1.94-5.4V81.94z"/>
	<path d="M231.95,49.71h7.26v45.37h-7.26V49.71z"/>
	<path d="M292.39,81.04c0,2.12-0.37,4.08-1.12,5.88c-0.75,1.8-1.78,3.36-3.12,4.68c-1.33,1.32-2.92,2.35-4.78,3.09
		c-1.86,0.74-3.89,1.11-6.11,1.11c-2.18,0-4.19-0.37-6.05-1.11c-1.86-0.74-3.45-1.77-4.78-3.09s-2.37-2.88-3.12-4.68
		c-0.75-1.8-1.12-3.76-1.12-5.88c0-2.12,0.37-4.08,1.12-5.88c0.75-1.8,1.78-3.36,3.12-4.68c1.33-1.32,2.92-2.35,4.78-3.09
		c1.85-0.74,3.87-1.11,6.05-1.11c2.22,0,4.25,0.37,6.11,1.11c1.85,0.74,3.45,1.77,4.78,3.09c1.33,1.32,2.37,2.88,3.12,4.68
		C292.02,76.96,292.39,78.92,292.39,81.04z M288.03,81.04c0-1.56-0.25-3.03-0.76-4.41c-0.5-1.38-1.22-2.58-2.15-3.6
		c-0.93-1.02-2.06-1.83-3.39-2.43c-1.33-0.6-2.82-0.9-4.48-0.9c-1.65,0-3.14,0.3-4.45,0.9c-1.31,0.6-2.43,1.41-3.36,2.43
		c-0.93,1.02-1.64,2.22-2.15,3.6c-0.5,1.38-0.76,2.85-0.76,4.41s0.25,3.03,0.76,4.41c0.5,1.38,1.22,2.58,2.15,3.6
		c0.93,1.02,2.05,1.82,3.36,2.4c1.31,0.58,2.79,0.87,4.45,0.87c1.65,0,3.15-0.29,4.48-0.87c1.33-0.58,2.46-1.38,3.39-2.4
		c0.93-1.02,1.64-2.22,2.15-3.6C287.78,84.07,288.03,82.6,288.03,81.04z"/>
	<path d="M305.33,109.49h-4.11V67h4.11v4.86h0.18c1.17-1.84,2.73-3.23,4.69-4.17c1.96-0.94,3.94-1.41,5.96-1.41
		c2.22,0,4.22,0.38,6.02,1.14c1.79,0.76,3.33,1.8,4.6,3.12c1.27,1.32,2.26,2.88,2.96,4.68c0.71,1.8,1.06,3.74,1.06,5.82
		c0,2.08-0.35,4.02-1.06,5.82c-0.71,1.8-1.69,3.36-2.96,4.68s-2.8,2.36-4.6,3.12c-1.8,0.76-3.8,1.14-6.02,1.14
		c-2.02,0-4-0.47-5.96-1.41c-1.96-0.94-3.52-2.29-4.69-4.05h-0.18V109.49z M326.45,81.04c0-1.56-0.24-3.03-0.73-4.41
		c-0.48-1.38-1.18-2.58-2.09-3.6c-0.91-1.02-2.03-1.83-3.36-2.43c-1.33-0.6-2.84-0.9-4.54-0.9c-1.57,0-3.02,0.29-4.36,0.87
		c-1.33,0.58-2.48,1.38-3.45,2.4c-0.97,1.02-1.72,2.22-2.27,3.6s-0.82,2.87-0.82,4.47c0,1.6,0.27,3.09,0.82,4.47
		c0.54,1.38,1.3,2.57,2.27,3.57c0.97,1,2.12,1.79,3.45,2.37c1.33,0.58,2.78,0.87,4.36,0.87c1.69,0,3.21-0.29,4.54-0.87
		c1.33-0.58,2.45-1.38,3.36-2.4c0.91-1.02,1.6-2.22,2.09-3.6C326.21,84.07,326.45,82.6,326.45,81.04z"/>
	<path d="M365.41,80.2c0,0.28,0,0.58,0,0.9c0,0.32-0.02,0.66-0.06,1.02h-23.47c0.04,1.4,0.32,2.72,0.85,3.96
		c0.52,1.24,1.25,2.32,2.18,3.24c0.93,0.92,2.02,1.65,3.27,2.19c1.25,0.54,2.6,0.81,4.05,0.81c2.14,0,3.98-0.49,5.54-1.47
		c1.55-0.98,2.73-2.11,3.54-3.39l3.08,2.4c-1.69,2.12-3.56,3.64-5.6,4.56c-2.04,0.92-4.23,1.38-6.56,1.38
		c-2.1,0-4.04-0.37-5.84-1.11c-1.79-0.74-3.34-1.77-4.63-3.09c-1.29-1.32-2.31-2.88-3.06-4.68c-0.75-1.8-1.12-3.76-1.12-5.88
		c0-2.12,0.36-4.08,1.09-5.88c0.73-1.8,1.73-3.36,3.02-4.68c1.29-1.32,2.8-2.35,4.54-3.09c1.73-0.74,3.61-1.11,5.63-1.11
		c2.22,0,4.17,0.37,5.87,1.11c1.69,0.74,3.1,1.74,4.23,3c1.13,1.26,1.99,2.73,2.57,4.41C365.11,76.48,365.41,78.28,365.41,80.2z
		 M361.23,78.88c-0.12-2.64-0.98-4.83-2.57-6.57c-1.59-1.74-3.86-2.61-6.81-2.61c-1.37,0-2.64,0.25-3.81,0.75
		c-1.17,0.5-2.2,1.18-3.08,2.04c-0.89,0.86-1.59,1.84-2.12,2.94c-0.52,1.1-0.83,2.25-0.91,3.45H361.23z"/>
	<path d="M374.18,70.24c-0.04-1.2-0.1-2.28-0.18-3.24h3.93c0.08,0.76,0.14,1.6,0.18,2.52c0.04,0.92,0.06,1.68,0.06,2.28h0.12
		c0.81-1.64,2.02-2.97,3.63-3.99c1.61-1.02,3.43-1.53,5.44-1.53c0.52,0,1,0.02,1.42,0.06c0.42,0.04,0.86,0.12,1.3,0.24l-0.54,3.9
		c-0.24-0.08-0.65-0.16-1.21-0.24c-0.56-0.08-1.13-0.12-1.69-0.12c-1.09,0-2.14,0.2-3.15,0.6c-1.01,0.4-1.89,1.03-2.63,1.89
		c-0.75,0.86-1.35,1.96-1.81,3.29c-0.46,1.34-0.7,2.94-0.7,4.82v14.37h-4.11V73.18C374.24,72.42,374.22,71.44,374.18,70.24z"/>
	<path d="M413.14,76.91c0-2.42-0.65-4.23-1.94-5.42c-1.29-1.19-3.17-1.79-5.63-1.79c-1.69,0-3.27,0.3-4.72,0.9
		c-1.45,0.6-2.68,1.4-3.69,2.4l-2.3-2.7c1.17-1.16,2.71-2.12,4.63-2.88c1.92-0.76,4.08-1.14,6.5-1.14c1.53,0,2.96,0.21,4.3,0.63
		s2.5,1.05,3.51,1.89c1.01,0.84,1.79,1.9,2.36,3.18c0.56,1.28,0.85,2.78,0.85,4.5v12.3c0,1.08,0.04,2.2,0.12,3.36
		c0.08,1.16,0.2,2.14,0.36,2.94h-3.69c-0.12-0.68-0.22-1.42-0.3-2.22c-0.08-0.8-0.12-1.58-0.12-2.34h-0.12
		c-1.29,1.88-2.75,3.23-4.39,4.05c-1.63,0.82-3.6,1.23-5.9,1.23c-1.09,0-2.21-0.15-3.36-0.45c-1.15-0.3-2.2-0.79-3.15-1.48
		c-0.95-0.68-1.73-1.57-2.36-2.65c-0.63-1.08-0.94-2.41-0.94-3.97c0-2.17,0.55-3.88,1.66-5.15c1.11-1.26,2.59-2.21,4.45-2.83
		c1.85-0.62,3.98-1.02,6.38-1.21c2.4-0.18,4.89-0.27,7.47-0.27V76.91z M411.93,81.04c-1.69,0-3.4,0.07-5.11,0.21
		c-1.71,0.14-3.27,0.42-4.66,0.84c-1.39,0.42-2.53,1.03-3.42,1.83c-0.89,0.8-1.33,1.86-1.33,3.18c0,1,0.19,1.84,0.57,2.52
		c0.38,0.68,0.9,1.23,1.54,1.65c0.65,0.42,1.36,0.72,2.15,0.9c0.79,0.18,1.58,0.27,2.39,0.27c1.45,0,2.74-0.25,3.87-0.75
		c1.13-0.5,2.08-1.18,2.84-2.04c0.77-0.86,1.35-1.85,1.75-2.97c0.4-1.12,0.6-2.3,0.6-3.54v-2.1H411.93z"/>
	<path d="M439.76,70.42h-7.99V86.8c0,1.04,0.1,1.9,0.3,2.58c0.2,0.68,0.49,1.21,0.88,1.59c0.38,0.38,0.84,0.64,1.36,0.78
		c0.52,0.14,1.09,0.21,1.69,0.21c0.56,0,1.16-0.08,1.78-0.24c0.62-0.16,1.22-0.38,1.78-0.66l0.18,3.54
		c-0.73,0.28-1.48,0.49-2.27,0.63c-0.79,0.14-1.64,0.21-2.57,0.21c-0.77,0-1.57-0.1-2.42-0.3c-0.85-0.2-1.63-0.58-2.36-1.14
		c-0.73-0.56-1.32-1.32-1.78-2.28c-0.46-0.96-0.7-2.22-0.7-3.78V70.42h-5.87V67h5.87v-7.92h4.11V67h7.99V70.42z"/>
	<path d="M451.19,56.19c0,0.84-0.3,1.53-0.91,2.07c-0.6,0.54-1.27,0.81-2,0.81s-1.39-0.27-2-0.81c-0.6-0.54-0.91-1.23-0.91-2.07
		s0.3-1.53,0.91-2.07c0.6-0.54,1.27-0.81,2-0.81s1.39,0.27,2,0.81C450.89,54.66,451.19,55.35,451.19,56.19z M450.34,95.09h-4.11V67
		h4.11V95.09z"/>
	<path d="M489.42,81.04c0,2.12-0.37,4.08-1.12,5.88c-0.75,1.8-1.78,3.36-3.12,4.68c-1.33,1.32-2.92,2.35-4.78,3.09
		c-1.86,0.74-3.89,1.11-6.11,1.11c-2.18,0-4.19-0.37-6.05-1.11c-1.86-0.74-3.45-1.77-4.78-3.09s-2.37-2.88-3.12-4.68
		c-0.75-1.8-1.12-3.76-1.12-5.88c0-2.12,0.37-4.08,1.12-5.88c0.75-1.8,1.78-3.36,3.12-4.68c1.33-1.32,2.92-2.35,4.78-3.09
		c1.85-0.74,3.87-1.11,6.05-1.11c2.22,0,4.25,0.37,6.11,1.11c1.85,0.74,3.45,1.77,4.78,3.09c1.33,1.32,2.37,2.88,3.12,4.68
		C489.05,76.96,489.42,78.92,489.42,81.04z M485.07,81.04c0-1.56-0.25-3.03-0.76-4.41c-0.5-1.38-1.22-2.58-2.15-3.6
		c-0.93-1.02-2.06-1.83-3.39-2.43c-1.33-0.6-2.82-0.9-4.48-0.9c-1.65,0-3.14,0.3-4.45,0.9c-1.31,0.6-2.43,1.41-3.36,2.43
		c-0.93,1.02-1.64,2.22-2.15,3.6c-0.5,1.38-0.76,2.85-0.76,4.41s0.25,3.03,0.76,4.41c0.5,1.38,1.22,2.58,2.15,3.6
		c0.93,1.02,2.05,1.82,3.36,2.4c1.31,0.58,2.79,0.87,4.45,0.87c1.65,0,3.15-0.29,4.48-0.87c1.33-0.58,2.46-1.38,3.39-2.4
		c0.93-1.02,1.64-2.22,2.15-3.6C484.81,84.07,485.07,82.6,485.07,81.04z"/>
	<path d="M501.94,67c0.08,0.76,0.14,1.6,0.18,2.52c0.04,0.92,0.06,1.68,0.06,2.28h0.12c0.81-1.64,2.12-2.97,3.93-3.99
		c1.81-1.02,3.73-1.53,5.75-1.53c3.59,0,6.28,1.06,8.08,3.18c1.79,2.12,2.69,4.92,2.69,8.4v17.23h-4.11V79.54
		c0-1.48-0.12-2.82-0.36-4.02c-0.24-1.2-0.66-2.23-1.24-3.09c-0.58-0.86-1.37-1.53-2.36-2.01c-0.99-0.48-2.23-0.72-3.72-0.72
		c-1.09,0-2.15,0.22-3.18,0.66c-1.03,0.44-1.95,1.11-2.75,2.01c-0.81,0.9-1.45,2.04-1.94,3.42c-0.48,1.38-0.73,3.01-0.73,4.89v14.4
		h-4.11V73.18c0-0.76-0.02-1.74-0.06-2.94c-0.04-1.2-0.1-2.28-0.18-3.24H501.94z"/>
	<path d="M540.3,69.88c0,0.84-0.3,1.59-0.91,2.25s-1.39,0.99-2.36,0.99c-0.97,0-1.75-0.33-2.36-0.99c-0.6-0.66-0.91-1.41-0.91-2.25
		c0-0.84,0.3-1.59,0.91-2.25c0.6-0.66,1.39-0.99,2.36-0.99c0.97,0,1.75,0.33,2.36,0.99S540.3,69.04,540.3,69.88z M540.3,92.21
		c0,0.84-0.3,1.59-0.91,2.25s-1.39,0.99-2.36,0.99c-0.97,0-1.75-0.33-2.36-0.99c-0.6-0.66-0.91-1.41-0.91-2.25s0.3-1.59,0.91-2.25
		c0.6-0.66,1.39-0.99,2.36-0.99c0.97,0,1.75,0.33,2.36,0.99C540,90.61,540.3,91.36,540.3,92.21z"/>
</g>
<g>
	<path class="st14" d="M192.83,189.89l-0.18-3.9c-0.63,0.66-1.29,1.27-1.98,1.83c-0.69,0.56-1.45,1.04-2.27,1.45
		c-0.83,0.41-1.73,0.73-2.7,0.95c-0.97,0.22-2.04,0.34-3.21,0.34c-1.54,0-2.88-0.22-4.05-0.67s-2.14-1.07-2.92-1.88
		c-0.79-0.8-1.38-1.77-1.79-2.9c-0.4-1.13-0.61-2.38-0.61-3.75c0-1.41,0.3-2.71,0.9-3.9c0.6-1.19,1.52-2.22,2.75-3.08
		c1.23-0.86,2.77-1.53,4.61-2.02c1.84-0.49,4-0.73,6.48-0.73h3.93v-1.79c0-0.76-0.11-1.45-0.33-2.07s-0.57-1.14-1.05-1.57
		c-0.48-0.43-1.11-0.76-1.88-1s-1.71-0.35-2.84-0.35c-1.77,0-3.52,0.2-5.24,0.6c-1.72,0.4-3.39,0.96-5.01,1.69v-5.71
		c1.44-0.57,3.1-1.04,4.98-1.41c1.88-0.37,3.83-0.56,5.86-0.56c2.23,0,4.14,0.21,5.73,0.63c1.59,0.42,2.91,1.05,3.94,1.89
		c1.03,0.84,1.8,1.89,2.29,3.15s0.74,2.73,0.74,4.41v20.34H192.83z M191.8,176.73h-4.4c-1.22,0-2.26,0.12-3.1,0.35
		c-0.85,0.23-1.54,0.56-2.07,0.97c-0.53,0.41-0.92,0.88-1.17,1.42c-0.25,0.54-0.37,1.11-0.37,1.71c0,1.21,0.39,2.13,1.18,2.77
		c0.79,0.64,1.86,0.95,3.22,0.95c1,0,2.05-0.36,3.13-1.08c1.08-0.72,2.27-1.76,3.57-3.11V176.73z"/>
	<path class="st14" d="M214.43,160.12v19.4c0,1.62,0.31,2.85,0.92,3.68c0.61,0.83,1.54,1.25,2.78,1.25c1.2,0,2.36-0.49,3.47-1.48
		c1.11-0.99,2.29-2.32,3.53-4v-18.84h7.21v29.77h-6.23l-0.18-4.4c-0.63,0.76-1.27,1.46-1.92,2.08s-1.35,1.16-2.11,1.6
		c-0.76,0.44-1.59,0.78-2.48,1.03c-0.9,0.24-1.89,0.37-2.97,0.37c-1.54,0-2.88-0.25-4.03-0.75s-2.11-1.21-2.88-2.12
		s-1.34-2.02-1.73-3.3c-0.38-1.28-0.58-2.71-0.58-4.29v-19.99H214.43z"/>
	<path class="st14" d="M265.29,189.6c-1.3,0.29-2.61,0.53-3.93,0.7c-1.32,0.18-2.57,0.26-3.75,0.26c-1.97,0-3.67-0.21-5.1-0.62
		s-2.61-1.04-3.54-1.88c-0.94-0.84-1.62-1.91-2.07-3.21c-0.44-1.3-0.66-2.85-0.66-4.65v-14.54h-8.06v-5.57h8.06v-7.62l7.38-1.9v9.52
		h11.67v5.57h-11.67v14.01c0,1.7,0.39,2.98,1.18,3.85c0.79,0.87,2.11,1.3,3.96,1.3c1.18,0,2.33-0.1,3.46-0.29s2.15-0.42,3.07-0.67
		V189.6z"/>
	<path class="st14" d="M300.83,174.77c0,2.34-0.33,4.49-1,6.43c-0.67,1.94-1.63,3.61-2.9,5s-2.81,2.46-4.64,3.22
		c-1.83,0.76-3.92,1.14-6.26,1.14c-2.23,0-4.21-0.32-5.97-0.97c-1.75-0.65-3.24-1.61-4.46-2.89c-1.22-1.28-2.16-2.88-2.81-4.81
		s-0.97-4.17-0.97-6.73c0-2.36,0.34-4.51,1.02-6.45c0.68-1.93,1.65-3.58,2.92-4.95c1.27-1.37,2.82-2.43,4.65-3.18
		c1.83-0.75,3.9-1.13,6.2-1.13c2.25,0,4.24,0.33,6,0.98c1.75,0.65,3.24,1.63,4.46,2.92c1.22,1.29,2.15,2.89,2.79,4.79
		C300.51,170.06,300.83,172.27,300.83,174.77z M293.33,174.94c0-3.09-0.59-5.41-1.76-6.96c-1.17-1.55-2.9-2.33-5.18-2.33
		c-1.26,0-2.33,0.24-3.22,0.73c-0.89,0.49-1.61,1.16-2.19,2.01c-0.57,0.85-0.99,1.84-1.26,2.97c-0.27,1.13-0.4,2.34-0.4,3.63
		c0,3.11,0.63,5.45,1.89,7.02c1.26,1.57,2.98,2.36,5.17,2.36c1.2,0,2.25-0.24,3.13-0.72c0.89-0.48,1.6-1.14,2.16-1.99
		c0.55-0.85,0.96-1.85,1.24-3C293.19,177.51,293.33,176.27,293.33,174.94z"/>
	<path d="M364.96,189.89h-23.9v-3.66l16.75-21.48h-16.34v-4.28h22.51v3.99l-16.45,21.13h17.43V189.89z"/>
	<path d="M432.07,170.96h-25.4v-4.31h25.4V170.96z M432.07,181.16h-25.4v-4.31h25.4V181.16z"/>
	<path d="M500.72,189.89h-6.82l-8.01-11.22l-7.92,11.22h-6.65l11.49-14.77l-10.96-14.65h6.59l7.8,11.31l7.65-11.31h6.35
		l-11.14,14.77L500.72,189.89z"/>
	<path d="M566.57,176.15h-11.61v11.96h-5.08v-11.96h-11.61v-4.45h11.61v-11.87h5.08v11.87h11.61V176.15z"/>
	<path d="M633.41,160.47l-10.1,26.32c-1.04,2.68-2.12,4.98-3.23,6.92c-1.11,1.93-2.33,3.52-3.65,4.76s-2.77,2.15-4.34,2.74
		c-1.58,0.59-3.34,0.88-5.29,0.88c-0.51,0-0.97-0.01-1.39-0.03c-0.41-0.02-0.87-0.05-1.36-0.09v-4.63c0.43,0.06,0.91,0.11,1.42,0.16
		c0.51,0.05,1.05,0.07,1.62,0.07c0.95,0,1.83-0.14,2.64-0.41c0.82-0.27,1.59-0.72,2.32-1.33c0.73-0.62,1.43-1.41,2.1-2.39
		c0.67-0.98,1.32-2.16,1.95-3.55l-11.85-29.42h5.85l7.5,19.46l1.51,4.57l1.71-4.69l6.94-19.34H633.41z"/>
	<path d="M642.95,195.9c1,0.04,1.98-0.05,2.92-0.26c0.95-0.22,1.78-0.53,2.5-0.95c0.72-0.42,1.29-0.94,1.73-1.57
		c0.43-0.63,0.65-1.34,0.65-2.14c0-0.82-0.14-1.48-0.43-1.99c-0.29-0.51-0.61-0.98-0.96-1.41s-0.67-0.89-0.96-1.38
		c-0.29-0.49-0.43-1.14-0.43-1.96c0-0.41,0.08-0.84,0.24-1.29c0.16-0.45,0.4-0.86,0.72-1.23c0.32-0.37,0.74-0.67,1.24-0.91
		c0.5-0.23,1.1-0.35,1.79-0.35s1.35,0.14,1.99,0.42c0.64,0.28,1.2,0.72,1.68,1.3c0.48,0.59,0.87,1.32,1.15,2.2
		c0.29,0.88,0.43,1.91,0.43,3.11c0,1.62-0.3,3.18-0.9,4.67c-0.6,1.49-1.5,2.82-2.69,3.97c-1.19,1.15-2.68,2.07-4.46,2.75
		c-1.78,0.68-3.85,1.03-6.22,1.03V195.9z M652.2,159.94c0.61,0,1.19,0.12,1.74,0.37c0.55,0.24,1.03,0.57,1.45,0.98
		s0.74,0.89,0.99,1.44c0.25,0.55,0.37,1.12,0.37,1.73c0,0.63-0.12,1.21-0.37,1.74c-0.25,0.54-0.58,1.01-0.99,1.42
		s-0.9,0.73-1.45,0.97c-0.55,0.23-1.13,0.35-1.74,0.35c-0.63,0-1.22-0.12-1.76-0.35c-0.54-0.23-1.02-0.56-1.43-0.97
		s-0.74-0.88-0.98-1.42c-0.24-0.54-0.35-1.12-0.35-1.74c0-0.61,0.12-1.18,0.35-1.73s0.56-1.03,0.98-1.44s0.89-0.74,1.43-0.98
		C650.98,160.06,651.57,159.94,652.2,159.94z"/>
</g>
<g>
	<path d="M39.64,295.47h7.62v17.17h20.02v-17.17h7.62v42.49h-7.62v-18.85H47.26v18.85h-7.62V295.47z"/>
	<path d="M82.29,323.44c0-2.28,0.41-4.35,1.24-6.21c0.83-1.86,1.95-3.45,3.36-4.77c1.41-1.32,3.08-2.34,5.02-3.06
		s3.99-1.08,6.17-1.08c2.18,0,4.23,0.36,6.17,1.08c1.94,0.72,3.61,1.74,5.02,3.06c1.41,1.32,2.53,2.91,3.36,4.77
		c0.83,1.86,1.24,3.93,1.24,6.21s-0.41,4.36-1.24,6.24c-0.83,1.88-1.95,3.49-3.36,4.83c-1.41,1.34-3.09,2.39-5.02,3.15
		c-1.94,0.76-3.99,1.14-6.17,1.14c-2.18,0-4.23-0.38-6.17-1.14c-1.94-0.76-3.61-1.81-5.02-3.15c-1.41-1.34-2.53-2.95-3.36-4.83
		C82.7,327.8,82.29,325.72,82.29,323.44z M89.67,323.44c0,1.12,0.17,2.24,0.51,3.36c0.34,1.12,0.86,2.12,1.54,3
		c0.69,0.88,1.55,1.6,2.6,2.16c1.05,0.56,2.3,0.84,3.75,0.84c1.45,0,2.7-0.28,3.75-0.84c1.05-0.56,1.92-1.28,2.6-2.16
		c0.69-0.88,1.2-1.88,1.54-3c0.34-1.12,0.51-2.24,0.51-3.36c0-1.12-0.17-2.23-0.51-3.33c-0.34-1.1-0.86-2.09-1.54-2.97
		c-0.69-0.88-1.55-1.59-2.6-2.13c-1.05-0.54-2.3-0.81-3.75-0.81c-1.45,0-2.7,0.27-3.75,0.81c-1.05,0.54-1.92,1.25-2.6,2.13
		c-0.69,0.88-1.2,1.87-1.54,2.97C89.84,321.21,89.67,322.32,89.67,323.44z"/>
	<path d="M120.88,309.16h6.96v4.8h0.12c0.81-1.68,1.94-3.04,3.39-4.08c1.45-1.04,3.15-1.56,5.08-1.56c0.28,0,0.58,0.01,0.91,0.03
		c0.32,0.02,0.6,0.07,0.85,0.15v6.6c-0.48-0.12-0.9-0.2-1.24-0.24c-0.34-0.04-0.68-0.06-1-0.06c-1.65,0-2.99,0.3-3.99,0.9
		c-1.01,0.6-1.8,1.32-2.36,2.16c-0.57,0.84-0.95,1.7-1.15,2.58c-0.2,0.88-0.3,1.58-0.3,2.1v15.42h-7.26V309.16z"/>
	<path d="M142,299.38c0-1.16,0.43-2.17,1.3-3.03c0.87-0.86,1.97-1.29,3.3-1.29s2.45,0.41,3.36,1.23c0.91,0.82,1.36,1.85,1.36,3.09
		c0,1.24-0.45,2.27-1.36,3.09c-0.91,0.82-2.03,1.23-3.36,1.23s-2.43-0.43-3.3-1.29C142.43,301.55,142,300.54,142,299.38z
		 M143.02,309.16h7.26v28.81h-7.26V309.16z"/>
	<path d="M156.82,331.61l15.67-16.69h-14.94v-5.76h23.59v6.36l-15.73,16.56h16.46v5.88h-25.05V331.61z"/>
	<path d="M186.58,323.44c0-2.28,0.41-4.35,1.24-6.21c0.83-1.86,1.95-3.45,3.36-4.77c1.41-1.32,3.08-2.34,5.02-3.06
		s3.99-1.08,6.17-1.08c2.18,0,4.23,0.36,6.17,1.08c1.94,0.72,3.61,1.74,5.02,3.06c1.41,1.32,2.53,2.91,3.36,4.77
		c0.83,1.86,1.24,3.93,1.24,6.21s-0.41,4.36-1.24,6.24c-0.83,1.88-1.95,3.49-3.36,4.83c-1.41,1.34-3.09,2.39-5.02,3.15
		c-1.94,0.76-3.99,1.14-6.17,1.14c-2.18,0-4.23-0.38-6.17-1.14c-1.94-0.76-3.61-1.81-5.02-3.15c-1.41-1.34-2.53-2.95-3.36-4.83
		C186.99,327.8,186.58,325.72,186.58,323.44z M193.96,323.44c0,1.12,0.17,2.24,0.51,3.36c0.34,1.12,0.86,2.12,1.54,3
		c0.69,0.88,1.55,1.6,2.6,2.16c1.05,0.56,2.3,0.84,3.75,0.84c1.45,0,2.7-0.28,3.75-0.84c1.05-0.56,1.92-1.28,2.6-2.16
		c0.69-0.88,1.2-1.88,1.54-3c0.34-1.12,0.51-2.24,0.51-3.36c0-1.12-0.17-2.23-0.51-3.33c-0.34-1.1-0.86-2.09-1.54-2.97
		c-0.69-0.88-1.55-1.59-2.6-2.13c-1.05-0.54-2.3-0.81-3.75-0.81c-1.45,0-2.7,0.27-3.75,0.81c-1.05,0.54-1.92,1.25-2.6,2.13
		c-0.69,0.88-1.2,1.87-1.54,2.97C194.13,321.21,193.96,322.32,193.96,323.44z"/>
	<path d="M225.18,309.16h6.9v4.62h0.12c0.65-1.44,1.76-2.71,3.36-3.81c1.59-1.1,3.48-1.65,5.66-1.65c1.9,0,3.52,0.33,4.87,0.99
		c1.35,0.66,2.46,1.53,3.33,2.61c0.87,1.08,1.5,2.32,1.91,3.72c0.4,1.4,0.6,2.84,0.6,4.32v18.01h-7.26V322
		c0-0.84-0.06-1.72-0.18-2.64c-0.12-0.92-0.38-1.75-0.79-2.49c-0.4-0.74-0.96-1.35-1.66-1.83c-0.71-0.48-1.64-0.72-2.81-0.72
		c-1.17,0-2.18,0.23-3.02,0.69c-0.85,0.46-1.54,1.05-2.09,1.77s-0.96,1.55-1.24,2.49c-0.28,0.94-0.42,1.89-0.42,2.85v15.84h-7.26
		V309.16z"/>
	<path d="M256.21,314.92v-5.76h5.08v-8.34h7.14v8.34h7.26v5.76h-7.26v13.38c0,1.28,0.23,2.34,0.7,3.18c0.46,0.84,1.5,1.26,3.12,1.26
		c0.48,0,1.01-0.05,1.57-0.15c0.56-0.1,1.07-0.25,1.51-0.45l0.24,5.64c-0.65,0.24-1.41,0.43-2.3,0.57
		c-0.89,0.14-1.73,0.21-2.54,0.21c-1.94,0-3.51-0.27-4.72-0.81s-2.17-1.28-2.87-2.22c-0.71-0.94-1.19-2.02-1.45-3.24
		c-0.26-1.22-0.39-2.53-0.39-3.93v-13.44H256.21z"/>
	<path d="M298.98,334.31h-0.18c-0.73,1.28-1.9,2.33-3.51,3.15c-1.61,0.82-3.45,1.23-5.51,1.23c-1.17,0-2.39-0.15-3.66-0.45
		c-1.27-0.3-2.44-0.8-3.51-1.5c-1.07-0.7-1.96-1.62-2.66-2.76c-0.71-1.14-1.06-2.55-1.06-4.23c0-2.16,0.61-3.88,1.85-5.16
		c1.23-1.28,2.81-2.26,4.75-2.94c1.94-0.68,4.08-1.13,6.44-1.35c2.36-0.22,4.67-0.33,6.93-0.33v-0.72c0-1.8-0.66-3.13-1.97-3.99
		c-1.31-0.86-2.87-1.29-4.69-1.29c-1.53,0-3,0.32-4.42,0.96c-1.41,0.64-2.58,1.42-3.51,2.34l-3.75-4.38
		c1.65-1.52,3.56-2.66,5.72-3.42c2.16-0.76,4.35-1.14,6.56-1.14c2.58,0,4.71,0.36,6.38,1.08c1.67,0.72,2.99,1.66,3.96,2.82
		c0.97,1.16,1.64,2.46,2.03,3.9c0.38,1.44,0.57,2.88,0.57,4.32v17.53h-6.78V334.31z M298.86,324.82h-1.63
		c-1.17,0-2.4,0.05-3.69,0.15c-1.29,0.1-2.48,0.32-3.57,0.66c-1.09,0.34-2,0.82-2.72,1.44c-0.73,0.62-1.09,1.47-1.09,2.55
		c0,0.68,0.15,1.25,0.45,1.71c0.3,0.46,0.7,0.83,1.18,1.11c0.48,0.28,1.03,0.48,1.63,0.6s1.21,0.18,1.81,0.18
		c2.5,0,4.4-0.66,5.69-1.98c1.29-1.32,1.94-3.12,1.94-5.4V324.82z"/>
	<path d="M314.35,292.59h7.26v45.37h-7.26V292.59z"/>
	<path d="M374.78,323.92c0,2.12-0.37,4.08-1.12,5.88c-0.75,1.8-1.78,3.36-3.12,4.68c-1.33,1.32-2.92,2.35-4.78,3.09
		c-1.86,0.74-3.89,1.11-6.11,1.11c-2.18,0-4.19-0.37-6.05-1.11c-1.86-0.74-3.45-1.77-4.78-3.09s-2.37-2.88-3.12-4.68
		c-0.75-1.8-1.12-3.76-1.12-5.88c0-2.12,0.37-4.08,1.12-5.88c0.75-1.8,1.78-3.36,3.12-4.68c1.33-1.32,2.92-2.35,4.78-3.09
		c1.85-0.74,3.87-1.11,6.05-1.11c2.22,0,4.25,0.37,6.11,1.11c1.85,0.74,3.45,1.77,4.78,3.09c1.33,1.32,2.37,2.88,3.12,4.68
		C374.41,319.84,374.78,321.8,374.78,323.92z M370.43,323.92c0-1.56-0.25-3.03-0.76-4.41c-0.5-1.38-1.22-2.58-2.15-3.6
		c-0.93-1.02-2.06-1.83-3.39-2.43c-1.33-0.6-2.82-0.9-4.48-0.9c-1.65,0-3.14,0.3-4.45,0.9c-1.31,0.6-2.43,1.41-3.36,2.43
		c-0.93,1.02-1.64,2.22-2.15,3.6c-0.5,1.38-0.76,2.85-0.76,4.41s0.25,3.03,0.76,4.41c0.5,1.38,1.22,2.58,2.15,3.6
		c0.93,1.02,2.05,1.82,3.36,2.4c1.31,0.58,2.79,0.87,4.45,0.87c1.65,0,3.15-0.29,4.48-0.87c1.33-0.58,2.46-1.38,3.39-2.4
		c0.93-1.02,1.64-2.22,2.15-3.6C370.17,326.95,370.43,325.48,370.43,323.92z"/>
	<path d="M387.73,352.37h-4.11v-42.49h4.11v4.86h0.18c1.17-1.84,2.73-3.23,4.69-4.17c1.96-0.94,3.94-1.41,5.96-1.41
		c2.22,0,4.22,0.38,6.02,1.14c1.79,0.76,3.33,1.8,4.6,3.12c1.27,1.32,2.26,2.88,2.96,4.68c0.71,1.8,1.06,3.74,1.06,5.82
		c0,2.08-0.35,4.02-1.06,5.82c-0.71,1.8-1.69,3.36-2.96,4.68s-2.8,2.36-4.6,3.12c-1.8,0.76-3.8,1.14-6.02,1.14
		c-2.02,0-4-0.47-5.96-1.41c-1.96-0.94-3.52-2.29-4.69-4.05h-0.18V352.37z M408.84,323.92c0-1.56-0.24-3.03-0.73-4.41
		c-0.48-1.38-1.18-2.58-2.09-3.6c-0.91-1.02-2.03-1.83-3.36-2.43c-1.33-0.6-2.84-0.9-4.54-0.9c-1.57,0-3.02,0.29-4.36,0.87
		c-1.33,0.58-2.48,1.38-3.45,2.4c-0.97,1.02-1.72,2.22-2.27,3.6s-0.82,2.87-0.82,4.47c0,1.6,0.27,3.09,0.82,4.47
		c0.54,1.38,1.3,2.57,2.27,3.57c0.97,1,2.12,1.79,3.45,2.37c1.33,0.58,2.78,0.87,4.36,0.87c1.69,0,3.21-0.29,4.54-0.87
		c1.33-0.58,2.45-1.38,3.36-2.4c0.91-1.02,1.6-2.22,2.09-3.6C408.6,326.95,408.84,325.48,408.84,323.92z"/>
	<path d="M447.8,323.08c0,0.28,0,0.58,0,0.9c0,0.32-0.02,0.66-0.06,1.02h-23.47c0.04,1.4,0.32,2.72,0.85,3.96
		c0.52,1.24,1.25,2.32,2.18,3.24c0.93,0.92,2.02,1.65,3.27,2.19c1.25,0.54,2.6,0.81,4.05,0.81c2.14,0,3.98-0.49,5.54-1.47
		c1.55-0.98,2.73-2.11,3.54-3.39l3.08,2.4c-1.69,2.12-3.56,3.64-5.6,4.56c-2.04,0.92-4.23,1.38-6.56,1.38
		c-2.1,0-4.04-0.37-5.84-1.11c-1.79-0.74-3.34-1.77-4.63-3.09c-1.29-1.32-2.31-2.88-3.06-4.68c-0.75-1.8-1.12-3.76-1.12-5.88
		c0-2.12,0.36-4.08,1.09-5.88c0.73-1.8,1.73-3.36,3.02-4.68c1.29-1.32,2.8-2.35,4.54-3.09c1.73-0.74,3.61-1.11,5.63-1.11
		c2.22,0,4.17,0.37,5.87,1.11c1.69,0.74,3.1,1.74,4.23,3c1.13,1.26,1.99,2.73,2.57,4.41C447.51,319.36,447.8,321.16,447.8,323.08z
		 M443.63,321.76c-0.12-2.64-0.98-4.83-2.57-6.57c-1.59-1.74-3.86-2.61-6.81-2.61c-1.37,0-2.64,0.25-3.81,0.75
		c-1.17,0.5-2.2,1.18-3.08,2.04c-0.89,0.86-1.59,1.84-2.12,2.94c-0.52,1.1-0.83,2.25-0.91,3.45H443.63z"/>
	<path d="M456.57,313.12c-0.04-1.2-0.1-2.28-0.18-3.24h3.93c0.08,0.76,0.14,1.6,0.18,2.52c0.04,0.92,0.06,1.68,0.06,2.28h0.12
		c0.81-1.64,2.02-2.97,3.63-3.99c1.61-1.02,3.43-1.53,5.44-1.53c0.52,0,1,0.02,1.42,0.06c0.42,0.04,0.86,0.12,1.3,0.24l-0.54,3.9
		c-0.24-0.08-0.65-0.16-1.21-0.24c-0.56-0.08-1.13-0.12-1.69-0.12c-1.09,0-2.14,0.2-3.15,0.6c-1.01,0.4-1.89,1.03-2.63,1.89
		c-0.75,0.86-1.35,1.96-1.81,3.29c-0.46,1.34-0.7,2.94-0.7,4.82v14.37h-4.11v-21.91C456.63,315.3,456.61,314.32,456.57,313.12z"/>
	<path d="M495.53,319.79c0-2.42-0.65-4.23-1.94-5.42c-1.29-1.19-3.17-1.79-5.63-1.79c-1.69,0-3.27,0.3-4.72,0.9
		c-1.45,0.6-2.68,1.4-3.69,2.4l-2.3-2.7c1.17-1.16,2.71-2.12,4.63-2.88c1.92-0.76,4.08-1.14,6.5-1.14c1.53,0,2.96,0.21,4.3,0.63
		s2.5,1.05,3.51,1.89c1.01,0.84,1.79,1.9,2.36,3.18c0.56,1.28,0.85,2.78,0.85,4.5v12.3c0,1.08,0.04,2.2,0.12,3.36
		c0.08,1.16,0.2,2.14,0.36,2.94h-3.69c-0.12-0.68-0.22-1.42-0.3-2.22c-0.08-0.8-0.12-1.58-0.12-2.34h-0.12
		c-1.29,1.88-2.75,3.23-4.39,4.05c-1.63,0.82-3.6,1.23-5.9,1.23c-1.09,0-2.21-0.15-3.36-0.45c-1.15-0.3-2.2-0.79-3.15-1.48
		c-0.95-0.68-1.73-1.57-2.36-2.65c-0.63-1.08-0.94-2.41-0.94-3.97c0-2.17,0.55-3.88,1.66-5.15c1.11-1.26,2.59-2.21,4.45-2.83
		c1.85-0.62,3.98-1.02,6.38-1.21c2.4-0.18,4.89-0.27,7.47-0.27V319.79z M494.32,323.92c-1.69,0-3.4,0.07-5.11,0.21
		c-1.71,0.14-3.27,0.42-4.66,0.84c-1.39,0.42-2.53,1.03-3.42,1.83c-0.89,0.8-1.33,1.86-1.33,3.18c0,1,0.19,1.84,0.57,2.52
		c0.38,0.68,0.9,1.23,1.54,1.65c0.65,0.42,1.36,0.72,2.15,0.9c0.79,0.18,1.58,0.27,2.39,0.27c1.45,0,2.74-0.25,3.87-0.75
		c1.13-0.5,2.08-1.18,2.84-2.04c0.77-0.86,1.35-1.85,1.75-2.97c0.4-1.12,0.6-2.3,0.6-3.54v-2.1H494.32z"/>
	<path d="M522.15,313.3h-7.99v16.38c0,1.04,0.1,1.9,0.3,2.58c0.2,0.68,0.49,1.21,0.88,1.59c0.38,0.38,0.84,0.64,1.36,0.78
		c0.52,0.14,1.09,0.21,1.69,0.21c0.56,0,1.16-0.08,1.78-0.24c0.62-0.16,1.22-0.38,1.78-0.66l0.18,3.54
		c-0.73,0.28-1.48,0.49-2.27,0.63c-0.79,0.14-1.64,0.21-2.57,0.21c-0.77,0-1.57-0.1-2.42-0.3c-0.85-0.2-1.63-0.58-2.36-1.14
		c-0.73-0.56-1.32-1.32-1.78-2.28c-0.46-0.96-0.7-2.22-0.7-3.78V313.3h-5.87v-3.42h5.87v-7.92h4.11v7.92h7.99V313.3z"/>
	<path d="M533.58,299.08c0,0.84-0.3,1.53-0.91,2.07c-0.6,0.54-1.27,0.81-2,0.81s-1.39-0.27-2-0.81c-0.6-0.54-0.91-1.23-0.91-2.07
		s0.3-1.53,0.91-2.07c0.6-0.54,1.27-0.81,2-0.81s1.39,0.27,2,0.81C533.28,297.54,533.58,298.23,533.58,299.08z M532.73,337.97h-4.11
		v-28.09h4.11V337.97z"/>
	<path d="M571.82,323.92c0,2.12-0.37,4.08-1.12,5.88c-0.75,1.8-1.78,3.36-3.12,4.68c-1.33,1.32-2.92,2.35-4.78,3.09
		c-1.86,0.74-3.89,1.11-6.11,1.11c-2.18,0-4.19-0.37-6.05-1.11c-1.86-0.74-3.45-1.77-4.78-3.09s-2.37-2.88-3.12-4.68
		c-0.75-1.8-1.12-3.76-1.12-5.88c0-2.12,0.37-4.08,1.12-5.88c0.75-1.8,1.78-3.36,3.12-4.68c1.33-1.32,2.92-2.35,4.78-3.09
		c1.85-0.74,3.87-1.11,6.05-1.11c2.22,0,4.25,0.37,6.11,1.11c1.85,0.74,3.45,1.77,4.78,3.09c1.33,1.32,2.37,2.88,3.12,4.68
		C571.44,319.84,571.82,321.8,571.82,323.92z M567.46,323.92c0-1.56-0.25-3.03-0.76-4.41c-0.5-1.38-1.22-2.58-2.15-3.6
		c-0.93-1.02-2.06-1.83-3.39-2.43c-1.33-0.6-2.82-0.9-4.48-0.9c-1.65,0-3.14,0.3-4.45,0.9c-1.31,0.6-2.43,1.41-3.36,2.43
		c-0.93,1.02-1.64,2.22-2.15,3.6c-0.5,1.38-0.76,2.85-0.76,4.41s0.25,3.03,0.76,4.41c0.5,1.38,1.22,2.58,2.15,3.6
		c0.93,1.02,2.05,1.82,3.36,2.4c1.31,0.58,2.79,0.87,4.45,0.87c1.65,0,3.15-0.29,4.48-0.87c1.33-0.58,2.46-1.38,3.39-2.4
		c0.93-1.02,1.64-2.22,2.15-3.6C567.21,326.95,567.46,325.48,567.46,323.92z"/>
	<path d="M584.34,309.88c0.08,0.76,0.14,1.6,0.18,2.52c0.04,0.92,0.06,1.68,0.06,2.28h0.12c0.81-1.64,2.12-2.97,3.93-3.99
		c1.81-1.02,3.73-1.53,5.75-1.53c3.59,0,6.28,1.06,8.08,3.18c1.79,2.12,2.69,4.92,2.69,8.4v17.23h-4.11v-15.54
		c0-1.48-0.12-2.82-0.36-4.02c-0.24-1.2-0.66-2.23-1.24-3.09c-0.58-0.86-1.37-1.53-2.36-2.01c-0.99-0.48-2.23-0.72-3.72-0.72
		c-1.09,0-2.15,0.22-3.18,0.66c-1.03,0.44-1.95,1.11-2.75,2.01c-0.81,0.9-1.45,2.04-1.94,3.42c-0.48,1.38-0.73,3.01-0.73,4.89v14.4
		h-4.11v-21.91c0-0.76-0.02-1.74-0.06-2.94c-0.04-1.2-0.1-2.28-0.18-3.24H584.34z"/>
	<path d="M622.69,312.76c0,0.84-0.3,1.59-0.91,2.25s-1.39,0.99-2.36,0.99c-0.97,0-1.75-0.33-2.36-0.99
		c-0.6-0.66-0.91-1.41-0.91-2.25c0-0.84,0.3-1.59,0.91-2.25c0.6-0.66,1.39-0.99,2.36-0.99c0.97,0,1.75,0.33,2.36,0.99
		S622.69,311.92,622.69,312.76z M622.69,335.09c0,0.84-0.3,1.59-0.91,2.25s-1.39,0.99-2.36,0.99c-0.97,0-1.75-0.33-2.36-0.99
		c-0.6-0.66-0.91-1.41-0.91-2.25s0.3-1.59,0.91-2.25c0.6-0.66,1.39-0.99,2.36-0.99c0.97,0,1.75,0.33,2.36,0.99
		C622.39,333.5,622.69,334.25,622.69,335.09z"/>
</g>
<g>
	<path class="st14" d="M192.83,432.77l-0.18-3.9c-0.63,0.66-1.29,1.27-1.98,1.83c-0.69,0.56-1.45,1.04-2.27,1.45
		c-0.83,0.41-1.73,0.73-2.7,0.95c-0.97,0.22-2.04,0.34-3.21,0.34c-1.54,0-2.88-0.22-4.05-0.67s-2.14-1.07-2.92-1.88
		c-0.79-0.8-1.38-1.77-1.79-2.9c-0.4-1.13-0.61-2.38-0.61-3.75c0-1.41,0.3-2.71,0.9-3.9c0.6-1.19,1.52-2.22,2.75-3.08
		c1.23-0.86,2.77-1.53,4.61-2.02c1.84-0.49,4-0.73,6.48-0.73h3.93v-1.79c0-0.76-0.11-1.45-0.33-2.07s-0.57-1.14-1.05-1.57
		c-0.48-0.43-1.11-0.76-1.88-1s-1.71-0.35-2.84-0.35c-1.77,0-3.52,0.2-5.24,0.6c-1.72,0.4-3.39,0.96-5.01,1.69v-5.71
		c1.44-0.57,3.1-1.04,4.98-1.41c1.88-0.37,3.83-0.56,5.86-0.56c2.23,0,4.14,0.21,5.73,0.63c1.59,0.42,2.91,1.05,3.94,1.89
		c1.03,0.84,1.8,1.89,2.29,3.15s0.74,2.73,0.74,4.41v20.34H192.83z M191.8,419.61h-4.4c-1.22,0-2.26,0.12-3.1,0.35
		c-0.85,0.23-1.54,0.56-2.07,0.97c-0.53,0.41-0.92,0.88-1.17,1.42c-0.25,0.54-0.37,1.11-0.37,1.71c0,1.21,0.39,2.13,1.18,2.77
		c0.79,0.64,1.86,0.95,3.22,0.95c1,0,2.05-0.36,3.13-1.08c1.08-0.72,2.27-1.76,3.57-3.11V419.61z"/>
	<path class="st14" d="M214.43,403v19.4c0,1.62,0.31,2.85,0.92,3.68c0.61,0.83,1.54,1.25,2.78,1.25c1.2,0,2.36-0.49,3.47-1.48
		c1.11-0.99,2.29-2.32,3.53-4V403h7.21v29.77h-6.23l-0.18-4.4c-0.63,0.76-1.27,1.46-1.92,2.08s-1.35,1.16-2.11,1.6
		c-0.76,0.44-1.59,0.78-2.48,1.03c-0.9,0.24-1.89,0.37-2.97,0.37c-1.54,0-2.88-0.25-4.03-0.75s-2.11-1.21-2.88-2.12
		s-1.34-2.02-1.73-3.3c-0.38-1.28-0.58-2.71-0.58-4.29V403H214.43z"/>
	<path class="st14" d="M265.29,432.48c-1.3,0.29-2.61,0.53-3.93,0.7c-1.32,0.18-2.57,0.26-3.75,0.26c-1.97,0-3.67-0.21-5.1-0.62
		s-2.61-1.04-3.54-1.88c-0.94-0.84-1.62-1.91-2.07-3.21c-0.44-1.3-0.66-2.85-0.66-4.65v-14.54h-8.06V403h8.06v-7.62l7.38-1.9V403
		h11.67v5.57h-11.67v14.01c0,1.7,0.39,2.98,1.18,3.85c0.79,0.87,2.11,1.3,3.96,1.3c1.18,0,2.33-0.1,3.46-0.29s2.15-0.42,3.07-0.67
		V432.48z"/>
	<path class="st14" d="M300.83,417.65c0,2.34-0.33,4.49-1,6.43c-0.67,1.94-1.63,3.61-2.9,5s-2.81,2.46-4.64,3.22
		c-1.83,0.76-3.92,1.14-6.26,1.14c-2.23,0-4.21-0.32-5.97-0.97c-1.75-0.65-3.24-1.61-4.46-2.89c-1.22-1.28-2.16-2.88-2.81-4.81
		s-0.97-4.17-0.97-6.73c0-2.36,0.34-4.51,1.02-6.45c0.68-1.93,1.65-3.58,2.92-4.95c1.27-1.37,2.82-2.43,4.65-3.18
		c1.83-0.75,3.9-1.13,6.2-1.13c2.25,0,4.24,0.33,6,0.98c1.75,0.65,3.24,1.63,4.46,2.92c1.22,1.29,2.15,2.89,2.79,4.79
		C300.51,412.95,300.83,415.15,300.83,417.65z M293.33,417.83c0-3.09-0.59-5.41-1.76-6.96c-1.17-1.55-2.9-2.33-5.18-2.33
		c-1.26,0-2.33,0.24-3.22,0.73c-0.89,0.49-1.61,1.16-2.19,2.01c-0.57,0.85-0.99,1.84-1.26,2.97c-0.27,1.13-0.4,2.34-0.4,3.63
		c0,3.11,0.63,5.45,1.89,7.02c1.26,1.57,2.98,2.36,5.17,2.36c1.2,0,2.25-0.24,3.13-0.72c0.89-0.48,1.6-1.14,2.16-1.99
		c0.55-0.85,0.96-1.85,1.24-3C293.19,420.39,293.33,419.15,293.33,417.83z"/>
	<path d="M364.96,432.77h-23.9v-3.66l16.75-21.48h-16.34v-4.28h22.51v3.99l-16.45,21.13h17.43V432.77z"/>
	<path d="M432.07,413.84h-25.4v-4.31h25.4V413.84z M432.07,424.04h-25.4v-4.31h25.4V424.04z"/>
	<path class="st17" d="M491.27,432.77v-19.4c0-3.26-1.22-4.89-3.66-4.89c-1.22,0-2.39,0.49-3.5,1.47c-1.11,0.98-2.29,2.31-3.53,3.99
		v18.84h-7.21v-41.41h7.21v10.2l-0.35,5.39c0.61-0.72,1.23-1.37,1.86-1.95c0.63-0.58,1.31-1.06,2.04-1.45
		c0.73-0.39,1.52-0.69,2.36-0.89s1.78-0.31,2.81-0.31c1.54,0,2.88,0.25,4.02,0.75c1.14,0.5,2.1,1.2,2.87,2.11
		c0.77,0.91,1.34,2,1.73,3.28c0.38,1.28,0.58,2.71,0.58,4.29v19.99H491.27z"/>
	<path class="st17" d="M531.38,424.01c0,1.7-0.38,3.15-1.14,4.35c-0.76,1.2-1.76,2.18-3.01,2.93c-1.25,0.75-2.67,1.3-4.25,1.64
		c-1.59,0.34-3.21,0.51-4.86,0.51c-2.21,0-4.19-0.1-5.97-0.31s-3.45-0.5-5.02-0.89v-6.45c1.85,0.76,3.7,1.31,5.54,1.66
		s3.58,0.51,5.21,0.51c1.89,0,3.3-0.3,4.24-0.89c0.94-0.6,1.4-1.37,1.4-2.33c0-0.45-0.1-0.86-0.3-1.23
		c-0.2-0.37-0.57-0.73-1.11-1.07c-0.54-0.34-1.3-0.69-2.29-1.05c-0.98-0.36-2.27-0.77-3.87-1.22c-1.48-0.41-2.77-0.87-3.88-1.39
		c-1.11-0.52-2.03-1.13-2.76-1.83s-1.28-1.52-1.64-2.45c-0.36-0.93-0.55-2.02-0.55-3.27c0-1.21,0.28-2.35,0.83-3.43
		c0.55-1.07,1.37-2.02,2.47-2.83c1.09-0.81,2.46-1.45,4.09-1.92s3.54-0.7,5.73-0.7c1.89,0,3.56,0.1,5.02,0.29
		c1.46,0.2,2.75,0.41,3.87,0.64v5.83c-1.71-0.55-3.32-0.93-4.83-1.16c-1.51-0.22-3-0.34-4.48-0.34s-2.66,0.26-3.56,0.79
		c-0.9,0.53-1.34,1.26-1.34,2.2c0,0.45,0.09,0.85,0.27,1.2c0.18,0.35,0.53,0.69,1.05,1.03c0.52,0.33,1.25,0.68,2.19,1.04
		c0.94,0.36,2.17,0.76,3.71,1.19c1.73,0.49,3.19,1.01,4.37,1.57c1.18,0.56,2.13,1.19,2.85,1.89c0.72,0.7,1.24,1.5,1.55,2.4
		C531.23,421.83,531.38,422.86,531.38,424.01z"/>
	<path class="st17" d="M547.04,403v19.4c0,1.62,0.31,2.85,0.92,3.68c0.61,0.83,1.54,1.25,2.78,1.25c1.2,0,2.36-0.49,3.47-1.48
		c1.11-0.99,2.29-2.32,3.53-4V403h7.21v29.77h-6.23l-0.18-4.4c-0.63,0.76-1.27,1.46-1.92,2.08s-1.35,1.16-2.11,1.6
		c-0.76,0.44-1.59,0.78-2.48,1.03c-0.9,0.24-1.89,0.37-2.97,0.37c-1.54,0-2.88-0.25-4.03-0.75s-2.11-1.21-2.88-2.12
		s-1.34-2.02-1.73-3.3c-0.38-1.28-0.58-2.71-0.58-4.29V403H547.04z"/>
	<path class="st17" d="M594.33,432.77v-20.28c0-0.74-0.02-1.39-0.06-1.95c-0.04-0.56-0.12-1.02-0.24-1.39
		c-0.12-0.37-0.29-0.65-0.52-0.84c-0.23-0.19-0.54-0.28-0.93-0.28c-0.61,0-1.21,0.41-1.8,1.23c-0.59,0.82-1.26,2.22-2.01,4.19v19.31
		h-6.17v-20.28c0-0.74-0.02-1.39-0.06-1.95c-0.04-0.56-0.12-1.02-0.24-1.39c-0.12-0.37-0.3-0.65-0.53-0.84
		c-0.24-0.19-0.55-0.28-0.95-0.28c-0.51,0-1.08,0.41-1.71,1.23c-0.63,0.82-1.33,2.22-2.1,4.19v19.31h-6.23V403h5.35l0.12,4.34
		c0.43-0.88,0.87-1.63,1.3-2.26c0.43-0.62,0.9-1.14,1.39-1.54c0.49-0.4,1.02-0.69,1.58-0.86c0.56-0.18,1.2-0.26,1.91-0.26
		c1.67,0,2.95,0.44,3.83,1.3c0.88,0.87,1.37,2.08,1.49,3.62c0.47-0.88,0.94-1.63,1.4-2.26c0.46-0.62,0.95-1.14,1.45-1.54
		c0.5-0.4,1.04-0.69,1.62-0.86c0.58-0.18,1.23-0.26,1.94-0.26c2.19,0,3.8,0.76,4.84,2.27c1.04,1.51,1.57,3.76,1.57,6.73v21.36
		H594.33z"/>
	<path d="M624.79,445.08c-9.08-8.34-13.62-17.56-13.62-27.67c0-2.36,0.24-4.72,0.72-7.08c0.48-2.35,1.26-4.71,2.33-7.08
		c1.07-2.36,2.49-4.73,4.25-7.09c1.76-2.36,3.9-4.71,6.42-7.03l2.98,3.02c-7.64,7.48-11.46,15.78-11.46,24.88
		c0,4.53,0.96,8.89,2.9,13.07c1.93,4.18,4.79,8.13,8.57,11.84L624.79,445.08z"/>
	<path d="M667.03,432.77h-6.82l-8.01-11.22l-7.92,11.22h-6.65L649.13,418l-10.96-14.65h6.59l7.8,11.31l7.65-11.31h6.35l-11.14,14.77
		L667.03,432.77z"/>
	<path d="M679.61,389.13c9.08,8.34,13.62,17.62,13.62,27.84c0,2.11-0.22,4.3-0.65,6.56c-0.43,2.27-1.17,4.59-2.22,6.96
		c-1.04,2.37-2.45,4.78-4.21,7.22c-1.76,2.44-3.98,4.89-6.66,7.36l-2.98-3.02c3.84-3.77,6.71-7.71,8.6-11.81
		c1.89-4.1,2.84-8.4,2.84-12.89c0-9.3-3.81-17.66-11.43-25.09L679.61,389.13z"/>
	<path d="M709.48,438.78c1,0.04,1.98-0.05,2.92-0.26c0.95-0.22,1.78-0.53,2.5-0.95c0.72-0.42,1.29-0.94,1.73-1.57
		c0.43-0.63,0.65-1.34,0.65-2.14c0-0.82-0.14-1.48-0.43-1.99c-0.29-0.51-0.61-0.98-0.96-1.41s-0.67-0.89-0.96-1.38
		c-0.29-0.49-0.43-1.14-0.43-1.96c0-0.41,0.08-0.84,0.24-1.29c0.16-0.45,0.4-0.86,0.72-1.23c0.32-0.37,0.74-0.67,1.24-0.91
		c0.5-0.23,1.1-0.35,1.79-0.35s1.35,0.14,1.99,0.42c0.64,0.28,1.2,0.72,1.68,1.3c0.48,0.59,0.87,1.32,1.15,2.2
		c0.29,0.88,0.43,1.91,0.43,3.11c0,1.62-0.3,3.18-0.9,4.67c-0.6,1.49-1.5,2.82-2.69,3.97c-1.19,1.15-2.68,2.07-4.46,2.75
		c-1.78,0.68-3.85,1.03-6.22,1.03V438.78z M718.72,402.82c0.61,0,1.19,0.12,1.74,0.37c0.55,0.24,1.03,0.57,1.45,0.98
		s0.74,0.89,0.99,1.44c0.25,0.55,0.37,1.12,0.37,1.73c0,0.63-0.12,1.21-0.37,1.74c-0.25,0.54-0.58,1.01-0.99,1.42
		s-0.9,0.73-1.45,0.97c-0.55,0.23-1.13,0.35-1.74,0.35c-0.63,0-1.22-0.12-1.76-0.35c-0.54-0.23-1.02-0.56-1.43-0.97
		s-0.74-0.88-0.98-1.42c-0.24-0.54-0.35-1.12-0.35-1.74c0-0.61,0.12-1.18,0.35-1.73s0.56-1.03,0.98-1.44s0.89-0.74,1.43-0.98
		C717.51,402.94,718.09,402.82,718.72,402.82z"/>
</g>
</svg>
