<svg id="Layer_1" data-name="Layer 1" xmlns="http://www.w3.org/2000/svg" viewBox="0 0 794.63 253.57"><title>basic-03</title><rect x="570.93" y="14.92" width="80.34" height="100" style="fill:#e5ecff"/><rect x="569.93" y="13.92" width="82.34" height="102" style="fill:none"/><rect x="401.72" y="14.92" width="175.34" height="100" style="fill:#e5ffe6"/><rect x="400.72" y="13.92" width="177.34" height="102" style="fill:none"/><rect x="17.06" y="15.39" width="394.74" height="100" style="fill:#ffe9e5"/><rect x="16.06" y="14.39" width="396.74" height="102" style="fill:none"/><rect x="646.06" y="14.92" width="15.93" height="100" style="fill:#f5d328"/><rect x="645.06" y="13.92" width="17.93" height="102" style="fill:none"/><path d="M663,9.5h-5.42v5.42H663V9.5Zm-10.83,0h-5.42v5.42h5.42V9.5Zm-10.83,0h-5.42v5.42h5.42V9.5Zm-10.83,0h-5.42v5.42h5.42V9.5Zm-10.83,0h-5.42v5.42h5.42V9.5Zm-10.83,0h-5.42v5.42h5.42V9.5ZM598,9.5h-5.42v5.42H598V9.5Zm-10.83,0h-5.42v5.42h5.42V9.5Zm-10.83,0h-5.42v5.42h5.42V9.5Zm-10.83,0h-5.42v5.42h5.42V9.5Zm-10.83,0h-5.42v5.42h5.42V9.5Zm-10.83,0h-5.42v5.42h5.42V9.5ZM533,9.5H527.6v5.42H533V9.5Zm-10.83,0h-5.42v5.42h5.42V9.5Zm-10.83,0h-5.42v5.42h5.42V9.5Zm-10.83,0H495.1v5.42h5.42V9.5Zm-10.83,0h-5.42v5.42h5.42V9.5Zm-10.83,0h-5.42v5.42h5.42V9.5ZM468,9.5h-5.42v5.42H468V9.5Zm-10.83,0h-5.42v5.42h5.42V9.5Zm-10.83,0h-5.42v5.42h5.42V9.5Zm-10.83,0h-5.42v5.42h5.42V9.5Zm-10.83,0h-5.42v5.42h5.42V9.5Zm-10.83,0h-5.42v5.42h5.42V9.5ZM403,9.5h-5.42v5.42H403V9.5Zm-10.83,0h-5.42v5.42h5.42V9.5Zm-10.83,0H376v5.42h5.42V9.5Zm-10.83,0h-5.42v5.42h5.42V9.5Zm-10.83,0H354.3v5.42h5.42V9.5Zm-10.83,0h-5.42v5.42h5.42V9.5ZM338,9.5h-5.42v5.42H338V9.5Zm-10.83,0H321.8v5.42h5.42V9.5Zm-10.83,0H311v5.42h5.42V9.5Zm-10.83,0h-5.42v5.42h5.42V9.5Zm-10.83,0h-5.42v5.42h5.42V9.5Zm-10.83,0h-5.42v5.42h5.42V9.5Zm-10.83,0h-5.42v5.42h5.42V9.5Zm-10.83,0h-5.42v5.42h5.42V9.5Zm-10.83,0H246v5.42h5.42V9.5Zm-10.83,0h-5.42v5.42h5.42V9.5Zm-10.83,0h-5.42v5.42h5.42V9.5Zm-10.83,0h-5.42v5.42h5.42V9.5Zm-10.83,0h-5.42v5.42h5.42V9.5Zm-10.83,0h-5.42v5.42h5.42V9.5Zm-10.83,0H181v5.42h5.42V9.5Zm-10.83,0h-5.42v5.42h5.42V9.5Zm-10.83,0h-5.42v5.42h5.42V9.5Zm-10.83,0H148.5v5.42h5.42V9.5Zm-10.83,0h-5.42v5.42h5.42V9.5Zm-10.83,0h-5.42v5.42h5.42V9.5Zm-10.83,0H116v5.42h5.42V9.5Zm-10.83,0h-5.42v5.42h5.42V9.5Zm-10.83,0H94.35v5.42h5.42V9.5Zm-10.83,0H83.52v5.42h5.42V9.5ZM78.1,9.5H72.68v5.42H78.1V9.5Zm-10.83,0H61.85v5.42h5.42V9.5Zm-10.83,0H51v5.42h5.42V9.5Zm-10.83,0H40.19v5.42h5.42V9.5Zm-10.83,0H29.36v5.42h5.42V9.5Zm-10.83,0H18.53v5.42h5.42V9.5Zm-6.88,9.36H11.64v5.42h5.42V18.86Zm0,10.83H11.64v5.42h5.42V29.7Zm0,10.83H11.64v5.42h5.42V40.53Zm0,10.83H11.64v5.42h5.42V51.36Zm0,10.83H11.64v5.42h5.42V62.19Zm0,10.83H11.64v5.42h5.42V73Zm0,10.83H11.64v5.42h5.42V83.85Zm0,10.83H11.64v5.42h5.42V94.68Zm0,10.83H11.64v5.42h5.42v-5.42Zm6.84,9.4H18.49v5.42H23.9v-5.42Zm10.83,0H29.32v5.42h5.42v-5.42Zm10.83,0H40.15v5.42h5.42v-5.42Zm10.83,0H51v5.42H56.4v-5.42Zm10.83,0H61.81v5.42h5.42v-5.42Zm10.83,0H72.64v5.42h5.42v-5.42Zm10.83,0H83.48v5.42h5.42v-5.42Zm10.83,0H94.31v5.42h5.42v-5.42Zm10.83,0h-5.42v5.42h5.42v-5.42Zm10.83,0H116v5.42h5.42v-5.42Zm10.83,0H126.8v5.42h5.42v-5.42Zm10.83,0h-5.42v5.42H143v-5.42Zm10.83,0h-5.42v5.42h5.42v-5.42Zm10.83,0h-5.42v5.42h5.42v-5.42Zm10.83,0h-5.42v5.42h5.42v-5.42Zm10.83,0H181v5.42h5.42v-5.42Zm10.83,0h-5.42v5.42h5.42v-5.42Zm10.83,0h-5.42v5.42H208v-5.42Zm10.83,0h-5.42v5.42h5.42v-5.42Zm10.83,0h-5.42v5.42h5.42v-5.42Zm10.83,0h-5.42v5.42h5.42v-5.42Zm10.83,0h-5.42v5.42h5.42v-5.42Zm10.83,0h-5.42v5.42h5.42v-5.42Zm10.83,0h-5.42v5.42H273v-5.42Zm10.83,0h-5.42v5.42h5.42v-5.42Zm10.83,0h-5.42v5.42h5.42v-5.42Zm10.83,0H300.1v5.42h5.42v-5.42Zm10.83,0h-5.42v5.42h5.42v-5.42Zm10.83,0h-5.42v5.42h5.42v-5.42Zm10.83,0h-5.42v5.42H338v-5.42Zm10.83,0h-5.42v5.42h5.42v-5.42Zm10.83,0h-5.42v5.42h5.42v-5.42Zm10.83,0h-5.42v5.42h5.42v-5.42Zm10.83,0h-5.42v5.42h5.42v-5.42Zm10.83,0h-5.42v5.42h5.42v-5.42Zm10.83,0h-5.42v5.42H403v-5.42Zm10.83,0h-5.42v5.42h5.42v-5.42Zm10.83,0h-5.42v5.42h5.42v-5.42Zm10.83,0h-5.42v5.42h5.42v-5.42Zm10.83,0h-5.42v5.42h5.42v-5.42Zm10.83,0h-5.42v5.42h5.42v-5.42Zm10.83,0h-5.42v5.42H468v-5.42Zm10.83,0H473.4v5.42h5.42v-5.42Zm10.83,0h-5.42v5.42h5.42v-5.42Zm10.83,0h-5.42v5.42h5.42v-5.42Zm10.83,0h-5.42v5.42h5.42v-5.42Zm10.83,0h-5.42v5.42h5.42v-5.42Zm10.83,0h-5.42v5.42H533v-5.42Zm10.83,0h-5.42v5.42h5.42v-5.42Zm10.83,0h-5.42v5.42h5.42v-5.42Zm10.83,0h-5.42v5.42h5.42v-5.42Zm10.83,0h-5.42v5.42h5.42v-5.42Zm10.83,0h-5.42v5.42h5.42v-5.42Zm10.83,0h-5.42v5.42H598v-5.42Zm10.83,0h-5.42v5.42h5.42v-5.42Zm10.83,0h-5.42v5.42h5.42v-5.42Zm10.83,0H625v5.42h5.42v-5.42Zm10.83,0h-5.42v5.42h5.42v-5.42Zm10.83,0H646.7v5.42h5.42v-5.42Zm10.83,0h-5.42v5.42h5.42v-5.42Zm5.46-10.79H663v5.42h5.42v-5.42Zm0-10.83H663v5.42h5.42V93.29Zm0-10.83H663v5.42h5.42V82.46Zm0-10.83H663V77h5.42V71.63Zm0-10.83H663v5.42h5.42V60.8Zm0-10.83H663v5.42h5.42V50Zm0-10.83H663v5.42h5.42V39.14Zm0-10.83H663v5.42h5.42V28.31Zm0-10.83H663v5.42h5.42V17.48Z" style="fill:#dcdee0"/><text transform="translate(586.11 203.39)" style="font-size:48px;font-family:AvenirNext-DemiBold, Avenir Next"><tspan style="font-weight:700">SSE 4.2</tspan><tspan x="167.42" y="0" style="font-family:AvenirNext-Regular, Avenir Next">,</tspan><tspan style="font-size:24px;font-family:AvenirNext-Medium, Avenir Next"><tspan x="-15.62" y="28.8">(1 wasted element)</tspan></tspan></text><text transform="translate(76.13 203.39)" style="font-size:48px;font-family:AvenirNext-DemiBold, Avenir Next;font-weight:700">AVX512</text><text transform="translate(423.64 203.39)" style="font-size:48px;font-family:AvenirNext-DemiBold, Avenir Next;font-weight:700">AVX</text><text transform="translate(51.45 77.92)" style="font-size:60px;font-family:Consolas, Consolas">Array&lt;<tspan x="197.93" y="0" style="font-family:Consolas-Bold, Consolas;font-weight:700">float</tspan><tspan x="362.87" y="0">, 27&gt;</tspan></text><line x1="158.33" y1="128.74" x2="158.33" y2="161.29" style="fill:none;stroke:#000;stroke-width:5px"/><line x1="472.05" y1="128.74" x2="472.05" y2="161.29" style="fill:none;stroke:#000;stroke-width:5px"/><line x1="610.08" y1="128.74" x2="610.08" y2="161.29" style="fill:none;stroke:#000;stroke-width:5px"/></svg>