<svg id="Layer_1" data-name="Layer 1" xmlns="http://www.w3.org/2000/svg" viewBox="0 0 1830 576"><defs><style>.cls-1{fill:#d4ffd4;}.cls-2{fill:none;stroke:#000;stroke-miterlimit:10;stroke-width:3.27px;}.cls-3{font-size:32px;}.cls-18,.cls-3{font-family:Consolas, Consolas;}.cls-4{fill:#ffdede;}.cls-5{fill:#e2deff;}.cls-6{font-size:78.24px;font-family:InconsolataForPowerline-g, Inconsolata-g for Powerline;}.cls-7{fill:red;}.cls-16,.cls-8{font-size:60px;}.cls-8{font-family:AvenirNext-DemiBold, Avenir Next;}.cls-10,.cls-11,.cls-12,.cls-17,.cls-20,.cls-9{font-weight:700;}.cls-9{letter-spacing:-0.04em;}.cls-11,.cls-14{letter-spacing:-0.01em;}.cls-12,.cls-19{letter-spacing:0em;}.cls-13,.cls-14,.cls-15,.cls-19{font-family:AvenirNext-Regular, Avenir Next;}.cls-15{letter-spacing:-0.01em;}.cls-16{font-family:Consolas-Bold, Consolas;}.cls-17{fill:#d00023;}.cls-20{fill:#009e30;}</style></defs><title>enoki-horiz-vs-vertical</title><rect class="cls-1" x="863.64" y="20.63" width="105.57" height="104.74"/><rect class="cls-2" x="863.64" y="20.63" width="105.57" height="104.74"/><text class="cls-3" transform="translate(882.99 82.96) scale(1.01 1)">x[0]</text><rect class="cls-1" x="969.22" y="20.63" width="105.57" height="104.74"/><rect class="cls-2" x="969.22" y="20.63" width="105.57" height="104.74"/><text class="cls-3" transform="translate(988.56 82.96) scale(1.01 1)">x[1]</text><rect class="cls-1" x="1074.79" y="20.63" width="105.57" height="104.74"/><rect class="cls-2" x="1074.79" y="20.63" width="105.57" height="104.74"/><text class="cls-3" transform="translate(1094.14 82.96) scale(1.01 1)">x[2]</text><rect class="cls-1" x="1180.36" y="20.63" width="105.57" height="104.74"/><rect class="cls-2" x="1180.36" y="20.63" width="105.57" height="104.74"/><text class="cls-3" transform="translate(1199.71 82.96) scale(1.01 1)">x[3]</text><line class="cls-2" x1="1285.94" y1="20.63" x2="1285.94" y2="125.37"/><rect class="cls-4" x="863.68" y="125.37" width="105.57" height="104.74"/><rect class="cls-2" x="863.68" y="125.37" width="105.57" height="104.74"/><rect class="cls-4" x="969.25" y="125.37" width="105.57" height="104.74"/><rect class="cls-2" x="969.25" y="125.37" width="105.57" height="104.74"/><rect class="cls-4" x="1074.82" y="125.37" width="105.57" height="104.74"/><rect class="cls-2" x="1074.82" y="125.37" width="105.57" height="104.74"/><rect class="cls-4" x="1180.4" y="125.37" width="105.57" height="104.74"/><rect class="cls-2" x="1180.4" y="125.37" width="105.57" height="104.74"/><line class="cls-2" x1="1285.97" y1="125.37" x2="1285.97" y2="230.11"/><rect class="cls-5" x="1373.07" y="75" width="105.57" height="104.74"/><rect class="cls-2" x="1373.07" y="75" width="105.57" height="104.74"/><rect class="cls-5" x="1478.64" y="75" width="105.57" height="104.74"/><rect class="cls-2" x="1478.64" y="75" width="105.57" height="104.74"/><rect class="cls-5" x="1584.21" y="75" width="105.57" height="104.74"/><rect class="cls-2" x="1584.21" y="75" width="105.57" height="104.74"/><rect class="cls-5" x="1689.79" y="75" width="105.57" height="104.74"/><rect class="cls-2" x="1689.79" y="75" width="105.57" height="104.74"/><line class="cls-2" x1="1795.36" y1="75" x2="1795.36" y2="179.74"/><text class="cls-6" transform="translate(1305.98 154.64) scale(1.01 1)">=</text><text class="cls-3" transform="translate(883.05 193.7) scale(1.01 1)">y[0]</text><text class="cls-3" transform="translate(988.63 192.7) scale(1.01 1)">y[1]</text><text class="cls-3" transform="translate(1094.21 192.7) scale(1.01 1)">y[2]</text><text class="cls-3" transform="translate(1199.79 192.7) scale(1.01 1)">y[3]</text><text class="cls-3" transform="translate(1389.05 136.03) scale(1.01 1)">z[0]</text><text class="cls-3" transform="translate(1494.63 136.03) scale(1.01 1)">z[1]</text><text class="cls-3" transform="translate(1600.21 136.03) scale(1.01 1)">z[2]</text><text class="cls-3" transform="translate(1705.79 136.03) scale(1.01 1)">z[3]</text><rect class="cls-1" x="863.64" y="323" width="105.57" height="104.74"/><rect class="cls-2" x="863.64" y="323" width="105.57" height="104.74"/><text class="cls-3" transform="translate(882.99 385.33) scale(1.01 1)">x[0]</text><rect class="cls-1" x="969.22" y="323" width="105.57" height="104.74"/><rect class="cls-2" x="969.22" y="323" width="105.57" height="104.74"/><text class="cls-3" transform="translate(988.56 385.33) scale(1.01 1)">x[1]</text><rect class="cls-1" x="1074.79" y="323" width="105.57" height="104.74"/><rect class="cls-2" x="1074.79" y="323" width="105.57" height="104.74"/><text class="cls-3" transform="translate(1094.14 385.33) scale(1.01 1)">x[2]</text><rect class="cls-1" x="1180.36" y="323" width="105.57" height="104.74"/><rect class="cls-2" x="1180.36" y="323" width="105.57" height="104.74"/><text class="cls-3" transform="translate(1199.71 385.33) scale(1.01 1)">x[3]</text><line class="cls-2" x1="1285.94" y1="323" x2="1285.94" y2="427.74"/><polygon points="965.37 393.18 965.37 379.37 951.87 379.37 951.87 371.51 965.37 371.51 965.37 358.91 973.52 358.91 973.52 371.51 986.56 371.51 986.56 379.37 973.52 379.37 973.52 393.18 965.37 393.18"/><path class="cls-7" d="M971.85,360.58v12.6h13v4.52h-13V391.5H967V377.7h-13.5v-4.52H967v-12.6Z"/><polygon points="912.59 142.5 912.59 128.69 899.08 128.69 899.08 120.84 912.59 120.84 912.59 108.24 920.74 108.24 920.74 120.84 933.78 120.84 933.78 128.69 920.74 128.69 920.74 142.5 912.59 142.5"/><path class="cls-7" d="M919.06,109.91v12.6h13V127h-13v13.81h-4.81V127h-13.5v-4.52h13.5v-12.6Z"/><polygon points="1018.16 142.5 1018.16 128.69 1004.66 128.69 1004.66 120.84 1018.16 120.84 1018.16 108.24 1026.31 108.24 1026.31 120.84 1039.35 120.84 1039.35 128.69 1026.31 128.69 1026.31 142.5 1018.16 142.5"/><path class="cls-7" d="M1024.64,109.91v12.6h13V127h-13v13.81h-4.81V127h-13.5v-4.52h13.5v-12.6Z"/><polygon points="1123.73 142.5 1123.73 128.69 1110.23 128.69 1110.23 120.84 1123.73 120.84 1123.73 108.24 1131.88 108.24 1131.88 120.84 1144.92 120.84 1144.92 128.69 1131.88 128.69 1131.88 142.5 1123.73 142.5"/><path class="cls-7" d="M1130.21,109.91v12.6h13V127h-13v13.81h-4.81V127h-13.5v-4.52h13.5v-12.6Z"/><polygon points="1229.31 142.5 1229.31 128.69 1215.8 128.69 1215.8 120.84 1229.31 120.84 1229.31 108.24 1237.45 108.24 1237.45 120.84 1250.5 120.84 1250.5 128.69 1237.45 128.69 1237.45 142.5 1229.31 142.5"/><path class="cls-7" d="M1235.78,109.91v12.6h13V127h-13v13.81H1231V127h-13.5v-4.52H1231v-12.6Z"/><polygon points="1070.95 393.18 1070.95 379.37 1057.44 379.37 1057.44 371.51 1070.95 371.51 1070.95 358.91 1079.1 358.91 1079.1 371.51 1092.14 371.51 1092.14 379.37 1079.1 379.37 1079.1 393.18 1070.95 393.18"/><path class="cls-7" d="M1077.43,360.58v12.6h13v4.52h-13V391.5h-4.81V377.7h-13.5v-4.52h13.5v-12.6Z"/><polygon points="1176.52 393.18 1176.52 379.37 1163.02 379.37 1163.02 371.51 1176.52 371.51 1176.52 358.91 1184.67 358.91 1184.67 371.51 1197.71 371.51 1197.71 379.37 1184.67 379.37 1184.67 393.18 1176.52 393.18"/><path class="cls-7" d="M1183,360.58v12.6h13v4.52h-13V391.5h-4.81V377.7h-13.5v-4.52h13.5v-12.6Z"/><text class="cls-6" transform="translate(1305.98 154.64) scale(1.01 1)">=</text><rect class="cls-5" x="1373.07" y="323" width="105.57" height="104.74"/><rect class="cls-2" x="1373.07" y="323" width="105.57" height="104.74"/><text class="cls-6" transform="translate(1305.98 402.27) scale(1.01 1)">=</text><text class="cls-6" transform="translate(1305.98 402.27) scale(1.01 1)">=</text><text class="cls-3" transform="translate(1419.05 385.33) scale(1.01 1)">z</text><text class="cls-8" transform="translate(34.92 95.09) scale(1.01 1)"><tspan class="cls-9">V</tspan><tspan class="cls-10" x="36.66" y="0">e</tspan><tspan class="cls-11" x="71.1" y="0">r</tspan><tspan class="cls-12" x="92.22" y="0">tical </tspan><tspan class="cls-13" x="222.06" y="0">ope</tspan><tspan class="cls-14" x="331.14" y="0">r</tspan><tspan class="cls-15" x="352.02" y="0">a</tspan><tspan class="cls-13" x="383.46" y="0">tion:</tspan></text><text class="cls-16" transform="translate(169.91 189.89) scale(1.01 1)"><tspan class="cls-17">auto </tspan><tspan class="cls-18" x="164.94" y="0">z = x + y;</tspan></text><text class="cls-8" transform="translate(34.92 337.97) scale(1.01 1)"><tspan class="cls-10">Horizontal </tspan><tspan class="cls-13" x="303.77" y="0">ope</tspan><tspan class="cls-14" x="412.85" y="0">r</tspan><tspan class="cls-15" x="433.73" y="0">a</tspan><tspan class="cls-19" x="465.17" y="0">tion:</tspan></text><text class="cls-16" transform="translate(169.91 432.77) scale(1.01 1)"><tspan class="cls-17">auto </tspan><tspan class="cls-18" x="164.94" y="0">z = </tspan><tspan class="cls-20" x="296.89" y="0">hsum</tspan><tspan class="cls-18" x="428.85" y="0">(x);</tspan></text></svg>