<?xml version="1.0" encoding="utf-8"?>
<!-- Generator: Adobe Illustrator 23.0.6, SVG Export Plug-In . SVG Version: 6.00 Build 0)  -->
<svg version="1.1" id="Layer_1" xmlns="http://www.w3.org/2000/svg" xmlns:xlink="http://www.w3.org/1999/xlink" x="0px" y="0px"
	 viewBox="0 0 1744.3 546.2" style="enable-background:new 0 0 1744.3 546.2;" xml:space="preserve">
<style type="text/css">
	.st0{fill:none;stroke:#000000;stroke-width:4;}
	.st1{fill:#F8F8F8;}
	.st2{fill:none;stroke:#BCBEBF;stroke-width:5;stroke-dasharray:10,10;}
	.st3{enable-background:new    ;}
	.st4{fill:#E5ECFF;}
	.st5{fill:#E5FFE6;}
	.st6{fill:#FFE9E5;}
</style>
<title>basic-02</title>
<line class="st0" x1="265.2" y1="342.5" x2="265.2" y2="203.2"/>
<line class="st0" x1="884" y1="304.6" x2="884" y2="108.5"/>
<rect x="574" y="13.2" class="st1" width="624" height="100"/>
<rect x="574" y="13.2" class="st2" width="624" height="100"/>
<g class="st3">
	<path d="M645.2,77.2h-5.7l-2.7-8.3h-15.9l-2.7,8.3h-5.4l12.7-38.3h7.1L645.2,77.2z M635.4,64.2l-6.5-20.5l-6.5,20.5H635.4z"/>
	<path d="M651.4,47.8h4.7l0.1,5.4c1.7-2.1,3.5-3.6,5.1-4.5c1.7-0.9,3.4-1.4,5.1-1.4c3,0,5.4,1,6.9,3c1.6,2,2.3,4.9,2.2,8.8h-5.2
		c0.1-2.6-0.3-4.4-1.1-5.6c-0.8-1.2-2-1.7-3.6-1.7c-0.7,0-1.4,0.1-2.1,0.4c-0.7,0.2-1.4,0.6-2.1,1.2s-1.5,1.2-2.3,2.1
		s-1.7,1.9-2.6,3v18.9h-5.2V47.8z"/>
	<path d="M684.4,47.8h4.7l0.1,5.4c1.7-2.1,3.5-3.6,5.1-4.5c1.7-0.9,3.4-1.4,5.1-1.4c3,0,5.4,1,6.9,3c1.6,2,2.3,4.9,2.2,8.8h-5.2
		c0.1-2.6-0.3-4.4-1.1-5.6c-0.8-1.2-2-1.7-3.6-1.7c-0.7,0-1.4,0.1-2.1,0.4c-0.7,0.2-1.4,0.6-2.1,1.2s-1.5,1.2-2.3,2.1
		s-1.7,1.9-2.6,3v18.9h-5.2V47.8z"/>
	<path d="M735.1,77.2l-0.1-4c-1.6,1.6-3.2,2.7-4.9,3.4c-1.7,0.7-3.4,1.1-5.2,1.1c-1.7,0-3.1-0.2-4.3-0.6c-1.2-0.4-2.2-1-2.9-1.8
		c-0.8-0.8-1.3-1.6-1.7-2.7c-0.4-1-0.5-2.1-0.5-3.3c0-2.9,1.1-5.3,3.3-6.9s5.4-2.5,9.7-2.5h6.1v-2.6c0-1.7-0.6-3.1-1.7-4.2
		s-2.8-1.6-5.1-1.6c-1.7,0-3.3,0.2-4.9,0.6s-3.3,0.9-5,1.6v-4.6c0.6-0.2,1.4-0.5,2.2-0.7s1.6-0.4,2.5-0.6s1.8-0.3,2.8-0.4
		c1-0.1,1.9-0.2,2.9-0.2c1.8,0,3.4,0.2,4.8,0.6c1.4,0.4,2.6,1,3.6,1.8c1,0.8,1.7,1.8,2.3,3s0.8,2.6,0.8,4.3v20.3H735.1z M734.5,63.8
		H728c-1.3,0-2.4,0.1-3.3,0.4c-0.9,0.3-1.7,0.6-2.3,1.1s-1,1-1.3,1.7c-0.3,0.7-0.4,1.4-0.4,2.2c0,0.6,0.1,1.1,0.3,1.6s0.5,1,0.8,1.4
		c0.4,0.4,0.9,0.7,1.5,1c0.6,0.2,1.4,0.4,2.3,0.4c1.2,0,2.5-0.4,4-1.1c1.5-0.7,3.1-1.8,4.8-3.4V63.8z"/>
	<path d="M775.3,47.8l-10,26.3c-1,2.7-2.1,5-3.2,6.9c-1.1,1.9-2.3,3.5-3.6,4.8c-1.3,1.2-2.7,2.2-4.3,2.7c-1.6,0.6-3.3,0.9-5.2,0.9
		c-0.5,0-1,0-1.4,0s-0.9,0-1.3-0.1v-4.6c0.4,0.1,0.9,0.1,1.4,0.2c0.5,0,1,0.1,1.6,0.1c0.9,0,1.8-0.1,2.6-0.4
		c0.8-0.3,1.6-0.7,2.3-1.3c0.7-0.6,1.4-1.4,2.1-2.4c0.7-1,1.3-2.2,1.9-3.5l-11.7-29.4h5.8l7.4,19.5l1.5,4.6l1.7-4.7l6.9-19.3H775.3z
		"/>
	<path d="M804.4,74.4l-3.2,3.2l-19.7-16.4l19.7-16.4l3.2,3.3l-16,13.1L804.4,74.4z"/>
	<path d="M840.9,43.4h-11.3v33.8h-5.3V43.4H813v-4.5h27.9V43.4z"/>
	<path d="M874.3,47.8l-10,26.3c-1,2.7-2.1,5-3.2,6.9c-1.1,1.9-2.3,3.5-3.6,4.8c-1.3,1.2-2.7,2.2-4.3,2.7c-1.6,0.6-3.3,0.9-5.2,0.9
		c-0.5,0-1,0-1.4,0s-0.9,0-1.3-0.1v-4.6c0.4,0.1,0.9,0.1,1.4,0.2c0.5,0,1,0.1,1.6,0.1c0.9,0,1.8-0.1,2.6-0.4
		c0.8-0.3,1.6-0.7,2.3-1.3c0.7-0.6,1.4-1.4,2.1-2.4c0.7-1,1.3-2.2,1.9-3.5l-11.7-29.4h5.8l7.4,19.5l1.5,4.6l1.7-4.7l6.9-19.3H874.3z
		"/>
	<path d="M906.2,62c0,2.6-0.4,4.9-1.1,6.9s-1.7,3.6-3,4.9s-2.8,2.3-4.6,2.9s-3.7,1-5.7,1c-0.9,0-1.9,0-2.8-0.1
		c-0.9-0.1-1.9-0.3-2.8-0.5v12.3h-5.1V47.8h4.5l0.3,4.9c1.5-2,3-3.4,4.7-4.2s3.5-1.2,5.4-1.2c1.7,0,3.2,0.4,4.4,1.1s2.3,1.7,3.2,3
		s1.5,2.8,1.9,4.6S906.2,59.7,906.2,62z M901,62.2c0-1.5-0.1-3-0.3-4.2c-0.2-1.3-0.6-2.4-1.1-3.3s-1.1-1.6-1.9-2.2s-1.7-0.8-2.7-0.8
		c-0.6,0-1.3,0.1-2,0.3s-1.4,0.5-2.1,1c-0.7,0.5-1.5,1.1-2.3,1.9s-1.6,1.8-2.5,2.9v14.3c0.9,0.4,1.9,0.7,3,0.9s2.1,0.3,3,0.3
		c2.8,0,4.9-0.9,6.5-2.8S901,66,901,62.2z"/>
	<path d="M938.9,60.9c0,0.7,0,1.3,0,1.8s0,0.9-0.1,1.4h-20.7c0,3,0.8,5.3,2.5,6.9s4.1,2.4,7.3,2.4c0.9,0,1.7,0,2.6-0.1
		s1.7-0.2,2.5-0.3s1.6-0.2,2.3-0.4s1.4-0.3,2-0.5v4.2c-1.4,0.4-3,0.7-4.7,1c-1.7,0.2-3.6,0.4-5.4,0.4c-2.5,0-4.7-0.3-6.5-1
		s-3.3-1.7-4.5-3c-1.2-1.3-2-2.9-2.6-4.8s-0.8-4-0.8-6.4c0-2.1,0.3-4,0.9-5.9c0.6-1.8,1.5-3.5,2.6-4.9s2.5-2.5,4.2-3.3
		s3.5-1.2,5.7-1.2c2.1,0,3.9,0.3,5.4,1s2.9,1.6,4,2.7s1.9,2.6,2.5,4.3S938.9,58.9,938.9,60.9z M933.6,60.2c0.1-1.3-0.1-2.5-0.4-3.6
		s-0.8-2-1.4-2.8c-0.7-0.8-1.5-1.4-2.4-1.8s-2.1-0.7-3.4-0.7c-1.1,0-2.1,0.2-3,0.6s-1.7,1-2.4,1.8s-1.2,1.7-1.6,2.8
		s-0.7,2.3-0.8,3.6H933.6z"/>
	<path d="M949.4,83.2c1,0,2,0,2.9-0.3s1.8-0.5,2.5-1c0.7-0.4,1.3-0.9,1.7-1.6s0.6-1.3,0.6-2.1c0-0.8-0.1-1.5-0.4-2
		c-0.3-0.5-0.6-1-1-1.4s-0.7-0.9-1-1.4c-0.3-0.5-0.4-1.1-0.4-2c0-0.4,0.1-0.8,0.2-1.3s0.4-0.9,0.7-1.2s0.7-0.7,1.2-0.9
		s1.1-0.4,1.8-0.4s1.3,0.1,2,0.4c0.6,0.3,1.2,0.7,1.7,1.3c0.5,0.6,0.9,1.3,1.1,2.2c0.3,0.9,0.4,1.9,0.4,3.1c0,1.6-0.3,3.2-0.9,4.7
		c-0.6,1.5-1.5,2.8-2.7,4c-1.2,1.2-2.7,2.1-4.4,2.8c-1.8,0.7-3.8,1-6.2,1V83.2z"/>
	<path d="M1037.6,66.8c0,1.8-0.4,3.4-1.1,4.8s-1.8,2.5-3.1,3.4s-2.9,1.6-4.8,2c-1.9,0.4-3.9,0.7-6.2,0.7c-1,0-2,0-3-0.1
		c-1-0.1-2-0.2-2.9-0.3c-0.9-0.1-1.8-0.3-2.6-0.4s-1.6-0.3-2.2-0.5v-5c1.5,0.5,3.1,1,4.9,1.3c1.8,0.3,3.9,0.5,6.2,0.5
		c1.7,0,3.1-0.1,4.3-0.4c1.2-0.3,2.1-0.7,2.9-1.2c0.8-0.5,1.3-1.1,1.6-1.9c0.3-0.7,0.5-1.6,0.5-2.5c0-1-0.3-1.9-0.9-2.7
		c-0.6-0.7-1.3-1.4-2.3-2s-2-1.1-3.2-1.6s-2.4-1-3.7-1.5s-2.5-1.1-3.7-1.7s-2.3-1.3-3.2-2.1s-1.7-1.8-2.3-2.9
		c-0.6-1.1-0.9-2.4-0.9-3.9c0-1.3,0.3-2.6,0.8-3.9s1.4-2.4,2.5-3.4s2.6-1.8,4.4-2.4c1.8-0.6,4-0.9,6.5-0.9c0.6,0,1.3,0,2.1,0.1
		c0.8,0.1,1.5,0.1,2.3,0.2c0.8,0.1,1.5,0.2,2.3,0.4c0.8,0.1,1.4,0.3,2.1,0.4v4.7c-1.5-0.4-3-0.8-4.5-1s-3-0.3-4.4-0.3
		c-3,0-5.2,0.5-6.6,1.5s-2.1,2.3-2.1,4c0,1,0.3,1.9,0.9,2.7c0.6,0.7,1.3,1.4,2.3,2s2,1.1,3.2,1.6s2.4,1,3.7,1.5s2.5,1.1,3.7,1.7
		s2.3,1.3,3.2,2.2s1.7,1.8,2.3,2.9C1037.3,64,1037.6,65.3,1037.6,66.8z"/>
	<path d="M1056.1,52h-8.7v-4.2h13.9V73h8.8v4.2h-23.6V73h9.7V52z M1057.9,35.5c0.6,0,1.1,0.1,1.6,0.3s0.9,0.5,1.3,0.9
		c0.4,0.4,0.6,0.8,0.8,1.3s0.3,1,0.3,1.6c0,0.5-0.1,1.1-0.3,1.6s-0.5,0.9-0.8,1.3c-0.4,0.4-0.8,0.7-1.3,0.9s-1,0.3-1.6,0.3
		s-1.1-0.1-1.6-0.3s-0.9-0.5-1.3-0.9c-0.4-0.4-0.6-0.8-0.8-1.3s-0.3-1-0.3-1.6c0-0.6,0.1-1.1,0.3-1.6s0.5-0.9,0.8-1.3
		c0.4-0.4,0.8-0.7,1.3-0.9S1057.3,35.5,1057.9,35.5z"/>
	<path d="M1102.9,77.2h-23.7v-3.7l16.6-21.5h-16.2v-4.3h22.3v4l-16.3,21.1h17.3V77.2z"/>
	<path d="M1136.9,60.9c0,0.7,0,1.3,0,1.8s0,0.9-0.1,1.4h-20.7c0,3,0.8,5.3,2.5,6.9s4.1,2.4,7.3,2.4c0.9,0,1.7,0,2.6-0.1
		s1.7-0.2,2.5-0.3s1.6-0.2,2.3-0.4s1.4-0.3,2-0.5v4.2c-1.4,0.4-3,0.7-4.7,1c-1.7,0.2-3.6,0.4-5.4,0.4c-2.5,0-4.7-0.3-6.5-1
		s-3.3-1.7-4.5-3c-1.2-1.3-2-2.9-2.6-4.8s-0.8-4-0.8-6.4c0-2.1,0.3-4,0.9-5.9c0.6-1.8,1.5-3.5,2.6-4.9s2.5-2.5,4.2-3.3
		s3.5-1.2,5.7-1.2c2.1,0,3.9,0.3,5.4,1s2.9,1.6,4,2.7s1.9,2.6,2.5,4.3S1136.9,58.9,1136.9,60.9z M1131.6,60.2
		c0.1-1.3-0.1-2.5-0.4-3.6s-0.8-2-1.4-2.8c-0.7-0.8-1.5-1.4-2.4-1.8s-2.1-0.7-3.4-0.7c-1.1,0-2.1,0.2-3,0.6s-1.7,1-2.4,1.8
		s-1.2,1.7-1.6,2.8s-0.7,2.3-0.8,3.6H1131.6z"/>
	<path d="M1146.5,48l3.2-3.3l19.7,16.4l-19.7,16.4l-3.2-3.2l16-13.2L1146.5,48z"/>
</g>
<rect x="6" y="297.2" class="st4" width="550.6" height="100"/>
<rect x="6" y="297.2" class="st2" width="550.6" height="100"/>
<g class="st3">
	<path d="M77.2,361.2h-5.7l-2.7-8.3H52.9l-2.7,8.3h-5.4l12.7-38.3h7.1L77.2,361.2z M67.4,348.2l-6.5-20.5l-6.5,20.5H67.4z"/>
	<path d="M83.4,331.8h4.7l0.1,5.4c1.7-2.1,3.5-3.6,5.1-4.5c1.7-0.9,3.4-1.4,5.1-1.4c3,0,5.4,1,6.9,3c1.6,2,2.3,4.9,2.2,8.8h-5.2
		c0.1-2.6-0.3-4.4-1.1-5.6c-0.8-1.2-2-1.7-3.6-1.7c-0.7,0-1.4,0.1-2.1,0.4c-0.7,0.2-1.4,0.6-2.1,1.2s-1.5,1.2-2.3,2.1
		s-1.7,1.9-2.6,3v18.9h-5.2V331.8z"/>
	<path d="M116.4,331.8h4.7l0.1,5.4c1.7-2.1,3.5-3.6,5.1-4.5c1.7-0.9,3.4-1.4,5.1-1.4c3,0,5.4,1,6.9,3c1.6,2,2.3,4.9,2.2,8.8h-5.2
		c0.1-2.6-0.3-4.4-1.1-5.6c-0.8-1.2-2-1.7-3.6-1.7c-0.7,0-1.4,0.1-2.1,0.4c-0.7,0.2-1.4,0.6-2.1,1.2s-1.5,1.2-2.3,2.1
		s-1.7,1.9-2.6,3v18.9h-5.2V331.8z"/>
	<path d="M167.1,361.2l-0.1-4c-1.6,1.6-3.2,2.7-4.9,3.4c-1.7,0.7-3.4,1.1-5.2,1.1c-1.7,0-3.1-0.2-4.3-0.6c-1.2-0.4-2.2-1-2.9-1.8
		c-0.8-0.8-1.3-1.6-1.7-2.7c-0.4-1-0.5-2.1-0.5-3.3c0-2.9,1.1-5.3,3.3-6.9s5.4-2.5,9.7-2.5h6.1v-2.6c0-1.7-0.6-3.1-1.7-4.2
		s-2.8-1.6-5.1-1.6c-1.7,0-3.3,0.2-4.9,0.6s-3.3,0.9-5,1.6v-4.6c0.6-0.2,1.4-0.5,2.2-0.7s1.6-0.4,2.5-0.6s1.8-0.3,2.8-0.4
		c1-0.1,1.9-0.2,2.9-0.2c1.8,0,3.4,0.2,4.8,0.6c1.4,0.4,2.6,1,3.6,1.8c1,0.8,1.7,1.8,2.3,3s0.8,2.6,0.8,4.3v20.3H167.1z
		 M166.5,347.8H160c-1.3,0-2.4,0.1-3.3,0.4c-0.9,0.3-1.7,0.6-2.3,1.1s-1,1-1.3,1.7c-0.3,0.7-0.4,1.4-0.4,2.2c0,0.6,0.1,1.1,0.3,1.6
		s0.5,1,0.8,1.4c0.4,0.4,0.9,0.7,1.5,1c0.6,0.2,1.4,0.4,2.3,0.4c1.2,0,2.5-0.4,4-1.1c1.5-0.7,3.1-1.8,4.8-3.4V347.8z"/>
	<path d="M207.3,331.8l-10,26.3c-1,2.7-2.1,5-3.2,6.9c-1.1,1.9-2.3,3.5-3.6,4.8c-1.3,1.2-2.7,2.2-4.3,2.7c-1.6,0.6-3.3,0.9-5.2,0.9
		c-0.5,0-1,0-1.4,0s-0.9,0-1.3-0.1v-4.6c0.4,0.1,0.9,0.1,1.4,0.2c0.5,0,1,0.1,1.6,0.1c0.9,0,1.8-0.1,2.6-0.4
		c0.8-0.3,1.6-0.7,2.3-1.3c0.7-0.6,1.4-1.4,2.1-2.4c0.7-1,1.3-2.2,1.9-3.5l-11.7-29.4h5.8l7.4,19.5l1.5,4.6l1.7-4.7l6.9-19.3H207.3z
		"/>
	<path d="M236.4,358.4l-3.2,3.2l-19.7-16.4l19.7-16.4l3.2,3.3l-16,13.1L236.4,358.4z"/>
</g>
<g class="st3">
	<path d="M273.2,325.9c-0.9-0.3-1.9-0.5-3.1-0.7c-1.2-0.2-2.4-0.3-3.6-0.3c-0.8,0-1.6,0.1-2.3,0.3c-0.7,0.2-1.3,0.6-1.9,1.1
		s-0.9,1.1-1.2,1.9c-0.3,0.8-0.5,1.7-0.5,2.7v4.8h11.7v5.6h-11.7v19.9h-7.2v-19.9h-8.6v-5.6h8.6v-4.5c0-2.1,0.3-3.9,0.9-5.4
		s1.5-2.8,2.6-3.7c1.1-1,2.5-1.7,4.1-2.1s3.3-0.7,5.3-0.7c1.3,0,2.5,0.1,3.7,0.2c1.2,0.2,2.2,0.4,3.2,0.6V325.9z"/>
	<path d="M289.1,325.4h-8.4v-5.6h15.7v35.8h8.6v5.6h-25.3v-5.6h9.4V325.4z"/>
	<path d="M339.3,346.1c0,2.3-0.3,4.5-1,6.4c-0.7,1.9-1.6,3.6-2.9,5c-1.2,1.4-2.8,2.5-4.6,3.2s-3.9,1.1-6.2,1.1c-2.2,0-4.2-0.3-5.9-1
		c-1.7-0.6-3.2-1.6-4.4-2.9c-1.2-1.3-2.1-2.9-2.8-4.8s-1-4.2-1-6.7c0-2.4,0.3-4.5,1-6.4s1.6-3.6,2.9-5s2.8-2.4,4.6-3.2
		s3.9-1.1,6.2-1.1c2.2,0,4.2,0.3,5.9,1c1.7,0.7,3.2,1.6,4.4,2.9c1.2,1.3,2.1,2.9,2.8,4.8C339,341.4,339.3,343.6,339.3,346.1z
		 M331.9,346.3c0-3.1-0.6-5.4-1.7-7c-1.2-1.6-2.9-2.3-5.1-2.3c-1.2,0-2.3,0.2-3.2,0.7s-1.6,1.2-2.2,2c-0.6,0.8-1,1.8-1.2,3
		s-0.4,2.3-0.4,3.6c0,3.1,0.6,5.4,1.9,7c1.2,1.6,3,2.4,5.1,2.4c1.2,0,2.2-0.2,3.1-0.7s1.6-1.1,2.1-2c0.5-0.8,1-1.9,1.2-3
		C331.7,348.8,331.9,347.6,331.9,346.3z"/>
	<path d="M364.1,361.2l-0.2-3.9c-0.6,0.7-1.3,1.3-2,1.8c-0.7,0.6-1.4,1-2.3,1.5s-1.7,0.7-2.7,1s-2,0.3-3.2,0.3c-1.5,0-2.9-0.2-4-0.7
		c-1.2-0.4-2.1-1.1-2.9-1.9c-0.8-0.8-1.4-1.8-1.8-2.9c-0.4-1.1-0.6-2.4-0.6-3.8c0-1.4,0.3-2.7,0.9-3.9c0.6-1.2,1.5-2.2,2.7-3.1
		c1.2-0.9,2.7-1.5,4.6-2c1.8-0.5,4-0.7,6.4-0.7h3.9v-1.8c0-0.8-0.1-1.5-0.3-2.1c-0.2-0.6-0.6-1.1-1-1.6c-0.5-0.4-1.1-0.8-1.9-1
		s-1.7-0.4-2.8-0.4c-1.8,0-3.5,0.2-5.2,0.6c-1.7,0.4-3.4,1-5,1.7v-5.7c1.4-0.6,3.1-1,4.9-1.4c1.9-0.4,3.8-0.6,5.8-0.6
		c2.2,0,4.1,0.2,5.7,0.6s2.9,1,3.9,1.9s1.8,1.9,2.3,3.1c0.5,1.3,0.7,2.7,0.7,4.4v20.3H364.1z M363.1,348h-4.4
		c-1.2,0-2.2,0.1-3.1,0.4c-0.8,0.2-1.5,0.6-2.1,1s-0.9,0.9-1.2,1.4c-0.2,0.5-0.4,1.1-0.4,1.7c0,1.2,0.4,2.1,1.2,2.8
		c0.8,0.6,1.8,1,3.2,1c1,0,2-0.4,3.1-1.1c1.1-0.7,2.3-1.8,3.5-3.1V348z"/>
	<path d="M403,360.9c-1.3,0.3-2.6,0.5-3.9,0.7c-1.3,0.2-2.5,0.3-3.7,0.3c-2,0-3.6-0.2-5.1-0.6c-1.4-0.4-2.6-1-3.5-1.9
		c-0.9-0.8-1.6-1.9-2.1-3.2s-0.7-2.8-0.7-4.6V337h-8v-5.6h8v-7.6l7.3-1.9v9.5H403v5.6h-11.6v14c0,1.7,0.4,3,1.2,3.9
		c0.8,0.9,2.1,1.3,3.9,1.3c1.2,0,2.3-0.1,3.4-0.3s2.1-0.4,3-0.7V360.9z"/>
</g>
<g class="st3">
	<path d="M414.4,367.2c1,0,2,0,2.9-0.3s1.8-0.5,2.5-1c0.7-0.4,1.3-0.9,1.7-1.6c0.4-0.6,0.6-1.3,0.6-2.1c0-0.8-0.1-1.5-0.4-2
		c-0.3-0.5-0.6-1-1-1.4s-0.7-0.9-1-1.4c-0.3-0.5-0.4-1.1-0.4-2c0-0.4,0.1-0.8,0.2-1.3c0.2-0.4,0.4-0.9,0.7-1.2s0.7-0.7,1.2-0.9
		s1.1-0.4,1.8-0.4c0.7,0,1.3,0.1,2,0.4c0.6,0.3,1.2,0.7,1.7,1.3c0.5,0.6,0.9,1.3,1.1,2.2c0.3,0.9,0.4,1.9,0.4,3.1
		c0,1.6-0.3,3.2-0.9,4.7c-0.6,1.5-1.5,2.8-2.7,4c-1.2,1.2-2.7,2.1-4.4,2.8c-1.8,0.7-3.8,1-6.2,1V367.2z"/>
	<path d="M504.8,352.7h-6.5v8.5h-5.2v-8.5h-18.4v-4.5l16.3-25.3h7.3v25.3h6.5V352.7z M493.1,327.8l-13.3,20.4h13.3V327.8z"/>
	<path d="M512.5,332l3.2-3.3l19.7,16.4l-19.7,16.4l-3.2-3.2l16-13.2L512.5,332z"/>
</g>
<rect x="582.6" y="297.2" class="st5" width="550.6" height="100"/>
<rect x="582.6" y="297.2" class="st2" width="550.6" height="100"/>
<g class="st3">
	<path d="M654.2,361.2h-5.7l-2.7-8.3h-15.9l-2.7,8.3h-5.4l12.7-38.3h7.1L654.2,361.2z M644.4,348.2l-6.5-20.5l-6.5,20.5H644.4z"/>
	<path d="M660.4,331.8h4.7l0.1,5.4c1.7-2.1,3.5-3.6,5.1-4.5c1.7-0.9,3.4-1.4,5.1-1.4c3,0,5.4,1,6.9,3c1.6,2,2.3,4.9,2.2,8.8h-5.2
		c0.1-2.6-0.3-4.4-1.1-5.6c-0.8-1.2-2-1.7-3.6-1.7c-0.7,0-1.4,0.1-2.1,0.4c-0.7,0.2-1.4,0.6-2.1,1.2s-1.5,1.2-2.3,2.1
		s-1.7,1.9-2.6,3v18.9h-5.2V331.8z"/>
	<path d="M693.4,331.8h4.7l0.1,5.4c1.7-2.1,3.5-3.6,5.1-4.5c1.7-0.9,3.4-1.4,5.1-1.4c3,0,5.4,1,6.9,3c1.6,2,2.3,4.9,2.2,8.8h-5.2
		c0.1-2.6-0.3-4.4-1.1-5.6c-0.8-1.2-2-1.7-3.6-1.7c-0.7,0-1.4,0.1-2.1,0.4c-0.7,0.2-1.4,0.6-2.1,1.2s-1.5,1.2-2.3,2.1
		s-1.7,1.9-2.6,3v18.9h-5.2V331.8z"/>
	<path d="M744.1,361.2l-0.1-4c-1.6,1.6-3.2,2.7-4.9,3.4c-1.7,0.7-3.4,1.1-5.2,1.1c-1.7,0-3.1-0.2-4.3-0.6c-1.2-0.4-2.2-1-2.9-1.8
		c-0.8-0.8-1.3-1.6-1.7-2.7c-0.4-1-0.5-2.1-0.5-3.3c0-2.9,1.1-5.3,3.3-6.9s5.4-2.5,9.7-2.5h6.1v-2.6c0-1.7-0.6-3.1-1.7-4.2
		s-2.8-1.6-5.1-1.6c-1.7,0-3.3,0.2-4.9,0.6s-3.3,0.9-5,1.6v-4.6c0.6-0.2,1.4-0.5,2.2-0.7s1.6-0.4,2.5-0.6s1.8-0.3,2.8-0.4
		c1-0.1,1.9-0.2,2.9-0.2c1.8,0,3.4,0.2,4.8,0.6c1.4,0.4,2.6,1,3.6,1.8c1,0.8,1.7,1.8,2.3,3s0.8,2.6,0.8,4.3v20.3H744.1z
		 M743.5,347.8H737c-1.3,0-2.4,0.1-3.3,0.4c-0.9,0.3-1.7,0.6-2.3,1.1s-1,1-1.3,1.7c-0.3,0.7-0.4,1.4-0.4,2.2c0,0.6,0.1,1.1,0.3,1.6
		s0.5,1,0.8,1.4c0.4,0.4,0.9,0.7,1.5,1c0.6,0.2,1.4,0.4,2.3,0.4c1.2,0,2.5-0.4,4-1.1c1.5-0.7,3.1-1.8,4.8-3.4V347.8z"/>
	<path d="M784.3,331.8l-10,26.3c-1,2.7-2.1,5-3.2,6.9c-1.1,1.9-2.3,3.5-3.6,4.8c-1.3,1.2-2.7,2.2-4.3,2.7c-1.6,0.6-3.3,0.9-5.2,0.9
		c-0.5,0-1,0-1.4,0s-0.9,0-1.3-0.1v-4.6c0.4,0.1,0.9,0.1,1.4,0.2c0.5,0,1,0.1,1.6,0.1c0.9,0,1.8-0.1,2.6-0.4
		c0.8-0.3,1.6-0.7,2.3-1.3c0.7-0.6,1.4-1.4,2.1-2.4c0.7-1,1.3-2.2,1.9-3.5l-11.7-29.4h5.8l7.4,19.5l1.5,4.6l1.7-4.7l6.9-19.3H784.3z
		"/>
	<path d="M813.4,358.4l-3.2,3.2l-19.7-16.4l19.7-16.4l3.2,3.3l-16,13.1L813.4,358.4z"/>
</g>
<g class="st3">
	<path d="M850.2,325.9c-0.9-0.3-1.9-0.5-3.1-0.7c-1.2-0.2-2.4-0.3-3.6-0.3c-0.8,0-1.6,0.1-2.3,0.3c-0.7,0.2-1.3,0.6-1.9,1.1
		s-0.9,1.1-1.2,1.9c-0.3,0.8-0.5,1.7-0.5,2.7v4.8h11.7v5.6h-11.7v19.9h-7.2v-19.9h-8.6v-5.6h8.6v-4.5c0-2.1,0.3-3.9,0.9-5.4
		s1.5-2.8,2.6-3.7c1.1-1,2.5-1.7,4.1-2.1s3.3-0.7,5.3-0.7c1.3,0,2.5,0.1,3.7,0.2c1.2,0.2,2.2,0.4,3.2,0.6V325.9z"/>
	<path d="M866.1,325.4h-8.4v-5.6h15.7v35.8h8.6v5.6h-25.3v-5.6h9.4V325.4z"/>
	<path d="M916.3,346.1c0,2.3-0.3,4.5-1,6.4c-0.7,1.9-1.6,3.6-2.9,5c-1.2,1.4-2.8,2.5-4.6,3.2s-3.9,1.1-6.2,1.1c-2.2,0-4.2-0.3-5.9-1
		c-1.7-0.6-3.2-1.6-4.4-2.9c-1.2-1.3-2.1-2.9-2.8-4.8s-1-4.2-1-6.7c0-2.4,0.3-4.5,1-6.4s1.6-3.6,2.9-5s2.8-2.4,4.6-3.2
		s3.9-1.1,6.2-1.1c2.2,0,4.2,0.3,5.9,1c1.7,0.7,3.2,1.6,4.4,2.9c1.2,1.3,2.1,2.9,2.8,4.8C916,341.4,916.3,343.6,916.3,346.1z
		 M908.9,346.3c0-3.1-0.6-5.4-1.7-7c-1.2-1.6-2.9-2.3-5.1-2.3c-1.2,0-2.3,0.2-3.2,0.7s-1.6,1.2-2.2,2c-0.6,0.8-1,1.8-1.2,3
		s-0.4,2.3-0.4,3.6c0,3.1,0.6,5.4,1.9,7c1.2,1.6,3,2.4,5.1,2.4c1.2,0,2.2-0.2,3.1-0.7s1.6-1.1,2.1-2c0.5-0.8,1-1.9,1.2-3
		C908.7,348.8,908.9,347.6,908.9,346.3z"/>
	<path d="M941.1,361.2l-0.2-3.9c-0.6,0.7-1.3,1.3-2,1.8c-0.7,0.6-1.4,1-2.3,1.5s-1.7,0.7-2.7,1s-2,0.3-3.2,0.3c-1.5,0-2.9-0.2-4-0.7
		c-1.2-0.4-2.1-1.1-2.9-1.9c-0.8-0.8-1.4-1.8-1.8-2.9c-0.4-1.1-0.6-2.4-0.6-3.8c0-1.4,0.3-2.7,0.9-3.9c0.6-1.2,1.5-2.2,2.7-3.1
		c1.2-0.9,2.7-1.5,4.6-2c1.8-0.5,4-0.7,6.4-0.7h3.9v-1.8c0-0.8-0.1-1.5-0.3-2.1c-0.2-0.6-0.6-1.1-1-1.6c-0.5-0.4-1.1-0.8-1.9-1
		s-1.7-0.4-2.8-0.4c-1.8,0-3.5,0.2-5.2,0.6c-1.7,0.4-3.4,1-5,1.7v-5.7c1.4-0.6,3.1-1,4.9-1.4c1.9-0.4,3.8-0.6,5.8-0.6
		c2.2,0,4.1,0.2,5.7,0.6s2.9,1,3.9,1.9s1.8,1.9,2.3,3.1c0.5,1.3,0.7,2.7,0.7,4.4v20.3H941.1z M940.1,348h-4.4
		c-1.2,0-2.2,0.1-3.1,0.4c-0.8,0.2-1.5,0.6-2.1,1s-0.9,0.9-1.2,1.4c-0.2,0.5-0.4,1.1-0.4,1.7c0,1.2,0.4,2.1,1.2,2.8
		c0.8,0.6,1.8,1,3.2,1c1,0,2-0.4,3.1-1.1c1.1-0.7,2.3-1.8,3.5-3.1V348z"/>
	<path d="M980,360.9c-1.3,0.3-2.6,0.5-3.9,0.7c-1.3,0.2-2.5,0.3-3.7,0.3c-2,0-3.6-0.2-5.1-0.6c-1.4-0.4-2.6-1-3.5-1.9
		c-0.9-0.8-1.6-1.9-2.1-3.2s-0.7-2.8-0.7-4.6V337h-8v-5.6h8v-7.6l7.3-1.9v9.5H980v5.6h-11.6v14c0,1.7,0.4,3,1.2,3.9
		c0.8,0.9,2.1,1.3,3.9,1.3c1.2,0,2.3-0.1,3.4-0.3s2.1-0.4,3-0.7V360.9z"/>
</g>
<g class="st3">
	<path d="M991.4,367.2c1,0,2,0,2.9-0.3s1.8-0.5,2.5-1s1.3-0.9,1.7-1.6s0.6-1.3,0.6-2.1c0-0.8-0.1-1.5-0.4-2s-0.6-1-1-1.4
		s-0.7-0.9-1-1.4s-0.4-1.1-0.4-2c0-0.4,0.1-0.8,0.2-1.3s0.4-0.9,0.7-1.2s0.7-0.7,1.2-0.9s1.1-0.4,1.8-0.4s1.3,0.1,2,0.4
		s1.2,0.7,1.7,1.3s0.9,1.3,1.1,2.2s0.4,1.9,0.4,3.1c0,1.6-0.3,3.2-0.9,4.7s-1.5,2.8-2.7,4s-2.7,2.1-4.4,2.8s-3.8,1-6.2,1V367.2z"/>
	<path d="M1079.9,351.6c0,1.6-0.3,3.1-1,4.3s-1.6,2.3-2.8,3.2s-2.6,1.5-4.2,2s-3.4,0.7-5.3,0.7c-2.1,0-3.9-0.2-5.5-0.7s-2.9-1.1-4-2
		s-1.9-1.8-2.4-3s-0.8-2.4-0.8-3.8c0-2.3,0.7-4.4,2-6.1s3.3-3.2,6.1-4.6c-2.5-1.3-4.3-2.7-5.5-4.2s-1.7-3.3-1.7-5.3
		c0-1.2,0.3-2.4,0.8-3.6s1.3-2.2,2.3-3.1s2.3-1.6,3.9-2.2s3.4-0.8,5.4-0.8c2,0,3.7,0.2,5.2,0.6s2.7,1,3.8,1.8s1.8,1.7,2.3,2.8
		s0.8,2.4,0.8,3.7c0,2.2-0.6,4.1-1.9,5.7s-3,2.9-5.3,4.1c1.1,0.6,2.2,1.2,3.2,1.9s1.8,1.4,2.5,2.3s1.3,1.8,1.7,2.8
		S1079.9,350.3,1079.9,351.6z M1074.4,352c0-0.7-0.1-1.4-0.4-2.1s-0.7-1.4-1.3-2s-1.4-1.3-2.4-2s-2.3-1.3-3.9-2.1
		c-1.3,0.6-2.4,1.3-3.4,1.9s-1.6,1.3-2.2,1.9s-1,1.3-1.2,2s-0.4,1.4-0.4,2.2c0,0.9,0.2,1.7,0.6,2.3s0.9,1.2,1.6,1.7s1.5,0.8,2.4,1.1
		s1.9,0.4,3,0.4c1,0,2-0.1,2.9-0.3s1.7-0.5,2.4-1s1.2-1,1.6-1.7S1074.4,352.9,1074.4,352z M1073.8,331.8c0-1.7-0.6-3-1.8-3.9
		s-2.9-1.3-5.1-1.3c-2.2,0-3.9,0.4-5.1,1.3s-1.8,2.1-1.8,3.8c0,0.8,0.1,1.5,0.4,2.1s0.7,1.2,1.4,1.8s1.4,1.1,2.3,1.7s2,1.1,3.3,1.7
		c2.2-1,3.8-2.1,4.9-3.2S1073.8,333.3,1073.8,331.8z"/>
	<path d="M1089.5,332l3.2-3.3l19.7,16.4l-19.7,16.4l-3.2-3.2l16-13.2L1089.5,332z"/>
</g>
<line class="st0" x1="263.8" y1="205.2" x2="1451.9" y2="205.2"/>
<line class="st0" x1="1450.7" y1="342.5" x2="1450.7" y2="203.2"/>
<rect x="1159.1" y="297.2" class="st6" width="579.2" height="100"/>
<rect x="1159.1" y="297.2" class="st2" width="579.2" height="100"/>
<g class="st3">
	<path d="M1231.2,361.2h-5.7l-2.7-8.3h-15.9l-2.7,8.3h-5.4l12.7-38.3h7.1L1231.2,361.2z M1221.4,348.2l-6.5-20.5l-6.5,20.5H1221.4z"
		/>
	<path d="M1237.4,331.8h4.7l0.1,5.4c1.7-2.1,3.5-3.6,5.1-4.5c1.7-0.9,3.4-1.4,5.1-1.4c3,0,5.4,1,6.9,3c1.6,2,2.3,4.9,2.2,8.8h-5.2
		c0.1-2.6-0.3-4.4-1.1-5.6c-0.8-1.2-2-1.7-3.6-1.7c-0.7,0-1.4,0.1-2.1,0.4c-0.7,0.2-1.4,0.6-2.1,1.2s-1.5,1.2-2.3,2.1
		s-1.7,1.9-2.6,3v18.9h-5.2V331.8z"/>
	<path d="M1270.4,331.8h4.7l0.1,5.4c1.7-2.1,3.5-3.6,5.1-4.5c1.7-0.9,3.4-1.4,5.1-1.4c3,0,5.4,1,6.9,3c1.6,2,2.3,4.9,2.2,8.8h-5.2
		c0.1-2.6-0.3-4.4-1.1-5.6c-0.8-1.2-2-1.7-3.6-1.7c-0.7,0-1.4,0.1-2.1,0.4c-0.7,0.2-1.4,0.6-2.1,1.2s-1.5,1.2-2.3,2.1
		s-1.7,1.9-2.6,3v18.9h-5.2V331.8z"/>
	<path d="M1321.1,361.2l-0.1-4c-1.6,1.6-3.2,2.7-4.9,3.4c-1.7,0.7-3.4,1.1-5.2,1.1c-1.7,0-3.1-0.2-4.3-0.6s-2.2-1-2.9-1.8
		c-0.8-0.8-1.3-1.6-1.7-2.7c-0.4-1-0.5-2.1-0.5-3.3c0-2.9,1.1-5.3,3.3-6.9s5.4-2.5,9.7-2.5h6.1v-2.6c0-1.7-0.6-3.1-1.7-4.2
		s-2.8-1.6-5.1-1.6c-1.7,0-3.3,0.2-4.9,0.6s-3.3,0.9-5,1.6v-4.6c0.6-0.2,1.4-0.5,2.2-0.7s1.6-0.4,2.5-0.6s1.8-0.3,2.8-0.4
		s1.9-0.2,2.9-0.2c1.8,0,3.4,0.2,4.8,0.6s2.6,1,3.6,1.8c1,0.8,1.7,1.8,2.3,3s0.8,2.6,0.8,4.3v20.3H1321.1z M1320.5,347.8h-6.5
		c-1.3,0-2.4,0.1-3.3,0.4s-1.7,0.6-2.3,1.1s-1,1-1.3,1.7c-0.3,0.7-0.4,1.4-0.4,2.2c0,0.6,0.1,1.1,0.3,1.6s0.5,1,0.8,1.4
		s0.9,0.7,1.5,1s1.4,0.4,2.3,0.4c1.2,0,2.5-0.4,4-1.1c1.5-0.7,3.1-1.8,4.8-3.4V347.8z"/>
	<path d="M1361.3,331.8l-10,26.3c-1,2.7-2.1,5-3.2,6.9c-1.1,1.9-2.3,3.5-3.6,4.8s-2.7,2.2-4.3,2.7s-3.3,0.9-5.2,0.9
		c-0.5,0-1,0-1.4,0s-0.9,0-1.3-0.1v-4.6c0.4,0.1,0.9,0.1,1.4,0.2s1,0.1,1.6,0.1c0.9,0,1.8-0.1,2.6-0.4c0.8-0.3,1.6-0.7,2.3-1.3
		s1.4-1.4,2.1-2.4s1.3-2.2,1.9-3.5l-11.7-29.4h5.8l7.4,19.5l1.5,4.6l1.7-4.7l6.9-19.3H1361.3z"/>
	<path d="M1390.4,358.4l-3.2,3.2l-19.7-16.4l19.7-16.4l3.2,3.3l-16,13.1L1390.4,358.4z"/>
</g>
<g class="st3">
	<path d="M1427.2,325.9c-0.9-0.3-1.9-0.5-3.1-0.7c-1.2-0.2-2.4-0.3-3.6-0.3c-0.8,0-1.6,0.1-2.3,0.3c-0.7,0.2-1.3,0.6-1.9,1.1
		s-0.9,1.1-1.2,1.9c-0.3,0.8-0.5,1.7-0.5,2.7v4.8h11.7v5.6h-11.7v19.9h-7.2v-19.9h-8.6v-5.6h8.6v-4.5c0-2.1,0.3-3.9,0.9-5.4
		s1.5-2.8,2.6-3.7c1.1-1,2.5-1.7,4.1-2.1s3.3-0.7,5.3-0.7c1.3,0,2.5,0.1,3.7,0.2c1.2,0.2,2.2,0.4,3.2,0.6V325.9z"/>
	<path d="M1443.1,325.4h-8.4v-5.6h15.7v35.8h8.6v5.6h-25.3v-5.6h9.4V325.4z"/>
	<path d="M1493.3,346.1c0,2.3-0.3,4.5-1,6.4c-0.7,1.9-1.6,3.6-2.9,5c-1.2,1.4-2.8,2.5-4.6,3.2s-3.9,1.1-6.2,1.1
		c-2.2,0-4.2-0.3-5.9-1c-1.7-0.6-3.2-1.6-4.4-2.9c-1.2-1.3-2.1-2.9-2.8-4.8s-1-4.2-1-6.7c0-2.4,0.3-4.5,1-6.4s1.6-3.6,2.9-5
		s2.8-2.4,4.6-3.2s3.9-1.1,6.2-1.1c2.2,0,4.2,0.3,5.9,1c1.7,0.7,3.2,1.6,4.4,2.9c1.2,1.3,2.1,2.9,2.8,4.8
		C1493,341.4,1493.3,343.6,1493.3,346.1z M1485.9,346.3c0-3.1-0.6-5.4-1.7-7c-1.2-1.6-2.9-2.3-5.1-2.3c-1.2,0-2.3,0.2-3.2,0.7
		s-1.6,1.2-2.2,2c-0.6,0.8-1,1.8-1.2,3s-0.4,2.3-0.4,3.6c0,3.1,0.6,5.4,1.9,7c1.2,1.6,3,2.4,5.1,2.4c1.2,0,2.2-0.2,3.1-0.7
		s1.6-1.1,2.1-2c0.5-0.8,1-1.9,1.2-3C1485.7,348.8,1485.9,347.6,1485.9,346.3z"/>
	<path d="M1518.1,361.2l-0.2-3.9c-0.6,0.7-1.3,1.3-2,1.8c-0.7,0.6-1.4,1-2.3,1.5s-1.7,0.7-2.7,1s-2,0.3-3.2,0.3
		c-1.5,0-2.9-0.2-4-0.7c-1.2-0.4-2.1-1.1-2.9-1.9c-0.8-0.8-1.4-1.8-1.8-2.9c-0.4-1.1-0.6-2.4-0.6-3.8c0-1.4,0.3-2.7,0.9-3.9
		c0.6-1.2,1.5-2.2,2.7-3.1c1.2-0.9,2.7-1.5,4.6-2c1.8-0.5,4-0.7,6.4-0.7h3.9v-1.8c0-0.8-0.1-1.5-0.3-2.1c-0.2-0.6-0.6-1.1-1-1.6
		c-0.5-0.4-1.1-0.8-1.9-1s-1.7-0.4-2.8-0.4c-1.8,0-3.5,0.2-5.2,0.6c-1.7,0.4-3.4,1-5,1.7v-5.7c1.4-0.6,3.1-1,4.9-1.4
		c1.9-0.4,3.8-0.6,5.8-0.6c2.2,0,4.1,0.2,5.7,0.6s2.9,1,3.9,1.9s1.8,1.9,2.3,3.1c0.5,1.3,0.7,2.7,0.7,4.4v20.3H1518.1z M1517.1,348
		h-4.4c-1.2,0-2.2,0.1-3.1,0.4c-0.8,0.2-1.5,0.6-2.1,1s-0.9,0.9-1.2,1.4c-0.2,0.5-0.4,1.1-0.4,1.7c0,1.2,0.4,2.1,1.2,2.8
		c0.8,0.6,1.8,1,3.2,1c1,0,2-0.4,3.1-1.1c1.1-0.7,2.3-1.8,3.5-3.1V348z"/>
	<path d="M1557,360.9c-1.3,0.3-2.6,0.5-3.9,0.7c-1.3,0.2-2.5,0.3-3.7,0.3c-2,0-3.6-0.2-5.1-0.6c-1.4-0.4-2.6-1-3.5-1.9
		c-0.9-0.8-1.6-1.9-2.1-3.2s-0.7-2.8-0.7-4.6V337h-8v-5.6h8v-7.6l7.3-1.9v9.5h11.6v5.6h-11.6v14c0,1.7,0.4,3,1.2,3.9
		c0.8,0.9,2.1,1.3,3.9,1.3c1.2,0,2.3-0.1,3.4-0.3s2.1-0.4,3-0.7V360.9z"/>
</g>
<g class="st3">
	<path d="M1568.4,367.2c1,0,2,0,2.9-0.3s1.8-0.5,2.5-1s1.3-0.9,1.7-1.6s0.6-1.3,0.6-2.1c0-0.8-0.1-1.5-0.4-2s-0.6-1-1-1.4
		s-0.7-0.9-1-1.4s-0.4-1.1-0.4-2c0-0.4,0.1-0.8,0.2-1.3s0.4-0.9,0.7-1.2s0.7-0.7,1.2-0.9s1.1-0.4,1.8-0.4s1.3,0.1,2,0.4
		s1.2,0.7,1.7,1.3s0.9,1.3,1.1,2.2s0.4,1.9,0.4,3.1c0,1.6-0.3,3.2-0.9,4.7s-1.5,2.8-2.7,4s-2.7,2.1-4.4,2.8s-3.8,1-6.2,1V367.2z"/>
	<path d="M1656.6,361.2h-24.1v-4.7h9.8v-27.9l-9.2,5l-1.9-4.3l12.2-6.4h4.5v33.7h8.6V361.2z"/>
	<path d="M1690.4,349.1c0,1.8-0.3,3.4-1,5s-1.5,2.9-2.7,4s-2.6,2-4.2,2.7s-3.5,1-5.5,1c-2.1,0-4-0.3-5.6-1s-3-1.7-4.1-3.1
		s-1.9-3.2-2.5-5.3s-0.8-4.6-0.8-7.6c0-2,0.1-3.8,0.4-5.7s0.7-3.6,1.3-5.2s1.4-3.1,2.3-4.5s2.2-2.5,3.6-3.5s3.2-1.7,5.1-2.3
		s4.3-0.8,6.9-0.8h3.8v4.5h-4.1c-2.3,0-4.3,0.3-5.9,0.8s-3.1,1.3-4.2,2.3s-2,2.2-2.6,3.6s-1,3-1.1,4.7l-0.1,1.2
		c1.2-0.7,2.7-1.3,4.3-1.7s3.4-0.7,5.2-0.7c1.9,0,3.6,0.3,5.1,0.8s2.7,1.4,3.6,2.4s1.7,2.2,2.2,3.6S1690.4,347.4,1690.4,349.1z
		 M1685,349.4c0-1.2-0.1-2.2-0.4-3.2s-0.7-1.7-1.3-2.4s-1.4-1.2-2.3-1.5s-2-0.5-3.3-0.5c-0.7,0-1.5,0.1-2.3,0.2s-1.5,0.3-2.2,0.6
		s-1.4,0.5-2.1,0.8s-1.3,0.6-1.8,1c0,2.5,0.2,4.6,0.5,6.3s0.9,3,1.6,4.1s1.5,1.7,2.6,2.2s2.2,0.6,3.5,0.6c1.1,0,2.1-0.2,3.1-0.5
		s1.7-0.9,2.4-1.6s1.2-1.6,1.6-2.6S1685,350.7,1685,349.4z"/>
	<path d="M1699.5,332l3.2-3.3l19.7,16.4l-19.7,16.4l-3.2-3.2l16-13.2L1699.5,332z"/>
</g>
<g class="st3">
	<path d="M219,436c-0.7-0.9-1.6-1.6-2.8-2.1c-1.1-0.5-2.2-0.8-3.3-0.8c-0.5,0-1.1,0-1.7,0.1c-0.6,0.1-1.1,0.3-1.5,0.6
		c-0.4,0.3-0.8,0.6-1.1,1.1c-0.3,0.4-0.5,1-0.5,1.7c0,0.6,0.1,1.1,0.4,1.4c0.2,0.4,0.6,0.7,1.1,1s1,0.6,1.7,0.8
		c0.6,0.2,1.4,0.5,2.2,0.7c1.2,0.4,2.4,0.8,3.6,1.3c1.2,0.5,2.4,1.1,3.4,1.8c1,0.8,1.9,1.7,2.5,2.9s1,2.6,1,4.2c0,2-0.4,3.6-1.1,5.1
		c-0.7,1.4-1.7,2.6-2.9,3.5c-1.2,0.9-2.6,1.6-4.2,2.1c-1.6,0.4-3.2,0.7-4.8,0.7c-2.4,0-4.8-0.4-7.1-1.3c-2.3-0.8-4.2-2.1-5.7-3.6
		l5.4-5.5c0.8,1,1.9,1.9,3.3,2.6c1.4,0.7,2.7,1,4.1,1c0.6,0,1.2-0.1,1.8-0.2c0.6-0.1,1.1-0.3,1.5-0.6s0.8-0.7,1-1.2
		c0.3-0.5,0.4-1.1,0.4-1.7c0-0.6-0.2-1.2-0.5-1.6c-0.3-0.4-0.8-0.9-1.4-1.2c-0.6-0.4-1.3-0.7-2.2-1c-0.9-0.3-1.9-0.6-3-1
		c-1.1-0.4-2.2-0.8-3.2-1.2c-1-0.5-2-1.1-2.8-1.8c-0.8-0.8-1.5-1.7-2-2.7c-0.5-1.1-0.7-2.4-0.7-3.9c0-1.9,0.4-3.5,1.2-4.8
		c0.8-1.3,1.8-2.4,3-3.3c1.2-0.9,2.7-1.5,4.2-1.9c1.6-0.4,3.2-0.6,4.8-0.6c1.9,0,3.9,0.4,5.9,1.1c2,0.7,3.8,1.7,5.3,3.1L219,436z"/>
	<path d="M247.4,436c-0.7-0.9-1.6-1.6-2.8-2.1c-1.1-0.5-2.2-0.8-3.3-0.8c-0.5,0-1.1,0-1.7,0.1c-0.6,0.1-1.1,0.3-1.5,0.6
		c-0.4,0.3-0.8,0.6-1.1,1.1c-0.3,0.4-0.5,1-0.5,1.7c0,0.6,0.1,1.1,0.4,1.4c0.2,0.4,0.6,0.7,1.1,1s1,0.6,1.7,0.8
		c0.6,0.2,1.4,0.5,2.2,0.7c1.2,0.4,2.4,0.8,3.6,1.3c1.2,0.5,2.4,1.1,3.4,1.8c1,0.8,1.9,1.7,2.5,2.9s1,2.6,1,4.2c0,2-0.4,3.6-1.1,5.1
		c-0.7,1.4-1.7,2.6-2.9,3.5c-1.2,0.9-2.6,1.6-4.2,2.1c-1.6,0.4-3.2,0.7-4.8,0.7c-2.4,0-4.8-0.4-7.1-1.3c-2.3-0.8-4.2-2.1-5.7-3.6
		l5.4-5.5c0.8,1,1.9,1.9,3.3,2.6c1.4,0.7,2.7,1,4.1,1c0.6,0,1.2-0.1,1.8-0.2c0.6-0.1,1.1-0.3,1.5-0.6s0.8-0.7,1-1.2
		c0.3-0.5,0.4-1.1,0.4-1.7c0-0.6-0.2-1.2-0.5-1.6c-0.3-0.4-0.8-0.9-1.4-1.2c-0.6-0.4-1.3-0.7-2.2-1c-0.9-0.3-1.9-0.6-3-1
		c-1.1-0.4-2.2-0.8-3.2-1.2c-1-0.5-2-1.1-2.8-1.8c-0.8-0.8-1.5-1.7-2-2.7c-0.5-1.1-0.7-2.4-0.7-3.9c0-1.9,0.4-3.5,1.2-4.8
		c0.8-1.3,1.8-2.4,3-3.3c1.2-0.9,2.7-1.5,4.2-1.9c1.6-0.4,3.2-0.6,4.8-0.6c1.9,0,3.9,0.4,5.9,1.1c2,0.7,3.8,1.7,5.3,3.1L247.4,436z"
		/>
	<path d="M257.8,461.2v-34h22.8v6.9h-14.9v6.4h14.1v6.6h-14.1v7.1h15.8v7H257.8z"/>
	<path d="M320.2,454.6v6.6h-7.5v-6.6h-16v-6.8l13.8-20.6h9.6V448h4.7v6.5H320.2z M312.7,435.5h-0.1l-8.1,12.6h8.2V435.5z"/>
	<path d="M338.5,457c0,1.3-0.5,2.5-1.4,3.4s-2.1,1.3-3.4,1.3c-0.7,0-1.3-0.1-1.9-0.4c-0.6-0.2-1.1-0.6-1.6-1
		c-0.4-0.4-0.8-0.9-1.1-1.5c-0.3-0.6-0.4-1.2-0.4-1.8c0-0.6,0.1-1.2,0.4-1.8c0.3-0.6,0.6-1.1,1.1-1.5c0.4-0.4,1-0.8,1.6-1
		c0.6-0.3,1.2-0.4,1.9-0.4c1.3,0,2.4,0.4,3.4,1.3C338,454.5,338.5,455.6,338.5,457z"/>
	<path d="M344.1,461.2v-6.7l13.2-12c0.8-0.8,1.5-1.6,2-2.4c0.5-0.8,0.8-1.8,0.8-2.8c0-1.2-0.4-2.2-1.2-2.9s-1.8-1.1-3.1-1.1
		c-1.3,0-2.4,0.5-3.3,1.4c-0.8,0.9-1.4,2.2-1.5,3.7l-7.7-1.1c0.2-1.7,0.7-3.3,1.4-4.6c0.8-1.3,1.7-2.5,2.9-3.5c1.2-1,2.5-1.7,4-2.2
		c1.5-0.5,3.1-0.8,4.7-0.8c1.6,0,3.1,0.2,4.6,0.6c1.5,0.4,2.8,1.1,3.9,1.9c1.2,0.9,2.1,2,2.8,3.3c0.7,1.3,1,2.8,1,4.6
		c0,1.2-0.2,2.3-0.5,3.3c-0.3,1-0.8,1.9-1.3,2.7c-0.6,0.8-1.2,1.6-1.9,2.3c-0.7,0.7-1.5,1.4-2.2,2.1l-7.9,7h13.9v7H344.1z"/>
</g>
<g class="st3">
	<path d="M837.5,461.2l-2.6-6.7h-13.2l-2.5,6.7h-8.9l14.3-34h8l14.1,34H837.5z M828.4,436.3l-4.3,11.7h8.5L828.4,436.3z"/>
</g>
<g class="st3">
	<path d="M862.5,461.2h-8.2l-12.9-34h9.2l7.9,24.1h0.2l7.8-24.1h9.1L862.5,461.2z"/>
	<path d="M898.9,461.2l-7.4-12l-7.2,12h-9.8l11.9-18l-10.9-16h9.9l6.3,10.6l6.2-10.6h9.6l-10.8,16l12.3,18H898.9z"/>
</g>
<g class="st3">
	<path d="M1384.5,461.2l-2.6-6.7h-13.2l-2.5,6.7h-8.9l14.3-34h8l14.1,34H1384.5z M1375.4,436.3L1371,448h8.5L1375.4,436.3z"/>
</g>
<g class="st3">
	<path d="M1409.5,461.2h-8.2l-12.9-34h9.2l7.9,24.1h0.2l7.8-24.1h9.1L1409.5,461.2z"/>
	<path d="M1445.9,461.2l-7.4-12l-7.2,12h-9.8l11.9-18l-10.9-16h9.9l6.3,10.6l6.2-10.6h9.6l-10.8,16l12.3,18H1445.9z"/>
	<path d="M1483.6,450c0,2.1-0.4,3.9-1.1,5.4c-0.7,1.5-1.7,2.8-3,3.8c-1.2,1-2.6,1.7-4.2,2.2c-1.6,0.5-3.2,0.7-4.8,0.7
		c-1.5,0-3-0.2-4.4-0.6c-1.4-0.4-2.7-1-3.8-1.7s-2.1-1.6-2.9-2.7s-1.4-2.3-1.8-3.6l7.3-2.3c0.4,1.2,1,2.2,2,2.9
		c1,0.8,2.1,1.2,3.5,1.2c1.4,0,2.6-0.4,3.6-1.2c1-0.8,1.5-2.1,1.5-3.7c0-1-0.2-1.8-0.6-2.5c-0.4-0.7-1-1.2-1.6-1.6
		c-0.7-0.4-1.4-0.7-2.2-0.8s-1.7-0.2-2.5-0.2c-1.2,0-2.6,0.1-4.2,0.4c-1.6,0.3-2.9,0.6-4.2,1.1l0.8-19.4h20.8v6.9h-13.7l-0.3,5.4
		c0.5-0.1,1.1-0.2,1.7-0.3s1.2-0.1,1.7-0.1c1.7,0,3.3,0.2,4.8,0.7c1.5,0.4,2.8,1.1,3.9,2c1.1,0.9,2,2,2.6,3.4
		C1483.2,446.6,1483.6,448.2,1483.6,450z"/>
	<path d="M1500.2,461.2v-25l-6.3,4.9l-4.2-5.7l11.2-8.2h7.3v34H1500.2z"/>
	<path d="M1520.9,461.2v-6.7l13.2-12c0.8-0.8,1.5-1.6,2-2.4c0.5-0.8,0.8-1.8,0.8-2.8c0-1.2-0.4-2.2-1.2-2.9
		c-0.8-0.8-1.8-1.1-3.1-1.1c-1.3,0-2.4,0.5-3.3,1.4c-0.8,0.9-1.4,2.2-1.5,3.7l-7.7-1.1c0.2-1.7,0.7-3.3,1.4-4.6
		c0.8-1.3,1.7-2.5,2.9-3.5c1.2-1,2.5-1.7,4-2.2c1.5-0.5,3.1-0.8,4.7-0.8c1.6,0,3.1,0.2,4.6,0.6c1.5,0.4,2.8,1.1,3.9,1.9
		c1.2,0.9,2.1,2,2.8,3.3c0.7,1.3,1,2.8,1,4.6c0,1.2-0.2,2.3-0.5,3.3c-0.3,1-0.8,1.9-1.3,2.7c-0.6,0.8-1.2,1.6-1.9,2.3
		c-0.7,0.7-1.5,1.4-2.2,2.1l-7.9,7h13.9v7H1520.9z"/>
</g>
<g class="st3">
	<path d="M1304.5,515.4c0,1.9,0.2,3.7,0.5,5.5c0.3,1.8,0.8,3.6,1.3,5.3c0.6,1.7,1.2,3.3,2,4.8s1.6,2.9,2.5,4.2l-2.5,1.6
		c-1-1.3-2-2.8-2.8-4.4c-0.8-1.6-1.6-3.3-2.2-5.2c-0.6-1.8-1.1-3.8-1.5-5.7s-0.5-4-0.5-6.1c0-2,0.2-4.1,0.5-6.1
		c0.4-2,0.8-3.9,1.5-5.8c0.6-1.8,1.4-3.6,2.2-5.2c0.8-1.6,1.8-3.1,2.8-4.4l2.5,1.6c-0.9,1.3-1.8,2.7-2.5,4.2s-1.4,3.2-2,4.8
		c-0.6,1.7-1,3.5-1.3,5.3C1304.7,511.7,1304.5,513.5,1304.5,515.4z"/>
	<path d="M1322.5,498.1c0,0.7-0.2,1.2-0.7,1.7c-0.5,0.4-1,0.6-1.6,0.6s-1.1-0.2-1.6-0.6c-0.5-0.4-0.7-1-0.7-1.7
		c0-0.7,0.2-1.2,0.7-1.7c0.5-0.4,1-0.6,1.6-0.6s1.1,0.2,1.6,0.6C1322.3,496.9,1322.5,497.4,1322.5,498.1z M1321.8,529.2h-3.3v-22.5
		h3.3V529.2z"/>
	<path d="M1340,509.5h-5.3v19.7h-3.3v-19.7h-4.7v-2.7h4.7v-6.1c0-2.6,0.6-4.6,1.9-6c1.2-1.5,3.2-2.2,5.8-2.2c0.4,0,0.9,0,1.3,0.1
		s0.9,0.1,1.3,0.3l-0.6,2.9c-0.4-0.1-0.7-0.2-1.1-0.2s-0.8-0.1-1.2-0.1c-0.9,0-1.6,0.1-2.1,0.4s-1,0.7-1.3,1.2
		c-0.3,0.5-0.5,1.1-0.6,1.8c-0.1,0.7-0.2,1.5-0.2,2.3v5.8h5.3V509.5z"/>
	<path d="M1369.8,512.1c-0.5-0.9-1.2-1.7-2.2-2.3c-1-0.6-2.1-0.9-3.3-0.9c-0.6,0-1.2,0.1-1.7,0.2c-0.6,0.1-1.1,0.3-1.5,0.6
		c-0.4,0.3-0.8,0.7-1.1,1.1c-0.3,0.4-0.4,1-0.4,1.6c0,1.1,0.4,1.9,1.3,2.4c0.9,0.6,2.2,1,4.1,1.4c2.7,0.5,4.6,1.3,5.9,2.4
		c1.3,1,1.9,2.4,1.9,4.2c0,1.3-0.2,2.4-0.7,3.2c-0.5,0.9-1.1,1.6-1.9,2.2c-0.8,0.6-1.7,1-2.7,1.2s-2,0.4-3,0.4
		c-1.7,0-3.3-0.4-4.9-1.1c-1.6-0.7-2.9-1.8-3.9-3.3l2.6-1.9c0.6,1,1.4,1.8,2.5,2.5c1.1,0.7,2.4,1,3.7,1c0.7,0,1.4-0.1,2-0.2
		c0.6-0.1,1.2-0.4,1.7-0.7c0.5-0.3,0.9-0.7,1.2-1.2s0.4-1.1,0.4-1.8c0-1.2-0.6-2.1-1.7-2.7c-1.1-0.6-2.8-1.1-4.9-1.7
		c-0.7-0.2-1.4-0.4-2.1-0.6c-0.8-0.2-1.4-0.6-2.1-1.1c-0.6-0.5-1.2-1-1.6-1.8c-0.4-0.7-0.6-1.6-0.6-2.6c0-1.2,0.2-2.1,0.7-3
		c0.4-0.8,1-1.5,1.8-2c0.8-0.5,1.6-0.9,2.6-1.2c1-0.3,2-0.4,3-0.4c1.6,0,3.1,0.4,4.6,1.1c1.5,0.7,2.6,1.7,3.3,3L1369.8,512.1z"/>
	<path d="M1395.5,529.2c-0.1-0.6-0.1-1.3-0.1-2c0-0.7,0-1.3,0-1.8h-0.1c-0.6,1.3-1.7,2.4-3.1,3.2c-1.4,0.8-3,1.2-4.6,1.2
		c-2.8,0-5-0.8-6.4-2.5s-2.1-3.9-2.1-6.7v-13.8h3.3v12.4c0,1.2,0.1,2.3,0.3,3.2c0.2,1,0.5,1.8,1,2.5c0.5,0.7,1.1,1.2,1.9,1.6
		c0.8,0.4,1.8,0.6,3,0.6c0.9,0,1.7-0.2,2.5-0.5c0.8-0.4,1.5-0.9,2.2-1.6c0.6-0.7,1.2-1.6,1.5-2.7c0.4-1.1,0.6-2.4,0.6-3.9v-11.5h3.3
		v17.5c0,0.6,0,1.4,0,2.4s0.1,1.8,0.1,2.6H1395.5z"/>
	<path d="M1410.3,540.7h-3.3v-34h3.3v3.9h0.1c0.9-1.5,2.2-2.6,3.7-3.3c1.6-0.8,3.1-1.1,4.7-1.1c1.8,0,3.4,0.3,4.8,0.9
		c1.4,0.6,2.6,1.4,3.6,2.5c1,1.1,1.8,2.3,2.4,3.7c0.6,1.4,0.8,3,0.8,4.7c0,1.7-0.3,3.2-0.8,4.7c-0.6,1.4-1.3,2.7-2.4,3.7
		c-1,1.1-2.2,1.9-3.6,2.5c-1.4,0.6-3,0.9-4.8,0.9c-1.6,0-3.2-0.4-4.7-1.1c-1.6-0.8-2.8-1.8-3.7-3.2h-0.1V540.7z M1427,518
		c0-1.2-0.2-2.4-0.6-3.5c-0.4-1.1-0.9-2.1-1.7-2.9c-0.7-0.8-1.6-1.5-2.7-1.9s-2.3-0.7-3.6-0.7c-1.2,0-2.4,0.2-3.5,0.7
		c-1.1,0.5-2,1.1-2.7,1.9c-0.8,0.8-1.4,1.8-1.8,2.9c-0.4,1.1-0.6,2.3-0.6,3.6c0,1.3,0.2,2.5,0.6,3.6c0.4,1.1,1,2.1,1.8,2.9
		s1.7,1.4,2.7,1.9c1.1,0.5,2.2,0.7,3.5,0.7c1.3,0,2.5-0.2,3.6-0.7c1.1-0.5,1.9-1.1,2.7-1.9c0.7-0.8,1.3-1.8,1.7-2.9
		C1426.8,520.4,1427,519.2,1427,518z"/>
	<path d="M1440.8,540.7h-3.3v-34h3.3v3.9h0.1c0.9-1.5,2.2-2.6,3.7-3.3c1.6-0.8,3.1-1.1,4.7-1.1c1.8,0,3.4,0.3,4.8,0.9
		c1.4,0.6,2.6,1.4,3.6,2.5c1,1.1,1.8,2.3,2.4,3.7c0.6,1.4,0.8,3,0.8,4.7c0,1.7-0.3,3.2-0.8,4.7c-0.6,1.4-1.3,2.7-2.4,3.7
		s-2.2,1.9-3.6,2.5c-1.4,0.6-3,0.9-4.8,0.9c-1.6,0-3.2-0.4-4.7-1.1c-1.6-0.8-2.8-1.8-3.7-3.2h-0.1V540.7z M1457.5,518
		c0-1.2-0.2-2.4-0.6-3.5c-0.4-1.1-0.9-2.1-1.7-2.9c-0.7-0.8-1.6-1.5-2.7-1.9c-1.1-0.5-2.3-0.7-3.6-0.7c-1.2,0-2.4,0.2-3.5,0.7
		c-1.1,0.5-2,1.1-2.7,1.9c-0.8,0.8-1.4,1.8-1.8,2.9c-0.4,1.1-0.6,2.3-0.6,3.6c0,1.3,0.2,2.5,0.6,3.6c0.4,1.1,1,2.1,1.8,2.9
		c0.8,0.8,1.7,1.4,2.7,1.9c1.1,0.5,2.2,0.7,3.5,0.7c1.3,0,2.5-0.2,3.6-0.7c1.1-0.5,1.9-1.1,2.7-1.9c0.7-0.8,1.3-1.8,1.7-2.9
		C1457.3,520.4,1457.5,519.2,1457.5,518z"/>
	<path d="M1490.3,518c0,1.7-0.3,3.3-0.9,4.7c-0.6,1.4-1.4,2.7-2.5,3.7c-1.1,1.1-2.3,1.9-3.8,2.5c-1.5,0.6-3.1,0.9-4.8,0.9
		c-1.7,0-3.3-0.3-4.8-0.9c-1.5-0.6-2.7-1.4-3.8-2.5c-1.1-1.1-1.9-2.3-2.5-3.7c-0.6-1.4-0.9-3-0.9-4.7c0-1.7,0.3-3.3,0.9-4.7
		c0.6-1.4,1.4-2.7,2.5-3.7c1.1-1.1,2.3-1.9,3.8-2.5c1.5-0.6,3.1-0.9,4.8-0.9c1.8,0,3.4,0.3,4.8,0.9c1.5,0.6,2.7,1.4,3.8,2.5
		c1.1,1.1,1.9,2.3,2.5,3.7C1490,514.7,1490.3,516.3,1490.3,518z M1486.8,518c0-1.2-0.2-2.4-0.6-3.5c-0.4-1.1-1-2.1-1.7-2.9
		c-0.7-0.8-1.6-1.5-2.7-1.9c-1.1-0.5-2.2-0.7-3.6-0.7s-2.5,0.2-3.5,0.7c-1,0.5-1.9,1.1-2.7,1.9c-0.7,0.8-1.3,1.8-1.7,2.9
		c-0.4,1.1-0.6,2.3-0.6,3.5s0.2,2.4,0.6,3.5c0.4,1.1,1,2.1,1.7,2.9c0.7,0.8,1.6,1.5,2.7,1.9c1,0.5,2.2,0.7,3.5,0.7s2.5-0.2,3.6-0.7
		c1.1-0.5,2-1.1,2.7-1.9c0.7-0.8,1.3-1.8,1.7-2.9C1486.6,520.4,1486.8,519.2,1486.8,518z"/>
</g>
<g class="st3">
	<path d="M1496.1,509.3c0-1-0.1-1.8-0.1-2.6h3.1c0.1,0.6,0.1,1.3,0.1,2c0,0.7,0,1.3,0,1.8h0.1c0.6-1.3,1.6-2.4,2.9-3.2
		c1.3-0.8,2.7-1.2,4.3-1.2c0.4,0,0.8,0,1.1,0c0.3,0,0.7,0.1,1,0.2l-0.4,3.1c-0.2-0.1-0.5-0.1-1-0.2c-0.4-0.1-0.9-0.1-1.3-0.1
		c-0.9,0-1.7,0.2-2.5,0.5c-0.8,0.3-1.5,0.8-2.1,1.5c-0.6,0.7-1.1,1.6-1.4,2.6c-0.4,1.1-0.6,2.4-0.6,3.9v11.5h-3.3v-17.5
		C1496.2,511.1,1496.1,510.3,1496.1,509.3z"/>
</g>
<g class="st3">
	<path d="M1524.7,509.5h-6.3v13.1c0,0.8,0.1,1.5,0.2,2.1c0.2,0.5,0.4,1,0.7,1.3c0.3,0.3,0.7,0.5,1.1,0.6c0.4,0.1,0.9,0.2,1.3,0.2
		c0.4,0,0.9-0.1,1.4-0.2c0.5-0.1,1-0.3,1.4-0.5l0.1,2.8c-0.6,0.2-1.2,0.4-1.8,0.5c-0.6,0.1-1.3,0.2-2,0.2c-0.6,0-1.2-0.1-1.9-0.2
		c-0.7-0.2-1.3-0.5-1.9-0.9c-0.6-0.4-1-1.1-1.4-1.8c-0.4-0.8-0.6-1.8-0.6-3v-14h-4.7v-2.7h4.7v-6.3h3.3v6.3h6.3V509.5z"/>
</g>
<g class="st3">
	<path d="M1550,517.3c0,0.2,0,0.5,0,0.7s0,0.5,0,0.8h-18.6c0,1.1,0.3,2.2,0.7,3.2c0.4,1,1,1.9,1.7,2.6c0.7,0.7,1.6,1.3,2.6,1.8
		c1,0.4,2.1,0.6,3.2,0.6c1.7,0,3.2-0.4,4.4-1.2c1.2-0.8,2.2-1.7,2.8-2.7l2.4,1.9c-1.3,1.7-2.8,2.9-4.4,3.6c-1.6,0.7-3.4,1.1-5.2,1.1
		c-1.7,0-3.2-0.3-4.6-0.9c-1.4-0.6-2.6-1.4-3.7-2.5c-1-1.1-1.8-2.3-2.4-3.7c-0.6-1.4-0.9-3-0.9-4.7c0-1.7,0.3-3.3,0.9-4.7
		c0.6-1.4,1.4-2.7,2.4-3.7c1-1.1,2.2-1.9,3.6-2.5c1.4-0.6,2.9-0.9,4.5-0.9c1.8,0,3.3,0.3,4.7,0.9c1.3,0.6,2.5,1.4,3.4,2.4
		c0.9,1,1.6,2.2,2,3.5C1549.8,514.3,1550,515.8,1550,517.3z M1546.7,516.2c-0.1-2.1-0.8-3.9-2-5.3c-1.3-1.4-3.1-2.1-5.4-2.1
		c-1.1,0-2.1,0.2-3,0.6c-0.9,0.4-1.7,0.9-2.4,1.6c-0.7,0.7-1.3,1.5-1.7,2.4s-0.7,1.8-0.7,2.8H1546.7z"/>
	<path d="M1575.5,525.4c-1,1.4-2.2,2.5-3.7,3.3c-1.5,0.7-3.1,1.1-4.8,1.1c-1.8,0-3.4-0.3-4.8-0.9c-1.4-0.6-2.6-1.4-3.6-2.5
		c-1-1.1-1.8-2.3-2.4-3.7c-0.6-1.4-0.8-3-0.8-4.7c0-1.7,0.3-3.2,0.8-4.7c0.6-1.4,1.3-2.7,2.4-3.7c1-1.1,2.2-1.9,3.6-2.5
		c1.4-0.6,3-0.9,4.8-0.9c1.6,0,3.2,0.4,4.8,1.1c1.5,0.8,2.8,1.9,3.7,3.3h0.1v-17.7h3.3v36.3h-3.3L1575.5,525.4L1575.5,525.4z
		 M1558.8,518c0,1.2,0.2,2.4,0.6,3.5c0.4,1.1,0.9,2.1,1.7,2.9c0.7,0.8,1.6,1.5,2.7,1.9c1.1,0.5,2.3,0.7,3.6,0.7
		c1.2,0,2.4-0.2,3.5-0.7c1.1-0.5,2-1.1,2.7-1.9c0.8-0.8,1.4-1.8,1.8-2.9c0.4-1.1,0.6-2.3,0.6-3.6c0-1.3-0.2-2.5-0.6-3.6
		c-0.4-1.1-1-2.1-1.8-2.9c-0.8-0.8-1.7-1.5-2.7-1.9c-1.1-0.5-2.2-0.7-3.5-0.7c-1.3,0-2.5,0.2-3.6,0.7c-1.1,0.5-1.9,1.1-2.7,1.9
		c-0.7,0.8-1.3,1.8-1.7,2.9C1559,515.5,1558.8,516.7,1558.8,518z"/>
	<path d="M1593,515.4c0-1.9-0.2-3.7-0.5-5.5c-0.3-1.8-0.8-3.6-1.3-5.3c-0.6-1.7-1.2-3.3-2-4.8c-0.8-1.5-1.6-2.9-2.5-4.2l2.5-1.6
		c1,1.3,1.9,2.8,2.8,4.4c0.9,1.6,1.6,3.3,2.2,5.2c0.6,1.8,1.1,3.8,1.5,5.8c0.4,2,0.5,4,0.5,6.1c0,2.1-0.2,4.1-0.5,6.1
		c-0.4,2-0.8,3.9-1.5,5.7c-0.6,1.8-1.4,3.6-2.2,5.2c-0.9,1.6-1.8,3.1-2.8,4.4l-2.5-1.6c0.9-1.3,1.7-2.7,2.5-4.2
		c0.8-1.5,1.5-3.2,2-4.8c0.6-1.7,1-3.5,1.3-5.3C1592.8,519.1,1593,517.2,1593,515.4z"/>
</g>
<g class="st3">
	<path d="M713.6,515.4c0,1.9,0.2,3.7,0.5,5.5c0.3,1.8,0.8,3.6,1.3,5.3c0.6,1.7,1.2,3.3,2,4.8s1.6,2.9,2.5,4.2l-2.5,1.6
		c-1-1.3-2-2.8-2.8-4.4c-0.8-1.6-1.6-3.3-2.2-5.2c-0.6-1.8-1.1-3.8-1.5-5.7c-0.4-2-0.5-4-0.5-6.1c0-2,0.2-4.1,0.5-6.1
		c0.4-2,0.8-3.9,1.5-5.8c0.6-1.8,1.4-3.6,2.2-5.2c0.8-1.6,1.8-3.1,2.8-4.4l2.5,1.6c-0.9,1.3-1.8,2.7-2.5,4.2s-1.4,3.2-2,4.8
		c-0.6,1.7-1,3.5-1.3,5.3C713.8,511.7,713.6,513.5,713.6,515.4z"/>
	<path d="M731.6,498.1c0,0.7-0.2,1.2-0.7,1.7c-0.5,0.4-1,0.6-1.6,0.6s-1.1-0.2-1.6-0.6c-0.5-0.4-0.7-1-0.7-1.7
		c0-0.7,0.2-1.2,0.7-1.7c0.5-0.4,1-0.6,1.6-0.6s1.1,0.2,1.6,0.6C731.4,496.9,731.6,497.4,731.6,498.1z M731,529.2h-3.3v-22.5h3.3
		V529.2z"/>
	<path d="M749.1,509.5h-5.3v19.7h-3.3v-19.7h-4.7v-2.7h4.7v-6.1c0-2.6,0.6-4.6,1.9-6c1.2-1.5,3.2-2.2,5.8-2.2c0.4,0,0.9,0,1.3,0.1
		s0.9,0.1,1.3,0.3l-0.6,2.9c-0.4-0.1-0.7-0.2-1.1-0.2s-0.8-0.1-1.2-0.1c-0.9,0-1.6,0.1-2.1,0.4c-0.6,0.3-1,0.7-1.3,1.2
		c-0.3,0.5-0.5,1.1-0.6,1.8c-0.1,0.7-0.2,1.5-0.2,2.3v5.8h5.3V509.5z"/>
	<path d="M778.9,512.1c-0.5-0.9-1.2-1.7-2.2-2.3c-1-0.6-2.1-0.9-3.3-0.9c-0.6,0-1.2,0.1-1.7,0.2c-0.6,0.1-1.1,0.3-1.5,0.6
		c-0.4,0.3-0.8,0.7-1.1,1.1c-0.3,0.4-0.4,1-0.4,1.6c0,1.1,0.4,1.9,1.3,2.4c0.9,0.6,2.2,1,4.1,1.4c2.7,0.5,4.6,1.3,5.9,2.4
		c1.3,1,1.9,2.4,1.9,4.2c0,1.3-0.2,2.4-0.7,3.2c-0.5,0.9-1.1,1.6-1.9,2.2c-0.8,0.6-1.7,1-2.7,1.2s-2,0.4-3,0.4
		c-1.7,0-3.3-0.4-4.9-1.1c-1.6-0.7-2.9-1.8-3.9-3.3l2.6-1.9c0.6,1,1.4,1.8,2.5,2.5c1.1,0.7,2.4,1,3.7,1c0.7,0,1.4-0.1,2-0.2
		c0.6-0.1,1.2-0.4,1.7-0.7c0.5-0.3,0.9-0.7,1.2-1.2s0.4-1.1,0.4-1.8c0-1.2-0.6-2.1-1.7-2.7c-1.1-0.6-2.8-1.1-4.9-1.7
		c-0.7-0.2-1.4-0.4-2.1-0.6c-0.8-0.2-1.4-0.6-2.1-1.1c-0.6-0.5-1.2-1-1.6-1.8c-0.4-0.7-0.6-1.6-0.6-2.6c0-1.2,0.2-2.1,0.7-3
		c0.4-0.8,1-1.5,1.8-2c0.8-0.5,1.6-0.9,2.6-1.2c1-0.3,2-0.4,3-0.4c1.6,0,3.1,0.4,4.6,1.1c1.5,0.7,2.6,1.7,3.3,3L778.9,512.1z"/>
	<path d="M804.6,529.2c-0.1-0.6-0.1-1.3-0.1-2c0-0.7,0-1.3,0-1.8h-0.1c-0.6,1.3-1.7,2.4-3.1,3.2c-1.4,0.8-3,1.2-4.6,1.2
		c-2.8,0-5-0.8-6.4-2.5c-1.4-1.7-2.1-3.9-2.1-6.7v-13.8h3.3v12.4c0,1.2,0.1,2.3,0.3,3.2c0.2,1,0.5,1.8,1,2.5
		c0.5,0.7,1.1,1.2,1.9,1.6c0.8,0.4,1.8,0.6,3,0.6c0.9,0,1.7-0.2,2.5-0.5c0.8-0.4,1.5-0.9,2.2-1.6c0.6-0.7,1.2-1.6,1.5-2.7
		c0.4-1.1,0.6-2.4,0.6-3.9v-11.5h3.3v17.5c0,0.6,0,1.4,0,2.4c0,1,0.1,1.8,0.1,2.6H804.6z"/>
	<path d="M819.4,540.7h-3.3v-34h3.3v3.9h0.1c0.9-1.5,2.2-2.6,3.7-3.3c1.6-0.8,3.1-1.1,4.7-1.1c1.8,0,3.4,0.3,4.8,0.9
		c1.4,0.6,2.6,1.4,3.6,2.5c1,1.1,1.8,2.3,2.4,3.7c0.6,1.4,0.8,3,0.8,4.7c0,1.7-0.3,3.2-0.8,4.7c-0.6,1.4-1.3,2.7-2.4,3.7
		c-1,1.1-2.2,1.9-3.6,2.5c-1.4,0.6-3,0.9-4.8,0.9c-1.6,0-3.2-0.4-4.7-1.1c-1.6-0.8-2.8-1.8-3.7-3.2h-0.1V540.7z M836.2,518
		c0-1.2-0.2-2.4-0.6-3.5c-0.4-1.1-0.9-2.1-1.7-2.9c-0.7-0.8-1.6-1.5-2.7-1.9s-2.3-0.7-3.6-0.7c-1.2,0-2.4,0.2-3.5,0.7
		c-1.1,0.5-2,1.1-2.7,1.9c-0.8,0.8-1.4,1.8-1.8,2.9c-0.4,1.1-0.6,2.3-0.6,3.6c0,1.3,0.2,2.5,0.6,3.6c0.4,1.1,1,2.1,1.8,2.9
		s1.7,1.4,2.7,1.9c1.1,0.5,2.2,0.7,3.5,0.7c1.3,0,2.5-0.2,3.6-0.7c1.1-0.5,1.9-1.1,2.7-1.9c0.7-0.8,1.3-1.8,1.7-2.9
		C836,520.4,836.2,519.2,836.2,518z"/>
	<path d="M849.9,540.7h-3.3v-34h3.3v3.9h0.1c0.9-1.5,2.2-2.6,3.7-3.3c1.6-0.8,3.1-1.1,4.7-1.1c1.8,0,3.4,0.3,4.8,0.9
		c1.4,0.6,2.6,1.4,3.6,2.5c1,1.1,1.8,2.3,2.4,3.7c0.6,1.4,0.8,3,0.8,4.7c0,1.7-0.3,3.2-0.8,4.7c-0.6,1.4-1.3,2.7-2.4,3.7
		c-1,1.1-2.2,1.9-3.6,2.5c-1.4,0.6-3,0.9-4.8,0.9c-1.6,0-3.2-0.4-4.7-1.1c-1.6-0.8-2.8-1.8-3.7-3.2h-0.1V540.7z M866.6,518
		c0-1.2-0.2-2.4-0.6-3.5c-0.4-1.1-0.9-2.1-1.7-2.9c-0.7-0.8-1.6-1.5-2.7-1.9s-2.3-0.7-3.6-0.7c-1.2,0-2.4,0.2-3.5,0.7
		c-1.1,0.5-2,1.1-2.7,1.9c-0.8,0.8-1.4,1.8-1.8,2.9c-0.4,1.1-0.6,2.3-0.6,3.6c0,1.3,0.2,2.5,0.6,3.6c0.4,1.1,1,2.1,1.8,2.9
		s1.7,1.4,2.7,1.9c1.1,0.5,2.2,0.7,3.5,0.7c1.3,0,2.5-0.2,3.6-0.7c1.1-0.5,1.9-1.1,2.7-1.9c0.7-0.8,1.3-1.8,1.7-2.9
		C866.5,520.4,866.6,519.2,866.6,518z"/>
	<path d="M899.4,518c0,1.7-0.3,3.3-0.9,4.7c-0.6,1.4-1.4,2.7-2.5,3.7c-1.1,1.1-2.3,1.9-3.8,2.5c-1.5,0.6-3.1,0.9-4.8,0.9
		c-1.7,0-3.3-0.3-4.8-0.9c-1.5-0.6-2.7-1.4-3.8-2.5c-1.1-1.1-1.9-2.3-2.5-3.7c-0.6-1.4-0.9-3-0.9-4.7c0-1.7,0.3-3.3,0.9-4.7
		c0.6-1.4,1.4-2.7,2.5-3.7c1.1-1.1,2.3-1.9,3.8-2.5c1.5-0.6,3.1-0.9,4.8-0.9c1.8,0,3.4,0.3,4.8,0.9c1.5,0.6,2.7,1.4,3.8,2.5
		c1.1,1.1,1.9,2.3,2.5,3.7C899.1,514.7,899.4,516.3,899.4,518z M896,518c0-1.2-0.2-2.4-0.6-3.5c-0.4-1.1-1-2.1-1.7-2.9
		c-0.7-0.8-1.6-1.5-2.7-1.9s-2.2-0.7-3.6-0.7c-1.3,0-2.5,0.2-3.5,0.7c-1,0.5-1.9,1.1-2.7,1.9c-0.7,0.8-1.3,1.8-1.7,2.9
		c-0.4,1.1-0.6,2.3-0.6,3.5s0.2,2.4,0.6,3.5c0.4,1.1,1,2.1,1.7,2.9c0.7,0.8,1.6,1.5,2.7,1.9c1,0.5,2.2,0.7,3.5,0.7
		c1.3,0,2.5-0.2,3.6-0.7c1.1-0.5,2-1.1,2.7-1.9c0.7-0.8,1.3-1.8,1.7-2.9C895.8,520.4,896,519.2,896,518z"/>
</g>
<g class="st3">
	<path d="M905.2,509.3c0-1-0.1-1.8-0.1-2.6h3.1c0.1,0.6,0.1,1.3,0.1,2c0,0.7,0,1.3,0,1.8h0.1c0.6-1.3,1.6-2.4,2.9-3.2
		c1.3-0.8,2.7-1.2,4.3-1.2c0.4,0,0.8,0,1.1,0c0.3,0,0.7,0.1,1,0.2l-0.4,3.1c-0.2-0.1-0.5-0.1-1-0.2c-0.4-0.1-0.9-0.1-1.3-0.1
		c-0.9,0-1.7,0.2-2.5,0.5c-0.8,0.3-1.5,0.8-2.1,1.5c-0.6,0.7-1.1,1.6-1.4,2.6c-0.4,1.1-0.6,2.4-0.6,3.9v11.5h-3.3v-17.5
		C905.3,511.1,905.3,510.3,905.2,509.3z"/>
</g>
<g class="st3">
	<path d="M933.8,509.5h-6.3v13.1c0,0.8,0.1,1.5,0.2,2.1s0.4,1,0.7,1.3c0.3,0.3,0.7,0.5,1.1,0.6c0.4,0.1,0.9,0.2,1.3,0.2
		c0.4,0,0.9-0.1,1.4-0.2c0.5-0.1,1-0.3,1.4-0.5l0.1,2.8c-0.6,0.2-1.2,0.4-1.8,0.5c-0.6,0.1-1.3,0.2-2,0.2c-0.6,0-1.2-0.1-1.9-0.2
		c-0.7-0.2-1.3-0.5-1.9-0.9c-0.6-0.4-1-1.1-1.4-1.8c-0.4-0.8-0.6-1.8-0.6-3v-14h-4.7v-2.7h4.7v-6.3h3.3v6.3h6.3V509.5z"/>
</g>
<g class="st3">
	<path d="M959.1,517.3c0,0.2,0,0.5,0,0.7s0,0.5,0,0.8h-18.6c0,1.1,0.3,2.2,0.7,3.2c0.4,1,1,1.9,1.7,2.6c0.7,0.7,1.6,1.3,2.6,1.8
		c1,0.4,2.1,0.6,3.2,0.6c1.7,0,3.2-0.4,4.4-1.2c1.2-0.8,2.2-1.7,2.8-2.7l2.4,1.9c-1.3,1.7-2.8,2.9-4.4,3.6c-1.6,0.7-3.4,1.1-5.2,1.1
		c-1.7,0-3.2-0.3-4.6-0.9c-1.4-0.6-2.6-1.4-3.7-2.5c-1-1.1-1.8-2.3-2.4-3.7c-0.6-1.4-0.9-3-0.9-4.7c0-1.7,0.3-3.3,0.9-4.7
		c0.6-1.4,1.4-2.7,2.4-3.7c1-1.1,2.2-1.9,3.6-2.5c1.4-0.6,2.9-0.9,4.5-0.9c1.8,0,3.3,0.3,4.7,0.9c1.3,0.6,2.5,1.4,3.4,2.4
		c0.9,1,1.6,2.2,2,3.5C958.9,514.3,959.1,515.8,959.1,517.3z M955.8,516.2c-0.1-2.1-0.8-3.9-2-5.3c-1.3-1.4-3.1-2.1-5.4-2.1
		c-1.1,0-2.1,0.2-3,0.6c-0.9,0.4-1.7,0.9-2.4,1.6c-0.7,0.7-1.3,1.5-1.7,2.4s-0.7,1.8-0.7,2.8H955.8z"/>
	<path d="M984.6,525.4c-1,1.4-2.2,2.5-3.7,3.3c-1.5,0.7-3.1,1.1-4.8,1.1c-1.8,0-3.4-0.3-4.8-0.9c-1.4-0.6-2.6-1.4-3.6-2.5
		c-1-1.1-1.8-2.3-2.4-3.7c-0.6-1.4-0.8-3-0.8-4.7c0-1.7,0.3-3.2,0.8-4.7c0.6-1.4,1.3-2.7,2.4-3.7c1-1.1,2.2-1.9,3.6-2.5
		c1.4-0.6,3-0.9,4.8-0.9c1.6,0,3.2,0.4,4.8,1.1c1.5,0.8,2.8,1.9,3.7,3.3h0.1v-17.7h3.3v36.3h-3.3L984.6,525.4L984.6,525.4z M968,518
		c0,1.2,0.2,2.4,0.6,3.5c0.4,1.1,0.9,2.1,1.7,2.9c0.7,0.8,1.6,1.5,2.7,1.9c1.1,0.5,2.3,0.7,3.6,0.7c1.2,0,2.4-0.2,3.5-0.7
		c1.1-0.5,2-1.1,2.7-1.9c0.8-0.8,1.4-1.8,1.8-2.9c0.4-1.1,0.6-2.3,0.6-3.6c0-1.3-0.2-2.5-0.6-3.6c-0.4-1.1-1-2.1-1.8-2.9
		c-0.8-0.8-1.7-1.5-2.7-1.9c-1.1-0.5-2.2-0.7-3.5-0.7c-1.3,0-2.5,0.2-3.6,0.7c-1.1,0.5-1.9,1.1-2.7,1.9c-0.7,0.8-1.3,1.8-1.7,2.9
		C968.2,515.5,968,516.7,968,518z"/>
	<path d="M1002.1,515.4c0-1.9-0.2-3.7-0.5-5.5c-0.3-1.8-0.8-3.6-1.3-5.3c-0.6-1.7-1.2-3.3-2-4.8c-0.8-1.5-1.6-2.9-2.5-4.2l2.5-1.6
		c1,1.3,1.9,2.8,2.8,4.4c0.9,1.6,1.6,3.3,2.2,5.2c0.6,1.8,1.1,3.8,1.5,5.8c0.4,2,0.5,4,0.5,6.1c0,2.1-0.2,4.1-0.5,6.1
		c-0.4,2-0.8,3.9-1.5,5.7c-0.6,1.8-1.4,3.6-2.2,5.2c-0.9,1.6-1.8,3.1-2.8,4.4l-2.5-1.6c0.9-1.3,1.7-2.7,2.5-4.2
		c0.8-1.5,1.5-3.2,2-4.8c0.6-1.7,1-3.5,1.3-5.3C1001.9,519.1,1002.1,517.2,1002.1,515.4z"/>
</g>
<g class="st3">
	<path d="M137.1,515.4c0,1.9,0.2,3.7,0.5,5.5c0.3,1.8,0.8,3.6,1.3,5.3c0.6,1.7,1.2,3.3,2,4.8s1.6,2.9,2.5,4.2l-2.5,1.6
		c-1-1.3-2-2.8-2.8-4.4c-0.8-1.6-1.6-3.3-2.2-5.2c-0.6-1.8-1.1-3.8-1.5-5.7c-0.4-2-0.5-4-0.5-6.1c0-2,0.2-4.1,0.5-6.1
		c0.4-2,0.8-3.9,1.5-5.8c0.6-1.8,1.4-3.6,2.2-5.2c0.8-1.6,1.8-3.1,2.8-4.4l2.5,1.6c-0.9,1.3-1.8,2.7-2.5,4.2s-1.4,3.2-2,4.8
		c-0.6,1.7-1,3.5-1.3,5.3C137.2,511.7,137.1,513.5,137.1,515.4z"/>
	<path d="M155.1,498.1c0,0.7-0.2,1.2-0.7,1.7c-0.5,0.4-1,0.6-1.6,0.6s-1.1-0.2-1.6-0.6c-0.5-0.4-0.7-1-0.7-1.7
		c0-0.7,0.2-1.2,0.7-1.7c0.5-0.4,1-0.6,1.6-0.6s1.1,0.2,1.6,0.6C154.8,496.9,155.1,497.4,155.1,498.1z M154.4,529.2h-3.3v-22.5h3.3
		V529.2z"/>
	<path d="M172.6,509.5h-5.3v19.7H164v-19.7h-4.7v-2.7h4.7v-6.1c0-2.6,0.6-4.6,1.9-6c1.2-1.5,3.2-2.2,5.8-2.2c0.4,0,0.9,0,1.3,0.1
		s0.9,0.1,1.3,0.3l-0.6,2.9c-0.4-0.1-0.7-0.2-1.1-0.2s-0.8-0.1-1.2-0.1c-0.9,0-1.6,0.1-2.1,0.4c-0.6,0.3-1,0.7-1.3,1.2
		c-0.3,0.5-0.5,1.1-0.6,1.8c-0.1,0.7-0.2,1.5-0.2,2.3v5.8h5.3V509.5z"/>
	<path d="M202.3,512.1c-0.5-0.9-1.2-1.7-2.2-2.3c-1-0.6-2.1-0.9-3.3-0.9c-0.6,0-1.2,0.1-1.7,0.2c-0.6,0.1-1.1,0.3-1.5,0.6
		c-0.4,0.3-0.8,0.7-1.1,1.1c-0.3,0.4-0.4,1-0.4,1.6c0,1.1,0.4,1.9,1.3,2.4c0.9,0.6,2.2,1,4.1,1.4c2.7,0.5,4.6,1.3,5.9,2.4
		c1.3,1,1.9,2.4,1.9,4.2c0,1.3-0.2,2.4-0.7,3.2c-0.5,0.9-1.1,1.6-1.9,2.2c-0.8,0.6-1.7,1-2.7,1.2s-2,0.4-3,0.4
		c-1.7,0-3.3-0.4-4.9-1.1c-1.6-0.7-2.9-1.8-3.9-3.3l2.6-1.9c0.6,1,1.4,1.8,2.5,2.5c1.1,0.7,2.4,1,3.7,1c0.7,0,1.4-0.1,2-0.2
		c0.6-0.1,1.2-0.4,1.7-0.7c0.5-0.3,0.9-0.7,1.2-1.2s0.4-1.1,0.4-1.8c0-1.2-0.6-2.1-1.7-2.7c-1.1-0.6-2.8-1.1-4.9-1.7
		c-0.7-0.2-1.4-0.4-2.1-0.6c-0.8-0.2-1.4-0.6-2.1-1.1c-0.6-0.5-1.2-1-1.6-1.8c-0.4-0.7-0.6-1.6-0.6-2.6c0-1.2,0.2-2.1,0.7-3
		c0.4-0.8,1-1.5,1.8-2c0.8-0.5,1.6-0.9,2.6-1.2c1-0.3,2-0.4,3-0.4c1.6,0,3.1,0.4,4.6,1.1c1.5,0.7,2.6,1.7,3.3,3L202.3,512.1z"/>
	<path d="M228,529.2c-0.1-0.6-0.1-1.3-0.1-2c0-0.7,0-1.3,0-1.8h-0.1c-0.6,1.3-1.7,2.4-3.1,3.2c-1.4,0.8-3,1.2-4.6,1.2
		c-2.8,0-5-0.8-6.4-2.5c-1.4-1.7-2.1-3.9-2.1-6.7v-13.8h3.3v12.4c0,1.2,0.1,2.3,0.3,3.2c0.2,1,0.5,1.8,1,2.5
		c0.5,0.7,1.1,1.2,1.9,1.6c0.8,0.4,1.8,0.6,3,0.6c0.9,0,1.7-0.2,2.5-0.5c0.8-0.4,1.5-0.9,2.2-1.6c0.6-0.7,1.2-1.6,1.5-2.7
		c0.4-1.1,0.6-2.4,0.6-3.9v-11.5h3.3v17.5c0,0.6,0,1.4,0,2.4c0,1,0.1,1.8,0.1,2.6H228z"/>
	<path d="M242.8,540.7h-3.3v-34h3.3v3.9h0.1c0.9-1.5,2.2-2.6,3.7-3.3c1.6-0.8,3.1-1.1,4.7-1.1c1.8,0,3.4,0.3,4.8,0.9
		c1.4,0.6,2.6,1.4,3.6,2.5c1,1.1,1.8,2.3,2.4,3.7c0.6,1.4,0.8,3,0.8,4.7c0,1.7-0.3,3.2-0.8,4.7c-0.6,1.4-1.3,2.7-2.4,3.7
		c-1,1.1-2.2,1.9-3.6,2.5c-1.4,0.6-3,0.9-4.8,0.9c-1.6,0-3.2-0.4-4.7-1.1c-1.6-0.8-2.8-1.8-3.7-3.2h-0.1V540.7z M259.6,518
		c0-1.2-0.2-2.4-0.6-3.5c-0.4-1.1-0.9-2.1-1.7-2.9c-0.7-0.8-1.6-1.5-2.7-1.9s-2.3-0.7-3.6-0.7c-1.2,0-2.4,0.2-3.5,0.7
		c-1.1,0.5-2,1.1-2.7,1.9c-0.8,0.8-1.4,1.8-1.8,2.9c-0.4,1.1-0.6,2.3-0.6,3.6c0,1.3,0.2,2.5,0.6,3.6c0.4,1.1,1,2.1,1.8,2.9
		s1.7,1.4,2.7,1.9c1.1,0.5,2.2,0.7,3.5,0.7c1.3,0,2.5-0.2,3.6-0.7c1.1-0.5,1.9-1.1,2.7-1.9c0.7-0.8,1.3-1.8,1.7-2.9
		C259.4,520.4,259.6,519.2,259.6,518z"/>
	<path d="M273.3,540.7h-3.3v-34h3.3v3.9h0.1c0.9-1.5,2.2-2.6,3.7-3.3c1.6-0.8,3.1-1.1,4.7-1.1c1.8,0,3.4,0.3,4.8,0.9
		c1.4,0.6,2.6,1.4,3.6,2.5c1,1.1,1.8,2.3,2.4,3.7c0.6,1.4,0.8,3,0.8,4.7c0,1.7-0.3,3.2-0.8,4.7c-0.6,1.4-1.3,2.7-2.4,3.7
		c-1,1.1-2.2,1.9-3.6,2.5c-1.4,0.6-3,0.9-4.8,0.9c-1.6,0-3.2-0.4-4.7-1.1c-1.6-0.8-2.8-1.8-3.7-3.2h-0.1V540.7z M290.1,518
		c0-1.2-0.2-2.4-0.6-3.5c-0.4-1.1-0.9-2.1-1.7-2.9c-0.7-0.8-1.6-1.5-2.7-1.9s-2.3-0.7-3.6-0.7c-1.2,0-2.4,0.2-3.5,0.7
		c-1.1,0.5-2,1.1-2.7,1.9c-0.8,0.8-1.4,1.8-1.8,2.9c-0.4,1.1-0.6,2.3-0.6,3.6c0,1.3,0.2,2.5,0.6,3.6c0.4,1.1,1,2.1,1.8,2.9
		s1.7,1.4,2.7,1.9c1.1,0.5,2.2,0.7,3.5,0.7c1.3,0,2.5-0.2,3.6-0.7c1.1-0.5,1.9-1.1,2.7-1.9c0.7-0.8,1.3-1.8,1.7-2.9
		C289.9,520.4,290.1,519.2,290.1,518z"/>
	<path d="M322.9,518c0,1.7-0.3,3.3-0.9,4.7c-0.6,1.4-1.4,2.7-2.5,3.7c-1.1,1.1-2.3,1.9-3.8,2.5c-1.5,0.6-3.1,0.9-4.8,0.9
		c-1.7,0-3.3-0.3-4.8-0.9c-1.5-0.6-2.7-1.4-3.8-2.5c-1.1-1.1-1.9-2.3-2.5-3.7c-0.6-1.4-0.9-3-0.9-4.7c0-1.7,0.3-3.3,0.9-4.7
		c0.6-1.4,1.4-2.7,2.5-3.7c1.1-1.1,2.3-1.9,3.8-2.5c1.5-0.6,3.1-0.9,4.8-0.9c1.8,0,3.4,0.3,4.8,0.9c1.5,0.6,2.7,1.4,3.8,2.5
		c1.1,1.1,1.9,2.3,2.5,3.7C322.6,514.7,322.9,516.3,322.9,518z M319.4,518c0-1.2-0.2-2.4-0.6-3.5c-0.4-1.1-1-2.1-1.7-2.9
		c-0.7-0.8-1.6-1.5-2.7-1.9c-1.1-0.5-2.2-0.7-3.6-0.7c-1.3,0-2.5,0.2-3.5,0.7c-1,0.5-1.9,1.1-2.7,1.9c-0.7,0.8-1.3,1.8-1.7,2.9
		c-0.4,1.1-0.6,2.3-0.6,3.5s0.2,2.4,0.6,3.5c0.4,1.1,1,2.1,1.7,2.9c0.7,0.8,1.6,1.5,2.7,1.9c1,0.5,2.2,0.7,3.5,0.7
		c1.3,0,2.5-0.2,3.6-0.7c1.1-0.5,2-1.1,2.7-1.9c0.7-0.8,1.3-1.8,1.7-2.9C319.2,520.4,319.4,519.2,319.4,518z"/>
</g>
<g class="st3">
	<path d="M328.7,509.3c0-1-0.1-1.8-0.1-2.6h3.1c0.1,0.6,0.1,1.3,0.1,2c0,0.7,0,1.3,0,1.8h0.1c0.6-1.3,1.6-2.4,2.9-3.2
		c1.3-0.8,2.7-1.2,4.3-1.2c0.4,0,0.8,0,1.1,0c0.3,0,0.7,0.1,1,0.2l-0.4,3.1c-0.2-0.1-0.5-0.1-1-0.2c-0.4-0.1-0.9-0.1-1.3-0.1
		c-0.9,0-1.7,0.2-2.5,0.5c-0.8,0.3-1.5,0.8-2.1,1.5c-0.6,0.7-1.1,1.6-1.4,2.6c-0.4,1.1-0.6,2.4-0.6,3.9v11.5h-3.3v-17.5
		C328.7,511.1,328.7,510.3,328.7,509.3z"/>
</g>
<g class="st3">
	<path d="M357.3,509.5h-6.3v13.1c0,0.8,0.1,1.5,0.2,2.1c0.2,0.5,0.4,1,0.7,1.3c0.3,0.3,0.7,0.5,1.1,0.6c0.4,0.1,0.9,0.2,1.3,0.2
		c0.4,0,0.9-0.1,1.4-0.2c0.5-0.1,1-0.3,1.4-0.5l0.1,2.8c-0.6,0.2-1.2,0.4-1.8,0.5c-0.6,0.1-1.3,0.2-2,0.2c-0.6,0-1.2-0.1-1.9-0.2
		c-0.7-0.2-1.3-0.5-1.9-0.9c-0.6-0.4-1-1.1-1.4-1.8c-0.4-0.8-0.6-1.8-0.6-3v-14H343v-2.7h4.7v-6.3h3.3v6.3h6.3V509.5z"/>
</g>
<g class="st3">
	<path d="M382.6,517.3c0,0.2,0,0.5,0,0.7s0,0.5,0,0.8h-18.6c0,1.1,0.3,2.2,0.7,3.2c0.4,1,1,1.9,1.7,2.6c0.7,0.7,1.6,1.3,2.6,1.8
		c1,0.4,2.1,0.6,3.2,0.6c1.7,0,3.2-0.4,4.4-1.2s2.2-1.7,2.8-2.7l2.4,1.9c-1.3,1.7-2.8,2.9-4.4,3.6c-1.6,0.7-3.4,1.1-5.2,1.1
		c-1.7,0-3.2-0.3-4.6-0.9c-1.4-0.6-2.6-1.4-3.7-2.5c-1-1.1-1.8-2.3-2.4-3.7c-0.6-1.4-0.9-3-0.9-4.7c0-1.7,0.3-3.3,0.9-4.7
		c0.6-1.4,1.4-2.7,2.4-3.7c1-1.1,2.2-1.9,3.6-2.5c1.4-0.6,2.9-0.9,4.5-0.9c1.8,0,3.3,0.3,4.7,0.9c1.3,0.6,2.5,1.4,3.4,2.4
		c0.9,1,1.6,2.2,2,3.5C382.3,514.3,382.6,515.8,382.6,517.3z M379.3,516.2c-0.1-2.1-0.8-3.9-2-5.3c-1.3-1.4-3.1-2.1-5.4-2.1
		c-1.1,0-2.1,0.2-3,0.6c-0.9,0.4-1.7,0.9-2.4,1.6c-0.7,0.7-1.3,1.5-1.7,2.4c-0.4,0.9-0.7,1.8-0.7,2.8H379.3z"/>
	<path d="M408.1,525.4c-1,1.4-2.2,2.5-3.7,3.3c-1.5,0.7-3.1,1.1-4.8,1.1c-1.8,0-3.4-0.3-4.8-0.9c-1.4-0.6-2.6-1.4-3.6-2.5
		c-1-1.1-1.8-2.3-2.4-3.7c-0.6-1.4-0.8-3-0.8-4.7c0-1.7,0.3-3.2,0.8-4.7c0.6-1.4,1.3-2.7,2.4-3.7c1-1.1,2.2-1.9,3.6-2.5
		c1.4-0.6,3-0.9,4.8-0.9c1.6,0,3.2,0.4,4.8,1.1c1.5,0.8,2.8,1.9,3.7,3.3h0.1v-17.7h3.3v36.3h-3.3L408.1,525.4L408.1,525.4z
		 M391.4,518c0,1.2,0.2,2.4,0.6,3.5c0.4,1.1,0.9,2.1,1.7,2.9c0.7,0.8,1.6,1.5,2.7,1.9c1.1,0.5,2.3,0.7,3.6,0.7
		c1.2,0,2.4-0.2,3.5-0.7c1.1-0.5,2-1.1,2.7-1.9s1.4-1.8,1.8-2.9c0.4-1.1,0.6-2.3,0.6-3.6c0-1.3-0.2-2.5-0.6-3.6
		c-0.4-1.1-1-2.1-1.8-2.9c-0.8-0.8-1.7-1.5-2.7-1.9c-1.1-0.5-2.2-0.7-3.5-0.7c-1.3,0-2.5,0.2-3.6,0.7s-1.9,1.1-2.7,1.9
		c-0.7,0.8-1.3,1.8-1.7,2.9C391.6,515.5,391.4,516.7,391.4,518z"/>
	<path d="M425.5,515.4c0-1.9-0.2-3.7-0.5-5.5c-0.3-1.8-0.8-3.6-1.3-5.3c-0.6-1.7-1.2-3.3-2-4.8c-0.8-1.5-1.6-2.9-2.5-4.2l2.5-1.6
		c1,1.3,1.9,2.8,2.8,4.4c0.9,1.6,1.6,3.3,2.2,5.2c0.6,1.8,1.1,3.8,1.5,5.8c0.4,2,0.5,4,0.5,6.1c0,2.1-0.2,4.1-0.5,6.1
		c-0.4,2-0.8,3.9-1.5,5.7c-0.6,1.8-1.4,3.6-2.2,5.2c-0.9,1.6-1.8,3.1-2.8,4.4l-2.5-1.6c0.9-1.3,1.7-2.7,2.5-4.2
		c0.8-1.5,1.5-3.2,2-4.8c0.6-1.7,1-3.5,1.3-5.3C425.4,519.1,425.5,517.2,425.5,515.4z"/>
</g>
</svg>
