<svg id="Layer_1" data-name="Layer 1" xmlns="http://www.w3.org/2000/svg" viewBox="0 0 860.84 108.01"><title>basic01</title><rect x="1.64" y="1.64" width="105.57" height="104.74" style="fill:#d4ffd4"/><rect x="1.64" y="1.64" width="105.57" height="104.74" style="fill:none;stroke:#000;stroke-miterlimit:10;stroke-width:3.273585081100464px"/><text transform="translate(18.98 66.96) scale(1.01 1)" style="font-size:29.339649200439453px;font-family:InconsolataForPowerline-g, Inconsolata-g for Powerline">x[0]</text><rect x="107.21" y="1.64" width="105.57" height="104.74" style="fill:#d4ffd4"/><rect x="107.21" y="1.64" width="105.57" height="104.74" style="fill:none;stroke:#000;stroke-miterlimit:10;stroke-width:3.273585081100464px"/><text transform="translate(124.56 66.96) scale(1.01 1)" style="font-size:29.339649200439453px;font-family:InconsolataForPowerline-g, Inconsolata-g for Powerline">x[1]</text><rect x="307.44" y="1.64" width="105.57" height="104.74" style="fill:#ffdede"/><rect x="307.44" y="1.64" width="105.57" height="104.74" style="fill:none;stroke:#000;stroke-miterlimit:10;stroke-width:3.273585081100464px"/><rect x="413.01" y="1.64" width="105.57" height="104.74" style="fill:#ffdede"/><rect x="413.01" y="1.64" width="105.57" height="104.74" style="fill:none;stroke:#000;stroke-miterlimit:10;stroke-width:3.273585081100464px"/><text transform="translate(239.14 81.34) scale(1.04 1)" style="font-size:76.20835876464844px;fill:red;font-family:InconsolataForPowerline-g, Inconsolata-g for Powerline">+</text><rect x="648.06" y="1.64" width="105.57" height="104.74" style="fill:#e2deff"/><rect x="648.06" y="1.64" width="105.57" height="104.74" style="fill:none;stroke:#000;stroke-miterlimit:10;stroke-width:3.273585081100464px"/><rect x="753.63" y="1.64" width="105.57" height="104.74" style="fill:#e2deff"/><rect x="753.63" y="1.64" width="105.57" height="104.74" style="fill:none;stroke:#000;stroke-miterlimit:10;stroke-width:3.273585081100464px"/><text transform="translate(559.75 80.91) scale(1.01 1)" style="font-size:78.2391586303711px;font-family:InconsolataForPowerline-g, Inconsolata-g for Powerline">=</text><text transform="translate(665.41 39.99) scale(1.01 1)" style="font-size:29.339649200439453px;font-family:InconsolataForPowerline-g, Inconsolata-g for Powerline">x[0]</text><text transform="translate(770.99 39.99) scale(1.01 1)" style="font-size:29.339649200439453px;font-family:InconsolataForPowerline-g, Inconsolata-g for Powerline">x[1]</text><text transform="translate(324.82 66.97) scale(1.01 1)" style="font-size:29.339649200439453px;font-family:InconsolataForPowerline-g, Inconsolata-g for Powerline">y[0]</text><text transform="translate(430.39 66.97) scale(1.01 1)" style="font-size:29.339649200439453px;font-family:InconsolataForPowerline-g, Inconsolata-g for Powerline">y[1]</text><text transform="translate(665.46 90.18) scale(1.01 1)" style="font-size:29.339649200439453px;font-family:InconsolataForPowerline-g, Inconsolata-g for Powerline">y[0]</text><text transform="translate(771.04 90.18) scale(1.01 1)" style="font-size:29.339649200439453px;font-family:InconsolataForPowerline-g, Inconsolata-g for Powerline">y[1]</text><text transform="translate(687.48 69.34) scale(1.01 1)" style="font-size:39.61842727661133px;fill:red;font-family:InconsolataForPowerline-g, Inconsolata-g for Powerline">+</text><text transform="translate(793.7 69.34) scale(1.01 1)" style="font-size:39.61842727661133px;fill:red;font-family:InconsolataForPowerline-g, Inconsolata-g for Powerline">+</text></svg>