<svg id="Layer_1" data-name="Layer 1" xmlns="http://www.w3.org/2000/svg" viewBox="0 0 1744.34 546.2"><title>basic-02</title><line x1="265.19" y1="342.54" x2="265.19" y2="203.2" style="fill:none;stroke:#000;stroke-width:4px"/><line x1="884" y1="304.6" x2="884" y2="108.54" style="fill:none;stroke:#000;stroke-width:4px"/><rect x="574" y="13.2" width="624" height="100" style="fill:#f8f8f8"/><rect x="574" y="13.2" width="624.01" height="100" style="fill:none;stroke:#bcbebf;stroke-width:5px;stroke-dasharray:10,10"/><text transform="translate(612.52 77.2)" style="font-size:60px;font-family:Consolas, Consolas">Array&lt;Type, Size&gt;</text><rect x="6" y="297.2" width="550.59" height="100" style="fill:#e5ecff"/><rect x="6" y="297.2" width="550.59" height="100" style="fill:none;stroke:#bcbebf;stroke-width:5px;stroke-dasharray:10,10"/><text transform="translate(44.52 361.2)" style="font-size:60px;font-family:Consolas, Consolas">Array&lt;<tspan x="197.93" y="0" style="font-family:Consolas-Bold, Consolas;font-weight:700">float</tspan><tspan x="362.87" y="0">, 4&gt;</tspan></text><rect x="582.57" y="297.2" width="550.59" height="100" style="fill:#e5ffe6"/><rect x="582.57" y="297.2" width="550.59" height="100" style="fill:none;stroke:#bcbebf;stroke-width:5px;stroke-dasharray:10,10"/><text transform="translate(621.52 361.2)" style="font-size:60px;font-family:Consolas, Consolas">Array&lt;<tspan x="197.93" y="0" style="font-family:Consolas-Bold, Consolas;font-weight:700">float</tspan><tspan x="362.87" y="0">, 8&gt;</tspan></text><line x1="263.77" y1="205.2" x2="1451.95" y2="205.2" style="fill:none;stroke:#000;stroke-width:4px"/><line x1="1450.73" y1="342.54" x2="1450.73" y2="203.2" style="fill:none;stroke:#000;stroke-width:4px"/><rect x="1159.13" y="297.2" width="579.21" height="100" style="fill:#ffe9e5"/><rect x="1159.13" y="297.2" width="579.21" height="100" style="fill:none;stroke:#bcbebf;stroke-width:5px;stroke-dasharray:10,10"/><text transform="translate(1198.52 361.2)" style="font-size:60px;font-family:Consolas, Consolas">Array&lt;<tspan x="197.93" y="0" style="font-family:Consolas-Bold, Consolas;font-weight:700">float</tspan><tspan x="362.87" y="0">, 16&gt;</tspan></text><text transform="translate(197.58 461.2)" style="font-size:48px;font-family:AvenirNext-DemiBold, Avenir Next;font-weight:700">SSE 4.2</text><text transform="translate(810.99 461.2)" style="font-size:48px;font-family:AvenirNext-DemiBold, Avenir Next;font-weight:700"><tspan style="letter-spacing:-0.055999755859375em">A</tspan><tspan x="31.2" y="0">VX</tspan></text><text transform="translate(1357.94 461.2)" style="font-size:48px;font-family:AvenirNext-DemiBold, Avenir Next;font-weight:700"><tspan style="letter-spacing:-0.055999755859375em">A</tspan><tspan x="31.2" y="0">VX512</tspan></text><text transform="translate(1299.79 529.2)" style="font-size:48px;font-family:AvenirNext-Regular, Avenir Next">(if suppo<tspan x="192.05" y="0" style="letter-spacing:0.023996988932291668em">r</tspan><tspan x="210.48" y="0" style="letter-spacing:-0.004994710286458333em">t</tspan><tspan x="225.45" y="0">ed)</tspan></text><text transform="translate(708.92 529.2)" style="font-size:48px;font-family:AvenirNext-Regular, Avenir Next">(if suppo<tspan x="192.05" y="0" style="letter-spacing:0.023996988932291668em">r</tspan><tspan x="210.48" y="0" style="letter-spacing:-0.004994710286458333em">t</tspan><tspan x="225.45" y="0">ed)</tspan></text><text transform="translate(132.35 529.2)" style="font-size:48px;font-family:AvenirNext-Regular, Avenir Next">(if suppo<tspan x="192.05" y="0" style="letter-spacing:0.023996988932291668em">r</tspan><tspan x="210.48" y="0" style="letter-spacing:-0.004994710286458333em">t</tspan><tspan x="225.45" y="0">ed)</tspan></text></svg>