<svg id="Layer_1" data-name="Layer 1" xmlns="http://www.w3.org/2000/svg" viewBox="0 0 1714 1135.47"><defs><style>.cls-1,.cls-7,.cls-8{font-size:60px;}.cls-1{font-family:AvenirNext-Medium, Avenir Next;}.cls-2{letter-spacing:-0.06em;}.cls-3{letter-spacing:-0.02em;}.cls-4,.cls-7,.cls-8{font-family:Consolas, Consolas;}.cls-5{fill:#d4e6ff;}.cls-10,.cls-11,.cls-12,.cls-13,.cls-14,.cls-15,.cls-5,.cls-6,.cls-9{stroke:#000;stroke-miterlimit:10;}.cls-10,.cls-11,.cls-12,.cls-13,.cls-14,.cls-5,.cls-6,.cls-9{stroke-width:3px;}.cls-6{fill:#85b8ff;}.cls-8{fill:#b3b3b3;}.cls-9{fill:#f6ffd4;}.cls-10{fill:#e8ff8f;}.cls-11{fill:#d4ffd4;}.cls-12{fill:#8cff8c;}.cls-13{fill:#fcd9ff;}.cls-14{fill:#f68fff;}.cls-15{fill:none;stroke-width:4px;}</style></defs><title>enoki_dynamic_struct</title><path d="M1389.38,555.44c-3.75,0-9.71,0-16.21,5.07A34.64,34.64,0,0,0,1363,573.74c-7.57-15.67-19.13-18.29-23.72-18.29H1158.1c-5,0-15.26,0-23-15.61-.3-.66-.48-.66-1.67-.66-1.73,0-1.79,0-1.79,1.79,0,1.13,0,1.31,1,3.4,3.93,7.93,10.31,15.79,20.14,17.52,1.55.24,2.32.24,7.69.24h172c2.5,0,6.67,0,7.57.06,8.4.72,15.73,5.66,20.8,14.78.72,1.31.83,1.37,2.09,1.37s1.49-.06,2.09-1.19c3-5.36,8.76-13.11,18.83-14.72a13.53,13.53,0,0,1,2.92-.3h198c11.62,0,19.25-8,24-18,.89-1.79.89-2,.89-3.16,0-1.67,0-1.79-1.79-1.79-1.25,0-1.37.12-1.79.77-1.55,3.28-6.79,13.65-18.35,15.32-1.13.18-2,.18-6.85.18H1389.38"/><text class="cls-1" transform="translate(1262.69 653)"><tspan class="cls-2">P</tspan><tspan x="32.34" y="0">ac</tspan><tspan class="cls-3" x="94.5" y="0">k</tspan><tspan x="125.04" y="0">et </tspan><tspan class="cls-4" x="194.16" y="0">n</tspan></text><rect class="cls-5" x="593.14" y="10.53" width="105.57" height="104.74"/><rect class="cls-5" x="698.71" y="10.53" width="105.57" height="104.74"/><rect class="cls-5" x="804.29" y="10.53" width="105.57" height="104.74"/><rect class="cls-5" x="909.86" y="10.53" width="105.57" height="104.74"/><rect class="cls-6" x="1157.11" y="10.53" width="105.57" height="104.74"/><rect class="cls-6" x="1262.69" y="10.53" width="105.57" height="104.74"/><rect class="cls-6" x="1368.26" y="10.53" width="105.57" height="104.74"/><rect class="cls-6" x="1473.83" y="10.53" width="105.57" height="104.74"/><text class="cls-7" transform="translate(17.63 79.4)">coord.time</text><text class="cls-8" transform="translate(1607.09 66.5)">...</text><rect class="cls-9" x="593.14" y="138.03" width="105.57" height="104.74"/><rect class="cls-9" x="698.71" y="138.03" width="105.57" height="104.74"/><rect class="cls-9" x="804.29" y="138.03" width="105.57" height="104.74"/><rect class="cls-9" x="909.86" y="138.03" width="105.57" height="104.74"/><rect class="cls-10" x="1157.11" y="138.03" width="105.57" height="104.74"/><rect class="cls-10" x="1262.69" y="138.03" width="105.57" height="104.74"/><rect class="cls-10" x="1368.26" y="138.03" width="105.57" height="104.74"/><rect class="cls-10" x="1473.83" y="138.03" width="105.57" height="104.74"/><text class="cls-7" transform="translate(17.63 206.9)">coord.pos.x()</text><text class="cls-8" transform="translate(1607.09 193.99)">...</text><rect class="cls-11" x="593.14" y="265.52" width="105.57" height="104.74"/><rect class="cls-11" x="698.71" y="265.52" width="105.57" height="104.74"/><rect class="cls-11" x="804.29" y="265.52" width="105.57" height="104.74"/><rect class="cls-11" x="909.86" y="265.52" width="105.57" height="104.74"/><rect class="cls-12" x="1157.11" y="265.52" width="105.57" height="104.74"/><rect class="cls-12" x="1262.69" y="265.52" width="105.57" height="104.74"/><rect class="cls-12" x="1368.26" y="265.52" width="105.57" height="104.74"/><rect class="cls-12" x="1473.83" y="265.52" width="105.57" height="104.74"/><text class="cls-7" transform="translate(17.63 334.39)">coord.pos.y()</text><text class="cls-8" transform="translate(1607.09 321.48)">...</text><rect class="cls-13" x="593.14" y="393.02" width="105.57" height="104.74"/><rect class="cls-13" x="698.71" y="393.02" width="105.57" height="104.74"/><rect class="cls-13" x="804.29" y="393.02" width="105.57" height="104.74"/><rect class="cls-13" x="909.86" y="393.02" width="105.57" height="104.74"/><rect class="cls-14" x="1157.11" y="393.02" width="105.57" height="104.74"/><rect class="cls-14" x="1262.69" y="393.02" width="105.57" height="104.74"/><rect class="cls-14" x="1368.26" y="393.02" width="105.57" height="104.74"/><rect class="cls-14" x="1473.83" y="393.02" width="105.57" height="104.74"/><text class="cls-7" transform="translate(17.63 461.88)">coord.valid</text><text class="cls-8" transform="translate(1607.09 448.98)">...</text><text class="cls-8" transform="translate(1041.64 66.5)">...</text><text class="cls-8" transform="translate(1041.64 193.99)">...</text><text class="cls-8" transform="translate(1041.64 321.48)">...</text><text class="cls-8" transform="translate(1041.64 448.98)">...</text><rect x="363.91" y="49.74" width="26.33" height="26.33" rx="12" ry="12"/><line class="cls-15" x1="377.07" y1="62.9" x2="560.2" y2="62.9"/><polygon points="548.97 77.72 555.26 62.91 548.97 48.09 584.08 62.91 548.97 77.72"/><rect x="453.91" y="177.23" width="26.33" height="26.33" rx="12" ry="12"/><line class="cls-15" x1="467.07" y1="190.4" x2="560.2" y2="190.4"/><polygon points="548.97 205.21 555.26 190.4 548.97 175.59 584.08 190.4 548.97 205.21"/><rect x="453.91" y="304.73" width="26.33" height="26.33" rx="12" ry="12"/><line class="cls-15" x1="467.07" y1="317.89" x2="560.2" y2="317.89"/><polygon points="548.97 332.7 555.26 317.89 548.97 303.08 584.08 317.89 548.97 332.7"/><rect x="392.91" y="432.22" width="26.33" height="26.33" rx="12" ry="12"/><line class="cls-15" x1="406.07" y1="445.39" x2="560.2" y2="445.39"/><polygon points="548.97 460.2 555.26 445.38 548.97 430.57 584.08 445.38 548.97 460.2"/><text class="cls-7" transform="translate(17.63 662.67)">ref.time</text><text class="cls-7" transform="translate(17.63 790.16)">ref.pos.x()</text><text class="cls-7" transform="translate(17.63 917.65)">ref.pos.y()</text><text class="cls-7" transform="translate(17.63 1045.15)">ref.valid</text><rect x="303.91" y="633" width="26.33" height="26.33" rx="12" ry="12"/><path class="cls-15" d="M317.07,646.17c165.53,0,566.15,27.08,658.93-65.69,107.82-107.82,39-355,83.33-417.33,18.95-26.64,51.88-38.64,74.23-43.91"/><polygon points="1125.17 136.05 1128.75 120.36 1119.94 106.89 1157.11 115.27 1125.17 136.05"/><path class="cls-15" d="M407.07,773.66C572.6,773.66,893.22,800.74,986,708c107.82-107.82,59-325,103.33-387.33,17.58-24.71,37.3-46.7,50.92-61"/><polygon points="1143.01 278.17 1136.88 263.29 1121.91 257.37 1157.11 242.77 1143.01 278.17"/><path class="cls-15" d="M407.07,898.61c165.53,0,486.15,27.08,578.93-65.69,107.82-107.82,79-355,123.33-417.33,11.4-16,20.93-26.76,28.41-33.91"/><polygon points="1138.06 400.72 1134.14 385.11 1120.18 377.1 1157.11 367.71 1138.06 400.72"/><path class="cls-15" d="M347.07,1026.1c165.53,0,566.15,27.08,658.93-65.69,107.82-107.82,69-355,113.33-417.33,9.43-13.25,16.63-22.88,22.09-29.87"/><polygon points="1145.52 531.51 1138.37 517.1 1123.02 512.24 1157.11 495.21 1145.52 531.51"/><rect x="393.91" y="760.49" width="26.33" height="26.33" rx="12" ry="12"/><rect x="393.91" y="887.99" width="26.33" height="26.33" rx="12" ry="12"/><rect x="332.91" y="1015.48" width="26.33" height="26.33" rx="12" ry="12"/></svg>