<svg id="Layer_1" data-name="Layer 1" xmlns="http://www.w3.org/2000/svg" viewBox="0 0 1714 754.46"><defs><style>.cls-1{fill:#d4e6ff;}.cls-1,.cls-4,.cls-5,.cls-6,.cls-9{stroke:#000;stroke-miterlimit:10;}.cls-1,.cls-4,.cls-5,.cls-6{stroke-width:3px;}.cls-2,.cls-3,.cls-7{font-size:60px;}.cls-2,.cls-3{font-family:Consolas, Consolas;}.cls-3{fill:#b3b3b3;}.cls-4{fill:#f6ffd4;}.cls-5{fill:#d4ffd4;}.cls-6{fill:#fcd9ff;}.cls-7{font-family:AvenirNext-Medium, Avenir Next;}.cls-8{letter-spacing:-0.02em;}.cls-9{fill:none;stroke-width:4px;}</style></defs><title>enoki_dynamic_struct</title><rect class="cls-1" x="593.14" y="10.53" width="105.57" height="104.74"/><rect class="cls-1" x="698.71" y="10.53" width="105.57" height="104.74"/><rect class="cls-1" x="804.29" y="10.53" width="105.57" height="104.74"/><rect class="cls-1" x="909.86" y="10.53" width="105.57" height="104.74"/><rect class="cls-1" x="1067.11" y="10.53" width="105.57" height="104.74"/><rect class="cls-1" x="1172.69" y="10.53" width="105.57" height="104.74"/><rect class="cls-1" x="1278.26" y="10.53" width="105.57" height="104.74"/><rect class="cls-1" x="1383.83" y="10.53" width="105.57" height="104.74"/><text class="cls-2" transform="translate(17.63 79.4)">coord.time</text><text class="cls-3" transform="translate(1517.09 66.5)">...</text><rect class="cls-4" x="593.14" y="138.03" width="105.57" height="104.74"/><rect class="cls-4" x="698.71" y="138.03" width="105.57" height="104.74"/><rect class="cls-4" x="804.29" y="138.03" width="105.57" height="104.74"/><rect class="cls-4" x="909.86" y="138.03" width="105.57" height="104.74"/><rect class="cls-4" x="1067.11" y="138.03" width="105.57" height="104.74"/><rect class="cls-4" x="1172.69" y="138.03" width="105.57" height="104.74"/><rect class="cls-4" x="1278.26" y="138.03" width="105.57" height="104.74"/><rect class="cls-4" x="1383.83" y="138.03" width="105.57" height="104.74"/><text class="cls-2" transform="translate(17.63 206.9)">coord.pos.x()</text><text class="cls-3" transform="translate(1517.09 193.99)">...</text><rect class="cls-5" x="593.14" y="265.52" width="105.57" height="104.74"/><rect class="cls-5" x="698.71" y="265.52" width="105.57" height="104.74"/><rect class="cls-5" x="804.29" y="265.52" width="105.57" height="104.74"/><rect class="cls-5" x="909.86" y="265.52" width="105.57" height="104.74"/><rect class="cls-5" x="1067.11" y="265.52" width="105.57" height="104.74"/><rect class="cls-5" x="1172.69" y="265.52" width="105.57" height="104.74"/><rect class="cls-5" x="1278.26" y="265.52" width="105.57" height="104.74"/><rect class="cls-5" x="1383.83" y="265.52" width="105.57" height="104.74"/><text class="cls-2" transform="translate(17.63 334.39)">coord.pos.y()</text><text class="cls-3" transform="translate(1517.09 321.48)">...</text><rect class="cls-6" x="593.14" y="393.02" width="105.57" height="104.74"/><rect class="cls-6" x="698.71" y="393.02" width="105.57" height="104.74"/><rect class="cls-6" x="804.29" y="393.02" width="105.57" height="104.74"/><rect class="cls-6" x="909.86" y="393.02" width="105.57" height="104.74"/><rect class="cls-6" x="1067.11" y="393.02" width="105.57" height="104.74"/><rect class="cls-6" x="1172.69" y="393.02" width="105.57" height="104.74"/><rect class="cls-6" x="1278.26" y="393.02" width="105.57" height="104.74"/><rect class="cls-6" x="1383.83" y="393.02" width="105.57" height="104.74"/><text class="cls-2" transform="translate(17.63 461.88)">coord.valid</text><text class="cls-3" transform="translate(1517.09 448.98)">...</text><path d="M1160.9,544.15c-4.86,0-12.57,0-21,6.56a44.84,44.84,0,0,0-13.19,17.13c-9.8-20.29-24.76-23.68-30.7-23.68H601.5c-6.48,0-19.75,0-29.78-20.21-.39-.85-.62-.85-2.16-.85-2.24,0-2.31,0-2.31,2.31,0,1.47,0,1.7,1.23,4.4,5.09,10.26,13.35,20.44,26.07,22.68,2,.31,3,.31,10,.31h482.64c3.24,0,8.64,0,9.8.08,10.88.93,20.37,7.33,26.92,19.13.93,1.7,1.08,1.77,2.7,1.77,1.77,0,1.93-.08,2.7-1.54,3.86-6.94,11.34-17,24.38-19.05a17.51,17.51,0,0,1,3.78-.39H1653.8c15,0,24.92-10.41,31.09-23.3,1.16-2.31,1.16-2.55,1.16-4.09,0-2.16,0-2.31-2.31-2.31-1.62,0-1.77.15-2.31,1-2,4.24-8.79,17.67-23.76,19.83-1.47.23-2.62.23-8.87.23H1160.9"/><text class="cls-7" transform="translate(747.07 653.97)">1000 entries in 250 pac<tspan class="cls-8" x="647.87" y="0">k</tspan><tspan x="678.41" y="0">ets</tspan></text><rect x="363.91" y="49.74" width="26.33" height="26.33" rx="12" ry="12"/><line class="cls-9" x1="377.07" y1="62.9" x2="560.2" y2="62.9"/><polygon points="548.97 77.72 555.26 62.91 548.97 48.09 584.08 62.91 548.97 77.72"/><rect x="453.91" y="177.23" width="26.33" height="26.33" rx="12" ry="12"/><line class="cls-9" x1="467.07" y1="190.4" x2="560.2" y2="190.4"/><polygon points="548.97 205.21 555.26 190.4 548.97 175.59 584.08 190.4 548.97 205.21"/><rect x="453.91" y="304.73" width="26.33" height="26.33" rx="12" ry="12"/><line class="cls-9" x1="467.07" y1="317.89" x2="560.2" y2="317.89"/><polygon points="548.97 332.7 555.26 317.89 548.97 303.08 584.08 317.89 548.97 332.7"/><rect x="392.91" y="432.22" width="26.33" height="26.33" rx="12" ry="12"/><line class="cls-9" x1="406.07" y1="445.39" x2="560.2" y2="445.39"/><polygon points="548.97 460.2 555.26 445.38 548.97 430.57 584.08 445.38 548.97 460.2"/></svg>