<?xml version="1.0" encoding="utf-8"?>
<!-- Generator: Adobe Illustrator 23.0.6, SVG Export Plug-In . SVG Version: 6.00 Build 0)  -->
<svg version="1.1" id="Layer_1" xmlns="http://www.w3.org/2000/svg" xmlns:xlink="http://www.w3.org/1999/xlink" x="0px" y="0px"
	 viewBox="0 0 1308.73 362" style="enable-background:new 0 0 1308.73 362;" xml:space="preserve">
<style type="text/css">
	.st0{fill:#A6A6A6;}
	.st1{fill:none;stroke:#E8E8E8;stroke-width:40;stroke-miterlimit:10;}
	.st2{fill:#E8E8E8;}
	.st3{fill:none;stroke:#E8E8E8;stroke-width:20;stroke-miterlimit:10;}
	.st4{fill:#D4FFD4;}
	.st5{fill:none;stroke:#000000;stroke-width:3.2736;stroke-miterlimit:10;}
	.st6{fill:#FFDEDE;}
	.st7{fill:#E2DEFF;}
	.st8{fill:#FF0000;}
	.st9{fill:#EEFCEE;}
	.st10{fill:#FFC2B4;}
	.st11{fill:#FFA691;stroke:#000000;stroke-width:3.2736;stroke-miterlimit:10;}
	.st12{fill:#FFDED6;stroke:#000000;stroke-width:3.2736;stroke-miterlimit:10;}
	.st13{fill:#7A7A7A;}
	.st14{fill:#D00023;}
	.st15{fill:#007F2F;}
	.st16{fill:#002F7F;}
	.st17{fill:#009E30;}
	.st18{fill:none;stroke:#000000;stroke-width:6;stroke-miterlimit:10;}
	.st19{fill:none;stroke:#000000;stroke-width:3;stroke-miterlimit:10;}
</style>
<rect x="57.73" y="121" class="st4" width="105.57" height="104.74"/>
<rect x="57.73" y="121" class="st5" width="105.57" height="104.74"/>
<g>
	<path d="M93.86,183.33h-3.64l-4.27-5.99l-4.22,5.99h-3.54l6.13-7.88l-5.84-7.82h3.51l4.16,6.03l4.08-6.03h3.39l-5.94,7.88
		L93.86,183.33z"/>
	<path d="M108.02,189.73h-7.77v-29.04h7.77v2.19h-5.15v24.66h5.15V189.73z"/>
	<path d="M128.91,173.12c0,1.56-0.16,2.99-0.47,4.27c-0.32,1.29-0.79,2.39-1.43,3.31c-0.64,0.92-1.44,1.64-2.39,2.14
		c-0.95,0.5-2.07,0.76-3.35,0.76c-1.1,0-2.11-0.21-3.01-0.62c-0.9-0.41-1.68-1.04-2.32-1.9c-0.64-0.85-1.13-1.94-1.48-3.27
		s-0.52-2.89-0.52-4.7c0-1.56,0.16-2.99,0.48-4.28c0.32-1.29,0.8-2.4,1.43-3.32c0.64-0.92,1.43-1.64,2.39-2.14
		c0.96-0.51,2.07-0.76,3.34-0.76c1.1,0,2.11,0.21,3.01,0.62c0.9,0.41,1.68,1.05,2.32,1.91c0.64,0.86,1.13,1.95,1.48,3.27
		S128.91,171.31,128.91,173.12z M116.72,173.03c0,0.32,0,0.65,0.01,0.97s0.02,0.64,0.06,0.94l8.71-6.39
		c-0.16-0.53-0.36-1.02-0.6-1.45s-0.53-0.82-0.87-1.13c-0.34-0.32-0.72-0.56-1.15-0.74c-0.43-0.18-0.91-0.27-1.45-0.27
		c-0.71,0-1.36,0.17-1.95,0.52c-0.58,0.34-1.08,0.86-1.49,1.54s-0.72,1.53-0.95,2.53C116.83,170.54,116.72,171.7,116.72,173.03z
		 M126.14,173.21c0-0.35-0.01-0.71-0.04-1.06c-0.03-0.35-0.05-0.69-0.09-1.02l-8.71,6.42c0.16,0.54,0.36,1.04,0.6,1.5
		c0.24,0.46,0.53,0.85,0.87,1.18s0.73,0.58,1.17,0.77c0.44,0.18,0.93,0.27,1.49,0.27c0.71,0,1.36-0.17,1.95-0.52
		c0.58-0.34,1.08-0.85,1.49-1.53c0.41-0.68,0.72-1.52,0.95-2.52C126.03,175.7,126.14,174.54,126.14,173.21z"/>
	<path d="M142.6,189.73h-7.77v-2.19h5.12v-24.66h-5.12v-2.19h7.77V189.73z"/>
</g>
<rect x="163.3" y="121" class="st4" width="105.57" height="104.74"/>
<rect x="163.3" y="121" class="st5" width="105.57" height="104.74"/>
<g>
	<path d="M199.43,183.33h-3.64l-4.27-5.99l-4.22,5.99h-3.54l6.13-7.88l-5.84-7.82h3.51l4.16,6.03l4.08-6.03h3.39l-5.94,7.88
		L199.43,183.33z"/>
	<path d="M213.59,189.73h-7.77v-29.04h7.77v2.19h-5.15v24.66h5.15V189.73z"/>
	<path d="M233.84,183.33H220.9v-2.53h5.29v-14.91l-4.93,2.66l-1.01-2.31l6.55-3.42h2.43v17.99h4.6V183.33z"/>
	<path d="M248.17,189.73h-7.77v-2.19h5.12v-24.66h-5.12v-2.19h7.77V189.73z"/>
</g>
<rect x="268.88" y="121" class="st4" width="105.57" height="104.74"/>
<rect x="268.88" y="121" class="st5" width="105.57" height="104.74"/>
<g>
	<path d="M305,183.33h-3.64l-4.27-5.99l-4.22,5.99h-3.54l6.13-7.88l-5.84-7.82h3.51l4.16,6.03l4.08-6.03h3.39l-5.94,7.88L305,183.33
		z"/>
	<path d="M319.17,189.73h-7.77v-29.04h7.77v2.19h-5.15v24.66h5.15V189.73z"/>
	<path d="M339.58,183.33h-13.56v-2.44l5.32-5.25c0.87-0.85,1.58-1.59,2.13-2.22c0.55-0.62,0.97-1.2,1.28-1.71
		c0.3-0.52,0.51-1,0.61-1.46c0.1-0.46,0.16-0.95,0.16-1.49c0-0.5-0.07-0.98-0.2-1.43c-0.14-0.45-0.35-0.85-0.63-1.2
		c-0.28-0.34-0.65-0.62-1.1-0.81c-0.45-0.2-0.99-0.3-1.62-0.3c-0.87,0-1.67,0.19-2.38,0.58c-0.71,0.39-1.37,0.89-1.97,1.5l-1.51-1.8
		c0.78-0.81,1.67-1.46,2.69-1.95c1.01-0.49,2.19-0.74,3.54-0.74c0.91,0,1.75,0.14,2.5,0.41c0.75,0.27,1.4,0.66,1.95,1.17
		c0.55,0.51,0.97,1.14,1.27,1.88c0.3,0.74,0.45,1.57,0.45,2.5c0,0.78-0.1,1.51-0.31,2.17c-0.21,0.67-0.53,1.33-0.95,1.99
		c-0.43,0.66-0.96,1.35-1.61,2.05c-0.65,0.71-1.41,1.49-2.29,2.33l-3.73,3.61h10V183.33z"/>
	<path d="M353.75,189.73h-7.77v-2.19h5.12v-24.66h-5.12v-2.19h7.77V189.73z"/>
</g>
<rect x="374.45" y="121" class="st4" width="105.57" height="104.74"/>
<rect x="374.45" y="121" class="st5" width="105.57" height="104.74"/>
<g>
	<path d="M410.58,183.33h-3.64l-4.27-5.99l-4.22,5.99h-3.54l6.13-7.88l-5.84-7.82h3.51l4.16,6.03l4.08-6.03h3.39l-5.94,7.88
		L410.58,183.33z"/>
	<path d="M424.74,189.73h-7.77v-29.04h7.77v2.19h-5.15v24.66h5.15V189.73z"/>
	<path d="M444.76,177.12c0,0.9-0.18,1.74-0.55,2.52s-0.92,1.47-1.65,2.06c-0.74,0.59-1.66,1.05-2.77,1.39
		c-1.11,0.34-2.41,0.51-3.89,0.51c-0.82,0-1.55-0.03-2.21-0.08s-1.26-0.12-1.83-0.2v-2.44c0.65,0.12,1.34,0.2,2.06,0.27
		s1.47,0.09,2.22,0.09c1.03,0,1.91-0.09,2.64-0.27c0.73-0.18,1.33-0.45,1.79-0.79c0.46-0.34,0.8-0.76,1.01-1.25
		c0.21-0.49,0.31-1.04,0.31-1.66c0-0.56-0.13-1.05-0.38-1.47c-0.25-0.42-0.61-0.77-1.06-1.05c-0.46-0.28-1-0.49-1.64-0.63
		s-1.33-0.21-2.09-0.21h-2.35v-2.24h2.38c0.62,0,1.18-0.08,1.69-0.24c0.51-0.16,0.95-0.39,1.31-0.7c0.36-0.3,0.64-0.67,0.83-1.12
		c0.19-0.44,0.29-0.95,0.29-1.51c0-1.09-0.34-1.89-1.01-2.39c-0.67-0.5-1.66-0.75-2.96-0.75c-0.69,0-1.41,0.07-2.14,0.2
		c-0.73,0.14-1.52,0.34-2.36,0.61v-2.38c0.36-0.12,0.74-0.24,1.14-0.34c0.4-0.1,0.81-0.18,1.21-0.25c0.4-0.07,0.81-0.12,1.21-0.16
		c0.4-0.04,0.78-0.05,1.15-0.05c1.09,0,2.05,0.12,2.88,0.35c0.83,0.23,1.52,0.57,2.08,1.01s0.98,0.97,1.26,1.59
		c0.28,0.63,0.43,1.33,0.43,2.11c0,1.17-0.3,2.15-0.91,2.94s-1.43,1.42-2.48,1.89c0.54,0.08,1.06,0.25,1.58,0.5s0.99,0.57,1.4,0.96
		c0.41,0.39,0.75,0.85,1.01,1.38C444.63,175.89,444.76,176.48,444.76,177.12z"/>
	<path d="M459.32,189.73h-7.77v-2.19h5.12v-24.66h-5.12v-2.19h7.77V189.73z"/>
</g>
<rect x="518.02" y="121" class="st4" width="105.57" height="104.74"/>
<rect x="518.02" y="121" class="st5" width="105.57" height="104.74"/>
<g>
	<path d="M554.15,183.33h-3.64l-4.27-5.99l-4.22,5.99h-3.54l6.13-7.88l-5.84-7.82h3.51l4.16,6.03l4.08-6.03h3.39l-5.94,7.88
		L554.15,183.33z"/>
	<path d="M568.31,189.73h-7.77v-29.04h7.77v2.19h-5.15v24.66h5.15V189.73z"/>
	<path d="M589.75,178.81h-3.51v4.52h-2.8v-4.52h-9.91v-2.39l8.78-13.52h3.94v13.52h3.51V178.81z M583.44,165.52l-7.17,10.89h7.17
		V165.52z"/>
	<path d="M602.89,189.73h-7.77v-2.19h5.12v-24.66h-5.12v-2.19h7.77V189.73z"/>
</g>
<rect x="623.6" y="121" class="st9" width="105.57" height="104.74"/>
<rect x="623.6" y="121" class="st5" width="105.57" height="104.74"/>
<rect x="729.17" y="121" class="st9" width="105.57" height="104.74"/>
<rect x="729.17" y="121" class="st5" width="105.57" height="104.74"/>
<rect x="834.74" y="121" class="st9" width="105.57" height="104.74"/>
<rect x="834.74" y="121" class="st5" width="105.57" height="104.74"/>
<g>
	<path d="M168.51,255.77h13.07c2.3,0,4.4,0.23,6.29,0.69c1.9,0.46,3.51,1.17,4.84,2.13c1.33,0.96,2.36,2.18,3.08,3.66
		c0.73,1.48,1.09,3.26,1.09,5.34c0,2.12-0.39,3.94-1.18,5.46c-0.79,1.52-1.88,2.76-3.27,3.72c-1.39,0.96-3.05,1.67-4.96,2.13
		c-1.92,0.46-3.98,0.69-6.2,0.69h-6.78v18.67h-5.99V255.77z M174.5,274.55h6.35c1.45,0,2.79-0.13,4.02-0.39
		c1.23-0.26,2.29-0.66,3.18-1.2c0.89-0.54,1.57-1.25,2.06-2.13c0.48-0.88,0.73-1.96,0.73-3.24c0-1.28-0.25-2.35-0.76-3.21
		c-0.5-0.86-1.19-1.56-2.06-2.1c-0.87-0.54-1.91-0.92-3.12-1.14s-2.52-0.33-3.93-0.33h-6.47V274.55z"/>
	<path d="M218.66,279.83c0-2.12-0.65-3.69-1.94-4.71c-1.29-1.02-3-1.53-5.14-1.53c-1.61,0-3.14,0.31-4.57,0.93
		c-1.43,0.62-2.63,1.41-3.6,2.37l-3.02-3.6c1.41-1.32,3.14-2.36,5.17-3.12c2.04-0.76,4.22-1.14,6.56-1.14
		c2.06,0,3.84,0.29,5.35,0.87s2.75,1.37,3.72,2.37c0.97,1,1.69,2.18,2.18,3.54c0.48,1.36,0.73,2.82,0.73,4.38v12.42
		c0,0.96,0.03,1.97,0.09,3.03c0.06,1.06,0.17,1.93,0.33,2.61h-5.14c-0.32-1.36-0.48-2.72-0.48-4.08h-0.18
		c-1.05,1.52-2.37,2.7-3.96,3.54c-1.59,0.84-3.48,1.26-5.66,1.26c-1.13,0-2.31-0.15-3.54-0.45c-1.23-0.3-2.35-0.79-3.36-1.47
		c-1.01-0.68-1.85-1.58-2.51-2.7c-0.67-1.12-1-2.5-1-4.14c0-2.16,0.58-3.87,1.75-5.13c1.17-1.26,2.7-2.22,4.6-2.88
		c1.9-0.66,4.03-1.09,6.41-1.29c2.38-0.2,4.78-0.3,7.2-0.3V279.83z M217.27,284.7c-1.41,0-2.87,0.06-4.39,0.18
		c-1.51,0.12-2.88,0.36-4.11,0.72c-1.23,0.36-2.25,0.9-3.06,1.62c-0.81,0.72-1.21,1.68-1.21,2.88c0,0.84,0.17,1.54,0.51,2.1
		c0.34,0.56,0.8,1.02,1.36,1.38c0.56,0.36,1.19,0.61,1.88,0.75c0.69,0.14,1.39,0.21,2.12,0.21c2.66,0,4.71-0.79,6.14-2.37
		c1.43-1.58,2.15-3.57,2.15-5.97v-1.5H217.27z"/>
	<path d="M253.68,277.01c-0.6-0.92-1.51-1.69-2.72-2.31c-1.21-0.62-2.5-0.93-3.87-0.93c-1.49,0-2.81,0.28-3.96,0.84
		c-1.15,0.56-2.13,1.31-2.93,2.25c-0.81,0.94-1.42,2.03-1.85,3.27c-0.42,1.24-0.63,2.54-0.63,3.9c0,1.36,0.21,2.66,0.63,3.9
		c0.42,1.24,1.04,2.33,1.85,3.27c0.81,0.94,1.79,1.69,2.96,2.25c1.17,0.56,2.5,0.84,3.99,0.84c1.45,0,2.77-0.28,3.96-0.84
		c1.19-0.56,2.17-1.32,2.93-2.28l3.81,3.42c-1.21,1.4-2.72,2.49-4.54,3.27c-1.81,0.78-3.87,1.17-6.17,1.17
		c-2.22,0-4.26-0.36-6.14-1.08c-1.88-0.72-3.5-1.73-4.87-3.03c-1.37-1.3-2.45-2.87-3.24-4.71c-0.79-1.84-1.18-3.9-1.18-6.18
		c0-2.24,0.38-4.28,1.15-6.12c0.77-1.84,1.83-3.42,3.21-4.74c1.37-1.32,2.99-2.34,4.87-3.06c1.88-0.72,3.9-1.08,6.08-1.08
		c2.02,0,4.02,0.4,6.02,1.2c2,0.8,3.58,1.96,4.75,3.48L253.68,277.01z"/>
	<path d="M269.29,282.18h0.18l12.04-12.36h7.62l-13.43,12.9l14.58,15.54h-7.86l-12.95-14.76h-0.18v14.76h-5.69v-45.37h5.69V282.18z"
		/>
	<path d="M321.08,283.8c0,0.32,0,0.64,0,0.96s-0.02,0.64-0.06,0.96h-22.81c0.04,1.19,0.31,2.32,0.82,3.37
		c0.5,1.05,1.18,1.97,2.03,2.74c0.85,0.78,1.82,1.38,2.93,1.82c1.11,0.44,2.29,0.66,3.54,0.66c1.94,0,3.61-0.42,5.02-1.26
		c1.41-0.84,2.52-1.86,3.33-3.06l3.99,3.18c-1.53,2.02-3.34,3.5-5.41,4.45c-2.08,0.95-4.39,1.43-6.93,1.43
		c-2.18,0-4.2-0.36-6.05-1.08c-1.86-0.72-3.45-1.73-4.78-3.03c-1.33-1.3-2.38-2.87-3.15-4.71c-0.77-1.84-1.15-3.88-1.15-6.12
		c0-2.2,0.37-4.23,1.12-6.09c0.75-1.86,1.79-3.45,3.12-4.77c1.33-1.32,2.91-2.35,4.73-3.09c1.82-0.74,3.78-1.11,5.88-1.11
		c2.1,0,4.01,0.34,5.73,1.02c1.72,0.68,3.17,1.66,4.37,2.94c1.19,1.28,2.11,2.83,2.76,4.65
		C320.75,279.47,321.08,281.52,321.08,283.8z M315.27,281.52c-0.04-1.12-0.23-2.17-0.57-3.15c-0.34-0.98-0.85-1.83-1.51-2.55
		c-0.67-0.72-1.49-1.29-2.48-1.71c-0.99-0.42-2.15-0.63-3.48-0.63c-1.21,0-2.35,0.21-3.42,0.63c-1.07,0.42-2,0.99-2.78,1.71
		c-0.79,0.72-1.43,1.57-1.94,2.55c-0.5,0.98-0.8,2.03-0.88,3.15H315.27z"/>
	<path d="M342.98,274.43h-7.62v14.78c0,1.71,0.32,2.94,0.97,3.68c0.64,0.74,1.67,1.11,3.09,1.11c0.52,0,1.09-0.05,1.69-0.17
		c0.6-0.11,1.15-0.27,1.63-0.5l0.18,4.62c-0.69,0.24-1.44,0.43-2.27,0.57c-0.83,0.14-1.68,0.21-2.57,0.21c-2.7,0-4.77-0.74-6.2-2.22
		c-1.43-1.48-2.15-3.7-2.15-6.66v-15.42h-5.5v-4.62h5.5v-8.16h5.63v8.16h7.62V274.43z"/>
	<path d="M381.93,298.26h-5.81v-35.41l-8.11,6.72l-3.45-4.02l12.15-9.78h5.21V298.26z"/>
</g>
<g>
	<path d="M628.8,255.77h13.07c2.3,0,4.4,0.23,6.29,0.69c1.9,0.46,3.51,1.17,4.84,2.13c1.33,0.96,2.36,2.18,3.08,3.66
		c0.73,1.48,1.09,3.26,1.09,5.34c0,2.12-0.39,3.94-1.18,5.46c-0.79,1.52-1.88,2.76-3.27,3.72c-1.39,0.96-3.05,1.67-4.96,2.13
		c-1.92,0.46-3.98,0.69-6.2,0.69h-6.78v18.67h-5.99V255.77z M634.79,274.55h6.35c1.45,0,2.79-0.13,4.02-0.39
		c1.23-0.26,2.29-0.66,3.18-1.2c0.89-0.54,1.57-1.25,2.06-2.13c0.48-0.88,0.73-1.96,0.73-3.24c0-1.28-0.25-2.35-0.76-3.21
		c-0.5-0.86-1.19-1.56-2.06-2.1c-0.87-0.54-1.91-0.92-3.12-1.14s-2.52-0.33-3.93-0.33h-6.47V274.55z"/>
	<path d="M678.95,279.83c0-2.12-0.65-3.69-1.94-4.71c-1.29-1.02-3-1.53-5.14-1.53c-1.61,0-3.14,0.31-4.57,0.93
		c-1.43,0.62-2.63,1.41-3.6,2.37l-3.02-3.6c1.41-1.32,3.14-2.36,5.17-3.12c2.04-0.76,4.22-1.14,6.56-1.14
		c2.06,0,3.84,0.29,5.35,0.87s2.75,1.37,3.72,2.37c0.97,1,1.69,2.18,2.18,3.54c0.48,1.36,0.73,2.82,0.73,4.38v12.42
		c0,0.96,0.03,1.97,0.09,3.03c0.06,1.06,0.17,1.93,0.33,2.61h-5.14c-0.32-1.36-0.48-2.72-0.48-4.08h-0.18
		c-1.05,1.52-2.37,2.7-3.96,3.54c-1.59,0.84-3.48,1.26-5.66,1.26c-1.13,0-2.31-0.15-3.54-0.45c-1.23-0.3-2.35-0.79-3.36-1.47
		c-1.01-0.68-1.85-1.58-2.51-2.7c-0.67-1.12-1-2.5-1-4.14c0-2.16,0.58-3.87,1.75-5.13c1.17-1.26,2.7-2.22,4.6-2.88
		c1.9-0.66,4.03-1.09,6.41-1.29c2.38-0.2,4.78-0.3,7.2-0.3V279.83z M677.56,284.7c-1.41,0-2.87,0.06-4.39,0.18
		c-1.51,0.12-2.88,0.36-4.11,0.72c-1.23,0.36-2.25,0.9-3.06,1.62c-0.81,0.72-1.21,1.68-1.21,2.88c0,0.84,0.17,1.54,0.51,2.1
		c0.34,0.56,0.8,1.02,1.36,1.38c0.56,0.36,1.19,0.61,1.88,0.75c0.69,0.14,1.39,0.21,2.12,0.21c2.66,0,4.71-0.79,6.14-2.37
		c1.43-1.58,2.15-3.57,2.15-5.97v-1.5H677.56z"/>
	<path d="M713.98,277.01c-0.6-0.92-1.51-1.69-2.72-2.31c-1.21-0.62-2.5-0.93-3.87-0.93c-1.49,0-2.81,0.28-3.96,0.84
		c-1.15,0.56-2.13,1.31-2.93,2.25c-0.81,0.94-1.42,2.03-1.85,3.27c-0.42,1.24-0.63,2.54-0.63,3.9c0,1.36,0.21,2.66,0.63,3.9
		c0.42,1.24,1.04,2.33,1.85,3.27c0.81,0.94,1.79,1.69,2.96,2.25c1.17,0.56,2.5,0.84,3.99,0.84c1.45,0,2.77-0.28,3.96-0.84
		c1.19-0.56,2.17-1.32,2.93-2.28l3.81,3.42c-1.21,1.4-2.72,2.49-4.54,3.27c-1.81,0.78-3.87,1.17-6.17,1.17
		c-2.22,0-4.26-0.36-6.14-1.08c-1.88-0.72-3.5-1.73-4.87-3.03c-1.37-1.3-2.45-2.87-3.24-4.71c-0.79-1.84-1.18-3.9-1.18-6.18
		c0-2.24,0.38-4.28,1.15-6.12c0.77-1.84,1.83-3.42,3.21-4.74c1.37-1.32,2.99-2.34,4.87-3.06c1.88-0.72,3.9-1.08,6.08-1.08
		c2.02,0,4.02,0.4,6.02,1.2c2,0.8,3.58,1.96,4.75,3.48L713.98,277.01z"/>
	<path d="M729.58,282.18h0.18l12.04-12.36h7.62L736,282.72l14.58,15.54h-7.86l-12.95-14.76h-0.18v14.76h-5.69v-45.37h5.69V282.18z"
		/>
	<path d="M781.37,283.8c0,0.32,0,0.64,0,0.96s-0.02,0.64-0.06,0.96H758.5c0.04,1.19,0.31,2.32,0.82,3.37
		c0.5,1.05,1.18,1.97,2.03,2.74c0.85,0.78,1.82,1.38,2.93,1.82c1.11,0.44,2.29,0.66,3.54,0.66c1.94,0,3.61-0.42,5.02-1.26
		c1.41-0.84,2.52-1.86,3.33-3.06l3.99,3.18c-1.53,2.02-3.34,3.5-5.41,4.45c-2.08,0.95-4.39,1.43-6.93,1.43
		c-2.18,0-4.2-0.36-6.05-1.08c-1.86-0.72-3.45-1.73-4.78-3.03c-1.33-1.3-2.38-2.87-3.15-4.71c-0.77-1.84-1.15-3.88-1.15-6.12
		c0-2.2,0.37-4.23,1.12-6.09c0.75-1.86,1.79-3.45,3.12-4.77c1.33-1.32,2.91-2.35,4.73-3.09c1.82-0.74,3.78-1.11,5.88-1.11
		c2.1,0,4.01,0.34,5.73,1.02c1.72,0.68,3.17,1.66,4.37,2.94c1.19,1.28,2.11,2.83,2.76,4.65
		C781.05,279.47,781.37,281.52,781.37,283.8z M775.56,281.52c-0.04-1.12-0.23-2.17-0.57-3.15c-0.34-0.98-0.85-1.83-1.51-2.55
		c-0.67-0.72-1.49-1.29-2.48-1.71c-0.99-0.42-2.15-0.63-3.48-0.63c-1.21,0-2.35,0.21-3.42,0.63c-1.07,0.42-2,0.99-2.78,1.71
		c-0.79,0.72-1.43,1.57-1.94,2.55c-0.5,0.98-0.8,2.03-0.88,3.15H775.56z"/>
	<path d="M803.27,274.43h-7.62v14.78c0,1.71,0.32,2.94,0.97,3.68c0.64,0.74,1.67,1.11,3.09,1.11c0.52,0,1.09-0.05,1.69-0.17
		c0.6-0.11,1.15-0.27,1.63-0.5l0.18,4.62c-0.69,0.24-1.44,0.43-2.27,0.57c-0.83,0.14-1.68,0.21-2.57,0.21c-2.7,0-4.77-0.74-6.2-2.22
		c-1.43-1.48-2.15-3.7-2.15-6.66v-15.42h-5.5v-4.62h5.5v-8.16h5.63v8.16h7.62V274.43z"/>
	<path d="M850.94,298.26h-27.95v-5.58l17.06-16.8c1.29-1.32,2.4-2.7,3.33-4.14c0.93-1.44,1.39-3.06,1.39-4.86
		c0-1.12-0.2-2.13-0.6-3.03c-0.4-0.9-0.95-1.67-1.63-2.31c-0.69-0.64-1.49-1.13-2.42-1.47c-0.93-0.34-1.92-0.51-2.96-0.51
		c-2.18,0-3.97,0.69-5.38,2.07c-1.41,1.38-2.3,3.15-2.66,5.31l-5.75-0.96c0.24-1.6,0.76-3.09,1.54-4.47
		c0.79-1.38,1.78-2.58,2.99-3.6s2.61-1.81,4.2-2.37c1.59-0.56,3.3-0.84,5.11-0.84c1.77,0,3.48,0.26,5.11,0.78
		c1.63,0.52,3.07,1.28,4.33,2.28c1.25,1,2.25,2.26,2.99,3.78c0.75,1.52,1.12,3.26,1.12,5.22c0,1.36-0.18,2.62-0.54,3.78
		c-0.36,1.16-0.86,2.26-1.48,3.3c-0.63,1.04-1.36,2.03-2.21,2.97c-0.85,0.94-1.73,1.87-2.66,2.79l-13.91,13.44h20.99V298.26z"/>
</g>
<g>
	<path d="M835.61,66.26c-0.08-0.72-0.14-1.53-0.18-2.43c-0.04-0.9-0.06-1.65-0.06-2.25h-0.12c-0.73,1.52-1.95,2.81-3.66,3.87
		c-1.71,1.06-3.62,1.59-5.72,1.59c-1.86,0-3.46-0.3-4.81-0.9c-1.35-0.6-2.46-1.43-3.33-2.49c-0.87-1.06-1.51-2.29-1.94-3.69
		s-0.64-2.9-0.64-4.5V37.81h5.69v15.73c0,1.16,0.09,2.27,0.27,3.33c0.18,1.06,0.51,1.99,1,2.79s1.15,1.44,2,1.92
		c0.85,0.48,1.94,0.72,3.27,0.72c2.3,0,4.15-0.85,5.57-2.55c1.41-1.7,2.12-3.97,2.12-6.81V37.81h5.69v22.33
		c0,0.76,0.02,1.74,0.06,2.94c0.04,1.2,0.1,2.26,0.18,3.18H835.61z"/>
	<path d="M855.76,37.81c0.08,0.72,0.14,1.53,0.18,2.43c0.04,0.9,0.06,1.65,0.06,2.25h0.18c0.36-0.76,0.86-1.47,1.48-2.13
		c0.62-0.66,1.34-1.24,2.15-1.74c0.81-0.5,1.69-0.89,2.66-1.17c0.97-0.28,1.98-0.42,3.02-0.42c1.85,0,3.45,0.31,4.78,0.93
		c1.33,0.62,2.44,1.45,3.33,2.49c0.89,1.04,1.54,2.26,1.97,3.66s0.64,2.9,0.64,4.5v17.65h-5.69V50.48c0-1.16-0.09-2.26-0.27-3.3
		c-0.18-1.04-0.51-1.96-1-2.76c-0.48-0.8-1.15-1.44-2-1.92c-0.85-0.48-1.94-0.72-3.27-0.72c-2.26,0-4.1,0.85-5.54,2.55
		c-1.43,1.7-2.15,3.97-2.15,6.81v15.12h-5.69V43.93c0-0.76-0.02-1.74-0.06-2.94c-0.04-1.2-0.1-2.26-0.18-3.18H855.76z"/>
	<path d="M906.03,66.26c-0.08-0.72-0.14-1.53-0.18-2.43c-0.04-0.9-0.06-1.65-0.06-2.25h-0.12c-0.73,1.52-1.95,2.81-3.66,3.87
		c-1.71,1.06-3.62,1.59-5.72,1.59c-1.86,0-3.46-0.3-4.81-0.9c-1.35-0.6-2.46-1.43-3.33-2.49c-0.87-1.06-1.51-2.29-1.94-3.69
		s-0.64-2.9-0.64-4.5V37.81h5.69v15.73c0,1.16,0.09,2.27,0.27,3.33c0.18,1.06,0.51,1.99,1,2.79s1.15,1.44,2,1.92
		c0.85,0.48,1.94,0.72,3.27,0.72c2.3,0,4.15-0.85,5.57-2.55c1.41-1.7,2.12-3.97,2.12-6.81V37.81h5.69v22.33
		c0,0.76,0.02,1.74,0.06,2.94c0.04,1.2,0.1,2.26,0.18,3.18H906.03z"/>
	<path d="M936.52,45.01c-0.65-1.04-1.55-1.89-2.72-2.55c-1.17-0.66-2.48-0.99-3.93-0.99c-0.65,0-1.29,0.07-1.94,0.21
		c-0.65,0.14-1.22,0.36-1.72,0.66c-0.5,0.3-0.91,0.68-1.21,1.14c-0.3,0.46-0.45,1.03-0.45,1.71c0,1.2,0.54,2.09,1.63,2.67
		s2.72,1.11,4.9,1.59c1.37,0.32,2.64,0.7,3.81,1.14c1.17,0.44,2.19,0.99,3.06,1.65c0.87,0.66,1.54,1.45,2.03,2.37
		c0.48,0.92,0.73,2,0.73,3.24c0,1.68-0.32,3.1-0.97,4.26c-0.65,1.16-1.5,2.11-2.57,2.85c-1.07,0.74-2.29,1.27-3.66,1.59
		c-1.37,0.32-2.78,0.48-4.23,0.48c-2.18,0-4.31-0.42-6.38-1.26c-2.08-0.84-3.8-2.12-5.17-3.84l4.05-3.42
		c0.77,1.12,1.82,2.06,3.18,2.82c1.35,0.76,2.83,1.14,4.45,1.14c0.73,0,1.42-0.07,2.09-0.21c0.67-0.14,1.27-0.37,1.81-0.69
		c0.54-0.32,0.98-0.74,1.3-1.26c0.32-0.52,0.48-1.18,0.48-1.98c0-1.32-0.64-2.3-1.91-2.94c-1.27-0.64-3.14-1.24-5.6-1.8
		c-0.97-0.24-1.95-0.53-2.93-0.87c-0.99-0.34-1.89-0.81-2.69-1.41c-0.81-0.6-1.46-1.35-1.97-2.25c-0.5-0.9-0.76-2.01-0.76-3.33
		c0-1.52,0.31-2.83,0.94-3.93c0.62-1.1,1.44-2,2.45-2.7c1.01-0.7,2.16-1.22,3.45-1.56c1.29-0.34,2.62-0.51,3.99-0.51
		c2.06,0,4.04,0.4,5.96,1.2c1.92,0.8,3.4,1.96,4.45,3.48L936.52,45.01z"/>
	<path d="M974.69,51.8c0,0.32,0,0.64,0,0.96s-0.02,0.64-0.06,0.96h-22.81c0.04,1.19,0.31,2.32,0.82,3.37
		c0.5,1.05,1.18,1.97,2.03,2.74c0.85,0.78,1.82,1.38,2.93,1.82c1.11,0.44,2.29,0.66,3.54,0.66c1.94,0,3.61-0.42,5.02-1.26
		c1.41-0.84,2.52-1.86,3.33-3.06l3.99,3.18c-1.53,2.02-3.34,3.5-5.41,4.45c-2.08,0.95-4.39,1.43-6.93,1.43
		c-2.18,0-4.2-0.36-6.05-1.08c-1.86-0.72-3.45-1.73-4.78-3.03c-1.33-1.3-2.38-2.87-3.15-4.71c-0.77-1.84-1.15-3.88-1.15-6.12
		c0-2.2,0.37-4.23,1.12-6.09c0.75-1.86,1.79-3.45,3.12-4.77c1.33-1.32,2.91-2.35,4.73-3.09c1.82-0.74,3.78-1.11,5.88-1.11
		c2.1,0,4.01,0.34,5.73,1.02c1.72,0.68,3.17,1.66,4.37,2.94c1.19,1.28,2.11,2.83,2.76,4.65C974.37,47.47,974.69,49.52,974.69,51.8z
		 M968.88,49.52c-0.04-1.12-0.23-2.17-0.57-3.15c-0.34-0.98-0.85-1.83-1.51-2.55c-0.67-0.72-1.49-1.29-2.48-1.71
		c-0.99-0.42-2.15-0.63-3.48-0.63c-1.21,0-2.35,0.21-3.42,0.63c-1.07,0.42-2,0.99-2.78,1.71c-0.79,0.72-1.43,1.57-1.94,2.55
		c-0.5,0.98-0.8,2.03-0.88,3.15H968.88z"/>
	<path d="M1005.42,61.76c-1.09,1.72-2.57,3.03-4.45,3.93s-3.84,1.35-5.9,1.35c-2.22,0-4.21-0.39-5.99-1.17
		c-1.77-0.78-3.29-1.85-4.54-3.21c-1.25-1.36-2.22-2.96-2.9-4.8c-0.69-1.84-1.03-3.8-1.03-5.88c0-2.08,0.34-4.03,1.03-5.85
		c0.69-1.82,1.66-3.41,2.93-4.77c1.27-1.36,2.79-2.42,4.57-3.18c1.77-0.76,3.73-1.14,5.87-1.14c2.34,0,4.38,0.49,6.11,1.47
		c1.73,0.98,3.1,2.17,4.11,3.57h0.12V20.89h5.69v45.37h-5.51v-4.5H1005.42z M986.55,52.01c0,1.32,0.2,2.59,0.6,3.83
		c0.4,1.24,1.01,2.33,1.81,3.29c0.81,0.96,1.79,1.73,2.96,2.3c1.17,0.58,2.54,0.87,4.11,0.87c1.45,0,2.77-0.28,3.96-0.84
		c1.19-0.56,2.21-1.31,3.05-2.24c0.85-0.94,1.5-2.02,1.97-3.26c0.46-1.24,0.7-2.53,0.7-3.89s-0.23-2.65-0.7-3.89
		c-0.46-1.24-1.12-2.33-1.97-3.29c-0.85-0.96-1.87-1.71-3.05-2.27c-1.19-0.56-2.51-0.84-3.96-0.84c-1.57,0-2.94,0.28-4.11,0.84
		c-1.17,0.56-2.16,1.32-2.96,2.27c-0.81,0.96-1.41,2.05-1.81,3.29C986.75,49.41,986.55,50.69,986.55,52.01z"/>
	<path d="M1062.89,51.8c0,0.32,0,0.64,0,0.96s-0.02,0.64-0.06,0.96h-22.81c0.04,1.19,0.31,2.32,0.82,3.37
		c0.5,1.05,1.18,1.97,2.03,2.74c0.85,0.78,1.82,1.38,2.93,1.82c1.11,0.44,2.29,0.66,3.54,0.66c1.94,0,3.61-0.42,5.02-1.26
		c1.41-0.84,2.52-1.86,3.33-3.06l3.99,3.18c-1.53,2.02-3.34,3.5-5.41,4.45c-2.08,0.95-4.39,1.43-6.93,1.43
		c-2.18,0-4.2-0.36-6.05-1.08c-1.86-0.72-3.45-1.73-4.78-3.03c-1.33-1.3-2.38-2.87-3.15-4.71c-0.77-1.84-1.15-3.88-1.15-6.12
		c0-2.2,0.37-4.23,1.12-6.09c0.75-1.86,1.79-3.45,3.12-4.77c1.33-1.32,2.91-2.35,4.73-3.09c1.82-0.74,3.78-1.11,5.88-1.11
		c2.1,0,4.01,0.34,5.73,1.02c1.72,0.68,3.17,1.66,4.37,2.94c1.19,1.28,2.11,2.83,2.76,4.65
		C1062.57,47.47,1062.89,49.52,1062.89,51.8z M1057.08,49.52c-0.04-1.12-0.23-2.17-0.57-3.15c-0.34-0.98-0.85-1.83-1.51-2.55
		c-0.67-0.72-1.49-1.29-2.48-1.71c-0.99-0.42-2.15-0.63-3.48-0.63c-1.21,0-2.35,0.21-3.42,0.63c-1.07,0.42-2,0.99-2.78,1.71
		c-0.79,0.72-1.43,1.57-1.94,2.55c-0.5,0.98-0.8,2.03-0.88,3.15H1057.08z"/>
	<path d="M1075.9,37.81c0.08,0.72,0.14,1.53,0.18,2.43c0.04,0.9,0.06,1.65,0.06,2.25h0.18c0.36-0.76,0.86-1.47,1.48-2.13
		c0.62-0.66,1.34-1.24,2.15-1.74c0.81-0.5,1.69-0.89,2.66-1.17c0.97-0.28,1.98-0.42,3.02-0.42c1.85,0,3.45,0.31,4.78,0.93
		c1.33,0.62,2.44,1.45,3.33,2.49c0.89,1.04,1.54,2.26,1.97,3.66s0.64,2.9,0.64,4.5v17.65h-5.69V50.48c0-1.16-0.09-2.26-0.27-3.3
		c-0.18-1.04-0.51-1.96-1-2.76c-0.48-0.8-1.15-1.44-2-1.92c-0.85-0.48-1.94-0.72-3.27-0.72c-2.26,0-4.1,0.85-5.54,2.55
		c-1.43,1.7-2.15,3.97-2.15,6.81v15.12h-5.69V43.93c0-0.76-0.02-1.74-0.06-2.94c-0.04-1.2-0.1-2.26-0.18-3.18H1075.9z"/>
	<path d="M1120,42.43h-7.62v14.78c0,1.71,0.32,2.94,0.97,3.68c0.64,0.74,1.67,1.11,3.09,1.11c0.52,0,1.09-0.05,1.69-0.17
		c0.6-0.11,1.15-0.27,1.63-0.5l0.18,4.62c-0.69,0.24-1.44,0.43-2.27,0.57c-0.83,0.14-1.68,0.21-2.57,0.21c-2.7,0-4.77-0.74-6.2-2.22
		c-1.43-1.48-2.15-3.7-2.15-6.66V42.43h-5.5v-4.62h5.5v-8.16h5.63v8.16h7.62V42.43z"/>
	<path d="M1125.81,40.99c-0.04-1.2-0.1-2.26-0.18-3.18h5.38c0.08,0.72,0.14,1.55,0.18,2.49c0.04,0.94,0.06,1.71,0.06,2.31h0.18
		c0.81-1.68,1.99-3.03,3.54-4.05c1.55-1.02,3.3-1.53,5.23-1.53c0.89,0,1.63,0.08,2.24,0.24l-0.24,5.22c-0.81-0.2-1.67-0.3-2.6-0.3
		c-1.37,0-2.56,0.25-3.57,0.75c-1.01,0.5-1.85,1.17-2.51,2.01c-0.67,0.84-1.16,1.81-1.48,2.91c-0.32,1.1-0.48,2.25-0.48,3.45v14.94
		h-5.69V43.93C1125.87,43.17,1125.85,42.19,1125.81,40.99z"/>
	<path d="M1154.42,27.55c0,1.04-0.37,1.9-1.11,2.58c-0.74,0.68-1.63,1.02-2.67,1.02c-1.04,0-1.92-0.35-2.64-1.05
		c-0.72-0.7-1.08-1.55-1.08-2.55c0-1.04,0.36-1.91,1.08-2.61c0.72-0.7,1.6-1.05,2.64-1.05c1.04,0,1.93,0.35,2.67,1.05
		C1154.05,25.64,1154.42,26.51,1154.42,27.55z M1153.51,66.26h-5.69V37.81h5.69V66.26z"/>
	<path d="M1190.23,51.8c0,0.32,0,0.64,0,0.96s-0.02,0.64-0.06,0.96h-22.81c0.04,1.19,0.31,2.32,0.82,3.37
		c0.5,1.05,1.18,1.97,2.03,2.74c0.85,0.78,1.82,1.38,2.93,1.82c1.11,0.44,2.29,0.66,3.54,0.66c1.94,0,3.61-0.42,5.02-1.26
		c1.41-0.84,2.52-1.86,3.33-3.06l3.99,3.18c-1.53,2.02-3.34,3.5-5.41,4.45c-2.08,0.95-4.39,1.43-6.93,1.43
		c-2.18,0-4.2-0.36-6.05-1.08c-1.86-0.72-3.45-1.73-4.78-3.03c-1.33-1.3-2.38-2.87-3.15-4.71c-0.77-1.84-1.15-3.88-1.15-6.12
		c0-2.2,0.37-4.23,1.12-6.09c0.75-1.86,1.79-3.45,3.12-4.77c1.33-1.32,2.91-2.35,4.73-3.09c1.82-0.74,3.78-1.11,5.88-1.11
		c2.1,0,4.01,0.34,5.73,1.02c1.72,0.68,3.17,1.66,4.37,2.94c1.19,1.28,2.11,2.83,2.76,4.65
		C1189.91,47.47,1190.23,49.52,1190.23,51.8z M1184.43,49.52c-0.04-1.12-0.23-2.17-0.57-3.15c-0.34-0.98-0.85-1.83-1.51-2.55
		c-0.67-0.72-1.49-1.29-2.48-1.71c-0.99-0.42-2.15-0.63-3.48-0.63c-1.21,0-2.35,0.21-3.42,0.63c-1.07,0.42-2,0.99-2.78,1.71
		c-0.79,0.72-1.43,1.57-1.94,2.55c-0.5,0.98-0.8,2.03-0.88,3.15H1184.43z"/>
	<path d="M1213.58,45.01c-0.65-1.04-1.55-1.89-2.72-2.55c-1.17-0.66-2.48-0.99-3.93-0.99c-0.65,0-1.29,0.07-1.94,0.21
		c-0.65,0.14-1.22,0.36-1.72,0.66c-0.5,0.3-0.91,0.68-1.21,1.14c-0.3,0.46-0.45,1.03-0.45,1.71c0,1.2,0.54,2.09,1.63,2.67
		s2.72,1.11,4.9,1.59c1.37,0.32,2.64,0.7,3.81,1.14c1.17,0.44,2.19,0.99,3.06,1.65c0.87,0.66,1.54,1.45,2.03,2.37
		c0.48,0.92,0.73,2,0.73,3.24c0,1.68-0.32,3.1-0.97,4.26c-0.65,1.16-1.5,2.11-2.57,2.85c-1.07,0.74-2.29,1.27-3.66,1.59
		c-1.37,0.32-2.78,0.48-4.23,0.48c-2.18,0-4.31-0.42-6.38-1.26c-2.08-0.84-3.8-2.12-5.17-3.84l4.05-3.42
		c0.77,1.12,1.82,2.06,3.18,2.82c1.35,0.76,2.83,1.14,4.45,1.14c0.73,0,1.42-0.07,2.09-0.21c0.67-0.14,1.27-0.37,1.81-0.69
		c0.54-0.32,0.98-0.74,1.3-1.26c0.32-0.52,0.48-1.18,0.48-1.98c0-1.32-0.64-2.3-1.91-2.94c-1.27-0.64-3.14-1.24-5.6-1.8
		c-0.97-0.24-1.95-0.53-2.93-0.87c-0.99-0.34-1.89-0.81-2.69-1.41c-0.81-0.6-1.46-1.35-1.97-2.25c-0.5-0.9-0.76-2.01-0.76-3.33
		c0-1.52,0.31-2.83,0.94-3.93c0.62-1.1,1.44-2,2.45-2.7c1.01-0.7,2.16-1.22,3.45-1.56c1.29-0.34,2.62-0.51,3.99-0.51
		c2.06,0,4.04,0.4,5.96,1.2c1.92,0.8,3.4,1.96,4.45,3.48L1213.58,45.01z"/>
</g>
<line class="st18" x1="799.3" y1="50" x2="685.42" y2="108.67"/>
</svg>
