<svg id="Layer_1" data-name="Layer 1" xmlns="http://www.w3.org/2000/svg" viewBox="0 0 1714 1135.47"><defs><style>.cls-1{fill:#ccc;}.cls-2,.cls-8{font-size:60px;}.cls-2{font-family:AvenirNext-Regular, Avenir Next;}.cls-3{letter-spacing:-0.06em;}.cls-4{letter-spacing:-0.02em;}.cls-5{font-family:AvenirNext-DemiBold, Avenir Next;font-weight:700;}.cls-6{fill:#d4e6ff;}.cls-10,.cls-11,.cls-12,.cls-13,.cls-14,.cls-15,.cls-6,.cls-7,.cls-9{stroke:#000;stroke-miterlimit:10;}.cls-10,.cls-11,.cls-12,.cls-13,.cls-14,.cls-6,.cls-7,.cls-9{stroke-width:3px;}.cls-7{fill:#85b8ff;}.cls-8{font-family:Consolas, Consolas;}.cls-9{fill:#f6ffd4;}.cls-10{fill:#e8ff8f;}.cls-11{fill:#d4ffd4;}.cls-12{fill:#8cff8c;}.cls-13{fill:#fcd9ff;}.cls-14{fill:#f68fff;}.cls-15{fill:none;stroke-width:4px;}</style></defs><title>enoki_dynamic_struct</title><circle class="cls-1" cx="1620.29" cy="444.98" r="13.2"/><circle class="cls-1" cx="1663.79" cy="444.98" r="13.2"/><circle class="cls-1" cx="1620.29" cy="317.89" r="13.2"/><circle class="cls-1" cx="1663.79" cy="317.89" r="13.2"/><circle class="cls-1" cx="1620.29" cy="190.4" r="13.2"/><circle class="cls-1" cx="1663.79" cy="190.4" r="13.2"/><circle class="cls-1" cx="1620.29" cy="62.9" r="13.2"/><circle class="cls-1" cx="1663.79" cy="62.9" r="13.2"/><circle class="cls-1" cx="1060.84" cy="444.98" r="13.2"/><circle class="cls-1" cx="1104.34" cy="444.98" r="13.2"/><circle class="cls-1" cx="1060.84" cy="317.89" r="13.2"/><circle class="cls-1" cx="1104.34" cy="317.89" r="13.2"/><circle class="cls-1" cx="1060.84" cy="190.4" r="13.2"/><circle class="cls-1" cx="1104.34" cy="190.4" r="13.2"/><circle class="cls-1" cx="1060.84" cy="62.9" r="13.2"/><circle class="cls-1" cx="1104.34" cy="62.9" r="13.2" transform="matrix(0.54, -0.84, 0.84, 0.54, 450.35, 955)"/><path d="M1389.38,555.44c-3.75,0-9.71,0-16.21,5.07A34.64,34.64,0,0,0,1363,573.74c-7.57-15.67-19.13-18.29-23.72-18.29H1158.1c-5,0-15.26,0-23-15.61-.3-.66-.48-.66-1.67-.66-1.73,0-1.79,0-1.79,1.79,0,1.13,0,1.31,1,3.4,3.93,7.93,10.31,15.79,20.14,17.52,1.55.24,2.32.24,7.69.24h172c2.5,0,6.67,0,7.57.06,8.4.72,15.73,5.66,20.8,14.78.72,1.31.83,1.37,2.09,1.37s1.49-.06,2.09-1.19c3-5.36,8.76-13.11,18.83-14.72a13.53,13.53,0,0,1,2.92-.3h198c11.62,0,19.25-8,24-18,.89-1.79.89-2,.89-3.16,0-1.67,0-1.79-1.79-1.79-1.25,0-1.37.12-1.79.77-1.55,3.28-6.79,13.65-18.35,15.32-1.13.18-2,.18-6.85.18H1389.38"/><text class="cls-2" transform="translate(1247.69 646.17)"><tspan class="cls-3">P</tspan><tspan x="31.2" y="0">ac</tspan><tspan class="cls-4" x="93.24" y="0">k</tspan><tspan x="122.76" y="0">et </tspan><tspan class="cls-5" x="191.1" y="0">i</tspan></text><rect class="cls-6" x="593.14" y="10.53" width="105.57" height="104.74"/><rect class="cls-6" x="698.71" y="10.53" width="105.57" height="104.74"/><rect class="cls-6" x="804.29" y="10.53" width="105.57" height="104.74"/><rect class="cls-6" x="909.86" y="10.53" width="105.57" height="104.74"/><rect class="cls-7" x="1157.11" y="10.53" width="105.57" height="104.74"/><rect class="cls-7" x="1262.69" y="10.53" width="105.57" height="104.74"/><rect class="cls-7" x="1368.26" y="10.53" width="105.57" height="104.74"/><rect class="cls-7" x="1473.83" y="10.53" width="105.57" height="104.74"/><text class="cls-8" transform="translate(17.63 79.4)">coord.time</text><rect class="cls-9" x="593.14" y="138.03" width="105.57" height="104.74"/><rect class="cls-9" x="698.71" y="138.03" width="105.57" height="104.74"/><rect class="cls-9" x="804.29" y="138.03" width="105.57" height="104.74"/><rect class="cls-9" x="909.86" y="138.03" width="105.57" height="104.74"/><rect class="cls-10" x="1157.11" y="138.03" width="105.57" height="104.74"/><rect class="cls-10" x="1262.69" y="138.03" width="105.57" height="104.74"/><rect class="cls-10" x="1368.26" y="138.03" width="105.57" height="104.74"/><rect class="cls-10" x="1473.83" y="138.03" width="105.57" height="104.74"/><text class="cls-8" transform="translate(17.63 206.9)">coord.pos.x()</text><rect class="cls-11" x="593.14" y="265.52" width="105.57" height="104.74"/><rect class="cls-11" x="698.71" y="265.52" width="105.57" height="104.74"/><rect class="cls-11" x="804.29" y="265.52" width="105.57" height="104.74"/><rect class="cls-11" x="909.86" y="265.52" width="105.57" height="104.74"/><rect class="cls-12" x="1157.11" y="265.52" width="105.57" height="104.74"/><rect class="cls-12" x="1262.69" y="265.52" width="105.57" height="104.74"/><rect class="cls-12" x="1368.26" y="265.52" width="105.57" height="104.74"/><rect class="cls-12" x="1473.83" y="265.52" width="105.57" height="104.74"/><text class="cls-8" transform="translate(17.63 334.39)">coord.pos.y()</text><rect class="cls-13" x="593.14" y="393.02" width="105.57" height="104.74"/><rect class="cls-13" x="698.71" y="393.02" width="105.57" height="104.74"/><rect class="cls-13" x="804.29" y="393.02" width="105.57" height="104.74"/><rect class="cls-13" x="909.86" y="393.02" width="105.57" height="104.74"/><rect class="cls-14" x="1157.11" y="393.02" width="105.57" height="104.74"/><rect class="cls-14" x="1262.69" y="393.02" width="105.57" height="104.74"/><rect class="cls-14" x="1368.26" y="393.02" width="105.57" height="104.74"/><rect class="cls-14" x="1473.83" y="393.02" width="105.57" height="104.74"/><text class="cls-8" transform="translate(17.63 461.88)">coord.valid</text><rect x="363.91" y="49.74" width="26.33" height="26.33" rx="12" ry="12"/><line class="cls-15" x1="377.07" y1="62.9" x2="560.2" y2="62.9"/><polygon points="548.97 77.72 555.26 62.91 548.97 48.09 584.08 62.91 548.97 77.72"/><rect x="453.91" y="177.23" width="26.33" height="26.33" rx="12" ry="12"/><line class="cls-15" x1="467.07" y1="190.4" x2="560.2" y2="190.4"/><polygon points="548.97 205.21 555.26 190.4 548.97 175.59 584.08 190.4 548.97 205.21"/><rect x="453.91" y="304.73" width="26.33" height="26.33" rx="12" ry="12"/><line class="cls-15" x1="467.07" y1="317.89" x2="560.2" y2="317.89"/><polygon points="548.97 332.7 555.26 317.89 548.97 303.08 584.08 317.89 548.97 332.7"/><rect x="392.91" y="432.22" width="26.33" height="26.33" rx="12" ry="12"/><line class="cls-15" x1="406.07" y1="445.39" x2="560.2" y2="445.39"/><polygon points="548.97 460.2 555.26 445.38 548.97 430.57 584.08 445.38 548.97 460.2"/><text class="cls-8" transform="translate(17.63 662.66)">ref.time</text><text class="cls-8" transform="translate(17.63 790.16)">ref.pos.x()</text><text class="cls-8" transform="translate(17.63 917.65)">ref.pos.y()</text><text class="cls-8" transform="translate(17.63 1045.15)">ref.valid</text><rect x="303.91" y="633" width="26.33" height="26.33" rx="12" ry="12"/><path class="cls-15" d="M330.24,647.1H828.5c112.87,0,136.3,8.2,171.52-26.65,26.54-26.26,27.33-37.57,28.16-122.7,1.44-147.28,3.35-357.15,3-405.34-.24-32,55.74-30.37,101.24-29.05"/><polygon points="1120.87 77.93 1127.46 63.25 1121.48 48.31 1156.28 63.84 1120.87 77.93"/><path class="cls-15" d="M406.24,773.76H824.5c112.87,0,171.62,6.89,206.83-28,26.54-26.26,22-36.27,22.85-121.4,1.44-147.28,3.35-357.15,3-405.34-.24-31.59,36.18-30.41,75.24-29.11"/><polygon points="1120.83 204.49 1127.47 189.83 1121.52 174.87 1156.28 190.5 1120.83 204.49"/><path class="cls-15" d="M413.24,900.6H851.5c112.87,0,171.62,6.89,206.83-28,26.54-26.26,22-36.27,22.85-121.4,1.44-147.28,3.35-357.15,3-405.34-.23-31,17.49-30.44,49.24-29.19"/><polygon points="1121.78 331.19 1128.47 316.56 1122.58 301.58 1157.28 317.34 1121.78 331.19"/><path class="cls-15" d="M350.24,1029.28H879.5c112.87,0,171.62,6.89,206.83-28,26.54-26.26,22-36.27,22.85-121.4,1.44-147.28,3.35-357.15,3-405.34-.22-29.91-.41-30.44,22.25-29.31"/><polygon points="1122.7 459.67 1129.47 445.07 1123.67 430.06 1158.28 446.01 1122.7 459.67"/><rect x="393.91" y="760.49" width="26.33" height="26.33" rx="12" ry="12"/><rect x="393.91" y="887.99" width="26.33" height="26.33" rx="12" ry="12"/><rect x="332.91" y="1015.48" width="26.33" height="26.33" rx="12" ry="12"/></svg>