<svg id="Layer_1" data-name="Layer 1" xmlns="http://www.w3.org/2000/svg" viewBox="0 0 1308.73 362"><defs><style>.cls-1{fill:#d4ffd4;}.cls-2,.cls-9{fill:none;stroke:#000;stroke-miterlimit:10;}.cls-2{stroke-width:3.27px;}.cls-3{font-size:32px;font-family:Consolas, Consolas;}.cls-4{fill:#eefcee;}.cls-5{font-size:60px;font-family:AvenirNext-Medium, Avenir Next;}.cls-6{letter-spacing:-0.06em;}.cls-7{letter-spacing:-0.02em;}.cls-8{letter-spacing:0em;}.cls-9{stroke-width:6px;}</style></defs><title>enoki-horiz-vs-vertical</title><rect class="cls-1" x="57.73" y="121" width="105.57" height="104.74"/><rect class="cls-2" x="57.73" y="121" width="105.57" height="104.74"/><text class="cls-3" transform="translate(77.08 183.33) scale(1.01 1)">x[0]</text><rect class="cls-1" x="163.3" y="121" width="105.57" height="104.74"/><rect class="cls-2" x="163.3" y="121" width="105.57" height="104.74"/><text class="cls-3" transform="translate(182.65 183.33) scale(1.01 1)">x[1]</text><rect class="cls-1" x="268.88" y="121" width="105.57" height="104.74"/><rect class="cls-2" x="268.88" y="121" width="105.57" height="104.74"/><text class="cls-3" transform="translate(288.23 183.33) scale(1.01 1)">x[2]</text><rect class="cls-1" x="374.45" y="121" width="105.57" height="104.74"/><rect class="cls-2" x="374.45" y="121" width="105.57" height="104.74"/><text class="cls-3" transform="translate(393.8 183.33) scale(1.01 1)">x[3]</text><rect class="cls-1" x="518.02" y="121" width="105.57" height="104.74"/><rect class="cls-2" x="518.02" y="121" width="105.57" height="104.74"/><text class="cls-3" transform="translate(537.37 183.33) scale(1.01 1)">x[4]</text><rect class="cls-4" x="623.6" y="121" width="105.57" height="104.74"/><rect class="cls-2" x="623.6" y="121" width="105.57" height="104.74"/><rect class="cls-4" x="729.17" y="121" width="105.57" height="104.74"/><rect class="cls-2" x="729.17" y="121" width="105.57" height="104.74"/><rect class="cls-4" x="834.74" y="121" width="105.57" height="104.74"/><rect class="cls-2" x="834.74" y="121" width="105.57" height="104.74"/><text class="cls-5" transform="translate(163.3 298.26) scale(1.01 1)"><tspan class="cls-6">P</tspan><tspan x="32.34" y="0">ac</tspan><tspan class="cls-7" x="94.5" y="0">k</tspan><tspan class="cls-8" x="125.04" y="0">et 1</tspan></text><text class="cls-5" transform="translate(623.6 298.26) scale(1.01 1)"><tspan class="cls-6">P</tspan><tspan x="32.34" y="0">ac</tspan><tspan class="cls-7" x="94.5" y="0">k</tspan><tspan class="cls-8" x="125.04" y="0">et 2</tspan></text><text class="cls-5" transform="translate(810.51 66.26) scale(1.01 1)">unused entries</text><line class="cls-9" x1="799.3" y1="50" x2="685.42" y2="108.67"/></svg>