<svg id="Layer_1" data-name="Layer 1" xmlns="http://www.w3.org/2000/svg" viewBox="0 0 853.61 854.38"><title>enoki</title><circle cx="426.81" cy="426.81" r="426.81" style="fill:#c1b49a"/><path d="M653.4,299.68a53.76,53.76,0,0,0-1.43-7.05c-4.34-15.83-18.47-27.7-36.57-31.56l1.18-2.15c11.94-6.32,18.93-18.63,18.45-33.72,0-1-.09-1.93-.18-2.9a27.27,27.27,0,0,0-.93-5c11.67-5.89,19.19-17.62,19.27-31.88A41,41,0,0,0,641,156.09c-5.7-5.46-17.1-12.21-27-14a31.42,31.42,0,0,0-5.56-.49,44.38,44.38,0,0,0-17.16,3.86,43.12,43.12,0,0,0-4.76-5.31,49.58,49.58,0,0,0,.42-5.62c.33-17.66-8.89-35.4-22.95-44.15A64.17,64.17,0,0,0,547.51,83a48.3,48.3,0,0,0-33.19-25.21l-8.62-6.7a78.31,78.31,0,0,0-20.89-10.51l-2.93-1-3.09-.1a65.56,65.56,0,0,0-10.42.48l0-.05V40c-21.13,2.69-37.93,15.56-44.78,33.52a51,51,0,0,0-13.3-10.6,39.38,39.38,0,0,0-18.45-4.49c-13.16,0-26,6.46-35.07,14.65a51.87,51.87,0,0,0-31,12.85L311.31,107a59.15,59.15,0,0,0-3.95,19.54,37.1,37.1,0,0,0-18.73,9.22l-3.19,3-1.6,3.77c-.22.38-.72,1.13-1.1,1.69-2.42,3.62-6.07,9.1-7.3,16.83a38.62,38.62,0,0,0-.48,7,34.36,34.36,0,0,0,5,17.06,47.58,47.58,0,0,0-18.54,36.51c0,.88,0,1.77,0,2.67.71,15.38,8.76,31.31,20.5,40.6a38.62,38.62,0,0,0,4.3,3c.15,9.43,3.55,17.94,9.62,24a30.59,30.59,0,0,0,9.12,6.29q-.54,1.13-1,2.38a40.36,40.36,0,0,0-1.7,5.32c-11.64,5.93-19.45,18.93-19.35,32.82a33.24,33.24,0,0,0,5.44,18.2c3.28,29.86,16.26,51.37,27.81,70.51l1.07,1.78a32.56,32.56,0,0,0-4.49,17c.1,12.66,6.64,23.85,16.52,29.69a78.35,78.35,0,0,0,12.3,11.71l.13.1a33.85,33.85,0,0,0-.86,8.23,34.35,34.35,0,0,0,.6,5.73,28.77,28.77,0,0,0,10.46,16.92c.69,2.57,1.3,5.43,1.93,8.46a150.78,150.78,0,0,0,4,16c4,12.12,9.76,23.29,18.22,35.16l.14.2c4.39,6.16,8.53,12,13.51,16.19,8.85,7.48,13.8,9.25,15.45,9.83a27.22,27.22,0,0,0,9.12,1.52,39.62,39.62,0,0,0,4-.23,29.69,29.69,0,0,0,7.09,1.12h.87a44,44,0,0,0,7-.64c.4-.06.8-.14,1.23-.18,2.07,0,4.29.12,6.64.22,4.38.2,9.15.39,14.07.16,1.63-.08,3.54-.09,5.57-.11,6.41-.07,13-.14,19.12-1.91l.38-.11A111.33,111.33,0,0,0,490.89,601c16-6.52,24.58-17.65,30.88-27.68.41-.65.84-1.32,1.28-2A54.68,54.68,0,0,0,529,560.42a42.6,42.6,0,0,0,2.35-14.68c0-.86,0-1.72,0-2.58v-1.49c0-.55,0-1,0-1.31.2-.68.69-2,1.06-3,.53-1.42,1.14-3,1.71-4.81a113.32,113.32,0,0,0,3.31-14.21l.16-.86c.72-3.84,1.1-8.31,1.5-13,.17-2,.42-5,.68-7.18l.42-.54c4.73-6.09,10.39-13.37,14.05-23.71,7.41-7,11.64-15.73,11.84-25a32.17,32.17,0,0,0-.74-7.6,27.48,27.48,0,0,0-12.23-17.58,46.5,46.5,0,0,1,7.15-7.35h.15c19.88,0,35.76-19.56,36.14-36.37,0-.92,0-1.86-.07-2.83a29.7,29.7,0,0,0-7.06-17.34c1.82-1,3.62-2,5.36-3.08,3.6-2.16,6.89-4.34,10.06-6.49a49.77,49.77,0,0,0,10.3,1.1h0c9.65,0,17.94-3,24-8.59,9.36-8.71,14.73-21.57,14.73-35.28A52.55,52.55,0,0,0,653.4,299.68Z" transform="translate(-19.69 -18.69)" style="fill:#ece6d9"/><path d="M352.54,426.77c-11.66-15-22.19-31.15-28.69-51.33,6.27,12.66,12.11,25,19.8,36.38,1.27,1.87,2.65,4,4,6.06C349.76,420.93,351.48,422.89,352.54,426.77Z" transform="translate(-19.69 -18.69)" style="fill:#231f20;fill-rule:evenodd"/><path d="M486.72,407.78a19,19,0,0,1-.41-6.47c1.44,1.25,1.39,4,2,6.06C487.61,407.32,487.48,407.87,486.72,407.78Z" transform="translate(-19.69 -18.69)" style="fill:#231f20;fill-rule:evenodd"/><path d="M423.67,402.12c-6.87-14.69-12.85-30.26-19.8-44.86,8.83,12.32,13.64,28.66,20.21,43.25C424.13,401.23,423.58,401.35,423.67,402.12Z" transform="translate(-19.69 -18.69)" style="fill:#231f20;fill-rule:evenodd"/><path d="M486.72,396.86c-2.21-2.28-1.23-7.79-.81-11.72C487.61,389,487.24,394.42,486.72,396.86Z" transform="translate(-19.69 -18.69)" style="fill:#231f20;fill-rule:evenodd"/><path d="M547.34,348c-.69.15-.76-.32-.81-.81,5.76-6.77,13.31-11.74,21-16.57C562.06,337.63,552.21,340.31,547.34,348Z" transform="translate(-19.69 -18.69)" style="fill:#231f20;fill-rule:evenodd"/><path d="M485.1,341.5c-.65.11-.7-.38-1.21-.4,1.65-16.09,1.36-31.31,2-47.69C487.85,307.75,486.41,327.42,485.1,341.5Z" transform="translate(-19.69 -18.69)" style="fill:#231f20;fill-rule:evenodd"/><path d="M576.44,325.33c5.65-5.66,13.55-9.08,19-15C591.64,316.29,583.87,321.72,576.44,325.33Z" transform="translate(-19.69 -18.69)" style="fill:#231f20;fill-rule:evenodd"/><path d="M621.7,310h-1.21c.48-1.54-.13-4.17,1.21-4.85C623.29,305.26,622.14,308.48,621.7,310Z" transform="translate(-19.69 -18.69)" style="fill:#231f20;fill-rule:evenodd"/><path d="M618.87,307.14c-1.85-.94.37-4.36-.4-6.87C620.74,300.59,619.7,306.1,618.87,307.14Z" transform="translate(-19.69 -18.69)" style="fill:#231f20;fill-rule:evenodd"/><path d="M612,297.44c-1.46-.37-.24-1.19-.4-2.42C613.56,295,612.46,296.67,612,297.44Z" transform="translate(-19.69 -18.69)" style="fill:#231f20;fill-rule:evenodd"/><path d="M608,295.83c-.06-1.28,0-2.44.81-2.83C610.5,293.08,609.25,296.18,608,295.83Z" transform="translate(-19.69 -18.69)" style="fill:#231f20;fill-rule:evenodd"/><path d="M603.51,293.81c.25-1.64,1.45-2.32,2.83-2.83Q606.52,294,603.51,293.81Z" transform="translate(-19.69 -18.69)" style="fill:#231f20;fill-rule:evenodd"/><path d="M598.66,291a36.49,36.49,0,0,0,4.85-1.62C603.81,291.52,599,293.24,598.66,291Z" transform="translate(-19.69 -18.69)" style="fill:#231f20;fill-rule:evenodd"/><path d="M332.74,278.85c-2.37-2.48-3.83-5.87-4.85-9.7C330.52,271.37,331.58,275.16,332.74,278.85Z" transform="translate(-19.69 -18.69)" style="fill:#231f20;fill-rule:evenodd"/><path d="M574,267.94c-.26-2,.93-4.57,2-6.87,1-2.12,2.5-4.42,3.64-6.47,2.39-4.27,4.65-9.38,8.08-12.12C583.39,251.18,578.61,259.48,574,267.94Z" transform="translate(-19.69 -18.69)" style="fill:#231f20;fill-rule:evenodd"/><path d="M418.42,267.13c-3.26-8.67-1.21-20.76-.4-29.5C419.18,247.94,417.42,257.19,418.42,267.13Z" transform="translate(-19.69 -18.69)" style="fill:#231f20;fill-rule:evenodd"/><path d="M403.06,265.52c-3.11-14-.1-37.08,2.83-50.52C404.33,229.88,402.74,250.52,403.06,265.52Z" transform="translate(-19.69 -18.69)" style="fill:#231f20;fill-rule:evenodd"/><path d="M531.17,244.1c-.47.07-.72-.09-.81-.4,2.45-8.05,4.67-16.34,7.68-23.84C537.17,227.73,533.92,236.74,531.17,244.1Z" transform="translate(-19.69 -18.69)" style="fill:#231f20;fill-rule:evenodd"/><path d="M419.63,227.53c-1.5-8.65,1.47-18.59,1.62-27.48C423.07,205.78,420.92,218.92,419.63,227.53Z" transform="translate(-19.69 -18.69)" style="fill:#231f20;fill-rule:evenodd"/><path d="M334,214.19c-4.77-8-6.53-19.07-8.89-29.5C329,192.9,330.89,204.09,334,214.19Z" transform="translate(-19.69 -18.69)" style="fill:#231f20;fill-rule:evenodd"/><path d="M528.75,206.92c-1.9.34-1.3-3.25-.81-4C529.39,203,529.5,205.87,528.75,206.92Z" transform="translate(-19.69 -18.69)" style="fill:#231f20;fill-rule:evenodd"/><path d="M532.79,206.51c-1.83.22-.94-2.29-1.62-3.23.72.05.85-.5,1.62-.4C533.1,203.83,533.59,205.67,532.79,206.51Z" transform="translate(-19.69 -18.69)" style="fill:#231f20;fill-rule:evenodd"/><path d="M431.35,179c1.72,1.65,2.53,4.21,4.44,5.66C433.89,186.5,430,181.84,431.35,179Z" transform="translate(-19.69 -18.69)" style="fill:#231f20;fill-rule:evenodd"/><path d="M551.38,185.09c-.49-3.86,2.55-7.68,4-10.91C555.58,177.71,552.51,181.51,551.38,185.09Z" transform="translate(-19.69 -18.69)" style="fill:#231f20;fill-rule:evenodd"/><path d="M421.25,184.28c-1.6.43-2-5,0-5.25A10.15,10.15,0,0,1,421.25,184.28Z" transform="translate(-19.69 -18.69)" style="fill:#231f20;fill-rule:evenodd"/><path d="M424.48,183.07c-1.27-.22-1.46-1.51-1.62-2.83C425,180.2,424.79,181.56,424.48,183.07Z" transform="translate(-19.69 -18.69)" style="fill:#231f20;fill-rule:evenodd"/><path d="M427.71,182.26q-2.16.14-2-2C426.54,179.51,427.83,180.8,427.71,182.26Z" transform="translate(-19.69 -18.69)" style="fill:#231f20;fill-rule:evenodd"/><path d="M613.21,177c-.95-.13-.91-1.25-1.62-1.62C612.58,173.38,615,175.82,613.21,177Z" transform="translate(-19.69 -18.69)" style="fill:#231f20;fill-rule:evenodd"/><path d="M605.13,176.2c-1.45-.31-.67-3.39.81-3.23C607.1,174.24,605.21,174.92,605.13,176.2Z" transform="translate(-19.69 -18.69)" style="fill:#231f20;fill-rule:evenodd"/><path d="M602.3,176.2c-.65.12-.69-.38-1.21-.4a5.78,5.78,0,0,1,1.62-3.23C603.55,173.17,602.5,175.29,602.3,176.2Z" transform="translate(-19.69 -18.69)" style="fill:#231f20;fill-rule:evenodd"/><path d="M608.77,175.8c-1.22,0-1.17-2.87.4-2.42C610.06,174.22,609.26,175.17,608.77,175.8Z" transform="translate(-19.69 -18.69)" style="fill:#231f20;fill-rule:evenodd"/><path d="M460,168.12c1.39.36,1.76,1.75,3.64,1.62C463.7,173.34,458.58,169.63,460,168.12Z" transform="translate(-19.69 -18.69)" style="fill:#231f20;fill-rule:evenodd"/><path d="M449.13,171.35c-1.39-.3-.71-3.75.81-3.64A5,5,0,0,1,449.13,171.35Z" transform="translate(-19.69 -18.69)" style="fill:#231f20;fill-rule:evenodd"/><path d="M459.64,170.54c-2.21-.08-2.64-1.94-2.83-4C459.08,166.52,459,168.92,459.64,170.54Z" transform="translate(-19.69 -18.69)" style="fill:#231f20;fill-rule:evenodd"/><path d="M495.61,170.14h-.81c-1.3-4.27,1.5-9.05,2.43-14.15,1.24-6.85.22-14.93,3.23-20.61C500,148.95,497.93,158.9,495.61,170.14Z" transform="translate(-19.69 -18.69)" style="fill:#231f20;fill-rule:evenodd"/><path d="M455.6,170.14c-1.62.3-2.82-2.36-1.21-2.83C455.76,167.28,455.58,168.81,455.6,170.14Z" transform="translate(-19.69 -18.69)" style="fill:#231f20;fill-rule:evenodd"/><path d="M452.77,170.14c-1.53.35-1.43-1.81-.81-2.43C453.49,167.37,453.39,169.52,452.77,170.14Z" transform="translate(-19.69 -18.69)" style="fill:#231f20;fill-rule:evenodd"/><path d="M565.52,169.73c-1.73-.37.15-3.44.4-4.45C568.7,166.24,565.73,168.2,565.52,169.73Z" transform="translate(-19.69 -18.69)" style="fill:#231f20;fill-rule:evenodd"/><path d="M548.14,166.91c-.71-1.27.43-4.14,2.43-4C550.33,164.78,549,165.62,548.14,166.91Z" transform="translate(-19.69 -18.69)" style="fill:#231f20;fill-rule:evenodd"/><path d="M562.29,166.1c0-1.44-.55-3.52,1.62-2.83C564.07,164.91,563.76,166.08,562.29,166.1Z" transform="translate(-19.69 -18.69)" style="fill:#231f20;fill-rule:evenodd"/><path d="M511.37,165.29h-1.21c-.66-1.59-.57-4.52,1.62-4.45C511.17,162.61,511.72,164,511.37,165.29Z" transform="translate(-19.69 -18.69)" style="fill:#231f20;fill-rule:evenodd"/><path d="M551.78,164.48c.5-1.25.33-3.17,2-3.23A2.13,2.13,0,0,1,551.78,164.48Z" transform="translate(-19.69 -18.69)" style="fill:#231f20;fill-rule:evenodd"/><path d="M514.6,163.67c-1.73-.24-1.38-3.57.81-3.23C515.45,161.83,515.62,163.34,514.6,163.67Z" transform="translate(-19.69 -18.69)" style="fill:#231f20;fill-rule:evenodd"/><path d="M518.64,160a2,2,0,0,1,0-2.43c1.27-.06,1.39,1,1.62,2A2.28,2.28,0,0,1,518.64,160Z" transform="translate(-19.69 -18.69)" style="fill:#231f20;fill-rule:evenodd"/><path d="M406.7,156.8c-1.83,0-3.15-2.66-1.62-3.64C406.3,153.69,406.77,155,406.7,156.8Z" transform="translate(-19.69 -18.69)" style="fill:#231f20;fill-rule:evenodd"/><path d="M414,156c-1-.62-2.39-2.47-1.62-3.64A2.31,2.31,0,0,1,414,156Z" transform="translate(-19.69 -18.69)" style="fill:#231f20;fill-rule:evenodd"/><path d="M409.93,156c-1.51-.51-1.58-2.46-2-4A2.66,2.66,0,0,1,409.93,156Z" transform="translate(-19.69 -18.69)" style="fill:#231f20;fill-rule:evenodd"/><path d="M402.66,156c-1.62.51-1.54-2.73-.81-3.23C403.09,152.87,403.07,155.46,402.66,156Z" transform="translate(-19.69 -18.69)" style="fill:#231f20;fill-rule:evenodd"/><path d="M400.23,156c-1.83.38-1.34-2.91-.81-3.64C400.78,153.08,399.63,154.21,400.23,156Z" transform="translate(-19.69 -18.69)" style="fill:#231f20;fill-rule:evenodd"/><path d="M483.89,139.42c-1.35-.68-1.76-2.28-2-4C484.47,134.9,485.17,138.42,483.89,139.42Z" transform="translate(-19.69 -18.69)" style="fill:#231f20;fill-rule:evenodd"/><path d="M469.74,139.42c-1.57-.63.26-3.4.4-4.85C472.07,135.25,470.42,138.72,469.74,139.42Z" transform="translate(-19.69 -18.69)" style="fill:#231f20;fill-rule:evenodd"/><path d="M466.51,139H465.3c-.53-1.26.73-3.71,2.42-4C468.57,136.6,466.76,137.34,466.51,139Z" transform="translate(-19.69 -18.69)" style="fill:#231f20;fill-rule:evenodd"/><path d="M473.38,138.62c.54-1.82-.86-3.21,1.62-3.24v2.83C474.27,138.16,474.14,138.71,473.38,138.62Z" transform="translate(-19.69 -18.69)" style="fill:#231f20;fill-rule:evenodd"/><path d="M425.29,129.72c-.68-.58-.91-4.12.81-3.64C426.6,126.8,426,129,425.29,129.72Z" transform="translate(-19.69 -18.69)" style="fill:#231f20;fill-rule:evenodd"/><path d="M500.86,128.51c-.38-4.15,1.51-9.54,2-14.15C503.85,118.75,503.35,125.39,500.86,128.51Z" transform="translate(-19.69 -18.69)" style="fill:#231f20;fill-rule:evenodd"/><path d="M422.86,125.68c.56-1.46.29-3.75,2-4C424.86,123.64,424.69,125.49,422.86,125.68Z" transform="translate(-19.69 -18.69)" style="fill:#231f20;fill-rule:evenodd"/><path d="M443.47,125.28c-2.91.84-3.45-5.62-1.21-6.06A39.87,39.87,0,0,0,443.47,125.28Z" transform="translate(-19.69 -18.69)" style="fill:#231f20;fill-rule:evenodd"/><path d="M342.84,124.07c-.37-1-.25-2.94,1.21-3.23C344.51,122,344.51,124,342.84,124.07Z" transform="translate(-19.69 -18.69)" style="fill:#231f20;fill-rule:evenodd"/><path d="M447.11,123.26a4.73,4.73,0,0,1-1.62-3.23C447.58,119.85,448.49,122.28,447.11,123.26Z" transform="translate(-19.69 -18.69)" style="fill:#231f20;fill-rule:evenodd"/><path d="M420.84,122c-.13-1.62.72-2.24.4-4C423.93,117.43,423.3,122.93,420.84,122Z" transform="translate(-19.69 -18.69)" style="fill:#231f20;fill-rule:evenodd"/><path d="M346.08,120.43c-1.1.29-.81-.8-1.62-.81.46-.76.48-1.95,2-1.62A3.44,3.44,0,0,1,346.08,120.43Z" transform="translate(-19.69 -18.69)" style="fill:#231f20;fill-rule:evenodd"/><path d="M549.76,120c-1.07.12-1-.84-1.21-1.62.36-.18.72-.35.81-.81C550.47,117.61,550.32,119.51,549.76,120Z" transform="translate(-19.69 -18.69)" style="fill:#231f20;fill-rule:evenodd"/><path d="M471.76,118.41c-.65.11-.7-.38-1.21-.4.4-6.32.58-11.59,1.21-18.19C472.89,106.3,471.55,112.15,471.76,118.41Z" transform="translate(-19.69 -18.69)" style="fill:#231f20;fill-rule:evenodd"/><path d="M457.21,118c-2.81-.83-3.89-3.39-4.85-6.06C455.14,112.8,456.55,115,457.21,118Z" transform="translate(-19.69 -18.69)" style="fill:#231f20;fill-rule:evenodd"/><path d="M544.51,117.6c-2.27,0-.65-3,.81-2.83,0,.57-.06,1.14.41,1.21C545.56,116.76,544.15,116.3,544.51,117.6Z" transform="translate(-19.69 -18.69)" style="fill:#231f20;fill-rule:evenodd"/><path d="M348.1,117.2a1.21,1.21,0,0,1-1.21-2A1.45,1.45,0,0,1,348.1,117.2Z" transform="translate(-19.69 -18.69)" style="fill:#231f20;fill-rule:evenodd"/><path d="M418.42,116.79c-1.81.45-2-2.82-1.21-3.64C418.68,113.3,417.83,115.76,418.42,116.79Z" transform="translate(-19.69 -18.69)" style="fill:#231f20;fill-rule:evenodd"/><path d="M538,116a2.78,2.78,0,0,1,2.83-2.83C540.58,114.65,539.24,116.67,538,116Z" transform="translate(-19.69 -18.69)" style="fill:#231f20;fill-rule:evenodd"/><path d="M456.81,112.35c1.6.15,2.23,1.27,2.43,2.83C457.72,116.16,456.06,113.54,456.81,112.35Z" transform="translate(-19.69 -18.69)" style="fill:#231f20;fill-rule:evenodd"/><path d="M532.79,115.17c-.24-2,1.77-2,2.83-1.62C535.6,115,534.43,115.33,532.79,115.17Z" transform="translate(-19.69 -18.69)" style="fill:#231f20;fill-rule:evenodd"/><path d="M401,114c-1.79.48-1.15-3.81.4-3.64C401.72,112,401.06,112.63,401,114Z" transform="translate(-19.69 -18.69)" style="fill:#231f20;fill-rule:evenodd"/><path d="M415.18,113.56c-.84.17-1.07-.28-1.62-.4.29-1.19.46-2.5,1.21-3.23C416.23,110.17,415.45,112.64,415.18,113.56Z" transform="translate(-19.69 -18.69)" style="fill:#231f20;fill-rule:evenodd"/><path d="M397.81,113.56c-.83-.35-.43-2.81,0-3.23C399.32,111.32,398.14,112.1,397.81,113.56Z" transform="translate(-19.69 -18.69)" style="fill:#231f20;fill-rule:evenodd"/><path d="M349.71,112.75c-1.19-.55-1.35-1.66-.4-2.43C350.5,110.88,350.65,112,349.71,112.75Z" transform="translate(-19.69 -18.69)" style="fill:#231f20;fill-rule:evenodd"/><path d="M353.35,112.35c-.72-.64-2.48-1.45-1.62-2.42C353.35,109.65,353.36,111,353.35,112.35Z" transform="translate(-19.69 -18.69)" style="fill:#231f20;fill-rule:evenodd"/><path d="M355.37,111.13c-1.8.44-1.93-2-1.21-2.83C355.08,109.08,356,109.85,355.37,111.13Z" transform="translate(-19.69 -18.69)" style="fill:#231f20;fill-rule:evenodd"/><path d="M411.55,110.73c-1.74-.27-.37-3.67,1.21-3.23A10.62,10.62,0,0,1,411.55,110.73Z" transform="translate(-19.69 -18.69)" style="fill:#231f20;fill-rule:evenodd"/><path d="M409.12,110.73c-1.61-.52-.52-3.56.81-3.64C409.9,108.54,409.3,109.43,409.12,110.73Z" transform="translate(-19.69 -18.69)" style="fill:#231f20;fill-rule:evenodd"/><path d="M358.2,109.52a2.27,2.27,0,0,1-1.21-3.64A3.13,3.13,0,0,1,358.2,109.52Z" transform="translate(-19.69 -18.69)" style="fill:#231f20;fill-rule:evenodd"/><path d="M366.28,104.67c1.88,0,2.17,1.6,2.83,2.83C367.92,108.36,365.41,105.86,366.28,104.67Z" transform="translate(-19.69 -18.69)" style="fill:#231f20;fill-rule:evenodd"/><path d="M362.24,106.69c-1.32.11-1.94-.48-2-1.62C361.22,104.12,362.76,104.91,362.24,106.69Z" transform="translate(-19.69 -18.69)" style="fill:#231f20;fill-rule:evenodd"/><path d="M387.3,103.86c-1.73,0-.94-2.56-1.62-3.64C387.76,99.9,387.21,102.19,387.3,103.86Z" transform="translate(-19.69 -18.69)" style="fill:#231f20;fill-rule:evenodd"/><path d="M390.13,102.65c-1.76-.11-.36-3.06,0-3.64C392,99.19,390.21,101.79,390.13,102.65Z" transform="translate(-19.69 -18.69)" style="fill:#231f20;fill-rule:evenodd"/><path d="M383.26,102.24c.76-.77-.24-.73,0-2C384.89,99.83,384.89,102.64,383.26,102.24Z" transform="translate(-19.69 -18.69)" style="fill:#231f20;fill-rule:evenodd"/><path d="M518.64,98.6c-1.54-.25-1.9-3.26-1.21-4.44A3.56,3.56,0,0,1,518.64,98.6Z" transform="translate(-19.69 -18.69)" style="fill:#231f20;fill-rule:evenodd"/><path d="M515,95.37h-1.21c.23-.71-.49-2.37.4-2.42C515.66,92.57,514.76,94.54,515,95.37Z" transform="translate(-19.69 -18.69)" style="fill:#231f20;fill-rule:evenodd"/><path d="M506.52,92.95c-.65.11-.69-.38-1.21-.4a2.21,2.21,0,0,1,2-2C507.65,91.92,506.88,92.23,506.52,92.95Z" transform="translate(-19.69 -18.69)" style="fill:#231f20;fill-rule:evenodd"/><path d="M497.63,92.95c-1.13-1.16.41-3.07,2-2.83C499.33,91.42,498.18,91.88,497.63,92.95Z" transform="translate(-19.69 -18.69)" style="fill:#231f20;fill-rule:evenodd"/><path d="M501.26,92.14q-.32-2.74,2.43-2.42A3,3,0,0,1,501.26,92.14Z" transform="translate(-19.69 -18.69)" style="fill:#231f20;fill-rule:evenodd"/><path d="M456,81.63c-1.57-.9.41-4.15,2-4.45C458,79.33,456.56,80,456,81.63Z" transform="translate(-19.69 -18.69)" style="fill:#231f20;fill-rule:evenodd"/><path d="M461.26,78.8c-1.22,0-1.32-3.71.4-3.23C462.1,76.66,461.74,77.64,461.26,78.8Z" transform="translate(-19.69 -18.69)" style="fill:#231f20;fill-rule:evenodd"/><path d="M465.7,76.38c-1.34.5-1-2.73-.4-2.83C466.64,73.05,466.29,76.28,465.7,76.38Z" transform="translate(-19.69 -18.69)" style="fill:#231f20;fill-rule:evenodd"/><path d="M472.17,75.17c-1.77.48-1.77-3.71,0-3.23C473,72.73,472.42,74.24,472.17,75.17Z" transform="translate(-19.69 -18.69)" style="fill:#231f20;fill-rule:evenodd"/><path d="M479.85,71.53c2,.2,2.72,1.59,3.64,2.83A2.59,2.59,0,0,1,479.85,71.53Z" transform="translate(-19.69 -18.69)" style="fill:#231f20;fill-rule:evenodd"/><path d="M475.4,74.36a1.52,1.52,0,0,1-1.21-2.43C476,71.72,475.82,73.29,475.4,74.36Z" transform="translate(-19.69 -18.69)" style="fill:#231f20;fill-rule:evenodd"/><path d="M583.31,309.57c-9.9-15.05,3.8-30.57,21-29.91,12.35.48,24.63,7,27.48,17.38,3.15,11.47-.51,22.37-6.87,28.29-4.62,4.3-15.52,3.66-23-.4-5.85,3.81-11.52,8-17.78,11.72-6,3.62-13,6.92-18.19,11.32s-9.51,9.53-13.74,14.14-9.31,8.89-11.32,15c3.66.15,7.71-2.79,11.72-3.64,5.75-8,22.24-7.64,23,3.23.6,8.27-11.93,21.24-19.8,15C538.29,403,524,419.47,524.71,447.79c.21-9.28,18-13.95,20.21-4,1.57,7.16-4.27,12.84-8.89,15.76-2.55,11.94-9.07,18.67-15.36,27.08-2.13,2.85-2.28,18.62-3.64,25.87A103.82,103.82,0,0,1,514.2,525c-1.3,4-3.26,8-3.64,11.72-.53,5.11.58,10.43-1.21,15.36-.86,2.37-3.32,5.81-5.25,8.89-5.35,8.51-11.12,15.36-21,19.4-2.22.91-6.1,2-8.89,2.83-4.75,1.38-13.07.9-19.8,1.21s-13.32-.37-19.8-.41c-3.13,0-5.7.88-8.49.81-1.66,0-3.8-1.09-6.06-1.21-2.9-.15-5.5.77-7.68,0-2.43-.86-6.59-4.12-8.89-6.06-3-2.54-6.56-7.56-10.1-12.53A107.71,107.71,0,0,1,378,535.49c-2.53-7.73-3.61-15.84-5.66-23.44a23.64,23.64,0,0,0-3.64-7.68c-1.93-2.61-5.76-4-6.47-7.68-1.15-6,2.22-10.44,4.45-14.14-5.75-10.28-17.69-14.38-23.44-24.65-11.58-2.11-14-24.48,2-23.44-14.11-26.86-34.44-49.6-36.37-87.3-9.72-7-3.27-24,6.87-24.66s21.16,16.27,9.7,22.23c3.51,31.39,19.7,50.08,33.54,71.13-.18-11.61-4.71-21.09-6.87-31.92-6.06-3.09-10.23-12.72-6.06-20.21-2.14-16-10-26.35-15.36-39.2-9.68,0-11.4-12.64-6.47-18.59,5.17-6.36,13.73-2.38,16.57,3.23.47.94.31,2.23.81,3.23,1,2.06,2.91,4.14,4.45,6.47a119.08,119.08,0,0,1,10.51,21.42c3.93-8.87-.43-13.29-4.85-19.4-10-13.77-21.12-26.3-28.69-42.43-25.15,5.46-16.91-37.2,3.64-30.72-1.53-2.65-6.36-5.49-10.51-6.87-2.9,8.72-12.47,13.22-21,6.47-5.9-4.66-12-14.51-12.53-25.06-.69-15,13.37-28.94,25.86-25.06,3.06,1,7.16,5.37,8.49,8.89,1,2.76-.44,8.51,3.64,8.89-.16-4.36-1.76-8.71-2.83-13.34-1.69-7.3-2.88-14.89-5.66-21.42-3.42.67-4.76,0-7.28-1.21-4.25-2-9.92-6.77-8.49-15.76.82-5.2,5-9,6.87-13.34,8.38-7.93,29.37-4.13,33.14,5.66,1.16-3.56,1.1-8.33,2.83-11.32-14.33-5-12.56-25.94-4.45-38a31,31,0,0,1,31.12-12.93c5.32-8.2,21.62-19.81,34.76-12.93,5.54,2.9,12.25,11,15.36,17a23,23,0,0,1,10.91,5.25c4.75-2.39,9.13-5.15,15-6.47-3.57-22,14.71-37.5,36.37-36.78,12.85.21,19.19,9.1,25.06,17.38,15.46-.69,26,9.91,29.1,24.25,8-.46,15.54,2.9,20.61,6.06,8.06,5,15,17.8,12.53,30.72-.85,4.51-5.75,9.65-10.51,10.91-3.51.93-6.49-1.2-10.1,0-2.32.77-3.73,4.29-4,6.47,8.07-3.75,15-6,23.44-4.85,16.78,2.23,24.84,39.46,1.21,36-2.33,1.85-3.17,5.18-4.85,7.68,11.7.74,20.46,7.79,20.61,21.42,2.07-3.75,4.81-8.9,9.29-8.89a70.35,70.35,0,0,0,6.06-16.57c-3.27-3.81-9-6.78-8.49-13.34.3-4.15,4.56-9,6.87-10.51,3.46-2.28,10.53-5.31,15.36-4.45,5.08.91,12.77,5.23,16.17,8.49,9,8.62,8.5,28.55-9.7,29.1-1.89,1.9-2,5.38-2.83,8.49-.76,2.9-2.23,5.86-2,8.89.15,2.22,1.81,4.21,2,6.47.83,9-2.74,16-12.13,17.78a485.6,485.6,0,0,1-38.8,61.83c2,5.31,1.23,12.91-1.62,19C568.62,317.52,577.6,315.18,583.31,309.57Zm-168.13,255c3.09,5.73,7.54,8.61,10.1,14.14,2.3.12,4.68,1.68,6.47,0-7.07-7.82-13.81-14.85-17.38-26.27-2.72-8.7-1.93-18.65-2.43-29.5-.18-3.92-.16-9.39-2.42-12.12-.08.6-1,.37-1.62.4C408.19,528.55,407.68,550.64,415.18,564.58Zm18.59-9.3c-.31,9.35,1.66,16,2.42,22.63,1,.62,3.13.1,4,.81C439.77,570.8,436.47,563.08,433.77,555.29Zm12.93,12.93c-.54,3.45.76,6.54,1.21,10.1h2C450.11,573.71,448.89,570.48,446.71,568.22Zm-1.61,8.89c-.07-7.71-3-14.6-3.64-21.82-.87-10.12,2.54-19.81,3.64-28.7.36-3,2.32-9.1-2-10.1-2.05,3.64-.87,7.76-1.21,12.13-.47,6.08-3,12.07-3.64,17.78-1.08,9.75,1.59,16.56,3.64,24.25.69,2.59-.52,6,2.42,7.68h.81Zm21-55.77c-1.75,6.35-5,12.28-7.68,18.19-2.52,5.56-5.92,13.93-6.87,19.4-1,6,.53,12.73,1.21,19H454c.09-.57.66-.68.81-1.21,1.47-3.75,1.79-9.09,2.42-14.14,1.3-10.25,5.4-16.64,8.08-25.46,2.8-9.19,3.6-20,5.25-29.91,1.24-7.43,3.24-14.61,4-22.63.22-2.2,1.64-4.87-1.62-5.66C467.94,493.57,469.85,507.76,466.11,521.34Zm7.27,49.3c13.39-10.37,18.27-35.38,17-55.36-1.54,1.37-2.48,4-2.83,5.66-2.32,11-2.08,21.4-5.66,30.72-4,10.39-9.83,17.29-15.76,25.86C470.17,576.82,475.26,574.84,473.38,570.64Zm-11.72,6.87c1.14-3.17,1.8-6.82,4.45-8.49a137.26,137.26,0,0,1,7.27-21.42c.79-1.73,3.4-4.9,0-5.66-5.44,11.15-8.16,27.11-15,35.56Zm-27.88-2.42c-2.75-8.55-1.72-18.94-2-27.89-1-29.11-10-50.86-19.81-71.94-1.66-3.55-4.27-16.71-6.47-17.38-1.23-.38-2.31.62-3.64.4,2.61,14.69,11.59,27.63,15.76,42,6.33,21.86,2.71,47,9.29,69.51,2.28,2.17,3.94,4.95,6.87,6.47Zm-25.06-21.82c-2.15-8.2-.66-16.45-2.42-26.27-.53-3-2.59-6-3.64-9.29s-1.75-7.24-2.83-10.51c-8.3-25.13-19.77-47.19-32.33-67.09-18.67-29.57-44.71-60.25-48.9-101-1.48.3-2.25-1-3.23,0-1.39,30.14,10.12,50.63,22.23,71.13,3.81,6.44,8.14,12.83,12.13,19,4.29,6.64,8.21,13.23,12.12,19.4,12.61,19.89,20.91,40.73,27.89,65.88,1,3.71,2.89,7.71,4,11.72s1,8.86,2.42,12.53c1.35,3.43,5.52,8,8.08,13.34,4.55,9.39,8.58,18.53,15,21.82A54.75,54.75,0,0,1,408.72,553.27Zm-12.93-8.49c.29,12.69,6.69,24.8,15.76,28.7C403.51,566.69,399.66,555.72,395.78,544.78Zm101.84,4.85c-.15,4.7-2.66,7-3.64,10.91-2.78,2.78-5.73,6.22-8.49,8.89-1.24,1.2-3.19,2.48-2.83,3.64,11-6.85,23.53-16.3,21.42-33.54C502.73,543.69,500.06,546.54,497.63,549.63Zm-2.83,2.42c-4.89,3.21-8.82,11.14-13.74,15.36-2.26,1.94-4.42,2.21-4.45,5.66C485.19,568.85,492.88,561.58,494.8,552.05Zm-17-71.53c-3.94,23.14-7.19,53.24-17,73.15-.8,6.45-2.17,14.19-2,19,4.48-5,4.84-10.35,7.68-18.59,2.16-6.24,5.26-10.63,5.66-16.57,1.62-1.88,2.75-4.26,5.66-4.85,2.61,1.26,3.56,5.53,2.43,9.29-8.38,6.17-9.33,21.92-13.74,30.72,6.82-7.37,12.89-16.51,15.76-28.7,1.82-7.73,1.69-16.17,3.23-23.84.39-2,1.88-3.72,2-5.66.31-4.25-.69-6.45,2.43-8.49-1.91-.67-1.1-2-1.21-3.23-1.12-11.6,1.07-23.34,0-35.16-.77-8.45-3.7-17.2-5.25-26.27-1.51-8.83-3.39-18-4-26.67-.4-5.23.37-16-1.62-18.59-1.22.59-1.42,2.62-2,4-3.79,9-7.77,16.49-5.66,27.88,2.15,11.61,5.68,23.67,5.66,34.35C483.42,463.37,484.1,477.55,477.82,480.52Zm-64.66,92.15c1.71-.42-.92-1.6-1.21-2-4.27-6.18-8-16-12.53-22.63C401.56,557.79,407.14,565.66,413.16,572.67Zm34.35-45.26c-2.13,11.73-7.45,29.76,1.62,39.6C448.08,551.67,450.73,540.75,447.52,527.4Zm-28.7-10.1a125.4,125.4,0,0,0-8.89-29.91,197.86,197.86,0,0,1-10.1-29.1c-3.85-2.19-3.11-9.6-.81-12.93-11.14-24.56-26.26-45.14-33.54-73.56-2.21.42-5.62-.59-6.47,2,3.09,21.93,15.09,39.66,23.84,58.2,9.94,21,16.69,44.5,24.65,67.09.83.92,3.6-.09,4,1.21,1.5,3,3,7.63.81,10.91,2.86,18,0,43.11,10.91,54.16C420.07,550.12,421.33,532.54,418.82,517.3Zm68.7,39.2c-2.74-.88-3.19,4.47-3.23,3.64C485.41,559,486.5,557.77,487.52,556.5Zm-93.76-21.42c-.57-5.74-4-12-5.66-17.78-2.32-8.14-2.61-16.17-5.66-21.42-1.41-2.43-5.05-5.2-8.89-3.23,3,7.27,4.23,16.66,6.47,25.87,3.56,14.65,8.92,28.73,16.17,39.61C393.71,551.34,394.55,542.94,393.76,535.08ZM500.05,544c4.43-6.56,7.89-16.82,10.51-26.27,2.7-9.75,4-21.6,4.44-31.93.87-21.78.82-44.76,6.47-64.66,4.38-15.45,15.17-26.65,27.48-33.95,2.56-1.52,6.16-1.91,8.08-4.85-1.11-3.31-4.52-1.7-6.47-1.21-11.18,2.79-17.57,8.82-23.44,15.76-3.63,4.29-6.5,8.23-8.49,13.74-10.67,29.65-5.77,75.58-15,106.69-1.87,6.34-5.24,14-8.89,18.19-1.1,1.27-3.12,1.6-3.64,3.23-.9,4.85-3.18,10.53-3.64,15.36C492,552.45,497.37,547.94,500.05,544Zm-60.62-25.86c-5.76-4-2.41-15.44,2.83-17.78-3.47-18.92-8.43-42.19-15.36-60.22.83,19.52,2.93,40.41,4.85,61,.89,9.63,2.59,19.19,2.42,28.29-.14,7.77-2,17,1.62,22.63C435.15,542,441,530.46,439.43,518.11Zm14.14,9.7c-1.66-14.74-4.12-30.74-2.42-45.26.74-6.37,3.75-12.81,3.23-19.4-3-.5-3.24,3.58-3.64,5.25-3,12.57-1.92,23.91-3.64,35.57,3.51,3.22,2.37,7.13,2,11.72-.8,10.46,4.29,27.1,2.83,35.16C455.89,544.29,454.53,536.21,453.58,527.81Zm24.65,7.68c-2.88-.19-3.77,1.62-4,4C476.59,543.38,480.49,539.48,478.23,535.49Zm-14.55-15.76c.27-3.2-.66-6.65-.81-10.1-.75-17.06.11-35.29,0-53.35.29,5.14-3.86,5.84-6.06,8.49-.05,5.21-2.47,10-3.23,15.36-2.75,19.24,2.27,40.65,4,56.18C458.75,530.85,463.16,525.82,463.68,519.72Zm31.93,9.7c1.06-1.75,2.57-3.2,3.23-4.85,2.63-6.57,2.36-19.4,2.83-27.08.68-11.13-1.3-22.16-1.21-33.14.11-14.61.14-29.69.81-43.24.28-5.73,1.92-11.62,2.83-17.38,2.76-17.47,6.55-34.94,7.27-52.94.51-12.49.18-27.22-1.21-36.78-.26-1.79.12-5-1.21-4.85-.95.13-1.52.64-2.83.4.79,16,1.45,31,.4,44.86-1.42,19-8.12,36.12-11.72,54.15-6.32,31.64-3.31,61.33-3.64,96.19,2.37.92,4.35,0,5.66,2,3,4.55-3.27,8.32-4,11.32-1.64,6.35.54,12.13-.4,17C493.95,533.21,494.38,531.44,495.61,529.42Zm-69.92-72.75c-.48-7.62-.47-15.45-1.21-23-1.3-13.35-7.08-26-11.32-38a209.3,209.3,0,0,0-15.36-34.35c4.46,19.76,10.07,37.3,14.55,57.39,3.47,15.58,4.57,28.43,5.26,46.88.21,5.55-.58,11.91.4,17.78.47,2.81,2.7,5.59,4,8.89,3.78,9.31,6.9,22.4,9.3,31.12C430.66,500.06,427,478.13,425.69,456.68Zm-21.82,50.52c-.15-2.23,1.57-4.55,1.61-6.87.09-4.46-3.32-11-5.25-16.16-6.22-16.64-10.54-33.56-17.38-48.09-8.37-17.8-18.59-33-23.84-52.54-.74-2.77-1.1-6.29-2.83-7.28,3.54,13.45,7.26,26.68,10.51,40s7.06,27.31,12.53,39.61c4,9.07,10.28,17.32,14.15,27.08,5,12.53,8.56,25.38,12.93,38.4,0,.25.06.48.4.4C407.72,516.14,404.09,510.65,403.87,507.19Zm90.93,0c-2.82-.53-3.48,1.1-5.66,1.22C487.19,516.37,498.51,513.87,494.8,507.19Zm-47.69,6.06c-.06-4.79-1.92-7.78-5.66-8.89-1.94,1.83-2.27,5.27-2.83,8.49C441.34,514.46,443.73,513.78,447.11,513.26Zm20.61-19.4c.63-4.87,2.2-11.84,2-15.76-.11-2.29-1.9-4.46-1.62-6.87.36-3.1,4.51-5.23,5.25-8.49.42-1.84-.11-6.11-.4-8.89a168.15,168.15,0,0,0-5.66-28.69c-2.16,27.1-3.72,56.43-2,84.06C466,504.05,467.06,498.91,467.72,493.86Zm-58.6,7.68c-2.43.8-3.39,3.08-3.23,6.47C411.58,511.94,413.13,503.55,409.12,501.54ZM534.41,359.28c-2-.95-3.5-2.43-5.26-3.64-8.28,13.27-15.41,29.79-20.61,46.07-1.83,5.74-4.34,11.92-4.85,17.78-2.43,27.9.58,58.09,0,88.91C511,457.18,508.54,395.77,534.41,359.28ZM445.49,491.84c.62-7.54,3.18-16.17,2.83-22.64-.18-3.32-2-7-3.23-10.5a80.84,80.84,0,0,1-2.83-11.32c-1.67-8-4.51-15.75-6.06-22.23-1.67-7-2.92-13.59-5.25-20.21-2.41-6.83-5.83-13.18-8.08-19.8-1.22-3.6-1.92-7.2-3.23-10.51a188.91,188.91,0,0,0-13.74-28.29c-3.46-5.66-7.28-11.17-10.91-17-14.4-23-31.47-44.46-40.82-70.73a44.28,44.28,0,0,0-7.68.4c2.66,8.85,7.12,17.08,11.31,25.06,10.33,19.65,23.26,38.64,33.55,59.41,3.48,7,7.33,13.7,10.91,20.61A205,205,0,0,1,414,390.8c12,34.84,23.32,69.54,31.12,109.93,0,.25.06.48.4.4C445.9,497.72,445.23,495.08,445.49,491.84Zm-64.66-.4c-.86-9.69-13.76-4.93-11.32,2A8.14,8.14,0,0,1,380.83,491.43ZM530,459.51c.88-2.1,3.54-5.38.4-6.87-1.78,4.69-2.81,8.68-5.25,12.94-3.11,5.41-9.12,9.12-7.68,15C522.53,476.52,527.09,466.36,530,459.51ZM372.34,470.82c-6.37-4.34-13.28-8.64-18.18-14.55-2.07-2.49-3.34-6.48-6.87-6.87-.8,2.15,1.38,4.3,2.43,5.66,1.37,1.78,2.68,3.69,4,5.25,6.4,7.41,17.15,11.33,22.23,19.4C375.12,476.4,373.36,474,372.34,470.82ZM479,476.48c1.58-4,.68-11-3.64-10.91-2.83.06-4.69,3.59-4.45,8.08C472.74,475.58,475.78,478.44,479,476.48Zm-63.45-1.21c2-47.42-13.66-80.27-21.42-121.65-7.42-13.19-13.62-27.6-21.82-40-.43,5.39,2.45,8.79,2,12.93,6.68,11.49,13.81,24.27,19,36.78,5.75,13.86,8.2,29.09,9.29,46.07.72,11.21-1.67,22.77,0,33.54,4.55,2.45,9.14,9.55,5.26,14.55,2.88,6,3.5,14.28,7.68,19Zm33.54-18.19c.15-1.67,1.56-3.24,2-4.85,1.09-3.83,1.6-8.54,2.42-12.93a250.07,250.07,0,0,1,6.06-24.65c1.18-4,3.27-8,4-11.72.63-3,.26-7.16.4-10.91.57-14.2,2.88-27.65,4.45-41.63,1.06-9.45,2.78-18.72,3.23-28.29.89-19.12,1.35-38.23,5.66-56.18-1.12-5-2.19-10.51-3.23-16.57-3.69,1.14-6.1-1.57-7.68-.4-2.45,23.81-2.71,43.08-6.46,65.47,2,.25,3-2.34,5.66-1.21,2.36,1,4.76,8.59,3.64,12.93-.63,2.44-3.15,2.86-3.64,4.45-.4,1.29.46,3.16.41,4.85-.49,16.21-3.89,32.16-8.49,48.5-4.38,15.55-9.07,31.91-10.51,48.09-1,10.92-1.26,24.23,2.83,31.52C451.1,461,448.87,460,449.13,457.08Zm9.3,3.23c2.91-1.42,4.18-9,.81-10.91-3.5,1.89-7,3.74-7.68,8.49,1.19.55,1.5,2,2.83,2.42C456.5,460.34,456.92,458.84,458.43,460.31Zm-52.14-4.85c2.34-3.23,0-8.41-3.64-9.29-1.73,1.2-1.19,4.59-2.42,5.25,0-1.07.22-2.38-.81-2.43-.26,3.13-.51,5.1,1.21,6.87C402.93,456.15,404,455.18,406.29,455.46Zm124.47-6.87c.07,6,9.12,3.5,6.47-4C533.5,444.63,530.73,445.72,530.77,448.6ZM490,426.77c.81-9.29,3.49-17.84,2.83-25.86-.77-9.35-2-17.68-2.42-28.29-2.3,5.78-9.92,11.83-10.1,19-.48,18.84,4.72,47.3,8.08,61C488.35,444.49,489.17,435.72,490,426.77Zm-15.76-28.29c5.92-15.13,13.17-26.71,23.84-38,4.41-4.66,8.08-7.22,5.66-14.55-28,23.23-42.64,59.74-50.11,103.46,2.85-1.74,9.17-4.77,10.1,2C462,429.35,467.76,414.94,474.19,398.48ZM348.1,446.57c.27-5.09-4-6.54-8.08-6.06-1.63,3.49.25,8.37,3.23,9.7C344.84,449,345,446.33,348.1,446.57Zm101.84-40.41c5.21-24.88,16-47.12,12.93-76.38-.59-.63-2.07-.36-3.23-.4-1.07,4,.15,7.69,0,11.72-1.35,36.06-28.72,70.59-15,105.89C444.17,431.07,447.22,419.17,449.94,406.16ZM399,438.89c-.06-10.31,1.81-19.6,1.62-29.91-.3-16.23-4.27-30.1-8.89-42.84a220.83,220.83,0,0,0-17-35.16c-12.87-22.1-33-37.43-42.43-61.83-.94-2.43-.53-5.11-2.83-6.87-2.35-1-3.92,1.92-6.47,2a190.08,190.08,0,0,0,25.86,42.43c14.12,17.87,27.56,37.12,34.76,61,.64,2.11,1.86,4.07,2.42,6.06,2,7.19,2.29,14.87,3.23,22.63.48,3.94,1.05,7.56,1.21,11.72.49,12.69,2.38,24.88,8.89,32.33A2.93,2.93,0,0,1,399,438.89Zm41.22-24.25c-2.67-7.45-1.85-17.38-2.42-26.67-.87-14-2.45-31.67-.81-46.88,1.18-10.93,2.85-21.34,4.85-31.12-2.57-.26-4.05-1.6-6.87-1.61a192.75,192.75,0,0,0-7.27,38.39c-1.26,13.79-2.72,28-.4,41.22,2.11,12.12,10.29,23,10.91,35.16,0,.25.06.48.4.4C439.51,420.92,439,416.86,440.24,414.65ZM376.79,356c1.82,14.22,6.45,31.32,4,50.11,3,4.39,4.64,10.17,8.08,14.15C388.19,399.63,385.62,372.42,376.79,356Zm146.3,42.84c1.51-2.1,4-4,5.25-6.06,1.13-1.83,1.86-5.1,2.83-7.68A72.22,72.22,0,0,0,536,360.09c-8.44,13.92-16,30.89-18.59,49.3C518.87,404.81,520.65,402.27,523.09,398.88Zm-76-14.14c-3.61-17.69-2.82-36.65-2.43-56.58.13-6.43,1.28-12,0-17-3.2,5.66-3.4,13.22-4.45,20.61s-2,15.53-1.62,23.44c.78,17.23.14,37.58,2.83,51.73A164.11,164.11,0,0,1,447.11,384.74ZM376,361.7c-2.1-11-4.39-22.06-11.32-28.29-.46,7.76-1.65,15.3,0,24.25,3.84,3.29,12,13.71,2.83,15a126.57,126.57,0,0,0,11.72,28.69A187.9,187.9,0,0,0,376,361.7Zm137,22.23c2.65-6.2,4.85-11.74,7.68-17.38,1.37-2.73,3.93-5.87,4.44-8.08.15-.63-.43-2.39-.4-3.23.11-4,2.1-7.86,1.21-12.53-4.1,2.1-8.06,7.84-12.53,10.91-.83,15.07-4,30.72-5.25,43.65C509.58,391.36,511.1,388.34,513,383.93Zm-9.29-25.87c-3.69,2.25-7.88,7.48-10.91,11.72,0,10.1-.05,20.26,2.83,27.48C498.5,384.61,502.2,370.81,503.69,358.06Zm-27.48,16.57c-.56-4.22-.31-10.16,0-16.57.63-12.85,1.9-28.34,3.23-43.24,1.34-15.07,1.48-30.28-1.62-42.84-3.25,18.93-2,37.12-4,55.77-2.54,23.08-7,45.93-6.87,67.09C469.31,387.41,473.54,381.8,476.21,374.64ZM570,377.06c-.87-4.49-11.47-5.94-12.53-.4-.43,2.25,3.24,9.16,5.25,9.7C565.07,383.69,570.91,381.93,570,377.06ZM457.21,344.32c.35-4.42,1-10.45,0-15-.37-1.71-2-3.36-2-5.26,0-1.66,1.15-4,1.61-6.06s1-4.49,1.21-6.47c2.34-17.62,4.31-34.23,5.25-52.13.72-13.68,1.06-27.83,4-40.82,2.83-12.32,6.18-24.24,8.89-36,2.91-12.58,3.34-25,3.64-37.18-3.5-1.23-6.1.19-10.51,0-1,5.85-1.07,12.67-2.83,17.78,6.68,1.89,13.3,13.85,6.06,18.59-3,2-8.89.7-12.12,2A656.31,656.31,0,0,1,452,276.43c-1.3,8.14-3,17.05-2.83,25.06,0,1.91,1.1,3.67.81,5.66-.26,1.78-1.59,3-2,4.85-1.06,4.52-1,11.54-1.21,17.78-.58,18.68.5,39.86,2,50.52C452.49,369.88,456.24,356.82,457.21,344.32Zm-32.73,15.36c-5.36-9.32-7.83-21.54-10.51-33.55-5.44-.9-4.33-8.88-2-12.53.56-1.46,3.54-.51,4-2-13.14-44.95.48-102.2-2-150.34-1.94-.23-5.6,1.07-8.08,1.62-1.61,43.64-9.55,90.64-4.85,135,1.78,16.78,6.23,32.58,7.68,48.5,6,10.4,10.7,22.17,15.76,33.54A112.34,112.34,0,0,1,424.48,359.68Zm-67.9,12.12c3.93-2.48,8-2.67,13.34-1.61-1.17-7.24-6.93-12.61-14.15-11.32-3.11,3-5.82,9.19-3.64,15C354.45,375.35,357,374.15,356.58,371.81Zm132.56-15.36c2.42-40.45,3.39-80.64-7.27-116-3.35-.11-4.63,1.83-6.87,2.83a227.22,227.22,0,0,1,6.87,63.45c-.65,18.5-4.26,42.11-3.64,64.26,0,.25.06.48.4.41C481.61,365.89,485.65,361.45,489.14,356.45Zm122.05-54.56c-1.81-2.64-5.49-3.4-9.3-4-8.41,16.3-28.25,25.08-44.86,34.76-3.44,2-13.79,8-15,11.72-.75,2.38.05,5.47-.4,7.68-1.23,5.94-4.47,11.12-3.64,17.38C553.6,338.06,595.59,333.17,611.19,301.89ZM356.58,355.64c-6.37-14-10.54-30.15-20.61-40.41-2.24,3.84-.15,5.44,2,9.7a147.7,147.7,0,0,1,8.49,19.8c2.27,6.37,4,12.47,5.66,15.76C352.86,358.11,354.85,357,356.58,355.64Zm173-3.64c.47,2.74,5,4.61,8.08,5.66.83-3.78,3.48-7.8,2-12.53C535,344.57,528.83,347.73,529.56,352ZM418,322.5c-.42,1.6-2.38,1.66-2.83,3.23,3.78,9.38,5.31,21.92,9.7,29.5C425.38,344.29,420.47,333.06,418,322.5Zm86.89,20.21c-.34-5.44-.28-10-.4-15.76-.09-4.31,1.09-12-1.21-16.17-1.46-2.68-5.17-3.61-5.66-6.87-.41-2.76,1.23-5.07,1.62-7.28,1.86-10.57,3.05-21.17,6.47-31.93,9.7-30.55,20.45-65,19-99.82-2.64.6-5.52.94-7.27,2.43a246.33,246.33,0,0,1-4,36.37c-1.69,8.63-2.79,17.06-4.44,25.06-3.72,17.93-11.12,32-15.36,49.31-.47,1.92-1.43,3.56-1.62,5.25-.54,4.86,1.19,10.46,1.21,16.16.07,17.21-2.12,39.75-1.62,54.16,0,.25.06.48.4.4C496.32,350.3,500.49,346.38,504.9,342.71Zm9.3,7.68c.68,0,.89-.91,1.21-1.21,8.38-7.8,17.65-17.32,25.46-25.46,2.24-2.34,4.23-3.64,6.06-5.66a18.51,18.51,0,0,0,3.64-6.47A3.64,3.64,0,0,1,549,310c-11.58,10.24-21.72,21.93-35.16,30.31-.34,3.76.2,6-.4,10.1Zm23.44-7.68a93.68,93.68,0,0,0,1.21-13.34c-5.36,3.9-12.38,9.65-10.1,18.59C530.46,345,533.72,343.5,537.64,342.71ZM433.37,308.76c-3.46.23-5.65-.45-5.25-4.45,3.33-5.1,0-10.39-.81-15.36-5-30.75,3.07-65.29,1.62-96.59-4.78-1.45-10.05,1.17-13.34,1.21.35,22.21-3.16,41.29-3.64,63-.66,30.37,6.53,58.24,13.34,85.28.09.32.34.47.81.4C426.34,331.46,430.3,319.25,433.37,308.76Zm-31.12,8.89c-.54-1.68-1.85-3.17-2.42-4.85-2.44-7.13-3.78-14.75-6.06-22.23-2.22-7.27-4.55-14.81-6.47-22.23-4-15.39-5.37-31.4-7.68-47.69-3.38,0-4.6-2.14-8.08-2-2.5,33.25,11.32,63.36,15.36,94.57,6.24,8.85,12,18.19,18.18,27.08.25,0,.48-.06.4-.4C403.27,332.86,404.55,324.83,402.25,317.65Zm-78,20.61c.86-10.56-16-10.15-15,.4.45,1.74.13,2.48,1.62,1.21C312.81,335.69,320.24,336.31,324.25,338.26Zm195.2-18.59c-2.05,5-7.22,15.15-4.85,18.19q5.48-4.43,10.91-8.89c1.27-7.42,2-15.33.4-24.25C523.88,308.92,521.7,314.22,519.45,319.67Zm33.14,7.68a11.37,11.37,0,0,1-4.85-1.62c-1.12,2-3.9,4.45-2.83,7.27C546.93,330.58,550.34,329.55,552.59,327.35Zm13.34-116c-2.27-.69-4-2-6.87-2-2.6,12.92-6.15,26.18-11.32,37.58-6.44,14.23-14.46,25.23-22.63,37.59-3.17,4.8-7.09,9.43-8.08,13.74-1.27,5.51-.44,9.26-5.25,10.91,1.74,6.92,1,12.24,2,19C525.83,285.44,559.92,261.44,565.93,211.36Zm-99,115.18a13.78,13.78,0,0,0-2.43-11.31,11.13,11.13,0,0,0-6.87,10.1C458.74,327.6,464.55,328,466.91,326.54Zm70.72-9.7c1.58-5.78-1.06-13.18-1.62-19.4-.31-3.49.72-6.41-.81-9.3-1.88,4-6.22,7.17-6.87,12.53-.19,1.59.66,3.31.81,5.25.43,5.76-.4,15.73,0,20.21C531,322.22,536.42,321.29,537.64,316.84ZM416.4,315.23H414c-3.19,1.71-2.41,5.14-1.62,7.68C416.88,322.93,418.81,318.87,416.4,315.23Zm206.11,3.64c4.24-4.68,5.08-17.85,0-24.65-1.56-2.09-7.47-6.93-9.7-7.68-8.41-2.84-21.81-.09-25.46,6.47-3.25,5.84-.38,12.08,3.64,15.36,2.51-3-5.41-6.75-2-13.34,3.08-4,8.62-.71,12.53.4,2.94.84,6.58,1.24,8.08,2,5.49,2.86,15.12,22.12,2.42,21.82-4.48-.1-8.18-6.18-10.1-1.21C609.21,322.47,618,323.79,622.51,318.86Zm-64.91-13.5c-1.05-1.58-3.33-2.59-3.79-3.07-3.3-1.08-6.2-.23-8.89,1.21-3.21,1.85-3.56,7.38-.81,7.28-1.69-2.51.47-6.69,4-6.47,1.87,4.73,6.09,7.11,6.47,13.34-.72,1.92-4.36,2.87-5.66.81C555.21,328.55,563,310.69,557.6,305.36Zm-221.22,6.23c-5.32-7.32-12.35,4.2-4.85,7.68C332.57,316.13,334.59,314,336.38,311.59ZM551,315.23c-.09.31,0,.8-.4.81a1.52,1.52,0,0,0,1.62,1.62C552.2,316.42,552.42,315,551,315.23ZM616,316c.13-4-1-9.31-3.23-12.12-2.17,3.62-3.86,7.72-7.27,10.1C607.79,315.91,612.78,318.84,616,316Zm-75.58-6.47c-.18-6.64,4.79-10.42,12.12-9.7,1.51.24,2,1.52,3.64,1.62C572.66,282.08,585.39,259,597,234.8c-1.71-.17-2.06-1.71-3.64-2-2.68,1.63-4.78,3.84-7.68,5.25-.85,7.05-5.93,10.51-8.49,15.76-9.68,19.89-24.25,35.55-37.59,51.33,1.4,3.81-.59,7.16,1.21,9.7C542.89,313.43,540.52,311.5,540.47,309.57Zm6.47-2.42c-1.36-.51-1.67,2-.81,2.42C546.42,308.68,548,308.22,546.93,307.14Zm-103.06,0c2.69.85,2.67,1.75,4,.81.74-5.46-2.54-13.63-8.9-13.34-4.35.2-9.47,6.16-7.68,11.31C435.42,305.39,441.19,307.65,443.88,307.14ZM376,290.57c-7-10.33-12.91-21.12-19.4-31.52,6.44,18.89,17.46,33.19,27.48,48.5C383.46,299.54,379.54,295.81,376,290.57Zm136.6,15c5.19-4.75-.73-11.23-4.45-14.14-3.87,3.12-10.13,6.84-7.28,14.14C504.33,308.56,507.94,305.66,512.58,305.53Zm81.23-.4c1.92-2.66,4.19-5,6.06-7.68-2.47-1-4.24-2.77-8.08-2.42C589.13,297.25,590.51,304.12,593.81,305.12ZM344.06,278.85a129.79,129.79,0,0,0,17,24.25c.55-.79-.46-2.06-.81-2.83-3.9-8.52-9.54-16.71-13.74-24.25-1.59-3.39-3.56-6.41-4.85-10.1C337.23,269,342,274.9,344.06,278.85Zm54.56,9.3c-6.32-16.56-11.37-36.68-10.91-56.58a5.77,5.77,0,0,0-4.45,2c3,23.91,8.81,44.53,15.76,65.87C399.3,295.27,398.6,292.07,398.61,288.15Zm54.56-34.35c3-24.85,3.9-51,5.66-76.79-2.26-.43-3.95-1.44-6.47-1.62-.58,11-1.11,23.13-2.83,34.76-4.17,28.24-9.93,54.53-11.31,81.64,4.12.19,7.22,3.55,9.29,4.44C447.2,282.89,451.5,267.74,453.17,253.8ZM435.8,292.19a18.9,18.9,0,0,1-.6-2.83c-.21-13.85-6.14-25.64-3-41.63-1.31.23-1.88-.28-2.83-.4-1.54,16.74-2.07,35.45,3.23,49.31C433,294.65,436.61,294.09,435.8,292.19Zm86.89-8.49c1.47-5.32-.85-13.39-1.21-20.61-.68-13.57.88-25.71-2.42-36.78-.82,8-6,16.92-6.47,24.25-.17,2.84.93,6.55,1.21,10.51.31,4.35-1.64,9.32-1.21,12.93.76,6.44.76,13.94,2.83,21C516.2,290.81,521.42,288.28,522.69,283.7Zm-12.12-27.08c-2.64,12-7.94,23.58-8.08,36.78C510,285.18,512.4,270,510.56,256.62Zm-147.11-23c-2.78-.68-6-2-7.27-4.85-3-6.72,4.41-11.36,5.66-17.78.52-2.68-.24-7.15-.4-10.91-.22-5.19-1.25-11.15-1.21-16.57a166.91,166.91,0,0,1,3.23-30.31,73.79,73.79,0,0,0-7.68-.81c-5.88,22.31-4.54,47.74-3.64,73.15.21,5.82.1,13.27,1.62,17,2.07,5.06,9.52,8.7,5.25,15.76,6.57,11.75,14.23,24.57,21.82,33.95C372.89,274.81,365.76,256.61,363.45,233.59Zm210.15,15c-5,3.27-12.27,4.43-15.76,9.3-1.33,1.85-1.86,5.14-3.23,7.68s-2.65,4.79-4,7.27c-3.3,5.92-9.15,11.12-9.3,19,.09.31.34.47.81.4C553.86,279,565.54,264.23,573.61,248.54Zm-63,33.14c.08,2.91-1.52,4.14-1.62,6.87,1.14.74,2.54,1.23,3.23,2.42C511.52,288,511.9,284,510.56,281.68Zm-65.47-54.56c.2-1.64,1.22-5.32-1.21-6.06-1.84,10.14-5.21,26-6.87,39.2-.9,7.19-1.79,15.6-.4,19.4C437.4,260.8,443.09,243.46,445.09,227.12Zm99.82,19.8a79.06,79.06,0,0,0-20.21,17c0,6.35,0,10.65,1.21,14.55C532.59,268.28,539.23,258.08,544.91,246.92ZM402.25,194.39c-3.62.37-5.13-.65-6.06-2.42-4.34-8.27,6.78-13.25,7.68-19.8-1.3-.58-3.39-.38-5.26-.4C394,184.24,389.55,199,390.94,215c2.16,2.33,3.56,4.94,2.83,8.89-.42,2.26-3.18,4.08-3.64,6.06-.7,3-.21,7.87,0,11.72.76,14.24,4.72,26,7.28,35.56C395.86,249.28,400.41,216,402.25,194.39Zm97.4,57.39c3.09-7.69,5-15.69,6.87-24.25,3.62-16.83,7-33.92,7.68-51.33a8.71,8.71,0,0,1-3.64-.4c-7.17,17.91-12.14,38.2-15.36,59.41-1.76,11.58-6.79,27.49-4,40.41C493.22,267.42,496.37,259.94,499.65,251.78ZM369.11,233.59h-3.23c2,15.55,4.52,28.83,10.1,41.22C373.26,261.73,369.65,247.52,369.11,233.59Zm-47.69,19.8c-11.24,1.84-9.84,27,2.83,18.19-2.5.18-4.4,1.47-5.66.4-6.92-6.42,14.09-18.16,14.14-8.08,2.15,0,2.44-1.87,3.64-2.83C334,254.85,328.1,252.3,321.42,253.39Zm-.4,12.53c-.44,1.18-1.71,1.52-1.62,3.23h3.23C322.17,268,322.08,266.48,321,265.92ZM437,244.5c-4.16,3.48-4.54,15-2.42,21C434.5,257.89,437.28,251,437,244.5Zm101.84-9.3c3.64-10.15,6.62-20.33,9.29-29.5,1.91-6.54,3.52-12.11,6.47-17.78s7.15-10.92,7.27-17.38c-1.82-1.28-4.24-2-7.68-1.62-6.12,7.21-10.74,15.93-15.36,24.65,8.08,6.13,6.28,21.6-6.06,20.61-1.85,6.29-2.72,13.77-5.66,19.8-1.08,2.22-3.22,3.33-3.64,5.66-1.16,6.47,1.18,14.32,1.21,20.61C532,254.08,534.9,246.23,538.85,235.21Zm-38-38c-2.2-1.54-5.83-4.69-9.3-2.43.11,3.78-.06.69.15,5.64a32.59,32.59,0,0,1-1,5.27c-1.65,9-5.46,15.83-8.49,23.44,6.92.62,12.31,14.21,2.83,16.17,1.25,4.55,2.2,9.39,3.23,14.15C492.27,238.5,495.08,217.07,500.86,197.22Zm-143.47,58.6c1.92-4.08-5.84-14.26-10.1-13.74-4.45.54-5.53,7.6-5.26,14.15C347,256.52,351.3,255.48,357.39,255.82Zm232.78-23.44c2.56-1.85,8.57-5.74,8.49-8.49-.05-2-3.42-3.25-4-4.85-8.92,9.4-20.68,16-33.54,21.42-.36,3.32-4.05,7.47-2.83,9.7C566.26,244.49,581,239,590.18,232.38ZM473.78,246.52c-.23-1.25-1.7-1.26-1.62-2.83,2.31-3,6.32-6.25,11.72-4.85.7,1.19,0,3.81,1.62,4,7.8-5.25-3.82-14-9.7-14.15-8.26-.18-11.5,10.94-6.87,18.19C470,247.24,473.36,248,473.78,246.52Zm-127.71-7.68c-10-24.05-13.37-54.79-24.65-77.6-3,.89-4.59,3.22-7.68,4,12.3,25,13.08,57.55,26.67,82C341.49,243.69,343.88,241.36,346.08,238.84Zm89.31,4.44c.21-4.52-1.45-7.17-5.66-7.27a59,59,0,0,0-.4,8.49A5.87,5.87,0,0,0,435.39,243.29ZM329.91,227.93c-8.67-4.67-16.27-10.4-29.91-10.1-.42,3-2,6.42-.81,9.7,14.66.86,26.88,9.75,36.37,15.76A79,79,0,0,1,329.91,227.93ZM304,203.28c-6.42.4-14.36,9.42-15,15.36-.92,9.19,5,22.07,11.72,24.25,6.37,2.07,12.85-4.55,10.51-10.51-1.69,3.59-1.81,9.16-6.47,8.89-3.26-.19-3.11-3.31-4-6.06-1.36-4-4.59-8.65-4-12.93,1-8.06,5.72-17,12.93-13.34,2.35,2,1.72,6.9,4,8.89C313.89,209.79,311.39,202.82,304,203.28Zm238.44,39.2c2.25-1.19,1.88-3.4,2.83-6.06,1.34-3.73,4.76-10,3.24-14.14-3,6.14-4.48,13.84-7.28,20.21Zm-101-22.23c-9-5.4-1.06-16.87,6.87-18.19.43-3.85.9-8.68.4-11.32-2.7,5.48-12.08,4.16-17.38,3.23,1.28,13.61-1.1,26-1.62,39.2,5.89-.5,6.73,4,8.49,7.68C439.39,234.08,440.52,227.27,441.45,220.25ZM308.9,231.17c-3-.72-5.26-2.2-8.49-1.62.88,3.16,2.55,5.53,2.83,9.29C307.59,241.56,309,234.14,308.9,231.17Zm221.47-17c-3,.27-5.61-.48-7.68,0-2.64,5.95-.69,14.67.81,21C526.49,228.91,529.23,222.35,530.36,214.19Zm78,10.91c.84-11.45-13.92-18.4-20.61-9.7-.9,2.08-.55,2.44.81,3.23,1.89-14.76,22.78,11.92,12.53,13.74-2.34.42-3.16-1.66-4.85-1.21C602.32,237.16,608,230.27,608.36,225.1ZM369.11,230c-2.65-.87-6.9.17-7.68-3.23-1.05-4.6,5.2-10,10.51-10.51,4.74-.46,10.31,3.92,15.76,1.62,1.38,1.07,2.24,1.61,2.43,3.23.48,4.16-5.16,6.12-6.87,8.89,3.92-1.22,8.46-3.59,8.48-7.68,0-3.53-2.9-3.83-4.85-5.66-2.46-2.31-3.55-5.87-6.06-6.47-2.24-.53-8.75-.14-11.72.4-7.11,1.3-12.21,12-10.1,18.59C361.06,230.29,367,232.79,369.11,230Zm111.14-2.42a124.29,124.29,0,0,0,8.89-24.65c.26-5.92-2-5.07-4.44-6.87s-3.21-2.92-3.23-6.06c-.06-8.84,7.77-15.09,17.78-15,5.18-22.3,7.1-49.2,14.15-70.73-2-2.17-3.74-4.61-6.06-6.47-2,.33-3.75.83-5.66,1.21-1.83,13.4-6.84,23.61-10.51,35.16,5.18,5,8.49,23.51-3.64,23.44-5.44,24.73-16.51,46-19,72.34C470.5,226.95,476,225.94,480.25,227.53Zm119.63-.81c-.24.84-.85,1.31-1.21,2,.84.23,1.15,1,2.43.81C600.95,228.34,600.86,227.09,599.88,226.72ZM368.3,219.85c-1.86,1.64-4.32,2.69-4.44,6.06,1.08,1.48,4.19,1.27,5.25.81C368.37,225.55,369.28,221.81,368.3,219.85Zm19,1.62c-1.1-1.5-2.89-.29-4.85-.4.43,1.59.09,4,.81,5.25C384.51,224.6,387.83,225,387.3,221.46Zm193.18-4.85c-.37,3.54-2.39,5.42-4.44,7.28C579.71,223.93,581.12,219.56,580.48,216.61Zm-13.74-15c-8.77-3.62-18.43,4-18.19,11.72.64,1.86,5.83,4.47,6.87,2-.8-2-4.87-2.24-3.64-4.85,3.79-11.46,31.9,3.93,15.76,8.89C580.9,220.4,572.61,204.09,566.74,201.66ZM447.92,205.3c-7.24.92-12.25,11.83-2,12.93C446.62,214,447.46,209.82,447.92,205.3ZM300.81,215.81c3.67-.16,6.49.52,9.7.81C310.84,207.94,302,209.75,300.81,215.81Zm267.14-2.42v2.83h1.21C569.25,214.77,568.89,213.79,567.95,213.38ZM395.78,172.16c-15.75-7.9-2-28.69,12.13-29.1,3.94-5,5.63-12.15,7.27-19.4-2-3.37-4.55-8-10.5-6.06-4.16,15.81-12.82,27.69-19,42.84-5.64,13.85-10.24,30.74-9.3,46.88,5.52-1,9.75,1.47,11.72,5.25C387.69,196.13,391.86,184.26,395.78,172.16Zm215,26.27c2.19-5.52,5.79-10.35,4.85-16.17-3.23-.13-5.45-1.29-8.89-1.21-2.55,10-6.66,18.4-9.7,27.89,3.44.34,5.81,1.73,8.49,2.83C607.65,207.75,608.79,203.47,610.79,198.43Zm-54.16,10.91c-1.13.08-1.72.7-1.62,2,.52,0,.56.52,1.22.4C556.5,210.2,556.23,210.33,556.63,209.34Zm-15-4c.48-6.31-8.47-15.79-15.76-13.74-.06,6-1.88,12.62-2.42,19.4C530.83,211.29,541.12,212.54,541.68,205.3Zm-169.34,2c-3.2-13.51-4.43-29-7.68-42.44-2,5-1.95,10.46-2,15.36-.15,9.79,1.38,19.68,1.62,28.69,0,.25.06.48.4.4A14.75,14.75,0,0,1,372.34,207.32Zm-28.69.4c.72,1.09,4.82,2.23,5.25,0,.41-4,.73-10.85-.4-14.15C345.23,196.43,343.24,202.52,343.65,207.72Zm32.73-27.48c1.45-5.91,5.05-11.79,5.25-17,.11-2.81-.71-6.7-1.21-9.3-2.86-14.77-10.07-29.63-16.17-41.63-4.29,1.1-5.74,5-8.08,8.08,1.05,4.63,3.95,11.91,3.64,16.17,11.86,1.37,23.33,24.23,7.68,28.29.75,9.45,3.07,18.19,4.44,26.67.37,2.25,0,7.07,2,7.68C374.65,192.46,374.79,186.74,376.39,180.24ZM501.67,194c1.25-2.29,1.49-4.13,2-7.68-6.65-3.58-16.62-2.25-19.8,3.64.54,3.1,2.87,4.4,4.85,6.06C489.16,189.6,498.27,191.54,501.67,194Zm-156.81-9.3c1.62-5.89-.8-13.41,0-20.21a15.67,15.67,0,0,1-8.08-8.08c.52,6.32-1.68,9.9-3.64,13.74,2.16,7.53,3.05,16.35,6.47,22.63C339.83,189.19,343.9,188.2,344.86,184.69Zm104.67,1.62c-7.37-1.59-16-2.75-13.74-13.34-2-2-5.81-2.28-9.3-2.83-2.37,1.45-6.44,3.2-10.1,2,.18,6.53-1,13-.4,19,6.64.57,9.07-5.21,14.55-4.44-.14,1.88-2.09,2-3.23,2.83C435.88,191.79,445.37,195.12,449.54,186.3Zm-46.48-6.87c-2.81.62-6.66,7.65-3.64,11.72h2.83C402,188.75,403.36,182.78,403.06,179.43Zm220.66,9.7c7.3-9.56-6.5-21.79-16.17-21-9.92.79-16.7,14.52-4.85,17-1.36-2.27,3.09-2.3,1.21-4.85-1.34.41-2.92,2.54-4,.81.44-2.63,3.74-3.32,7.27-3.23,5.27.13,14.29,1.63,15.76,5.25.69,1.71,1.1,2.73,0,4.45-1.52,1.24-4.84.24-5.25,1.62A5.39,5.39,0,0,0,623.72,189.13Zm-2.83-4c-.89-.46-1.34-1.35-2.43-1.62.29,1.24-.7,1.19-.4,2.42C618.78,185.41,620.41,185.83,620.89,185.09Zm-116-2c0-9.46-20.39-4.15-19,1.62C489,180.4,499.55,181.69,504.9,183.07Zm35.56-8.49c-1.77,2.67-5.4,3.5-9.3,4,.29,1.85-.45,4.1,0,4.85,2.34-.32,3.46.58,5.66.4C537.38,180.39,540.55,177.37,540.47,174.58Zm-101,4c3.43-7.53,13.38-5,21-5.66,2.71,3,10.26-1.18,11.32,3.64-.23.42-.39,1.6-1.62,2-1.71-2.62-6.54-2.09-9.3-1.62v4a103.54,103.54,0,0,0,10.91-1.62,9.33,9.33,0,0,0,.81-6.87c-1.65-5.32-12.29-10.88-17.78-10.91-7.36,0-19.76,10.61-15,19,1.89.67,5.31,2,7.28,1.21C444.55,180,442.76,177.78,439.43,178.63Zm134.58-4c1-6.85-1.26-11.94-6.47-15.76-3.63-2.38-5.08-1.83-8.08-2-6.72-.43-15.07,4.35-15.76,8.49-.61,3.62,1.61,6.69,4.85,6.06,1.83-.36,2-2.9,4.45-4,4.18-2,8.88-.69,10.91,2,1.13,3-.19,6.37-1.21,8.49C567.24,182.63,573.13,180.47,574,174.58Zm-124.07.81c-1.89.26-3.86.45-4.85,1.62,1.63.79,2.32,2.52,4.44,2.83A11.75,11.75,0,0,0,449.94,175.39Zm58.2-.4c-2.78-.59-3.31-3.43-5.66-4.45,0,1.85-1,2.74-.81,4.85,2.32.24,3.42,1.7,5.25,2.42A24.1,24.1,0,0,0,508.14,175Zm28.69-5.25c.43-9.75-11.36-17.25-18.59-17s-14.26,9.07-11.72,16.57c4.41,1.87,7.3-3,11.32-5.25,4.54-2.51,11.14-2.48,16.17-.4,3.07,2.66-1.22,8.72-6.47,8.49.06.48-.07,1.15.4,1.21C531.39,172.65,535.32,172.4,536.83,169.73Zm-21.82.4c-2,.45-4,.89-4.85,2.42,1.38.37,2.37,1.13,4.44.81C514.51,172.07,515.32,171.66,515,170.14ZM484.7,158.42h-2.83c.07,4.92-1.51,10.34-.81,14.55C482.06,167.91,483.76,163.55,484.7,158.42Zm-154.79-2.83c-11.34-7.46-26.53-2.94-27.08,10.51-.08,1.88.47,2.7,1.21,4.85,2.63,2,7.28,1.55,10.1,0-1.12-2.58-4,.29-6.06-.81-.77-2.28-.29-4.93,1.21-6.06,6.57-1,10.34-8.13,18.59-4.85,1.58,3.17-1.75,5.65-1.62,7.28C330.72,165.75,332.37,159.76,329.91,155.59Zm107.5,14.55c3.57-2.63,7.71-8.18,13.34-10.1.82-8,2.15-22,.41-29.91-3.35,2.58-8,3.88-12.53,5.25-1.42,12.59-.58,23.32-3.23,33.95C436.16,169.5,436.41,170.2,437.41,170.14Zm-9.29-7.68c0-3.49-3.62-5.83-5.66-7.68-2.43-2.2-3.74-5-6.47-6.87-8.89-6-20.84,2.11-24.25,8.49-3.12,5.82.82,13.83,8.89,12.53-2.09-1.86-6.18-2.53-6.47-6.47-.14-1.93.89-4.93,3.64-5.25,2.15-.25,4.16,2.84,7.27,3.23,5.16.65,11-3.72,16.17-2.42,7.52,1.9,4.09,11.72-4.45,11.32-.06.48-.72.92,0,1.21C422.25,169.35,428,168.15,428.12,162.46Zm104.27,5.66c.45-3.15-2.79-2.6-4.85-3.23v4.45C529.62,169.39,531.29,169.8,532.38,168.12Zm-97-21.42c-6.28-.49-9.35,2.24-11.31,6.06,4.21,2.49,8.76,9.91,4.44,15,1.76.32,2.58.08,4.45.81C434.58,162.69,435,154.74,435.39,146.7ZM311.72,167.31v-.81c-.52,0-.56-.52-1.21-.4.09.76-.46.89-.4,1.62C310.87,167.8,311,167.26,311.72,167.31ZM416.8,160c-1.09,1.91-.28,4-.4,6.87C422.73,168.54,425.67,159,416.8,160Zm-12.93,2.83c-2.25-1.14-4-3.93-7.28-2.83-.08,4.52,3.39,5.5,7.28,6.06Zm-78-1.62c-.59.22-2.09-.47-2,.4,1.06-.12.32,1.57,1.61,1.21C325.59,162.32,326,162.09,325.87,161.25Zm22.63-8.89c3.53-4.77,19.64-3.46,21.42,2,1.66,5.11-3.06,5.48-5.66,7.68,4.87.25,9.38-1.27,8.89-6.47-.48-5-6.8-16.4-14.55-16.57-5.65-.12-11.3,4.73-12.53,6.47-.69,1-3.3,5.83-2.83,8.49.55,3.07,5.23,4.62,8.08,4.85C349.41,157.64,347.91,156,348.5,152.36Zm117.2,2.83A14.74,14.74,0,0,1,454,147.51c0,3-.08,7.09-.41,11.72,4.13-.89,6.82,2,10.91,2.43A57.87,57.87,0,0,0,465.7,155.19Zm38.8,5.25c2.6-3.74,6.45-9.72,13.74-10.1.51-2.73,2.4-4.07,3.23-6.47-4.79-1.07-9.15-4.68-13.74-1.62C506,148.39,506.4,154.32,504.5,160.44ZM391.34,143.06c.64-3.43-.41-7.15.4-11.72-3.88-1.91-5.54-6-7.27-10.1-3.57,5.93-6.82,19.5-3.23,26.27.7,5.11,1.7,8.8,2.42,12.53C384.29,153.19,390.19,149.26,391.34,143.06ZM367.5,155.19c-.85-.23-1.15-1-2.43-.81.25,1.23-.52,3.48.4,4C366.63,157.82,367.8,157.24,367.5,155.19ZM352.95,152c-.53,1.09-2.43.81-2.42,2.42a3.64,3.64,0,0,0,1.61,1.62C352.12,154.61,354.06,153.09,352.95,152Zm194.8-24.25c-3-3.67-6.35-7.1-12.93-6.06-2.73,11.41-10.06,18.23-13.74,28.69,4.79,1,8.22,3.36,12.12,5.25C537.9,146.15,542.58,136.68,547.74,127.7ZM493.18,152a81.62,81.62,0,0,0-.4-10.1c-3.9-4.45-5.63-10.88-11.72-12.93-11-3.71-25.12,6.13-25.06,14.55,0,5,5.54,9.13,10.1,7.68-1.43-2.45-7-5.31-2.83-8.49,7.34-.09,16.71-1.15,22.63,1.62,1.75,2.72,3.79,6.12,1.21,8.49-1.58,1.45-4.16-.15-4.85,2C485.44,156.56,491.93,154.78,493.18,152Zm-7.27-2.43a4.53,4.53,0,0,0-3.64-3.64c0,1.67,1,3.83,0,5.25C484,151.17,485.57,150.94,485.91,149.53Zm-50.52-6.06c.13-3.1.89-5.58.81-8.89-.47-.06-1.15.07-1.21-.4-4.29,2.74-6.29,8.08-12.53,8.89-4.15.54-9.35-3.31-11.72.4,5.84.62,8.43,4.5,11.72,7.68C424.52,146.33,428.56,143.51,435.39,143.47Zm31.93,1.21h-3.23c-.38,2.27,1.44,2.33,2.83,2.83C467,146.56,467.55,146,467.32,144.68Zm87.7-2.83c7.9-7.56,1.73-24.41-5.66-29.91-12.65-9.41-36.08,2.45-25.06,16.17,2-.1,3.18,4.48,4.44,2.42-4.11-2.31-4.07-10.46.81-11.72a38.31,38.31,0,0,1,10.51,0c3.86.67,8.1,4.15,9.7,7.27,3.35,6.55,3.14,19.65-6.47,15C544.31,145.7,553.93,142.88,555,141.85Zm-122.86-8.49c1.39-4-.54-11.68-1.61-14.15-2-4.65-7.74-11.43-12.93-13.74-11.6-5.16-26.57-.79-29.5,7.27a18.78,18.78,0,0,0,0,10.51c1.21,3.32,5.37,8.4,10.51,5.66-2.1-3-6.3-3.86-6.47-6.87-.4-7.41,10.7-6.5,18.19-7.68,1.55.87,2.58,2.26,4.45,2.83.86,5.54,10.91,10.34,9.29,17-1,4.18-7.32,3.35-10.51,3.64C419.69,142.85,430.2,139,432.16,133.36Zm116-2.43c-.94,2.83-2.47,5.07-3.63,7.68C549.88,141.35,550.79,134.23,548.14,130.94Zm-152,2h-2c-.55,1.35-.53,5.38-.4,6.06A21.23,21.23,0,0,0,396.19,133Zm65.88-8.08c-2.17,1.6-5.74,1.81-8.08,3.23.36,4.13-.17,8.25,1.21,10.51C456.71,133.53,463.32,131.38,462.06,124.88Zm-78-11.32c-.41-5.72-4.39-6.81-8.49-9.3-5.71-3.46-14.64-6.68-23-3.64-9.28,3.37-19.18,18.35-17,28.29.68,3.07,4.66,7.93,8.09,8.89,4.75,1.34,8.69-.93,14.55-1.21-.51-2.18-1.2-4.19-1.61-6.47-2.85,1.46-8.33,3.8-9.7,0-1.52-4.21,3.46-7.22,6.47-8.89,3.15-4.67,6.35-13.51,15.36-12.53,3.38.37,9.88,2.43,10.91,5.25,2.3,6.33-4.44,8.31-6.06,12.93C378.28,125.33,384.58,120.74,384.07,113.56Zm136.19,22.23c-.85-4.67-4.3-6.75-5.66-10.91-.6,3.57-1.12,7.23-2.42,10.1C515.52,134.71,517.94,135.82,520.26,135.79ZM379.62,126.9c-1.63.92-3.28,1.84-4,3.64.78,1.79.82,4.3,2.42,5.25C378.42,132.7,379.35,130.13,379.62,126.9Zm42,7.27c-.15-3.76-2.32-5.49-4.45-7.27a25.93,25.93,0,0,0-2,7.27A7.86,7.86,0,0,0,421.65,134.17Zm34.75-10.1c5.74-2.09,10.13-3.13,9.7-10.51a22.39,22.39,0,0,0-21-10.51c-6.8.57-12,4.58-16.57,7.68,3,6,7.36,10.7,6.47,20.61C442.42,135.24,450.46,126.23,456.41,124.07Zm36.37-3.23c-5.18-.66-11.51.83-12.93,5.25,4.67.45,6.44,3.79,9.7,5.66C490.32,127.81,492.35,125.12,492.78,120.83Zm-137,6.06c-1.06-.7-.43-3.08-1.62-3.64-1.59,2-5.12,2.16-4.85,6.06C352.55,129.87,354.27,128.94,355.78,126.9ZM477,125.28c0-10.89,3.15-31.73-.41-42.43-3.75-.78-7,2.43-10.1,3.64,2.39,7.7-.89,16.57.81,23.84.29,1.22,1.14,2.06,1.21,3.23.35,5.76-5.05,10.3-3.64,15C467.82,126.32,473.69,127.07,477,125.28Zm55.77-3.64h-3.64c-1.88,1.45-1.52,6.21,1.21,6.47C531,125.8,532.14,124,532.79,121.64Zm-130.94-3.23c-2.51.59-6.14.06-7.27,2,.26,3.11,2.73,4,4.85,5.25A50.71,50.71,0,0,1,401.85,118.41ZM378,116c-2.21-2.77-7.27-2.69-10.5-4.44a78.19,78.19,0,0,0,5.25,11.72C374.91,121.24,377.39,119.55,378,116ZM524.3,97c-1.86-4.77-10.1-12-17.38-11.72-1.37,0-2.25.92-3.64,1.21-2.82.59-5.62.22-8.08,1.62A32.3,32.3,0,0,0,487.12,95c-5.82,7.82,2.75,15.19,10.1,14.15-1.66-3.23-6.16-2.33-6.06-6.47.13-5.41,13-7.2,17.78-6.87,3.47,4.76,13.38,9.36,8.89,17-1.9.88-4.2-.23-4.85,1.21C523.31,119,528,106.54,524.3,97Zm-33.95,17.38c-1.62-1.88-5.22-1.78-6.47-4a22.16,22.16,0,0,1-.81,5.25C485.6,115.27,487.17,114,490.35,114.37Zm-82.44-14.15c-1.46-8.91-10.33-14.48-19.4-14.14-8.1.3-12.92,6.8-16.17,12.12,4.75,4.28,12.06,6,14.15,12.93C390.76,104.69,398.48,100.24,407.91,100.22ZM515,106.28c.21,1.7-.71,2.26-.81,3.64H517C516.38,108.68,516.79,106.39,515,106.28Zm-16.17-6.06c-2,.32-4.19.39-4.85,2-.18,2.61,2.74,2.11,4.44,2.83C498.16,103,499.12,102.26,498.84,100.22ZM464.89,97c-3-3.44-10.92-1.69-10.91-6.87,0-3.93,6-6.12,11.72-6.06,6.68-6.54,24.48-4.87,27.89,2.43,1.22-1.75,4.5-1.43,5.26-3.64-5.45-8.8-16-18.29-27.08-16.57s-19.89,10-23.44,20.21c.31,2.25.54,5.57,1.62,8.08C454.17,97,459.54,99.49,464.89,97Zm21.42-4a22,22,0,0,0-5.66,1.62v2C483.35,97.7,484.93,94.47,486.31,92.95Zm-21.42-6.06c-4-.38-5.86,1.42-8.08,2.83,1.41,2.37,5.09,2.45,8.08,3.23C465.4,90.54,463.86,88.53,464.89,86.89Zm16.57,4.45c2.36-1.68,7.31-.77,8.49-3.64-1.7-2.88-5.1-4.07-9.3-4.45C480.57,86,479.57,89.66,481.46,91.33Z" transform="translate(-19.69 -18.69)" style="fill:#231f20;fill-rule:evenodd"/><path d="M401.85,352c-5.74-6.52-9.25-15.27-13.74-23A145.65,145.65,0,0,1,401.85,352Z" transform="translate(-19.69 -18.69)" style="fill:#231f20;fill-rule:evenodd"/><path d="M323.44,180.65c-2.29-3.37-2.5-8.82-4-12.93C321.72,171.42,323.73,177.59,323.44,180.65Z" transform="translate(-19.69 -18.69)" style="fill:#231f20;fill-rule:evenodd"/><path d="M694.94,675.23c1-3.31,2.37-11.5-4.57-19.9-4.68-7.48-10.59-10.69-14.94-12.08a63.29,63.29,0,0,0-11.65-2.35l-.53-.05a31.1,31.1,0,0,1-5-1.06,49.34,49.34,0,0,0-12.95-2,18.32,18.32,0,0,0-3,.25A27.3,27.3,0,0,0,632.11,642a24.24,24.24,0,0,0-9.45,11.76,20.59,20.59,0,0,0-6.76,13.89,21.1,21.1,0,0,0,6.47,16.43,18.25,18.25,0,0,0,7.38,4.48q2.61.83,5.25,1.43c-2.87,3.8-5.8,10.37-3.68,20.23l.06.27a75,75,0,0,1,1.78,12.73l.1,1.87L627.46,719a65,65,0,0,0-14-11.36c-1.33-1.31-2.77-2.7-4.35-4.21a94.3,94.3,0,0,0-8.46-7.17A64.2,64.2,0,0,0,590,689.79q-.9-.43-1.81-.82l.64-.94c2.66-3.85,5.15-7.34,7.43-10.37q.46-.62.87-1.28,1.57-2.51,3-4.87c1.12-1.87,2.26-4,3.48-6.39a18.25,18.25,0,0,0-20.77-25.88A29.67,29.67,0,0,0,572.57,644c-.45.33-1,.68-1.63,1.05q-3.44,1.72-7.29,3.72a39.41,39.41,0,0,0-11.27,8.68c-.64-4.08-1.39-7.94-2.24-11.53a66.25,66.25,0,0,0-6.59-16.74c-2-5.36-4.65-9.27-8.16-12.23a28.1,28.1,0,0,0-7.44-7.41l-3-2.05a18.25,18.25,0,0,0-10.18-3.1q-.83,0-1.66.08c-10.06.92-16.47,5.34-19.06,13.15a25.07,25.07,0,0,0-1.08,8.28c0,.61,0,1.21.09,1.82,0,0,.61,6.13.63,6.24,1.19,10.15,2.55,20.82,4,31.72.1.75.21,1.5.32,2.25a31.71,31.71,0,0,0-13.11-5.25,18.24,18.24,0,0,0-3-.25q-1,0-2.05,0A20.26,20.26,0,0,0,468,658.53h-.33a28.62,28.62,0,0,0-2.88-.15,27.53,27.53,0,0,0-14.18,3.94,18.15,18.15,0,0,0-1.94,1.35,80,80,0,0,0-18.18,20.14A108,108,0,0,0,421.35,702c-.32-1.32-.69-2.64-1.15-4a81.82,81.82,0,0,0-5.42-13.48,37.38,37.38,0,0,0-12.37-14.11,23.22,23.22,0,0,0-13.77-4.51H384.5a18.2,18.2,0,0,0-2.81.22l-.91,0a23.32,23.32,0,0,0-8.68,1.7l-.14.06A78.17,78.17,0,0,0,355.73,677c-3.4,2.47-6.76,5.17-10,8.06A54.47,54.47,0,0,0,341,675c-4.41-7.26-11-11.78-18.43-12.73a24,24,0,0,0-8.58-1.61,22.94,22.94,0,0,0-7.27,1.18,39.19,39.19,0,0,0-6.33,2.76c-.29.16-.57.34-.85.5a53.71,53.71,0,0,0-4.87-5.65,18.43,18.43,0,0,0-1.57-1.4,37,37,0,0,0-7.35-4.48c-1.41-.66-2.7-1.23-3.85-1.71s-2.22-1.14-3.23-1.68a30.46,30.46,0,0,0-10.64-3.36q-.69-.09-1.38-.12c-.86,0-1.73-.06-2.58-.06A52.26,52.26,0,0,0,248.71,649a67.9,67.9,0,0,0-15,6.68,74.83,74.83,0,0,0-12.52,9.4,83.53,83.53,0,0,0-9.25,10,79.29,79.29,0,0,0-11.11,19.35,84.6,84.6,0,0,0-5.46,21.13,69.5,69.5,0,0,0,1,22.87A62.41,62.41,0,0,0,206,760.78q.38.55.79,1.07a31.32,31.32,0,0,0,8.15,7.07,20.4,20.4,0,0,1,2.16,1.52,64.52,64.52,0,0,0,8.47,6.14,35.87,35.87,0,0,0,12.89,4.4l.84.11a51.39,51.39,0,0,0,5.4.29,53.57,53.57,0,0,0,12-1.39,80.56,80.56,0,0,0,14.74-5c4.12-1.84,8.36-3.93,12.61-6.22q5.7-3.07,11.25-6l.55-.3A33.39,33.39,0,0,0,306.67,753c.56,2.12,1.11,4.14,1.65,6l.07.23c.47,1.55.76,2.54.85,2.89a19.26,19.26,0,0,0,10.62,12.62,18.84,18.84,0,0,0,12.64,4.84,19.8,19.8,0,0,0,14-5.92,67.58,67.58,0,0,0,11-13.45,106.67,106.67,0,0,0,7.15-13.6c1.84-4.22,3.53-8.48,5-12.67q.87-2.42,1.8-4.78.22,1.1.45,2.19a154.85,154.85,0,0,0,4,15.42,64.4,64.4,0,0,0,8.26,16.94,18.24,18.24,0,0,0,21.48,6.77,25.69,25.69,0,0,0,8.54-5,18.84,18.84,0,0,0,9.42,8.71,36.88,36.88,0,0,0,15.41,10.19,47.81,47.81,0,0,0,16,2.91,39.86,39.86,0,0,0,5.72-.41c9.38-1.28,18.24-5.43,26.33-12.34a98.11,98.11,0,0,0,16.77-18.83,39.44,39.44,0,0,0,9.22-11.71c2.19,7.73,4.66,15.3,7.38,22.59a18.25,18.25,0,0,0,31.29,5.11l3.47-4.29a22.81,22.81,0,0,0,8.11-16.36,36.58,36.58,0,0,0,2.1-11c4.67,3.12,9.67,6.69,14.87,10.62,5.37,4.06,10.79,8.38,16.12,12.87,5.52,4.65,10.66,9.05,15.28,13.1a18.25,18.25,0,0,0,20.1,2.63,19.34,19.34,0,0,0,8.65-8.7,48.66,48.66,0,0,0,3.74,6.5A18.25,18.25,0,0,0,657.57,785q.84.08,1.68.08a18.25,18.25,0,0,0,12.91-5.35,5.23,5.23,0,0,1,1.68-1.16q.49-.21,1-.45a31.18,31.18,0,0,0,5.76-3.56,24.09,24.09,0,0,0,6.56-8.7,21.19,21.19,0,0,0,5.47-14.13c0-4.22-.05-8.28-.16-12.07s-.33-7.82-.65-11.55c-.34-4-.92-8.22-1.72-12.57s-1.82-8.81-3.1-13.72a18.11,18.11,0,0,0-.57-1.81,22.38,22.38,0,0,0-8.19-10.64A19.73,19.73,0,0,0,694.94,675.23Z" transform="translate(-19.69 -18.69)" style="fill:#ece6d9"/><path d="M281.76,672.34a35.58,35.58,0,0,1,3.85,4.59,29.42,29.42,0,0,1,5.48,16.28q.15,5.48-4.29,13.18a46.91,46.91,0,0,1-12.88,13.92,39.76,39.76,0,0,1-17,7.11,34,34,0,0,1-13-.15,31,31,0,0,1-12.44-5.77,9.9,9.9,0,0,0-2.81,4.29,11,11,0,0,0-.74,5.18,28.84,28.84,0,0,0,3.11,9q2.51,4.89,5.48,6.66,5,2.07,14.06.3a130.71,130.71,0,0,0,19.25-5.48q10.21-3.7,20.13-8.29t17-7.85a3,3,0,0,1-.74,2.37,14,14,0,0,0-1.92,2.07q-1.48,1.48-3.26,3.55a17.9,17.9,0,0,1-4.15,3.55,11.63,11.63,0,0,0-4.44,4.59,13.84,13.84,0,0,1-5.63,5.18q-5.63,3-11.4,6.07T264,758.35a62,62,0,0,1-11.4,3.85,34.3,34.3,0,0,1-11.4.74,17.77,17.77,0,0,1-6.37-2.07,47.58,47.58,0,0,1-6.07-4.44,38.44,38.44,0,0,0-4.15-3,13.84,13.84,0,0,1-3.55-3,44,44,0,0,1-6.81-15.84,51,51,0,0,1-.74-16.88,66.05,66.05,0,0,1,4.29-16.58,60.77,60.77,0,0,1,8.59-15,64.83,64.83,0,0,1,7.25-7.85,56.34,56.34,0,0,1,9.47-7.11,49.45,49.45,0,0,1,11-4.88,33.78,33.78,0,0,1,11.69-1.48,12.22,12.22,0,0,1,4.29,1.33q1.92,1,4.29,2.22,1.48.6,3.7,1.63A18.66,18.66,0,0,1,281.76,672.34Zm-8.59,17.47a8.34,8.34,0,0,0-3.26-4.74,25.15,25.15,0,0,0-5.92-3.41,22.64,22.64,0,0,0-6.51-1.63,11.12,11.12,0,0,0-4.74.3,24.75,24.75,0,0,0-5.48,3.11,41.32,41.32,0,0,0-5.92,5.18A67,67,0,0,0,236,695a29.09,29.09,0,0,0-3.7,6.37,8.84,8.84,0,0,0-1,2.81,3.66,3.66,0,0,0,.15,2.81q3.55,4.44,10.66,4.44a38.35,38.35,0,0,0,14.66-3.26q7.84-3.25,11.1-6.81a19.53,19.53,0,0,1,1.33-2.07A25.76,25.76,0,0,0,271.1,696q.89-1.78,1.63-3.55A4.17,4.17,0,0,0,273.18,689.81Z" transform="translate(-19.69 -18.69)" style="fill:#231f20"/><path d="M333.87,723.26q5-5,10.21-10.81t10.81-11.1a114.28,114.28,0,0,1,11.55-9.62,59.65,59.65,0,0,1,12.44-7,4.75,4.75,0,0,1,2.81-.3,4.67,4.67,0,0,0,2.81-.3h4.15a5.12,5.12,0,0,1,3.26,1.18,19.19,19.19,0,0,1,6.66,7.55,63.55,63.55,0,0,1,4.29,10.81,21.59,21.59,0,0,1,1.33,6.22,22.31,22.31,0,0,0,1.63,6.81q1.78,5.63,4,11.4a23.48,23.48,0,0,1,1.63,11.1,8.39,8.39,0,0,1-.89,2.52c-.4.69-.89,1.53-1.48,2.52a16.8,16.8,0,0,1-2.07,3,12.11,12.11,0,0,1-3,2.66,8.62,8.62,0,0,0-1.92,1.93q-.44.74-2.81,1.63a46,46,0,0,1-5.92-12.14,136.08,136.08,0,0,1-3.55-13.62q-1.48-7.11-2.66-14.51t-3-15.1q-.6-2.07-3.7-2.37a12.51,12.51,0,0,0-7.11,1.93,36,36,0,0,0-8.44,7,48,48,0,0,0-8,12.14q-2.37,5.33-4.44,11.1t-4.59,11.55A88,88,0,0,1,342,750.65a49.07,49.07,0,0,1-8.14,9.92q-1.48,1.48-2.07.3a5.21,5.21,0,0,0-3-2.07q-1.78-.59-1.92-1.18c-.1-.39-.44-1.58-1-3.55q-1.78-6.22-3.7-14.21T318,723q-2.22-8.88-4.59-17.91t-4.74-17l-1.78-5.33a5.07,5.07,0,0,1,2.22-2.07,20.9,20.9,0,0,1,3.4-1.48,5.3,5.3,0,0,1,3.85.3,9,9,0,0,0,3.26.89q3.25,0,5.77,4.14A42.4,42.4,0,0,1,329.72,695a105.55,105.55,0,0,1,2.81,13.92Q333.57,716.45,333.87,723.26Z" transform="translate(-19.69 -18.69)" style="fill:#231f20"/><path d="M470.06,678l-5,5q2.37-.29,7.25-1.33a46.4,46.4,0,0,1,9.62-1,13.42,13.42,0,0,1,5.92,2.37q2.37,1.78,3,6.81a87.4,87.4,0,0,0,3.7,14.36,100.57,100.57,0,0,1,3.85,14.36,32.53,32.53,0,0,1-.15,13.47q-1.48,6.37-8,11.4a81.25,81.25,0,0,1-15,17.32q-8.15,7-17,8.14a27,27,0,0,1-13-1.63,17.93,17.93,0,0,1-10.36-8.73c-.59.4-1.09.44-1.48.15a10.37,10.37,0,0,1-1.18-1c-.4-.39-.74-.49-1-.3s-.55.1-.74-.3a7.64,7.64,0,0,1-.3-2.37v-1.18A166.73,166.73,0,0,1,432,732.59a118.48,118.48,0,0,1,5-20.43,89.71,89.71,0,0,1,8.88-18.65A61.56,61.56,0,0,1,460,678a9.3,9.3,0,0,1,6.51-1.18H468A3.27,3.27,0,0,1,470.06,678ZM460,698.1c-1.18-.19-1.88-.59-2.07-1.18a3.53,3.53,0,0,1,.15-2.22q.44-1.33,1.18-3.11A9.24,9.24,0,0,0,460,688a38.37,38.37,0,0,0-9.62,13.62,74.61,74.61,0,0,0-4.89,16.43,85.29,85.29,0,0,0-1.33,16.43q.15,8,.74,13.92a26.19,26.19,0,0,0,2.07,8.14,6.14,6.14,0,0,0,4.44,3.7q3.25.89,8.59-1.78a32.62,32.62,0,0,0,12.43-10.66,45,45,0,0,0,9.62-24.43,30.31,30.31,0,0,0-.44-10.81,13.94,13.94,0,0,0-7.55-9.92A51.31,51.31,0,0,0,460,698.1Z" transform="translate(-19.69 -18.69)" style="fill:#231f20"/><path d="M526.91,636.81a48.34,48.34,0,0,1,5.48,13.32,141.58,141.58,0,0,1,2.66,15.1q1,8.29,2.37,18.5A220.53,220.53,0,0,0,542,707.27q3.55-7.7,9.62-18.06a116.3,116.3,0,0,1,13.77-18.95,21,21,0,0,1,6.66-5.33q4-2.07,7.55-3.85a40,40,0,0,0,3.7-2.37,11.49,11.49,0,0,1,4-1.78q-1.48,3-2.81,5.18t-2.81,4.59q-3.55,4.74-7.85,11t-8.29,12.88q-4,6.66-7.4,12.73A91.81,91.81,0,0,0,553,713.79l9.18-6.51A18.65,18.65,0,0,1,574.28,704a22,22,0,0,1,7.85,2.22,45.59,45.59,0,0,1,7.55,4.59,75.64,75.64,0,0,1,6.81,5.77q3.25,3.11,5.92,5.77a43.83,43.83,0,0,1,11.84,9.18q5.92,6.22,10.66,11.25,1.48,1.48,1.18,2.66a6.54,6.54,0,0,0,.59,3.55,7.91,7.91,0,0,1,.3,3.85,12.77,12.77,0,0,1-1.18,4.15,11.74,11.74,0,0,0-1.33,4c-.1,1.09-.35,1.73-.74,1.93q-7.11-6.22-15.54-13.32T591.3,736.14q-8.44-6.36-16-11.4a82.55,82.55,0,0,0-13.18-7.4q-3.55-2.07-8.59,2.37T547,732.44c0,1.78,0,3.8.15,6.07a18.07,18.07,0,0,1-1.33,7.25,14,14,0,0,0-.74,4.29,4.41,4.41,0,0,1-2.52,4l-5,6.22a282.62,282.62,0,0,1-9.62-31.38q-4-16.28-7-32.86t-5.18-32.86q-2.22-16.28-4-31.38l-.59-5.92a11.54,11.54,0,0,1,.15-2.52q.15-.44,3.4-.74l2.81,1.92a9.53,9.53,0,0,1,2.81,2.81,18.7,18.7,0,0,0,3.26,3.55Q525.42,632.37,526.91,636.81Z" transform="translate(-19.69 -18.69)" style="fill:#231f20"/><path d="M675.53,666.12q2.37,2.37,1.92,3.85a1.5,1.5,0,0,1-1.92,1.18,53.62,53.62,0,0,0-8.44.74q-4.59.74-9.77,1.18a78.11,78.11,0,0,1-10.81.15,44.91,44.91,0,0,1-11.25-2.07q-2.37-2.37.15-4.29a12.87,12.87,0,0,0,4-5.77,6.68,6.68,0,0,1,2.52-3.7,9.11,9.11,0,0,1,3.4-1.33,32.1,32.1,0,0,1,8.14,1.33,48.65,48.65,0,0,0,8.14,1.63,46,46,0,0,1,8.29,1.63Q673.16,661.68,675.53,666.12Zm-6.22,40.27q1.78,6.82,2.81,12.44t1.48,10.81q.44,5.18.59,10.51t.15,11.55A3.73,3.73,0,0,1,673,754.2a8.43,8.43,0,0,0-1.92,2.81,10,10,0,0,1-1.92,3.26,15.13,15.13,0,0,1-2.52,1.48,23.44,23.44,0,0,0-7.4,5,33.11,33.11,0,0,1-5.18-13,126.43,126.43,0,0,1-1.78-15.4q-.44-8-.89-16.14a92.84,92.84,0,0,0-2.22-15.84q-.89-4.14.59-5.63a8.34,8.34,0,0,1,3.26-2.07,5.82,5.82,0,0,1,4.59.89q2.51,1.48,4.89,3a9.51,9.51,0,0,0,4,1.33Q668.42,704,669.32,706.39Z" transform="translate(-19.69 -18.69)" style="fill:#231f20"/></svg>
