<svg id="Layer_1" data-name="Layer 1" xmlns="http://www.w3.org/2000/svg" viewBox="0 0 444.25 319.67"><defs><style>.cls-1{fill:#f7f7f7;}.cls-2,.cls-3,.cls-4{fill:none;stroke:#cbcbcb;stroke-miterlimit:10;}.cls-3{stroke-dasharray:3.97 3.97;}.cls-4{stroke-dasharray:3.97 3.97;}.cls-10,.cls-5,.cls-6,.cls-8,.cls-9{isolation:isolate;}.cls-10,.cls-6,.cls-7,.cls-8,.cls-9{font-size:13.7px;}.cls-6{fill:green;font-family:Consolas-Bold, Consolas;font-weight:700;}.cls-10,.cls-7,.cls-8,.cls-9{font-family:Consolas, Consolas;}.cls-8{fill:blue;}.cls-10,.cls-11{fill:#666;}.cls-11{letter-spacing:0em;}</style></defs><title>soa2</title><rect class="cls-1" x="4.34" y="6.48" width="436.88" height="302.12"/><polyline class="cls-2" points="441.22 306.59 441.22 308.59 439.22 308.59"/><line class="cls-3" x1="435.25" y1="308.59" x2="8.32" y2="308.59"/><polyline class="cls-2" points="6.34 308.59 4.34 308.59 4.34 306.59"/><line class="cls-4" x1="4.34" y1="302.62" x2="4.34" y2="10.47"/><polyline class="cls-2" points="4.34 8.48 4.34 6.48 6.34 6.48"/><line class="cls-3" x1="10.31" y1="6.48" x2="437.24" y2="6.48"/><polyline class="cls-2" points="439.22 6.48 441.22 6.48 441.22 8.48"/><line class="cls-4" x1="441.22" y1="12.45" x2="441.22" y2="304.61"/><g class="cls-5"><text class="cls-6" transform="translate(9.52 23.28)">inline</text><text class="cls-7" transform="translate(54.73 23.28)"> </text><text class="cls-6" transform="translate(62.26 23.28)">__m128</text><text class="cls-7" transform="translate(107.46 23.28)"> </text><text class="cls-8" transform="translate(115 23.28)">sample_tea</text><text class="cls-7" transform="translate(190.34 23.28)">(</text><text class="cls-6" transform="translate(197.87 23.28)">__m128i</text><text class="cls-7" transform="translate(250.61 23.28)"> v0, </text><text class="cls-6" transform="translate(288.28 23.28)">__m128i</text><text class="cls-7" transform="translate(341.02 23.28)"> v1) {</text></g><text class="cls-9" transform="translate(9.52 42.43)">    </text><text class="cls-6" transform="translate(39.66 42.43)">const</text><text class="cls-7" transform="translate(77.33 42.43)"> </text><text class="cls-6" transform="translate(84.86 42.43)">__m128i</text><text class="cls-7" transform="translate(137.6 42.43)"> C1 </text><text class="cls-10" transform="translate(167.74 42.43)">=</text><text class="cls-7" transform="translate(175.27 42.43)"> _mm_set1_epi32(</text><text class="cls-10" transform="translate(295.81 42.43)">0xA341316C</text><text class="cls-7" transform="translate(371.15 42.43)">);</text><text class="cls-9" transform="translate(9.52 57.5)">    </text><text class="cls-6" transform="translate(39.66 57.5)">const</text><text class="cls-7" transform="translate(77.33 57.5)"> </text><text class="cls-6" transform="translate(84.86 57.5)">__m128i</text><text class="cls-7" transform="translate(137.6 57.5)"> C2 </text><text class="cls-10" transform="translate(167.74 57.5)">=</text><text class="cls-7" transform="translate(175.27 57.5)"> _mm_set1_epi32(</text><text class="cls-10" transform="translate(295.81 57.5)">0xC8013EA4</text><text class="cls-7" transform="translate(371.15 57.5)">);</text><text class="cls-9" transform="translate(9.52 72.58)">    </text><text class="cls-6" transform="translate(39.66 72.58)">const</text><text class="cls-7" transform="translate(77.33 72.58)"> </text><text class="cls-6" transform="translate(84.86 72.58)">__m128i</text><text class="cls-7" transform="translate(137.6 72.58)"> C3 </text><text class="cls-10" transform="translate(167.74 72.58)">=</text><text class="cls-7" transform="translate(175.27 72.58)"> _mm_set1_epi32(</text><text class="cls-10" transform="translate(295.81 72.58)">0xAD90777D</text><text class="cls-7" transform="translate(371.15 72.58)">);</text><text class="cls-9" transform="translate(9.52 87.65)">    </text><text class="cls-6" transform="translate(39.66 87.65)">const</text><text class="cls-7" transform="translate(77.33 87.65)"> </text><text class="cls-6" transform="translate(84.86 87.65)">__m128i</text><text class="cls-7" transform="translate(137.6 87.65)"> C4 </text><text class="cls-10" transform="translate(167.74 87.65)">=</text><text class="cls-7" transform="translate(175.27 87.65)"> _mm_set1_epi32(</text><text class="cls-10" transform="translate(295.81 87.65)">0x7E95761E</text><text class="cls-7" transform="translate(371.15 87.65)">);</text><text class="cls-9" transform="translate(9.52 108.94)">    </text><text class="cls-6" transform="translate(39.66 108.94)">__m128i</text><text class="cls-7" transform="translate(92.4 108.94)"> sum </text><text class="cls-10" transform="translate(130.07 108.94)">=</text><text class="cls-7" transform="translate(137.6 108.94)">_mm_set1_epi32(<tspan class="cls-11" x="113.01" y="0">0x9e3779b9</tspan><tspan x="188.35" y="0">);</tspan></text><text class="cls-9" transform="translate(9.52 131.09)">    v0 </text><text class="cls-10" transform="translate(62.26 131.09)">=</text><text class="cls-7" transform="translate(69.79 131.09)"> _mm_add_epi32(v0, _mm_xor_si128(</text><text class="cls-9" transform="translate(9.52 146.16)">        _mm_xor_si128(</text><text class="cls-9" transform="translate(9.52 161.23)">            _mm_add_epi32(_mm_slli_epi32(v1, </text><text class="cls-10" transform="translate(348.55 161.23)">4</text><text class="cls-7" transform="translate(356.08 161.23)">), C1),</text><text class="cls-9" transform="translate(9.52 176.31)">            _mm_add_epi32(v1, sum)),</text><text class="cls-9" transform="translate(9.52 191.38)">            _mm_add_epi32(_mm_srli_epi32(v1, </text><text class="cls-10" transform="translate(348.55 191.38)">5</text><text class="cls-7" transform="translate(356.08 191.38)">), C2)));</text><text class="cls-9" transform="translate(9.52 221.53)">    v1 </text><text class="cls-10" transform="translate(62.26 221.53)">=</text><text class="cls-7" transform="translate(69.79 221.53)"> _mm_add_epi32(v1, _mm_xor_si128(</text><text class="cls-9" transform="translate(9.52 236.6)">        _mm_xor_si128(</text><text class="cls-9" transform="translate(9.52 251.67)">            _mm_add_epi32(_mm_slli_epi32(v0, </text><text class="cls-10" transform="translate(348.55 251.67)">4</text><text class="cls-7" transform="translate(356.08 251.67)">), C3),</text><text class="cls-9" transform="translate(9.52 266.75)">            _mm_add_epi32(v0, sum)),</text><text class="cls-9" transform="translate(9.52 281.82)">            _mm_add_epi32(_mm_srli_epi32(v0, </text><text class="cls-10" transform="translate(348.55 281.82)">5</text><text class="cls-7" transform="translate(356.08 281.82)">), C4)));</text><text class="cls-9" transform="translate(9.52 301.11)">    ....</text></svg>