<?xml version="1.0" encoding="utf-8"?>
<!DOCTYPE svg PUBLIC "-//W3C//DTD SVG 1.1//EN" "http://www.w3.org/Graphics/SVG/1.1/DTD/svg11.dtd">
<svg  version="1.1" id="Layer_1" xmlns="http://www.w3.org/2000/svg" xmlns:xlink="http://www.w3.org/1999/xlink" width="542" height="542" viewBox="0 0 542 542"
	 overflow="visible" enable-background="new 0 0 542 542" xml:space="preserve">
<g>
	<rect x="298.777" y="21" fill="#F5FFFF" stroke="#666666" width="222.222" height="222.223"/>
	<rect x="21" y="21" fill="#F5FFFF" stroke="#666666" width="222.222" height="222.223"/>
	<rect x="21" y="298.778" fill="#F5FFFF" stroke="#666666" width="222.222" height="222.223"/>
	<rect x="298.777" y="298.778" fill="#F5FFFF" stroke="#666666" width="222.222" height="222.223"/>
	<polyline fill="none" stroke="#C86464" stroke-width="8" points="76.556,76.556 187.667,76.556 76.556,187.667 187.667,187.667
		"/>
	<polyline fill="none" stroke="#B45050" stroke-width="4" points="324.24,48.006 379.796,48.006 324.24,103.562 379.796,103.562
		435.352,48.006 490.907,48.006 435.352,103.562 490.907,103.562 324.24,159.117 379.796,159.117 324.24,214.673 379.796,214.673
		435.352,159.117 490.907,159.117 435.352,214.673 490.907,214.673 	"/>
	<polyline fill="none" stroke="#A03C3C" stroke-width="2" points="229.333,507.112 201.556,507.112 229.333,479.333
		201.556,479.333 173.778,507.112 146,507.112 173.778,479.333 146,479.333 229.333,451.555 201.556,451.555 229.333,423.778
		201.556,423.778 173.778,451.555 146,451.555 173.778,423.778 146,423.778 118.223,507.112 90.444,507.112 118.223,479.333
		90.444,479.333 62.667,507.112 34.889,507.112 62.667,479.333 34.889,479.333 118.223,451.555 90.444,451.555 118.223,423.778
		90.444,423.778 62.667,451.555 34.889,451.555 62.667,423.778 34.889,423.778 229.333,396 201.556,396 229.333,368.223
		201.556,368.223 173.778,396 146,396 173.778,368.223 146,368.223 229.333,340.444 201.556,340.444 229.333,312.667
		201.556,312.667 173.778,340.444 146,340.444 173.778,312.667 146,312.667 118.223,396 90.444,396 118.223,368.223 90.444,368.223
		62.667,396 34.889,396 62.667,368.223 34.889,368.223 118.223,340.444 90.444,340.444 118.223,312.667 90.444,312.667
		62.667,340.444 34.889,340.444 62.667,312.667 34.889,312.667 	"/>
	<polyline fill="none" stroke="#8C2828" points="514.055,514.055 500.166,514.055 514.055,500.167 500.166,500.167 486.277,514.055
		472.389,514.055 486.277,500.167 472.389,500.167 514.055,486.278 500.166,486.278 514.055,472.389 500.166,472.389
		486.277,486.278 472.389,486.278 486.277,472.389 472.389,472.389 458.499,514.055 444.61,514.055 458.499,500.167 444.61,500.167
		430.722,514.055 416.833,514.055 430.722,500.167 416.833,500.167 458.499,486.278 444.61,486.278 458.499,472.389 444.61,472.389
		430.722,486.278 416.833,486.278 430.722,472.389 416.833,472.389 514.055,458.5 500.166,458.5 514.055,444.612 500.166,444.612
		486.277,458.5 472.389,458.5 486.277,444.612 472.389,444.612 514.055,430.723 500.166,430.723 514.055,416.833 500.166,416.833
		486.277,430.723 472.389,430.723 486.277,416.833 472.389,416.833 458.499,458.5 444.61,458.5 458.499,444.612 444.61,444.612
		430.722,458.5 416.833,458.5 430.722,444.612 416.833,444.612 458.499,430.723 444.61,430.723 458.499,416.833 444.61,416.833
		430.722,430.723 416.833,430.723 430.722,416.833 416.833,416.833 402.943,514.055 389.055,514.055 402.943,500.167
		389.055,500.167 375.166,514.055 361.277,514.055 375.166,500.167 361.277,500.167 402.943,486.278 389.055,486.278
		402.943,472.389 389.055,472.389 375.166,486.278 361.277,486.278 375.166,472.389 361.277,472.389 347.389,514.055
		333.499,514.055 347.389,500.167 333.499,500.167 319.61,514.055 305.722,514.055 319.61,500.167 305.722,500.167 347.389,486.278
		333.499,486.278 347.389,472.389 333.499,472.389 319.61,486.278 305.722,486.278 319.61,472.389 305.722,472.389 402.943,458.5
		389.055,458.5 402.943,444.612 389.055,444.612 375.166,458.5 361.277,458.5 375.166,444.612 361.277,444.612 402.943,430.723
		389.055,430.723 402.943,416.833 389.055,416.833 375.166,430.723 361.277,430.723 375.166,416.833 361.277,416.833 347.389,458.5
		333.499,458.5 347.389,444.612 333.499,444.612 319.61,458.5 305.722,458.5 319.61,444.612 305.722,444.612 347.389,430.723
		333.499,430.723 347.389,416.833 333.499,416.833 319.61,430.723 305.722,430.723 319.61,416.833 305.722,416.833 514.055,402.944
		500.166,402.944 514.055,389.055 500.166,389.055 486.277,402.944 472.389,402.944 486.277,389.055 472.389,389.055
		514.055,375.167 500.166,375.167 514.055,361.278 500.166,361.278 486.277,375.167 472.389,375.167 486.277,361.278
		472.389,361.278 458.499,402.944 444.61,402.944 458.499,389.055 444.61,389.055 430.722,402.944 416.833,402.944 430.722,389.055
		416.833,389.055 458.499,375.167 444.61,375.167 458.499,361.278 444.61,361.278 430.722,375.167 416.833,375.167 430.722,361.278
		416.833,361.278 514.055,347.389 500.166,347.389 514.055,333.5 500.166,333.5 486.277,347.389 472.389,347.389 486.277,333.5
		472.389,333.5 514.055,319.612 500.166,319.612 514.055,305.723 500.166,305.723 486.277,319.612 472.389,319.612 486.277,305.723
		472.389,305.723 458.499,347.389 444.61,347.389 458.499,333.5 444.61,333.5 430.722,347.389 416.833,347.389 430.722,333.5
		416.833,333.5 458.499,319.612 444.61,319.612 458.499,305.723 444.61,305.723 430.722,319.612 416.833,319.612 430.722,305.723
		416.833,305.723 402.943,402.944 389.055,402.944 402.943,389.055 389.055,389.055 375.166,402.944 361.277,402.944
		375.166,389.055 361.277,389.055 402.943,375.167 389.055,375.167 402.943,361.278 389.055,361.278 375.166,375.167
		361.277,375.167 375.166,361.278 361.277,361.278 347.389,402.944 333.499,402.944 347.389,389.055 333.499,389.055
		319.61,402.944 305.722,402.944 319.61,389.055 305.722,389.055 347.389,375.167 333.499,375.167 347.389,361.278 333.499,361.278
		319.61,375.167 305.722,375.167 319.61,361.278 305.722,361.278 402.943,347.389 389.055,347.389 402.943,333.5 389.055,333.5
		375.166,347.389 361.277,347.389 375.166,333.5 361.277,333.5 402.943,319.612 389.055,319.612 402.943,305.723 389.055,305.723
		375.166,319.612 361.277,319.612 375.166,305.723 361.277,305.723 347.389,347.389 333.499,347.389 347.389,333.5 333.499,333.5
		319.61,347.389 305.722,347.389 319.61,333.5 305.722,333.5 347.389,319.612 333.499,319.612 347.389,305.723 333.499,305.723
		319.61,319.612 305.722,319.612 319.61,305.723 305.722,305.723 	"/>
</g>
<rect fill="none" width="542" height="542"/>
</svg>
