<?xml version="1.0" encoding="utf-8"?>
<!-- Generator: Adobe Illustrator 23.0.6, SVG Export Plug-In . SVG Version: 6.00 Build 0)  -->
<svg version="1.1" id="Layer_1" xmlns="http://www.w3.org/2000/svg" xmlns:xlink="http://www.w3.org/1999/xlink" x="0px" y="0px"
	 viewBox="0 0 999.1 333.3" style="enable-background:new 0 0 999.1 333.3;" xml:space="preserve">
<style type="text/css">
	.st0{fill:#F8F8F8;}
	.st1{fill:none;stroke:#DCDEE0;stroke-width:5;stroke-dasharray:5,5;}
	.st2{clip-path:url(#SVGID_2_);}
	.st3{enable-background:new    ;}
	.st4{clip-path:url(#SVGID_4_);}
	.st5{fill:none;stroke:#000000;stroke-width:7;}
</style>
<title>nested</title>
<rect x="27" y="17.3" class="st0" width="435.3" height="100"/>
<rect x="27" y="17.3" class="st1" width="435.3" height="100"/>
<g>
	<defs>
		<rect id="SVGID_1_" x="21" y="20.3" width="673" height="102"/>
	</defs>
	<clipPath id="SVGID_2_">
		<use xlink:href="#SVGID_1_"  style="overflow:visible;"/>
	</clipPath>
	<g class="st2">
		<g class="st3">
			<path d="M98.9,82h-5.7l-2.7-8.3H74.6L71.9,82h-5.4l12.7-38.3h7.1L98.9,82z M89.1,69l-6.5-20.5L76.1,69H89.1z"/>
			<path d="M105.1,52.6h4.7l0.1,5.4c1.7-2.1,3.5-3.6,5.1-4.5c1.7-0.9,3.4-1.4,5.1-1.4c3,0,5.4,1,6.9,3c1.6,2,2.3,4.9,2.2,8.8h-5.2
				c0.1-2.6-0.3-4.4-1.1-5.6c-0.8-1.2-2-1.7-3.6-1.7c-0.7,0-1.4,0.1-2.1,0.4c-0.7,0.2-1.4,0.6-2.1,1.2s-1.5,1.2-2.3,2.1
				s-1.7,1.9-2.6,3V82h-5.2V52.6z"/>
			<path d="M138.1,52.6h4.7l0.1,5.4c1.7-2.1,3.5-3.6,5.1-4.5c1.7-0.9,3.4-1.4,5.1-1.4c3,0,5.4,1,6.9,3c1.6,2,2.3,4.9,2.2,8.8h-5.2
				c0.1-2.6-0.3-4.4-1.1-5.6c-0.8-1.2-2-1.7-3.6-1.7c-0.7,0-1.4,0.1-2.1,0.4c-0.7,0.2-1.4,0.6-2.1,1.2s-1.5,1.2-2.3,2.1
				s-1.7,1.9-2.6,3V82h-5.2V52.6z"/>
			<path d="M188.8,82l-0.1-4c-1.6,1.6-3.2,2.7-4.9,3.4c-1.7,0.7-3.4,1.1-5.2,1.1c-1.7,0-3.1-0.2-4.3-0.6c-1.2-0.4-2.2-1-2.9-1.8
				c-0.8-0.8-1.3-1.6-1.7-2.7c-0.4-1-0.5-2.1-0.5-3.3c0-2.9,1.1-5.3,3.3-6.9s5.4-2.5,9.7-2.5h6.1v-2.6c0-1.7-0.6-3.1-1.7-4.2
				s-2.8-1.6-5.1-1.6c-1.7,0-3.3,0.2-4.9,0.6s-3.3,0.9-5,1.6v-4.6c0.6-0.2,1.4-0.5,2.2-0.7s1.6-0.4,2.5-0.6s1.8-0.3,2.8-0.4
				c1-0.1,1.9-0.2,2.9-0.2c1.8,0,3.4,0.2,4.8,0.6c1.4,0.4,2.6,1,3.6,1.8c1,0.8,1.7,1.8,2.3,3s0.8,2.6,0.8,4.3V82H188.8z M188.2,68.6
				h-6.5c-1.3,0-2.4,0.1-3.3,0.4c-0.9,0.3-1.7,0.6-2.3,1.1s-1,1-1.3,1.7c-0.3,0.7-0.4,1.4-0.4,2.2c0,0.6,0.1,1.1,0.3,1.6
				s0.5,1,0.8,1.4c0.4,0.4,0.9,0.7,1.5,1c0.6,0.2,1.4,0.4,2.3,0.4c1.2,0,2.5-0.4,4-1.1c1.5-0.7,3.1-1.8,4.8-3.4V68.6z"/>
			<path d="M229,52.6l-10,26.3c-1,2.7-2.1,5-3.2,6.9c-1.1,1.9-2.3,3.5-3.6,4.8c-1.3,1.2-2.7,2.2-4.3,2.7c-1.6,0.6-3.3,0.9-5.2,0.9
				c-0.5,0-1,0-1.4,0s-0.9,0-1.3-0.1v-4.6c0.4,0.1,0.9,0.1,1.4,0.2c0.5,0,1,0.1,1.6,0.1c0.9,0,1.8-0.1,2.6-0.4
				c0.8-0.3,1.6-0.7,2.3-1.3c0.7-0.6,1.4-1.4,2.1-2.4c0.7-1,1.3-2.2,1.9-3.5l-11.7-29.4h5.8l7.4,19.5l1.5,4.6l1.7-4.7l6.9-19.3H229z
				"/>
			<path d="M258.1,79.2l-3.2,3.2L235.2,66l19.7-16.4l3.2,3.3l-16,13.1L258.1,79.2z"/>
			<path d="M280.7,60.5c0.7,0,1.3,0.1,1.9,0.4c0.6,0.3,1.1,0.6,1.6,1.1s0.8,1,1,1.6c0.3,0.6,0.4,1.2,0.4,1.9s-0.1,1.3-0.4,1.9
				c-0.3,0.6-0.6,1.1-1,1.5s-1,0.8-1.6,1.1c-0.6,0.3-1.2,0.4-1.9,0.4c-0.7,0-1.3-0.1-1.9-0.4s-1.1-0.6-1.5-1.1s-0.8-1-1-1.5
				c-0.3-0.6-0.4-1.2-0.4-1.9s0.1-1.3,0.4-1.9c0.3-0.6,0.6-1.1,1-1.6s1-0.8,1.5-1.1S280,60.5,280.7,60.5z"/>
			<path d="M304.1,88c1,0,2,0,2.9-0.3s1.8-0.5,2.5-1c0.7-0.4,1.3-0.9,1.7-1.6c0.4-0.6,0.6-1.3,0.6-2.1c0-0.8-0.1-1.5-0.4-2
				c-0.3-0.5-0.6-1-1-1.4s-0.7-0.9-1-1.4c-0.3-0.5-0.4-1.1-0.4-2c0-0.4,0.1-0.8,0.2-1.3c0.2-0.4,0.4-0.9,0.7-1.2s0.7-0.7,1.2-0.9
				s1.1-0.4,1.8-0.4c0.7,0,1.3,0.1,2,0.4c0.6,0.3,1.2,0.7,1.7,1.3c0.5,0.6,0.9,1.3,1.1,2.2c0.3,0.9,0.4,1.9,0.4,3.1
				c0,1.6-0.3,3.2-0.9,4.7c-0.6,1.5-1.5,2.8-2.7,4c-1.2,1.2-2.7,2.1-4.4,2.8c-1.8,0.7-3.8,1-6.2,1V88z"/>
			<path d="M391.9,70.4c0,1.7-0.3,3.3-1,4.7c-0.7,1.5-1.7,2.8-3.1,3.9c-1.4,1.1-3.1,2-5.2,2.6c-2.1,0.6-4.5,1-7.2,1
				c-1.5,0-2.9,0-4.1-0.1c-1.2-0.1-2.3-0.2-3.4-0.4v-4.6c1.2,0.2,2.5,0.4,3.8,0.5s2.7,0.2,4.1,0.2c1.9,0,3.5-0.2,4.9-0.5
				c1.4-0.3,2.5-0.8,3.3-1.5c0.9-0.6,1.5-1.4,1.9-2.3c0.4-0.9,0.6-2,0.6-3.1c0-1.1-0.2-2-0.7-2.8s-1.1-1.4-2-2s-1.9-0.9-3-1.2
				c-1.2-0.3-2.5-0.4-3.9-0.4h-4.4v-4.2h4.4c1.2,0,2.2-0.2,3.1-0.5c0.9-0.3,1.8-0.7,2.4-1.3s1.2-1.3,1.6-2.1
				c0.4-0.8,0.5-1.8,0.5-2.8c0-2.1-0.6-3.5-1.9-4.5c-1.2-0.9-3.1-1.4-5.5-1.4c-1.3,0-2.6,0.1-4,0.4c-1.4,0.3-2.8,0.6-4.4,1.1v-4.5
				c0.7-0.2,1.4-0.4,2.1-0.6c0.8-0.2,1.5-0.3,2.3-0.5c0.8-0.1,1.5-0.2,2.2-0.3c0.7-0.1,1.5-0.1,2.1-0.1c2,0,3.8,0.2,5.4,0.7
				c1.5,0.4,2.8,1.1,3.9,1.9c1,0.8,1.8,1.8,2.3,3s0.8,2.5,0.8,4c0,2.2-0.6,4-1.7,5.5c-1.1,1.5-2.7,2.7-4.6,3.5c1,0.2,2,0.5,2.9,0.9
				s1.8,1.1,2.6,1.8c0.8,0.7,1.4,1.6,1.9,2.6C391.7,68.1,391.9,69.2,391.9,70.4z"/>
			<path d="M402.2,52.8l3.2-3.3L425.1,66l-19.7,16.4l-3.2-3.2l16-13.2L402.2,52.8z"/>
		</g>
	</g>
</g>
<rect x="367" y="191" class="st0" width="587.5" height="100"/>
<rect x="367" y="191" class="st1" width="587.5" height="100"/>
<g>
	<defs>
		<rect id="SVGID_3_" x="361" y="194" width="599.5" height="102"/>
	</defs>
	<clipPath id="SVGID_4_">
		<use xlink:href="#SVGID_3_"  style="overflow:visible;"/>
	</clipPath>
	<g class="st4">
		<g class="st3">
			<path d="M438.9,255h-5.7l-2.7-8.3h-15.9l-2.7,8.3h-5.4l12.7-38.3h7.1L438.9,255z M429.1,242l-6.5-20.5l-6.5,20.5H429.1z"/>
			<path d="M445.1,225.6h4.7l0.1,5.4c1.7-2.1,3.5-3.6,5.1-4.5c1.7-0.9,3.4-1.4,5.1-1.4c3,0,5.4,1,6.9,3c1.6,2,2.3,4.9,2.2,8.8h-5.2
				c0.1-2.6-0.3-4.4-1.1-5.6c-0.8-1.2-2-1.7-3.6-1.7c-0.7,0-1.4,0.1-2.1,0.4c-0.7,0.2-1.4,0.6-2.1,1.2s-1.5,1.2-2.3,2.1
				s-1.7,1.9-2.6,3V255h-5.2V225.6z"/>
			<path d="M478.1,225.6h4.7l0.1,5.4c1.7-2.1,3.5-3.6,5.1-4.5c1.7-0.9,3.4-1.4,5.1-1.4c3,0,5.4,1,6.9,3c1.6,2,2.3,4.9,2.2,8.8h-5.2
				c0.1-2.6-0.3-4.4-1.1-5.6c-0.8-1.2-2-1.7-3.6-1.7c-0.7,0-1.4,0.1-2.1,0.4c-0.7,0.2-1.4,0.6-2.1,1.2s-1.5,1.2-2.3,2.1
				s-1.7,1.9-2.6,3V255h-5.2V225.6z"/>
			<path d="M528.8,255l-0.1-4c-1.6,1.6-3.2,2.7-4.9,3.4c-1.7,0.7-3.4,1.1-5.2,1.1c-1.7,0-3.1-0.2-4.3-0.6c-1.2-0.4-2.2-1-2.9-1.8
				c-0.8-0.8-1.3-1.6-1.7-2.7c-0.4-1-0.5-2.1-0.5-3.3c0-2.9,1.1-5.3,3.3-6.9s5.4-2.5,9.7-2.5h6.1v-2.6c0-1.7-0.6-3.1-1.7-4.2
				s-2.8-1.6-5.1-1.6c-1.7,0-3.3,0.2-4.9,0.6s-3.3,0.9-5,1.6v-4.6c0.6-0.2,1.4-0.5,2.2-0.7s1.6-0.4,2.5-0.6s1.8-0.3,2.8-0.4
				c1-0.1,1.9-0.2,2.9-0.2c1.8,0,3.4,0.2,4.8,0.6c1.4,0.4,2.6,1,3.6,1.8c1,0.8,1.7,1.8,2.3,3s0.8,2.6,0.8,4.3V255H528.8z
				 M528.2,241.6h-6.5c-1.3,0-2.4,0.1-3.3,0.4c-0.9,0.3-1.7,0.6-2.3,1.1s-1,1-1.3,1.7c-0.3,0.7-0.4,1.4-0.4,2.2
				c0,0.6,0.1,1.1,0.3,1.6s0.5,1,0.8,1.4c0.4,0.4,0.9,0.7,1.5,1c0.6,0.2,1.4,0.4,2.3,0.4c1.2,0,2.5-0.4,4-1.1
				c1.5-0.7,3.1-1.8,4.8-3.4V241.6z"/>
			<path d="M569,225.6l-10,26.3c-1,2.7-2.1,5-3.2,6.9c-1.1,1.9-2.3,3.5-3.6,4.8c-1.3,1.2-2.7,2.2-4.3,2.7c-1.6,0.6-3.3,0.9-5.2,0.9
				c-0.5,0-1,0-1.4,0s-0.9,0-1.3-0.1v-4.6c0.4,0.1,0.9,0.1,1.4,0.2c0.5,0,1,0.1,1.6,0.1c0.9,0,1.8-0.1,2.6-0.4
				c0.8-0.3,1.6-0.7,2.3-1.3c0.7-0.6,1.4-1.4,2.1-2.4c0.7-1,1.3-2.2,1.9-3.5l-11.7-29.4h5.8l7.4,19.5l1.5,4.6l1.7-4.7l6.9-19.3H569z
				"/>
			<path d="M598.1,252.2l-3.2,3.2L575.2,239l19.7-16.4l3.2,3.3l-16,13.1L598.1,252.2z"/>
			<path d="M635,218.3c-2.7-0.6-5-0.8-6.9-0.8c-4.6,0-6.9,2.4-6.9,7.2v5.2H634v4.2h-12.9V255H616v-20.9h-9.5v-4.2h9.5V225
				c0-7.8,4.1-11.7,12.2-11.7c2,0,4.3,0.2,6.7,0.7V218.3z"/>
			<path d="M651.9,217.8h-8.7v-4.2H657v37.1h8.8v4.2h-23.6v-4.2h9.7V217.8z"/>
			<path d="M700.4,240.1c0,2.3-0.3,4.4-1,6.3s-1.6,3.5-2.8,4.9c-1.2,1.4-2.7,2.4-4.4,3.2c-1.7,0.8-3.7,1.1-5.9,1.1
				c-2.1,0-4-0.3-5.7-1s-3.1-1.6-4.2-2.9c-1.2-1.3-2.1-2.8-2.7-4.7s-0.9-4-0.9-6.5c0-2.3,0.3-4.4,1-6.3s1.6-3.5,2.8-4.9
				c1.2-1.4,2.7-2.4,4.4-3.2c1.7-0.8,3.7-1.1,5.9-1.1c2.1,0,4,0.3,5.7,1s3.1,1.6,4.2,2.9c1.2,1.3,2.1,2.8,2.7,4.7
				S700.4,237.6,700.4,240.1z M695.2,240.3c0-1.8-0.2-3.4-0.6-4.8c-0.4-1.4-1-2.5-1.7-3.4c-0.7-0.9-1.6-1.6-2.7-2.1
				c-1.1-0.5-2.3-0.7-3.6-0.7c-1.5,0-2.8,0.3-3.9,0.9s-2,1.4-2.7,2.4c-0.7,1-1.2,2.2-1.5,3.5s-0.5,2.7-0.5,4.1
				c0,1.8,0.2,3.4,0.6,4.8c0.4,1.4,1,2.5,1.7,3.4c0.7,0.9,1.6,1.6,2.7,2.1s2.2,0.7,3.6,0.7c1.5,0,2.8-0.3,3.9-0.9s2-1.4,2.7-2.4
				c0.7-1,1.2-2.2,1.5-3.5S695.2,241.8,695.2,240.3z"/>
			<path d="M726.7,255l-0.1-4c-1.6,1.6-3.2,2.7-4.9,3.4c-1.7,0.7-3.4,1.1-5.2,1.1c-1.7,0-3.1-0.2-4.3-0.6c-1.2-0.4-2.2-1-2.9-1.8
				c-0.8-0.8-1.3-1.6-1.7-2.7c-0.4-1-0.5-2.1-0.5-3.3c0-2.9,1.1-5.3,3.3-6.9s5.4-2.5,9.7-2.5h6.1v-2.6c0-1.7-0.6-3.1-1.7-4.2
				s-2.8-1.6-5.1-1.6c-1.7,0-3.3,0.2-4.9,0.6s-3.3,0.9-5,1.6v-4.6c0.6-0.2,1.4-0.5,2.2-0.7s1.6-0.4,2.5-0.6s1.8-0.3,2.8-0.4
				c1-0.1,1.9-0.2,2.9-0.2c1.8,0,3.4,0.2,4.8,0.6c1.4,0.4,2.6,1,3.6,1.8c1,0.8,1.7,1.8,2.3,3s0.8,2.6,0.8,4.3V255H726.7z
				 M726.2,241.6h-6.5c-1.3,0-2.4,0.1-3.3,0.4c-0.9,0.3-1.7,0.6-2.3,1.1s-1,1-1.3,1.7c-0.3,0.7-0.4,1.4-0.4,2.2
				c0,0.6,0.1,1.1,0.3,1.6s0.5,1,0.8,1.4c0.4,0.4,0.9,0.7,1.5,1c0.6,0.2,1.4,0.4,2.3,0.4c1.2,0,2.5-0.4,4-1.1
				c1.5-0.7,3.1-1.8,4.8-3.4V241.6z"/>
			<path d="M764.5,254.6c-1.2,0.3-2.3,0.5-3.6,0.6s-2.5,0.2-3.8,0.2c-3.7,0-6.4-0.8-8.3-2.5s-2.7-4.2-2.7-7.7v-15.4H738v-4.3h8.2
				v-8.1l5.1-1.3v9.4h13.2v4.3h-13.2v14.9c0,2.1,0.6,3.7,1.7,4.7c1.1,1,2.8,1.6,5,1.6c0.9,0,2-0.1,3.1-0.2s2.3-0.4,3.5-0.7V254.6z"
				/>
			<path d="M776.1,261c1,0,2,0,2.9-0.3s1.8-0.5,2.5-1c0.7-0.4,1.3-0.9,1.7-1.6c0.4-0.6,0.6-1.3,0.6-2.1c0-0.8-0.1-1.5-0.4-2
				c-0.3-0.5-0.6-1-1-1.4s-0.7-0.9-1-1.4c-0.3-0.5-0.4-1.1-0.4-2c0-0.4,0.1-0.8,0.2-1.3c0.2-0.4,0.4-0.9,0.7-1.2s0.7-0.7,1.2-0.9
				s1.1-0.4,1.8-0.4c0.7,0,1.3,0.1,2,0.4c0.6,0.3,1.2,0.7,1.7,1.3c0.5,0.6,0.9,1.3,1.1,2.2c0.3,0.9,0.4,1.9,0.4,3.1
				c0,1.6-0.3,3.2-0.9,4.7c-0.6,1.5-1.5,2.8-2.7,4c-1.2,1.2-2.7,2.1-4.4,2.8c-1.8,0.7-3.8,1-6.2,1V261z"/>
			<path d="M866.5,246.5H860v8.5h-5.2v-8.5h-18.4v-4.5l16.3-25.3h7.3v25.3h6.5V246.5z M854.8,221.6l-13.3,20.4h13.3V221.6z"/>
			<path d="M874.2,225.8l3.2-3.3L897,239l-19.7,16.4l-3.2-3.2l16-13.2L874.2,225.8z"/>
		</g>
	</g>
</g>
<polyline class="st5" points="351.2,247.2 281.8,247.2 281.8,118.3 281.8,114.8 "/>
<polygon points="295.6,118.3 281.8,90.7 268,118.3 "/>
</svg>
