<svg id="Layer_1" data-name="Layer 1" xmlns="http://www.w3.org/2000/svg" viewBox="0 0 2411.28 579.06"><defs><style>.cls-1,.cls-15,.cls-3,.cls-5{fill:none;}.cls-1,.cls-3{stroke:#e8e8e8;}.cls-1,.cls-15,.cls-3,.cls-5,.cls-8,.cls-9{stroke-miterlimit:10;}.cls-1{stroke-width:40px;}.cls-2{fill:#e8e8e8;}.cls-3{stroke-width:20px;}.cls-4{fill:#d4ffd4;}.cls-15,.cls-5,.cls-8,.cls-9{stroke:#000;}.cls-5,.cls-8,.cls-9{stroke-width:3.27px;}.cls-10,.cls-11,.cls-6{font-size:60px;}.cls-10,.cls-20,.cls-6{font-family:AvenirNext-DemiBold, Avenir Next;}.cls-10,.cls-12,.cls-20,.cls-6{font-weight:700;}.cls-7{fill:#ffc2b4;}.cls-8{fill:#ffded6;}.cls-9{fill:#ffa691;}.cls-10{fill:#7a7a7a;}.cls-11{font-family:Consolas, Consolas;}.cls-12{fill:#007f2f;font-family:Consolas-Bold, Consolas;}.cls-13{fill:#002f7f;}.cls-14{letter-spacing:0em;}.cls-15{stroke-width:3px;}.cls-16{letter-spacing:-0.01em;}.cls-17{letter-spacing:0em;}.cls-18{letter-spacing:-0.01em;}.cls-19{letter-spacing:-0.02em;}.cls-20{font-size:30px;}.cls-21{letter-spacing:-0.02em;}</style></defs><title>enoki-horiz-vs-vertical</title><line class="cls-1" x1="1793.46" y1="467.15" x2="2119.1" y2="467.15"/><polygon class="cls-2" points="2089.92 566.88 2262.62 467.15 2089.92 367.43 2089.92 566.88"/><line class="cls-3" x1="1581.03" y1="308.57" x2="1655.99" y2="308.57"/><polygon class="cls-2" points="1641.4 358.43 1727.76 308.57 1641.4 258.71 1641.4 358.43"/><rect class="cls-4" x="1811.68" y="186.15" width="105.57" height="104.74"/><rect class="cls-5" x="1811.68" y="186.15" width="105.57" height="104.74"/><rect class="cls-4" x="1917.26" y="186.15" width="105.57" height="104.74"/><rect class="cls-5" x="1917.26" y="186.15" width="105.57" height="104.74"/><rect class="cls-4" x="2022.83" y="186.15" width="105.57" height="104.74"/><rect class="cls-5" x="2022.83" y="186.15" width="105.57" height="104.74"/><rect class="cls-4" x="2128.4" y="186.15" width="105.57" height="104.74"/><rect class="cls-5" x="2128.4" y="186.15" width="105.57" height="104.74"/><line class="cls-5" x1="2233.98" y1="186.15" x2="2233.98" y2="290.89"/><text class="cls-6" transform="translate(1847.8 260.63) scale(1.01 1)">2</text><text class="cls-6" transform="translate(1951.29 260.63) scale(1.01 1)">3</text><text class="cls-6" transform="translate(2054.79 260.63) scale(1.01 1)">4</text><text class="cls-6" transform="translate(2158.28 260.63) scale(1.01 1)">3</text><rect class="cls-4" x="1078.74" y="186.15" width="105.57" height="104.74"/><rect class="cls-5" x="1078.74" y="186.15" width="105.57" height="104.74"/><rect class="cls-4" x="1184.31" y="186.15" width="105.57" height="104.74"/><rect class="cls-5" x="1184.31" y="186.15" width="105.57" height="104.74"/><rect class="cls-4" x="1289.88" y="186.15" width="105.57" height="104.74"/><rect class="cls-5" x="1289.88" y="186.15" width="105.57" height="104.74"/><rect class="cls-4" x="1395.46" y="186.15" width="105.57" height="104.74"/><rect class="cls-5" x="1395.46" y="186.15" width="105.57" height="104.74"/><line class="cls-5" x1="1501.03" y1="186.15" x2="1501.03" y2="290.89"/><text class="cls-6" transform="translate(1114.85 260.63) scale(1.01 1)">2</text><text class="cls-6" transform="translate(1218.34 260.63) scale(1.01 1)">3</text><text class="cls-6" transform="translate(1321.84 260.63) scale(1.01 1)">4</text><text class="cls-6" transform="translate(1425.33 260.63) scale(1.01 1)">3</text><rect class="cls-7" x="1811.68" y="308.57" width="105.57" height="104.74"/><rect class="cls-8" x="1811.68" y="308.57" width="105.57" height="104.74"/><rect class="cls-7" x="1917.26" y="308.57" width="105.57" height="104.74"/><rect class="cls-9" x="1917.26" y="308.57" width="105.57" height="104.74"/><rect class="cls-7" x="2022.83" y="308.57" width="105.57" height="104.74"/><rect class="cls-8" x="2022.83" y="308.57" width="105.57" height="104.74"/><rect class="cls-7" x="2128.4" y="308.57" width="105.57" height="104.74"/><rect class="cls-8" x="2128.4" y="308.57" width="105.57" height="104.74"/><text class="cls-10" transform="translate(1847.79 383.05) scale(1.01 1)">1</text><text class="cls-6" transform="translate(1951.29 383.05) scale(1.01 1)">3</text><rect class="cls-9" x="1078.7" y="308.57" width="105.57" height="104.74"/><text class="cls-6" transform="translate(1112.74 383.05) scale(1.01 1)">3</text><text class="cls-10" transform="translate(2054.78 383.05) scale(1.01 1)">1</text><text class="cls-10" transform="translate(2158.28 383.05) scale(1.01 1)">1</text><text class="cls-11" transform="translate(16.66 72.51) scale(1.01 1)">Array&lt;Array&lt;Array&lt;Array&lt;<tspan class="cls-12" x="791.72" y="0">float</tspan><tspan x="956.66" y="0">, </tspan><tspan class="cls-13" x="1022.64" y="0">3</tspan><tspan x="1055.63" y="0">&gt;, </tspan><tspan class="cls-13" x="1154.59" y="0">4</tspan><tspan class="cls-14" x="1187.58" y="0">&gt;, </tspan><tspan class="cls-13" x="1286.54" y="0">3</tspan><tspan x="1319.53" y="0">&gt;, </tspan><tspan class="cls-13" x="1418.5" y="0">2</tspan><tspan class="cls-14" x="1451.48" y="0">&gt;</tspan></text><text class="cls-11" transform="translate(653.08 550.98) scale(1.01 1)">Array&lt;<tspan class="cls-12" x="197.93" y="0">float</tspan><tspan x="362.87" y="0">, </tspan><tspan class="cls-13" x="428.85" y="0">3</tspan><tspan x="461.84" y="0">&gt;</tspan></text><line x1="1061.15" y1="93.48" x2="1434.63" y2="168.48"/><line class="cls-15" x1="1061.15" y1="93.48" x2="1413.78" y2="164.29"/><polygon points="1407.74 170.19 1434.63 168.48 1410.49 156.52 1407.74 170.19"/><line x1="1201.56" y1="93.48" x2="1332.03" y2="168.48"/><line class="cls-15" x1="1201.56" y1="93.48" x2="1313.6" y2="157.88"/><polygon points="1306 161.56 1332.03 168.48 1312.95 149.47 1306 161.56"/><line x1="1099.1" y1="495.46" x2="1124.35" y2="417.96"/><line class="cls-15" x1="1099.1" y1="495.46" x2="1116.11" y2="443.24"/><polygon points="1122.56 451.59 1124.35 417.96 1105.99 446.19 1122.56 451.59"/><line x1="1464.63" y1="90.48" x2="1129.31" y2="170.73"/><line class="cls-15" x1="1464.63" y1="90.48" x2="1149.99" y2="165.78"/><polygon points="1152.99 157.89 1129.32 170.73 1156.24 171.45 1152.99 157.89"/><text class="cls-6" transform="translate(653.08 260.64) scale(1.01 1)">Ar<tspan class="cls-16" x="64.2" y="0">r</tspan><tspan class="cls-17" x="85.26" y="0">ay 1 shape</tspan></text><text class="cls-6" transform="translate(1723.46 107.62) scale(1.01 1)">Shapes a<tspan class="cls-18" x="249.54" y="0">f</tspan><tspan x="268.08" y="0">ter b</tspan><tspan class="cls-19" x="397.85" y="0">r</tspan><tspan x="418.61" y="0">oadcast</tspan></text><text class="cls-6" transform="translate(653.08 383.05) scale(1.01 1)">Ar<tspan class="cls-16" x="64.2" y="0">r</tspan><tspan class="cls-17" x="85.26" y="0">ay 2 shape</tspan></text><line x1="1326.51" y1="93.11" x2="1234.89" y2="168.1"/><line class="cls-15" x1="1326.51" y1="93.11" x2="1251.34" y2="154.63"/><polygon points="1250.6 146.23 1234.89 168.1 1259.44 157.02 1250.6 146.23"/><text class="cls-20" transform="translate(1821.91 457.15)">oute<tspan class="cls-21" x="63.18" y="0">r</tspan><tspan x="73.5" y="0">-</tspan><tspan x="7.29" y="36">most</tspan></text><text class="cls-20" transform="translate(2136.37 457.15)">inne<tspan class="cls-21" x="60.18" y="0">r</tspan><tspan x="70.5" y="0">-</tspan><tspan x="5.79" y="36">most</tspan></text></svg>