<svg id="Layer_1" data-name="Layer 1" xmlns="http://www.w3.org/2000/svg" viewBox="0 0 2411.28 579.06"><defs><style>.cls-1{fill:#a6a6a6;}.cls-17,.cls-2,.cls-4,.cls-6{fill:none;}.cls-2,.cls-4{stroke:#e8e8e8;}.cls-10,.cls-17,.cls-2,.cls-4,.cls-6,.cls-9{stroke-miterlimit:10;}.cls-2{stroke-width:40px;}.cls-3{fill:#e8e8e8;}.cls-4{stroke-width:20px;}.cls-5{fill:#d4ffd4;}.cls-10,.cls-17,.cls-6,.cls-9{stroke:#000;}.cls-10,.cls-6,.cls-9{stroke-width:3.27px;}.cls-11,.cls-12,.cls-7{font-size:60px;}.cls-11,.cls-22,.cls-7{font-family:AvenirNext-DemiBold, Avenir Next;font-weight:300;}.cls-8{fill:#ffc2b4;}.cls-9{fill:#ffa691;}.cls-10{fill:#ffded6;}.cls-11{fill:#7a7a7a;}.cls-12{font-family:Consolas;}.cls-13,.cls-16{fill:#007f2f;font-family:Consolas-Bold, Consolas;font-weight:700;}.cls-14{fill:#002f7f;}.cls-15,.cls-16{letter-spacing:0em;}.cls-17{stroke-width:3px;}.cls-18{letter-spacing:-0.01em;}.cls-19{letter-spacing:0em;}.cls-20{letter-spacing:-0.01em;}.cls-21{letter-spacing:-0.02em;}.cls-22{font-size:30px;}.cls-23{letter-spacing:-0.02em;}</style></defs><title>Artboard 3 copy 2</title><line class="cls-1" x1="2262.62" y1="467.15" x2="1793.46" y2="467.15"/><line class="cls-2" x1="2262.62" y1="467.15" x2="1936.98" y2="467.15"/><polygon class="cls-3" points="1966.16 367.43 1793.46 467.15 1966.16 566.88 1966.16 367.43"/><line class="cls-4" x1="1581.03" y1="308.57" x2="1655.99" y2="308.57"/><polygon class="cls-3" points="1641.4 358.43 1727.76 308.57 1641.4 258.71 1641.4 358.43"/><rect class="cls-5" x="1811.68" y="186.15" width="105.57" height="104.74"/><rect class="cls-6" x="1811.68" y="186.15" width="105.57" height="104.74"/><rect class="cls-5" x="1917.26" y="186.15" width="105.57" height="104.74"/><rect class="cls-6" x="1917.26" y="186.15" width="105.57" height="104.74"/><rect class="cls-5" x="2022.83" y="186.15" width="105.57" height="104.74"/><rect class="cls-6" x="2022.83" y="186.15" width="105.57" height="104.74"/><rect class="cls-5" x="2128.4" y="186.15" width="105.57" height="104.74"/><rect class="cls-6" x="2128.4" y="186.15" width="105.57" height="104.74"/><line class="cls-6" x1="2233.98" y1="186.15" x2="2233.98" y2="290.89"/><text class="cls-7" transform="translate(1847.8 260.63) scale(1.01 1)">3</text><text class="cls-7" transform="translate(1951.29 260.63) scale(1.01 1)">4</text><text class="cls-7" transform="translate(2054.79 260.63) scale(1.01 1)">3</text><text class="cls-7" transform="translate(2158.28 260.63) scale(1.01 1)">2</text><rect class="cls-5" x="1078.74" y="186.15" width="105.57" height="104.74"/><rect class="cls-6" x="1078.74" y="186.15" width="105.57" height="104.74"/><rect class="cls-5" x="1184.31" y="186.15" width="105.57" height="104.74"/><rect class="cls-6" x="1184.31" y="186.15" width="105.57" height="104.74"/><rect class="cls-5" x="1289.88" y="186.15" width="105.57" height="104.74"/><rect class="cls-6" x="1289.88" y="186.15" width="105.57" height="104.74"/><rect class="cls-5" x="1395.46" y="186.15" width="105.57" height="104.74"/><rect class="cls-6" x="1395.46" y="186.15" width="105.57" height="104.74"/><line class="cls-6" x1="1501.03" y1="186.15" x2="1501.03" y2="290.89"/><text class="cls-7" transform="translate(1114.85 260.63) scale(1.01 1)">3</text><text class="cls-7" transform="translate(1218.34 260.63) scale(1.01 1)">4</text><text class="cls-7" transform="translate(1321.84 260.63) scale(1.01 1)">3</text><text class="cls-7" transform="translate(1425.33 260.63) scale(1.01 1)">2</text><rect class="cls-8" x="1811.68" y="308.57" width="105.57" height="104.74"/><rect class="cls-9" x="1811.68" y="308.57" width="105.57" height="104.74"/><rect class="cls-8" x="1917.26" y="308.57" width="105.57" height="104.74"/><rect class="cls-10" x="1917.26" y="308.57" width="105.57" height="104.74"/><rect class="cls-8" x="2022.83" y="308.57" width="105.57" height="104.74"/><rect class="cls-9" x="2022.83" y="308.57" width="105.57" height="104.74"/><rect class="cls-8" x="2128.4" y="308.57" width="105.57" height="104.74"/><rect class="cls-10" x="2128.4" y="308.57" width="105.57" height="104.74"/><text class="cls-7" transform="translate(1847.79 383.05) scale(1.01 1)">3</text><text class="cls-11" transform="translate(1951.29 383.05) scale(1.01 1)">1</text><rect class="cls-9" x="1395.36" y="308.57" width="105.57" height="104.74"/><rect class="cls-9" x="1289.88" y="308.57" width="105.57" height="104.74"/><text class="cls-7" transform="translate(1429.7 383.05) scale(1.01 1)">3</text><text class="cls-7" transform="translate(1324.22 383.05) scale(1.01 1)">3</text><text class="cls-7" transform="translate(2054.78 383.05) scale(1.01 1)">3</text><text class="cls-11" transform="translate(2158.28 383.05) scale(1.01 1)">1</text><text class="cls-12" transform="translate(16.66 72.51) scale(1.01 1)">Array&lt;Array&lt;Array&lt;Array&lt;<tspan class="cls-13" x="791.72" y="0">float</tspan><tspan x="956.66" y="0">, </tspan><tspan class="cls-14" x="1022.64" y="0">3</tspan><tspan x="1055.63" y="0">&gt;, </tspan><tspan class="cls-14" x="1154.59" y="0">4</tspan><tspan class="cls-15" x="1187.58" y="0">&gt;, </tspan><tspan class="cls-14" x="1286.54" y="0">3</tspan><tspan x="1319.53" y="0">&gt;, </tspan><tspan class="cls-14" x="1418.5" y="0">2</tspan><tspan class="cls-15" x="1451.48" y="0">&gt;</tspan></text><text class="cls-12" transform="translate(673.45 550.98) scale(1.01 1)">Array&lt;Array&lt;<tspan class="cls-16" x="395.86" y="0">float</tspan><tspan class="cls-15" x="560.8" y="0">, </tspan><tspan class="cls-14" x="626.78" y="0">3</tspan><tspan class="cls-15" x="659.77" y="0">&gt;, </tspan><tspan class="cls-14" x="758.73" y="0">3</tspan><tspan x="791.72" y="0">&gt;</tspan></text><line x1="1068.41" y1="93.48" x2="1131.52" y2="175.85"/><line class="cls-17" x1="1068.41" y1="93.48" x2="1118.59" y2="158.97"/><polygon points="1110.16 159.44 1131.52 175.85 1121.23 150.96 1110.16 159.44"/><line x1="1201.56" y1="93.48" x2="1237.1" y2="173.63"/><line class="cls-17" x1="1201.56" y1="93.48" x2="1228.48" y2="154.2"/><polygon points="1220.18 152.68 1237.1 173.63 1232.92 147.02 1220.18 152.68"/><line x1="1451.72" y1="499.52" x2="1449.73" y2="418.05"/><line class="cls-17" x1="1451.72" y1="499.52" x2="1450.38" y2="444.62"/><polygon points="1459.23 450.35 1449.72 418.05 1441.81 450.78 1459.23 450.35"/><line x1="1320.34" y1="499.52" x2="1337.66" y2="418.05"/><line class="cls-17" x1="1320.34" y1="499.52" x2="1332.13" y2="444.05"/><polygon points="1339.42 451.68 1337.66 418.05 1322.37 448.05 1339.42 451.68"/><line x1="1464.63" y1="90.48" x2="1448.15" y2="170.53"/><line class="cls-17" x1="1464.63" y1="90.48" x2="1452.44" y2="149.7"/><polygon points="1446.57 143.64 1448.15 170.53 1460.23 146.45 1446.57 143.64"/><text class="cls-7" transform="translate(653.08 260.64) scale(1.01 1)">Ar<tspan class="cls-18" x="64.2" y="0">r</tspan><tspan class="cls-19" x="85.26" y="0">ay 1 shape</tspan></text><text class="cls-7" transform="translate(1723.46 107.62) scale(1.01 1)">Shapes a<tspan class="cls-20" x="249.54" y="0">f</tspan><tspan x="268.08" y="0">ter b</tspan><tspan class="cls-21" x="397.85" y="0">r</tspan><tspan x="418.61" y="0">oadcast</tspan></text><text class="cls-7" transform="translate(653.08 383.05) scale(1.01 1)">Ar<tspan class="cls-18" x="64.2" y="0">r</tspan><tspan class="cls-19" x="85.26" y="0">ay 2 shape</tspan></text><line x1="1326.51" y1="93.11" x2="1342.67" y2="172.3"/><line class="cls-17" x1="1326.51" y1="93.11" x2="1338.42" y2="151.47"/><polygon points="1330.64 148.21 1342.67 172.3 1344.3 145.42 1330.64 148.21"/><text class="cls-22" transform="translate(1823.41 457.15)">inne<tspan class="cls-23" x="60.18" y="0">r</tspan><tspan x="70.5" y="0">-</tspan><tspan x="5.79" y="36">most</tspan></text><text class="cls-22" transform="translate(2134.87 457.15)">oute<tspan class="cls-23" x="63.18" y="0">r</tspan><tspan x="73.5" y="0">-</tspan><tspan x="7.29" y="36">most</tspan></text></svg>