<svg id="Layer_1" data-name="Layer 1" xmlns="http://www.w3.org/2000/svg" xmlns:xlink="http://www.w3.org/1999/xlink" viewBox="0 0 1922 487.33"><defs><style>.cls-1,.cls-13,.cls-7{fill:none;}.cls-2{font-size:29.19px;fill:#53585f;font-family:DIN-Medium, DIN;}.cls-3{font-size:200px;font-family:MyriadPro-Regular, Myriad Pro;}.cls-4{clip-path:url(#clip-path);}.cls-5{fill:#d4ffd4;}.cls-6{clip-path:url(#clip-path-4);}.cls-13,.cls-7{stroke:#000;stroke-miterlimit:10;}.cls-7{stroke-width:1.7px;}.cls-8{fill:#ffd4d4;}.cls-9{fill:#d4f2ff;}.cls-10{fill:#f3d4ff;}.cls-11{fill:#f4ffd4;}.cls-12{fill:#ffa1a1;}.cls-13{stroke-width:1.62px;}.cls-14{fill:#ffa1f7;}</style><clipPath id="clip-path"><rect class="cls-1" x="484" y="27" width="522" height="204"/></clipPath><clipPath id="clip-path-4"><rect class="cls-1" x="484" y="27" width="522" height="204"/></clipPath></defs><title>nested</title><text class="cls-2" transform="translate(1491.63 495.84) scale(1.47 1)"> </text><text class="cls-3" transform="translate(128 188)">dot(</text><text class="cls-3" transform="translate(473.6 188)"><tspan xml:space="preserve">      ,      ) =</tspan></text><g class="cls-4"><g class="cls-4"><rect class="cls-5" x="484.85" y="27.85" width="54.37" height="54.56"/></g></g><g class="cls-4"><g class="cls-6"><rect class="cls-7" x="484.85" y="27.85" width="54.37" height="54.56"/></g></g><g class="cls-4"><g class="cls-4"><rect class="cls-5" x="539.22" y="27.85" width="54.37" height="54.56"/></g></g><g class="cls-4"><g class="cls-6"><rect class="cls-7" x="539.22" y="27.85" width="54.37" height="54.56"/></g></g><g class="cls-4"><g class="cls-4"><rect class="cls-5" x="593.59" y="27.85" width="54.37" height="54.56"/></g></g><g class="cls-4"><g class="cls-6"><rect class="cls-7" x="593.59" y="27.85" width="54.37" height="54.56"/></g></g><g class="cls-4"><g class="cls-4"><rect class="cls-5" x="647.96" y="27.85" width="54.37" height="54.56"/></g></g><g class="cls-4"><g class="cls-6"><rect class="cls-7" x="647.96" y="27.85" width="54.37" height="54.56"/></g></g><g class="cls-4"><g class="cls-4"><rect class="cls-8" x="484.85" y="101.72" width="54.37" height="54.56"/></g></g><g class="cls-4"><g class="cls-6"><rect class="cls-7" x="484.85" y="101.72" width="54.37" height="54.56"/></g></g><g class="cls-4"><g class="cls-4"><rect class="cls-8" x="539.22" y="101.72" width="54.37" height="54.56"/><rect class="cls-7" x="539.22" y="101.72" width="54.37" height="54.56"/><rect class="cls-8" x="593.59" y="101.72" width="54.37" height="54.56"/><rect class="cls-7" x="593.59" y="101.72" width="54.37" height="54.56"/><rect class="cls-8" x="647.96" y="101.72" width="54.37" height="54.56"/><rect class="cls-7" x="647.96" y="101.72" width="54.37" height="54.56"/><rect class="cls-9" x="484.85" y="175.59" width="54.37" height="54.56"/></g></g><g class="cls-4"><g class="cls-6"><rect class="cls-7" x="484.85" y="175.59" width="54.37" height="54.56"/></g></g><g class="cls-4"><g class="cls-4"><rect class="cls-9" x="539.22" y="175.59" width="54.37" height="54.56"/></g></g><g class="cls-4"><g class="cls-6"><rect class="cls-7" x="539.22" y="175.59" width="54.37" height="54.56"/></g></g><g class="cls-4"><g class="cls-4"><rect class="cls-9" x="593.59" y="175.59" width="54.37" height="54.56"/></g></g><g class="cls-4"><g class="cls-6"><rect class="cls-7" x="593.59" y="175.59" width="54.37" height="54.56"/></g></g><g class="cls-4"><g class="cls-4"><rect class="cls-9" x="647.96" y="175.59" width="54.37" height="54.56"/></g></g><g class="cls-4"><g class="cls-6"><rect class="cls-7" x="647.96" y="175.59" width="54.37" height="54.56"/></g></g><g class="cls-4"><g class="cls-6"><line class="cls-7" x1="702.33" y1="27.85" x2="702.33" y2="82.41"/></g></g><g class="cls-4"><g class="cls-4"><rect class="cls-10" x="787.67" y="27.85" width="54.37" height="54.56"/></g></g><g class="cls-4"><g class="cls-6"><rect class="cls-7" x="787.67" y="27.85" width="54.37" height="54.56"/></g></g><g class="cls-4"><g class="cls-4"><rect class="cls-10" x="842.04" y="27.85" width="54.37" height="54.56"/></g></g><g class="cls-4"><g class="cls-6"><rect class="cls-7" x="842.04" y="27.85" width="54.37" height="54.56"/></g></g><g class="cls-4"><g class="cls-4"><rect class="cls-10" x="896.41" y="27.85" width="54.37" height="54.56"/></g></g><g class="cls-4"><g class="cls-6"><rect class="cls-7" x="896.41" y="27.85" width="54.37" height="54.56"/></g></g><g class="cls-4"><g class="cls-4"><rect class="cls-10" x="950.78" y="27.85" width="54.37" height="54.56"/></g></g><g class="cls-4"><g class="cls-6"><rect class="cls-7" x="950.78" y="27.85" width="54.37" height="54.56"/></g></g><g class="cls-4"><g class="cls-4"><rect class="cls-11" x="787.67" y="101.72" width="54.37" height="54.56"/><rect class="cls-7" x="787.67" y="101.72" width="54.37" height="54.56"/><rect class="cls-11" x="842.04" y="101.72" width="54.37" height="54.56"/><rect class="cls-7" x="842.04" y="101.72" width="54.37" height="54.56"/><rect class="cls-11" x="896.41" y="101.72" width="54.37" height="54.56"/><rect class="cls-7" x="896.41" y="101.72" width="54.37" height="54.56"/><rect class="cls-11" x="950.78" y="101.72" width="54.37" height="54.56"/></g></g><g class="cls-4"><g class="cls-6"><rect class="cls-7" x="950.78" y="101.72" width="54.37" height="54.56"/></g></g><g class="cls-4"><g class="cls-4"><rect class="cls-12" x="787.67" y="175.59" width="54.37" height="54.56"/></g></g><g class="cls-4"><g class="cls-6"><rect class="cls-7" x="787.67" y="175.59" width="54.37" height="54.56"/></g></g><g class="cls-4"><g class="cls-4"><rect class="cls-12" x="842.04" y="175.59" width="54.37" height="54.56"/></g></g><g class="cls-4"><g class="cls-6"><rect class="cls-7" x="842.04" y="175.59" width="54.37" height="54.56"/></g></g><g class="cls-4"><g class="cls-4"><rect class="cls-12" x="896.41" y="175.59" width="54.37" height="54.56"/></g></g><g class="cls-4"><g class="cls-6"><rect class="cls-7" x="896.41" y="175.59" width="54.37" height="54.56"/></g></g><g class="cls-4"><g class="cls-4"><rect class="cls-12" x="950.78" y="175.59" width="54.37" height="54.56"/></g></g><g class="cls-4"><g class="cls-6"><rect class="cls-7" x="950.78" y="175.59" width="54.37" height="54.56"/></g></g><g class="cls-4"><g class="cls-6"><line class="cls-7" x1="1005.15" y1="27.85" x2="1005.15" y2="82.41"/></g></g><rect class="cls-8" x="582.49" y="353.95" width="52.19" height="52.1"/><rect class="cls-13" x="582.49" y="353.95" width="52.19" height="52.1"/><rect class="cls-8" x="634.68" y="353.95" width="52.19" height="52.1"/><rect class="cls-13" x="634.68" y="353.95" width="52.19" height="52.1"/><rect class="cls-8" x="686.86" y="353.95" width="52.19" height="52.1"/><rect class="cls-13" x="686.86" y="353.95" width="52.19" height="52.1"/><rect class="cls-8" x="739.05" y="353.95" width="52.19" height="52.1"/><rect class="cls-13" x="739.05" y="353.95" width="52.19" height="52.1"/><rect class="cls-9" x="1121.69" y="353.95" width="52.19" height="52.1"/><rect class="cls-13" x="1121.69" y="353.95" width="52.19" height="52.1"/><rect class="cls-9" x="1173.87" y="353.95" width="52.19" height="52.1"/><rect class="cls-13" x="1173.87" y="353.95" width="52.19" height="52.1"/><rect class="cls-9" x="1226.06" y="353.95" width="52.19" height="52.1"/><rect class="cls-13" x="1226.06" y="353.95" width="52.19" height="52.1"/><rect class="cls-9" x="1278.25" y="353.95" width="52.19" height="52.1"/><rect class="cls-13" x="1278.25" y="353.95" width="52.19" height="52.1"/><rect class="cls-5" x="42.15" y="353.95" width="52.19" height="52.1"/><rect class="cls-13" x="42.15" y="353.95" width="52.19" height="52.1"/><rect class="cls-5" x="94.33" y="353.95" width="52.19" height="52.1"/><rect class="cls-13" x="94.33" y="353.95" width="52.19" height="52.1"/><rect class="cls-5" x="146.52" y="353.95" width="52.19" height="52.1"/><rect class="cls-13" x="146.52" y="353.95" width="52.19" height="52.1"/><rect class="cls-5" x="198.7" y="353.95" width="52.19" height="52.1"/><rect class="cls-13" x="198.7" y="353.95" width="52.19" height="52.1"/><line class="cls-13" x1="250.89" y1="353.95" x2="250.89" y2="406.05"/><rect class="cls-11" x="828.62" y="353.95" width="52.19" height="52.1"/><rect class="cls-13" x="828.62" y="353.95" width="52.19" height="52.1"/><rect class="cls-11" x="880.81" y="353.95" width="52.19" height="52.1"/><rect class="cls-13" x="880.81" y="353.95" width="52.19" height="52.1"/><rect class="cls-11" x="933" y="353.95" width="52.19" height="52.1"/><rect class="cls-13" x="933" y="353.95" width="52.19" height="52.1"/><rect class="cls-11" x="985.18" y="353.95" width="52.19" height="52.1"/><rect class="cls-13" x="985.18" y="353.95" width="52.19" height="52.1"/><rect class="cls-12" x="1367.82" y="353.95" width="52.19" height="52.1"/><rect class="cls-13" x="1367.82" y="353.95" width="52.19" height="52.1"/><rect class="cls-12" x="1420.01" y="353.95" width="52.19" height="52.1"/><rect class="cls-13" x="1420.01" y="353.95" width="52.19" height="52.1"/><rect class="cls-12" x="1472.19" y="353.95" width="52.19" height="52.1"/><rect class="cls-13" x="1472.19" y="353.95" width="52.19" height="52.1"/><rect class="cls-12" x="1524.38" y="353.95" width="52.19" height="52.1"/><rect class="cls-13" x="1524.38" y="353.95" width="52.19" height="52.1"/><rect class="cls-14" x="1691.45" y="353.95" width="52.19" height="52.1"/><rect class="cls-13" x="1691.45" y="353.95" width="52.19" height="52.1"/><rect class="cls-14" x="1743.63" y="353.95" width="52.19" height="52.1"/><rect class="cls-13" x="1743.63" y="353.95" width="52.19" height="52.1"/><rect class="cls-14" x="1795.82" y="353.95" width="52.19" height="52.1"/><rect class="cls-13" x="1795.82" y="353.95" width="52.19" height="52.1"/><rect class="cls-14" x="1848" y="353.95" width="52.19" height="52.1"/><rect class="cls-13" x="1848" y="353.95" width="52.19" height="52.1"/><rect class="cls-10" x="288.28" y="353.95" width="52.19" height="52.1"/><rect class="cls-13" x="288.28" y="353.95" width="52.19" height="52.1"/><rect class="cls-10" x="340.46" y="353.95" width="52.19" height="52.1"/><rect class="cls-13" x="340.46" y="353.95" width="52.19" height="52.1"/><rect class="cls-10" x="392.65" y="353.95" width="52.19" height="52.1"/><rect class="cls-13" x="392.65" y="353.95" width="52.19" height="52.1"/><rect class="cls-10" x="444.84" y="353.95" width="52.19" height="52.1"/><rect class="cls-13" x="444.84" y="353.95" width="52.19" height="52.1"/><line class="cls-13" x1="497.02" y1="353.95" x2="497.02" y2="406.05"/><rect class="cls-1" x="85" y="341.07" width="1816" height="80.1"/><path d="M278.16,379.79a7.53,7.53,0,1,0-7.51,7.54,7.54,7.54,0,0,0,7.51-7.54"/><rect class="cls-1" x="262.11" y="371.8" width="16.44" height="16.41"/><path d="M818.5,379.79a7.53,7.53,0,1,0-7.51,7.54,7.54,7.54,0,0,0,7.51-7.54"/><rect class="cls-1" x="802.45" y="371.8" width="16.44" height="16.41"/><path d="M1357.7,379.79a7.53,7.53,0,1,0-7.52,7.54,7.54,7.54,0,0,0,7.52-7.54"/><rect class="cls-1" x="1341.65" y="371.8" width="16.44" height="16.41"/><path d="M540.3,381h14.32c.71,0,1.69,0,1.69-1s-1-1-1.69-1H540.3V364.56c0-.71,0-1.68-1-1.68s-1,1-1,1.68V378.9H523.87c-.72,0-1.7,0-1.7,1s1,1,1.7,1h14.37v14.34c0,.72,0,1.7,1,1.7s1-1,1-1.7V381"/><rect class="cls-1" x="521.87" y="362.72" width="34.62" height="34.56"/><path d="M1080.64,381H1095c.71,0,1.69,0,1.69-1s-1-1-1.69-1h-14.32V364.56c0-.71,0-1.68-1-1.68s-1,1-1,1.68V378.9h-14.37c-.72,0-1.7,0-1.7,1s1,1,1.7,1h14.37v14.34c0,.72,0,1.7,1,1.7s1-1,1-1.7V381"/><rect class="cls-1" x="1062.22" y="362.72" width="34.62" height="34.56"/><path d="M1664,394.65c1.69,0,4,0,4-2.44s-2.32-2.4-4.13-2.4h-53c-1.82,0-4.13,0-4.13,2.4s2.32,2.44,4,2.44H1664"/><path d="M1663.91,371c1.82,0,4.13,0,4.13-2.44s-2.32-2.44-4-2.44h-53.26c-1.72,0-4,0-4,2.44s2.32,2.44,4.13,2.44Z"/><rect class="cls-1" x="1606.02" y="365.34" width="62.49" height="29.33"/><path d="M46.25,420.83c0-.13-.09-.2-.2-.29a45.64,45.64,0,0,1-8.43-7.08C29.69,404.84,26.1,394,26.1,381.14c0-9,1.78-20.57,9.9-30.52a45,45,0,0,1,10.1-8.95.26.26,0,0,0,.14-.27c0-.33-.34-.33-1-.33a1.93,1.93,0,0,0-1.53.5C27.18,351.75,22,367,22,381.1c0,13.13,4.44,26.35,17,36.33a50.1,50.1,0,0,0,4.87,3.34,1.74,1.74,0,0,0,1.38.4c.69,0,1,0,1-.34"/><path d="M516.67,381.14c0-13.13-4.44-26.34-17-36.32a50.54,50.54,0,0,0-4.89-3.35,1.77,1.77,0,0,0-1.38-.39c-.59,0-1,0-1,.33,0,.13.2.27.29.33a47.3,47.3,0,0,1,8.34,7c7.93,8.61,11.52,19.47,11.52,32.32,0,9-1.77,20.57-9.9,30.52a45,45,0,0,1-10,8.91c-.11.1-.2.2-.2.29,0,.34.43.34,1,.34a1.93,1.93,0,0,0,1.53-.5c16.52-10.19,21.69-25.47,21.69-39.54"/><path d="M587.58,420.83c0-.13-.09-.2-.2-.29a45.62,45.62,0,0,1-8.43-7.08c-7.93-8.61-11.52-19.46-11.52-32.32,0-9,1.78-20.57,9.9-30.52a45,45,0,0,1,10.1-8.95.26.26,0,0,0,.14-.27c0-.33-.34-.33-1-.33a1.93,1.93,0,0,0-1.53.5c-16.52,10.18-21.69,25.47-21.69,39.53,0,13.13,4.44,26.35,17,36.33a50.17,50.17,0,0,0,4.87,3.34,1.74,1.74,0,0,0,1.38.4c.68,0,1,0,1-.34"/><path d="M1058,381.14c0-13.13-4.44-26.34-17-36.32a50.59,50.59,0,0,0-4.89-3.35,1.77,1.77,0,0,0-1.38-.39c-.59,0-1,0-1,.33,0,.13.2.27.29.33a47.29,47.29,0,0,1,8.34,7c7.93,8.61,11.53,19.47,11.53,32.32,0,9-1.77,20.57-9.9,30.52a45,45,0,0,1-10,8.91c-.11.1-.2.2-.2.29,0,.34.44.34,1,.34a1.93,1.93,0,0,0,1.53-.5c16.52-10.19,21.69-25.47,21.69-39.54"/><path d="M1126.78,420.83c0-.13-.09-.2-.2-.29a45.64,45.64,0,0,1-8.43-7.08c-7.93-8.61-11.52-19.46-11.52-32.32,0-9,1.78-20.57,9.9-30.52a45,45,0,0,1,10.1-8.95.26.26,0,0,0,.15-.27c0-.33-.34-.33-1-.33a1.94,1.94,0,0,0-1.53.5c-16.52,10.18-21.69,25.47-21.69,39.53,0,13.13,4.44,26.35,17,36.33a50.19,50.19,0,0,0,4.87,3.34,1.74,1.74,0,0,0,1.38.4c.68,0,1,0,1-.34"/><path d="M1597.21,381.14c0-13.13-4.44-26.34-17-36.32a50.59,50.59,0,0,0-4.89-3.35,1.77,1.77,0,0,0-1.38-.39c-.59,0-1,0-1,.33,0,.13.2.27.29.33a47.29,47.29,0,0,1,8.34,7c7.93,8.61,11.52,19.47,11.52,32.32,0,9-1.77,20.57-9.9,30.52a45,45,0,0,1-10,8.91c-.1.1-.2.2-.2.29,0,.34.43.34,1,.34a1.93,1.93,0,0,0,1.53-.5c16.52-10.19,21.69-25.47,21.69-39.54"/><rect class="cls-1" x="85" y="341.07" width="1816" height="80.1"/></svg>