<?xml version="1.0" encoding="utf-8"?>
<!-- Generator: Adobe Illustrator 23.0.6, SVG Export Plug-In . SVG Version: 6.00 Build 0)  -->
<svg version="1.1" id="Layer_1" xmlns="http://www.w3.org/2000/svg" xmlns:xlink="http://www.w3.org/1999/xlink" x="0px" y="0px"
	 viewBox="0 0 2411.28 579.06" style="enable-background:new 0 0 2411.28 579.06;" xml:space="preserve">
<style type="text/css">
	.st0{fill:#A6A6A6;}
	.st1{fill:none;stroke:#E8E8E8;stroke-width:40;stroke-miterlimit:10;}
	.st2{fill:#E8E8E8;}
	.st3{fill:none;stroke:#E8E8E8;stroke-width:20;stroke-miterlimit:10;}
	.st4{fill:#D4FFD4;}
	.st5{fill:none;stroke:#000000;stroke-width:3.2736;stroke-miterlimit:10;}
	.st6{fill:#FFDEDE;}
	.st7{fill:#E2DEFF;}
	.st8{fill:#FF0000;}
	.st9{fill:#EEFCEE;}
	.st10{fill:#FFC2B4;}
	.st11{fill:#FFA691;stroke:#000000;stroke-width:3.2736;stroke-miterlimit:10;}
	.st12{fill:#FFDED6;stroke:#000000;stroke-width:3.2736;stroke-miterlimit:10;}
	.st13{fill:#7A7A7A;}
	.st14{fill:#D00023;}
	.st15{fill:#007F2F;}
	.st16{fill:#002F7F;}
	.st17{fill:#009E30;}
	.st18{fill:none;stroke:#000000;stroke-width:6;stroke-miterlimit:10;}
	.st19{fill:none;stroke:#000000;stroke-width:3;stroke-miterlimit:10;}
</style>
<g>
	<line class="st0" x1="1793.46" y1="467.15" x2="2262.62" y2="467.15"/>
	<g>
		<line class="st1" x1="1793.46" y1="467.15" x2="2119.1" y2="467.15"/>
		<g>
			<polygon class="st2" points="2089.92,566.88 2262.62,467.15 2089.92,367.43 			"/>
		</g>
	</g>
</g>
<g>
	<g>
		<line class="st3" x1="1581.03" y1="308.57" x2="1655.99" y2="308.57"/>
		<g>
			<polygon class="st2" points="1641.4,358.43 1727.76,308.57 1641.4,258.71 			"/>
		</g>
	</g>
</g>
<rect x="1811.68" y="186.15" class="st4" width="105.57" height="104.74"/>
<rect x="1811.68" y="186.15" class="st5" width="105.57" height="104.74"/>
<rect x="1917.26" y="186.15" class="st4" width="105.57" height="104.74"/>
<rect x="1917.26" y="186.15" class="st5" width="105.57" height="104.74"/>
<rect x="2022.83" y="186.15" class="st4" width="105.57" height="104.74"/>
<rect x="2022.83" y="186.15" class="st5" width="105.57" height="104.74"/>
<rect x="2128.4" y="186.15" class="st4" width="105.57" height="104.74"/>
<rect x="2128.4" y="186.15" class="st5" width="105.57" height="104.74"/>
<line class="st5" x1="2233.98" y1="186.15" x2="2233.98" y2="290.89"/>
<g>
	<path d="M1860.62,235.61h1.94c1.09,0,2.17-0.09,3.24-0.27c1.07-0.18,2.05-0.51,2.93-0.99c0.89-0.48,1.6-1.13,2.15-1.95
		c0.54-0.82,0.82-1.89,0.82-3.21c0-0.96-0.18-1.82-0.54-2.58c-0.36-0.76-0.86-1.4-1.48-1.92c-0.63-0.52-1.35-0.92-2.18-1.2
		c-0.83-0.28-1.68-0.42-2.57-0.42c-1.78,0-3.25,0.5-4.42,1.5c-1.17,1-1.98,2.32-2.42,3.96l-6.84-1.74c0.36-1.44,0.98-2.75,1.85-3.93
		c0.87-1.18,1.92-2.2,3.15-3.06c1.23-0.86,2.61-1.53,4.14-2.01c1.53-0.48,3.15-0.72,4.84-0.72c1.85,0,3.62,0.25,5.29,0.75
		c1.67,0.5,3.13,1.24,4.39,2.22c1.26,0.98,2.25,2.19,2.97,3.63s1.08,3.12,1.08,5.04c0,2.28-0.7,4.31-2.09,6.09
		c-1.39,1.78-3.26,2.95-5.6,3.51v0.12c2.62,0.52,4.75,1.69,6.38,3.51c1.63,1.82,2.45,4.05,2.45,6.69c0,2.2-0.43,4.12-1.29,5.76
		c-0.86,1.64-2,3-3.42,4.08c-1.42,1.08-3.02,1.89-4.79,2.43s-3.57,0.81-5.38,0.81s-3.53-0.19-5.14-0.57
		c-1.61-0.38-3.1-0.97-4.45-1.77c-1.35-0.8-2.54-1.84-3.57-3.12c-1.03-1.28-1.83-2.8-2.39-4.56l6.78-2.1
		c0.52,1.68,1.5,3.1,2.93,4.26c1.43,1.16,3.3,1.74,5.6,1.74c0.93,0,1.86-0.13,2.81-0.39c0.95-0.26,1.79-0.67,2.54-1.23
		c0.75-0.56,1.35-1.28,1.81-2.16c0.46-0.88,0.7-1.96,0.7-3.24c0-1.36-0.33-2.51-1-3.45c-0.67-0.94-1.5-1.68-2.51-2.22
		c-1.01-0.54-2.13-0.93-3.36-1.17c-1.23-0.24-2.41-0.36-3.54-0.36h-1.81V235.61z"/>
</g>
<g>
	<path d="M1972.34,251.81h-19.78v-6.36l18.21-27.31h8.71v27.49h5.99v6.18h-5.99v8.82h-7.14V251.81z M1972.34,226.6h-0.12
		l-12.16,19.03h12.28V226.6z"/>
</g>
<g>
	<path d="M2067.61,235.61h1.94c1.09,0,2.17-0.09,3.24-0.27c1.07-0.18,2.05-0.51,2.93-0.99c0.89-0.48,1.6-1.13,2.15-1.95
		c0.54-0.82,0.82-1.89,0.82-3.21c0-0.96-0.18-1.82-0.54-2.58c-0.36-0.76-0.86-1.4-1.48-1.92c-0.63-0.52-1.35-0.92-2.18-1.2
		c-0.83-0.28-1.68-0.42-2.57-0.42c-1.78,0-3.25,0.5-4.42,1.5c-1.17,1-1.98,2.32-2.42,3.96l-6.84-1.74c0.36-1.44,0.98-2.75,1.85-3.93
		c0.87-1.18,1.92-2.2,3.15-3.06c1.23-0.86,2.61-1.53,4.14-2.01c1.53-0.48,3.15-0.72,4.84-0.72c1.85,0,3.62,0.25,5.29,0.75
		c1.67,0.5,3.13,1.24,4.39,2.22c1.26,0.98,2.25,2.19,2.97,3.63s1.08,3.12,1.08,5.04c0,2.28-0.7,4.31-2.09,6.09
		c-1.39,1.78-3.26,2.95-5.6,3.51v0.12c2.62,0.52,4.75,1.69,6.38,3.51c1.63,1.82,2.45,4.05,2.45,6.69c0,2.2-0.43,4.12-1.29,5.76
		c-0.86,1.64-2,3-3.42,4.08c-1.42,1.08-3.02,1.89-4.79,2.43s-3.57,0.81-5.38,0.81s-3.53-0.19-5.14-0.57
		c-1.61-0.38-3.1-0.97-4.45-1.77c-1.35-0.8-2.54-1.84-3.57-3.12c-1.03-1.28-1.83-2.8-2.39-4.56l6.78-2.1
		c0.52,1.68,1.5,3.1,2.93,4.26c1.43,1.16,3.3,1.74,5.6,1.74c0.93,0,1.86-0.13,2.81-0.39c0.95-0.26,1.79-0.67,2.54-1.23
		c0.75-0.56,1.35-1.28,1.81-2.16c0.46-0.88,0.7-1.96,0.7-3.24c0-1.36-0.33-2.51-1-3.45c-0.67-0.94-1.5-1.68-2.51-2.22
		c-1.01-0.54-2.13-0.93-3.36-1.17c-1.23-0.24-2.41-0.36-3.54-0.36h-1.81V235.61z"/>
</g>
<g>
	<path d="M2162.46,254.03l16.52-16.08c1.33-1.28,2.39-2.57,3.18-3.87c0.79-1.3,1.18-2.79,1.18-4.47c0-2-0.66-3.59-1.97-4.77
		c-1.31-1.18-2.93-1.77-4.87-1.77c-2.06,0-3.71,0.69-4.96,2.07c-1.25,1.38-2.02,3.11-2.3,5.19l-7.08-1.08
		c0.2-1.76,0.71-3.38,1.51-4.86c0.81-1.48,1.83-2.76,3.08-3.84c1.25-1.08,2.71-1.93,4.39-2.55c1.67-0.62,3.5-0.93,5.48-0.93
		c1.85,0,3.64,0.26,5.35,0.78c1.71,0.52,3.24,1.31,4.57,2.37c1.33,1.06,2.39,2.36,3.18,3.9c0.79,1.54,1.18,3.33,1.18,5.37
		c0,1.36-0.18,2.63-0.54,3.81c-0.36,1.18-0.86,2.29-1.48,3.33c-0.63,1.04-1.35,2.03-2.18,2.97c-0.83,0.94-1.72,1.85-2.69,2.73
		l-12.34,11.7h19.3v6.6h-28.49V254.03z"/>
</g>
<rect x="1078.74" y="186.15" class="st4" width="105.57" height="104.74"/>
<rect x="1078.74" y="186.15" class="st5" width="105.57" height="104.74"/>
<rect x="1184.31" y="186.15" class="st4" width="105.57" height="104.74"/>
<rect x="1184.31" y="186.15" class="st5" width="105.57" height="104.74"/>
<rect x="1289.88" y="186.15" class="st4" width="105.57" height="104.74"/>
<rect x="1289.88" y="186.15" class="st5" width="105.57" height="104.74"/>
<rect x="1395.46" y="186.15" class="st4" width="105.57" height="104.74"/>
<rect x="1395.46" y="186.15" class="st5" width="105.57" height="104.74"/>
<line class="st5" x1="1501.03" y1="186.15" x2="1501.03" y2="290.89"/>
<g>
	<path d="M1127.67,235.61h1.94c1.09,0,2.17-0.09,3.24-0.27c1.07-0.18,2.05-0.51,2.93-0.99c0.89-0.48,1.6-1.13,2.15-1.95
		c0.54-0.82,0.82-1.89,0.82-3.21c0-0.96-0.18-1.82-0.54-2.58c-0.36-0.76-0.86-1.4-1.48-1.92c-0.63-0.52-1.35-0.92-2.18-1.2
		c-0.83-0.28-1.68-0.42-2.57-0.42c-1.78,0-3.25,0.5-4.42,1.5c-1.17,1-1.98,2.32-2.42,3.96l-6.84-1.74c0.36-1.44,0.98-2.75,1.85-3.93
		c0.87-1.18,1.92-2.2,3.15-3.06c1.23-0.86,2.61-1.53,4.14-2.01c1.53-0.48,3.15-0.72,4.84-0.72c1.85,0,3.62,0.25,5.29,0.75
		c1.67,0.5,3.13,1.24,4.39,2.22c1.26,0.98,2.25,2.19,2.97,3.63s1.08,3.12,1.08,5.04c0,2.28-0.7,4.31-2.09,6.09
		c-1.39,1.78-3.26,2.95-5.6,3.51v0.12c2.62,0.52,4.75,1.69,6.38,3.51c1.63,1.82,2.45,4.05,2.45,6.69c0,2.2-0.43,4.12-1.29,5.76
		c-0.86,1.64-2,3-3.42,4.08c-1.42,1.08-3.02,1.89-4.79,2.43s-3.57,0.81-5.38,0.81s-3.53-0.19-5.14-0.57
		c-1.61-0.38-3.1-0.97-4.45-1.77c-1.35-0.8-2.54-1.84-3.57-3.12c-1.03-1.28-1.83-2.8-2.39-4.56l6.78-2.1
		c0.52,1.68,1.5,3.1,2.93,4.26c1.43,1.16,3.3,1.74,5.6,1.74c0.93,0,1.86-0.13,2.81-0.39c0.95-0.26,1.79-0.67,2.54-1.23
		c0.75-0.56,1.35-1.28,1.81-2.16c0.46-0.88,0.7-1.96,0.7-3.24c0-1.36-0.33-2.51-1-3.45c-0.67-0.94-1.5-1.68-2.51-2.22
		c-1.01-0.54-2.13-0.93-3.36-1.17c-1.23-0.24-2.41-0.36-3.54-0.36h-1.81V235.61z"/>
</g>
<g>
	<path d="M1239.4,251.81h-19.78v-6.36l18.21-27.31h8.71v27.49h5.99v6.18h-5.99v8.82h-7.14V251.81z M1239.4,226.6h-0.12l-12.16,19.03
		h12.28V226.6z"/>
</g>
<g>
	<path d="M1334.66,235.61h1.94c1.09,0,2.17-0.09,3.24-0.27c1.07-0.18,2.05-0.51,2.93-0.99c0.89-0.48,1.6-1.13,2.15-1.95
		c0.54-0.82,0.82-1.89,0.82-3.21c0-0.96-0.18-1.82-0.54-2.58c-0.36-0.76-0.86-1.4-1.48-1.92c-0.63-0.52-1.35-0.92-2.18-1.2
		c-0.83-0.28-1.68-0.42-2.57-0.42c-1.78,0-3.25,0.5-4.42,1.5c-1.17,1-1.98,2.32-2.42,3.96l-6.84-1.74c0.36-1.44,0.98-2.75,1.85-3.93
		c0.87-1.18,1.92-2.2,3.15-3.06c1.23-0.86,2.61-1.53,4.14-2.01c1.53-0.48,3.15-0.72,4.84-0.72c1.85,0,3.62,0.25,5.29,0.75
		c1.67,0.5,3.13,1.24,4.39,2.22c1.26,0.98,2.25,2.19,2.97,3.63s1.08,3.12,1.08,5.04c0,2.28-0.7,4.31-2.09,6.09
		c-1.39,1.78-3.26,2.95-5.6,3.51v0.12c2.62,0.52,4.75,1.69,6.38,3.51c1.63,1.82,2.45,4.05,2.45,6.69c0,2.2-0.43,4.12-1.29,5.76
		c-0.86,1.64-2,3-3.42,4.08c-1.42,1.08-3.02,1.89-4.79,2.43s-3.57,0.81-5.38,0.81s-3.53-0.19-5.14-0.57
		c-1.61-0.38-3.1-0.97-4.45-1.77c-1.35-0.8-2.54-1.84-3.57-3.12c-1.03-1.28-1.83-2.8-2.39-4.56l6.78-2.1
		c0.52,1.68,1.5,3.1,2.93,4.26c1.43,1.16,3.3,1.74,5.6,1.74c0.93,0,1.86-0.13,2.81-0.39c0.95-0.26,1.79-0.67,2.54-1.23
		c0.75-0.56,1.35-1.28,1.81-2.16c0.46-0.88,0.7-1.96,0.7-3.24c0-1.36-0.33-2.51-1-3.45c-0.67-0.94-1.5-1.68-2.51-2.22
		c-1.01-0.54-2.13-0.93-3.36-1.17c-1.23-0.24-2.41-0.36-3.54-0.36h-1.81V235.61z"/>
</g>
<g>
	<path d="M1429.51,254.03l16.52-16.08c1.33-1.28,2.39-2.57,3.18-3.87c0.79-1.3,1.18-2.79,1.18-4.47c0-2-0.66-3.59-1.97-4.77
		c-1.31-1.18-2.93-1.77-4.87-1.77c-2.06,0-3.71,0.69-4.96,2.07c-1.25,1.38-2.02,3.11-2.3,5.19l-7.08-1.08
		c0.2-1.76,0.71-3.38,1.51-4.86c0.81-1.48,1.83-2.76,3.08-3.84c1.25-1.08,2.71-1.93,4.39-2.55c1.67-0.62,3.5-0.93,5.48-0.93
		c1.85,0,3.64,0.26,5.35,0.78c1.71,0.52,3.24,1.31,4.57,2.37c1.33,1.06,2.39,2.36,3.18,3.9c0.79,1.54,1.18,3.33,1.18,5.37
		c0,1.36-0.18,2.63-0.54,3.81c-0.36,1.18-0.86,2.29-1.48,3.33c-0.63,1.04-1.35,2.03-2.18,2.97c-0.83,0.94-1.72,1.85-2.69,2.73
		l-12.34,11.7h19.3v6.6h-28.49V254.03z"/>
</g>
<rect x="1811.68" y="308.57" class="st10" width="105.57" height="104.74"/>
<rect x="1811.68" y="308.57" class="st11" width="105.57" height="104.74"/>
<rect x="1917.26" y="308.57" class="st10" width="105.57" height="104.74"/>
<rect x="1917.26" y="308.57" class="st12" width="105.57" height="104.74"/>
<rect x="2022.83" y="308.57" class="st10" width="105.57" height="104.74"/>
<rect x="2022.83" y="308.57" class="st12" width="105.57" height="104.74"/>
<rect x="2128.4" y="308.57" class="st10" width="105.57" height="104.74"/>
<rect x="2128.4" y="308.57" class="st12" width="105.57" height="104.74"/>
<g>
	<path d="M1860.62,358.02h1.94c1.09,0,2.17-0.09,3.24-0.27c1.07-0.18,2.05-0.51,2.93-0.99c0.89-0.48,1.6-1.13,2.15-1.95
		c0.54-0.82,0.82-1.89,0.82-3.21c0-0.96-0.18-1.82-0.54-2.58c-0.36-0.76-0.86-1.4-1.48-1.92c-0.63-0.52-1.35-0.92-2.18-1.2
		c-0.83-0.28-1.68-0.42-2.57-0.42c-1.78,0-3.25,0.5-4.42,1.5c-1.17,1-1.98,2.32-2.42,3.96l-6.84-1.74c0.36-1.44,0.98-2.75,1.85-3.93
		c0.87-1.18,1.92-2.2,3.15-3.06c1.23-0.86,2.61-1.53,4.14-2.01c1.53-0.48,3.15-0.72,4.84-0.72c1.85,0,3.62,0.25,5.29,0.75
		c1.67,0.5,3.13,1.24,4.39,2.22c1.26,0.98,2.25,2.19,2.97,3.63s1.08,3.12,1.08,5.04c0,2.28-0.7,4.31-2.09,6.09
		c-1.39,1.78-3.26,2.95-5.6,3.51v0.12c2.62,0.52,4.75,1.69,6.38,3.51c1.63,1.82,2.45,4.05,2.45,6.69c0,2.2-0.43,4.12-1.29,5.76
		c-0.86,1.64-2,3-3.42,4.08c-1.42,1.08-3.02,1.89-4.79,2.43s-3.57,0.81-5.38,0.81s-3.53-0.19-5.14-0.57
		c-1.61-0.38-3.1-0.97-4.45-1.77c-1.35-0.8-2.54-1.84-3.57-3.12c-1.03-1.28-1.83-2.8-2.39-4.56l6.78-2.1
		c0.52,1.68,1.5,3.1,2.93,4.26c1.43,1.16,3.3,1.74,5.6,1.74c0.93,0,1.86-0.13,2.81-0.39c0.95-0.26,1.79-0.67,2.54-1.23
		c0.75-0.56,1.35-1.28,1.81-2.16c0.46-0.88,0.7-1.96,0.7-3.24c0-1.36-0.33-2.51-1-3.45c-0.67-0.94-1.5-1.68-2.51-2.22
		c-1.01-0.54-2.13-0.93-3.36-1.17c-1.23-0.24-2.41-0.36-3.54-0.36h-1.81V358.02z"/>
</g>
<g>
	<path class="st13" d="M1968.17,349.32l-8.47,6.9l-4.23-4.98l13.37-10.68h6.59v42.49h-7.26V349.32z"/>
</g>
<g>
	<path class="st13" d="M2071.66,349.32l-8.47,6.9l-4.23-4.98l13.37-10.68h6.59v42.49h-7.26V349.32z"/>
</g>
<g>
	<path class="st13" d="M2175.16,349.32l-8.47,6.9l-4.24-4.98l13.37-10.68h6.59v42.49h-7.26V349.32z"/>
</g>
<g>
	<path d="M49.62,72.51h-5.73l-2.69-8.35H25.13l-2.72,8.35h-5.46l12.82-38.3h7.21L49.62,72.51z M39.7,59.5l-6.53-20.48L26.64,59.5
		H39.7z"/>
	<path d="M55.85,43.08h4.7l0.15,5.42c1.75-2.09,3.48-3.6,5.18-4.54c1.7-0.94,3.42-1.41,5.15-1.41c3.07,0,5.4,0.99,6.99,2.96
		c1.58,1.97,2.32,4.9,2.2,8.79h-5.2c0.06-2.58-0.32-4.45-1.14-5.61c-0.82-1.16-2.01-1.74-3.59-1.74c-0.69,0-1.38,0.12-2.08,0.37
		c-0.7,0.24-1.42,0.64-2.16,1.17c-0.74,0.54-1.52,1.23-2.35,2.07c-0.83,0.84-1.71,1.86-2.66,3.05v18.9h-5.2V43.08z"/>
	<path d="M89.12,43.08h4.7l0.15,5.42c1.75-2.09,3.48-3.6,5.18-4.54c1.7-0.94,3.42-1.41,5.15-1.41c3.07,0,5.4,0.99,6.99,2.96
		c1.58,1.97,2.32,4.9,2.2,8.79h-5.2c0.06-2.58-0.32-4.45-1.14-5.61c-0.82-1.16-2.01-1.74-3.59-1.74c-0.69,0-1.38,0.12-2.08,0.37
		c-0.7,0.24-1.42,0.64-2.16,1.17c-0.74,0.54-1.52,1.23-2.35,2.07c-0.83,0.84-1.71,1.86-2.66,3.05v18.9h-5.2V43.08z"/>
	<path d="M140.22,72.51l-0.12-3.96c-1.61,1.58-3.25,2.73-4.92,3.43c-1.66,0.7-3.41,1.05-5.24,1.05c-1.69,0-3.14-0.21-4.34-0.64
		c-1.2-0.43-2.19-1.02-2.97-1.77c-0.78-0.75-1.35-1.64-1.71-2.65c-0.36-1.02-0.55-2.12-0.55-3.31c0-2.95,1.11-5.26,3.32-6.93
		s5.49-2.51,9.82-2.51h6.14v-2.58c0-1.74-0.56-3.13-1.68-4.18c-1.12-1.04-2.84-1.57-5.14-1.57c-1.67,0-3.32,0.19-4.95,0.56
		c-1.62,0.37-3.3,0.9-5.04,1.58v-4.6c0.65-0.23,1.37-0.46,2.17-0.69c0.8-0.22,1.64-0.43,2.53-0.6c0.89-0.18,1.81-0.32,2.78-0.42
		c0.96-0.11,1.94-0.16,2.92-0.16c1.79,0,3.41,0.2,4.84,0.59c1.44,0.39,2.65,0.99,3.65,1.79c0.99,0.8,1.76,1.81,2.29,3.02
		c0.53,1.21,0.8,2.64,0.8,4.28v20.28H140.22z M139.66,59.11h-6.53c-1.28,0-2.38,0.13-3.31,0.38c-0.93,0.25-1.68,0.62-2.27,1.08
		c-0.59,0.47-1.03,1.03-1.31,1.69s-0.43,1.39-0.43,2.21c0,0.57,0.09,1.11,0.27,1.63c0.18,0.52,0.46,0.98,0.86,1.38
		c0.39,0.4,0.91,0.72,1.54,0.95c0.63,0.23,1.4,0.35,2.3,0.35c1.18,0,2.54-0.36,4.06-1.07c1.53-0.71,3.14-1.84,4.83-3.38V59.11z"/>
	<path d="M180.81,43.08L170.7,69.4c-1.04,2.68-2.12,4.98-3.23,6.92c-1.11,1.93-2.33,3.52-3.65,4.76s-2.77,2.15-4.34,2.74
		c-1.58,0.59-3.34,0.88-5.29,0.88c-0.51,0-0.97-0.01-1.39-0.03c-0.41-0.02-0.87-0.05-1.36-0.09v-4.63c0.43,0.06,0.91,0.11,1.42,0.16
		c0.51,0.05,1.05,0.07,1.62,0.07c0.95,0,1.83-0.14,2.64-0.41c0.82-0.27,1.59-0.72,2.32-1.33c0.73-0.62,1.43-1.41,2.1-2.39
		c0.67-0.98,1.32-2.16,1.95-3.55l-11.85-29.42h5.85l7.5,19.46l1.51,4.57l1.71-4.69l6.94-19.34H180.81z"/>
	<path d="M210.08,69.75l-3.22,3.22l-19.85-16.44l19.85-16.44l3.22,3.25l-16.1,13.13L210.08,69.75z"/>
	<path d="M249.19,72.51h-5.73l-2.69-8.35H224.7l-2.72,8.35h-5.46l12.82-38.3h7.21L249.19,72.51z M239.26,59.5l-6.53-20.48
		l-6.53,20.48H239.26z"/>
	<path d="M255.42,43.08h4.7l0.15,5.42c1.75-2.09,3.48-3.6,5.18-4.54c1.7-0.94,3.42-1.41,5.15-1.41c3.07,0,5.4,0.99,6.99,2.96
		c1.58,1.97,2.32,4.9,2.2,8.79h-5.2c0.06-2.58-0.32-4.45-1.14-5.61c-0.82-1.16-2.01-1.74-3.59-1.74c-0.69,0-1.38,0.12-2.08,0.37
		c-0.7,0.24-1.42,0.64-2.16,1.17c-0.74,0.54-1.52,1.23-2.35,2.07c-0.83,0.84-1.71,1.86-2.66,3.05v18.9h-5.2V43.08z"/>
	<path d="M288.68,43.08h4.7l0.15,5.42c1.75-2.09,3.48-3.6,5.18-4.54c1.7-0.94,3.42-1.41,5.15-1.41c3.07,0,5.4,0.99,6.99,2.96
		c1.58,1.97,2.32,4.9,2.2,8.79h-5.2c0.06-2.58-0.32-4.45-1.14-5.61c-0.82-1.16-2.01-1.74-3.59-1.74c-0.69,0-1.38,0.12-2.08,0.37
		c-0.7,0.24-1.42,0.64-2.16,1.17c-0.74,0.54-1.52,1.23-2.35,2.07c-0.83,0.84-1.71,1.86-2.66,3.05v18.9h-5.2V43.08z"/>
	<path d="M339.79,72.51l-0.12-3.96c-1.61,1.58-3.25,2.73-4.92,3.43c-1.66,0.7-3.41,1.05-5.24,1.05c-1.69,0-3.14-0.21-4.34-0.64
		c-1.2-0.43-2.19-1.02-2.97-1.77c-0.78-0.75-1.35-1.64-1.71-2.65c-0.36-1.02-0.55-2.12-0.55-3.31c0-2.95,1.11-5.26,3.32-6.93
		s5.49-2.51,9.82-2.51h6.14v-2.58c0-1.74-0.56-3.13-1.68-4.18c-1.12-1.04-2.84-1.57-5.14-1.57c-1.67,0-3.32,0.19-4.95,0.56
		c-1.62,0.37-3.3,0.9-5.04,1.58v-4.6c0.65-0.23,1.37-0.46,2.17-0.69c0.8-0.22,1.64-0.43,2.53-0.6c0.89-0.18,1.81-0.32,2.78-0.42
		c0.96-0.11,1.94-0.16,2.92-0.16c1.79,0,3.41,0.2,4.84,0.59c1.44,0.39,2.65,0.99,3.65,1.79c0.99,0.8,1.76,1.81,2.29,3.02
		c0.53,1.21,0.8,2.64,0.8,4.28v20.28H339.79z M339.23,59.11h-6.53c-1.28,0-2.38,0.13-3.31,0.38c-0.93,0.25-1.68,0.62-2.27,1.08
		c-0.59,0.47-1.03,1.03-1.31,1.69s-0.43,1.39-0.43,2.21c0,0.57,0.09,1.11,0.27,1.63c0.18,0.52,0.46,0.98,0.86,1.38
		c0.39,0.4,0.91,0.72,1.54,0.95c0.63,0.23,1.4,0.35,2.3,0.35c1.18,0,2.54-0.36,4.06-1.07c1.53-0.71,3.14-1.84,4.83-3.38V59.11z"/>
	<path d="M380.37,43.08l-10.1,26.32c-1.04,2.68-2.12,4.98-3.23,6.92c-1.11,1.93-2.33,3.52-3.65,4.76s-2.77,2.15-4.34,2.74
		c-1.58,0.59-3.34,0.88-5.29,0.88c-0.51,0-0.97-0.01-1.39-0.03c-0.41-0.02-0.87-0.05-1.36-0.09v-4.63c0.43,0.06,0.91,0.11,1.42,0.16
		c0.51,0.05,1.05,0.07,1.62,0.07c0.95,0,1.83-0.14,2.64-0.41c0.82-0.27,1.59-0.72,2.32-1.33c0.73-0.62,1.43-1.41,2.1-2.39
		c0.67-0.98,1.32-2.16,1.95-3.55l-11.85-29.42h5.85l7.5,19.46l1.51,4.57l1.71-4.69l6.94-19.34H380.37z"/>
	<path d="M409.65,69.75l-3.22,3.22l-19.85-16.44l19.85-16.44l3.22,3.25l-16.1,13.13L409.65,69.75z"/>
	<path d="M448.76,72.51h-5.73l-2.69-8.35h-16.07l-2.72,8.35h-5.46l12.82-38.3h7.21L448.76,72.51z M438.83,59.5l-6.53-20.48
		l-6.53,20.48H438.83z"/>
	<path d="M454.99,43.08h4.7l0.15,5.42c1.75-2.09,3.48-3.6,5.18-4.54c1.7-0.94,3.42-1.41,5.15-1.41c3.07,0,5.4,0.99,6.99,2.96
		c1.58,1.97,2.32,4.9,2.2,8.79h-5.2c0.06-2.58-0.32-4.45-1.14-5.61c-0.82-1.16-2.01-1.74-3.59-1.74c-0.69,0-1.38,0.12-2.08,0.37
		c-0.7,0.24-1.42,0.64-2.16,1.17c-0.74,0.54-1.52,1.23-2.35,2.07c-0.83,0.84-1.71,1.86-2.66,3.05v18.9h-5.2V43.08z"/>
	<path d="M488.25,43.08h4.7l0.15,5.42c1.75-2.09,3.48-3.6,5.18-4.54c1.7-0.94,3.42-1.41,5.15-1.41c3.07,0,5.4,0.99,6.99,2.96
		c1.58,1.97,2.32,4.9,2.2,8.79h-5.2c0.06-2.58-0.32-4.45-1.14-5.61c-0.82-1.16-2.01-1.74-3.59-1.74c-0.69,0-1.38,0.12-2.08,0.37
		c-0.7,0.24-1.42,0.64-2.16,1.17c-0.74,0.54-1.52,1.23-2.35,2.07c-0.83,0.84-1.71,1.86-2.66,3.05v18.9h-5.2V43.08z"/>
	<path d="M539.35,72.51l-0.12-3.96c-1.61,1.58-3.25,2.73-4.92,3.43c-1.66,0.7-3.41,1.05-5.24,1.05c-1.69,0-3.14-0.21-4.34-0.64
		c-1.2-0.43-2.19-1.02-2.97-1.77c-0.78-0.75-1.35-1.64-1.71-2.65c-0.36-1.02-0.55-2.12-0.55-3.31c0-2.95,1.11-5.26,3.32-6.93
		s5.49-2.51,9.82-2.51h6.14v-2.58c0-1.74-0.56-3.13-1.68-4.18c-1.12-1.04-2.84-1.57-5.14-1.57c-1.67,0-3.32,0.19-4.95,0.56
		c-1.62,0.37-3.3,0.9-5.04,1.58v-4.6c0.65-0.23,1.37-0.46,2.17-0.69c0.8-0.22,1.64-0.43,2.53-0.6c0.89-0.18,1.81-0.32,2.78-0.42
		c0.96-0.11,1.94-0.16,2.92-0.16c1.79,0,3.41,0.2,4.84,0.59c1.44,0.39,2.65,0.99,3.65,1.79c0.99,0.8,1.76,1.81,2.29,3.02
		c0.53,1.21,0.8,2.64,0.8,4.28v20.28H539.35z M538.79,59.11h-6.53c-1.28,0-2.38,0.13-3.31,0.38c-0.93,0.25-1.68,0.62-2.27,1.08
		c-0.59,0.47-1.03,1.03-1.31,1.69s-0.43,1.39-0.43,2.21c0,0.57,0.09,1.11,0.27,1.63c0.18,0.52,0.46,0.98,0.86,1.38
		c0.39,0.4,0.91,0.72,1.54,0.95c0.63,0.23,1.4,0.35,2.3,0.35c1.18,0,2.54-0.36,4.06-1.07c1.53-0.71,3.14-1.84,4.83-3.38V59.11z"/>
	<path d="M579.94,43.08l-10.1,26.32c-1.04,2.68-2.12,4.98-3.23,6.92c-1.11,1.93-2.33,3.52-3.65,4.76s-2.77,2.15-4.34,2.74
		c-1.58,0.59-3.34,0.88-5.29,0.88c-0.51,0-0.97-0.01-1.39-0.03c-0.41-0.02-0.87-0.05-1.36-0.09v-4.63c0.43,0.06,0.91,0.11,1.42,0.16
		c0.51,0.05,1.05,0.07,1.62,0.07c0.95,0,1.83-0.14,2.64-0.41c0.82-0.27,1.59-0.72,2.32-1.33c0.73-0.62,1.43-1.41,2.1-2.39
		c0.67-0.98,1.32-2.16,1.95-3.55l-11.85-29.42h5.85l7.5,19.46l1.51,4.57l1.71-4.69l6.94-19.34H579.94z"/>
	<path d="M609.21,69.75l-3.22,3.22l-19.85-16.44l19.85-16.44l3.22,3.25l-16.1,13.13L609.21,69.75z"/>
	<path d="M648.32,72.51h-5.73l-2.69-8.35h-16.07l-2.72,8.35h-5.46l12.82-38.3h7.21L648.32,72.51z M638.4,59.5l-6.53-20.48
		l-6.53,20.48H638.4z"/>
	<path d="M654.56,43.08h4.7l0.15,5.42c1.75-2.09,3.48-3.6,5.18-4.54c1.7-0.94,3.42-1.41,5.15-1.41c3.07,0,5.4,0.99,6.99,2.96
		c1.58,1.97,2.32,4.9,2.2,8.79h-5.2c0.06-2.58-0.32-4.45-1.14-5.61c-0.82-1.16-2.01-1.74-3.59-1.74c-0.69,0-1.38,0.12-2.08,0.37
		c-0.7,0.24-1.42,0.64-2.16,1.17c-0.74,0.54-1.52,1.23-2.35,2.07c-0.83,0.84-1.71,1.86-2.66,3.05v18.9h-5.2V43.08z"/>
	<path d="M687.82,43.08h4.7l0.15,5.42c1.75-2.09,3.48-3.6,5.18-4.54c1.7-0.94,3.42-1.41,5.15-1.41c3.07,0,5.4,0.99,6.99,2.96
		c1.58,1.97,2.32,4.9,2.2,8.79h-5.2c0.06-2.58-0.32-4.45-1.14-5.61c-0.82-1.16-2.01-1.74-3.59-1.74c-0.69,0-1.38,0.12-2.08,0.37
		c-0.7,0.24-1.42,0.64-2.16,1.17c-0.74,0.54-1.52,1.23-2.35,2.07c-0.83,0.84-1.71,1.86-2.66,3.05v18.9h-5.2V43.08z"/>
	<path d="M738.92,72.51l-0.12-3.96c-1.61,1.58-3.25,2.73-4.92,3.43c-1.66,0.7-3.41,1.05-5.24,1.05c-1.69,0-3.14-0.21-4.34-0.64
		c-1.2-0.43-2.19-1.02-2.97-1.77c-0.78-0.75-1.35-1.64-1.71-2.65c-0.36-1.02-0.55-2.12-0.55-3.31c0-2.95,1.11-5.26,3.32-6.93
		s5.49-2.51,9.82-2.51h6.14v-2.58c0-1.74-0.56-3.13-1.68-4.18c-1.12-1.04-2.84-1.57-5.14-1.57c-1.67,0-3.32,0.19-4.95,0.56
		c-1.62,0.37-3.3,0.9-5.04,1.58v-4.6c0.65-0.23,1.37-0.46,2.17-0.69c0.8-0.22,1.64-0.43,2.53-0.6c0.89-0.18,1.81-0.32,2.78-0.42
		c0.96-0.11,1.94-0.16,2.92-0.16c1.79,0,3.41,0.2,4.84,0.59c1.44,0.39,2.65,0.99,3.65,1.79c0.99,0.8,1.76,1.81,2.29,3.02
		c0.53,1.21,0.8,2.64,0.8,4.28v20.28H738.92z M738.36,59.11h-6.53c-1.28,0-2.38,0.13-3.31,0.38c-0.93,0.25-1.68,0.62-2.27,1.08
		c-0.59,0.47-1.03,1.03-1.31,1.69s-0.43,1.39-0.43,2.21c0,0.57,0.09,1.11,0.27,1.63c0.18,0.52,0.46,0.98,0.86,1.38
		c0.39,0.4,0.91,0.72,1.54,0.95c0.63,0.23,1.4,0.35,2.3,0.35c1.18,0,2.54-0.36,4.06-1.07c1.53-0.71,3.14-1.84,4.83-3.38V59.11z"/>
	<path d="M779.51,43.08l-10.1,26.32c-1.04,2.68-2.12,4.98-3.23,6.92c-1.11,1.93-2.33,3.52-3.65,4.76s-2.77,2.15-4.34,2.74
		c-1.58,0.59-3.34,0.88-5.29,0.88c-0.51,0-0.97-0.01-1.39-0.03c-0.41-0.02-0.87-0.05-1.36-0.09v-4.63c0.43,0.06,0.91,0.11,1.42,0.16
		c0.51,0.05,1.05,0.07,1.62,0.07c0.95,0,1.83-0.14,2.64-0.41c0.82-0.27,1.59-0.72,2.32-1.33c0.73-0.62,1.43-1.41,2.1-2.39
		c0.67-0.98,1.32-2.16,1.95-3.55l-11.85-29.42h5.85l7.5,19.46l1.51,4.57l1.71-4.69l6.94-19.34H779.51z"/>
	<path d="M808.78,69.75l-3.22,3.22l-19.85-16.44l19.85-16.44l3.22,3.25l-16.1,13.13L808.78,69.75z"/>
	<path class="st15" d="M845.97,37.16c-0.87-0.27-1.9-0.5-3.09-0.69c-1.19-0.19-2.41-0.28-3.65-0.28c-0.85,0-1.63,0.11-2.36,0.34
		c-0.73,0.23-1.36,0.58-1.89,1.07s-0.95,1.11-1.26,1.86c-0.31,0.75-0.46,1.67-0.46,2.74v4.81h11.79v5.57h-11.79v19.93H826V52.58
		h-8.71v-5.57H826V42.5c0-2.11,0.31-3.92,0.93-5.44c0.62-1.51,1.5-2.75,2.63-3.72c1.13-0.97,2.5-1.67,4.09-2.12
		c1.59-0.45,3.38-0.67,5.35-0.67c1.3,0,2.54,0.08,3.71,0.25c1.17,0.17,2.26,0.37,3.26,0.6V37.16z"/>
	<path class="st15" d="M861.98,36.67h-8.48V31.1h15.86v35.84h8.65v5.57h-25.55v-5.57h9.51V36.67z"/>
	<path class="st15" d="M912.58,57.39c0,2.34-0.33,4.49-1,6.43c-0.67,1.94-1.63,3.61-2.9,5s-2.81,2.46-4.64,3.22
		c-1.83,0.76-3.92,1.14-6.26,1.14c-2.23,0-4.21-0.32-5.97-0.97c-1.75-0.65-3.24-1.61-4.46-2.89c-1.22-1.28-2.16-2.88-2.81-4.81
		c-0.65-1.92-0.97-4.17-0.97-6.73c0-2.36,0.34-4.51,1.02-6.45c0.68-1.93,1.65-3.58,2.92-4.95c1.27-1.37,2.82-2.43,4.65-3.18
		c1.83-0.75,3.9-1.13,6.2-1.13c2.25,0,4.24,0.33,6,0.98c1.75,0.65,3.24,1.63,4.46,2.92c1.22,1.29,2.15,2.89,2.79,4.79
		C912.26,52.68,912.58,54.88,912.58,57.39z M905.08,57.56c0-3.09-0.59-5.41-1.76-6.96c-1.17-1.55-2.9-2.33-5.18-2.33
		c-1.26,0-2.33,0.24-3.22,0.73c-0.89,0.49-1.61,1.16-2.19,2.01c-0.57,0.85-0.99,1.84-1.26,2.97c-0.27,1.13-0.4,2.34-0.4,3.63
		c0,3.11,0.63,5.45,1.89,7.02c1.26,1.57,2.98,2.36,5.17,2.36c1.2,0,2.25-0.24,3.13-0.72c0.89-0.48,1.6-1.14,2.16-1.99
		c0.55-0.85,0.96-1.85,1.24-3C904.94,60.13,905.08,58.89,905.08,57.56z"/>
	<path class="st15" d="M937.63,72.51l-0.18-3.9c-0.63,0.66-1.29,1.27-1.98,1.83c-0.69,0.56-1.45,1.04-2.27,1.45
		c-0.83,0.41-1.73,0.73-2.7,0.95c-0.97,0.22-2.04,0.34-3.21,0.34c-1.54,0-2.88-0.22-4.05-0.67s-2.14-1.07-2.92-1.88
		c-0.79-0.8-1.38-1.77-1.79-2.9c-0.4-1.13-0.61-2.38-0.61-3.75c0-1.41,0.3-2.71,0.9-3.9c0.6-1.19,1.52-2.22,2.75-3.08
		c1.23-0.86,2.77-1.53,4.61-2.02c1.84-0.49,4-0.73,6.48-0.73h3.93v-1.79c0-0.76-0.11-1.45-0.33-2.07s-0.57-1.14-1.05-1.57
		c-0.48-0.43-1.11-0.76-1.88-1s-1.71-0.35-2.84-0.35c-1.77,0-3.52,0.2-5.24,0.6c-1.72,0.4-3.39,0.96-5.01,1.69v-5.71
		c1.44-0.57,3.1-1.04,4.98-1.41c1.88-0.37,3.83-0.56,5.86-0.56c2.23,0,4.14,0.21,5.73,0.63c1.59,0.42,2.91,1.05,3.94,1.89
		c1.03,0.84,1.8,1.89,2.29,3.15s0.74,2.73,0.74,4.41v20.34H937.63z M936.6,59.35h-4.4c-1.22,0-2.26,0.12-3.1,0.35
		c-0.85,0.23-1.54,0.56-2.07,0.97c-0.53,0.41-0.92,0.88-1.17,1.42c-0.25,0.54-0.37,1.11-0.37,1.71c0,1.21,0.39,2.13,1.18,2.77
		c0.79,0.64,1.86,0.95,3.22,0.95c1,0,2.05-0.36,3.13-1.08c1.08-0.72,2.27-1.76,3.57-3.11V59.35z"/>
	<path class="st15" d="M976.83,72.21c-1.3,0.29-2.61,0.53-3.93,0.7c-1.32,0.18-2.57,0.26-3.75,0.26c-1.97,0-3.67-0.21-5.1-0.62
		s-2.61-1.04-3.54-1.88c-0.94-0.84-1.62-1.91-2.07-3.21c-0.44-1.3-0.66-2.85-0.66-4.65V48.3h-8.06v-5.57h8.06v-7.62l7.38-1.9v9.52
		h11.67v5.57h-11.67v14.01c0,1.7,0.39,2.98,1.18,3.85c0.79,0.87,2.11,1.3,3.96,1.3c1.18,0,2.33-0.1,3.46-0.29s2.15-0.42,3.07-0.67
		V72.21z"/>
	<path d="M988.26,78.52c1,0.04,1.98-0.05,2.92-0.26c0.95-0.22,1.78-0.53,2.5-0.95c0.72-0.42,1.29-0.94,1.73-1.57
		c0.43-0.63,0.65-1.34,0.65-2.14c0-0.82-0.14-1.48-0.43-1.99c-0.29-0.51-0.61-0.98-0.96-1.41s-0.67-0.89-0.96-1.38
		c-0.29-0.49-0.43-1.14-0.43-1.96c0-0.41,0.08-0.84,0.24-1.29c0.16-0.45,0.4-0.86,0.72-1.23c0.32-0.37,0.74-0.67,1.24-0.91
		c0.5-0.23,1.1-0.35,1.79-0.35s1.35,0.14,1.99,0.42c0.64,0.28,1.2,0.72,1.68,1.3c0.48,0.59,0.87,1.32,1.15,2.2
		c0.29,0.88,0.43,1.91,0.43,3.11c0,1.62-0.3,3.18-0.9,4.67c-0.6,1.49-1.5,2.82-2.69,3.97c-1.19,1.15-2.68,2.07-4.46,2.75
		c-1.78,0.68-3.85,1.03-6.22,1.03V78.52z"/>
	<path class="st16" d="M1076.79,60.87c0,1.68-0.34,3.26-1.03,4.73s-1.72,2.76-3.1,3.87c-1.38,1.1-3.11,1.97-5.2,2.61
		c-2.09,0.63-4.52,0.95-7.3,0.95c-1.54,0-2.91-0.05-4.14-0.15c-1.22-0.1-2.36-0.22-3.43-0.38v-4.57c1.22,0.22,2.51,0.38,3.87,0.5
		c1.36,0.12,2.75,0.18,4.17,0.18c1.93,0,3.58-0.17,4.95-0.51c1.37-0.34,2.49-0.83,3.35-1.48c0.87-0.64,1.5-1.43,1.89-2.34
		c0.39-0.92,0.59-1.95,0.59-3.11c0-1.06-0.24-1.97-0.71-2.75c-0.47-0.78-1.14-1.44-1.99-1.96c-0.86-0.53-1.88-0.92-3.07-1.19
		s-2.5-0.4-3.91-0.4h-4.4v-4.19h4.46c1.16,0,2.22-0.15,3.18-0.45c0.96-0.3,1.77-0.74,2.45-1.3c0.68-0.57,1.2-1.26,1.57-2.1
		c0.36-0.83,0.55-1.77,0.55-2.83c0-2.05-0.63-3.55-1.89-4.48c-1.26-0.94-3.11-1.41-5.55-1.41c-1.3,0-2.64,0.13-4.02,0.38
		c-1.38,0.25-2.86,0.64-4.43,1.14v-4.45c0.67-0.23,1.38-0.44,2.14-0.63c0.76-0.19,1.52-0.34,2.27-0.47
		c0.76-0.13,1.51-0.22,2.26-0.29c0.75-0.07,1.47-0.1,2.16-0.1c2.05,0,3.85,0.22,5.41,0.66c1.56,0.44,2.85,1.07,3.9,1.89
		s1.83,1.82,2.36,2.99s0.8,2.49,0.8,3.96c0,2.19-0.57,4.03-1.7,5.51c-1.13,1.48-2.68,2.67-4.65,3.55c1,0.16,1.99,0.47,2.97,0.94
		c0.97,0.47,1.85,1.07,2.63,1.8c0.78,0.73,1.41,1.6,1.89,2.59C1076.55,58.56,1076.79,59.66,1076.79,60.87z"/>
	<path d="M1087.19,43.35l3.19-3.25l19.85,16.44l-19.85,16.44l-3.19-3.22l16.1-13.16L1087.19,43.35z"/>
	<path d="M1121.3,78.52c1,0.04,1.98-0.05,2.92-0.26c0.95-0.22,1.78-0.53,2.5-0.95c0.72-0.42,1.29-0.94,1.73-1.57
		c0.43-0.63,0.65-1.34,0.65-2.14c0-0.82-0.14-1.48-0.43-1.99c-0.29-0.51-0.61-0.98-0.96-1.41s-0.67-0.89-0.96-1.38
		c-0.29-0.49-0.43-1.14-0.43-1.96c0-0.41,0.08-0.84,0.24-1.29c0.16-0.45,0.4-0.86,0.72-1.23c0.32-0.37,0.74-0.67,1.24-0.91
		c0.5-0.23,1.1-0.35,1.79-0.35s1.35,0.14,1.99,0.42c0.64,0.28,1.2,0.72,1.68,1.3c0.48,0.59,0.87,1.32,1.15,2.2
		c0.29,0.88,0.43,1.91,0.43,3.11c0,1.62-0.3,3.18-0.9,4.67c-0.6,1.49-1.5,2.82-2.69,3.97c-1.19,1.15-2.68,2.07-4.46,2.75
		c-1.78,0.68-3.85,1.03-6.22,1.03V78.52z"/>
	<path class="st16" d="M1212.49,64.04h-6.59v8.47h-5.26v-8.47h-18.58v-4.48l16.45-25.35h7.38v25.35h6.59V64.04z M1200.65,39.13
		l-13.44,20.43h13.44V39.13z"/>
	<path d="M1220.23,43.35l3.19-3.25l19.85,16.44l-19.85,16.44l-3.19-3.22l16.1-13.16L1220.23,43.35z"/>
	<path d="M1254.35,78.52c1,0.04,1.98-0.05,2.92-0.26c0.95-0.22,1.78-0.53,2.5-0.95c0.72-0.42,1.29-0.94,1.73-1.57
		c0.43-0.63,0.65-1.34,0.65-2.14c0-0.82-0.14-1.48-0.43-1.99c-0.29-0.51-0.61-0.98-0.96-1.41s-0.67-0.89-0.96-1.38
		c-0.29-0.49-0.43-1.14-0.43-1.96c0-0.41,0.08-0.84,0.24-1.29c0.16-0.45,0.4-0.86,0.72-1.23c0.32-0.37,0.74-0.67,1.24-0.91
		c0.5-0.23,1.1-0.35,1.79-0.35s1.35,0.14,1.99,0.42c0.64,0.28,1.2,0.72,1.68,1.3c0.48,0.59,0.87,1.32,1.15,2.2
		c0.29,0.88,0.43,1.91,0.43,3.11c0,1.62-0.3,3.18-0.9,4.67c-0.6,1.49-1.5,2.82-2.69,3.97c-1.19,1.15-2.68,2.07-4.46,2.75
		c-1.78,0.68-3.85,1.03-6.22,1.03V78.52z"/>
	<path class="st16" d="M1342.88,60.87c0,1.68-0.34,3.26-1.03,4.73s-1.72,2.76-3.1,3.87c-1.38,1.1-3.11,1.97-5.2,2.61
		c-2.09,0.63-4.52,0.95-7.3,0.95c-1.54,0-2.91-0.05-4.14-0.15c-1.22-0.1-2.36-0.22-3.43-0.38v-4.57c1.22,0.22,2.51,0.38,3.87,0.5
		c1.36,0.12,2.75,0.18,4.17,0.18c1.93,0,3.58-0.17,4.95-0.51c1.37-0.34,2.49-0.83,3.35-1.48c0.87-0.64,1.5-1.43,1.89-2.34
		c0.39-0.92,0.59-1.95,0.59-3.11c0-1.06-0.24-1.97-0.71-2.75c-0.47-0.78-1.14-1.44-1.99-1.96c-0.86-0.53-1.88-0.92-3.07-1.19
		s-2.5-0.4-3.91-0.4h-4.4v-4.19h4.46c1.16,0,2.22-0.15,3.18-0.45c0.96-0.3,1.77-0.74,2.45-1.3c0.68-0.57,1.2-1.26,1.57-2.1
		c0.36-0.83,0.55-1.77,0.55-2.83c0-2.05-0.63-3.55-1.89-4.48c-1.26-0.94-3.11-1.41-5.55-1.41c-1.3,0-2.64,0.13-4.02,0.38
		c-1.38,0.25-2.86,0.64-4.43,1.14v-4.45c0.67-0.23,1.38-0.44,2.14-0.63c0.76-0.19,1.52-0.34,2.27-0.47
		c0.76-0.13,1.51-0.22,2.26-0.29c0.75-0.07,1.47-0.1,2.16-0.1c2.05,0,3.85,0.22,5.41,0.66c1.56,0.44,2.85,1.07,3.9,1.89
		s1.83,1.82,2.36,2.99s0.8,2.49,0.8,3.96c0,2.19-0.57,4.03-1.7,5.51c-1.13,1.48-2.68,2.67-4.65,3.55c1,0.16,1.99,0.47,2.97,0.94
		c0.97,0.47,1.85,1.07,2.63,1.8c0.78,0.73,1.41,1.6,1.89,2.59C1342.64,58.56,1342.88,59.66,1342.88,60.87z"/>
	<path d="M1353.28,43.35l3.19-3.25l19.85,16.44l-19.85,16.44l-3.19-3.22l16.1-13.16L1353.28,43.35z"/>
	<path d="M1387.39,78.52c1,0.04,1.98-0.05,2.92-0.26c0.95-0.22,1.78-0.53,2.5-0.95c0.72-0.42,1.29-0.94,1.73-1.57
		c0.43-0.63,0.65-1.34,0.65-2.14c0-0.82-0.14-1.48-0.43-1.99c-0.29-0.51-0.61-0.98-0.96-1.41s-0.67-0.89-0.96-1.38
		c-0.29-0.49-0.43-1.14-0.43-1.96c0-0.41,0.08-0.84,0.24-1.29c0.16-0.45,0.4-0.86,0.72-1.23c0.32-0.37,0.74-0.67,1.24-0.91
		c0.5-0.23,1.1-0.35,1.79-0.35s1.35,0.14,1.99,0.42c0.64,0.28,1.2,0.72,1.68,1.3c0.48,0.59,0.87,1.32,1.15,2.2
		c0.29,0.88,0.43,1.91,0.43,3.11c0,1.62-0.3,3.18-0.9,4.67c-0.6,1.49-1.5,2.82-2.69,3.97c-1.19,1.15-2.68,2.07-4.46,2.75
		c-1.78,0.68-3.85,1.03-6.22,1.03V78.52z"/>
	<path class="st16" d="M1476.66,72.51h-25.43v-4.57l9.98-9.85c1.63-1.6,2.96-2.99,3.99-4.16c1.02-1.17,1.82-2.24,2.39-3.21
		c0.57-0.97,0.96-1.88,1.15-2.74c0.2-0.86,0.3-1.79,0.3-2.78c0-0.94-0.13-1.83-0.38-2.68c-0.26-0.85-0.65-1.6-1.18-2.24
		c-0.53-0.65-1.22-1.15-2.07-1.52s-1.86-0.56-3.04-0.56c-1.63,0-3.12,0.36-4.46,1.08c-1.34,0.72-2.57,1.66-3.69,2.81l-2.84-3.37
		c1.46-1.52,3.14-2.75,5.04-3.66c1.9-0.92,4.11-1.38,6.63-1.38c1.71,0,3.27,0.25,4.68,0.76c1.41,0.51,2.62,1.24,3.65,2.2
		c1.02,0.96,1.82,2.13,2.38,3.52c0.56,1.39,0.84,2.95,0.84,4.69c0,1.47-0.2,2.82-0.59,4.07c-0.39,1.25-0.99,2.5-1.79,3.74
		c-0.8,1.24-1.8,2.53-3.01,3.85s-2.64,2.78-4.3,4.37l-7,6.77h18.76V72.51z"/>
	<path d="M1486.32,43.35l3.19-3.25l19.85,16.44l-19.85,16.44l-3.19-3.22l16.1-13.16L1486.32,43.35z"/>
</g>
<g>
	<path d="M780.28,524.4c0,1.56-0.3,3.11-0.89,4.65c-0.59,1.53-1.51,2.91-2.75,4.12s-2.83,2.19-4.76,2.95
		c-1.93,0.75-4.23,1.13-6.91,1.13h-4.79v13.74h-5.26v-38.3h10.87c1.91,0,3.74,0.21,5.49,0.63c1.75,0.42,3.29,1.1,4.62,2.04
		c1.33,0.94,2.39,2.15,3.18,3.63S780.28,522.27,780.28,524.4z M774.81,524.64c0-2.46-0.81-4.35-2.44-5.66
		c-1.62-1.31-3.89-1.96-6.81-1.96h-5.38v15.77h4.9c3.11,0,5.51-0.67,7.19-2.02S774.81,527.37,774.81,524.64z"/>
	<path d="M807.3,550.98l-0.12-3.96c-1.61,1.58-3.25,2.73-4.92,3.43c-1.66,0.7-3.41,1.05-5.24,1.05c-1.69,0-3.14-0.21-4.34-0.64
		c-1.2-0.43-2.19-1.02-2.97-1.77c-0.78-0.75-1.35-1.64-1.71-2.65c-0.36-1.02-0.55-2.12-0.55-3.31c0-2.95,1.11-5.26,3.32-6.93
		s5.49-2.51,9.82-2.51h6.14v-2.58c0-1.74-0.56-3.13-1.68-4.18c-1.12-1.04-2.84-1.57-5.14-1.57c-1.67,0-3.32,0.19-4.95,0.56
		c-1.62,0.37-3.3,0.9-5.04,1.58v-4.6c0.65-0.23,1.37-0.46,2.17-0.69c0.8-0.22,1.64-0.43,2.53-0.6c0.89-0.18,1.81-0.32,2.78-0.42
		c0.96-0.11,1.94-0.16,2.92-0.16c1.79,0,3.41,0.2,4.84,0.59c1.44,0.39,2.65,0.99,3.65,1.79c0.99,0.8,1.76,1.81,2.29,3.02
		c0.53,1.21,0.8,2.64,0.8,4.28v20.28H807.3z M806.74,537.59h-6.53c-1.28,0-2.38,0.13-3.31,0.38c-0.93,0.25-1.68,0.62-2.27,1.08
		c-0.59,0.47-1.03,1.03-1.31,1.69s-0.43,1.39-0.43,2.21c0,0.57,0.09,1.11,0.27,1.63c0.18,0.52,0.46,0.98,0.86,1.38
		c0.39,0.4,0.91,0.72,1.54,0.95c0.63,0.23,1.4,0.35,2.3,0.35c1.18,0,2.54-0.36,4.06-1.07c1.53-0.71,3.14-1.84,4.83-3.38V537.59z"/>
	<path d="M844.55,549.9c-1.34,0.51-2.71,0.88-4.12,1.13c-1.41,0.24-2.86,0.37-4.36,0.37c-4.69,0-8.3-1.26-10.83-3.78
		c-2.53-2.52-3.8-6.2-3.8-11.05c0-2.32,0.36-4.44,1.09-6.33c0.73-1.9,1.75-3.52,3.07-4.86s2.9-2.39,4.73-3.12
		c1.83-0.73,3.85-1.1,6.06-1.1c1.54,0,2.97,0.11,4.31,0.32c1.34,0.22,2.62,0.57,3.84,1.06v4.86c-1.28-0.66-2.58-1.15-3.91-1.45
		c-1.33-0.3-2.7-0.45-4.12-0.45c-1.32,0-2.56,0.25-3.74,0.75c-1.17,0.5-2.2,1.22-3.09,2.15c-0.89,0.94-1.59,2.08-2.1,3.43
		c-0.51,1.35-0.77,2.87-0.77,4.57c0,3.56,0.87,6.22,2.61,7.99c1.74,1.77,4.16,2.65,7.25,2.65c1.4,0,2.75-0.16,4.06-0.47
		c1.31-0.31,2.57-0.78,3.8-1.41V549.9z"/>
	<path d="M881.45,550.98h-7.06l-13.82-15.77v15.77h-5.14v-41.41h5.14v25.44l13.32-13.45h6.79l-13.91,13.57L881.45,550.98z"/>
	<path d="M913.08,534.72c0,0.72-0.01,1.33-0.03,1.82c-0.02,0.49-0.05,0.95-0.09,1.38h-20.83c0,3.01,0.85,5.32,2.54,6.93
		c1.69,1.61,4.14,2.42,7.33,2.42c0.87,0,1.73-0.03,2.6-0.1c0.87-0.07,1.7-0.16,2.51-0.28c0.81-0.12,1.58-0.25,2.32-0.4
		c0.74-0.15,1.42-0.31,2.05-0.48v4.19c-1.4,0.39-2.98,0.71-4.74,0.95c-1.76,0.24-3.59,0.37-5.48,0.37c-2.54,0-4.73-0.34-6.56-1.03
		c-1.83-0.68-3.33-1.68-4.5-2.97c-1.17-1.3-2.04-2.89-2.6-4.78c-0.56-1.89-0.84-4.02-0.84-6.4c0-2.07,0.3-4.03,0.9-5.88
		c0.6-1.85,1.48-3.47,2.63-4.86c1.15-1.4,2.56-2.51,4.24-3.33c1.67-0.82,3.57-1.23,5.7-1.23c2.07,0,3.9,0.32,5.49,0.97
		c1.59,0.64,2.94,1.56,4.03,2.74c1.09,1.18,1.92,2.62,2.48,4.31C912.8,530.74,913.08,532.63,913.08,534.72z M907.74,533.99
		c0.06-1.31-0.07-2.51-0.38-3.59c-0.32-1.08-0.8-2.02-1.46-2.8c-0.66-0.78-1.48-1.39-2.47-1.83c-0.98-0.44-2.13-0.66-3.43-0.66
		c-1.12,0-2.15,0.21-3.07,0.64c-0.93,0.43-1.72,1.04-2.39,1.82c-0.67,0.78-1.21,1.72-1.62,2.81c-0.41,1.09-0.67,2.3-0.77,3.6H907.74
		z"/>
	<path d="M945.19,550.57c-1.16,0.29-2.36,0.5-3.6,0.63c-1.24,0.13-2.5,0.19-3.78,0.19c-3.72,0-6.5-0.83-8.33-2.51
		s-2.75-4.23-2.75-7.69v-15.36h-8.3v-4.28h8.3v-8.09l5.14-1.32v9.41h13.32v4.28h-13.32v14.95c0,2.11,0.57,3.69,1.7,4.73
		c1.13,1.05,2.8,1.57,5.01,1.57c0.95,0,1.98-0.07,3.1-0.22s2.29-0.38,3.52-0.69V550.57z"/>
	<path d="M976.95,548.23l-3.22,3.22l-19.85-16.44l19.85-16.44l3.22,3.25l-16.1,13.13L976.95,548.23z"/>
	<path class="st15" d="M1014.14,515.64c-0.87-0.27-1.9-0.5-3.09-0.69c-1.19-0.19-2.41-0.28-3.65-0.28c-0.85,0-1.63,0.11-2.36,0.34
		c-0.73,0.23-1.36,0.58-1.89,1.07s-0.95,1.11-1.26,1.86c-0.31,0.75-0.46,1.67-0.46,2.74v4.81h11.79v5.57h-11.79v19.93h-7.27v-19.93
		h-8.71v-5.57h8.71v-4.51c0-2.11,0.31-3.92,0.93-5.44c0.62-1.51,1.5-2.75,2.63-3.72c1.13-0.97,2.5-1.67,4.09-2.12
		c1.59-0.45,3.38-0.67,5.35-0.67c1.3,0,2.54,0.08,3.71,0.25c1.17,0.17,2.26,0.37,3.26,0.6V515.64z"/>
	<path class="st15" d="M1030.15,515.14h-8.48v-5.57h15.86v35.84h8.65v5.57h-25.55v-5.57h9.51V515.14z"/>
	<path class="st15" d="M1080.75,535.86c0,2.34-0.33,4.49-1,6.43c-0.67,1.94-1.63,3.61-2.9,5s-2.81,2.46-4.64,3.22
		c-1.83,0.76-3.92,1.14-6.26,1.14c-2.23,0-4.21-0.32-5.97-0.97c-1.75-0.65-3.24-1.61-4.46-2.89c-1.22-1.28-2.16-2.88-2.81-4.81
		s-0.97-4.17-0.97-6.73c0-2.36,0.34-4.51,1.02-6.45c0.68-1.93,1.65-3.58,2.92-4.95c1.27-1.37,2.82-2.43,4.65-3.18
		c1.83-0.75,3.9-1.13,6.2-1.13c2.25,0,4.24,0.33,6,0.98c1.75,0.65,3.24,1.63,4.46,2.92c1.22,1.29,2.15,2.89,2.79,4.79
		C1080.43,531.16,1080.75,533.36,1080.75,535.86z M1073.25,536.04c0-3.09-0.59-5.41-1.76-6.96c-1.17-1.55-2.9-2.33-5.18-2.33
		c-1.26,0-2.33,0.24-3.22,0.73c-0.89,0.49-1.61,1.16-2.19,2.01c-0.57,0.85-0.99,1.84-1.26,2.97c-0.27,1.13-0.4,2.34-0.4,3.63
		c0,3.11,0.63,5.45,1.89,7.02c1.26,1.57,2.98,2.36,5.17,2.36c1.2,0,2.25-0.24,3.13-0.72c0.89-0.48,1.6-1.14,2.16-1.99
		c0.55-0.85,0.96-1.85,1.24-3C1073.11,538.61,1073.25,537.37,1073.25,536.04z"/>
	<path class="st15" d="M1105.8,550.98l-0.18-3.9c-0.63,0.66-1.29,1.27-1.98,1.83c-0.69,0.56-1.45,1.04-2.27,1.45
		c-0.83,0.41-1.73,0.73-2.7,0.95c-0.97,0.22-2.04,0.34-3.21,0.34c-1.54,0-2.88-0.22-4.05-0.67s-2.14-1.07-2.92-1.88
		c-0.79-0.8-1.38-1.77-1.79-2.9c-0.4-1.13-0.61-2.38-0.61-3.75c0-1.41,0.3-2.71,0.9-3.9c0.6-1.19,1.52-2.22,2.75-3.08
		c1.23-0.86,2.77-1.53,4.61-2.02c1.84-0.49,4-0.73,6.48-0.73h3.93v-1.79c0-0.76-0.11-1.45-0.33-2.07s-0.57-1.14-1.05-1.57
		c-0.48-0.43-1.11-0.76-1.88-1s-1.71-0.35-2.84-0.35c-1.77,0-3.52,0.2-5.24,0.6c-1.72,0.4-3.39,0.96-5.01,1.69v-5.71
		c1.44-0.57,3.1-1.04,4.98-1.41c1.88-0.37,3.83-0.56,5.86-0.56c2.23,0,4.14,0.21,5.73,0.63c1.59,0.42,2.91,1.05,3.94,1.89
		c1.03,0.84,1.8,1.89,2.29,3.15s0.74,2.73,0.74,4.41v20.34H1105.8z M1104.76,537.83h-4.4c-1.22,0-2.26,0.12-3.1,0.35
		c-0.85,0.23-1.54,0.56-2.07,0.97c-0.53,0.41-0.92,0.88-1.17,1.42c-0.25,0.54-0.37,1.11-0.37,1.71c0,1.21,0.39,2.13,1.18,2.77
		c0.79,0.64,1.86,0.95,3.22,0.95c1,0,2.05-0.36,3.13-1.08c1.08-0.72,2.27-1.76,3.57-3.11V537.83z"/>
	<path class="st15" d="M1145,550.69c-1.3,0.29-2.61,0.53-3.93,0.7c-1.32,0.18-2.57,0.26-3.75,0.26c-1.97,0-3.67-0.21-5.1-0.62
		s-2.61-1.04-3.54-1.88c-0.94-0.84-1.62-1.91-2.07-3.21c-0.44-1.3-0.66-2.85-0.66-4.65v-14.54h-8.06v-5.57h8.06v-7.62l7.38-1.9v9.52
		H1145v5.57h-11.67v14.01c0,1.7,0.39,2.98,1.18,3.85c0.79,0.87,2.11,1.3,3.96,1.3c1.18,0,2.33-0.1,3.46-0.29s2.15-0.42,3.07-0.67
		V550.69z"/>
	<path d="M1156.43,556.99c1,0.04,1.98-0.05,2.92-0.26c0.95-0.22,1.78-0.53,2.5-0.95c0.72-0.42,1.29-0.94,1.73-1.57
		c0.43-0.63,0.65-1.34,0.65-2.14c0-0.82-0.14-1.48-0.43-1.99c-0.29-0.51-0.61-0.98-0.96-1.41s-0.67-0.89-0.96-1.38
		c-0.29-0.49-0.43-1.14-0.43-1.96c0-0.41,0.08-0.84,0.24-1.29c0.16-0.45,0.4-0.86,0.72-1.23c0.32-0.37,0.74-0.67,1.24-0.91
		c0.5-0.23,1.1-0.35,1.79-0.35s1.35,0.14,1.99,0.42c0.64,0.28,1.2,0.72,1.68,1.3c0.48,0.59,0.87,1.32,1.15,2.2
		c0.29,0.88,0.43,1.91,0.43,3.11c0,1.62-0.3,3.18-0.9,4.67c-0.6,1.49-1.5,2.82-2.69,3.97c-1.19,1.15-2.68,2.07-4.46,2.75
		c-1.78,0.68-3.85,1.03-6.22,1.03V556.99z"/>
	<path class="st16" d="M1244.96,539.35c0,1.68-0.34,3.26-1.03,4.73s-1.72,2.76-3.1,3.87c-1.38,1.1-3.11,1.97-5.2,2.61
		c-2.09,0.63-4.52,0.95-7.3,0.95c-1.54,0-2.91-0.05-4.14-0.15c-1.22-0.1-2.36-0.22-3.43-0.38v-4.57c1.22,0.22,2.51,0.38,3.87,0.5
		c1.36,0.12,2.75,0.18,4.17,0.18c1.93,0,3.58-0.17,4.95-0.51c1.37-0.34,2.49-0.83,3.35-1.48c0.87-0.64,1.5-1.43,1.89-2.34
		c0.39-0.92,0.59-1.95,0.59-3.11c0-1.06-0.24-1.97-0.71-2.75c-0.47-0.78-1.14-1.44-1.99-1.96c-0.86-0.53-1.88-0.92-3.07-1.19
		s-2.5-0.4-3.91-0.4h-4.4v-4.19h4.46c1.16,0,2.22-0.15,3.18-0.45c0.96-0.3,1.77-0.74,2.45-1.3c0.68-0.57,1.2-1.26,1.57-2.1
		c0.36-0.83,0.55-1.77,0.55-2.83c0-2.05-0.63-3.55-1.89-4.48c-1.26-0.94-3.11-1.41-5.55-1.41c-1.3,0-2.64,0.13-4.02,0.38
		c-1.38,0.25-2.86,0.64-4.43,1.14v-4.45c0.67-0.23,1.38-0.44,2.14-0.63c0.76-0.19,1.52-0.34,2.27-0.47
		c0.76-0.13,1.51-0.22,2.26-0.29c0.75-0.07,1.47-0.1,2.16-0.1c2.05,0,3.85,0.22,5.41,0.66c1.56,0.44,2.85,1.07,3.9,1.89
		s1.83,1.82,2.36,2.99s0.8,2.49,0.8,3.96c0,2.19-0.57,4.03-1.7,5.51c-1.13,1.48-2.68,2.67-4.65,3.55c1,0.16,1.99,0.47,2.97,0.94
		c0.97,0.47,1.85,1.07,2.63,1.8c0.78,0.73,1.41,1.6,1.89,2.59C1244.72,537.03,1244.96,538.14,1244.96,539.35z"/>
	<path d="M1255.35,521.82l3.19-3.25l19.85,16.44l-19.85,16.44l-3.19-3.22l16.1-13.16L1255.35,521.82z"/>
</g>
<g>
	<line x1="1068.41" y1="93.48" x2="1131.52" y2="175.85"/>
	<g>
		<line class="st19" x1="1068.41" y1="93.48" x2="1118.59" y2="158.97"/>
		<g>
			<polygon points="1110.16,159.44 1131.52,175.85 1121.23,150.96 			"/>
		</g>
	</g>
</g>
<g>
	<line x1="1201.56" y1="93.48" x2="1237.1" y2="173.63"/>
	<g>
		<line class="st19" x1="1201.56" y1="93.48" x2="1228.48" y2="154.2"/>
		<g>
			<polygon points="1220.18,152.67 1237.1,173.63 1232.92,147.02 			"/>
		</g>
	</g>
</g>
<rect x="1078.74" y="308.57" class="st11" width="105.57" height="104.74"/>
<g>
	<path d="M1125.59,358.02h1.94c1.09,0,2.17-0.09,3.24-0.27c1.07-0.18,2.05-0.51,2.93-0.99c0.89-0.48,1.6-1.13,2.15-1.95
		c0.54-0.82,0.82-1.89,0.82-3.21c0-0.96-0.18-1.82-0.54-2.58c-0.36-0.76-0.86-1.4-1.48-1.92c-0.63-0.52-1.35-0.92-2.18-1.2
		c-0.83-0.28-1.68-0.42-2.57-0.42c-1.78,0-3.25,0.5-4.42,1.5c-1.17,1-1.98,2.32-2.42,3.96l-6.84-1.74c0.36-1.44,0.98-2.75,1.85-3.93
		c0.87-1.18,1.92-2.2,3.15-3.06c1.23-0.86,2.61-1.53,4.14-2.01c1.53-0.48,3.15-0.72,4.84-0.72c1.85,0,3.62,0.25,5.29,0.75
		c1.67,0.5,3.13,1.24,4.39,2.22c1.26,0.98,2.25,2.19,2.97,3.63s1.08,3.12,1.08,5.04c0,2.28-0.7,4.31-2.09,6.09
		c-1.39,1.78-3.26,2.95-5.6,3.51v0.12c2.62,0.52,4.75,1.69,6.38,3.51c1.63,1.82,2.45,4.05,2.45,6.69c0,2.2-0.43,4.12-1.29,5.76
		c-0.86,1.64-2,3-3.42,4.08c-1.42,1.08-3.02,1.89-4.79,2.43s-3.57,0.81-5.38,0.81s-3.53-0.19-5.14-0.57
		c-1.61-0.38-3.1-0.97-4.45-1.77c-1.35-0.8-2.54-1.84-3.57-3.12c-1.03-1.28-1.83-2.8-2.39-4.56l6.78-2.1
		c0.52,1.68,1.5,3.1,2.93,4.26c1.43,1.16,3.3,1.74,5.6,1.74c0.93,0,1.86-0.13,2.81-0.39c0.95-0.26,1.79-0.67,2.54-1.23
		c0.75-0.56,1.35-1.28,1.81-2.16c0.46-0.88,0.7-1.96,0.7-3.24c0-1.36-0.33-2.51-1-3.45c-0.67-0.94-1.5-1.68-2.51-2.22
		c-1.01-0.54-2.13-0.93-3.36-1.17c-1.23-0.24-2.41-0.36-3.54-0.36h-1.81V358.02z"/>
</g>
<g>
	<line x1="1099.14" y1="495.46" x2="1124.38" y2="417.96"/>
	<g>
		<line class="st19" x1="1099.14" y1="495.46" x2="1116.15" y2="443.24"/>
		<g>
			<polygon points="1122.6,451.59 1124.38,417.96 1106.02,446.19 			"/>
		</g>
	</g>
</g>
<g>
	<line x1="1464.63" y1="90.48" x2="1448.15" y2="170.53"/>
	<g>
		<line class="st19" x1="1464.63" y1="90.48" x2="1452.44" y2="149.7"/>
		<g>
			<polygon points="1446.57,143.64 1448.15,170.53 1460.23,146.45 			"/>
		</g>
	</g>
</g>
<g>
	<path d="M671.23,218.14h6.59l18.45,42.49h-8.71l-3.99-9.72H665l-3.87,9.72h-8.53L671.23,218.14z M680.91,244.43l-6.59-17.29
		l-6.72,17.29H680.91z"/>
	<path d="M700.14,231.83h6.96v4.8h0.12c0.81-1.68,1.94-3.04,3.39-4.08c1.45-1.04,3.15-1.56,5.08-1.56c0.28,0,0.58,0.01,0.91,0.03
		c0.32,0.02,0.6,0.07,0.85,0.15v6.6c-0.48-0.12-0.9-0.2-1.24-0.24c-0.34-0.04-0.68-0.06-1-0.06c-1.65,0-2.99,0.3-3.99,0.9
		c-1.01,0.6-1.8,1.32-2.36,2.16c-0.57,0.84-0.95,1.7-1.15,2.58c-0.2,0.88-0.3,1.58-0.3,2.1v15.42h-7.26V231.83z"/>
	<path d="M722.17,231.83h6.96v4.8h0.12c0.81-1.68,1.94-3.04,3.39-4.08c1.45-1.04,3.15-1.56,5.08-1.56c0.28,0,0.58,0.01,0.91,0.03
		c0.32,0.02,0.6,0.07,0.85,0.15v6.6c-0.48-0.12-0.9-0.2-1.24-0.24c-0.34-0.04-0.68-0.06-1-0.06c-1.65,0-2.99,0.3-3.99,0.9
		c-1.01,0.6-1.8,1.32-2.36,2.16c-0.57,0.84-0.95,1.7-1.15,2.58c-0.2,0.88-0.3,1.58-0.3,2.1v15.42h-7.26V231.83z"/>
	<path d="M761.43,256.97h-0.18c-0.73,1.28-1.9,2.33-3.51,3.15c-1.61,0.82-3.45,1.23-5.51,1.23c-1.17,0-2.39-0.15-3.66-0.45
		c-1.27-0.3-2.44-0.8-3.51-1.5c-1.07-0.7-1.96-1.62-2.66-2.76c-0.71-1.14-1.06-2.55-1.06-4.23c0-2.16,0.61-3.88,1.85-5.16
		c1.23-1.28,2.81-2.26,4.75-2.94c1.94-0.68,4.08-1.13,6.44-1.35c2.36-0.22,4.67-0.33,6.93-0.33v-0.72c0-1.8-0.66-3.13-1.97-3.99
		c-1.31-0.86-2.87-1.29-4.69-1.29c-1.53,0-3,0.32-4.42,0.96c-1.41,0.64-2.58,1.42-3.51,2.34l-3.75-4.38
		c1.65-1.52,3.56-2.66,5.72-3.42c2.16-0.76,4.35-1.14,6.56-1.14c2.58,0,4.71,0.36,6.38,1.08c1.67,0.72,2.99,1.66,3.96,2.82
		c0.97,1.16,1.64,2.46,2.03,3.9c0.38,1.44,0.57,2.88,0.57,4.32v17.53h-6.78V256.97z M761.31,247.49h-1.63
		c-1.17,0-2.4,0.05-3.69,0.15c-1.29,0.1-2.48,0.32-3.57,0.66c-1.09,0.34-2,0.82-2.72,1.44c-0.73,0.62-1.09,1.47-1.09,2.55
		c0,0.68,0.15,1.25,0.45,1.71c0.3,0.46,0.7,0.83,1.18,1.11c0.48,0.28,1.03,0.48,1.63,0.6s1.21,0.18,1.81,0.18
		c2.5,0,4.4-0.66,5.69-1.98c1.29-1.32,1.94-3.12,1.94-5.4V247.49z"/>
	<path d="M772.32,231.83h8.05l8.11,20.95h0.12l7.2-20.95h7.56l-13.73,34.99c-0.52,1.32-1.09,2.49-1.69,3.51
		c-0.6,1.02-1.33,1.88-2.18,2.58c-0.85,0.7-1.85,1.23-2.99,1.59c-1.15,0.36-2.53,0.54-4.14,0.54c-0.6,0-1.22-0.03-1.85-0.09
		c-0.63-0.06-1.26-0.17-1.91-0.33l0.6-6.24c0.48,0.16,0.96,0.27,1.42,0.33c0.46,0.06,0.9,0.09,1.3,0.09c0.77,0,1.41-0.09,1.94-0.27
		c0.52-0.18,0.97-0.46,1.33-0.84c0.36-0.38,0.69-0.85,0.97-1.41c0.28-0.56,0.58-1.22,0.91-1.98l1.45-3.66L772.32,231.83z"/>
	<path d="M835.35,226.9l-8.47,6.9l-4.23-4.98l13.37-10.68h6.59v42.49h-7.26V226.9z"/>
	<path d="M890.77,239.51c-0.65-0.84-1.53-1.57-2.66-2.19c-1.13-0.62-2.36-0.93-3.69-0.93c-1.17,0-2.24,0.24-3.21,0.72
		c-0.97,0.48-1.45,1.28-1.45,2.4c0,1.12,0.53,1.91,1.6,2.37c1.07,0.46,2.63,0.93,4.69,1.41c1.09,0.24,2.19,0.56,3.3,0.96
		c1.11,0.4,2.12,0.93,3.02,1.59c0.91,0.66,1.64,1.48,2.21,2.46c0.56,0.98,0.85,2.17,0.85,3.57c0,1.76-0.33,3.25-1,4.47
		c-0.67,1.22-1.55,2.21-2.66,2.97c-1.11,0.76-2.4,1.31-3.87,1.65c-1.47,0.34-2.99,0.51-4.57,0.51c-2.26,0-4.46-0.41-6.59-1.23
		c-2.14-0.82-3.91-1.99-5.32-3.51l4.78-4.44c0.81,1.04,1.85,1.9,3.15,2.58c1.29,0.68,2.72,1.02,4.29,1.02c0.52,0,1.06-0.06,1.6-0.18
		s1.05-0.31,1.51-0.57c0.46-0.26,0.84-0.61,1.12-1.05c0.28-0.44,0.42-0.98,0.42-1.62c0-1.2-0.55-2.06-1.66-2.58
		c-1.11-0.52-2.77-1.04-4.99-1.56c-1.09-0.24-2.15-0.55-3.18-0.93c-1.03-0.38-1.95-0.88-2.75-1.5c-0.81-0.62-1.45-1.39-1.94-2.31
		c-0.48-0.92-0.73-2.06-0.73-3.42c0-1.6,0.33-2.98,1-4.14c0.67-1.16,1.54-2.11,2.63-2.85c1.09-0.74,2.32-1.29,3.69-1.65
		c1.37-0.36,2.78-0.54,4.23-0.54c2.1,0,4.14,0.36,6.14,1.08c2,0.72,3.58,1.82,4.75,3.3L890.77,239.51z"/>
	<path d="M917.87,230.99c1.9,0,3.52,0.33,4.87,0.99c1.35,0.66,2.46,1.53,3.33,2.61c0.87,1.08,1.5,2.32,1.91,3.72
		c0.4,1.4,0.6,2.84,0.6,4.32v18.01h-7.26v-15.84c0-0.84-0.06-1.71-0.18-2.61c-0.12-0.9-0.37-1.72-0.76-2.46
		c-0.38-0.74-0.93-1.35-1.63-1.83c-0.71-0.48-1.64-0.72-2.81-0.72c-1.17,0-2.18,0.22-3.02,0.66c-0.85,0.44-1.55,1.03-2.12,1.77
		c-0.57,0.74-0.99,1.57-1.27,2.49c-0.28,0.92-0.42,1.86-0.42,2.82v15.73h-7.26v-45.37h7.26v20.59h0.12c0.28-0.6,0.7-1.19,1.24-1.77
		c0.54-0.58,1.18-1.1,1.91-1.56c0.73-0.46,1.55-0.83,2.48-1.11C915.77,231.13,916.78,230.99,917.87,230.99z"/>
	<path d="M955.07,256.97h-0.18c-0.73,1.28-1.9,2.33-3.51,3.15c-1.61,0.82-3.45,1.23-5.51,1.23c-1.17,0-2.39-0.15-3.66-0.45
		c-1.27-0.3-2.44-0.8-3.51-1.5c-1.07-0.7-1.96-1.62-2.66-2.76c-0.71-1.14-1.06-2.55-1.06-4.23c0-2.16,0.61-3.88,1.85-5.16
		c1.23-1.28,2.81-2.26,4.75-2.94c1.94-0.68,4.08-1.13,6.44-1.35c2.36-0.22,4.67-0.33,6.93-0.33v-0.72c0-1.8-0.66-3.13-1.97-3.99
		c-1.31-0.86-2.87-1.29-4.69-1.29c-1.53,0-3,0.32-4.42,0.96c-1.41,0.64-2.58,1.42-3.51,2.34l-3.75-4.38
		c1.65-1.52,3.56-2.66,5.72-3.42c2.16-0.76,4.35-1.14,6.56-1.14c2.58,0,4.71,0.36,6.38,1.08c1.67,0.72,2.99,1.66,3.96,2.82
		c0.97,1.16,1.64,2.46,2.03,3.9c0.38,1.44,0.57,2.88,0.57,4.32v17.53h-6.78V256.97z M954.95,247.49h-1.63
		c-1.17,0-2.4,0.05-3.69,0.15c-1.29,0.1-2.48,0.32-3.57,0.66c-1.09,0.34-2,0.82-2.72,1.44c-0.73,0.62-1.09,1.47-1.09,2.55
		c0,0.68,0.15,1.25,0.45,1.71c0.3,0.46,0.7,0.83,1.18,1.11c0.48,0.28,1.03,0.48,1.63,0.6s1.21,0.18,1.81,0.18
		c2.5,0,4.4-0.66,5.69-1.98c1.29-1.32,1.94-3.12,1.94-5.4V247.49z"/>
	<path d="M977.27,231.83v4.02h0.18c0.36-0.56,0.84-1.13,1.42-1.71c0.58-0.58,1.3-1.1,2.15-1.56c0.85-0.46,1.8-0.84,2.87-1.14
		c1.07-0.3,2.27-0.45,3.6-0.45c2.06,0,3.95,0.39,5.69,1.17c1.73,0.78,3.23,1.85,4.48,3.21c1.25,1.36,2.22,2.96,2.9,4.8
		c0.69,1.84,1.03,3.82,1.03,5.94c0,2.12-0.33,4.11-1,5.97c-0.67,1.86-1.61,3.48-2.84,4.86c-1.23,1.38-2.72,2.48-4.48,3.3
		s-3.74,1.23-5.96,1.23c-2.06,0-3.94-0.42-5.66-1.26c-1.71-0.84-3.04-1.98-3.96-3.42h-0.12v18.25h-7.26v-43.21H977.27z
		 M994.21,246.11c0-1.12-0.17-2.23-0.51-3.33c-0.34-1.1-0.86-2.09-1.54-2.97c-0.69-0.88-1.55-1.59-2.6-2.13
		c-1.05-0.54-2.28-0.81-3.69-0.81c-1.33,0-2.52,0.28-3.57,0.84c-1.05,0.56-1.95,1.28-2.69,2.16c-0.75,0.88-1.31,1.88-1.69,3
		c-0.38,1.12-0.58,2.24-0.58,3.36c0,1.12,0.19,2.23,0.58,3.33c0.38,1.1,0.95,2.09,1.69,2.97c0.75,0.88,1.64,1.59,2.69,2.13
		c1.05,0.54,2.24,0.81,3.57,0.81c1.41,0,2.64-0.28,3.69-0.84c1.05-0.56,1.92-1.28,2.6-2.16c0.69-0.88,1.2-1.88,1.54-3
		C994.04,248.35,994.21,247.23,994.21,246.11z"/>
	<path d="M1036.32,246.59c0,0.32,0,0.64,0,0.96c0,0.32-0.02,0.64-0.06,0.96h-22.08c0.08,1.04,0.35,1.99,0.82,2.85
		c0.46,0.86,1.08,1.6,1.84,2.22c0.77,0.62,1.63,1.11,2.6,1.47c0.97,0.36,1.98,0.54,3.02,0.54c1.81,0,3.35-0.33,4.6-0.99
		c1.25-0.66,2.28-1.57,3.09-2.73l4.84,3.84c-2.86,3.84-7.02,5.76-12.46,5.76c-2.26,0-4.34-0.35-6.23-1.05
		c-1.9-0.7-3.54-1.69-4.93-2.97c-1.39-1.28-2.48-2.85-3.27-4.71c-0.79-1.86-1.18-3.97-1.18-6.33c0-2.32,0.39-4.43,1.18-6.33
		c0.79-1.9,1.87-3.52,3.24-4.86c1.37-1.34,2.99-2.38,4.87-3.12c1.88-0.74,3.9-1.11,6.08-1.11c2.02,0,3.88,0.33,5.6,0.99
		c1.71,0.66,3.2,1.64,4.45,2.94c1.25,1.3,2.23,2.92,2.93,4.86C1035.96,241.72,1036.32,243.99,1036.32,246.59z M1029.06,243.35
		c0-0.92-0.13-1.8-0.39-2.64c-0.26-0.84-0.68-1.58-1.24-2.22c-0.56-0.64-1.28-1.15-2.15-1.53c-0.87-0.38-1.89-0.57-3.06-0.57
		c-2.18,0-4.02,0.65-5.54,1.95c-1.51,1.3-2.35,2.97-2.51,5.01H1029.06z"/>
</g>
<g>
	<path d="M1750.02,74.01c-0.81-1.04-1.95-1.91-3.42-2.61c-1.47-0.7-2.95-1.05-4.45-1.05c-0.89,0-1.78,0.11-2.66,0.33
		c-0.89,0.22-1.69,0.56-2.42,1.02c-0.73,0.46-1.32,1.06-1.78,1.8c-0.46,0.74-0.7,1.63-0.7,2.67c0,0.96,0.2,1.78,0.6,2.46
		c0.4,0.68,0.96,1.26,1.66,1.74c0.71,0.48,1.56,0.9,2.57,1.26c1.01,0.36,2.12,0.72,3.33,1.08c1.37,0.44,2.79,0.94,4.27,1.5
		c1.47,0.56,2.82,1.3,4.05,2.22c1.23,0.92,2.24,2.08,3.02,3.48c0.79,1.4,1.18,3.14,1.18,5.22c0,2.28-0.42,4.27-1.27,5.97
		c-0.85,1.7-1.98,3.11-3.39,4.23c-1.41,1.12-3.07,1.96-4.96,2.52c-1.9,0.56-3.89,0.84-5.99,0.84c-2.78,0-5.5-0.51-8.17-1.53
		c-2.66-1.02-4.84-2.53-6.53-4.53l5.44-5.04c1.05,1.44,2.45,2.58,4.2,3.42s3.48,1.26,5.17,1.26c0.89,0,1.79-0.11,2.72-0.33
		c0.93-0.22,1.76-0.59,2.51-1.11c0.75-0.52,1.35-1.17,1.81-1.95c0.46-0.78,0.7-1.75,0.7-2.91c0-1.12-0.26-2.05-0.79-2.79
		c-0.52-0.74-1.23-1.38-2.12-1.92c-0.89-0.54-1.94-1.01-3.15-1.41c-1.21-0.4-2.48-0.82-3.81-1.26c-1.29-0.4-2.58-0.88-3.87-1.44
		c-1.29-0.56-2.45-1.3-3.48-2.22c-1.03-0.92-1.87-2.05-2.51-3.39c-0.65-1.34-0.97-3.01-0.97-5.01c0-2.16,0.45-4.02,1.36-5.58
		c0.91-1.56,2.1-2.85,3.57-3.87c1.47-1.02,3.15-1.78,5.02-2.28c1.88-0.5,3.78-0.75,5.72-0.75c2.18,0,4.39,0.38,6.62,1.14
		c2.24,0.76,4.18,1.9,5.84,3.42L1750.02,74.01z"/>
	<path d="M1778.69,77.97c1.9,0,3.52,0.33,4.87,0.99c1.35,0.66,2.46,1.53,3.33,2.61c0.87,1.08,1.5,2.32,1.91,3.72
		c0.4,1.4,0.6,2.84,0.6,4.32v18.01h-7.26V91.78c0-0.84-0.06-1.71-0.18-2.61c-0.12-0.9-0.37-1.72-0.76-2.46
		c-0.38-0.74-0.93-1.35-1.63-1.83c-0.71-0.48-1.64-0.72-2.81-0.72c-1.17,0-2.18,0.22-3.02,0.66c-0.85,0.44-1.55,1.03-2.12,1.77
		c-0.57,0.74-0.99,1.57-1.27,2.49c-0.28,0.92-0.42,1.86-0.42,2.82v15.73h-7.26V62.25h7.26v20.59h0.12c0.28-0.6,0.7-1.19,1.24-1.77
		c0.54-0.58,1.18-1.1,1.91-1.56c0.73-0.46,1.55-0.83,2.48-1.11C1776.59,78.11,1777.6,77.97,1778.69,77.97z"/>
	<path d="M1815.9,103.96h-0.18c-0.73,1.28-1.9,2.33-3.51,3.15c-1.61,0.82-3.45,1.23-5.51,1.23c-1.17,0-2.39-0.15-3.66-0.45
		c-1.27-0.3-2.44-0.8-3.51-1.5c-1.07-0.7-1.96-1.62-2.66-2.76c-0.71-1.14-1.06-2.55-1.06-4.23c0-2.16,0.61-3.88,1.85-5.16
		c1.23-1.28,2.81-2.26,4.75-2.94c1.94-0.68,4.08-1.13,6.44-1.35c2.36-0.22,4.67-0.33,6.93-0.33v-0.72c0-1.8-0.66-3.13-1.97-3.99
		c-1.31-0.86-2.87-1.29-4.69-1.29c-1.53,0-3,0.32-4.42,0.96c-1.41,0.64-2.58,1.42-3.51,2.34l-3.75-4.38
		c1.65-1.52,3.56-2.66,5.72-3.42c2.16-0.76,4.35-1.14,6.56-1.14c2.58,0,4.71,0.36,6.38,1.08c1.67,0.72,2.99,1.66,3.96,2.82
		c0.97,1.16,1.64,2.46,2.03,3.9c0.38,1.44,0.57,2.88,0.57,4.32v17.53h-6.78V103.96z M1815.77,94.48h-1.63
		c-1.17,0-2.4,0.05-3.69,0.15c-1.29,0.1-2.48,0.32-3.57,0.66c-1.09,0.34-2,0.82-2.72,1.44c-0.73,0.62-1.09,1.47-1.09,2.55
		c0,0.68,0.15,1.25,0.45,1.71c0.3,0.46,0.7,0.83,1.18,1.11c0.48,0.28,1.03,0.48,1.63,0.6s1.21,0.18,1.81,0.18
		c2.5,0,4.4-0.66,5.69-1.98c1.29-1.32,1.94-3.12,1.94-5.4V94.48z"/>
	<path d="M1838.1,78.81v4.02h0.18c0.36-0.56,0.84-1.13,1.42-1.71c0.58-0.58,1.3-1.1,2.15-1.56c0.85-0.46,1.8-0.84,2.87-1.14
		c1.07-0.3,2.27-0.45,3.6-0.45c2.06,0,3.95,0.39,5.69,1.17c1.73,0.78,3.23,1.85,4.48,3.21c1.25,1.36,2.22,2.96,2.9,4.8
		c0.69,1.84,1.03,3.82,1.03,5.94c0,2.12-0.33,4.11-1,5.97c-0.67,1.86-1.61,3.48-2.84,4.86c-1.23,1.38-2.72,2.48-4.48,3.3
		s-3.74,1.23-5.96,1.23c-2.06,0-3.94-0.42-5.66-1.26c-1.71-0.84-3.04-1.98-3.96-3.42h-0.12v18.25h-7.26V78.81H1838.1z M1855.04,93.1
		c0-1.12-0.17-2.23-0.51-3.33c-0.34-1.1-0.86-2.09-1.54-2.97c-0.69-0.88-1.55-1.59-2.6-2.13c-1.05-0.54-2.28-0.81-3.69-0.81
		c-1.33,0-2.52,0.28-3.57,0.84c-1.05,0.56-1.95,1.28-2.69,2.16c-0.75,0.88-1.31,1.88-1.69,3c-0.38,1.12-0.58,2.24-0.58,3.36
		c0,1.12,0.19,2.23,0.58,3.33c0.38,1.1,0.95,2.09,1.69,2.97c0.75,0.88,1.64,1.59,2.69,2.13c1.05,0.54,2.24,0.81,3.57,0.81
		c1.41,0,2.64-0.28,3.69-0.84c1.05-0.56,1.92-1.28,2.6-2.16c0.69-0.88,1.2-1.88,1.54-3C1854.86,95.34,1855.04,94.22,1855.04,93.1z"
		/>
	<path d="M1897.14,93.58c0,0.32,0,0.64,0,0.96c0,0.32-0.02,0.64-0.06,0.96H1875c0.08,1.04,0.35,1.99,0.82,2.85
		c0.46,0.86,1.08,1.6,1.84,2.22c0.77,0.62,1.63,1.11,2.6,1.47c0.97,0.36,1.98,0.54,3.02,0.54c1.81,0,3.35-0.33,4.6-0.99
		c1.25-0.66,2.28-1.57,3.09-2.73l4.84,3.84c-2.86,3.84-7.02,5.76-12.46,5.76c-2.26,0-4.34-0.35-6.23-1.05
		c-1.9-0.7-3.54-1.69-4.93-2.97c-1.39-1.28-2.48-2.85-3.27-4.71c-0.79-1.86-1.18-3.97-1.18-6.33c0-2.32,0.39-4.43,1.18-6.33
		c0.79-1.9,1.87-3.52,3.24-4.86c1.37-1.34,2.99-2.38,4.87-3.12c1.88-0.74,3.9-1.11,6.08-1.11c2.02,0,3.88,0.33,5.6,0.99
		c1.71,0.66,3.2,1.64,4.45,2.94c1.25,1.3,2.23,2.92,2.93,4.86C1896.79,88.71,1897.14,90.98,1897.14,93.58z M1889.88,90.34
		c0-0.92-0.13-1.8-0.39-2.64c-0.26-0.84-0.68-1.58-1.24-2.22c-0.56-0.64-1.28-1.15-2.15-1.53c-0.87-0.38-1.89-0.57-3.06-0.57
		c-2.18,0-4.02,0.65-5.54,1.95c-1.51,1.3-2.35,2.97-2.51,5.01H1889.88z"/>
	<path d="M1920.07,86.49c-0.65-0.84-1.53-1.57-2.66-2.19c-1.13-0.62-2.36-0.93-3.69-0.93c-1.17,0-2.24,0.24-3.21,0.72
		c-0.97,0.48-1.45,1.28-1.45,2.4c0,1.12,0.53,1.91,1.6,2.37c1.07,0.46,2.63,0.93,4.69,1.41c1.09,0.24,2.19,0.56,3.3,0.96
		c1.11,0.4,2.12,0.93,3.02,1.59c0.91,0.66,1.64,1.48,2.21,2.46c0.56,0.98,0.85,2.17,0.85,3.57c0,1.76-0.33,3.25-1,4.47
		c-0.67,1.22-1.55,2.21-2.66,2.97c-1.11,0.76-2.4,1.31-3.87,1.65c-1.47,0.34-2.99,0.51-4.57,0.51c-2.26,0-4.46-0.41-6.59-1.23
		c-2.14-0.82-3.91-1.99-5.32-3.51l4.78-4.44c0.81,1.04,1.85,1.9,3.15,2.58c1.29,0.68,2.72,1.02,4.29,1.02c0.52,0,1.06-0.06,1.6-0.18
		s1.05-0.31,1.51-0.57c0.46-0.26,0.84-0.61,1.12-1.05c0.28-0.44,0.42-0.98,0.42-1.62c0-1.2-0.55-2.06-1.66-2.58
		c-1.11-0.52-2.77-1.04-4.99-1.56c-1.09-0.24-2.15-0.55-3.18-0.93c-1.03-0.38-1.95-0.88-2.75-1.5c-0.81-0.62-1.45-1.39-1.94-2.31
		c-0.48-0.92-0.73-2.06-0.73-3.42c0-1.6,0.33-2.98,1-4.14c0.67-1.16,1.54-2.11,2.63-2.85c1.09-0.74,2.32-1.29,3.69-1.65
		c1.37-0.36,2.78-0.54,4.23-0.54c2.1,0,4.14,0.36,6.14,1.08c2,0.72,3.58,1.82,4.75,3.3L1920.07,86.49z"/>
	<path d="M1964.17,103.96h-0.18c-0.73,1.28-1.9,2.33-3.51,3.15c-1.61,0.82-3.45,1.23-5.51,1.23c-1.17,0-2.39-0.15-3.66-0.45
		c-1.27-0.3-2.44-0.8-3.51-1.5c-1.07-0.7-1.96-1.62-2.66-2.76c-0.71-1.14-1.06-2.55-1.06-4.23c0-2.16,0.61-3.88,1.85-5.16
		c1.23-1.28,2.81-2.26,4.75-2.94c1.94-0.68,4.08-1.13,6.44-1.35c2.36-0.22,4.67-0.33,6.93-0.33v-0.72c0-1.8-0.66-3.13-1.97-3.99
		c-1.31-0.86-2.87-1.29-4.69-1.29c-1.53,0-3,0.32-4.42,0.96c-1.41,0.64-2.58,1.42-3.51,2.34l-3.75-4.38
		c1.65-1.52,3.56-2.66,5.72-3.42c2.16-0.76,4.35-1.14,6.56-1.14c2.58,0,4.71,0.36,6.38,1.08c1.67,0.72,2.99,1.66,3.96,2.82
		c0.97,1.16,1.64,2.46,2.03,3.9c0.38,1.44,0.57,2.88,0.57,4.32v17.53h-6.78V103.96z M1964.05,94.48h-1.63
		c-1.17,0-2.4,0.05-3.69,0.15c-1.29,0.1-2.48,0.32-3.57,0.66c-1.09,0.34-2,0.82-2.72,1.44c-0.73,0.62-1.09,1.47-1.09,2.55
		c0,0.68,0.15,1.25,0.45,1.71c0.3,0.46,0.7,0.83,1.18,1.11c0.48,0.28,1.03,0.48,1.63,0.6s1.21,0.18,1.81,0.18
		c2.5,0,4.4-0.66,5.69-1.98c1.29-1.32,1.94-3.12,1.94-5.4V94.48z"/>
	<path d="M1980.56,84.57h-5.51v-5.76h5.51v-4.26c0-1.72,0.19-3.37,0.57-4.95c0.38-1.58,1.03-2.97,1.94-4.17
		c0.91-1.2,2.11-2.15,3.6-2.85c1.49-0.7,3.37-1.05,5.63-1.05c0.81,0,1.48,0.03,2.03,0.09s1.1,0.17,1.66,0.33l-0.48,6.12
		c-0.4-0.12-0.84-0.22-1.3-0.3c-0.46-0.08-0.96-0.12-1.48-0.12c-1.05,0-1.9,0.2-2.54,0.6c-0.65,0.4-1.14,0.92-1.48,1.56
		c-0.34,0.64-0.57,1.34-0.7,2.1c-0.12,0.76-0.18,1.5-0.18,2.22v4.68h6.72v5.76h-6.72v23.05h-7.26V84.57z"/>
	<path d="M1993.93,84.57v-5.76h5.08v-8.34h7.14v8.34h7.26v5.76h-7.26v13.38c0,1.28,0.23,2.34,0.7,3.18c0.46,0.84,1.5,1.26,3.12,1.26
		c0.48,0,1.01-0.05,1.57-0.15c0.56-0.1,1.07-0.25,1.51-0.45l0.24,5.64c-0.65,0.24-1.41,0.43-2.3,0.57
		c-0.89,0.14-1.73,0.21-2.54,0.21c-1.94,0-3.51-0.27-4.72-0.81s-2.17-1.28-2.87-2.22c-0.71-0.94-1.19-2.02-1.45-3.24
		c-0.26-1.22-0.39-2.53-0.39-3.93V84.57H1993.93z"/>
	<path d="M2046.38,93.58c0,0.32,0,0.64,0,0.96c0,0.32-0.02,0.64-0.06,0.96h-22.08c0.08,1.04,0.35,1.99,0.82,2.85
		c0.46,0.86,1.08,1.6,1.84,2.22c0.77,0.62,1.63,1.11,2.6,1.47c0.97,0.36,1.98,0.54,3.02,0.54c1.81,0,3.35-0.33,4.6-0.99
		c1.25-0.66,2.28-1.57,3.09-2.73l4.84,3.84c-2.86,3.84-7.02,5.76-12.46,5.76c-2.26,0-4.34-0.35-6.23-1.05
		c-1.9-0.7-3.54-1.69-4.93-2.97c-1.39-1.28-2.48-2.85-3.27-4.71c-0.79-1.86-1.18-3.97-1.18-6.33c0-2.32,0.39-4.43,1.18-6.33
		c0.79-1.9,1.87-3.52,3.24-4.86c1.37-1.34,2.99-2.38,4.87-3.12c1.88-0.74,3.9-1.11,6.08-1.11c2.02,0,3.88,0.33,5.6,0.99
		c1.71,0.66,3.2,1.64,4.45,2.94c1.25,1.3,2.23,2.92,2.93,4.86C2046.03,88.71,2046.38,90.98,2046.38,93.58z M2039.12,90.34
		c0-0.92-0.13-1.8-0.39-2.64c-0.26-0.84-0.68-1.58-1.24-2.22c-0.56-0.64-1.28-1.15-2.15-1.53c-0.87-0.38-1.89-0.57-3.06-0.57
		c-2.18,0-4.02,0.65-5.54,1.95c-1.51,1.3-2.35,2.97-2.51,5.01H2039.12z"/>
	<path d="M2053.4,78.81h6.96v4.8h0.12c0.81-1.68,1.94-3.04,3.39-4.08c1.45-1.04,3.15-1.56,5.08-1.56c0.28,0,0.58,0.01,0.91,0.03
		c0.32,0.02,0.6,0.07,0.85,0.15v6.6c-0.48-0.12-0.9-0.2-1.24-0.24c-0.34-0.04-0.68-0.06-1-0.06c-1.65,0-2.99,0.3-3.99,0.9
		c-1.01,0.6-1.8,1.32-2.36,2.16c-0.57,0.84-0.95,1.7-1.15,2.58c-0.2,0.88-0.3,1.58-0.3,2.1v15.42h-7.26V78.81z"/>
	<path d="M2097.92,62.25v20.23h0.18c0.36-0.48,0.83-0.98,1.39-1.5c0.56-0.52,1.24-1,2.03-1.44c0.79-0.44,1.7-0.81,2.75-1.11
		c1.05-0.3,2.24-0.45,3.57-0.45c2.06,0,3.95,0.39,5.69,1.17c1.73,0.78,3.23,1.85,4.48,3.21c1.25,1.36,2.22,2.96,2.9,4.8
		c0.69,1.84,1.03,3.82,1.03,5.94c0,2.12-0.33,4.11-1,5.97c-0.67,1.86-1.61,3.48-2.84,4.86c-1.23,1.38-2.72,2.48-4.48,3.3
		s-3.74,1.23-5.96,1.23c-2.06,0-3.98-0.44-5.78-1.32c-1.79-0.88-3.2-2.16-4.2-3.84h-0.12v4.32h-6.9V62.25H2097.92z M2114.56,93.1
		c0-1.12-0.17-2.23-0.51-3.33c-0.34-1.1-0.86-2.09-1.54-2.97c-0.69-0.88-1.55-1.59-2.6-2.13c-1.05-0.54-2.28-0.81-3.69-0.81
		c-1.33,0-2.52,0.28-3.57,0.84c-1.05,0.56-1.95,1.28-2.69,2.16c-0.75,0.88-1.31,1.88-1.69,3c-0.38,1.12-0.57,2.24-0.57,3.36
		c0,1.12,0.19,2.23,0.57,3.33c0.38,1.1,0.95,2.09,1.69,2.97c0.75,0.88,1.64,1.59,2.69,2.13c1.05,0.54,2.24,0.81,3.57,0.81
		c1.41,0,2.64-0.28,3.69-0.84c1.05-0.56,1.92-1.28,2.6-2.16c0.69-0.88,1.2-1.88,1.54-3C2114.39,95.34,2114.56,94.22,2114.56,93.1z"
		/>
	<path d="M2128.96,78.81h6.96v4.8h0.12c0.81-1.68,1.94-3.04,3.39-4.08c1.45-1.04,3.15-1.56,5.08-1.56c0.28,0,0.58,0.01,0.91,0.03
		c0.32,0.02,0.6,0.07,0.85,0.15v6.6c-0.48-0.12-0.9-0.2-1.24-0.24c-0.34-0.04-0.68-0.06-1-0.06c-1.65,0-2.99,0.3-3.99,0.9
		c-1.01,0.6-1.8,1.32-2.36,2.16c-0.57,0.84-0.95,1.7-1.15,2.58c-0.2,0.88-0.3,1.58-0.3,2.1v15.42h-7.26V78.81z"/>
	<path d="M2148.2,93.1c0-2.28,0.41-4.35,1.24-6.21c0.83-1.86,1.95-3.45,3.36-4.77c1.41-1.32,3.08-2.34,5.02-3.06
		s3.99-1.08,6.17-1.08c2.18,0,4.23,0.36,6.17,1.08c1.94,0.72,3.61,1.74,5.02,3.06c1.41,1.32,2.53,2.91,3.36,4.77
		c0.83,1.86,1.24,3.93,1.24,6.21s-0.41,4.36-1.24,6.24c-0.83,1.88-1.95,3.49-3.36,4.83c-1.41,1.34-3.09,2.39-5.02,3.15
		c-1.94,0.76-3.99,1.14-6.17,1.14c-2.18,0-4.23-0.38-6.17-1.14c-1.94-0.76-3.61-1.81-5.02-3.15c-1.41-1.34-2.53-2.95-3.36-4.83
		C2148.61,97.46,2148.2,95.38,2148.2,93.1z M2155.58,93.1c0,1.12,0.17,2.24,0.51,3.36c0.34,1.12,0.86,2.12,1.54,3
		c0.69,0.88,1.55,1.6,2.6,2.16c1.05,0.56,2.3,0.84,3.75,0.84c1.45,0,2.7-0.28,3.75-0.84c1.05-0.56,1.92-1.28,2.6-2.16
		c0.69-0.88,1.2-1.88,1.54-3c0.34-1.12,0.51-2.24,0.51-3.36c0-1.12-0.17-2.23-0.51-3.33c-0.34-1.1-0.86-2.09-1.54-2.97
		c-0.69-0.88-1.55-1.59-2.6-2.13c-1.05-0.54-2.3-0.81-3.75-0.81c-1.45,0-2.7,0.27-3.75,0.81c-1.05,0.54-1.92,1.25-2.6,2.13
		c-0.69,0.88-1.2,1.87-1.54,2.97C2155.75,90.87,2155.58,91.98,2155.58,93.1z"/>
	<path d="M2204.82,103.96h-0.18c-0.73,1.28-1.9,2.33-3.51,3.15c-1.61,0.82-3.45,1.23-5.51,1.23c-1.17,0-2.39-0.15-3.66-0.45
		c-1.27-0.3-2.44-0.8-3.51-1.5c-1.07-0.7-1.96-1.62-2.66-2.76c-0.71-1.14-1.06-2.55-1.06-4.23c0-2.16,0.61-3.88,1.85-5.16
		c1.23-1.28,2.81-2.26,4.75-2.94c1.94-0.68,4.08-1.13,6.44-1.35c2.36-0.22,4.67-0.33,6.93-0.33v-0.72c0-1.8-0.66-3.13-1.97-3.99
		c-1.31-0.86-2.87-1.29-4.69-1.29c-1.53,0-3,0.32-4.42,0.96c-1.41,0.64-2.58,1.42-3.51,2.34l-3.75-4.38
		c1.65-1.52,3.56-2.66,5.72-3.42c2.16-0.76,4.35-1.14,6.56-1.14c2.58,0,4.71,0.36,6.38,1.08c1.67,0.72,2.99,1.66,3.96,2.82
		c0.97,1.16,1.64,2.46,2.03,3.9c0.38,1.44,0.57,2.88,0.57,4.32v17.53h-6.78V103.96z M2204.7,94.48h-1.63c-1.17,0-2.4,0.05-3.69,0.15
		c-1.29,0.1-2.48,0.32-3.57,0.66c-1.09,0.34-2,0.82-2.72,1.44c-0.73,0.62-1.09,1.47-1.09,2.55c0,0.68,0.15,1.25,0.45,1.71
		c0.3,0.46,0.7,0.83,1.18,1.11c0.48,0.28,1.03,0.48,1.63,0.6s1.21,0.18,1.81,0.18c2.5,0,4.4-0.66,5.69-1.98
		c1.29-1.32,1.94-3.12,1.94-5.4V94.48z"/>
	<path d="M2249.59,107.62h-6.9v-4.32h-0.12c-1.01,1.68-2.41,2.96-4.2,3.84c-1.79,0.88-3.72,1.32-5.78,1.32
		c-2.22,0-4.2-0.41-5.96-1.23s-3.25-1.92-4.48-3.3c-1.23-1.38-2.18-3-2.84-4.86c-0.67-1.86-1-3.85-1-5.97c0-2.12,0.34-4.1,1.03-5.94
		c0.69-1.84,1.65-3.44,2.9-4.8c1.25-1.36,2.74-2.43,4.48-3.21c1.73-0.78,3.63-1.17,5.69-1.17c1.33,0,2.52,0.15,3.57,0.45
		c1.05,0.3,1.97,0.67,2.75,1.11c0.79,0.44,1.46,0.92,2.03,1.44c0.56,0.52,1.03,1.02,1.39,1.5h0.18V62.25h7.26V107.62z M2225.69,93.1
		c0,1.12,0.17,2.24,0.51,3.36c0.34,1.12,0.86,2.12,1.54,3c0.69,0.88,1.55,1.6,2.6,2.16c1.05,0.56,2.28,0.84,3.69,0.84
		c1.33,0,2.52-0.27,3.57-0.81c1.05-0.54,1.95-1.25,2.69-2.13c0.75-0.88,1.31-1.87,1.69-2.97c0.38-1.1,0.57-2.21,0.57-3.33
		c0-1.12-0.19-2.24-0.57-3.36c-0.38-1.12-0.95-2.12-1.69-3c-0.75-0.88-1.64-1.6-2.69-2.16c-1.05-0.56-2.24-0.84-3.57-0.84
		c-1.41,0-2.64,0.27-3.69,0.81c-1.05,0.54-1.92,1.25-2.6,2.13c-0.69,0.88-1.2,1.87-1.54,2.97
		C2225.86,90.87,2225.69,91.98,2225.69,93.1z"/>
	<path d="M2278.26,86.79c-0.56-0.8-1.41-1.47-2.54-2.01c-1.13-0.54-2.28-0.81-3.45-0.81c-1.33,0-2.5,0.27-3.51,0.81
		c-1.01,0.54-1.85,1.25-2.51,2.13c-0.67,0.88-1.16,1.87-1.48,2.97c-0.32,1.1-0.48,2.21-0.48,3.33c0,1.12,0.17,2.23,0.51,3.33
		c0.34,1.1,0.86,2.09,1.54,2.97c0.69,0.88,1.54,1.59,2.57,2.13c1.03,0.54,2.23,0.81,3.6,0.81c1.13,0,2.26-0.22,3.39-0.66
		c1.13-0.44,2.04-1.08,2.72-1.92l4.54,4.56c-1.21,1.28-2.75,2.27-4.63,2.97s-3.9,1.05-6.08,1.05c-2.14,0-4.16-0.34-6.08-1.02
		c-1.92-0.68-3.59-1.68-5.02-3c-1.43-1.32-2.56-2.92-3.39-4.8c-0.83-1.88-1.24-4.02-1.24-6.42c0-2.32,0.41-4.42,1.24-6.3
		c0.83-1.88,1.95-3.48,3.36-4.8c1.41-1.32,3.05-2.34,4.93-3.06s3.88-1.08,6.02-1.08c2.14,0,4.2,0.4,6.2,1.2c2,0.8,3.58,1.9,4.75,3.3
		L2278.26,86.79z"/>
	<path d="M2305.97,103.96h-0.18c-0.73,1.28-1.9,2.33-3.51,3.15c-1.61,0.82-3.45,1.23-5.51,1.23c-1.17,0-2.39-0.15-3.66-0.45
		c-1.27-0.3-2.44-0.8-3.51-1.5c-1.07-0.7-1.96-1.62-2.66-2.76c-0.71-1.14-1.06-2.55-1.06-4.23c0-2.16,0.61-3.88,1.85-5.16
		c1.23-1.28,2.81-2.26,4.75-2.94c1.94-0.68,4.08-1.13,6.44-1.35c2.36-0.22,4.67-0.33,6.93-0.33v-0.72c0-1.8-0.66-3.13-1.97-3.99
		c-1.31-0.86-2.87-1.29-4.69-1.29c-1.53,0-3,0.32-4.42,0.96c-1.41,0.64-2.58,1.42-3.51,2.34l-3.75-4.38
		c1.65-1.52,3.56-2.66,5.72-3.42c2.16-0.76,4.35-1.14,6.56-1.14c2.58,0,4.71,0.36,6.38,1.08c1.67,0.72,2.99,1.66,3.96,2.82
		c0.97,1.16,1.64,2.46,2.03,3.9c0.38,1.44,0.57,2.88,0.57,4.32v17.53h-6.78V103.96z M2305.85,94.48h-1.63
		c-1.17,0-2.4,0.05-3.69,0.15c-1.29,0.1-2.48,0.32-3.57,0.66c-1.09,0.34-2,0.82-2.72,1.44c-0.73,0.62-1.09,1.47-1.09,2.55
		c0,0.68,0.15,1.25,0.45,1.71c0.3,0.46,0.7,0.83,1.18,1.11c0.48,0.28,1.03,0.48,1.63,0.6s1.21,0.18,1.81,0.18
		c2.5,0,4.4-0.66,5.69-1.98c1.29-1.32,1.94-3.12,1.94-5.4V94.48z"/>
	<path d="M2337.12,86.49c-0.65-0.84-1.53-1.57-2.66-2.19c-1.13-0.62-2.36-0.93-3.69-0.93c-1.17,0-2.24,0.24-3.21,0.72
		c-0.97,0.48-1.45,1.28-1.45,2.4c0,1.12,0.53,1.91,1.6,2.37c1.07,0.46,2.63,0.93,4.69,1.41c1.09,0.24,2.19,0.56,3.3,0.96
		c1.11,0.4,2.12,0.93,3.02,1.59c0.91,0.66,1.64,1.48,2.21,2.46c0.56,0.98,0.85,2.17,0.85,3.57c0,1.76-0.33,3.25-1,4.47
		c-0.67,1.22-1.55,2.21-2.66,2.97c-1.11,0.76-2.4,1.31-3.87,1.65c-1.47,0.34-2.99,0.51-4.57,0.51c-2.26,0-4.46-0.41-6.59-1.23
		c-2.14-0.82-3.91-1.99-5.32-3.51l4.78-4.44c0.81,1.04,1.85,1.9,3.15,2.58c1.29,0.68,2.72,1.02,4.29,1.02c0.52,0,1.06-0.06,1.6-0.18
		s1.05-0.31,1.51-0.57c0.46-0.26,0.84-0.61,1.12-1.05c0.28-0.44,0.42-0.98,0.42-1.62c0-1.2-0.55-2.06-1.66-2.58
		c-1.11-0.52-2.77-1.04-4.99-1.56c-1.09-0.24-2.15-0.55-3.18-0.93c-1.03-0.38-1.95-0.88-2.75-1.5c-0.81-0.62-1.45-1.39-1.94-2.31
		c-0.48-0.92-0.73-2.06-0.73-3.42c0-1.6,0.33-2.98,1-4.14c0.67-1.16,1.54-2.11,2.63-2.85c1.09-0.74,2.32-1.29,3.69-1.65
		c1.37-0.36,2.78-0.54,4.23-0.54c2.1,0,4.14,0.36,6.14,1.08c2,0.72,3.58,1.82,4.75,3.3L2337.12,86.49z"/>
	<path d="M2343.9,84.57v-5.76h5.08v-8.34h7.14v8.34h7.26v5.76h-7.26v13.38c0,1.28,0.23,2.34,0.7,3.18c0.46,0.84,1.5,1.26,3.12,1.26
		c0.48,0,1.01-0.05,1.57-0.15c0.56-0.1,1.07-0.25,1.51-0.45l0.24,5.64c-0.65,0.24-1.41,0.43-2.3,0.57
		c-0.89,0.14-1.73,0.21-2.54,0.21c-1.94,0-3.51-0.27-4.72-0.81s-2.17-1.28-2.87-2.22c-0.71-0.94-1.19-2.02-1.45-3.24
		c-0.26-1.22-0.39-2.53-0.39-3.93V84.57H2343.9z"/>
</g>
<g>
	<path d="M671.23,340.56h6.59l18.45,42.49h-8.71l-3.99-9.72H665l-3.87,9.72h-8.53L671.23,340.56z M680.91,366.85l-6.59-17.29
		l-6.72,17.29H680.91z"/>
	<path d="M700.14,354.24h6.96v4.8h0.12c0.81-1.68,1.94-3.04,3.39-4.08c1.45-1.04,3.15-1.56,5.08-1.56c0.28,0,0.58,0.01,0.91,0.03
		c0.32,0.02,0.6,0.07,0.85,0.15v6.6c-0.48-0.12-0.9-0.2-1.24-0.24c-0.34-0.04-0.68-0.06-1-0.06c-1.65,0-2.99,0.3-3.99,0.9
		c-1.01,0.6-1.8,1.32-2.36,2.16c-0.57,0.84-0.95,1.7-1.15,2.58c-0.2,0.88-0.3,1.58-0.3,2.1v15.42h-7.26V354.24z"/>
	<path d="M722.17,354.24h6.96v4.8h0.12c0.81-1.68,1.94-3.04,3.39-4.08c1.45-1.04,3.15-1.56,5.08-1.56c0.28,0,0.58,0.01,0.91,0.03
		c0.32,0.02,0.6,0.07,0.85,0.15v6.6c-0.48-0.12-0.9-0.2-1.24-0.24c-0.34-0.04-0.68-0.06-1-0.06c-1.65,0-2.99,0.3-3.99,0.9
		c-1.01,0.6-1.8,1.32-2.36,2.16c-0.57,0.84-0.95,1.7-1.15,2.58c-0.2,0.88-0.3,1.58-0.3,2.1v15.42h-7.26V354.24z"/>
	<path d="M761.43,379.39h-0.18c-0.73,1.28-1.9,2.33-3.51,3.15c-1.61,0.82-3.45,1.23-5.51,1.23c-1.17,0-2.39-0.15-3.66-0.45
		c-1.27-0.3-2.44-0.8-3.51-1.5c-1.07-0.7-1.96-1.62-2.66-2.76c-0.71-1.14-1.06-2.55-1.06-4.23c0-2.16,0.61-3.88,1.85-5.16
		c1.23-1.28,2.81-2.26,4.75-2.94c1.94-0.68,4.08-1.13,6.44-1.35c2.36-0.22,4.67-0.33,6.93-0.33v-0.72c0-1.8-0.66-3.13-1.97-3.99
		c-1.31-0.86-2.87-1.29-4.69-1.29c-1.53,0-3,0.32-4.42,0.96c-1.41,0.64-2.58,1.42-3.51,2.34l-3.75-4.38
		c1.65-1.52,3.56-2.66,5.72-3.42c2.16-0.76,4.35-1.14,6.56-1.14c2.58,0,4.71,0.36,6.38,1.08c1.67,0.72,2.99,1.66,3.96,2.82
		c0.97,1.16,1.64,2.46,2.03,3.9c0.38,1.44,0.57,2.88,0.57,4.32v17.53h-6.78V379.39z M761.31,369.91h-1.63
		c-1.17,0-2.4,0.05-3.69,0.15c-1.29,0.1-2.48,0.32-3.57,0.66c-1.09,0.34-2,0.82-2.72,1.44c-0.73,0.62-1.09,1.47-1.09,2.55
		c0,0.68,0.15,1.25,0.45,1.71c0.3,0.46,0.7,0.83,1.18,1.11c0.48,0.28,1.03,0.48,1.63,0.6s1.21,0.18,1.81,0.18
		c2.5,0,4.4-0.66,5.69-1.98c1.29-1.32,1.94-3.12,1.94-5.4V369.91z"/>
	<path d="M772.32,354.24h8.05l8.11,20.95h0.12l7.2-20.95h7.56l-13.73,34.99c-0.52,1.32-1.09,2.49-1.69,3.51
		c-0.6,1.02-1.33,1.88-2.18,2.58c-0.85,0.7-1.85,1.23-2.99,1.59c-1.15,0.36-2.53,0.54-4.14,0.54c-0.6,0-1.22-0.03-1.85-0.09
		c-0.63-0.06-1.26-0.17-1.91-0.33l0.6-6.24c0.48,0.16,0.96,0.27,1.42,0.33c0.46,0.06,0.9,0.09,1.3,0.09c0.77,0,1.41-0.09,1.94-0.27
		c0.52-0.18,0.97-0.46,1.33-0.84c0.36-0.38,0.69-0.85,0.97-1.41c0.28-0.56,0.58-1.22,0.91-1.98l1.45-3.66L772.32,354.24z"/>
	<path d="M822.65,376.45l16.52-16.08c1.33-1.28,2.39-2.57,3.18-3.87c0.79-1.3,1.18-2.79,1.18-4.47c0-2-0.66-3.59-1.97-4.77
		c-1.31-1.18-2.93-1.77-4.87-1.77c-2.06,0-3.71,0.69-4.96,2.07c-1.25,1.38-2.02,3.11-2.3,5.19l-7.08-1.08
		c0.2-1.76,0.71-3.38,1.51-4.86c0.81-1.48,1.83-2.76,3.08-3.84c1.25-1.08,2.71-1.93,4.39-2.55c1.67-0.62,3.5-0.93,5.48-0.93
		c1.85,0,3.64,0.26,5.35,0.78c1.71,0.52,3.24,1.31,4.57,2.37c1.33,1.06,2.39,2.36,3.18,3.9c0.79,1.54,1.18,3.33,1.18,5.37
		c0,1.36-0.18,2.63-0.54,3.81c-0.36,1.18-0.86,2.29-1.48,3.33c-0.63,1.04-1.35,2.03-2.18,2.97c-0.83,0.94-1.72,1.85-2.69,2.73
		l-12.34,11.7h19.3v6.6h-28.49V376.45z"/>
	<path d="M890.77,361.92c-0.65-0.84-1.53-1.57-2.66-2.19c-1.13-0.62-2.36-0.93-3.69-0.93c-1.17,0-2.24,0.24-3.21,0.72
		c-0.97,0.48-1.45,1.28-1.45,2.4c0,1.12,0.53,1.91,1.6,2.37c1.07,0.46,2.63,0.93,4.69,1.41c1.09,0.24,2.19,0.56,3.3,0.96
		c1.11,0.4,2.12,0.93,3.02,1.59c0.91,0.66,1.64,1.48,2.21,2.46c0.56,0.98,0.85,2.17,0.85,3.57c0,1.76-0.33,3.25-1,4.47
		c-0.67,1.22-1.55,2.21-2.66,2.97c-1.11,0.76-2.4,1.31-3.87,1.65c-1.47,0.34-2.99,0.51-4.57,0.51c-2.26,0-4.46-0.41-6.59-1.23
		c-2.14-0.82-3.91-1.99-5.32-3.51l4.78-4.44c0.81,1.04,1.85,1.9,3.15,2.58c1.29,0.68,2.72,1.02,4.29,1.02c0.52,0,1.06-0.06,1.6-0.18
		s1.05-0.31,1.51-0.57c0.46-0.26,0.84-0.61,1.12-1.05c0.28-0.44,0.42-0.98,0.42-1.62c0-1.2-0.55-2.06-1.66-2.58
		c-1.11-0.52-2.77-1.04-4.99-1.56c-1.09-0.24-2.15-0.55-3.18-0.93c-1.03-0.38-1.95-0.88-2.75-1.5c-0.81-0.62-1.45-1.39-1.94-2.31
		c-0.48-0.92-0.73-2.06-0.73-3.42c0-1.6,0.33-2.98,1-4.14c0.67-1.16,1.54-2.11,2.63-2.85c1.09-0.74,2.32-1.29,3.69-1.65
		c1.37-0.36,2.78-0.54,4.23-0.54c2.1,0,4.14,0.36,6.14,1.08c2,0.72,3.58,1.82,4.75,3.3L890.77,361.92z"/>
	<path d="M917.87,353.4c1.9,0,3.52,0.33,4.87,0.99c1.35,0.66,2.46,1.53,3.33,2.61c0.87,1.08,1.5,2.32,1.91,3.72
		c0.4,1.4,0.6,2.84,0.6,4.32v18.01h-7.26v-15.84c0-0.84-0.06-1.71-0.18-2.61c-0.12-0.9-0.37-1.72-0.76-2.46
		c-0.38-0.74-0.93-1.35-1.63-1.83c-0.71-0.48-1.64-0.72-2.81-0.72c-1.17,0-2.18,0.22-3.02,0.66c-0.85,0.44-1.55,1.03-2.12,1.77
		c-0.57,0.74-0.99,1.57-1.27,2.49c-0.28,0.92-0.42,1.86-0.42,2.82v15.73h-7.26v-45.37h7.26v20.59h0.12c0.28-0.6,0.7-1.19,1.24-1.77
		c0.54-0.58,1.18-1.1,1.91-1.56c0.73-0.46,1.55-0.83,2.48-1.11C915.77,353.54,916.78,353.4,917.87,353.4z"/>
	<path d="M955.07,379.39h-0.18c-0.73,1.28-1.9,2.33-3.51,3.15c-1.61,0.82-3.45,1.23-5.51,1.23c-1.17,0-2.39-0.15-3.66-0.45
		c-1.27-0.3-2.44-0.8-3.51-1.5c-1.07-0.7-1.96-1.62-2.66-2.76c-0.71-1.14-1.06-2.55-1.06-4.23c0-2.16,0.61-3.88,1.85-5.16
		c1.23-1.28,2.81-2.26,4.75-2.94c1.94-0.68,4.08-1.13,6.44-1.35c2.36-0.22,4.67-0.33,6.93-0.33v-0.72c0-1.8-0.66-3.13-1.97-3.99
		c-1.31-0.86-2.87-1.29-4.69-1.29c-1.53,0-3,0.32-4.42,0.96c-1.41,0.64-2.58,1.42-3.51,2.34l-3.75-4.38
		c1.65-1.52,3.56-2.66,5.72-3.42c2.16-0.76,4.35-1.14,6.56-1.14c2.58,0,4.71,0.36,6.38,1.08c1.67,0.72,2.99,1.66,3.96,2.82
		c0.97,1.16,1.64,2.46,2.03,3.9c0.38,1.44,0.57,2.88,0.57,4.32v17.53h-6.78V379.39z M954.95,369.91h-1.63
		c-1.17,0-2.4,0.05-3.69,0.15c-1.29,0.1-2.48,0.32-3.57,0.66c-1.09,0.34-2,0.82-2.72,1.44c-0.73,0.62-1.09,1.47-1.09,2.55
		c0,0.68,0.15,1.25,0.45,1.71c0.3,0.46,0.7,0.83,1.18,1.11c0.48,0.28,1.03,0.48,1.63,0.6s1.21,0.18,1.81,0.18
		c2.5,0,4.4-0.66,5.69-1.98c1.29-1.32,1.94-3.12,1.94-5.4V369.91z"/>
	<path d="M977.27,354.24v4.02h0.18c0.36-0.56,0.84-1.13,1.42-1.71c0.58-0.58,1.3-1.1,2.15-1.56c0.85-0.46,1.8-0.84,2.87-1.14
		c1.07-0.3,2.27-0.45,3.6-0.45c2.06,0,3.95,0.39,5.69,1.17c1.73,0.78,3.23,1.85,4.48,3.21c1.25,1.36,2.22,2.96,2.9,4.8
		c0.69,1.84,1.03,3.82,1.03,5.94c0,2.12-0.33,4.11-1,5.97c-0.67,1.86-1.61,3.48-2.84,4.86c-1.23,1.38-2.72,2.48-4.48,3.3
		s-3.74,1.23-5.96,1.23c-2.06,0-3.94-0.42-5.66-1.26c-1.71-0.84-3.04-1.98-3.96-3.42h-0.12v18.25h-7.26v-43.21H977.27z
		 M994.21,368.53c0-1.12-0.17-2.23-0.51-3.33c-0.34-1.1-0.86-2.09-1.54-2.97c-0.69-0.88-1.55-1.59-2.6-2.13
		c-1.05-0.54-2.28-0.81-3.69-0.81c-1.33,0-2.52,0.28-3.57,0.84c-1.05,0.56-1.95,1.28-2.69,2.16c-0.75,0.88-1.31,1.88-1.69,3
		c-0.38,1.12-0.58,2.24-0.58,3.36c0,1.12,0.19,2.23,0.58,3.33c0.38,1.1,0.95,2.09,1.69,2.97c0.75,0.88,1.64,1.59,2.69,2.13
		c1.05,0.54,2.24,0.81,3.57,0.81c1.41,0,2.64-0.28,3.69-0.84c1.05-0.56,1.92-1.28,2.6-2.16c0.69-0.88,1.2-1.88,1.54-3
		C994.04,370.77,994.21,369.65,994.21,368.53z"/>
	<path d="M1036.32,369.01c0,0.32,0,0.64,0,0.96c0,0.32-0.02,0.64-0.06,0.96h-22.08c0.08,1.04,0.35,1.99,0.82,2.85
		c0.46,0.86,1.08,1.6,1.84,2.22c0.77,0.62,1.63,1.11,2.6,1.47c0.97,0.36,1.98,0.54,3.02,0.54c1.81,0,3.35-0.33,4.6-0.99
		c1.25-0.66,2.28-1.57,3.09-2.73l4.84,3.84c-2.86,3.84-7.02,5.76-12.46,5.76c-2.26,0-4.34-0.35-6.23-1.05
		c-1.9-0.7-3.54-1.69-4.93-2.97c-1.39-1.28-2.48-2.85-3.27-4.71c-0.79-1.86-1.18-3.97-1.18-6.33c0-2.32,0.39-4.43,1.18-6.33
		c0.79-1.9,1.87-3.52,3.24-4.86c1.37-1.34,2.99-2.38,4.87-3.12c1.88-0.74,3.9-1.11,6.08-1.11c2.02,0,3.88,0.33,5.6,0.99
		c1.71,0.66,3.2,1.64,4.45,2.94c1.25,1.3,2.23,2.92,2.93,4.86C1035.96,364.14,1036.32,366.41,1036.32,369.01z M1029.06,365.77
		c0-0.92-0.13-1.8-0.39-2.64c-0.26-0.84-0.68-1.58-1.24-2.22c-0.56-0.64-1.28-1.15-2.15-1.53c-0.87-0.38-1.89-0.57-3.06-0.57
		c-2.18,0-4.02,0.65-5.54,1.95c-1.51,1.3-2.35,2.97-2.51,5.01H1029.06z"/>
</g>
<g>
	<line x1="1326.51" y1="93.11" x2="1342.67" y2="172.3"/>
	<g>
		<line class="st19" x1="1326.51" y1="93.11" x2="1338.42" y2="151.47"/>
		<g>
			<polygon points="1330.64,148.21 1342.67,172.3 1344.3,145.42 			"/>
		</g>
	</g>
</g>
<g>
	<path d="M1825.12,437.86c0-0.58,0.21-1.08,0.65-1.52c0.43-0.43,0.98-0.65,1.64-0.65c0.66,0,1.21,0.21,1.66,0.62
		c0.45,0.41,0.68,0.93,0.68,1.54c0,0.62-0.23,1.14-0.68,1.54c-0.45,0.41-1,0.62-1.66,0.62c-0.66,0-1.21-0.21-1.64-0.65
		C1825.33,438.95,1825.12,438.44,1825.12,437.86z M1825.63,442.75h3.6v14.4h-3.6V442.75z"/>
	<path d="M1833.61,442.75h3.42v2.31h0.06c0.32-0.72,0.87-1.35,1.67-1.91c0.79-0.55,1.72-0.82,2.8-0.82c0.94,0,1.74,0.17,2.42,0.49
		c0.67,0.33,1.22,0.77,1.65,1.31s0.75,1.16,0.95,1.86c0.2,0.7,0.3,1.42,0.3,2.16v9h-3.6v-7.98c0-0.42-0.03-0.86-0.09-1.32
		s-0.19-0.88-0.39-1.25c-0.2-0.37-0.48-0.68-0.82-0.92c-0.35-0.24-0.82-0.36-1.4-0.36c-0.58,0-1.08,0.12-1.5,0.34
		c-0.42,0.23-0.77,0.52-1.04,0.89c-0.27,0.36-0.48,0.78-0.61,1.24c-0.14,0.47-0.21,0.95-0.21,1.43v7.92h-3.6V442.75z"/>
	<path d="M1851.07,442.75h3.42v2.31h0.06c0.32-0.72,0.87-1.35,1.67-1.91c0.79-0.55,1.72-0.82,2.8-0.82c0.94,0,1.74,0.17,2.42,0.49
		c0.67,0.33,1.22,0.77,1.65,1.31s0.75,1.16,0.95,1.86c0.2,0.7,0.3,1.42,0.3,2.16v9h-3.6v-7.98c0-0.42-0.03-0.86-0.09-1.32
		s-0.19-0.88-0.39-1.25c-0.2-0.37-0.48-0.68-0.82-0.92c-0.35-0.24-0.82-0.36-1.4-0.36c-0.58,0-1.08,0.12-1.5,0.34
		c-0.42,0.23-0.77,0.52-1.04,0.89c-0.27,0.36-0.48,0.78-0.61,1.24c-0.14,0.47-0.21,0.95-0.21,1.43v7.92h-3.6V442.75z"/>
	<path d="M1882.27,450.13c0,0.16,0,0.32,0,0.48c0,0.16-0.01,0.32-0.03,0.48h-10.95c0.04,0.52,0.17,1,0.41,1.43
		c0.23,0.43,0.53,0.8,0.92,1.11c0.38,0.31,0.81,0.55,1.29,0.73s0.98,0.27,1.5,0.27c0.9,0,1.66-0.17,2.28-0.5
		c0.62-0.33,1.13-0.78,1.53-1.36l2.4,1.92c-1.42,1.92-3.48,2.88-6.18,2.88c-1.12,0-2.15-0.18-3.09-0.52
		c-0.94-0.35-1.76-0.84-2.45-1.48s-1.23-1.43-1.62-2.35c-0.39-0.93-0.58-1.98-0.58-3.17c0-1.16,0.2-2.21,0.58-3.17
		c0.39-0.95,0.93-1.76,1.6-2.43c0.68-0.67,1.49-1.19,2.42-1.56c0.93-0.37,1.94-0.55,3.02-0.55c1,0,1.92,0.17,2.77,0.49
		c0.85,0.33,1.58,0.82,2.21,1.47c0.62,0.65,1.1,1.46,1.46,2.43C1882.09,447.7,1882.27,448.83,1882.27,450.13z M1878.67,448.51
		c0-0.46-0.06-0.9-0.19-1.32c-0.13-0.42-0.33-0.79-0.61-1.11c-0.28-0.32-0.64-0.57-1.07-0.77c-0.43-0.19-0.94-0.29-1.51-0.29
		c-1.08,0-2,0.33-2.75,0.98c-0.75,0.65-1.17,1.48-1.25,2.5H1878.67z"/>
	<path d="M1885.75,442.75h3.45v2.4h0.06c0.4-0.84,0.96-1.52,1.68-2.04c0.72-0.52,1.56-0.78,2.52-0.78c0.14,0,0.29,0,0.45,0.01
		c0.16,0.01,0.3,0.04,0.42,0.08v3.3c-0.24-0.06-0.45-0.1-0.62-0.12s-0.33-0.03-0.5-0.03c-0.82,0-1.48,0.15-1.98,0.45
		c-0.5,0.3-0.89,0.66-1.17,1.08c-0.28,0.42-0.47,0.85-0.57,1.29c-0.1,0.44-0.15,0.79-0.15,1.05v7.71h-3.6V442.75z"/>
	<path d="M1902.31,451.3h-7.2v-3.06h7.2V451.3z"/>
	<path d="M1848.55,478.33c0.94,0,1.74,0.17,2.42,0.49c0.67,0.33,1.22,0.77,1.65,1.31c0.43,0.54,0.74,1.16,0.94,1.86
		c0.2,0.7,0.3,1.42,0.3,2.16v9h-3.6v-7.98c0-0.42-0.03-0.86-0.09-1.32c-0.06-0.46-0.19-0.88-0.39-1.25
		c-0.2-0.37-0.48-0.68-0.83-0.92c-0.35-0.24-0.81-0.36-1.4-0.36c-0.56,0-1.04,0.12-1.44,0.36c-0.4,0.24-0.73,0.55-0.99,0.93
		c-0.26,0.38-0.45,0.81-0.57,1.27c-0.12,0.47-0.18,0.94-0.18,1.4v7.86h-3.6v-8.7c0-0.9-0.22-1.64-0.65-2.23
		c-0.43-0.59-1.11-0.88-2.02-0.88c-0.54,0-1.01,0.12-1.41,0.34c-0.4,0.23-0.73,0.52-0.98,0.89c-0.25,0.36-0.44,0.78-0.57,1.24
		c-0.13,0.47-0.2,0.95-0.2,1.43v7.92h-3.6v-14.4h3.42v2.31h0.06c0.16-0.36,0.38-0.7,0.65-1.02s0.59-0.61,0.96-0.87
		c0.37-0.26,0.79-0.46,1.27-0.62c0.48-0.15,1.01-0.22,1.59-0.22c1.12,0,2.05,0.25,2.79,0.75c0.74,0.5,1.31,1.16,1.71,1.98
		c0.48-0.88,1.12-1.56,1.92-2.03C1846.53,478.57,1847.47,478.33,1848.55,478.33z"/>
	<path d="M1857.22,485.89c0-1.14,0.21-2.18,0.62-3.11c0.41-0.93,0.96-1.72,1.67-2.38c0.7-0.66,1.53-1.17,2.49-1.53
		c0.96-0.36,1.98-0.54,3.06-0.54s2.1,0.18,3.06,0.54c0.96,0.36,1.79,0.87,2.49,1.53c0.7,0.66,1.25,1.46,1.67,2.38
		c0.41,0.93,0.61,1.97,0.61,3.11c0,1.14-0.21,2.18-0.61,3.12c-0.41,0.94-0.97,1.75-1.67,2.42c-0.7,0.67-1.53,1.2-2.49,1.58
		c-0.96,0.38-1.98,0.57-3.06,0.57s-2.1-0.19-3.06-0.57c-0.96-0.38-1.79-0.9-2.49-1.58c-0.7-0.67-1.26-1.47-1.67-2.42
		C1857.42,488.07,1857.22,487.03,1857.22,485.89z M1860.88,485.89c0,0.56,0.08,1.12,0.25,1.68c0.17,0.56,0.42,1.06,0.77,1.5
		c0.34,0.44,0.77,0.8,1.29,1.08c0.52,0.28,1.14,0.42,1.86,0.42c0.72,0,1.34-0.14,1.86-0.42c0.52-0.28,0.95-0.64,1.29-1.08
		c0.34-0.44,0.6-0.94,0.77-1.5c0.17-0.56,0.25-1.12,0.25-1.68s-0.08-1.11-0.25-1.67c-0.17-0.55-0.43-1.04-0.77-1.49
		c-0.34-0.44-0.77-0.79-1.29-1.06s-1.14-0.4-1.86-0.4c-0.72,0-1.34,0.13-1.86,0.4c-0.52,0.27-0.95,0.63-1.29,1.06
		c-0.34,0.44-0.6,0.94-0.77,1.49C1860.96,484.78,1860.88,485.33,1860.88,485.89z"/>
	<path d="M1884.25,482.59c-0.32-0.42-0.76-0.78-1.32-1.09c-0.56-0.31-1.17-0.47-1.83-0.47c-0.58,0-1.11,0.12-1.59,0.36
		c-0.48,0.24-0.72,0.64-0.72,1.2c0,0.56,0.27,0.96,0.79,1.19c0.53,0.23,1.31,0.46,2.33,0.71c0.54,0.12,1.08,0.28,1.64,0.48
		c0.55,0.2,1.05,0.46,1.5,0.79c0.45,0.33,0.81,0.74,1.09,1.23c0.28,0.49,0.42,1.08,0.42,1.79c0,0.88-0.17,1.62-0.49,2.23
		c-0.33,0.61-0.77,1.11-1.32,1.48c-0.55,0.38-1.19,0.66-1.92,0.83c-0.73,0.17-1.48,0.25-2.27,0.25c-1.12,0-2.21-0.21-3.27-0.61
		s-1.94-0.99-2.64-1.76l2.37-2.22c0.4,0.52,0.92,0.95,1.56,1.29c0.64,0.34,1.35,0.51,2.13,0.51c0.26,0,0.53-0.03,0.8-0.09
		s0.52-0.15,0.75-0.29c0.23-0.13,0.41-0.3,0.55-0.52c0.14-0.22,0.21-0.49,0.21-0.81c0-0.6-0.27-1.03-0.82-1.29
		c-0.55-0.26-1.38-0.52-2.48-0.78c-0.54-0.12-1.06-0.27-1.58-0.47c-0.51-0.19-0.96-0.44-1.36-0.75c-0.4-0.31-0.72-0.69-0.96-1.15
		c-0.24-0.46-0.36-1.03-0.36-1.71c0-0.8,0.17-1.49,0.5-2.07s0.77-1.05,1.31-1.43c0.54-0.37,1.15-0.65,1.83-0.82
		c0.68-0.18,1.38-0.27,2.1-0.27c1.04,0,2.05,0.18,3.04,0.54c0.99,0.36,1.77,0.91,2.35,1.65L1884.25,482.59z"/>
	<path d="M1887.61,481.63v-2.88h2.52v-4.17h3.54v4.17h3.6v2.88h-3.6v6.69c0,0.64,0.11,1.17,0.35,1.59c0.23,0.42,0.74,0.63,1.54,0.63
		c0.24,0,0.5-0.02,0.78-0.08c0.28-0.05,0.53-0.12,0.75-0.23l0.12,2.82c-0.32,0.12-0.7,0.21-1.14,0.28c-0.44,0.07-0.86,0.1-1.26,0.1
		c-0.96,0-1.74-0.13-2.34-0.4c-0.6-0.27-1.08-0.64-1.43-1.11c-0.35-0.47-0.59-1.01-0.72-1.62c-0.13-0.61-0.2-1.26-0.2-1.96v-6.72
		H1887.61z"/>
</g>
<g>
	<path d="M2136.19,449.89c0-1.14,0.21-2.18,0.62-3.11c0.41-0.93,0.96-1.72,1.67-2.38c0.7-0.66,1.53-1.17,2.49-1.53
		c0.96-0.36,1.98-0.54,3.06-0.54s2.1,0.18,3.06,0.54c0.96,0.36,1.79,0.87,2.49,1.53c0.7,0.66,1.25,1.46,1.67,2.38
		c0.41,0.93,0.61,1.97,0.61,3.11c0,1.14-0.21,2.18-0.61,3.12c-0.41,0.94-0.97,1.75-1.67,2.42c-0.7,0.67-1.53,1.2-2.49,1.58
		c-0.96,0.38-1.98,0.57-3.06,0.57s-2.1-0.19-3.06-0.57c-0.96-0.38-1.79-0.9-2.49-1.58c-0.7-0.67-1.26-1.47-1.67-2.42
		C2136.4,452.07,2136.19,451.03,2136.19,449.89z M2139.85,449.89c0,0.56,0.08,1.12,0.25,1.68c0.17,0.56,0.42,1.06,0.77,1.5
		c0.34,0.44,0.77,0.8,1.29,1.08c0.52,0.28,1.14,0.42,1.86,0.42c0.72,0,1.34-0.14,1.86-0.42c0.52-0.28,0.95-0.64,1.29-1.08
		c0.34-0.44,0.6-0.94,0.77-1.5c0.17-0.56,0.25-1.12,0.25-1.68s-0.08-1.11-0.25-1.67c-0.17-0.55-0.43-1.04-0.77-1.49
		c-0.34-0.44-0.77-0.79-1.29-1.06s-1.14-0.4-1.86-0.4c-0.72,0-1.34,0.13-1.86,0.4c-0.52,0.27-0.95,0.63-1.29,1.06
		c-0.34,0.44-0.6,0.94-0.77,1.49C2139.94,448.78,2139.85,449.33,2139.85,449.89z"/>
	<path d="M2168.47,457.15h-3.42v-2.31h-0.06c-0.32,0.72-0.88,1.35-1.67,1.91c-0.79,0.55-1.72,0.82-2.8,0.82
		c-0.94,0-1.75-0.17-2.42-0.5c-0.67-0.33-1.22-0.76-1.65-1.3c-0.43-0.54-0.75-1.16-0.95-1.86c-0.2-0.7-0.3-1.42-0.3-2.16v-9h3.6
		v7.98c0,0.42,0.03,0.86,0.09,1.32c0.06,0.46,0.19,0.88,0.39,1.25c0.2,0.37,0.47,0.67,0.82,0.92c0.35,0.24,0.81,0.36,1.4,0.36
		c0.56,0,1.05-0.11,1.49-0.34c0.43-0.23,0.78-0.53,1.05-0.89s0.47-0.77,0.62-1.25c0.14-0.47,0.21-0.94,0.21-1.42v-7.92h3.6V457.15z"
		/>
	<path d="M2170.72,445.63v-2.88h2.52v-4.17h3.54v4.17h3.6v2.88h-3.6v6.69c0,0.64,0.11,1.17,0.35,1.59c0.23,0.42,0.74,0.63,1.54,0.63
		c0.24,0,0.5-0.02,0.78-0.08c0.28-0.05,0.53-0.12,0.75-0.23l0.12,2.82c-0.32,0.12-0.7,0.21-1.14,0.28c-0.44,0.07-0.86,0.1-1.26,0.1
		c-0.96,0-1.74-0.13-2.34-0.4c-0.6-0.27-1.08-0.64-1.43-1.11c-0.35-0.47-0.59-1.01-0.72-1.62c-0.13-0.61-0.2-1.26-0.2-1.96v-6.72
		H2170.72z"/>
	<path d="M2196.73,450.13c0,0.16,0,0.32,0,0.48c0,0.16-0.01,0.32-0.03,0.48h-10.95c0.04,0.52,0.17,1,0.41,1.43
		c0.23,0.43,0.53,0.8,0.92,1.11c0.38,0.31,0.81,0.55,1.29,0.73s0.98,0.27,1.5,0.27c0.9,0,1.66-0.17,2.28-0.5
		c0.62-0.33,1.13-0.78,1.53-1.36l2.4,1.92c-1.42,1.92-3.48,2.88-6.18,2.88c-1.12,0-2.15-0.18-3.09-0.52
		c-0.94-0.35-1.76-0.84-2.45-1.48s-1.23-1.43-1.62-2.35c-0.39-0.93-0.58-1.98-0.58-3.17c0-1.16,0.2-2.21,0.58-3.17
		c0.39-0.95,0.93-1.76,1.6-2.43c0.68-0.67,1.49-1.19,2.42-1.56c0.93-0.37,1.94-0.55,3.02-0.55c1,0,1.92,0.17,2.77,0.49
		c0.85,0.33,1.58,0.82,2.21,1.47c0.62,0.65,1.1,1.46,1.46,2.43C2196.55,447.7,2196.73,448.83,2196.73,450.13z M2193.13,448.51
		c0-0.46-0.06-0.9-0.19-1.32c-0.13-0.42-0.33-0.79-0.61-1.11c-0.28-0.32-0.64-0.57-1.07-0.77c-0.43-0.19-0.94-0.29-1.51-0.29
		c-1.08,0-2,0.33-2.75,0.98c-0.75,0.65-1.17,1.48-1.25,2.5H2193.13z"/>
	<path d="M2200.21,442.75h3.45v2.4h0.06c0.4-0.84,0.96-1.52,1.68-2.04c0.72-0.52,1.56-0.78,2.52-0.78c0.14,0,0.29,0,0.45,0.01
		c0.16,0.01,0.3,0.04,0.42,0.08v3.3c-0.24-0.06-0.45-0.1-0.62-0.12s-0.33-0.03-0.5-0.03c-0.82,0-1.48,0.15-1.98,0.45
		c-0.5,0.3-0.89,0.66-1.17,1.08c-0.28,0.42-0.47,0.85-0.57,1.29c-0.1,0.44-0.15,0.79-0.15,1.05v7.71h-3.6V442.75z"/>
	<path d="M2216.77,451.3h-7.2v-3.06h7.2V451.3z"/>
	<path d="M2161.51,478.33c0.94,0,1.74,0.17,2.42,0.49c0.67,0.33,1.22,0.77,1.65,1.31c0.43,0.54,0.74,1.16,0.94,1.86
		c0.2,0.7,0.3,1.42,0.3,2.16v9h-3.6v-7.98c0-0.42-0.03-0.86-0.09-1.32c-0.06-0.46-0.19-0.88-0.39-1.25
		c-0.2-0.37-0.48-0.68-0.83-0.92c-0.35-0.24-0.81-0.36-1.4-0.36c-0.56,0-1.04,0.12-1.44,0.36c-0.4,0.24-0.73,0.55-0.99,0.93
		c-0.26,0.38-0.45,0.81-0.57,1.27c-0.12,0.47-0.18,0.94-0.18,1.4v7.86h-3.6v-8.7c0-0.9-0.22-1.64-0.65-2.23
		c-0.43-0.59-1.11-0.88-2.02-0.88c-0.54,0-1.01,0.12-1.41,0.34c-0.4,0.23-0.73,0.52-0.98,0.89c-0.25,0.36-0.44,0.78-0.57,1.24
		c-0.13,0.47-0.2,0.95-0.2,1.43v7.92h-3.6v-14.4h3.42v2.31h0.06c0.16-0.36,0.38-0.7,0.65-1.02s0.59-0.61,0.96-0.87
		c0.37-0.26,0.79-0.46,1.27-0.62c0.48-0.15,1.01-0.22,1.59-0.22c1.12,0,2.05,0.25,2.79,0.75c0.74,0.5,1.31,1.16,1.71,1.98
		c0.48-0.88,1.12-1.56,1.92-2.03C2159.49,478.57,2160.43,478.33,2161.51,478.33z"/>
	<path d="M2170.18,485.89c0-1.14,0.21-2.18,0.62-3.11c0.41-0.93,0.96-1.72,1.67-2.38c0.7-0.66,1.53-1.17,2.49-1.53
		c0.96-0.36,1.98-0.54,3.06-0.54s2.1,0.18,3.06,0.54c0.96,0.36,1.79,0.87,2.49,1.53c0.7,0.66,1.25,1.46,1.67,2.38
		c0.41,0.93,0.61,1.97,0.61,3.11c0,1.14-0.21,2.18-0.61,3.12c-0.41,0.94-0.97,1.75-1.67,2.42c-0.7,0.67-1.53,1.2-2.49,1.58
		c-0.96,0.38-1.98,0.57-3.06,0.57s-2.1-0.19-3.06-0.57c-0.96-0.38-1.79-0.9-2.49-1.58c-0.7-0.67-1.26-1.47-1.67-2.42
		C2170.39,488.07,2170.18,487.03,2170.18,485.89z M2173.84,485.89c0,0.56,0.08,1.12,0.25,1.68c0.17,0.56,0.42,1.06,0.77,1.5
		c0.34,0.44,0.77,0.8,1.29,1.08c0.52,0.28,1.14,0.42,1.86,0.42c0.72,0,1.34-0.14,1.86-0.42c0.52-0.28,0.95-0.64,1.29-1.08
		c0.34-0.44,0.6-0.94,0.77-1.5c0.17-0.56,0.25-1.12,0.25-1.68s-0.08-1.11-0.25-1.67c-0.17-0.55-0.43-1.04-0.77-1.49
		c-0.34-0.44-0.77-0.79-1.29-1.06s-1.14-0.4-1.86-0.4c-0.72,0-1.34,0.13-1.86,0.4c-0.52,0.27-0.95,0.63-1.29,1.06
		c-0.34,0.44-0.6,0.94-0.77,1.49C2173.93,484.78,2173.84,485.33,2173.84,485.89z"/>
	<path d="M2197.21,482.59c-0.32-0.42-0.76-0.78-1.32-1.09c-0.56-0.31-1.17-0.47-1.83-0.47c-0.58,0-1.11,0.12-1.59,0.36
		c-0.48,0.24-0.72,0.64-0.72,1.2c0,0.56,0.27,0.96,0.79,1.19c0.53,0.23,1.31,0.46,2.33,0.71c0.54,0.12,1.08,0.28,1.64,0.48
		c0.55,0.2,1.05,0.46,1.5,0.79c0.45,0.33,0.81,0.74,1.09,1.23c0.28,0.49,0.42,1.08,0.42,1.79c0,0.88-0.17,1.62-0.49,2.23
		c-0.33,0.61-0.77,1.11-1.32,1.48c-0.55,0.38-1.19,0.66-1.92,0.83c-0.73,0.17-1.48,0.25-2.27,0.25c-1.12,0-2.21-0.21-3.27-0.61
		s-1.94-0.99-2.64-1.76l2.37-2.22c0.4,0.52,0.92,0.95,1.56,1.29c0.64,0.34,1.35,0.51,2.13,0.51c0.26,0,0.53-0.03,0.8-0.09
		s0.52-0.15,0.75-0.29c0.23-0.13,0.41-0.3,0.55-0.52c0.14-0.22,0.21-0.49,0.21-0.81c0-0.6-0.27-1.03-0.82-1.29
		c-0.55-0.26-1.38-0.52-2.48-0.78c-0.54-0.12-1.06-0.27-1.58-0.47c-0.51-0.19-0.96-0.44-1.36-0.75c-0.4-0.31-0.72-0.69-0.96-1.15
		c-0.24-0.46-0.36-1.03-0.36-1.71c0-0.8,0.17-1.49,0.5-2.07s0.77-1.05,1.31-1.43c0.54-0.37,1.15-0.65,1.83-0.82
		c0.68-0.18,1.38-0.27,2.1-0.27c1.04,0,2.05,0.18,3.04,0.54c0.99,0.36,1.77,0.91,2.35,1.65L2197.21,482.59z"/>
	<path d="M2200.57,481.63v-2.88h2.52v-4.17h3.54v4.17h3.6v2.88h-3.6v6.69c0,0.64,0.11,1.17,0.35,1.59c0.23,0.42,0.74,0.63,1.54,0.63
		c0.24,0,0.5-0.02,0.78-0.08c0.28-0.05,0.53-0.12,0.75-0.23l0.12,2.82c-0.32,0.12-0.7,0.21-1.14,0.28c-0.44,0.07-0.86,0.1-1.26,0.1
		c-0.96,0-1.74-0.13-2.34-0.4c-0.6-0.27-1.08-0.64-1.43-1.11c-0.35-0.47-0.59-1.01-0.72-1.62c-0.13-0.61-0.2-1.26-0.2-1.96v-6.72
		H2200.57z"/>
</g>
</svg>
