<?xml version="1.0" encoding="utf-8"?>
<!-- Generator: Adobe Illustrator 23.0.6, SVG Export Plug-In . SVG Version: 6.00 Build 0)  -->
<svg version="1.1" id="Layer_1" xmlns="http://www.w3.org/2000/svg" xmlns:xlink="http://www.w3.org/1999/xlink" x="0px" y="0px"
	 viewBox="0 0 1922 487.3" style="enable-background:new 0 0 1922 487.3;" xml:space="preserve">
<style type="text/css">
	.st0{enable-background:new    ;}
	.st1{clip-path:url(#SVGID_2_);}
	.st2{clip-path:url(#SVGID_4_);}
	.st3{fill:#D4FFD4;}
	.st4{clip-path:url(#SVGID_6_);}
	.st5{clip-path:url(#SVGID_8_);}
	.st6{fill:none;stroke:#000000;stroke-width:1.7;stroke-miterlimit:10;}
	.st7{clip-path:url(#SVGID_10_);}
	.st8{clip-path:url(#SVGID_12_);}
	.st9{clip-path:url(#SVGID_14_);}
	.st10{clip-path:url(#SVGID_16_);}
	.st11{clip-path:url(#SVGID_18_);}
	.st12{clip-path:url(#SVGID_20_);}
	.st13{clip-path:url(#SVGID_22_);}
	.st14{clip-path:url(#SVGID_24_);}
	.st15{clip-path:url(#SVGID_26_);}
	.st16{clip-path:url(#SVGID_28_);}
	.st17{clip-path:url(#SVGID_30_);}
	.st18{clip-path:url(#SVGID_32_);}
	.st19{clip-path:url(#SVGID_34_);}
	.st20{clip-path:url(#SVGID_36_);}
	.st21{fill:#FFD4D4;}
	.st22{clip-path:url(#SVGID_38_);}
	.st23{clip-path:url(#SVGID_40_);}
	.st24{clip-path:url(#SVGID_42_);}
	.st25{clip-path:url(#SVGID_44_);}
	.st26{fill:#D4F2FF;}
	.st27{clip-path:url(#SVGID_46_);}
	.st28{clip-path:url(#SVGID_48_);}
	.st29{clip-path:url(#SVGID_50_);}
	.st30{clip-path:url(#SVGID_52_);}
	.st31{clip-path:url(#SVGID_54_);}
	.st32{clip-path:url(#SVGID_56_);}
	.st33{clip-path:url(#SVGID_58_);}
	.st34{clip-path:url(#SVGID_60_);}
	.st35{clip-path:url(#SVGID_62_);}
	.st36{clip-path:url(#SVGID_64_);}
	.st37{clip-path:url(#SVGID_66_);}
	.st38{clip-path:url(#SVGID_68_);}
	.st39{clip-path:url(#SVGID_70_);}
	.st40{clip-path:url(#SVGID_72_);}
	.st41{clip-path:url(#SVGID_74_);}
	.st42{clip-path:url(#SVGID_76_);}
	.st43{clip-path:url(#SVGID_78_);}
	.st44{clip-path:url(#SVGID_80_);}
	.st45{fill:#F3D4FF;}
	.st46{clip-path:url(#SVGID_82_);}
	.st47{clip-path:url(#SVGID_84_);}
	.st48{clip-path:url(#SVGID_86_);}
	.st49{clip-path:url(#SVGID_88_);}
	.st50{clip-path:url(#SVGID_90_);}
	.st51{clip-path:url(#SVGID_92_);}
	.st52{clip-path:url(#SVGID_94_);}
	.st53{clip-path:url(#SVGID_96_);}
	.st54{clip-path:url(#SVGID_98_);}
	.st55{clip-path:url(#SVGID_100_);}
	.st56{clip-path:url(#SVGID_102_);}
	.st57{clip-path:url(#SVGID_104_);}
	.st58{clip-path:url(#SVGID_106_);}
	.st59{clip-path:url(#SVGID_108_);}
	.st60{clip-path:url(#SVGID_110_);}
	.st61{clip-path:url(#SVGID_112_);}
	.st62{fill:#F4FFD4;}
	.st63{clip-path:url(#SVGID_114_);}
	.st64{clip-path:url(#SVGID_116_);}
	.st65{clip-path:url(#SVGID_118_);}
	.st66{clip-path:url(#SVGID_120_);}
	.st67{fill:#FFA1A1;}
	.st68{clip-path:url(#SVGID_122_);}
	.st69{clip-path:url(#SVGID_124_);}
	.st70{clip-path:url(#SVGID_126_);}
	.st71{clip-path:url(#SVGID_128_);}
	.st72{clip-path:url(#SVGID_130_);}
	.st73{clip-path:url(#SVGID_132_);}
	.st74{clip-path:url(#SVGID_134_);}
	.st75{clip-path:url(#SVGID_136_);}
	.st76{clip-path:url(#SVGID_138_);}
	.st77{clip-path:url(#SVGID_140_);}
	.st78{clip-path:url(#SVGID_142_);}
	.st79{clip-path:url(#SVGID_144_);}
	.st80{clip-path:url(#SVGID_146_);}
	.st81{clip-path:url(#SVGID_148_);}
	.st82{clip-path:url(#SVGID_150_);}
	.st83{clip-path:url(#SVGID_152_);}
	.st84{fill:none;stroke:#000000;stroke-width:1.62;stroke-miterlimit:10;}
	.st85{fill:#FFA1F7;}
	.st86{fill:none;}
</style>
<title>nested</title>
<g class="st0">
	<path d="M226.2,46v117c0,8.6,0.2,18.4,0.8,25h-15.8l-0.8-16.8H210c-5.4,10.8-17.2,19-33,19c-23.4,0-41.4-19.8-41.4-49.2
		c-0.2-32.2,19.8-52,43.4-52c14.8,0,24.8,7,29.2,14.8h0.4V46H226.2z M208.6,130.6c0-2.2-0.2-5.2-0.8-7.4
		c-2.6-11.2-12.2-20.4-25.4-20.4c-18.2,0-29,16-29,37.4c0,19.6,9.6,35.8,28.6,35.8c11.8,0,22.6-7.8,25.8-21c0.6-2.4,0.8-4.8,0.8-7.6
		V130.6z"/>
	<path d="M343,138.8c0,35.8-24.8,51.4-48.2,51.4c-26.2,0-46.4-19.2-46.4-49.8c0-32.4,21.2-51.4,48-51.4
		C324.2,89,343,109.2,343,138.8z M266.2,139.8c0,21.2,12.2,37.2,29.4,37.2c16.8,0,29.4-15.8,29.4-37.6c0-16.4-8.2-37.2-29-37.2
		S266.2,121.4,266.2,139.8z"/>
	<path d="M386.4,63.4v27.8h25.2v13.4h-25.2v52.2c0,12,3.4,18.8,13.2,18.8c4.6,0,8-0.6,10.2-1.2l0.8,13.2c-3.4,1.4-8.8,2.4-15.6,2.4
		c-8.2,0-14.8-2.6-19-7.4c-5-5.2-6.8-13.8-6.8-25.2v-52.8h-15V91.2h15V68L386.4,63.4z"/>
	<path d="M469.6,49.2C455,68.8,444.4,94.8,444.4,131c0,35.6,11,61.2,25.2,81.2h-13.8c-12.6-16.6-26.2-42.2-26.2-81.2
		c0.2-39.4,13.6-65,26.2-81.8H469.6z"/>
</g>
<g class="st0">
	<path d="M731.2,212.6c4.4-11.8,9.8-33.2,12-47.8l19.6-2c-4.6,17-13.4,39.2-19,48.6L731.2,212.6z"/>
	<path d="M1027.8,212.2c14.2-19.8,25.2-45.8,25.2-81.8c0-35.8-10.8-61.4-25.2-81.2h13.6c12.8,16.4,26.2,42,26.2,81.4
		c0,39.2-13.4,64.6-26.2,81.6H1027.8z"/>
	<path d="M1131,120.6v-12h103.2v12H1131z M1131,159.8v-12h103.2v12H1131z"/>
</g>
<g>
	<defs>
		<rect id="SVGID_1_" x="484" y="27" width="522" height="204"/>
	</defs>
	<clipPath id="SVGID_2_">
		<use xlink:href="#SVGID_1_"  style="overflow:visible;"/>
	</clipPath>
	<g class="st1">
		<g>
			<defs>
				<rect id="SVGID_3_" x="484" y="27" width="522" height="204"/>
			</defs>
			<clipPath id="SVGID_4_">
				<use xlink:href="#SVGID_3_"  style="overflow:visible;"/>
			</clipPath>
			<g class="st2">
				<rect x="484.9" y="27.9" class="st3" width="54.4" height="54.6"/>
			</g>
		</g>
	</g>
</g>
<g>
	<defs>
		<rect id="SVGID_5_" x="484" y="27" width="522" height="204"/>
	</defs>
	<clipPath id="SVGID_6_">
		<use xlink:href="#SVGID_5_"  style="overflow:visible;"/>
	</clipPath>
	<g class="st4">
		<g>
			<defs>
				<rect id="SVGID_7_" x="484" y="27" width="522" height="204"/>
			</defs>
			<clipPath id="SVGID_8_">
				<use xlink:href="#SVGID_7_"  style="overflow:visible;"/>
			</clipPath>
			<g class="st5">
				<rect x="484.9" y="27.9" class="st6" width="54.4" height="54.6"/>
			</g>
		</g>
	</g>
</g>
<g>
	<defs>
		<rect id="SVGID_9_" x="484" y="27" width="522" height="204"/>
	</defs>
	<clipPath id="SVGID_10_">
		<use xlink:href="#SVGID_9_"  style="overflow:visible;"/>
	</clipPath>
	<g class="st7">
		<g>
			<defs>
				<rect id="SVGID_11_" x="484" y="27" width="522" height="204"/>
			</defs>
			<clipPath id="SVGID_12_">
				<use xlink:href="#SVGID_11_"  style="overflow:visible;"/>
			</clipPath>
			<g class="st8">
				<rect x="539.2" y="27.9" class="st3" width="54.4" height="54.6"/>
			</g>
		</g>
	</g>
</g>
<g>
	<defs>
		<rect id="SVGID_13_" x="484" y="27" width="522" height="204"/>
	</defs>
	<clipPath id="SVGID_14_">
		<use xlink:href="#SVGID_13_"  style="overflow:visible;"/>
	</clipPath>
	<g class="st9">
		<g>
			<defs>
				<rect id="SVGID_15_" x="484" y="27" width="522" height="204"/>
			</defs>
			<clipPath id="SVGID_16_">
				<use xlink:href="#SVGID_15_"  style="overflow:visible;"/>
			</clipPath>
			<g class="st10">
				<rect x="539.2" y="27.9" class="st6" width="54.4" height="54.6"/>
			</g>
		</g>
	</g>
</g>
<g>
	<defs>
		<rect id="SVGID_17_" x="484" y="27" width="522" height="204"/>
	</defs>
	<clipPath id="SVGID_18_">
		<use xlink:href="#SVGID_17_"  style="overflow:visible;"/>
	</clipPath>
	<g class="st11">
		<g>
			<defs>
				<rect id="SVGID_19_" x="484" y="27" width="522" height="204"/>
			</defs>
			<clipPath id="SVGID_20_">
				<use xlink:href="#SVGID_19_"  style="overflow:visible;"/>
			</clipPath>
			<g class="st12">
				<rect x="593.6" y="27.9" class="st3" width="54.4" height="54.6"/>
			</g>
		</g>
	</g>
</g>
<g>
	<defs>
		<rect id="SVGID_21_" x="484" y="27" width="522" height="204"/>
	</defs>
	<clipPath id="SVGID_22_">
		<use xlink:href="#SVGID_21_"  style="overflow:visible;"/>
	</clipPath>
	<g class="st13">
		<g>
			<defs>
				<rect id="SVGID_23_" x="484" y="27" width="522" height="204"/>
			</defs>
			<clipPath id="SVGID_24_">
				<use xlink:href="#SVGID_23_"  style="overflow:visible;"/>
			</clipPath>
			<g class="st14">
				<rect x="593.6" y="27.9" class="st6" width="54.4" height="54.6"/>
			</g>
		</g>
	</g>
</g>
<g>
	<defs>
		<rect id="SVGID_25_" x="484" y="27" width="522" height="204"/>
	</defs>
	<clipPath id="SVGID_26_">
		<use xlink:href="#SVGID_25_"  style="overflow:visible;"/>
	</clipPath>
	<g class="st15">
		<g>
			<defs>
				<rect id="SVGID_27_" x="484" y="27" width="522" height="204"/>
			</defs>
			<clipPath id="SVGID_28_">
				<use xlink:href="#SVGID_27_"  style="overflow:visible;"/>
			</clipPath>
			<g class="st16">
				<rect x="648" y="27.9" class="st3" width="54.4" height="54.6"/>
			</g>
		</g>
	</g>
</g>
<g>
	<defs>
		<rect id="SVGID_29_" x="484" y="27" width="522" height="204"/>
	</defs>
	<clipPath id="SVGID_30_">
		<use xlink:href="#SVGID_29_"  style="overflow:visible;"/>
	</clipPath>
	<g class="st17">
		<g>
			<defs>
				<rect id="SVGID_31_" x="484" y="27" width="522" height="204"/>
			</defs>
			<clipPath id="SVGID_32_">
				<use xlink:href="#SVGID_31_"  style="overflow:visible;"/>
			</clipPath>
			<g class="st18">
				<rect x="648" y="27.9" class="st6" width="54.4" height="54.6"/>
			</g>
		</g>
	</g>
</g>
<g>
	<defs>
		<rect id="SVGID_33_" x="484" y="27" width="522" height="204"/>
	</defs>
	<clipPath id="SVGID_34_">
		<use xlink:href="#SVGID_33_"  style="overflow:visible;"/>
	</clipPath>
	<g class="st19">
		<g>
			<defs>
				<rect id="SVGID_35_" x="484" y="27" width="522" height="204"/>
			</defs>
			<clipPath id="SVGID_36_">
				<use xlink:href="#SVGID_35_"  style="overflow:visible;"/>
			</clipPath>
			<g class="st20">
				<rect x="484.9" y="101.7" class="st21" width="54.4" height="54.6"/>
			</g>
		</g>
	</g>
</g>
<g>
	<defs>
		<rect id="SVGID_37_" x="484" y="27" width="522" height="204"/>
	</defs>
	<clipPath id="SVGID_38_">
		<use xlink:href="#SVGID_37_"  style="overflow:visible;"/>
	</clipPath>
	<g class="st22">
		<g>
			<defs>
				<rect id="SVGID_39_" x="484" y="27" width="522" height="204"/>
			</defs>
			<clipPath id="SVGID_40_">
				<use xlink:href="#SVGID_39_"  style="overflow:visible;"/>
			</clipPath>
			<g class="st23">
				<rect x="484.9" y="101.7" class="st6" width="54.4" height="54.6"/>
			</g>
		</g>
	</g>
</g>
<g>
	<defs>
		<rect id="SVGID_41_" x="484" y="27" width="522" height="204"/>
	</defs>
	<clipPath id="SVGID_42_">
		<use xlink:href="#SVGID_41_"  style="overflow:visible;"/>
	</clipPath>
	<g class="st24">
		<g>
			<defs>
				<rect id="SVGID_43_" x="484" y="27" width="522" height="204"/>
			</defs>
			<clipPath id="SVGID_44_">
				<use xlink:href="#SVGID_43_"  style="overflow:visible;"/>
			</clipPath>
			<g class="st25">
				<rect x="539.2" y="101.7" class="st21" width="54.4" height="54.6"/>
				<rect x="539.2" y="101.7" class="st6" width="54.4" height="54.6"/>
				<rect x="593.6" y="101.7" class="st21" width="54.4" height="54.6"/>
				<rect x="593.6" y="101.7" class="st6" width="54.4" height="54.6"/>
				<rect x="648" y="101.7" class="st21" width="54.4" height="54.6"/>
				<rect x="648" y="101.7" class="st6" width="54.4" height="54.6"/>
				<rect x="484.9" y="175.6" class="st26" width="54.4" height="54.6"/>
			</g>
		</g>
	</g>
</g>
<g>
	<defs>
		<rect id="SVGID_45_" x="484" y="27" width="522" height="204"/>
	</defs>
	<clipPath id="SVGID_46_">
		<use xlink:href="#SVGID_45_"  style="overflow:visible;"/>
	</clipPath>
	<g class="st27">
		<g>
			<defs>
				<rect id="SVGID_47_" x="484" y="27" width="522" height="204"/>
			</defs>
			<clipPath id="SVGID_48_">
				<use xlink:href="#SVGID_47_"  style="overflow:visible;"/>
			</clipPath>
			<g class="st28">
				<rect x="484.9" y="175.6" class="st6" width="54.4" height="54.6"/>
			</g>
		</g>
	</g>
</g>
<g>
	<defs>
		<rect id="SVGID_49_" x="484" y="27" width="522" height="204"/>
	</defs>
	<clipPath id="SVGID_50_">
		<use xlink:href="#SVGID_49_"  style="overflow:visible;"/>
	</clipPath>
	<g class="st29">
		<g>
			<defs>
				<rect id="SVGID_51_" x="484" y="27" width="522" height="204"/>
			</defs>
			<clipPath id="SVGID_52_">
				<use xlink:href="#SVGID_51_"  style="overflow:visible;"/>
			</clipPath>
			<g class="st30">
				<rect x="539.2" y="175.6" class="st26" width="54.4" height="54.6"/>
			</g>
		</g>
	</g>
</g>
<g>
	<defs>
		<rect id="SVGID_53_" x="484" y="27" width="522" height="204"/>
	</defs>
	<clipPath id="SVGID_54_">
		<use xlink:href="#SVGID_53_"  style="overflow:visible;"/>
	</clipPath>
	<g class="st31">
		<g>
			<defs>
				<rect id="SVGID_55_" x="484" y="27" width="522" height="204"/>
			</defs>
			<clipPath id="SVGID_56_">
				<use xlink:href="#SVGID_55_"  style="overflow:visible;"/>
			</clipPath>
			<g class="st32">
				<rect x="539.2" y="175.6" class="st6" width="54.4" height="54.6"/>
			</g>
		</g>
	</g>
</g>
<g>
	<defs>
		<rect id="SVGID_57_" x="484" y="27" width="522" height="204"/>
	</defs>
	<clipPath id="SVGID_58_">
		<use xlink:href="#SVGID_57_"  style="overflow:visible;"/>
	</clipPath>
	<g class="st33">
		<g>
			<defs>
				<rect id="SVGID_59_" x="484" y="27" width="522" height="204"/>
			</defs>
			<clipPath id="SVGID_60_">
				<use xlink:href="#SVGID_59_"  style="overflow:visible;"/>
			</clipPath>
			<g class="st34">
				<rect x="593.6" y="175.6" class="st26" width="54.4" height="54.6"/>
			</g>
		</g>
	</g>
</g>
<g>
	<defs>
		<rect id="SVGID_61_" x="484" y="27" width="522" height="204"/>
	</defs>
	<clipPath id="SVGID_62_">
		<use xlink:href="#SVGID_61_"  style="overflow:visible;"/>
	</clipPath>
	<g class="st35">
		<g>
			<defs>
				<rect id="SVGID_63_" x="484" y="27" width="522" height="204"/>
			</defs>
			<clipPath id="SVGID_64_">
				<use xlink:href="#SVGID_63_"  style="overflow:visible;"/>
			</clipPath>
			<g class="st36">
				<rect x="593.6" y="175.6" class="st6" width="54.4" height="54.6"/>
			</g>
		</g>
	</g>
</g>
<g>
	<defs>
		<rect id="SVGID_65_" x="484" y="27" width="522" height="204"/>
	</defs>
	<clipPath id="SVGID_66_">
		<use xlink:href="#SVGID_65_"  style="overflow:visible;"/>
	</clipPath>
	<g class="st37">
		<g>
			<defs>
				<rect id="SVGID_67_" x="484" y="27" width="522" height="204"/>
			</defs>
			<clipPath id="SVGID_68_">
				<use xlink:href="#SVGID_67_"  style="overflow:visible;"/>
			</clipPath>
			<g class="st38">
				<rect x="648" y="175.6" class="st26" width="54.4" height="54.6"/>
			</g>
		</g>
	</g>
</g>
<g>
	<defs>
		<rect id="SVGID_69_" x="484" y="27" width="522" height="204"/>
	</defs>
	<clipPath id="SVGID_70_">
		<use xlink:href="#SVGID_69_"  style="overflow:visible;"/>
	</clipPath>
	<g class="st39">
		<g>
			<defs>
				<rect id="SVGID_71_" x="484" y="27" width="522" height="204"/>
			</defs>
			<clipPath id="SVGID_72_">
				<use xlink:href="#SVGID_71_"  style="overflow:visible;"/>
			</clipPath>
			<g class="st40">
				<rect x="648" y="175.6" class="st6" width="54.4" height="54.6"/>
			</g>
		</g>
	</g>
</g>
<g>
	<defs>
		<rect id="SVGID_73_" x="484" y="27" width="522" height="204"/>
	</defs>
	<clipPath id="SVGID_74_">
		<use xlink:href="#SVGID_73_"  style="overflow:visible;"/>
	</clipPath>
	<g class="st41">
		<g>
			<defs>
				<rect id="SVGID_75_" x="484" y="27" width="522" height="204"/>
			</defs>
			<clipPath id="SVGID_76_">
				<use xlink:href="#SVGID_75_"  style="overflow:visible;"/>
			</clipPath>
			<g class="st42">
				<line class="st6" x1="702.3" y1="27.9" x2="702.3" y2="82.4"/>
			</g>
		</g>
	</g>
</g>
<g>
	<defs>
		<rect id="SVGID_77_" x="484" y="27" width="522" height="204"/>
	</defs>
	<clipPath id="SVGID_78_">
		<use xlink:href="#SVGID_77_"  style="overflow:visible;"/>
	</clipPath>
	<g class="st43">
		<g>
			<defs>
				<rect id="SVGID_79_" x="484" y="27" width="522" height="204"/>
			</defs>
			<clipPath id="SVGID_80_">
				<use xlink:href="#SVGID_79_"  style="overflow:visible;"/>
			</clipPath>
			<g class="st44">
				<rect x="787.7" y="27.9" class="st45" width="54.4" height="54.6"/>
			</g>
		</g>
	</g>
</g>
<g>
	<defs>
		<rect id="SVGID_81_" x="484" y="27" width="522" height="204"/>
	</defs>
	<clipPath id="SVGID_82_">
		<use xlink:href="#SVGID_81_"  style="overflow:visible;"/>
	</clipPath>
	<g class="st46">
		<g>
			<defs>
				<rect id="SVGID_83_" x="484" y="27" width="522" height="204"/>
			</defs>
			<clipPath id="SVGID_84_">
				<use xlink:href="#SVGID_83_"  style="overflow:visible;"/>
			</clipPath>
			<g class="st47">
				<rect x="787.7" y="27.9" class="st6" width="54.4" height="54.6"/>
			</g>
		</g>
	</g>
</g>
<g>
	<defs>
		<rect id="SVGID_85_" x="484" y="27" width="522" height="204"/>
	</defs>
	<clipPath id="SVGID_86_">
		<use xlink:href="#SVGID_85_"  style="overflow:visible;"/>
	</clipPath>
	<g class="st48">
		<g>
			<defs>
				<rect id="SVGID_87_" x="484" y="27" width="522" height="204"/>
			</defs>
			<clipPath id="SVGID_88_">
				<use xlink:href="#SVGID_87_"  style="overflow:visible;"/>
			</clipPath>
			<g class="st49">
				<rect x="842" y="27.9" class="st45" width="54.4" height="54.6"/>
			</g>
		</g>
	</g>
</g>
<g>
	<defs>
		<rect id="SVGID_89_" x="484" y="27" width="522" height="204"/>
	</defs>
	<clipPath id="SVGID_90_">
		<use xlink:href="#SVGID_89_"  style="overflow:visible;"/>
	</clipPath>
	<g class="st50">
		<g>
			<defs>
				<rect id="SVGID_91_" x="484" y="27" width="522" height="204"/>
			</defs>
			<clipPath id="SVGID_92_">
				<use xlink:href="#SVGID_91_"  style="overflow:visible;"/>
			</clipPath>
			<g class="st51">
				<rect x="842" y="27.9" class="st6" width="54.4" height="54.6"/>
			</g>
		</g>
	</g>
</g>
<g>
	<defs>
		<rect id="SVGID_93_" x="484" y="27" width="522" height="204"/>
	</defs>
	<clipPath id="SVGID_94_">
		<use xlink:href="#SVGID_93_"  style="overflow:visible;"/>
	</clipPath>
	<g class="st52">
		<g>
			<defs>
				<rect id="SVGID_95_" x="484" y="27" width="522" height="204"/>
			</defs>
			<clipPath id="SVGID_96_">
				<use xlink:href="#SVGID_95_"  style="overflow:visible;"/>
			</clipPath>
			<g class="st53">
				<rect x="896.4" y="27.9" class="st45" width="54.4" height="54.6"/>
			</g>
		</g>
	</g>
</g>
<g>
	<defs>
		<rect id="SVGID_97_" x="484" y="27" width="522" height="204"/>
	</defs>
	<clipPath id="SVGID_98_">
		<use xlink:href="#SVGID_97_"  style="overflow:visible;"/>
	</clipPath>
	<g class="st54">
		<g>
			<defs>
				<rect id="SVGID_99_" x="484" y="27" width="522" height="204"/>
			</defs>
			<clipPath id="SVGID_100_">
				<use xlink:href="#SVGID_99_"  style="overflow:visible;"/>
			</clipPath>
			<g class="st55">
				<rect x="896.4" y="27.9" class="st6" width="54.4" height="54.6"/>
			</g>
		</g>
	</g>
</g>
<g>
	<defs>
		<rect id="SVGID_101_" x="484" y="27" width="522" height="204"/>
	</defs>
	<clipPath id="SVGID_102_">
		<use xlink:href="#SVGID_101_"  style="overflow:visible;"/>
	</clipPath>
	<g class="st56">
		<g>
			<defs>
				<rect id="SVGID_103_" x="484" y="27" width="522" height="204"/>
			</defs>
			<clipPath id="SVGID_104_">
				<use xlink:href="#SVGID_103_"  style="overflow:visible;"/>
			</clipPath>
			<g class="st57">
				<rect x="950.8" y="27.9" class="st45" width="54.4" height="54.6"/>
			</g>
		</g>
	</g>
</g>
<g>
	<defs>
		<rect id="SVGID_105_" x="484" y="27" width="522" height="204"/>
	</defs>
	<clipPath id="SVGID_106_">
		<use xlink:href="#SVGID_105_"  style="overflow:visible;"/>
	</clipPath>
	<g class="st58">
		<g>
			<defs>
				<rect id="SVGID_107_" x="484" y="27" width="522" height="204"/>
			</defs>
			<clipPath id="SVGID_108_">
				<use xlink:href="#SVGID_107_"  style="overflow:visible;"/>
			</clipPath>
			<g class="st59">
				<rect x="950.8" y="27.9" class="st6" width="54.4" height="54.6"/>
			</g>
		</g>
	</g>
</g>
<g>
	<defs>
		<rect id="SVGID_109_" x="484" y="27" width="522" height="204"/>
	</defs>
	<clipPath id="SVGID_110_">
		<use xlink:href="#SVGID_109_"  style="overflow:visible;"/>
	</clipPath>
	<g class="st60">
		<g>
			<defs>
				<rect id="SVGID_111_" x="484" y="27" width="522" height="204"/>
			</defs>
			<clipPath id="SVGID_112_">
				<use xlink:href="#SVGID_111_"  style="overflow:visible;"/>
			</clipPath>
			<g class="st61">
				<rect x="787.7" y="101.7" class="st62" width="54.4" height="54.6"/>
				<rect x="787.7" y="101.7" class="st6" width="54.4" height="54.6"/>
				<rect x="842" y="101.7" class="st62" width="54.4" height="54.6"/>
				<rect x="842" y="101.7" class="st6" width="54.4" height="54.6"/>
				<rect x="896.4" y="101.7" class="st62" width="54.4" height="54.6"/>
				<rect x="896.4" y="101.7" class="st6" width="54.4" height="54.6"/>
				<rect x="950.8" y="101.7" class="st62" width="54.4" height="54.6"/>
			</g>
		</g>
	</g>
</g>
<g>
	<defs>
		<rect id="SVGID_113_" x="484" y="27" width="522" height="204"/>
	</defs>
	<clipPath id="SVGID_114_">
		<use xlink:href="#SVGID_113_"  style="overflow:visible;"/>
	</clipPath>
	<g class="st63">
		<g>
			<defs>
				<rect id="SVGID_115_" x="484" y="27" width="522" height="204"/>
			</defs>
			<clipPath id="SVGID_116_">
				<use xlink:href="#SVGID_115_"  style="overflow:visible;"/>
			</clipPath>
			<g class="st64">
				<rect x="950.8" y="101.7" class="st6" width="54.4" height="54.6"/>
			</g>
		</g>
	</g>
</g>
<g>
	<defs>
		<rect id="SVGID_117_" x="484" y="27" width="522" height="204"/>
	</defs>
	<clipPath id="SVGID_118_">
		<use xlink:href="#SVGID_117_"  style="overflow:visible;"/>
	</clipPath>
	<g class="st65">
		<g>
			<defs>
				<rect id="SVGID_119_" x="484" y="27" width="522" height="204"/>
			</defs>
			<clipPath id="SVGID_120_">
				<use xlink:href="#SVGID_119_"  style="overflow:visible;"/>
			</clipPath>
			<g class="st66">
				<rect x="787.7" y="175.6" class="st67" width="54.4" height="54.6"/>
			</g>
		</g>
	</g>
</g>
<g>
	<defs>
		<rect id="SVGID_121_" x="484" y="27" width="522" height="204"/>
	</defs>
	<clipPath id="SVGID_122_">
		<use xlink:href="#SVGID_121_"  style="overflow:visible;"/>
	</clipPath>
	<g class="st68">
		<g>
			<defs>
				<rect id="SVGID_123_" x="484" y="27" width="522" height="204"/>
			</defs>
			<clipPath id="SVGID_124_">
				<use xlink:href="#SVGID_123_"  style="overflow:visible;"/>
			</clipPath>
			<g class="st69">
				<rect x="787.7" y="175.6" class="st6" width="54.4" height="54.6"/>
			</g>
		</g>
	</g>
</g>
<g>
	<defs>
		<rect id="SVGID_125_" x="484" y="27" width="522" height="204"/>
	</defs>
	<clipPath id="SVGID_126_">
		<use xlink:href="#SVGID_125_"  style="overflow:visible;"/>
	</clipPath>
	<g class="st70">
		<g>
			<defs>
				<rect id="SVGID_127_" x="484" y="27" width="522" height="204"/>
			</defs>
			<clipPath id="SVGID_128_">
				<use xlink:href="#SVGID_127_"  style="overflow:visible;"/>
			</clipPath>
			<g class="st71">
				<rect x="842" y="175.6" class="st67" width="54.4" height="54.6"/>
			</g>
		</g>
	</g>
</g>
<g>
	<defs>
		<rect id="SVGID_129_" x="484" y="27" width="522" height="204"/>
	</defs>
	<clipPath id="SVGID_130_">
		<use xlink:href="#SVGID_129_"  style="overflow:visible;"/>
	</clipPath>
	<g class="st72">
		<g>
			<defs>
				<rect id="SVGID_131_" x="484" y="27" width="522" height="204"/>
			</defs>
			<clipPath id="SVGID_132_">
				<use xlink:href="#SVGID_131_"  style="overflow:visible;"/>
			</clipPath>
			<g class="st73">
				<rect x="842" y="175.6" class="st6" width="54.4" height="54.6"/>
			</g>
		</g>
	</g>
</g>
<g>
	<defs>
		<rect id="SVGID_133_" x="484" y="27" width="522" height="204"/>
	</defs>
	<clipPath id="SVGID_134_">
		<use xlink:href="#SVGID_133_"  style="overflow:visible;"/>
	</clipPath>
	<g class="st74">
		<g>
			<defs>
				<rect id="SVGID_135_" x="484" y="27" width="522" height="204"/>
			</defs>
			<clipPath id="SVGID_136_">
				<use xlink:href="#SVGID_135_"  style="overflow:visible;"/>
			</clipPath>
			<g class="st75">
				<rect x="896.4" y="175.6" class="st67" width="54.4" height="54.6"/>
			</g>
		</g>
	</g>
</g>
<g>
	<defs>
		<rect id="SVGID_137_" x="484" y="27" width="522" height="204"/>
	</defs>
	<clipPath id="SVGID_138_">
		<use xlink:href="#SVGID_137_"  style="overflow:visible;"/>
	</clipPath>
	<g class="st76">
		<g>
			<defs>
				<rect id="SVGID_139_" x="484" y="27" width="522" height="204"/>
			</defs>
			<clipPath id="SVGID_140_">
				<use xlink:href="#SVGID_139_"  style="overflow:visible;"/>
			</clipPath>
			<g class="st77">
				<rect x="896.4" y="175.6" class="st6" width="54.4" height="54.6"/>
			</g>
		</g>
	</g>
</g>
<g>
	<defs>
		<rect id="SVGID_141_" x="484" y="27" width="522" height="204"/>
	</defs>
	<clipPath id="SVGID_142_">
		<use xlink:href="#SVGID_141_"  style="overflow:visible;"/>
	</clipPath>
	<g class="st78">
		<g>
			<defs>
				<rect id="SVGID_143_" x="484" y="27" width="522" height="204"/>
			</defs>
			<clipPath id="SVGID_144_">
				<use xlink:href="#SVGID_143_"  style="overflow:visible;"/>
			</clipPath>
			<g class="st79">
				<rect x="950.8" y="175.6" class="st67" width="54.4" height="54.6"/>
			</g>
		</g>
	</g>
</g>
<g>
	<defs>
		<rect id="SVGID_145_" x="484" y="27" width="522" height="204"/>
	</defs>
	<clipPath id="SVGID_146_">
		<use xlink:href="#SVGID_145_"  style="overflow:visible;"/>
	</clipPath>
	<g class="st80">
		<g>
			<defs>
				<rect id="SVGID_147_" x="484" y="27" width="522" height="204"/>
			</defs>
			<clipPath id="SVGID_148_">
				<use xlink:href="#SVGID_147_"  style="overflow:visible;"/>
			</clipPath>
			<g class="st81">
				<rect x="950.8" y="175.6" class="st6" width="54.4" height="54.6"/>
			</g>
		</g>
	</g>
</g>
<g>
	<defs>
		<rect id="SVGID_149_" x="484" y="27" width="522" height="204"/>
	</defs>
	<clipPath id="SVGID_150_">
		<use xlink:href="#SVGID_149_"  style="overflow:visible;"/>
	</clipPath>
	<g class="st82">
		<g>
			<defs>
				<rect id="SVGID_151_" x="484" y="27" width="522" height="204"/>
			</defs>
			<clipPath id="SVGID_152_">
				<use xlink:href="#SVGID_151_"  style="overflow:visible;"/>
			</clipPath>
			<g class="st83">
				<line class="st6" x1="1005.2" y1="27.9" x2="1005.2" y2="82.4"/>
			</g>
		</g>
	</g>
</g>
<rect x="582.5" y="354" class="st21" width="52.2" height="52.1"/>
<rect x="582.5" y="354" class="st84" width="52.2" height="52.1"/>
<rect x="634.7" y="354" class="st21" width="52.2" height="52.1"/>
<rect x="634.7" y="354" class="st84" width="52.2" height="52.1"/>
<rect x="686.9" y="354" class="st21" width="52.2" height="52.1"/>
<rect x="686.9" y="354" class="st84" width="52.2" height="52.1"/>
<rect x="739" y="354" class="st21" width="52.2" height="52.1"/>
<rect x="739" y="354" class="st84" width="52.2" height="52.1"/>
<rect x="1121.7" y="354" class="st26" width="52.2" height="52.1"/>
<rect x="1121.7" y="354" class="st84" width="52.2" height="52.1"/>
<rect x="1173.9" y="354" class="st26" width="52.2" height="52.1"/>
<rect x="1173.9" y="354" class="st84" width="52.2" height="52.1"/>
<rect x="1226.1" y="354" class="st26" width="52.2" height="52.1"/>
<rect x="1226.1" y="354" class="st84" width="52.2" height="52.1"/>
<rect x="1278.2" y="354" class="st26" width="52.2" height="52.1"/>
<rect x="1278.2" y="354" class="st84" width="52.2" height="52.1"/>
<rect x="42.2" y="354" class="st3" width="52.2" height="52.1"/>
<rect x="42.2" y="354" class="st84" width="52.2" height="52.1"/>
<rect x="94.3" y="354" class="st3" width="52.2" height="52.1"/>
<rect x="94.3" y="354" class="st84" width="52.2" height="52.1"/>
<rect x="146.5" y="354" class="st3" width="52.2" height="52.1"/>
<rect x="146.5" y="354" class="st84" width="52.2" height="52.1"/>
<rect x="198.7" y="354" class="st3" width="52.2" height="52.1"/>
<rect x="198.7" y="354" class="st84" width="52.2" height="52.1"/>
<line class="st84" x1="250.9" y1="354" x2="250.9" y2="406"/>
<rect x="828.6" y="354" class="st62" width="52.2" height="52.1"/>
<rect x="828.6" y="354" class="st84" width="52.2" height="52.1"/>
<rect x="880.8" y="354" class="st62" width="52.2" height="52.1"/>
<rect x="880.8" y="354" class="st84" width="52.2" height="52.1"/>
<rect x="933" y="354" class="st62" width="52.2" height="52.1"/>
<rect x="933" y="354" class="st84" width="52.2" height="52.1"/>
<rect x="985.2" y="354" class="st62" width="52.2" height="52.1"/>
<rect x="985.2" y="354" class="st84" width="52.2" height="52.1"/>
<rect x="1367.8" y="354" class="st67" width="52.2" height="52.1"/>
<rect x="1367.8" y="354" class="st84" width="52.2" height="52.1"/>
<rect x="1420" y="354" class="st67" width="52.2" height="52.1"/>
<rect x="1420" y="354" class="st84" width="52.2" height="52.1"/>
<rect x="1472.2" y="354" class="st67" width="52.2" height="52.1"/>
<rect x="1472.2" y="354" class="st84" width="52.2" height="52.1"/>
<rect x="1524.4" y="354" class="st67" width="52.2" height="52.1"/>
<rect x="1524.4" y="354" class="st84" width="52.2" height="52.1"/>
<rect x="1691.4" y="354" class="st85" width="52.2" height="52.1"/>
<rect x="1691.4" y="354" class="st84" width="52.2" height="52.1"/>
<rect x="1743.6" y="354" class="st85" width="52.2" height="52.1"/>
<rect x="1743.6" y="354" class="st84" width="52.2" height="52.1"/>
<rect x="1795.8" y="354" class="st85" width="52.2" height="52.1"/>
<rect x="1795.8" y="354" class="st84" width="52.2" height="52.1"/>
<rect x="1848" y="354" class="st85" width="52.2" height="52.1"/>
<rect x="1848" y="354" class="st84" width="52.2" height="52.1"/>
<rect x="288.3" y="354" class="st45" width="52.2" height="52.1"/>
<rect x="288.3" y="354" class="st84" width="52.2" height="52.1"/>
<rect x="340.5" y="354" class="st45" width="52.2" height="52.1"/>
<rect x="340.5" y="354" class="st84" width="52.2" height="52.1"/>
<rect x="392.6" y="354" class="st45" width="52.2" height="52.1"/>
<rect x="392.6" y="354" class="st84" width="52.2" height="52.1"/>
<rect x="444.8" y="354" class="st45" width="52.2" height="52.1"/>
<rect x="444.8" y="354" class="st84" width="52.2" height="52.1"/>
<line class="st84" x1="497" y1="354" x2="497" y2="406"/>
<rect x="85" y="341.1" class="st86" width="1816" height="80.1"/>
<path d="M278.2,379.8c0-4.2-3.4-7.5-7.5-7.5c-4.2,0-7.5,3.4-7.5,7.5c0,4.2,3.4,7.5,7.5,7.5c0,0,0,0,0,0
	C274.8,387.3,278.2,383.9,278.2,379.8"/>
<rect x="262.1" y="371.8" class="st86" width="16.4" height="16.4"/>
<path d="M818.5,379.8c0-4.2-3.4-7.5-7.5-7.5s-7.5,3.4-7.5,7.5c0,4.2,3.4,7.5,7.5,7.5c0,0,0,0,0,0
	C815.1,387.3,818.5,383.9,818.5,379.8"/>
<rect x="802.5" y="371.8" class="st86" width="16.4" height="16.4"/>
<path d="M1357.7,379.8c0-4.2-3.4-7.5-7.5-7.5c-4.2,0-7.5,3.4-7.5,7.5c0,4.2,3.4,7.5,7.5,7.5C1354.3,387.3,1357.7,383.9,1357.7,379.8
	"/>
<rect x="1341.7" y="371.8" class="st86" width="16.4" height="16.4"/>
<path d="M540.3,381h14.3c0.7,0,1.7,0,1.7-1s-1-1-1.7-1h-14.3v-14.4c0-0.7,0-1.7-1-1.7s-1,1-1,1.7v14.3h-14.4c-0.7,0-1.7,0-1.7,1
	s1,1,1.7,1h14.4v14.3c0,0.7,0,1.7,1,1.7s1-1,1-1.7L540.3,381"/>
<rect x="521.9" y="362.7" class="st86" width="34.6" height="34.6"/>
<path d="M1080.6,381h14.4c0.7,0,1.7,0,1.7-1s-1-1-1.7-1h-14.3v-14.4c0-0.7,0-1.7-1-1.7s-1,1-1,1.7v14.3h-14.4c-0.7,0-1.7,0-1.7,1
	s1,1,1.7,1h14.4v14.3c0,0.7,0,1.7,1,1.7s1-1,1-1.7L1080.6,381"/>
<rect x="1062.2" y="362.7" class="st86" width="34.6" height="34.6"/>
<path d="M1664,394.6c1.7,0,4,0,4-2.4s-2.3-2.4-4.1-2.4h-53c-1.8,0-4.1,0-4.1,2.4s2.3,2.4,4,2.4H1664"/>
<path d="M1663.9,371c1.8,0,4.1,0,4.1-2.4s-2.3-2.4-4-2.4h-53.3c-1.7,0-4,0-4,2.4s2.3,2.4,4.1,2.4H1663.9z"/>
<rect x="1606" y="365.3" class="st86" width="62.5" height="29.3"/>
<path d="M46.2,420.8c0-0.1-0.1-0.2-0.2-0.3c-3.1-2-5.9-4.4-8.4-7.1c-7.9-8.6-11.5-19.5-11.5-32.3c0-9,1.8-20.6,9.9-30.5
	c2.9-3.5,6.3-6.5,10.1-9c0.1-0.1,0.2-0.2,0.1-0.3c0-0.3-0.3-0.3-1-0.3c-0.6-0.1-1.1,0.1-1.5,0.5C27.2,351.8,22,367,22,381.1
	c0,13.1,4.4,26.4,17,36.3c1.6,1.2,3.2,2.3,4.9,3.3c0.4,0.3,0.9,0.5,1.4,0.4C45.9,421.2,46.2,421.2,46.2,420.8"/>
<path d="M516.7,381.1c0-13.1-4.4-26.3-17-36.3c-1.6-1.2-3.2-2.3-4.9-3.4c-0.4-0.3-0.9-0.5-1.4-0.4c-0.6,0-1,0-1,0.3
	c0,0.1,0.2,0.3,0.3,0.3c3,2,5.8,4.4,8.3,7c7.9,8.6,11.5,19.5,11.5,32.3c0,9-1.8,20.6-9.9,30.5c-2.9,3.5-6.2,6.5-10,8.9
	c-0.1,0.1-0.2,0.2-0.2,0.3c0,0.3,0.4,0.3,1,0.3c0.6,0.1,1.1-0.1,1.5-0.5C511.5,410.4,516.7,395.1,516.7,381.1"/>
<path d="M587.6,420.8c0-0.1-0.1-0.2-0.2-0.3c-3.1-2-5.9-4.4-8.4-7.1c-7.9-8.6-11.5-19.5-11.5-32.3c0-9,1.8-20.6,9.9-30.5
	c2.9-3.5,6.3-6.5,10.1-9c0.1-0.1,0.2-0.2,0.1-0.3c0-0.3-0.3-0.3-1-0.3c-0.6-0.1-1.1,0.1-1.5,0.5c-16.5,10.2-21.7,25.5-21.7,39.5
	c0,13.1,4.4,26.4,17,36.3c1.6,1.2,3.2,2.3,4.9,3.3c0.4,0.3,0.9,0.5,1.4,0.4C587.3,421.2,587.6,421.2,587.6,420.8"/>
<path d="M1058,381.1c0-13.1-4.4-26.3-17-36.3c-1.6-1.2-3.2-2.3-4.9-3.4c-0.4-0.3-0.9-0.5-1.4-0.4c-0.6,0-1,0-1,0.3
	c0,0.1,0.2,0.3,0.3,0.3c3,2,5.8,4.4,8.3,7c7.9,8.6,11.5,19.5,11.5,32.3c0,9-1.8,20.6-9.9,30.5c-2.9,3.5-6.2,6.5-10,8.9
	c-0.1,0.1-0.2,0.2-0.2,0.3c0,0.3,0.4,0.3,1,0.3c0.6,0.1,1.1-0.1,1.5-0.5C1052.8,410.4,1058,395.1,1058,381.1"/>
<path d="M1126.8,420.8c0-0.1-0.1-0.2-0.2-0.3c-3.1-2-5.9-4.4-8.4-7.1c-7.9-8.6-11.5-19.5-11.5-32.3c0-9,1.8-20.6,9.9-30.5
	c2.9-3.5,6.3-6.5,10.1-9c0.1,0,0.2-0.2,0.2-0.3c0-0.3-0.3-0.3-1-0.3c-0.6-0.1-1.1,0.1-1.5,0.5c-16.5,10.2-21.7,25.5-21.7,39.5
	c0,13.1,4.4,26.4,17,36.3c1.6,1.2,3.2,2.3,4.9,3.3c0.4,0.3,0.9,0.5,1.4,0.4C1126.5,421.2,1126.8,421.2,1126.8,420.8"/>
<path d="M1597.2,381.1c0-13.1-4.4-26.3-17-36.3c-1.6-1.2-3.2-2.3-4.9-3.4c-0.4-0.3-0.9-0.5-1.4-0.4c-0.6,0-1,0-1,0.3
	c0,0.1,0.2,0.3,0.3,0.3c3,2,5.8,4.4,8.3,7c7.9,8.6,11.5,19.5,11.5,32.3c0,9-1.8,20.6-9.9,30.5c-2.9,3.5-6.2,6.5-10,8.9
	c-0.1,0.1-0.2,0.2-0.2,0.3c0,0.3,0.4,0.3,1,0.3c0.6,0.1,1.1-0.1,1.5-0.5C1592,410.4,1597.2,395.1,1597.2,381.1"/>
<rect x="85" y="341.1" class="st86" width="1816" height="80.1"/>
</svg>
